<svg width="247" height="39" viewBox="0 0 247 39" fill="none" xmlns="http://www.w3.org/2000/svg">
<path d="M157.965 20.1779C159.165 19.8029 168.24 9.75291 168.09 7.42791C177.015 8.32791 187.365 6.37791 196.215 7.42791C197.34 7.57791 198.54 7.57791 198.84 8.92791H169.665L160.59 20.1779H222.465L223.59 21.6779C210.24 21.6029 196.815 21.8279 183.465 21.6779C175.815 21.6779 173.415 21.0029 165.39 22.2029C157.365 23.4029 162.165 21.3029 160.29 21.6779C158.415 22.0529 145.89 40.0529 144.915 38.9279L157.665 21.3029C153.84 21.2279 149.865 22.1279 146.04 21.6779C142.215 21.2279 144.84 21.9029 144.915 20.1779H158.04H157.965Z" fill="#D5CECD"/>
<path d="M108.84 20.9277L110.34 24.6777C108.915 24.2277 108.315 22.2777 106.815 21.8277C105.315 21.3777 96.6896 21.0777 94.2146 20.9277C73.6646 20.0277 52.5146 21.7527 31.9646 20.9277C31.0646 20.9277 29.1896 21.5277 29.3396 20.1777C32.0396 20.4027 34.5146 19.5028 37.1396 19.3528C61.1396 18.1528 85.9646 19.6527 109.89 20.1777C112.74 20.1777 121.44 20.6277 123.39 19.4277C126.39 17.6277 126.99 14.3277 129.015 11.9277L129.615 14.7778L123.69 21.3027L126.69 25.8027C127.215 26.5527 127.815 25.4278 128.19 24.9778C131.49 21.2278 132.765 20.9277 130.44 15.6777L135.69 20.5527L127.065 26.9277C124.44 26.9277 122.64 20.9277 121.815 20.9277H108.69H108.84Z" fill="#D5CECD"/>
<path d="M33.84 8.92817L34.965 7.42817H77.7899L79.215 5.92817C79.89 5.85317 79.3649 6.97821 79.7399 7.27821C81.8399 8.62821 101.04 6.67815 105.09 7.50315C105.615 9.82815 104.115 8.55319 103.065 9.22819C102.015 9.90319 101.715 12.9032 101.34 9.00315H33.84V8.92817Z" fill="#D5CECD"/>
<path d="M165.84 8.17795C166.215 11.3279 159.915 8.92795 157.965 8.92795C144.99 8.55295 122.79 7.35295 110.64 8.92795C98.4899 10.5029 108.54 9.67793 107.34 10.5029L106.59 8.62793C107.265 7.50293 108.015 7.57793 109.14 7.50293C121.365 6.22793 143.04 6.90293 155.715 7.50293C168.39 8.10293 162.315 8.85293 165.84 8.25293V8.17795Z" fill="#D5CECD"/>
<path d="M0.0897369 6.67803C-0.885263 5.40303 6.38976 -0.146988 7.13976 0.00301218C8.78976 2.25301 11.4148 2.02799 13.4398 3.45299C15.4648 4.87799 15.4647 6.22807 16.3647 6.52807C17.2647 6.82807 21.8397 6.22803 21.8397 7.05303L13.2897 6.60305L10.2147 10.878C5.33974 11.253 4.06476 7.65305 0.0147552 6.60305L0.0897369 6.67803ZM2.33974 5.17803L7.21474 9.45299C10.5147 7.72799 11.1897 3.30305 7.21474 2.10305C4.66474 2.47805 5.33974 5.85305 2.33974 5.10305V5.17803Z" fill="#D5CECD"/>
<path d="M201.09 8.92781C201.54 7.27781 203.115 7.50283 204.39 7.35283C217.89 6.30283 232.515 10.0528 246.015 7.35283V9.60283C245.19 9.90283 244.365 8.85283 244.14 8.85283H201.015L201.09 8.92781Z" fill="#D5CECD"/>
<path d="M27.8397 9.67779C25.8897 7.65279 30.7647 6.82781 30.9147 6.22781C31.2147 -0.372189 24.2397 5.17779 26.3397 8.92779C20.0397 6.75279 26.3397 3.97779 28.5897 1.05279L35.3397 4.05279C35.0397 5.77779 29.3397 11.1778 27.8397 9.67779Z" fill="#D5CECD"/>
<path d="M232.74 26.0279C229.29 26.4779 226.44 23.6278 224.34 21.3028C224.34 20.5528 234.165 16.8778 235.515 17.5528C236.865 18.2278 238.14 20.5528 239.265 21.3028C237.315 23.1778 235.59 25.6529 232.665 26.0279H232.74ZM226.59 21.6778C228.84 26.1028 236.49 25.8028 237.165 20.6278L234.465 17.9278C231.465 20.1028 230.64 20.0278 231.84 23.9278L230.34 20.9278L226.59 21.6778Z" fill="#D5CECD"/>
</svg>
