<svg width="492" height="39" viewBox="0 0 492 39" fill="none" xmlns="http://www.w3.org/2000/svg">
<path d="M246.375 18.8006C245.175 19.1756 236.1 29.2256 236.25 31.5506C227.325 30.6506 216.975 32.6006 208.125 31.5506C207 31.4006 205.8 31.4006 205.5 30.0506H234.675L243.75 18.8006H181.875L180.75 17.3006C194.1 17.3756 207.525 17.1506 220.875 17.3006C228.525 17.3006 230.925 17.9756 238.95 16.7756C246.975 15.5756 242.175 17.6756 244.05 17.3006C245.925 16.9256 258.45 -1.07439 259.425 0.0506094L246.675 17.6756C250.5 17.7506 254.475 16.8506 258.3 17.3006C262.125 17.7506 259.5 17.0756 259.425 18.8006H246.3H246.375Z" fill="#D5CECD"/>
<path d="M295.5 18.0505L294 14.3005C295.425 14.7505 296.025 16.7006 297.525 17.1506C299.025 17.6006 307.65 17.9005 310.125 18.0505C330.675 18.9505 351.825 17.2255 372.375 18.0505C373.275 18.0505 375.15 17.4505 375 18.8005C372.3 18.5755 369.825 19.4755 367.2 19.6255C343.2 20.8255 318.375 19.3255 294.45 18.8005C291.6 18.8005 282.9 18.3505 280.95 19.5505C277.95 21.3505 277.35 24.6505 275.325 27.0505L274.725 24.2005L280.65 17.6755L277.65 13.1755C277.125 12.4255 276.525 13.5505 276.15 14.0005C272.85 17.7505 271.575 18.0505 273.9 23.3005L268.65 18.4255L277.275 12.0505C279.9 12.0505 281.7 18.0505 282.525 18.0505H295.65H295.5Z" fill="#D5CECD"/>
<path d="M370.5 30.0503L369.375 31.5503H326.55L325.125 33.0503C324.45 33.1253 324.975 32.0003 324.6 31.7003C322.5 30.3503 303.3 32.3004 299.25 31.4754C298.725 29.1504 300.225 30.4253 301.275 29.7503C302.325 29.0753 302.625 26.0754 303 29.9754H370.5V30.0503Z" fill="#D5CECD"/>
<path d="M238.5 30.8006C238.125 27.6506 244.425 30.0506 246.375 30.0506C259.35 30.4256 281.55 31.6256 293.7 30.0506C305.85 28.4756 295.8 29.3006 297 28.4756L297.75 30.3506C297.075 31.4756 296.325 31.4006 295.2 31.4756C282.975 32.7506 261.3 32.0756 248.625 31.4756C235.95 30.8756 242.025 30.1256 238.5 30.7256V30.8006Z" fill="#D5CECD"/>
<path d="M161.25 18.0505C161.4 19.3255 159.525 18.7255 158.625 18.8005C124.125 20.2255 88.875 17.7505 54.3 18.8005L51 17.3005L106.125 18.0505H161.25Z" fill="#D5CECD"/>
<path d="M404.25 32.3007C405.225 33.5757 397.95 39.1257 397.2 38.9757C395.55 36.7257 392.925 36.9508 390.9 35.5258C388.875 34.1008 388.875 32.7507 387.975 32.4507C387.075 32.1507 382.5 32.7507 382.5 31.9257L391.05 32.3757L394.125 28.1007C399 27.7257 400.275 31.3257 404.325 32.3757L404.25 32.3007ZM402 33.8007L397.125 29.5258C393.825 31.2508 393.15 35.6757 397.125 36.8757C399.675 36.5007 399 33.1257 402 33.8757V33.8007Z" fill="#D5CECD"/>
<path d="M203.25 30.0507C202.8 31.7007 201.225 31.4757 199.95 31.6257C186.45 32.6757 171.825 28.9257 158.325 31.6257V29.3757C159.15 29.0757 159.975 30.1257 160.2 30.1257H203.325L203.25 30.0507Z" fill="#D5CECD"/>
<path d="M376.5 29.3007C378.45 31.3257 373.575 32.1507 373.425 32.7507C373.125 39.3507 380.1 33.8007 378 30.0507C384.3 32.2257 378 35.0007 375.75 37.9257L369 34.9257C369.3 33.2007 375 27.8007 376.5 29.3007Z" fill="#D5CECD"/>
<path d="M171.6 12.9504C175.05 12.5004 177.9 15.3504 180 17.6754C180 18.4254 170.175 22.1004 168.825 21.4254C167.475 20.7504 166.2 18.4254 165.075 17.6754C167.025 15.8004 168.75 13.3254 171.675 12.9504H171.6ZM177.75 17.3004C175.5 12.8754 167.85 13.1754 167.175 18.3504L169.875 21.0504C172.875 18.8754 173.7 18.9504 172.5 15.0504L174 18.0504L177.75 17.3004Z" fill="#D5CECD"/>
<path d="M36 18.0505H0V18.8005H36V18.0505Z" fill="#D5CECD"/>
<path d="M492 18.0505C492.075 19.2505 490.425 18.9505 489.525 19.5505C488.625 20.1505 489.075 21.1255 488.625 21.1255C487.575 21.1255 486.15 19.9256 484.8 19.7756C482.4 19.6256 479.175 20.6755 476.25 19.5505L476.625 18.0505C481.425 19.9255 487.05 18.2755 492 18.0505Z" fill="#D5CECD"/>
</svg>
