<svg width="200" height="30" viewBox="0 0 200 30" fill="none" xmlns="http://www.w3.org/2000/svg">
<path d="M142.163 10.4132C137.73 7.91899 132.06 6.19568 124.638 6.78523C133.607 3.11188 139.174 9.46089 145.875 9.95974C150.204 10.2772 160.204 10.4132 163.4 9.09808C164.225 8.91668 163.503 9.86903 164.534 10.0051C169.586 10.5946 179.482 9.41556 184.74 10.0958C189.998 10.7761 191.956 15.6738 199.894 14.5401C200.719 16.3994 196.492 14.6762 194.74 15.175L188.554 19.3018C175.359 19.6646 162.06 19.6193 148.864 19.5739C145.771 19.5739 143.813 18.7123 140.823 19.5739C137.833 20.4356 138.761 21.0251 137.627 21.3879C133.71 22.7031 104.947 21.2065 97.4215 21.8414C92.7824 22.2042 83.8134 29.7324 78.762 29.9591C66.7002 30.594 60.6179 23.6555 50.7211 21.4787L10.2061 21.8414L10.8246 20.4809L0 14.4041L14.8452 6.87591C16.0823 6.69451 16.907 6.96661 16.3916 7.55616C14.9483 9.05272 8.04117 11.3656 5.56697 12.7714C3.09277 14.1773 3.29895 13.3156 5.05151 13.9052C9.07208 14.9029 21.34 13.6331 26.1853 13.6331C31.0306 13.6331 30.6182 14.1319 33.4017 14.1319C38.5563 14.1319 52.6798 14.5401 56.3911 13.8145C60.1024 13.0889 60.3086 10.0051 57.6282 9.14342L61.7518 8.68991C63.092 9.86902 61.3394 10.2318 60.9271 11.1842C60.5147 12.1365 62.5766 12.8168 58.6591 14.1319C61.6488 14.7668 69.6899 11.3656 70.5146 10.5039C71.8548 9.18877 69.5868 7.10266 73.6074 6.87591L86.1845 14.1773C88.7618 14.9936 91.5453 14.1319 94.0195 14.268C96.4937 14.404 107.937 15.2657 105.153 16.3994C99.174 15.2657 92.7824 15.5831 86.2877 15.4924C84.5351 16.6715 74.329 23.0205 71.6486 22.7484C67.8342 19.6646 61.5456 17.5332 56.1849 15.0389H4.63911C4.22676 15.0389 2.88657 13.8598 3.09274 15.2657C7.42259 16.8076 9.79378 19.3019 14.1236 20.3903C24.7421 20.9345 36.4944 20.0274 46.9066 20.4809C57.3189 20.9344 63.5044 26.1951 71.5455 28.6894C74.0197 29.415 77.3186 29.3243 79.8959 28.6894C85.1536 27.3742 92.9886 21.4787 98.3493 19.6193L97.8339 20.9798C108.555 20.5263 122.06 21.6147 132.473 20.9798C137.009 20.7077 138.967 18.7123 141.751 17.3518L142.782 18.7577L185.771 18.6216C187.936 18.7576 192.575 15.9006 191.647 15.5378C178.142 16.082 161.957 14.8576 148.864 15.5378C135.772 16.2181 146.493 17.1251 143.813 16.9437L145.359 15.5832H105.153C107.524 14.0866 103.401 12.5447 101.03 11.2749C93.8133 7.4655 84.432 4.29096 76.7001 0.708307C71.8548 0.300156 58.556 6.92131 54.02 8.50856C49.484 10.0958 53.6076 9.0074 53.7107 9.23415H18.6595V8.32715H51.1334C60.4116 6.33174 69.0713 -2.78363 80.5145 0.844379C91.9576 4.47239 97.7307 8.14575 102.164 10.3679C106.597 12.5901 106.597 13.7238 109.896 14.6762H192.884L184.121 11.0482H146.493L147.524 12.8622C145.874 12.6354 144.947 11.0482 142.885 11.0482H108.349V10.5947H142.369L142.163 10.4132ZM71.0301 21.2973C73.7105 22.1589 81.9578 15.2657 84.432 14.6762C85.0505 12.1366 76.3908 11.0028 72.061 11.8191L73.7104 13.5877L79.2774 13.1796C78.0403 14.5854 75.0507 14.6308 72.061 14.5401V19.0298L75.1537 19.3018L72.061 20.4356C68.3497 19.8007 71.7517 17.125 70.1022 16.1727L65.8755 15.9006L71.0301 15.4471C68.3497 13.5424 63.7106 14.6761 59.69 14.9936L71.0301 21.3426V21.2973Z" fill="#D5CECD"/>
<path d="M102.987 5.87822L123.605 6.55847C122.471 7.28407 120.822 7.23871 118.966 7.28406C117.111 7.32941 107.111 7.37476 105.564 7.28406C104.018 7.19336 102.678 6.78521 102.987 5.92356V5.87822Z" fill="#D5CECD"/>
</svg>
