<svg width="740" height="180" viewBox="0 0 740 180" fill="none" xmlns="http://www.w3.org/2000/svg">
<path d="M259.312 64.0996C265.812 64.3996 268.412 66.5996 272.912 67.0996C277.412 67.5996 281.112 65.8996 285.612 67.9996L289.312 62.0996L285.312 60.5996C286.912 57.9996 288.412 60.5996 290.612 59.9996C292.812 59.3996 293.012 56.5996 295.312 57.0996L289.312 66.5996C288.512 69.2996 296.712 61.6996 297.412 60.5996C298.112 59.4996 296.812 56.7996 299.312 55.5996L316.312 52.0996C316.812 55.0996 315.512 53.6996 314.012 54.1996C311.212 55.1996 308.712 55.5996 306.012 57.2996C299.512 61.3996 292.412 69.0996 289.312 76.0996C295.212 72.3996 301.412 62.0996 307.612 59.7996C313.812 57.4996 316.812 60.2996 317.312 60.5996C317.812 60.8996 318.612 61.8996 318.312 62.0996C315.912 62.2996 313.312 61.6996 311.012 62.2996C308.712 62.8996 291.612 77.5996 292.712 80.0996L368.212 148.1C369.612 141.8 367.212 143.1 365.212 140.6C363.212 138.1 360.212 134.8 359.212 131.6L367.712 139.1C369.712 134.7 367.612 133 365.812 130C364.012 127 365.312 127.3 365.112 127.2C364.712 126.8 363.012 128.4 361.612 127.3C359.312 125.5 356.012 120.1 354.112 117.7C355.412 116.3 357.212 118.5 359.112 117.7C361.012 116.9 365.312 111.1 366.012 109.5C373.212 92.7996 352.812 89.7996 346.212 78.6996C346.712 76.7996 364.612 66.4996 367.312 63.6996C370.012 60.8996 369.112 58.3996 370.712 59.1996C372.312 59.9996 370.912 62.1996 372.112 63.6996C374.512 66.7996 391.212 75.7996 391.212 80.6996C390.012 85.9996 373.212 96.1996 372.312 98.8996C370.412 104.6 375.212 116.7 380.812 118.1C386.412 119.5 384.212 115.2 386.112 116.7C383.212 126.2 369.912 128.3 370.112 139.2C372.112 141.2 380.112 131.3 382.112 129.7C384.112 128.1 384.112 127.1 385.112 128.7L373.712 141.3L370.112 150.2L444.012 79.5996C444.212 78.3996 436.112 70.4996 434.612 69.1996C429.712 64.8996 426.212 60.6996 419.112 62.1996C415.712 59.6996 426.412 60.0996 427.512 60.2996C431.812 60.9996 432.312 65.0996 436.112 64.6996C433.412 62.5996 430.812 58.4996 428.112 56.6996C425.412 54.8996 420.512 55.1996 418.112 52.1996C425.912 52.3996 434.912 53.8996 441.612 58.1996C443.012 53.8996 448.012 57.1996 443.112 58.6996L452.512 68.0996C457.012 65.9996 461.912 66.7996 466.312 65.8996C470.712 64.9996 470.912 63.2996 473.512 63.2996C476.112 63.2996 479.912 66.0996 483.012 66.1996C483.712 63.2996 479.712 63.8996 477.712 63.0996C475.712 62.2996 477.012 61.2996 476.512 61.2996C474.112 61.2996 469.612 63.1996 466.512 63.1996C461.912 63.1996 457.612 61.4996 453.012 62.0996C453.512 59.7996 454.712 60.6996 456.012 60.5996C465.112 59.9996 473.212 61.6996 480.512 55.0996L478.012 61.0996C485.012 61.8996 490.212 66.8996 495.612 70.8996L498.912 70.0996L496.912 67.5996C499.912 66.6996 498.412 66.4996 497.912 64.0996C501.312 63.2996 499.212 66.5996 500.312 68.0996C502.212 70.7996 513.912 68.0996 517.312 68.0996C523.312 68.0996 529.012 69.0996 534.312 69.1996C550.112 69.2996 566.012 69.3996 581.812 68.5996C582.912 68.9996 598.212 82.4996 599.412 84.0996C600.612 85.6996 600.812 86.4996 600.912 88.0996C601.912 88.9996 613.712 83.9996 606.312 93.1996C600.112 88.2996 599.212 95.0996 595.412 99.1996C591.612 103.3 589.012 105.5 585.912 108.7L528.412 109.3L508.912 107.3H584.912C585.012 107.3 584.912 105.5 585.812 104.8C590.212 101 595.612 97.7996 596.812 91.2996C592.012 92.6996 588.012 91.0996 583.312 91.2996C559.612 92.1996 535.912 92.2996 512.412 92.2996C488.912 92.2996 477.512 91.3996 474.312 93.2996C471.112 95.1996 469.612 101.8 467.412 101.3C461.512 94.3996 452.412 89.9996 447.712 82.4996C446.112 81.5996 443.712 83.3996 442.412 84.3996C429.012 93.8996 411.212 116 398.412 128.4C385.612 140.8 372.212 151.3 372.012 154L372.312 155.3L380.812 162.8L369.812 174.8L370.012 176.1C372.912 176.3 372.112 177.8 370.312 179.2C368.412 178.1 369.312 175.7 368.512 174.5C367.712 173.3 366.412 173.7 365.812 172.8C362.612 168.6 360.412 164.7 355.812 161.8C359.412 161.8 369.012 155.6 366.612 151.5L289.312 81.3996L269.312 103.4C266.612 104.1 264.712 93.4996 259.312 92.3996C248.712 90.3996 232.512 93.8996 221.312 92.3996C200.012 93.0996 177.612 92.3996 156.312 91.4996C135.012 90.5996 143.912 91.6996 137.812 91.4996C136.212 93.1996 143.612 103 145.312 104.5C151.912 110.7 162.512 107.5 170.312 107.4C186.712 107.3 204.112 106.8 220.412 107.4C221.612 107.4 224.112 106.6 223.912 108.4C204.712 109.6 185.612 109.4 166.412 109.4C164.212 109.4 162.212 110.5 160.412 110.5C158.612 110.5 147.812 109.3 146.412 108.5C141.512 105.7 135.012 95.0996 131.412 90.3996L124.912 93.3996C124.412 90.3996 125.712 88.5996 127.912 86.7996L131.912 87.9996C135.912 83.9996 145.012 72.8996 149.312 70.3996C153.612 67.8996 152.812 68.5996 153.812 69.8996L134.812 88.3996L264.812 89.3996C262.512 85.2996 256.912 88.3996 253.312 88.4996C243.712 88.7996 234.412 87.5996 225.312 87.3996C205.112 87.0996 184.912 87.5996 164.812 86.3996L166.312 84.3996L252.812 85.3996C250.812 82.2996 248.512 79.2996 246.212 76.4996C243.912 73.6996 243.012 76.0996 243.812 73.4996L253.812 66.4996C249.712 65.3996 248.812 68.8996 246.012 70.1996C238.112 73.7996 235.512 71.4996 228.312 71.3996C205.912 71.0996 181.312 73.0996 159.212 71.3996C137.112 69.6996 156.012 71.6996 154.812 69.8996C154.812 66.4996 171.612 69.3996 174.212 69.3996C187.512 69.6996 201.112 69.3996 214.212 69.3996C222.512 69.3996 231.112 69.9996 239.212 68.2996L238.712 70.2996C242.612 71.5996 242.912 68.3996 244.012 67.6996C246.912 65.9996 250.512 64.7996 253.212 62.3996L253.812 65.2996H258.112C258.912 65.4996 258.712 64.4996 258.712 64.3996C257.412 64.3996 256.012 64.3996 254.712 64.3996L258.712 61.3996C255.612 60.8996 253.912 58.0996 252.712 55.3996C257.012 55.8996 260.512 60.3996 265.212 60.3996H281.712C282.812 62.8996 276.312 63.1996 275.112 63.2996C268.412 63.5996 264.012 60.2996 258.712 64.3996L259.312 64.0996ZM448.312 70.0996C448.112 63.3996 440.112 58.7996 434.312 57.0996L448.312 70.0996ZM375.312 74.0996C375.812 65.2996 368.912 63.0996 363.212 69.5996C357.512 76.0996 362.512 72.4996 362.112 72.8996C361.112 73.7996 351.612 74.8996 351.412 79.4996L369.812 96.0996C377.612 93.0996 382.612 86.1996 388.312 80.4996L377.912 71.0996L375.412 74.0996H375.312ZM266.312 66.0996C259.312 65.2996 254.712 71.2996 249.312 74.5996C249.112 75.4996 257.712 84.0996 259.212 84.5996C262.412 85.5996 270.512 86.7996 270.212 81.9996C266.312 86.8996 255.012 81.2996 256.412 75.7996C257.812 70.2996 263.412 69.0996 266.212 65.9996L266.312 66.0996ZM457.312 76.0996C455.612 77.9996 467.712 84.1996 469.312 84.5996C477.612 87.0996 484.012 81.6996 487.412 74.4996C483.812 68.8996 476.312 64.7996 469.412 65.9996L475.912 68.9996L484.412 75.4996C474.812 86.7996 466.612 87.7996 464.412 70.9996H454.412L455.412 74.9996L462.412 73.9996L457.412 75.9996L457.312 76.0996ZM599.312 88.0996L580.412 70.5996C555.912 72.1996 531.212 70.0996 506.712 70.9996C503.712 71.0996 496.912 73.1996 494.912 72.7996C492.912 72.3996 487.712 64.5996 484.312 66.4996L492.212 74.3996L483.812 82.9996C483.512 86.2996 486.812 83.8996 488.712 84.0996C514.112 86.2996 541.412 85.1996 566.912 83.0996L574.312 85.9996C567.912 87.3996 562.212 85.7996 555.812 85.9996C534.512 86.5996 513.012 87.1996 491.912 86.9996C485.512 86.9996 474.512 88.0996 468.912 86.9996C463.312 85.8996 465.512 82.8996 462.412 82.9996C465.612 89.0996 470.812 88.6996 476.912 88.9996C509.012 90.5996 542.112 88.7996 573.912 87.8996C582.412 87.6996 591.012 88.1996 599.412 87.8996L599.312 88.0996ZM283.312 71.0996C278.212 70.7996 272.412 71.5996 272.412 77.6996L272.812 85.0996C275.412 83.7996 285.912 73.6996 283.312 71.0996ZM474.312 81.0996L479.312 76.5996C477.512 74.3996 470.712 70.9996 468.312 72.5996C465.912 74.1996 467.812 75.9996 468.812 76.0996C470.412 76.2996 472.112 72.4996 473.812 75.0996L474.312 81.0996ZM267.312 76.0996C265.512 69.4996 253.912 76.0996 262.812 81.0996L263.312 76.0996H267.312ZM287.312 78.0996L283.312 79.4996L273.412 89.9996L285.312 81.3996L287.412 77.9996L287.312 78.0996ZM462.012 86.3996C461.212 85.5996 459.812 85.0996 458.812 84.0996C456.612 81.8996 455.612 77.2996 451.312 77.9996C450.612 82.5996 455.812 83.2996 458.212 85.5996C460.612 87.8996 462.112 91.0996 464.812 92.9996C469.112 92.7996 463.212 87.7996 461.912 86.3996H462.012ZM369.312 125.1L367.812 112.1L360.612 120.6L370.812 130.1L374.312 125.1H369.312ZM379.312 122.1C380.112 121.3 374.112 114.8 373.112 113.8C372.112 112.8 372.312 111.6 370.312 112.1L371.312 124.1C374.912 123.5 375.012 119.8 379.312 122.1Z" fill="#F9F7E7"/>
<path d="M404.312 31.1L394.312 26.1C396.912 33.4 406.513 30.1 408.312 36.1C407.912 36.5 399.812 33.7 398.412 33.5C397.012 33.3 396.212 34.9 394.912 34.9C391.312 35 385.512 33 381.312 34C382.712 30.5 386.912 32.9 389.312 31.5C385.612 28.1 381.313 25.1 377.713 21.6C374.113 18.1 374.712 15.8 371.412 16C369.512 18.2 377.612 29.5 379.012 31.9C380.412 34.3 381.212 33.2 379.012 35L371.512 23L369.412 23.6C367.812 26.9 365.113 33.4 361.513 34.5C357.913 35.6 354.613 32.8 351.013 36C349.213 31.8 348.313 33.5 344.513 34C343.613 29.9 347.412 30.2 349.412 28.4C353.512 24.9 357.613 21.2 361.513 17.5L360.013 17C354.113 20.2 348.413 28.2 343.013 31C337.613 33.8 333.613 33.3 329.513 36C329.513 33.8 328.713 33.7 330.713 32.7C335.013 30.6 341.712 31.3 345.412 26.5L341.912 27L341.412 25C348.412 22.8 355.012 18.3 360.412 13.5C365.812 8.7 369.912 5.5 369.412 0C373.612 1.2 371.312 5.9 373.412 8.5C375.512 11.1 389.012 22.4 390.012 22.9C392.712 24.3 394.912 23.6 397.312 24.6C399.713 25.6 403.212 29.3 404.312 31V31.1ZM395.312 32.1C389.012 26 382.512 19.8 375.812 14.1C369.113 8.39998 374.212 11.7 372.312 12.1C377.812 17.5 384.812 25.6 390.812 30.1C396.812 34.6 393.413 32.4 395.312 32.1ZM369.312 14.1L353.812 28.1L351.312 32.1C354.312 31.8 358.013 32.6 360.812 32.1C363.612 31.6 370.113 17.9 369.312 14.1Z" fill="#F9F7E7"/>
<path d="M39.1121 72.3001C39.8121 72.7001 39.9121 74.5001 40.8121 75.1001C41.2121 75.4001 40.8121 69.7001 44.8121 78.1001C47.2121 83.2001 39.4121 76.0001 38.3121 75.5001C36.1121 74.4001 34.2121 74.9 33.3121 74.4C31.9121 73.7 22.3121 66.9001 21.3121 68.1001L22.3121 85.1001C25.2121 85.4001 25.2121 81.9001 26.7121 80.1001C28.2121 78.3001 31.3121 75.4 31.7121 75.4C37.5121 78.4 52.7121 90.4 58.7121 89.2L59.3121 86.3001L64.3121 86.7C66.3121 88 64.5121 90.2001 63.3121 90.8001C62.1121 91.4001 61.1121 87.8001 59.3121 90.8001L63.3121 94.3001C53.9121 90.9001 45.8121 98.8001 37.3121 101.3C36.6121 104.7 42.8121 102.8 42.3121 107.3C39.6121 108.3 40.7121 105.4 39.7121 105.4C38.7121 105.4 38.0121 106.3 37.3121 105.9C36.6121 105.5 37.4121 102.9 34.0121 103.4C30.6121 103.9 27.6121 105.6 26.8121 106.3C25.4121 107.5 25.9121 109.3 24.1121 110.7C22.0121 112.4 19.4121 111.4 17.3121 113.3V108.3C24.2121 113.4 23.2121 105.3 25.3121 103.8C32.6121 99.8001 44.2121 97.4001 51.0121 93.5001C57.8121 89.6001 53.7121 92.2001 53.3121 90.3001C45.6121 89.7001 40.7121 91.8 34.4121 95.9C28.1121 100 31.3121 100.1 28.9121 99.3001L23.8121 87.3001L20.3121 103.3C18.0121 99.4001 20.3121 96.1001 20.3121 92.8001C20.3121 84.8001 6.01213 91.2 5.21213 90.4V87.4C2.41213 86.2 3.81213 90.3 1.71213 89.4C-0.387868 88.5 -0.087868 87.6 0.212132 86.4L10.2121 85.4L9.21213 88.4C13.5121 87.1 15.5121 86.2 20.2121 87.4V79.0001L18.2121 77.9C21.1121 77.1 20.2121 75.6 20.3121 72.9L17.4121 72.3001V65.4C23.0121 63.8 25.0121 68.6001 29.6121 70.6001C34.2121 72.6001 37.9121 72.0001 39.1121 72.6001V72.3001ZM33.3121 78.1001C28.4121 79.3001 25.4121 85.4001 26.3121 90.1001L32.2121 82.5001L33.3121 78.1001ZM48.3121 89.1001C47.9121 87.1001 38.0121 81.4001 37.3121 82.1001C38.4121 86.8001 43.7121 89.8001 48.3121 89.1001Z" fill="#F9F7E7"/>
<path d="M695.312 77.1C690.713 77.5 686.113 84.1 682.613 84.9C679.113 85.7 679.913 81.3 681.312 80.5C682.712 79.7 683.812 81.1 685.312 80.5C686.812 79.9 689.712 77.3 689.812 77C690.113 76.5 688.713 73.6 691.713 72.4C694.713 71.2 698.413 72.2 700.113 71.3C701.813 70.4 702.013 68.7 702.613 68.3C704.513 67.1 707.312 68.3 708.812 64H710.312L710.512 65.7L712.312 64.9C713.913 69.5 710.112 69.7 709.512 72.6C708.912 75.5 709.412 80.1 709.412 83.8C712.912 87.5 722.412 75 727.312 75.9C723.612 81 715.513 79.2 718.312 87.9C721.013 88.3 722.612 87.4 721.312 84.9C727.312 85.3 733.512 86.7 739.312 84.9V88.9C735.213 86.9 731.513 87.6 727.812 89.9C726.612 85.9 724.213 87.5 726.312 90.9C722.812 92.8 721.513 89.3 718.713 88.9C715.913 88.5 713.213 90.3 710.312 88.9L709.812 100.9C707.713 97.3 707.013 90.6 708.312 86.9C706.213 84.8 701.113 95.9 701.812 97.9C696.012 96.7 691.212 92.7 685.412 91.3C679.612 89.9 669.913 90.2 668.312 87.4L670.812 84.9C676.012 92.5 682.713 87.8 688.312 83.3L699.312 82.9C697.913 80.8 694.812 80.1 695.312 76.9L704.312 82.9L700.312 77.4C699.613 75.6 701.712 75.5 702.812 75.9C703.913 76.3 705.213 81.6 707.312 81.9C709.212 77.3 707.812 73.5 707.312 68.9C703.912 72.1 696.513 72.7 695.312 76.9V77.1Z" fill="#F9F7E7"/>
<path d="M347.312 44.0997C349.112 45.8997 337.612 56.5997 335.812 58.0997C327.212 65.2997 316.012 70.2997 310.312 80.5997L352.312 124.6L354.312 128.1C337.112 113.1 322.612 95.5997 306.312 79.5997C309.612 77.8997 311.612 72.1997 313.612 70.3997C319.212 65.4997 327.613 61.5997 333.812 56.0997C340.012 50.5997 340.312 48.2997 343.312 45.5997C346.312 42.8997 345.312 43.7997 347.312 44.0997Z" fill="#F9F7E7"/>
<path d="M428.013 86.7992C426.713 88.1992 420.013 91.2992 418.313 94.0992L429.213 79.6991C428.713 76.9991 406.213 62.8992 402.313 59.5992C398.413 56.2992 389.313 47.2992 391.313 45.0992C393.313 44.6992 393.713 46.0991 394.713 47.1991C397.813 50.3991 401.113 55.5992 404.813 58.0992C408.513 60.5992 408.413 58.8992 409.913 59.9992C417.413 65.6992 424.713 71.9992 431.913 77.9992C433.513 80.8992 430.513 81.6992 429.313 83.4992C428.113 85.2992 428.613 86.0991 428.113 86.6991L428.013 86.7992Z" fill="#F9F7E7"/>
<path d="M708.212 106.1L710.212 102.1V110.1L713.212 107.1L712.712 113.1L692.212 102.1C692.512 106.4 688.812 107.3 685.212 107.1L690.712 101.1C687.112 99.0995 683.312 96.7995 679.512 95.2995C675.712 93.7995 670.012 94.5995 670.212 91.0995C676.912 88.2995 705.912 107.9 708.112 106.1H708.212Z" fill="#F9F7E7"/>
<path d="M347.312 89.0998V92.0998L341.312 92.5998C346.212 98.2998 352.012 104.9 354.312 112.1C349.612 108.3 346.812 102.5 342.712 98.1998C338.612 93.8998 331.812 91.3998 334.912 89.0998C338.012 86.7998 343.512 91.4998 347.312 89.0998Z" fill="#F9F7E7"/>
<path d="M407.012 93.7993C401.112 98.5993 397.513 102.699 392.313 108.599C387.113 114.499 390.713 114.499 386.313 114.099C385.513 113.399 388.613 109.499 389.313 108.599C393.513 103.199 398.613 97.5993 403.313 92.5993L398.813 90.0993C401.813 87.1993 413.212 88.6993 407.012 93.7993Z" fill="#F9F7E7"/>
<path d="M415.312 99.0996C415.713 101 414.212 101.5 413.312 102.6C408.613 108.3 399.412 117.2 393.812 122.1C388.213 127 388.912 126.5 386.312 127.1L411.812 101.1L415.312 99.0996Z" fill="#F9F7E7"/>
<path d="M120.112 86.2992C120.312 86.2992 121.812 89.2992 123.212 89.5992C120.312 96.6992 114.612 90.0992 109.312 90.0992C107.612 88.4992 109.512 88.3992 110.812 88.0992C112.712 87.7992 119.512 85.9992 120.112 86.2992Z" fill="#F9F7E7"/>
<path d="M625.312 88.0992C626.012 91.3992 623.012 89.4993 621.012 90.2993C619.012 91.0993 618.212 94.4992 614.312 92.5992C610.412 90.6992 613.312 87.6992 616.012 86.1992L625.312 88.0992Z" fill="#F9F7E7"/>
<path d="M297.812 129.1C298.112 129.1 299.312 130.5 299.312 131.1C292.312 130.3 284.612 131.7 277.712 131.1C270.812 130.5 273.812 131.3 273.312 129C280.012 130.1 291.912 127.5 297.812 129V129.1Z" fill="#F9F7E7"/>
<path d="M461.312 129.1C460.712 131.3 458.612 131 456.912 131.1C451.312 131.6 445.512 130.2 439.812 131.1L438.312 129.1H461.312Z" fill="#F9F7E7"/>
<path d="M726.313 108.099C721.113 109.399 723.913 104.199 722.813 102.199C721.713 100.199 715.713 99.8992 716.313 95.1992C723.013 97.1992 725.513 101.599 726.313 108.199V108.099Z" fill="#F9F7E7"/>
<path d="M491.113 127.4C491.313 127.4 491.613 129.8 493.513 129.2C496.513 130.7 492.413 131.3 491.813 132.1C490.713 133.7 491.813 137.6 488.313 137.1C491.213 132.9 484.113 128.6 489.813 127.1C490.513 126.7 490.713 127.2 491.113 127.4Z" fill="#F9F7E7"/>
<path d="M641.312 88.0996C641.513 92.7996 629.812 91.1996 627.312 89.5996C631.613 86.4996 636.613 89.5996 641.312 88.0996Z" fill="#F9F7E7"/>
<path d="M249.312 128.099C249.312 131.999 247.113 133.899 247.812 138.099L243.312 129.699C244.913 127.399 246.812 127.199 249.312 128.099Z" fill="#F9F7E7"/>
<path d="M449.912 94.1991C455.512 92.4991 455.112 99.4992 451.712 99.9992C448.312 100.499 446.612 95.1991 449.912 94.1991Z" fill="#F9F7E7"/>
<path d="M475.312 127.1C476.413 128.2 475.912 139.8 471.312 139C474.513 133.7 475.812 131 470.312 127H475.312V127.1Z" fill="#F9F7E7"/>
<path d="M719.312 69.0996C716.912 72.5996 718.613 78.1996 714.312 80.0996L715.812 70.0996L719.312 69.0996Z" fill="#F9F7E7"/>
<path d="M14.5125 101.9L16.3125 102.6C14.9125 105.6 15.9125 111.8 11.3125 112C16.4125 107.2 11.8125 102.7 14.3125 97L14.5125 101.8V101.9Z" fill="#F9F7E7"/>
<path d="M373.713 74.7997C373.913 75.0997 374.812 75.0999 375.312 75.0999L371.412 79.9999C374.512 80.2999 374.012 82.6999 373.312 85.0999L368.312 83.0999C370.212 97.5999 376.413 81.3999 377.812 81.0999C379.212 80.9999 380.413 82.1999 380.213 83.4999C380.013 84.7999 372.912 93.9999 370.812 93.8999C366.912 90.8999 363.513 86.2999 363.312 81.1999L370.312 82.1999C373.013 78.1999 360.812 74.6999 367.312 70.6999C373.812 66.6999 372.113 72.7999 373.713 74.8999V74.7997Z" fill="#F9F7E7"/>
</svg>
