<svg width="781" height="114" viewBox="0 0 781 114" fill="none" xmlns="http://www.w3.org/2000/svg">
<path d="M663.053 53.0805C662.653 54.8805 661.053 54.9805 659.553 55.0805C646.753 56.4805 632.753 53.1805 620.053 55.0805L622.053 52.5805L620.053 51.0805L624.053 49.5805C624.053 48.2805 618.753 49.0805 620.053 46.0805L682.553 47.0805C685.353 47.4805 684.553 43.0805 685.553 42.9805L708.953 44.0805L707.953 47.0805L753.953 48.0805L750.953 42.5805C750.753 41.8805 751.753 41.9805 752.453 42.0805C755.953 42.2805 775.053 49.8805 778.653 51.8805C782.253 53.8805 780.353 51.8805 779.953 54.0805H715.653L713.953 51.0805L763.953 52.0805L755.453 45.0805L756.553 48.9805L755.453 50.9805C743.153 49.0805 730.053 50.1805 717.353 50.0805C704.653 49.9805 712.253 51.0805 707.353 51.9805C702.453 52.8805 698.953 51.8805 695.353 51.9805C691.753 52.0805 691.653 51.1805 691.853 52.9805H709.353C709.553 52.9805 710.953 54.3805 710.853 54.9805H685.353C685.153 54.9805 681.453 54.0805 681.853 52.9805L689.853 51.9805C677.453 49.0805 664.653 52.7805 652.353 50.8805L644.853 52.9805H662.853L663.053 53.0805ZM650.053 49.0805L636.553 47.9805L628.053 50.0805C632.253 49.6805 631.453 54.5805 636.053 53.0805L634.053 51.0805C640.153 48.3805 638.453 53.4805 643.053 53.0805V50.5805L650.053 49.0805ZM707.053 50.0805C706.753 48.0805 703.453 48.0805 701.553 48.0805H685.553C685.053 48.0805 684.053 49.2805 683.053 49.0805V50.0805H707.053Z" fill="#F9F7E7"/>
<path d="M28.0532 42.0801L26.0532 48.0801L70.4532 47.1801L71.5532 44.0801L94.0532 43.1801V47.1801C99.1532 44.8801 104.353 47.2801 108.553 47.1801C122.253 46.8801 144.553 43.8801 157.553 46.1801C158.753 46.3801 159.353 46.6801 160.053 47.6801L154.053 50.1801L159.053 52.1801C156.453 52.6801 154.053 51.28 151.653 51.28C149.253 51.28 145.353 51.8801 145.053 53.1801L152.353 52.5801L160.053 54.1801C145.353 54.8801 130.653 56.0801 116.053 54.1801L116.553 52.1801C114.153 49.1801 79.5532 53.2801 72.5532 52.1801C65.5532 51.0801 67.0532 45.6801 63.4532 54.1801C59.6532 55.0801 54.9532 53.0801 51.6532 53.1801C48.3532 53.2801 47.8532 54.1801 45.6532 54.1801C30.4532 54.3801 15.2532 53.9801 0.153196 54.1801C-0.346804 51.8801 0.453245 52.5801 1.45324 51.9801C4.25324 50.1801 26.9532 41.0801 28.1532 42.1801L28.0532 42.0801ZM64.0532 50.0801H25.5532C24.9532 50.0801 23.4532 51.6801 22.0532 51.0801L23.0532 45.0801L15.0532 52.0801C30.2532 52.0801 45.3532 51.6801 60.5532 51.0801C61.7532 51.0801 64.2532 51.8801 64.0532 50.0801ZM78.0532 50.0801H105.053L91.5532 48.0801C87.6532 48.4801 83.2532 47.6801 79.4532 48.0801C75.6532 48.4801 76.3532 48.8801 77.9532 50.0801H78.0532ZM118.053 53.0801H141.053L141.553 49.9801H152.053L141.553 47.9801L128.053 49.0801C127.853 50.7801 130.353 49.9801 131.553 50.0801C134.053 50.1801 136.553 50.0801 139.053 50.0801C137.053 54.2801 131.353 49.9801 127.553 50.9801L118.053 53.0801Z" fill="#F9F7E7"/>
<path d="M410.253 45.8804C412.453 47.3804 420.453 43.8803 420.053 48.0803L415.053 47.0803C416.353 50.4803 415.253 50.4803 412.553 52.0803L410.453 47.9803C405.753 49.6803 399.653 47.5803 395.153 49.5803C390.653 51.5803 390.353 54.1803 390.253 54.6803C390.053 55.8803 393.253 58.6803 392.153 61.0803H389.153C390.253 45.9803 384.853 48.8803 374.453 48.7803C364.053 48.6803 367.853 44.6803 368.653 53.0803C365.053 53.5803 365.053 50.7803 365.153 48.0803L345.153 49.0803C343.553 47.8803 345.153 47.2803 346.653 47.0803C355.453 45.9803 367.853 48.8803 373.653 41.0803L374.153 45.0803C382.853 47.3803 390.253 38.1803 389.153 30.0803C387.553 28.2803 380.253 38.4803 379.453 39.0803C378.653 39.6803 375.453 41.1803 376.253 38.5803C377.653 33.5803 390.253 28.1803 388.253 21.0803C391.653 20.6803 390.853 24.5803 392.253 26.5803C396.353 32.4803 406.253 39.1803 410.553 45.7803L410.253 45.8804ZM392.053 30.0803L390.053 30.5803C389.153 36.9803 399.153 47.0803 406.053 45.0803L392.053 30.0803Z" fill="#F9F7E7"/>
<path d="M618.053 49.0803H491.053L492.053 46.0803C497.053 48.6803 496.553 45.2804 498.453 44.9804C511.853 43.1804 528.153 44.9803 541.453 45.0803C562.653 45.0803 591.353 42.6803 611.453 45.0803C631.553 47.4803 618.253 45.8803 617.953 49.0803H618.053ZM606.053 47.0803H504.053V48.0803H606.053V47.0803Z" fill="#F9F7E7"/>
<path d="M283.053 45.0802L266.553 47.0802H169.053L172.553 48.0802C204.553 47.3802 236.653 48.9802 268.653 48.0802C275.553 47.8802 282.953 46.0802 290.053 47.0802C290.053 48.7802 286.753 48.9802 285.553 49.0802C268.953 50.3802 250.253 49.9802 233.553 50.0802C209.553 50.2802 185.853 49.4802 161.953 48.9802V45.9802C164.553 46.7802 166.953 44.3802 168.753 44.0802C170.553 43.7802 171.153 44.8802 171.453 44.8802H282.953L283.053 45.0802Z" fill="#F9F7E7"/>
<path d="M391.052 113.08C387.552 113.78 389.852 109.68 388.552 107.08C387.252 104.48 382.952 104.48 383.052 101.58C384.552 97.2801 390.152 96.3801 389.052 91.0801C390.752 91.4801 390.252 94.2801 391.552 96.0801C392.852 97.8801 395.753 98.4801 396.953 100.68C395.153 105.08 389.753 107.58 390.953 113.08H391.052ZM391.752 103.78C392.452 103.18 393.053 101.48 393.853 100.58C391.553 96.5801 389.353 98.4801 386.253 100.18C385.553 103.88 388.752 106.28 391.752 103.68V103.78Z" fill="#F9F7E7"/>
<path d="M437.753 41.1805C440.853 40.3805 444.953 44.6805 445.053 47.6805C445.153 50.6805 439.953 52.5805 438.553 56.0805C431.053 51.7805 429.853 45.9805 437.753 41.1805ZM434.153 46.1805C434.653 56.1805 446.353 50.6805 439.453 44.1805L434.153 46.1805Z" fill="#F9F7E7"/>
<path d="M342.753 46.3797C343.553 47.1797 344.253 49.3797 343.953 50.4797L340.453 54.1797C337.453 54.4797 335.253 50.3797 333.053 48.5797C334.953 45.7797 340.053 43.5797 342.753 46.3797Z" fill="#F9F7E7"/>
<path d="M94.5527 53.0803C94.9527 53.0803 96.3527 51.2803 97.0527 54.0803C94.9527 53.0803 91.6527 55.0803 90.5527 55.0803H69.0527V53.0803C77.5527 53.0803 86.0527 52.9803 94.5527 53.0803Z" fill="#F9F7E7"/>
<path d="M388.053 9.07984L387.053 0.0798375C394.453 -0.920163 394.453 7.77984 388.053 9.07984Z" fill="#F9F7E7"/>
<path d="M489.053 47.0801H475.053V49.0801H489.053V47.0801Z" fill="#F9F7E7"/>
</svg>
