<svg width="721" height="57" viewBox="0 0 721 57" fill="none" xmlns="http://www.w3.org/2000/svg">
<path d="M526.665 32.2202C512.465 34.7202 497.465 32.6202 482.965 32.6202C468.665 32.6202 450.565 31.7202 437.065 32.3202C423.565 32.9202 432.965 34.4202 430.165 34.2202L427.565 31.2202L426.065 36.2202C421.465 32.8202 416.665 34.4202 411.565 33.7202L428.165 29.1202C433.865 32.1202 442.665 31.1202 450.065 31.2202C475.565 31.6202 500.565 30.3202 526.165 31.2202C527.765 31.0202 528.765 28.4202 530.965 26.9202C537.265 22.7202 542.065 23.8202 548.665 26.6202C555.265 29.4202 551.665 29.1202 553.465 29.8202C559.265 32.2202 574.065 29.5202 581.065 29.4202C582.965 29.4202 585.865 30.9202 587.265 30.6202C588.665 30.3202 589.165 28.0202 591.065 28.1202C592.965 28.2202 595.065 30.6203 598.265 31.0203C603.565 31.7203 610.865 30.4203 616.365 30.0203C619.465 30.2203 619.965 33.9202 615.565 33.7202C609.765 33.5202 602.165 31.8202 596.265 32.9202C590.365 34.0202 593.065 35.9202 591.265 35.9202C589.465 35.9202 587.365 32.4202 584.065 32.1202C574.665 31.2202 557.965 33.0202 549.265 36.9202C540.565 40.8202 540.065 45.4202 532.065 41.1202C524.065 36.8202 526.365 36.0202 526.765 31.9202L526.665 32.2202ZM540.665 26.2202C532.765 26.4202 525.165 31.3202 531.365 39.3202C533.565 40.7202 541.265 40.8203 542.765 38.5203C544.265 36.2203 543.465 35.4202 543.765 35.2202C544.065 35.0202 545.365 36.0202 546.665 35.7202C549.265 35.1202 551.865 33.5202 554.665 33.1202C554.865 31.3202 552.465 32.2202 551.465 32.4202C549.365 32.7202 547.365 33.7202 545.265 34.1202C544.265 31.1202 542.565 29.1203 538.665 28.5203C536.765 30.1203 533.165 32.0202 533.765 35.1202C536.665 35.8202 535.765 32.7202 537.765 31.6202C541.465 29.5202 542.265 34.0202 541.365 37.2202C536.265 39.9202 530.165 37.8202 531.965 31.3202L540.765 26.1202L540.665 26.2202Z" fill="#F9F7E7"/>
<path d="M172.965 29.521C175.665 26.921 184.165 32.1209 188.665 30.2209C185.965 25.4209 179.765 25.7209 175.265 27.3209C172.465 28.2209 166.965 31.1209 170.465 33.7209L168.265 36.2209L167.265 33.1209C157.565 34.5209 146.765 32.0209 137.265 33.1209C127.765 34.2209 130.365 37.1209 124.765 33.1209C127.765 23.7209 132.965 31.0209 135.165 31.1209C137.365 31.2209 138.965 29.4209 141.165 29.3209C147.365 29.1209 158.565 32.4209 165.165 31.1209C171.765 29.8209 171.565 25.6209 175.665 24.6209C182.665 22.8209 188.465 25.0209 192.665 30.8209C191.265 34.2209 187.765 37.2209 184.065 37.8209C180.365 38.4209 176.365 38.0209 175.765 37.7209C173.365 36.7209 170.565 31.8209 172.965 29.4209V29.521Z" fill="#F9F7E7"/>
<path d="M305.665 30.2207C307.565 37.1207 303.465 32.6208 301.365 32.5208C269.765 30.7208 234.165 35.5207 202.065 33.3207C169.965 31.1207 198.765 33.4207 197.665 31.7207L305.665 30.2207Z" fill="#F9F7E7"/>
<path d="M401.665 22.2209H379.165L376.965 20.9208C372.565 10.6208 361.665 6.32083 351.365 11.3208C341.065 16.3208 345.665 18.2209 342.165 22.1209H320.165C319.565 22.1209 317.465 24.3209 316.665 22.6209C322.165 16.8209 334.765 22.4208 341.465 19.4208C348.165 16.4208 344.565 13.0209 347.765 10.6209C356.065 4.42088 367.965 6.12088 375.065 13.1209C382.165 20.1209 375.965 18.6209 384.165 19.7209C389.565 20.5209 397.865 18.2209 401.665 22.0209V22.2209Z" fill="#F9F7E7"/>
<path d="M387.165 31.2207C391.065 35.1207 386.765 41.8207 384.165 45.2207C371.165 62.0207 347.965 60.2207 335.665 43.7207C323.365 27.2207 330.765 36.7207 334.665 36.7207C343.365 60.0207 379.065 60.8207 386.165 36.2207C386.665 34.3207 384.565 32.7207 387.065 31.2207H387.165Z" fill="#F9F7E7"/>
<path d="M90.6652 32.2203L92.6652 28.2203C96.2652 27.6203 94.1652 31.5203 96.6652 32.2203C96.9652 26.2203 100.565 27.3203 102.665 31.7203C104.765 36.1203 104.365 32.4203 102.665 33.7203C100.165 35.0203 95.0652 34.2204 92.3652 34.6204C89.6652 35.0204 89.2652 37.2204 87.7652 36.1204C86.2652 35.0204 87.4653 33.9203 86.0653 33.4203C84.6653 32.9203 75.3652 32.3203 73.1652 32.2203C70.9652 32.1203 63.0652 34.4203 63.6652 30.8203L73.1652 30.2203C76.9652 30.6203 84.3652 32.5203 87.7652 30.8203C91.1652 29.1203 87.4652 27.4203 89.6652 27.3203L90.6652 32.3203V32.2203Z" fill="#F9F7E7"/>
<path d="M384.665 14.2202C383.465 15.4202 377.865 8.72022 376.565 7.82022C363.865 -1.27978 350.365 1.32025 339.565 11.7202C328.765 22.1202 337.765 15.1202 337.565 15.2202C336.765 15.9202 335.265 15.5202 335.565 13.7202C335.865 11.9202 340.065 8.02025 341.565 6.72025C354.165 -3.57975 372.165 -1.87975 382.565 10.7202C383.465 11.8202 384.965 12.3202 384.565 14.2202H384.665Z" fill="#F9F7E7"/>
<path d="M355.065 36.8208C348.965 30.7208 355.965 23.0209 362.665 22.1209C363.365 19.7209 353.265 23.7209 356.665 20.1209C360.065 16.5209 362.265 18.8209 363.665 19.6209C365.065 20.4209 367.865 27.0209 368.165 28.1209C370.365 34.7209 361.365 43.2208 354.965 36.8208H355.065ZM364.665 32.2208C364.665 32.2208 365.565 32.2208 365.665 31.4208C365.865 29.6208 364.965 26.0208 362.965 25.3208C348.465 24.4208 358.665 47.0208 364.665 32.2208C354.365 38.9208 356.865 27.6208 359.165 27.2208C361.465 26.8208 365.565 30.9208 364.665 32.2208Z" fill="#F9F7E7"/>
<path d="M702.665 33.221L702.065 36.321C696.965 38.621 694.565 35.521 695.365 30.521C700.165 23.121 702.465 31.221 703.265 31.221C704.065 31.221 706.365 30.121 708.165 30.121C709.965 30.121 712.365 30.721 714.365 30.821C716.365 30.921 722.865 28.821 719.165 33.221H702.665Z" fill="#F9F7E7"/>
<path d="M636.665 33.221C636.265 33.421 636.665 37.0211 633.365 36.1211C630.065 35.2211 630.865 30.221 633.265 28.321C636.365 27.221 635.665 30.621 637.365 31.221C639.065 31.821 640.665 30.321 641.265 30.321H657.265L658.765 31.821L657.265 33.321C654.265 33.321 637.665 32.721 636.765 33.321L636.665 33.221Z" fill="#F9F7E7"/>
<path d="M0.665279 33.2211C-0.934721 32.0211 0.665279 31.4211 2.16528 31.2211C7.96528 30.5211 13.6653 33.2211 18.1653 28.1211L22.5653 29.821L21.5653 37.1211C16.8653 39.1211 16.0653 33.2211 15.6653 33.2211H0.665279Z" fill="#F9F7E7"/>
<path d="M691.665 31.2211C693.265 32.9211 691.365 32.9211 690.165 33.2211C684.865 34.7211 679.265 36.9211 676.665 30.7211C676.765 28.3211 690.065 29.6211 691.665 31.2211Z" fill="#F9F7E7"/>
<path d="M42.6653 33.2211C41.7653 34.4211 27.0653 35.3211 27.6653 30.2211L41.1653 29.6211L42.6653 33.2211Z" fill="#F9F7E7"/>
<path d="M314.465 29.4207C314.665 29.4207 314.665 30.8207 315.465 31.1207C318.065 32.0207 322.465 30.3207 321.665 33.2207C319.265 32.4207 316.265 35.8207 315.165 35.9207C314.065 36.0207 310.165 33.1207 307.665 34.2207L309.165 28.2207C310.565 31.1207 313.365 28.9207 314.465 29.4207Z" fill="#F9F7E7"/>
<path d="M45.7653 28.3202C50.9653 25.0202 54.2653 36.0203 47.9653 37.1203C41.6653 38.2203 42.9653 30.1202 45.7653 28.3202Z" fill="#F9F7E7"/>
<path d="M105.665 33.2207C105.365 31.8207 106.065 30.8207 107.365 30.4207C108.665 30.0207 120.365 31.0207 122.165 31.2207C123.965 31.4207 123.765 30.9207 123.665 33.2207H105.665Z" fill="#F9F7E7"/>
<path d="M626.465 28.4211C626.965 29.2211 626.065 31.0211 627.165 31.2211L630.665 28.2211L629.665 34.2211L620.665 31.7211L623.665 27.7211C624.365 27.4211 626.265 28.1212 626.565 28.5212L626.465 28.4211Z" fill="#F9F7E7"/>
<path d="M675.665 36.2207C671.865 37.4207 671.465 33.0207 670.465 32.4207C668.965 31.4207 665.965 33.7207 666.665 30.2207L674.665 28.2207C673.465 32.0207 674.365 32.9207 675.665 36.2207Z" fill="#F9F7E7"/>
</svg>
