<svg width="508" height="80" viewBox="0 0 508 80" fill="none" xmlns="http://www.w3.org/2000/svg">
<path d="M127.305 48.2935C128.105 44.9935 125.105 47.1935 124.305 45.6935C121.705 40.6935 123.805 37.5935 129.305 37.2935V49.2935L138.205 48.2935L139.305 44.2935C133.505 46.3935 134.705 42.3935 130.405 42.1935C128.605 36.9935 138.005 32.3935 141.805 33.2935C145.605 34.1935 143.905 34.9935 142.405 35.7935C140.505 36.7935 136.005 35.4935 135.405 37.8935C134.805 40.2935 137.105 44.1935 139.305 43.2935C140.105 42.2935 137.505 36.1935 141.305 37.2935V46.7935C141.205 46.7935 151.305 49.1935 151.305 49.1935C140.705 38.7935 148.205 30.2935 161.305 33.6935C174.405 37.0935 161.705 44.5935 171.305 44.1935L172.805 39.1935L179.405 44.6935L177.905 47.2935C176.905 49.9935 191.605 50.6935 191.905 47.2935L192.405 50.2935C193.205 50.6935 208.605 50.5935 209.705 50.2935C210.805 49.9935 211.005 47.9935 212.705 47.0935C220.005 42.7935 229.605 40.2935 236.105 33.9935C242.605 27.6935 239.205 27.7935 243.905 26.2935L240.405 31.2935H251.405L241.905 22.2935C239.805 26.1935 234.805 28.3935 235.305 33.1935H230.305L240.205 21.5935L238.805 19.1935L235.305 20.1935L234.305 11.1935C237.005 11.3935 240.205 10.7935 242.805 11.1935C245.405 11.5935 246.005 13.3935 246.305 13.1935C246.605 12.9935 246.205 11.7935 246.505 11.5935C247.105 11.2935 248.105 12.0935 248.705 11.2935C249.905 9.6935 250.105 6.4935 252.805 5.2935L254.305 8.2935L256.305 6.7935C256.105 3.2935 252.305 4.8935 250.305 3.7935L256.605 2.2935C257.105 2.1935 258.305 -1.6065 261.305 0.793504L257.605 3.69353L257.305 28.2935C263.305 26.0935 266.605 20.8935 265.305 14.2935L260.805 15.2935L260.305 12.7935L278.305 11.2935V17.2935C274.205 18.6935 278.605 12.1935 275.805 12.2935C273.005 12.3935 274.505 17.9935 274.305 18.1935C273.805 18.6935 269.605 17.1935 269.305 20.7935C269.005 24.3935 276.805 29.2935 277.405 33.2935C276.405 34.4935 261.905 32.8935 258.905 33.2935C255.905 33.6935 255.805 34.0935 257.405 35.2935C263.305 37.1935 270.105 33.9935 275.405 35.8935C280.705 37.7935 283.105 40.9935 283.405 41.3935C284.405 42.5935 284.405 43.1935 282.305 42.9935C278.705 42.5935 278.105 44.0935 276.405 46.8935C281.305 50.2935 287.605 50.4935 293.405 50.3935L292.905 46.3935C296.105 48.2935 299.205 47.7935 300.905 51.2935L321.305 49.3935L320.305 46.3935C322.605 46.0935 323.405 47.6935 322.305 49.3935H349.305V46.3935C344.205 48.8935 339.805 47.5935 334.305 47.8935L333.305 45.3935L338.305 43.3935C335.605 44.1935 332.305 44.2935 329.705 45.2935C327.105 46.2935 323.505 50.6935 324.305 46.8935C325.105 43.0935 333.405 45.0935 335.805 40.3935H337.205C337.505 43.3935 340.805 44.0935 343.205 44.3935C339.705 26.9935 371.805 31.1935 361.105 46.7935C360.105 48.2935 358.205 47.8935 358.205 49.3935C367.705 50.7935 369.705 41.2935 366.205 34.3935C373.505 32.1935 378.305 36.7935 384.005 40.5935L383.205 48.3935H439.205L438.205 45.9935L440.705 43.3935L443.205 44.8935L441.205 48.3935H460.205C459.405 42.7935 462.805 37.2935 467.205 43.8935L464.205 48.3935H479.205C478.805 53.9935 472.505 50.3935 469.605 50.4935C440.205 51.2935 410.105 51.3935 380.705 51.3935C367.105 51.3935 353.205 50.7935 339.605 51.3935C326.005 51.9935 335.905 50.5935 336.105 52.3935C341.405 54.2935 345.805 52.3935 350.605 52.3935C388.705 51.8935 426.705 53.9935 464.605 52.3935C471.205 52.0935 487.105 53.6935 492.105 50.8935C497.105 48.0935 493.705 44.8935 497.105 45.3935C497.605 49.7935 502.805 50.1935 505.805 52.1935C508.805 54.1935 507.605 52.0935 507.105 54.3935C500.805 54.3935 497.705 61.1935 491.605 61.3935L492.105 52.3935L488.505 56.1935C481.505 54.9935 473.705 55.0935 466.505 55.2935C431.605 56.2935 396.505 55.2935 361.605 55.2935C339.805 55.2935 317.905 55.2935 296.105 55.2935V59.2935H293.105L294.005 55.8935L291.605 54.2935C284.605 55.3935 275.305 54.2935 268.705 55.3935C262.105 56.4935 257.705 63.7935 257.505 64.5935C255.005 71.3935 261.405 67.5935 261.105 73.1935H248.205C248.205 73.2935 252.205 72.2935 252.205 72.2935L250.205 69.2935H255.205L249.205 61.2935H247.305C246.305 63.8935 241.205 66.6935 238.205 66.2935L243.205 61.7935C239.605 60.2935 240.405 56.8935 244.205 59.2935C244.505 57.6935 243.805 57.1935 242.605 56.3935C239.205 54.1935 220.505 54.9935 215.105 54.6935C212.405 62.9935 212.405 55.3935 211.605 55.1935H144.605C126.705 53.8935 107.805 56.1935 89.7045 56.2935C71.6045 56.3935 42.2045 56.8935 18.7045 54.1935L17.1045 59.2935C10.3045 59.6935 7.10454 53.8935 0.104541 54.2935C-0.195459 51.5935 0.104541 52.6935 1.60454 52.2935C6.10454 50.8935 9.60454 49.1935 11.1045 44.2935L13.1045 44.8935C14.7045 55.0935 29.8045 51.7935 37.6045 52.2935C76.7045 54.7935 116.105 51.2935 155.605 52.2935C195.105 53.2935 171.305 54.2935 179.105 53.2935L168.605 51.2935C126.105 50.6935 83.1045 49.3935 40.6045 51.2935C36.4045 51.4935 32.3045 51.2935 28.1045 51.2935C27.2045 49.5935 29.8045 48.2935 30.6045 48.2935H46.1045L44.1045 42.2935C48.7045 41.4935 52.1045 43.6935 50.1045 48.2935H127.305ZM252.305 28.2935C251.605 23.9935 254.905 12.5935 248.005 14.4935C241.105 16.3935 243.405 19.0935 243.605 20.8935C243.805 22.6935 251.305 29.4935 252.305 28.3935V28.2935ZM254.305 32.2935C259.105 28.3935 254.605 20.4935 255.305 15.2935L253.405 27.8935L254.305 32.2935ZM268.305 22.2935L266.205 22.8935L259.305 32.2935C260.705 32.5935 264.405 30.6935 264.805 30.6935C265.905 30.6935 266.505 32.8935 268.305 32.2935L268.805 28.2935L270.505 32.1935H274.305C274.305 32.2935 268.305 22.3935 268.305 22.3935V22.2935ZM379.205 38.3935C375.205 40.3935 373.405 32.8935 369.805 36.2935L370.305 43.2935H373.305L374.305 38.2935L378.305 40.2935C379.105 41.2935 376.105 44.4935 375.305 44.7935C373.605 45.4935 371.805 43.2935 370.405 45.7935L372.405 48.8935L380.305 48.2935L379.305 38.3935H379.205ZM164.205 37.3935L161.305 36.2935C162.305 45.0935 158.105 39.8935 152.805 42.2935L151.805 37.2935C148.705 40.7935 149.805 46.4935 154.305 47.8935C158.805 49.2935 157.705 46.2935 159.805 44.2935C161.905 42.2935 166.705 40.3935 164.205 37.3935ZM252.305 38.2935C250.105 35.9935 238.405 36.9935 234.905 37.3935C231.405 37.7935 231.105 37.7935 231.305 39.2935C237.805 42.1935 243.905 41.5935 250.805 40.2935C257.705 38.9935 253.905 39.9935 252.305 38.3935V38.2935ZM278.305 42.2935C274.405 35.1935 264.205 38.1935 257.305 37.2935V41.2935C264.605 39.3935 270.905 43.2935 278.305 42.2935ZM348.305 37.2935C344.805 36.4935 344.505 38.3935 345.505 41.5935C346.505 44.7935 348.905 44.0935 350.605 45.2935C352.305 46.4935 351.305 48.9935 355.605 48.1935C359.905 47.3935 360.705 42.2935 360.305 38.3935C357.405 37.5935 358.705 40.4935 356.705 41.1935C354.705 41.8935 351.905 41.2935 349.905 42.1935L348.305 37.2935ZM232.305 40.2935L222.405 44.3935V50.2935C222.305 50.2935 225.305 50.2935 225.305 50.2935V45.2935L227.305 49.2935C231.205 48.3935 232.405 43.8935 232.305 40.2935ZM252.305 42.2935L248.805 47.2935L247.305 44.2935L248.305 52.2935L249.805 51.4935L250.305 53.2935C253.905 51.3935 251.805 45.6935 252.305 42.2935ZM261.305 43.2935C257.405 42.5935 260.005 49.9935 259.305 52.2935L263.305 53.2935V44.2935L261.805 46.2935L261.305 43.2935ZM239.205 44.3935H236.305L236.705 50.3935L242.305 51.2935C242.905 48.5935 241.005 49.8935 240.005 48.0935C239.005 46.2935 239.605 45.4935 239.205 44.3935Z" fill="#F9F7E7"/>
<path d="M271.105 69.5939C271.605 70.3939 271.105 72.0939 271.305 72.2939C271.705 72.7939 280.305 68.7939 279.305 73.2939L264.305 74.2939L270.305 72.2939L266.805 70.2939L267.805 68.2939C268.705 68.5939 270.605 68.8939 271.105 69.5939Z" fill="#F9F7E7"/>
<path d="M41.3047 64.2938C37.3047 65.9938 33.9047 64.7938 30.3047 62.7938C31.5047 59.7938 43.8047 61.0938 41.3047 64.2938Z" fill="#F9F7E7"/>
<path d="M480.305 61.2936C477.605 64.5936 470.305 63.6936 466.305 64.2936C467.005 58.7936 476.405 62.1936 480.305 61.2936Z" fill="#F9F7E7"/>
<path d="M298.305 75.2937L288.605 76.9937L282.305 79.2937C283.905 73.1937 293.605 75.8937 298.305 75.2937Z" fill="#F9F7E7"/>
</svg>
