<svg width="24" height="22" viewBox="0 0 24 22" fill="none" xmlns="http://www.w3.org/2000/svg">
<path d="M24 20.8204L19.5609 16.5471C21.002 14.8956 21.8697 12.7661 21.8697 10.4408V10.437H20.1372V10.4408C20.1372 11.803 19.7757 13.0839 19.1408 14.1995L15.2385 10.4428L21.4126 4.49908L22.8398 0L18.1727 1.37912L11.9986 7.3228L5.82453 1.37989L1.15702 0L2.58386 4.4987L8.75793 10.4424L4.85564 14.1991C4.22034 13.0831 3.85884 11.803 3.85884 10.4405V10.4366H2.12631V10.4405C2.12631 12.7668 2.99517 14.8975 4.43675 16.5486L0 20.8204L1.22517 22L5.66392 17.727C7.30319 19.0476 9.39442 19.8666 11.6818 19.9363V18.2683C10.3864 18.2209 9.16884 17.8811 8.09712 17.3176L11.9978 13.5623L15.8985 17.3176C14.8272 17.8811 13.6096 18.2209 12.3143 18.2683V19.9363C14.6028 19.867 16.6944 19.0472 18.3337 17.7255L22.7736 22L24 20.8204ZM18.576 2.02514L20.9199 1.3325L13.3477 8.62218L12.5359 7.84055L18.576 2.02514ZM9.2912 10.9632L10.1007 11.7475L5.97997 15.7142C5.72011 15.4399 5.48098 15.1479 5.26336 14.8401L9.2912 10.9632ZM3.25463 4.11116L2.53603 1.84563L17.4792 16.2312C17.1922 16.4828 16.8869 16.7147 16.5649 16.9254L3.25463 4.11116Z" fill="#BD482D"/>
</svg>
