<svg width="28" height="38" viewBox="0 0 28 38" fill="none" xmlns="http://www.w3.org/2000/svg">
<mask id="mask0_4772_19915" style="mask-type:luminance" maskUnits="userSpaceOnUse" x="0" y="0" width="28" height="38">
<path d="M28 0H0V37.9688H28V0Z" fill="white"/>
</mask>
<g mask="url(#mask0_4772_19915)">
<path d="M5.72701 13.1318C5.72701 13.1318 3.95425 19.5621 13.6536 32.1455C13.6536 32.1455 23.8488 19.718 21.7109 13.1652L5.72701 13.1318Z" stroke="#F9F7E7" stroke-width="0.75" stroke-miterlimit="10" stroke-linecap="round" stroke-linejoin="round"/>
<path d="M5.87012 16.2355C5.87012 16.2355 10.7716 13.5652 13.3622 17.4982C13.3622 17.4982 17.6149 13.1839 21.878 16.712" stroke="#F9F7E7" stroke-width="0.75" stroke-miterlimit="10" stroke-linecap="round" stroke-linejoin="round"/>
<path d="M13.3625 17.498L13.6308 32.1457" stroke="#F9F7E7" stroke-width="0.75" stroke-miterlimit="10" stroke-linecap="round" stroke-linejoin="round"/>
<path d="M21.711 13.1648C24.0076 11.9839 24.2637 10.8481 24.2637 10.8481C11.6777 12.3039 3.00409 10.8654 3.00409 10.8654C3.00409 10.8654 2.95479 12.3054 5.7268 13.1315" stroke="#F9F7E7" stroke-width="0.75" stroke-miterlimit="10" stroke-linecap="round" stroke-linejoin="round"/>
<path d="M3.00403 10.866L9.46065 9.13717C9.46065 9.13717 13.2488 10.6098 18.0742 9.00195L24.2969 10.8172" stroke="#F9F7E7" stroke-width="0.75" stroke-miterlimit="10" stroke-linecap="round" stroke-linejoin="round"/>
<path d="M9.60059 9.11902L10.6039 2.24463" stroke="#F9F7E7" stroke-width="0.75" stroke-miterlimit="10" stroke-linecap="round" stroke-linejoin="round"/>
<path d="M18.0744 9.00141L16.2588 2.28076" stroke="#F9F7E7" stroke-width="0.75" stroke-miterlimit="10" stroke-linecap="round" stroke-linejoin="round"/>
<path d="M16.2577 2.18481C16.2361 1.77938 14.9537 1.47748 13.3926 1.51082C11.8317 1.54415 10.5836 1.89976 10.6052 2.30538C10.6265 2.7108 11.9092 3.01271 13.4702 2.97936C15.0312 2.94605 16.2793 2.59024 16.2577 2.18481Z" stroke="#F9F7E7" stroke-width="0.75" stroke-miterlimit="10" stroke-linecap="round" stroke-linejoin="round"/>
<path d="M10.2397 4.70996C12.3575 5.13649 14.6815 5.14002 16.8025 4.71977" stroke="#F9F7E7" stroke-width="0.75" stroke-miterlimit="10" stroke-linecap="round" stroke-linejoin="round"/>
<path d="M10.1263 5.28125C12.3634 5.86931 14.9543 5.89375 17.2179 5.34812" stroke="#F9F7E7" stroke-width="0.75" stroke-miterlimit="10" stroke-linecap="round" stroke-linejoin="round"/>
<path d="M9.90289 7.15661C12.3024 7.56076 14.9187 7.53964 17.2914 7.09717" stroke="#F9F7E7" stroke-width="0.75" stroke-miterlimit="10" stroke-linecap="round" stroke-linejoin="round"/>
<path d="M9.79626 7.72883C12.3358 8.2932 15.2533 8.29023 17.7821 7.7207" stroke="#F9F7E7" stroke-width="0.75" stroke-miterlimit="10" stroke-linecap="round" stroke-linejoin="round"/>
<path d="M14.5145 18.0337V22.4105" stroke="#F9F7E7" stroke-width="0.75" stroke-miterlimit="10" stroke-linecap="round" stroke-linejoin="round"/>
<path d="M6.6394 16.6912C6.6394 16.6912 7.73315 15.9966 9.19147 16.1356" stroke="#F9F7E7" stroke-width="0.75" stroke-miterlimit="10" stroke-linecap="round" stroke-linejoin="round"/>
<path d="M15.2437 15.2098C15.2437 15.2098 18.2332 13.8009 20.8582 15.1995" stroke="#F9F7E7" stroke-width="0.75" stroke-miterlimit="10" stroke-linecap="round" stroke-linejoin="round"/>
<path d="M13.6494 32.9937V36.9659" stroke="#F9F7E7" stroke-width="0.75" stroke-miterlimit="10" stroke-linecap="round" stroke-linejoin="round"/>
<path d="M14.53 32.7969L17.26 34.9277" stroke="#F9F7E7" stroke-width="0.75" stroke-miterlimit="10" stroke-linecap="round" stroke-linejoin="round"/>
<path d="M12.6785 32.7832L10.0019 34.9407" stroke="#F9F7E7" stroke-width="0.75" stroke-miterlimit="10" stroke-linecap="round" stroke-linejoin="round"/>
<path d="M15.0294 32.1904H17.0775" stroke="#F9F7E7" stroke-width="0.75" stroke-miterlimit="10" stroke-linecap="round" stroke-linejoin="round"/>
<path d="M10.3162 32.1904H12.364" stroke="#F9F7E7" stroke-width="0.75" stroke-miterlimit="10" stroke-linecap="round" stroke-linejoin="round"/>
<path d="M25.2332 18.4276C25.2332 18.4276 26.4363 18.2192 26.5457 17.1079C26.5457 17.1079 26.8738 18.3118 27.9311 18.4276C27.9311 18.4276 26.5822 18.8211 26.5822 19.9787C26.5822 19.9787 26.4363 18.6128 25.2332 18.4276Z" stroke="#F9F7E7" stroke-width="0.75" stroke-miterlimit="10" stroke-linecap="round" stroke-linejoin="round"/>
<path d="M4.08923 24.4471C4.08923 24.4471 5.29236 24.2387 5.40174 23.1274C5.40174 23.1274 5.72985 24.3313 6.78714 24.4471C6.78714 24.4471 5.4382 24.8407 5.4382 25.9983C5.4382 25.9983 5.29236 24.6323 4.08923 24.4471Z" stroke="#F9F7E7" stroke-width="0.75" stroke-miterlimit="10" stroke-linecap="round" stroke-linejoin="round"/>
<path d="M17.2917 3.10107L17.782 5.25898" stroke="#F9F7E7" stroke-width="0.75" stroke-miterlimit="10" stroke-linecap="round" stroke-linejoin="round"/>
<path d="M18.0509 27.7455C18.0509 27.7455 19.3999 25.8682 19.9103 24.8218" stroke="#F9F7E7" stroke-width="0.75" stroke-miterlimit="10" stroke-linecap="round" stroke-linejoin="round"/>
<path d="M15.8284 10.1873C16.6903 10.1671 17.5405 9.97891 18.2356 9.65479" stroke="#F9F7E7" stroke-width="0.75" stroke-miterlimit="10" stroke-linecap="round" stroke-linejoin="round"/>
<path d="M4.13635 11.5205C4.13635 11.5205 4.98015 12.3539 5.87061 12.5238H7.83061" stroke="#F9F7E7" stroke-width="0.75" stroke-miterlimit="10" stroke-linecap="round" stroke-linejoin="round"/>
<path d="M8.09222 21.2881C8.09222 21.2881 9.10167 23.8259 9.41581 24.2461" stroke="#F9F7E7" stroke-width="0.75" stroke-miterlimit="10" stroke-linecap="round" stroke-linejoin="round"/>
<path d="M9.62891 24.748L10.0177 25.5352" stroke="#F9F7E7" stroke-width="0.75" stroke-miterlimit="10" stroke-linecap="round" stroke-linejoin="round"/>
</g>
</svg>
