<svg width="30" height="31" viewBox="0 0 30 31" fill="none" xmlns="http://www.w3.org/2000/svg">
<path d="M0 22.875H3V19.875H5.4675M12 28.875V25.875H15V22.875M15 22.875C22.4558 22.875 28.5 19.5171 28.5 15.375M15 22.875C7.54416 22.875 1.5 19.5171 1.5 15.375M30 22.875H27V19.875H24.5325M21.8775 25.2525L19.035 22.41M9 27.375C9 26.7817 8.82405 26.2016 8.49441 25.7083C8.16477 25.2149 7.69623 24.8304 7.14805 24.6034C6.59987 24.3763 5.99667 24.3169 5.41473 24.4326C4.83279 24.5484 4.29824 24.8341 3.87868 25.2537C3.45912 25.6732 3.1734 26.2078 3.05765 26.7897C2.94189 27.3717 3.0013 27.9749 3.22836 28.5231C3.45543 29.0712 3.83994 29.5398 4.33329 29.8694C4.82664 30.1991 5.40666 30.375 6 30.375M8.12247 25.2525L10.965 22.41M30 7.875H27V10.875H24.5325M18 1.875V4.875H15V7.875M15 7.875C7.54416 7.875 1.5 11.2329 1.5 15.375M15 7.875C22.4558 7.875 28.5 11.2329 28.5 15.375M0 7.875H3V10.875H5.4675M11.7788 20.4375C10.927 19.8956 10.2257 19.1476 9.73978 18.2627C9.25391 17.3778 8.99918 16.3845 8.99918 15.375C8.99918 14.3655 9.25391 13.3722 9.73978 12.4873C10.2257 11.6024 10.927 10.8544 11.7788 10.3125M18.2213 10.3125C19.0731 10.8544 19.7744 11.6024 20.2603 12.4873C20.7461 13.3722 21.0009 14.3655 21.0009 15.375C21.0009 16.3845 20.7461 17.3778 20.2603 18.2627C19.7744 19.1476 19.0731 19.8956 18.2213 20.4375M28.5 15.375C28.5 18.2745 22.4558 20.625 15 20.625C7.54416 20.625 1.5 18.2745 1.5 15.375M28.5 15.375C28.5 12.4755 22.4558 10.125 15 10.125C7.54416 10.125 1.5 12.4755 1.5 15.375M8.12247 5.49747L10.965 8.33997M21 3.375C21 3.96834 21.1759 4.54836 21.5056 5.04171C21.8352 5.53506 22.3038 5.91958 22.8519 6.14664C23.4001 6.3737 24.0033 6.43311 24.5853 6.31736C25.1672 6.2016 25.7018 5.91588 26.1213 5.49632C26.5409 5.07676 26.8266 4.54221 26.9424 3.96027C27.0581 3.37833 26.9987 2.77513 26.7716 2.22695C26.5446 1.67877 26.1601 1.21024 25.6667 0.880591C25.1734 0.550947 24.5933 0.375 24 0.375M21.8775 5.49747L19.035 8.33997M14.7075 16.845L14.4112 18.315M15.2925 13.905L15.5888 12.435M13.53 15.0825L12.06 14.7862M16.47 15.6675L17.94 15.9638M13.7513 16.2075L12.5025 17.04M16.2488 14.5425L17.4975 13.71M14.1675 14.1263L13.335 12.8775M15.8325 16.6238L16.665 17.8725M6 26.25C6.2225 26.25 6.44001 26.316 6.62502 26.4396C6.81002 26.5632 6.95422 26.7389 7.03936 26.9445C7.12451 27.15 7.14679 27.3762 7.10338 27.5945C7.05998 27.8127 6.95283 28.0132 6.7955 28.1705C6.63816 28.3278 6.43771 28.435 6.21948 28.4784C6.00125 28.5218 5.77505 28.4995 5.56948 28.4144C5.36391 28.3292 5.18821 28.185 5.0646 28C4.94098 27.815 4.875 27.5975 4.875 27.375M24 4.5C23.7775 4.5 23.56 4.43402 23.375 4.3104C23.19 4.18679 23.0458 4.01109 22.9606 3.80552C22.8755 3.59995 22.8532 3.37375 22.8966 3.15552C22.94 2.9373 23.0472 2.73684 23.2045 2.57951C23.3618 2.42217 23.5623 2.31503 23.7805 2.27162C23.9988 2.22821 24.225 2.25049 24.4305 2.33564C24.6361 2.42078 24.8118 2.56498 24.9354 2.74998C25.059 2.93499 25.125 3.1525 25.125 3.375M27 27.375C27 29.0319 25.6569 30.375 24 30.375C22.3431 30.375 21 29.0319 21 27.375C21 25.7181 22.3431 24.375 24 24.375C25.6569 24.375 27 25.7181 27 27.375ZM25.125 27.375C25.125 27.9963 24.6213 28.5 24 28.5C23.3787 28.5 22.875 27.9963 22.875 27.375C22.875 26.7537 23.3787 26.25 24 26.25C24.6213 26.25 25.125 26.7537 25.125 27.375ZM9 3.375C9 5.03185 7.65685 6.375 6 6.375C4.34315 6.375 3 5.03185 3 3.375C3 1.71815 4.34315 0.375 6 0.375C7.65685 0.375 9 1.71815 9 3.375ZM7.125 3.375C7.125 3.99632 6.62132 4.5 6 4.5C5.37868 4.5 4.875 3.99632 4.875 3.375C4.875 2.75368 5.37868 2.25 6 2.25C6.62132 2.25 7.125 2.75368 7.125 3.375Z" stroke="#F9F7E7" stroke-width="0.75"/>
</svg>
