<svg width="31" height="36" viewBox="0 0 31 36" fill="none" xmlns="http://www.w3.org/2000/svg">
<path d="M15.5162 3.96958C18.8412 3.96958 21.5366 3.16492 21.5366 2.17229C21.5366 1.17968 18.8412 0.375 15.5162 0.375C12.1913 0.375 9.49585 1.17968 9.49585 2.17229C9.49585 3.16492 12.1913 3.96958 15.5162 3.96958Z" stroke="#F9F7E7" stroke-width="0.75" stroke-miterlimit="10" stroke-linecap="round" stroke-linejoin="round"/>
<path d="M9.49566 2.17236L9.48999 5.64099C9.48999 5.64099 11.7392 7.34944 15.9765 7.31233C20.0874 7.27622 21.528 5.82671 21.528 5.82671L21.5365 2.17236" stroke="#F9F7E7" stroke-width="0.75" stroke-miterlimit="10" stroke-linecap="round" stroke-linejoin="round"/>
<path d="M21.5279 5.82666C26.863 8.18789 30.375 13.7751 30.375 20.1218C30.375 28.6323 23.6593 35.5313 15.375 35.5313C7.09074 35.5313 0.375 28.6323 0.375 20.1218C0.375 13.7391 4.15251 8.26269 9.53627 5.92332" stroke="#F9F7E7" stroke-width="0.75" stroke-miterlimit="10" stroke-linecap="round" stroke-linejoin="round"/>
<path d="M22.918 8.57471C22.918 8.57471 26.4561 11.2115 27.7365 14.3312" stroke="#F9F7E7" stroke-width="0.75" stroke-miterlimit="10" stroke-linecap="round" stroke-linejoin="round"/>
<path d="M14.3838 28.9399C13.8686 28.8145 13.3587 28.6558 12.8723 28.4304C11.824 27.9443 10.8868 27.1335 10.2874 26.068C9.6882 25.0027 9.44654 23.6782 9.71532 22.4603C9.98409 21.2424 10.786 20.1599 11.8494 19.7153C11.9931 19.6552 12.144 19.6044 12.264 19.4986C12.3942 19.3837 12.4748 19.2154 12.5448 19.0486C12.7634 18.5269 12.9154 17.9637 13.2216 17.4984C13.5277 17.033 14.0483 16.6745 14.556 16.8052C14.935 16.9028 15.2382 17.2517 15.624 17.3084C15.9848 17.3613 16.5414 16.2215 16.9009 16.2848C17.2992 16.3549 17.3931 17.6749 17.5488 18.085C17.7046 18.4951 18.2691 18.0676 18.4398 18.4702C18.8211 19.3683 19.9411 19.1608 20.3636 20.036C20.6092 20.5448 20.5227 22.0104 20.6003 22.5804C20.6907 23.2433 21.1798 24.521 21.2218 25.19C21.2621 25.8309 20.5461 26.7256 20.3044 27.3102C19.9986 28.0501 19.0644 28.4778 18.3706 28.7542C17.0689 29.2727 15.7135 29.2629 14.3838 28.9399Z" stroke="#F9F7E7" stroke-width="0.75" stroke-miterlimit="10" stroke-linecap="round" stroke-linejoin="round"/>
<path d="M11.4178 30.7662C10.1482 30.3741 8.87752 29.8586 7.86284 28.9309C7.20393 28.3283 6.67349 27.5686 6.24119 26.7542C5.13935 24.6782 4.66417 22.2058 4.90724 19.8159C4.98944 19.0082 5.15299 18.2049 5.45771 17.4646C5.83299 16.5537 6.41055 15.7638 7.00745 15.01C7.84903 13.9475 8.74233 12.9349 9.68188 11.9772C9.95846 11.6955 10.3245 11.3981 10.6769 11.5443C10.8778 11.6277 11.0094 11.8357 11.1737 11.9882C11.7995 12.5693 12.7736 12.2555 13.4348 11.7244C14.096 11.1932 14.6551 10.4631 15.4312 10.1772C16.229 9.88331 17.1736 10.1559 17.7385 10.8431C18.1192 11.3063 18.3827 11.9686 18.93 12.1323C19.6195 12.3385 20.3258 11.6045 21.0176 11.8009C21.4221 11.9159 21.6972 12.3166 21.9394 12.6917C22.379 13.3719 22.8184 14.0522 23.2578 14.7323C23.6788 15.384 24.1005 16.0368 24.4661 16.7278C25.3669 18.4308 25.9183 20.3812 25.9025 22.3525C25.887 24.3238 25.2808 26.3106 24.0983 27.7895C23.9506 27.9744 23.7901 28.1588 23.718 28.3921C23.6699 28.5484 23.6647 28.7188 23.6072 28.8714C23.4945 29.1722 23.2088 29.3412 22.9414 29.4795C20.2917 30.8492 17.1343 31.7309 14.1934 31.3838C13.2535 31.2732 12.3273 31.0468 11.4178 30.7662Z" stroke="#F9F7E7" stroke-width="0.75" stroke-miterlimit="10" stroke-linecap="round" stroke-linejoin="round"/>
<path d="M19.3548 29.7381C19.7962 29.4926 20.2375 29.2472 20.6787 29.0017C21.6177 28.4795 22.5996 27.9164 23.1787 26.9485C24.0419 25.5051 23.7655 23.5625 23.1411 21.9767C22.5168 20.3907 21.5812 18.9492 21.1473 17.2878C20.988 16.6779 20.8693 15.9923 20.415 15.6022C20.1528 15.377 19.8174 15.2891 19.5168 15.1327C18.6966 14.7061 18.1835 13.8056 17.6859 12.9701C17.3935 12.4794 16.983 11.9369 16.4534 12.0002C15.8891 12.0675 15.6071 12.7578 15.3355 13.3073C15.0001 13.9861 14.524 14.5801 13.9542 15.0308C13.5586 15.3438 13.0216 15.5889 12.5994 15.321C12.261 15.1062 12.0411 14.5893 11.6519 14.625C11.1907 14.6672 11.1131 15.4047 10.7461 15.7156C10.4832 15.7742 10.3594 15.3614 10.1314 15.2062C9.94745 15.081 9.69746 15.1435 9.52774 15.2909C9.35799 15.4383 9.25063 15.6539 9.1477 15.8634C8.68599 16.8037 8.22445 17.7439 7.76273 18.6844C7.38359 19.4565 7.00123 20.2374 6.7936 21.085C6.34323 22.9239 6.78386 24.9587 7.80189 26.4978C8.81991 28.037 10.37 29.0961 12.0324 29.6159C12.7043 29.8259 13.254 30.0413 13.9407 30.1812C14.2715 30.2484 14.8179 30.3939 15.1542 30.4092C16.5751 30.4743 18.0521 30.4624 19.3548 29.7381Z" stroke="#F9F7E7" stroke-width="0.75" stroke-miterlimit="10" stroke-linecap="round" stroke-linejoin="round"/>
<path d="M13.379 20.8193V24.4075" stroke="#F9F7E7" stroke-width="0.75" stroke-miterlimit="10" stroke-linecap="round" stroke-linejoin="round"/>
<path d="M17.759 20.8193V24.4075" stroke="#F9F7E7" stroke-width="0.75" stroke-miterlimit="10" stroke-linecap="round" stroke-linejoin="round"/>
<path d="M12.5205 21.749H14.178" stroke="#F9F7E7" stroke-width="0.75" stroke-miterlimit="10" stroke-linecap="round" stroke-linejoin="round"/>
<path d="M16.9304 21.749H18.5879" stroke="#F9F7E7" stroke-width="0.75" stroke-miterlimit="10" stroke-linecap="round" stroke-linejoin="round"/>
<path d="M2.7002 24.5439C2.7002 24.5439 4.9579 30.486 9.64165 32.4916" stroke="#F9F7E7" stroke-width="0.75" stroke-miterlimit="10" stroke-linecap="round" stroke-linejoin="round"/>
<path d="M5.9303 19.5679C6.03395 18.7034 6.26623 17.8515 6.66538 17.0985C7.43361 15.6497 8.75267 14.6687 9.71171 13.3654C9.87399 13.145 10.0923 12.888 10.3408 12.963C10.4891 13.0077 10.5859 13.1592 10.7028 13.2692C10.8197 13.3791 11.0154 13.4416 11.1151 13.3127" stroke="#F9F7E7" stroke-width="0.75" stroke-miterlimit="10" stroke-linecap="round" stroke-linejoin="round"/>
<path d="M19.3351 13.1807C19.4768 13.346 19.7155 13.3425 19.9176 13.2963C20.1198 13.25 20.3281 13.1726 20.5275 13.2314C20.6944 13.2806 20.8267 13.4179 20.9484 13.5528C22.3413 15.0965 23.3928 17.0121 23.9863 19.0886" stroke="#F9F7E7" stroke-width="0.75" stroke-miterlimit="10" stroke-linecap="round" stroke-linejoin="round"/>
<path d="M7.69055 23.1045C7.71374 23.8231 7.95631 24.5163 8.29097 25.1336C8.62566 25.7506 9.0514 26.3009 9.47504 26.8477" stroke="#F9F7E7" stroke-width="0.75" stroke-miterlimit="10" stroke-linecap="round" stroke-linejoin="round"/>
<path d="M15.5201 15.0252C15.731 14.9421 15.8465 14.6919 15.9027 14.4529C15.9588 14.2139 15.979 13.9589 16.0917 13.7456C16.2044 13.5324 16.4554 13.3768 16.6542 13.4904C16.7318 13.5349 16.7889 13.6127 16.8396 13.6911C17.1246 14.1323 17.2812 14.6568 17.5197 15.1303C17.7582 15.6039 18.1198 16.0532 18.6028 16.153C18.8843 16.2112 19.1885 16.1461 19.4507 16.2732C19.8648 16.474 19.9876 17.0377 20.1502 17.5029C20.2384 17.755 20.3518 17.9954 20.4649 18.2352C20.7081 18.7509 20.9514 19.2666 21.1948 19.7821" stroke="#F9F7E7" stroke-width="0.75" stroke-miterlimit="10" stroke-linecap="round" stroke-linejoin="round"/>
<path d="M19.7737 22.6655C19.5643 23.4804 20.1252 24.3132 20.0681 25.1578C20.0438 25.5173 19.9087 25.8549 19.7754 26.1842C19.6875 26.4013 19.5958 26.6246 19.4393 26.7883C19.321 26.9124 19.1723 26.9946 19.0249 27.0721C18.5588 27.3168 18.0794 27.5314 17.5902 27.7136C17.1545 27.8763 16.6749 28.0125 16.2421 27.8408" stroke="#F9F7E7" stroke-width="0.75" stroke-miterlimit="10" stroke-linecap="round" stroke-linejoin="round"/>
<path d="M7.79187 21.5908C8.10865 20.5277 8.88184 19.7113 9.3485 18.7175C9.57157 18.2424 9.72466 17.7267 9.98704 17.2768C10.0388 17.1881 10.1015 17.0966 10.1935 17.0673C10.327 17.0247 10.4585 17.1278 10.5923 17.1696C10.9456 17.2797 11.2946 16.94 11.4372 16.567C11.4781 16.4598 11.5176 16.3369 11.613 16.2868C11.776 16.2008 11.9402 16.385 12.0862 16.5023C12.3525 16.7166 12.7435 16.7191 13.0121 16.5084" stroke="#F9F7E7" stroke-width="0.75" stroke-miterlimit="10" stroke-linecap="round" stroke-linejoin="round"/>
<path d="M24.7032 21.5498C25.0005 22.79 24.7155 24.0989 24.4307 25.3428" stroke="#F9F7E7" stroke-width="0.75" stroke-miterlimit="10" stroke-linecap="round" stroke-linejoin="round"/>
<path d="M21.9353 21.6758C22.2195 22.2612 22.5065 22.8544 22.6507 23.4992C23.0176 25.1401 22.3155 27.0012 21.0012 27.8717" stroke="#F9F7E7" stroke-width="0.75" stroke-miterlimit="10" stroke-linecap="round" stroke-linejoin="round"/>
<path d="M7.16481 10.2273L7.48497 8.7417L7.95659 10.2088L9.20335 10.5987L8.05775 11.0258L7.65328 12.3628L7.18164 11.1559L6.0697 10.5058L7.16481 10.2273Z" stroke="#F9F7E7" stroke-width="0.75" stroke-miterlimit="10" stroke-linecap="round" stroke-linejoin="round"/>
<path d="M27.4781 22.5995L27.7474 21.3501L28.1441 22.584L29.1926 22.9119L28.2291 23.2712L27.889 24.3956L27.4923 23.3804L26.557 22.8338L27.4781 22.5995Z" stroke="#F9F7E7" stroke-width="0.75" stroke-miterlimit="10" stroke-linecap="round" stroke-linejoin="round"/>
<path d="M10.6188 3.22656V6.19767" stroke="#F9F7E7" stroke-width="0.75" stroke-miterlimit="10" stroke-linecap="round" stroke-linejoin="round"/>
<path d="M11.3601 3.52393V6.495" stroke="#F9F7E7" stroke-width="0.75" stroke-miterlimit="10" stroke-linecap="round" stroke-linejoin="round"/>
<path d="M20.5927 3.30127V6.27235" stroke="#F9F7E7" stroke-width="0.75" stroke-miterlimit="10" stroke-linecap="round" stroke-linejoin="round"/>
<path d="M19.8066 3.64795V6.61903" stroke="#F9F7E7" stroke-width="0.75" stroke-miterlimit="10" stroke-linecap="round" stroke-linejoin="round"/>
<path d="M12.6405 3.74658V6.71766" stroke="#F9F7E7" stroke-width="0.75" stroke-miterlimit="10" stroke-linecap="round" stroke-linejoin="round"/>
<path d="M18.5262 3.91992V6.89102" stroke="#F9F7E7" stroke-width="0.75" stroke-miterlimit="10" stroke-linecap="round" stroke-linejoin="round"/>
</svg>
