<?xml version="1.0" encoding="UTF-8"?>
<svg id="Layer_2" xmlns="http://www.w3.org/2000/svg" version="1.1" viewBox="0 0 1280 690">
  <!-- Generator: Adobe Illustrator 29.8.2, SVG Export Plug-In . SVG Version: 2.1.1 Build 3)  -->
  <defs>
    <style>
      .st0 {
        fill: none;
      }

      .st1 {
        fill: #d5cecd;
      }
    </style>
  </defs>
  <path class="st1" d="M1137.7,689.4l-10.7-19.5-26.2,7.5c-22.2-13.3-24-43.5-52.8-44l4-30.6-15.1,10.7-12.9-12.9,14.6-29.7-46.2-46.2,48.8-48.8c-19.5-9.8-41.7,44.4-53.3,44.4l-26.6-26.6,37.3-47.1,13.8,4.9c-11.1-42.2-10.2-76.8-4.4-119.9l13.3,4.4c5.8-10.2,8.4-53.7,4-75.9-4.4-22.2-24.9-42.6-10.7-60.4-52.4-11.5-22.6-66.2,4.4-93.2-19.1-12-42.6,31.1-48.8,31.1l-33.7-37.3c3.6-35.5,30.6-21.8,36.4-26.6,5.8-4.9,5.8-19.1,15.1-24l5.3,29.3-18.6,10.7,20,15.5c16-31.1,8.9-55.9-8-84.4l-64.8,15.1,8.9,17.8,31.1-4.4-37.7,37.7c-49.7-30.2,8.4-31.5-11.1-59.9l-35.5,35.5c-9.3-21.8-41.7-52.4-64.8-59.5-10.1-3.1-26-1.7-39-3h-28.1c1.9,3.8,1.5,7.6-3.5,11.4-5.3,4.4-123,36.9-133.2,36.4-10.2-.4-17.3-4.9-24.4-12l3.6,22.2-23.5,14.7-2.2,20.9-22.2-22.2c40-55.1,117.2-58.6,179.8-64.4l-2.3-7h-62.7c-47.3,7.7-92.1,13.9-123.7,62.5l-22.2-40-13.3,13.3c-6.3-12.9-26.6-22.7-23.2-35.8h-37.1c23,4.8,39.6,24.9,55.8,41.1-10.7,8.9-31.5,41.3-46.6,32.4-4.4-2.7-51.5-64.8-28.9-63.5l13.3,22.2-2.2-32.3h-41.3c-.9,17.8-17.7,34.6-49.8,62.5,7.1,8.9,8.9,0,20-11.1,11.1-11.1,22.2-22.2,33.3-33.3-2.2,23.5,84.4,87,84.4,93.2-71.9,49.7-46.6,139-83,206.5l-14.7-11.1c-20.4,4.4-1.8,45.3-2.2,59.9,19.1-3.1.4-12,8.4-26.2,5.6-10,7.8,3.9,17.1-6.4.9-3.3,2.4-5.7,4.7-6.4,3.1-4.9,6.9-12,11.4-22.3,24.4-54.6,2.2-140.7,71.5-179.8l17.8,17.8-40.8,33.7c6.2,36.1-19.1,70.5-12.6,107.5,11.7-14.8,11.1-69.8,27.2-94.6,16.4-25.3,39.5-29.7,51.9-55.5l17.8,17.8c-35.5,33.7-51.5,38.2-63.5,86.6-3.6,15.1-3.6,27.5-9.8,48.8-2.2,6.7,12.4,13.3,0,26.6-12.4,13.3-23.5-22.6-24.4-28.9-4.4,5.3-20.4,8-21.3,13.3,0,1.8,7.5,14.7,8.9,29.3,1.3,14.7-12,36,9.8,40v-44.4l20.9,1.3c12.4,24.9-15.5,38.6,8,67.5,17.8-10.7-3.6-15.1-2.2-28.9,1.3-13.8,21.3-26.6,8.9-48.8,14.7,4.9,22.2,7.1,33.3-6.7,6.7,11.1-2.7,23.1-1.3,34.2,1.3,11.1,19.1,51.1,18.6,54.2l8.9-35.5s30.2,40,30.6,40.4l-17.3,17.3,24.4-2.2c2.2,18.2-14.2,25.8-24.4,37.7,26.6,20.4,11.5,29.3,0,53.3l-15.1-15.1,6.2-11.5h-35.5l4.4,22.2c18.2-17.3,31.5,12.9,53.3,17.8l-3.6-22.2,23.5-11.1c1.3,21.8-12.9,58.2-35.5,63-10.7,1.8-65.7-60.4-77.7-69.7l48.8-48.8c8,8,18.6,20.4,31.1,13.3-16.4-14.7-26.6-26.6-22.2-48.8-6.2,29.3-13.8-22.6-26.6,0,12.9,17.3,7.1,32-8.9,44.4l-48.8-66.6,26.2,67.9,13.3,7.1c-24.4,36-59.1-37.7-66.2-55.5-7.1-17.8-18.2-43.1-4.9-59.9-6.5-5.5-11-7.1-14.1-6.2-1.8,2.8-3.3,4.9-4.7,6.4-3.1,12,2.2,37.3,6,50.8,6.2,22.2,34.2,75,32.9,88.8-1.3,13.8-14.7,21.8-14.7,24.4-.4,1.3,15.5,22.6,21.3,13.3-8-5.3-4.9-8.4-3.1-15.5s6.2-24,10.2-30.6c20.9,25.3-20,48.4,13.8,75-11.1,16.4-26.2,43.1-44.8,31.5,3.6,38.2-70.6,20.9-15.5,68.8l26.6-44.4c7.5,11.1,9.8,26.6,26.6,17.8-17.8-10.7,1.3-25.3-17.8-26.6l31.1-40,53.3,44.4-28.9,33.3c27.5-3.6,30.6-36.9,62.2-43.5,17.3-4,70.6,25.3,97.7,32.9,27.1,7.5,61.7-2.2,68.8,26.2,8-8.9,8-18.6,19.5-24.9,4-2.2,69.3-20.4,82.6-21.3,13.3-.9,56.4,18.2,71,22.2l44.4-33.7c14.2,9.8,28,33.3,42.2,37.7s17.8-16.9,32-8.9c14.2,8,24.4,29.7,37.3,41.7,10.5,9.8,42.2,19.3,41.2,36.6h38.5l4.2-.6ZM464.6,494l73.3,64.4c16.4,63.5-86.6-37.7-73.3-64.4ZM908.6,529.6l-22.2-22.2c19.5-22.2,45.7-42.2,64.4-64.4,2.2-2.2,4.4-20.4,11.1-20,1.3.4.9,7.1,9.8,9.8s12.9-12,21.3,3.6l-84.4,93.2ZM977,171.7l9.3,40.4-24.4-11.1-6.7,20h17.8l-2.2,24.4c8.4-4.9,17.8-30.2,28.9-15.5,8,9.8,22.6,79.5,11.1,81.3l-15.5-1.3-13.3,111c-19.5-4.4-7.1-20.4-15.5-37.7v-.9c-21.8,29.7-17.8,8.9-30.6,6.7-12.9-2.2-24,14.2-9.3,24.4l22.2-4.4-15.5,33.3c-9.3,7.5-45.3-27.5-45.7-33.3,0-2.7,5.8.4,12-20,6.2-20.4,5.8-56.4,32.4-61.7,26.6-5.3,14.2,15.1,16.9,28.4l15.5-11.1c-13.3,32-6.2,20.4,2.2,37.7,13.3-17.8,11.1-47.5,11.1-68.8l-11.1,15.5c-11.5-13.3-26.2-15.5-40-4.4l5.3-14.2c7.1-5.3,1.3-16.4-9.8-16.9-11.1-.4-19.5,72.8-44.4,71,22.6,12,6.2,39.1-13.3,64.8-19.5,25.8-52.4,42.6-82.1,52.8-5.8-25.3,8.9-23.1,21.3-35.5,4.9-4.9,6.2-14.2,9.3-17.3s8.9,8,18.2.4c4.9-4,34.2-19.1,39.5-44.8,5.3-25.8,19.1-58.2,21.3-79.9,4-43.1-10.2-86.6-45.7-113.2l26.6-26.6,31.1,48.8c22.2-10.7,39.1-31.1,60.4-42.6,6.7-3.1,5.3-10.7,12.9.4ZM890.9,76.7l66.6,75.5c-17.3,14.7-38.6,20-44.4,44.4l-35.5-44.4,35.5-26.6-40-31.1,17.8-17.8ZM868.7,98.9l26.6,26.6-22.2,22.2-31.1-31.1,26.2-17.3.4-.4ZM759.9,21.2l36.8,23.8-4.3-30.4c35.1,7.5,44,46.6,73.3,46.6,0,40.8-66.2-6.7-88.8-13.3-9.3-3.1-10.2-11.1-19.5,2.7l93.2,40-40,40-13.3-13.3,26.6-8.9c-13.3-16-36.4-11.5-51.1-25.3-8.9-8.9-50.6-63.9-12.9-61.7ZM500.1,50l17.8,17.8c-46.2,59.5-76.4,26.6-17.8-17.8ZM509,129.9l-13.3-13.3,35.5-35.5,17.8,17.8-40,31.1ZM533,233.8c-5.8,10.2-8.9,69.3-19.5,69.3-20-36.9,10.2-81.3,11.1-117.7l11.1,4.9-.4-.4,22.2-29.3,17.8,17.8c-15.5,8.4-16,25.8-22.2,35.5-3.6,6.2-14.2,9.8-20,20ZM544.1,349.7c-4.4-7.1-9.8-64.8-5.8-75,4-10.2,15.5-17.3,17.3-24.4s-4.9-10.2-4-15.5,28.4-37.3,28.4-50.6c6.7,1.3,24,40.8,40,31.1-12.9-13.8-4-24.4,8.9-35.5l-26.6,8.9c-16.4-7.5,1.8-35.5,8.9-35.5s13.8,23.5,22.2,13.3l-11.1-28.9-15.5,11.1-10.7-24.9,24-24,8.9,17.8,22.2-13.3-6.7-11.1c16.4-.4,31.5-7.5,46.6-11.1,0,0,.2-.4.4-1-.1,0-.2,0-.3,0,0,0,.2,0,.3,0,.7-2.1,1.4-6.8-8.8-4.8-13.3,2.7-53.7,1.3-59.5,4.4-5.8,3.1-4,14.7-22.2,30.2-18.2,15.5-53.3,47.1-60.4,15.1,24.4-12,14.7-18.2,50.6-50.6,36-32.4,93.2-32,137.6-45.3l4.4,27.5c-1.7,2.6-37.1,22-41.9,23.4h0c15.9-4.2,34,3,48.5-22.1,11.1,28,34.6,33.7,57.7,48.8l-131.4-4.4-18.2,22.6,16,35.5c15.1-8-4-12,0-26.6,4-14.7,137.2-20,146.5,13.3l22.2-22.2c10.2,11.1,27.1,20,24.4,37.7l-24.4-11.1,4.4,22.2c-3.6,7.1-32.4-12-31.1,4.4.9,8,16.4,1.3,28.9,11.1s23.5,41.3,42.2,51.1l-13.3-3.6-13.3,21.3c37.3,4.4,34.2,40.4,12,86.6-22.2,46.2-59.5,79-107,97.2l-4,18.2,15.5-11.1c7.1.9,17.8,42.6-11.5,42.6-22.6-27.1-29.7-11.1-44.4-14.2-14.7-3.1-69.3-28.4-83.5-39.1s-74.6-75.5-83.5-89.7ZM789.2,585.9c-40,8.9-80.8,24-123,13.8-12-3.1-91.5-34.6-91-39.5l35.5-43.5c9.3,10.2,31.5,8.4,37.3,12.4,5.8,4,7.1,16,11.5,16.9,2.7.9,43.5-8,49.3-12l-2.2-.4c-22.2-5.3-42.6-1.8-64.4-15.5-21.8-13.8-33.3-30.6-46.2-48.8-8.4-12.9-25.3-10.2-10.7-35.5,3.6-5.3,10.2-14.7,15.5-6.7-15.1,9.8,22.2,51.5,28,54.6,5.8,3.1-11.1-8.4,23.1-4.4,34.2,4,53.7,9.3,67.9,43.1-.4,3.1-9.3,10.2-12.4,13.3,38.2,8.9,19.1,14.7,35.5,44.4,19.5-11.5-9.3-40.4-8.9-44.4l22.2-13.3c-48.8,8-30.6-18.2,7.1-20.4,9.3-.4,22.2,6.2,24.4,5.8,2.2-.4-11.1-4,11.1-13.8,22.2-9.8,37.7-22.6,55.5,2.2,10.2-9.3-12.9-13.8-11.1-25.3s28.4-40.8,40-43.5l28.9,28.9-64.4,64.4c-5.3,5.3-1.8,20.4-26.6,12.4-14.2-9.8,10.7-42.6-6.7-41.3-6.7.4-4.4,48-31.1,48.8h35.5l-57.7,31.1,51.1-11.1-4.4,13.3,20,2.2c-12,20,1.3,3.1-38.6,12ZM828.7,538.4l.4.4c1.8,0,8,12.4,20,5.8,12-6.7,22.2-24,33.3-32.4l17.3,26.2-48.4,37.7c-16.4-1.3-42.6-35.5-22.6-37.7ZM859.8,587.3l48.8-40,26.6,26.6c-23.1,21.3-47.1,33.7-75.5,13.3ZM981.9,540.7c-61.7-9.3-1.3,48.4,24.4,59.9l-13.3,13.3-75.5-75.5,35.5-35.5,75.5,75.5-46.6-37.7Z"/>
  <rect class="st0" width="1280" height="690"/>
</svg>