<svg width="41" height="55" viewBox="0 0 41 55" fill="none" xmlns="http://www.w3.org/2000/svg">
<path d="M31.1872 36.002C33.3487 36.4901 34.671 37.1451 34.671 37.8646M34.671 37.8646C34.671 39.374 28.8545 40.5977 21.6795 40.5977C14.5045 40.5977 8.68797 39.374 8.68797 37.8646M34.671 37.8646V42.7237C34.671 44.2329 28.8545 45.4567 21.6795 45.4567C14.5045 45.4567 8.68797 44.2329 8.68797 42.7237V37.8646M8.68797 37.8646C8.68797 37.1822 9.87758 36.5578 11.8441 36.079M34.8245 41.5932C38.1492 42.2682 39.4837 43.0693 39.4837 44.1139M39.4837 44.1139C39.4837 46.1669 31.5127 47.8308 21.6795 47.8308C11.8464 47.8308 3.87524 46.1669 3.87524 44.1139M39.4837 44.1139V50.7226C39.4837 52.7752 31.5127 54.4395 21.6795 54.4395C11.8464 54.4395 3.87524 52.7752 3.87524 50.7226V44.1139M3.87524 44.1139C3.87524 43.1983 5.87743 42.2923 8.5077 41.6446M13.8499 17.765C12.4349 16.4652 10.1961 16.8541 8.74594 18.1067C7.61514 19.0834 6.79672 20.7009 7.15925 22.2297C7.58618 24.0297 10.433 24.4581 11.4944 25.9077C12.1646 26.8231 11.476 28.446 12.0175 29.4589C12.7671 30.8616 13.8731 32.0729 15.246 32.6834C16.619 33.294 18.2681 33.242 19.5104 32.3561C20.7524 31.4699 21.4772 29.7011 21.0787 28.1347C20.8962 27.4171 20.3943 26.7048 19.7161 26.6784M10.6469 16.681C9.63702 13.7355 12.6299 8.62994 15.5903 9.52542C16.9558 9.93843 20.0559 6.09218 23.0997 6.63443C25.0292 6.97835 27.1623 8.86005 28.5969 10.2059C30.0315 11.5518 30.7499 13.8412 29.801 15.5698C29.1044 16.8386 27.5603 17.572 26.1464 17.305C25.6579 17.2129 25.107 16.8937 25.1231 16.393M31.3159 24.1543C30.9137 24.5184 30.4854 24.932 30.4233 25.4729C30.331 26.2759 31.1696 26.9576 31.971 26.9334M31.971 26.9334C32.7724 26.9092 33.4746 26.3709 33.9837 25.7466C35.0951 24.3838 35.5334 22.5235 35.2974 20.7753C34.9256 18.0217 32.8482 15.5784 30.2065 14.7868M31.971 26.9334C31.1531 27.0854 30.6493 28.4094 30.294 29.1675C29.4898 30.8831 28.0419 32.2827 26.3078 33.0202C25.4439 33.3878 24.4957 33.5959 23.5644 33.4847C22.6331 33.3734 21.7218 32.9177 21.1704 32.1529C21.0358 31.9663 20.9212 31.7573 20.8892 31.5288C20.8494 31.2459 20.9396 30.9593 21.0687 30.7047C21.4577 29.9374 22.2265 29.378 23.0714 29.2476M16.2009 25.3131C15.7693 25.6019 15.2019 25.6339 14.7065 25.4811C14.2113 25.3283 13.781 25.0085 13.414 24.6398C13.0827 24.3072 12.7845 23.9076 12.718 23.4412C12.6756 23.1451 12.7302 22.8425 12.8205 22.5576C13.0777 21.7464 13.635 21.0358 14.359 20.5969C15.0827 20.158 15.9663 19.9942 16.7976 20.1451C18.2226 20.4039 19.3554 21.5236 20.117 22.7652C20.3962 23.2201 20.642 23.7028 21.0042 24.0937C21.5671 24.7014 22.4012 25.0434 23.2249 25.0046M24.9397 12.9291C25.2342 12.7315 25.3833 12.3581 25.3691 12.0015C25.3548 11.6453 25.1958 11.3073 24.9817 11.0235C24.5233 10.4166 23.794 10.0263 23.0386 9.98385C22.325 9.9437 21.6275 10.1977 20.9807 10.5045C20.1411 10.9027 19.3104 11.434 18.8668 12.2553C18.5126 12.9113 18.4435 13.7009 18.5903 14.4331C18.6787 14.874 18.8453 15.3044 19.1187 15.6599C19.4063 16.0341 19.7981 16.3094 20.1617 16.6093C20.7204 17.0695 21.2332 17.6112 21.5322 18.2732C21.8312 18.9352 21.8928 19.7331 21.5684 20.3828C21.1877 21.145 20.3501 21.5789 19.5177 21.7329M26.1932 27.8645C26.4222 26.9839 26.1684 26.0511 25.8404 25.2028C25.5124 24.3546 25.1039 23.5187 25.0094 22.6131C24.8849 21.4159 25.3611 20.1706 26.2503 19.3675C27.1398 18.5645 28.4197 18.2243 29.5862 18.4808C30.0986 18.5935 30.6033 18.8272 30.9371 19.2352C31.3727 19.7677 31.4454 20.5732 31.1124 21.1765C30.7794 21.7794 30.0618 22.1413 29.3836 22.0486M12.1834 15.6834C12.0967 14.995 12.1407 14.2904 12.3124 13.6185C12.5503 12.6863 13.1495 11.7326 14.0872 11.5514C14.3998 11.491 14.7214 11.5225 15.0396 11.5205C15.5833 11.5169 16.1261 11.4129 16.633 11.2151M18.6789 9.992C18.9581 9.70935 19.2376 9.42693 19.5168 9.14455C19.784 8.87428 20.0992 8.58431 20.4771 8.60285M20.2981 12.6093C20.0114 12.9765 20.0005 13.5084 20.1733 13.9422C20.346 14.3761 20.6765 14.7267 21.029 15.0302C21.3818 15.3337 21.765 15.6025 22.091 15.9349C22.572 16.4252 22.9172 17.0498 23.078 17.7203M23.2457 19.5223C23.2797 20.556 22.7297 21.5894 21.8563 22.1323M15.5864 24.0576C15.3577 24.088 15.1269 23.9787 14.9628 23.8151C14.6075 23.4611 14.5484 22.8626 14.7803 22.4164C15.0121 21.9703 15.4962 21.6853 15.9938 21.6407C16.4913 21.596 16.9937 21.7738 17.3955 22.0731C17.9317 22.4724 18.3109 23.0812 18.9078 23.3807M19.0776 28.238C19.4342 28.9612 19.3119 29.8856 18.8139 30.5181C18.316 31.1509 17.4789 31.4793 16.6816 31.3993C15.8236 31.313 15.0252 30.7612 14.6365 29.9851M12.8386 19.2162C12.2445 18.9402 11.5442 18.9048 10.9259 19.1195C10.6126 19.2282 10.322 19.3979 10.0614 19.6042C9.33164 20.1819 8.83338 21.1922 9.17197 22.063C9.54173 23.0141 10.6793 23.3751 11.3736 24.1186M22.7962 31.0851C22.9063 31.4439 23.3181 31.6037 23.6857 31.665C25.3136 31.9364 27.0673 31.1424 27.9475 29.735M32.9478 23.925C33.259 22.9835 33.5099 22.004 33.4742 21.0121C33.4388 20.0203 33.0857 19.0063 32.3509 18.3462M26.902 15.8484C27.9484 15.5337 28.6751 14.3815 28.5141 13.2924C28.4296 12.7209 28.1365 12.2025 27.8043 11.7318M19.8446 20.4783C20.1996 19.8888 20.0174 19.0981 19.6125 18.5427C19.2076 17.9869 18.6196 17.6022 18.0768 17.183C17.534 16.7638 17.0031 16.2659 16.7983 15.6079M31.7831 7.40224C34.9972 9.84138 37.127 13.6814 37.5052 17.7196M6.33105 26.8953C7.80099 30.4176 10.5597 33.3757 13.956 35.0711M15.2595 35.9526C16.2296 36.4795 17.3392 36.7419 18.4405 36.7054M30.8193 6.68455C29.8719 5.97848 28.8392 5.38845 27.7513 4.93212M27.5489 27.0613C27.6345 26.6412 27.484 26.213 27.336 25.8109C27.1847 25.3999 27.0334 24.9888 26.8818 24.578C26.6048 23.8256 26.3231 23.0394 26.4078 22.2414C26.4928 21.4435 27.066 20.6365 27.8596 20.5753M37.3239 2.77082V1.30918M37.3239 4.38218V5.73142M36.4316 3.52022H34.982M38.0302 3.52022H39.3682M36.8897 2.93258L36.0331 2.06914M37.8341 3.88484L38.6248 4.68228M36.8897 3.88131L36.0331 4.74505M37.8341 2.92875L38.6248 2.13162M2.78096 32.3688V30.9072M2.78096 33.9806V35.3298M1.88905 33.1186H0.439453M3.48721 33.1186H4.82535M2.34716 32.5312L1.49055 31.6675M3.29127 33.4832L4.08181 34.2803M2.34716 33.4793L1.49055 34.3431M3.29127 32.5271L4.08181 31.73M4.19013 51.1695L7.60345 46.7644L9.31027 53.2346L13.2698 47.7965L15.386 53.8543L18.731 48.1408L20.8474 54.2671L23.9194 48.2098L26.7183 53.9918L29.5854 47.5901L32.6574 53.3725L34.4325 46.9704L37.2313 52.0646L38.9378 45.4565M34.3575 33.3096C41.4542 26.1541 41.4542 14.5528 34.3575 7.39728C27.2609 0.241794 15.7551 0.241794 8.65856 7.39728C1.56196 14.5528 1.56197 26.1541 8.65856 33.3096C15.7551 40.4653 27.2609 40.4653 34.3575 33.3096ZM1.93727 4.12639C1.93727 4.12639 3.74162 3.31411 3.83916 0.439453C3.83916 0.439453 3.88791 3.87661 5.35089 4.00137C5.35089 4.00137 3.83916 5.37619 3.88791 8.12579C3.88791 8.12579 3.64408 4.18906 1.93727 4.12639ZM37.8455 36.4055C37.8455 36.4055 39.0372 35.4909 39.1076 33.204C39.1076 33.204 39.5282 36.0624 40.4395 36.2911C40.4395 36.2911 38.9672 37.5487 39.0372 39.9495C39.0372 39.9495 39.1076 36.9772 37.8455 36.4055Z" stroke="#F9F7E7" stroke-width="0.878906" stroke-miterlimit="10" stroke-linecap="round" stroke-linejoin="round"/>
</svg>
