<svg width="32" height="32" viewBox="0 0 32 32" fill="none" xmlns="http://www.w3.org/2000/svg">
<path d="M14.093 21.375V9.375C14.8887 9.375 15.6517 9.69107 16.2143 10.2537C16.7769 10.8163 17.093 11.5794 17.093 12.375C17.093 13.1706 16.7769 13.9337 16.2143 14.4963C15.6517 15.0589 14.8887 15.375 14.093 15.375M14.093 6.375C15.6843 6.375 17.2104 7.00714 18.3357 8.13236C19.4609 9.25758 20.093 10.7837 20.093 12.375C20.093 13.9663 19.4609 15.4924 18.3357 16.6176C17.2104 17.7429 15.6843 18.375 14.093 18.375M2.89554 9.375C2.36887 10.2872 2.09163 11.322 2.09169 12.3753C2.09175 13.4287 2.3691 14.4634 2.89587 15.3756C3.42264 16.2877 4.18026 17.0451 5.09257 17.5717C6.00487 18.0982 7.0397 18.3752 8.09304 18.375M8.09302 9.375C7.29737 9.375 6.53431 9.69107 5.9717 10.2537C5.40909 10.8163 5.09302 11.5794 5.09302 12.375C5.09302 13.1706 5.40909 13.9337 5.9717 14.4963C6.53431 15.0589 7.29737 15.375 8.09302 15.375M8.09302 9.375C7.69519 9.375 7.31366 9.21696 7.03236 8.93566C6.75105 8.65435 6.59302 8.27282 6.59302 7.875C6.59302 7.47718 6.75105 7.09564 7.03236 6.81434C7.31366 6.53304 7.69519 6.375 8.09302 6.375M8.09302 9.375V24.375M15.593 9.375C15.1952 9.375 14.8137 9.21696 14.5324 8.93566C14.2511 8.65435 14.093 8.27282 14.093 7.875C14.093 7.47718 14.2511 7.09564 14.5324 6.81434C14.8137 6.53304 15.1952 6.375 15.593 6.375M10.343 12.375H11.843M10.343 15.375H11.843M10.343 18.375H11.843M11.093 24.375H8.09302M8.09302 24.375L11.093 21.375M11.093 21.375H20.093V30.375L15.593 27.375L11.093 30.375V21.375ZM14.093 24.375H17.093M3.59302 27.375L5.09302 25.875M27.593 27.375L26.093 25.875M5.09302 3.375V6.375M11.093 1.875V6.375M17.093 3.375V6.375M6.59302 3.375H3.59302M12.593 1.875H9.59302M18.593 3.375H15.593M25.193 3.375C26.4343 3.375 27.593 5.38875 27.593 7.875C27.593 10.3612 26.4455 12.375 25.2043 12.375C23.7043 9.375 20.093 9.375 20.093 9.375H2.09302C1.69519 9.375 1.31366 9.21696 1.03236 8.93566C0.751053 8.65435 0.593018 8.27282 0.593018 7.875C0.593018 7.47718 0.751053 7.09564 1.03236 6.81434C1.31366 6.53304 1.69519 6.375 2.09302 6.375H20.093C20.093 6.375 23.693 6.375 25.193 3.375ZM30.593 7.875C30.593 12.0171 29.2499 15.375 27.593 15.375C25.9362 15.375 24.593 12.0171 24.593 7.875C24.593 3.73286 25.9362 0.375 27.593 0.375C29.2499 0.375 30.593 3.73286 30.593 7.875ZM5.09302 28.875L0.593018 30.375L2.09302 25.875L5.09302 28.875ZM29.093 25.875L26.093 28.875L30.593 30.375L29.093 25.875Z" stroke="#F9F7E7" stroke-width="0.75"/>
</svg>
