<svg width="32" height="32" viewBox="0 0 32 32" fill="none" xmlns="http://www.w3.org/2000/svg">
<path d="M0.673096 0.673096L23.0981 23.0981M0.673096 0.673096L8.1731 3.6731L24.9993 20.4993M0.673096 0.673096L3.6731 8.1731L20.4993 24.9993M11.1731 15.6731L6.34685 20.4993M20.1731 15.6731L27.6731 8.1731L30.6731 0.673096M30.6731 0.673096L23.1731 3.6731L15.6731 11.1731M30.6731 0.673096L17.9231 13.4231M10.8468 24.9993L15.6731 20.1731M13.4231 17.9231L8.24808 23.0981M14.1731 26.0643C11.6743 25.7037 9.38909 24.4547 7.73619 22.5463C6.08328 20.6379 5.17335 18.1978 5.1731 15.6731H2.1731C2.16914 18.7042 3.19077 21.6475 5.07185 24.0243L0.673096 28.4231L2.9231 30.6731L7.32185 26.2743C9.29558 27.8376 11.6703 28.8125 14.1731 29.0868V26.0643ZM30.6731 28.4231L26.2743 24.0243C28.1554 21.6475 29.1771 18.7042 29.1731 15.6731H26.1731C26.1728 18.1978 25.2629 20.6379 23.61 22.5463C21.9571 24.4547 19.6719 25.7037 17.1731 26.0643V29.0868C19.6759 28.8125 22.0506 27.8376 24.0243 26.2743L28.4231 30.6731L30.6731 28.4231Z" stroke="#F9F7E7" stroke-width="0.75"/>
</svg>
