<svg width="26" height="39" viewBox="0 0 26 39" fill="none" xmlns="http://www.w3.org/2000/svg">
<path d="M13.0474 6.12034C14.7149 6.12034 16.0666 5.82713 16.0666 5.46544C16.0666 5.10375 14.7149 4.81055 13.0474 4.81055C11.3799 4.81055 10.0282 5.10375 10.0282 5.46544C10.0282 5.82713 11.3799 6.12034 13.0474 6.12034Z" stroke="#F9F7E7" stroke-width="0.75" stroke-miterlimit="10" stroke-linecap="round" stroke-linejoin="round"/>
<path d="M16.0664 5.46582L14.9818 9.30975C14.9818 9.30975 13.4861 10.4316 11.3952 9.34757C11.349 9.32349 10.0282 5.46582 10.0282 5.46582" stroke="#F9F7E7" stroke-width="0.75" stroke-miterlimit="10" stroke-linecap="round" stroke-linejoin="round"/>
<path d="M15.2185 8.46942C16.9719 8.42163 17.6436 8.94192 17.8827 9.2382C17.9938 9.37598 17.9891 9.56394 17.86 9.69019C17.3821 10.1579 15.9185 10.232 15.9185 10.232V13.2187L15.9187 17.5678C21.5207 18.7501 25.6247 23.1213 25.3632 28.2627C25.0865 33.7026 19.8377 38.1174 13.3886 38.335C6.25101 38.5761 0.375 33.7661 0.375 27.7983C0.375 22.604 4.82662 18.287 10.6868 17.4141V13.0528V10.0661C10.6868 10.0661 9.11514 9.98647 8.69738 9.47175C8.60369 9.35628 8.5952 9.20234 8.66458 9.07532C8.81445 8.80054 9.32332 8.33621 11.051 8.38319" stroke="#F9F7E7" stroke-width="0.75" stroke-miterlimit="10" stroke-linecap="round" stroke-linejoin="round"/>
<path d="M20.232 22.7729C21.6038 24.1753 22.4279 25.9732 22.4279 27.9333C22.4279 32.4142 18.1224 36.0465 12.8112 36.0465C7.49998 36.0465 3.19446 32.4142 3.19446 27.9333C3.19446 26.0561 3.95044 24.3275 5.21954 22.9526" stroke="#F9F7E7" stroke-width="0.75" stroke-miterlimit="10" stroke-linecap="round" stroke-linejoin="round"/>
<path d="M7.03473 22.2036C8.1188 21.8535 9.98125 22.4895 11.1599 22.3601C13.1664 22.1396 14.3816 21.517 16.2552 21.7868C17.8871 22.0218 18.9919 21.9905 20.2317 22.7724C19.2517 23.2806 18.3046 23.7958 17.0869 23.7963C15.7204 23.797 14.443 23.1689 13.0833 23.2631C12.1862 23.3252 11.3849 23.6966 10.4946 23.796C9.58826 23.8976 8.67227 23.7106 7.79285 23.5256C7.29176 23.42 4.96104 23.2858 5.21924 22.9522C5.54401 22.5333 6.6309 22.3455 7.03473 22.2036Z" stroke="#F9F7E7" stroke-width="0.75" stroke-miterlimit="10" stroke-linecap="round" stroke-linejoin="round"/>
<path d="M2.23596 30.2432C2.23596 30.2432 2.86544 33.4532 6.48438 35.3992" stroke="#F9F7E7" stroke-width="0.75" stroke-miterlimit="10" stroke-linecap="round" stroke-linejoin="round"/>
<path d="M22.927 23.5723C22.927 23.5723 24.5006 25.8625 24.1071 28.4509" stroke="#F9F7E7" stroke-width="0.75" stroke-miterlimit="10" stroke-linecap="round" stroke-linejoin="round"/>
<path d="M18.3464 5.82025C18.3464 5.82025 19.0569 5.58251 19.2834 4.48877C19.2834 4.48877 19.5903 5.63009 20.2325 5.82025C20.2325 5.82025 19.418 6.29574 19.2834 7.24692C19.2834 7.24692 19.3094 6.39091 18.3464 5.82025Z" stroke="#F9F7E7" stroke-width="0.75" stroke-miterlimit="10" stroke-linecap="round" stroke-linejoin="round"/>
<path d="M16.0303 2.06012C16.0303 2.06012 16.9293 1.75925 17.2161 0.375C17.2161 0.375 17.6046 1.81938 18.4172 2.06012C18.4172 2.06012 17.3865 2.66185 17.2161 3.8655C17.2161 3.8655 17.2491 2.7823 16.0303 2.06012Z" stroke="#F9F7E7" stroke-width="0.75" stroke-miterlimit="10" stroke-linecap="round" stroke-linejoin="round"/>
<path d="M7.32812 15.1772C7.32812 15.1772 8.03855 14.9394 8.26512 13.8457C8.26512 13.8457 8.57194 14.987 9.21417 15.1772C9.21417 15.1772 8.39966 15.6527 8.26512 16.6038C8.26512 16.6038 8.29133 15.7478 7.32812 15.1772Z" stroke="#F9F7E7" stroke-width="0.75" stroke-miterlimit="10" stroke-linecap="round" stroke-linejoin="round"/>
<path d="M5.01257 11.417C5.01257 11.417 5.91157 11.1162 6.19834 9.73193C6.19834 9.73193 6.58683 11.1763 7.39946 11.417C7.39946 11.417 6.36874 12.0188 6.19834 13.2226C6.19834 13.2226 6.23139 12.1392 5.01257 11.417Z" stroke="#F9F7E7" stroke-width="0.75" stroke-miterlimit="10" stroke-linecap="round" stroke-linejoin="round"/>
<path d="M8.01805 31.9633C8.01805 32.1741 7.81555 32.345 7.56561 32.345C7.31566 32.345 7.11316 32.1741 7.11316 31.9633C7.11316 31.7525 7.31566 31.5815 7.56561 31.5815C7.81555 31.5818 8.01805 31.7525 8.01805 31.9633Z" stroke="#F9F7E7" stroke-width="0.75" stroke-miterlimit="10" stroke-linecap="round" stroke-linejoin="round"/>
<path d="M19.6799 24.6029C19.8003 24.6029 19.898 24.5205 19.898 24.4189C19.898 24.3173 19.8003 24.2349 19.6799 24.2349C19.5594 24.2349 19.4618 24.3173 19.4618 24.4189C19.4618 24.5205 19.5594 24.6029 19.6799 24.6029Z" stroke="#F9F7E7" stroke-width="0.75" stroke-miterlimit="10" stroke-linecap="round" stroke-linejoin="round"/>
<path d="M19.7213 30.7577C19.7213 30.9687 19.5188 31.1395 19.2689 31.1395C19.0189 31.1395 18.8164 30.9687 18.8164 30.7577C18.8164 30.547 19.0189 30.376 19.2689 30.376C19.5188 30.376 19.7213 30.547 19.7213 30.7577Z" stroke="#F9F7E7" stroke-width="0.75" stroke-miterlimit="10" stroke-linecap="round" stroke-linejoin="round"/>
<path d="M10.4651 31.7664C10.5857 31.7664 10.6835 31.684 10.6835 31.5822C10.6835 31.4804 10.5857 31.3979 10.4651 31.3979C10.3446 31.3979 10.2468 31.4804 10.2468 31.5822C10.2468 31.684 10.3446 31.7664 10.4651 31.7664Z" stroke="#F9F7E7" stroke-width="0.75" stroke-miterlimit="10" stroke-linecap="round" stroke-linejoin="round"/>
<path d="M6.41532 24.8206L6.56567 24.9181C6.58856 24.9328 6.61855 24.9373 6.64591 24.93L6.82648 24.8807C6.8954 24.862 6.95983 24.9179 6.93576 24.9755L6.87226 25.1263C6.8626 25.1493 6.86706 25.1746 6.88383 25.1943L6.995 25.3238C7.03749 25.3733 6.9943 25.4427 6.92183 25.4408L6.73208 25.4363C6.70326 25.4358 6.67613 25.4472 6.65914 25.4666L6.54749 25.5962C6.50477 25.6454 6.41366 25.6321 6.39313 25.5737L6.33931 25.4202C6.33131 25.3968 6.31005 25.3785 6.28269 25.3709L6.10235 25.3212C6.03345 25.3023 6.02022 25.2248 6.07993 25.1902L6.23643 25.0998C6.26025 25.086 6.27443 25.0633 6.27443 25.0389L6.27466 24.8788C6.27488 24.8177 6.35796 24.7834 6.41532 24.8206Z" stroke="#F9F7E7" stroke-width="0.75" stroke-miterlimit="10" stroke-linecap="round" stroke-linejoin="round"/>
<path d="M14.8585 32.955L15.0089 33.0525C15.0318 33.0672 15.0617 33.0715 15.0891 33.0641L15.2697 33.0151C15.3386 32.9964 15.4032 33.0523 15.379 33.1098L15.3154 33.2605C15.3058 33.2834 15.3103 33.3088 15.327 33.3284L15.4384 33.458C15.4809 33.5077 15.4377 33.5766 15.3652 33.5749L15.1755 33.5704C15.1467 33.57 15.1196 33.5811 15.1026 33.6008L14.9907 33.7303C14.948 33.7796 14.8569 33.7663 14.8363 33.7078L14.7825 33.5541C14.7743 33.5309 14.7533 33.5127 14.7259 33.5051L14.5456 33.4554C14.4766 33.4364 14.4634 33.359 14.5234 33.3244L14.6798 33.2339C14.7037 33.2202 14.7178 33.1975 14.7178 33.1731L14.7181 33.013C14.7178 32.9521 14.8009 32.9175 14.8585 32.955Z" stroke="#F9F7E7" stroke-width="0.75" stroke-miterlimit="10" stroke-linecap="round" stroke-linejoin="round"/>
<path d="M19.2684 25.5976C19.2684 25.8083 19.0659 25.9793 18.816 25.9793C18.566 25.9793 18.3635 25.8083 18.3635 25.5976C18.3635 25.3868 18.566 25.2158 18.816 25.2158C19.0659 25.2161 19.2684 25.3868 19.2684 25.5976Z" stroke="#F9F7E7" stroke-width="0.75" stroke-miterlimit="10" stroke-linecap="round" stroke-linejoin="round"/>
<path d="M13.537 27.3881L13.6874 27.4856C13.7103 27.5003 13.7402 27.5046 13.7676 27.4972L13.9482 27.448C14.0171 27.4293 14.0815 27.4854 14.0574 27.5429L13.994 27.6936C13.9843 27.7165 13.9888 27.7419 14.0055 27.7615L14.1167 27.8911C14.1592 27.9406 14.116 28.0097 14.0435 28.0081L13.8538 28.0036C13.825 28.0031 13.7978 28.0144 13.7808 28.0339L13.6692 28.1634C13.6265 28.2127 13.5354 28.1994 13.5148 28.1409L13.461 27.9872C13.4528 27.964 13.4317 27.9458 13.4044 27.9382L13.224 27.8882C13.1551 27.8695 13.1421 27.7921 13.2019 27.7575L13.3584 27.667C13.382 27.6531 13.3964 27.6306 13.3964 27.6062L13.3966 27.4461C13.3966 27.3852 13.4797 27.3506 13.537 27.3881Z" stroke="#F9F7E7" stroke-width="0.75" stroke-miterlimit="10" stroke-linecap="round" stroke-linejoin="round"/>
<path d="M18.0881 13.168V16.8516" stroke="#F9F7E7" stroke-width="0.75" stroke-miterlimit="10" stroke-linecap="round" stroke-linejoin="round"/>
<path d="M16.8494 14.4121H19.2686" stroke="#F9F7E7" stroke-width="0.75" stroke-miterlimit="10" stroke-linecap="round" stroke-linejoin="round"/>
<path d="M17.3802 13.6655L18.7669 15.0593" stroke="#F9F7E7" stroke-width="0.75" stroke-miterlimit="10" stroke-linecap="round" stroke-linejoin="round"/>
<path d="M18.7673 13.6655L17.4987 15.0593" stroke="#F9F7E7" stroke-width="0.75" stroke-miterlimit="10" stroke-linecap="round" stroke-linejoin="round"/>
<path d="M7.35803 2.02393V5.70756" stroke="#F9F7E7" stroke-width="0.75" stroke-miterlimit="10" stroke-linecap="round" stroke-linejoin="round"/>
<path d="M6.11841 3.26855H8.53763" stroke="#F9F7E7" stroke-width="0.75" stroke-miterlimit="10" stroke-linecap="round" stroke-linejoin="round"/>
<path d="M6.64929 2.52197L8.03568 3.91579" stroke="#F9F7E7" stroke-width="0.75" stroke-miterlimit="10" stroke-linecap="round" stroke-linejoin="round"/>
<path d="M8.03619 2.52197L6.76782 3.91579" stroke="#F9F7E7" stroke-width="0.75" stroke-miterlimit="10" stroke-linecap="round" stroke-linejoin="round"/>
<path d="M10.5569 6.59863C10.9907 7.011 11.581 7.41141 12.2258 7.32083C12.4002 7.29635 12.5673 7.236 12.7441 7.22942C13.0717 7.2173 13.3693 7.39131 13.5947 7.59201C13.8201 7.79293 14.0038 8.02868 14.2591 8.2021C14.5145 8.37555 14.8773 8.47728 15.1725 8.35703" stroke="#F9F7E7" stroke-width="0.75" stroke-miterlimit="10" stroke-linecap="round" stroke-linejoin="round"/>
<path d="M22.4981 22.8596C22.4981 22.8596 21.9706 22.0269 21.1769 21.4946" stroke="#F9F7E7" stroke-width="0.75" stroke-miterlimit="10" stroke-linecap="round" stroke-linejoin="round"/>
</svg>
