<svg width="24" height="39" viewBox="0 0 24 39" fill="none" xmlns="http://www.w3.org/2000/svg">
<path d="M18.3062 14.7851C18.3062 14.7851 20.6881 14.9591 20.7874 12.5811C20.7874 12.5811 20.1919 14.7271 22.5738 14.9011C22.5738 14.9011 20.1919 14.7271 20.4897 16.9312C20.4897 16.9312 20.4897 14.9011 18.3062 14.7851Z" stroke="#F9F7E7" stroke-width="0.75" stroke-miterlimit="10" stroke-linecap="round" stroke-linejoin="round"/>
<path d="M1.33621 11.1313C1.33621 11.1313 3.71812 11.3053 3.81736 8.92725C3.81736 8.92725 3.22188 11.0733 5.60378 11.2474C5.60378 11.2474 3.22188 11.0733 3.51961 13.2774C3.51961 13.2774 3.5196 11.2474 1.33621 11.1313Z" stroke="#F9F7E7" stroke-width="0.75" stroke-miterlimit="10" stroke-linecap="round" stroke-linejoin="round"/>
<path d="M9.87332 2.5791C9.87332 2.5791 12.2552 2.75309 12.3545 0.375C12.3545 0.375 11.759 2.52109 14.1409 2.6951C14.1409 2.6951 11.759 2.52109 12.0567 4.72518C12.0567 4.72518 12.0567 2.6951 9.87332 2.5791Z" stroke="#F9F7E7" stroke-width="0.75" stroke-miterlimit="10" stroke-linecap="round" stroke-linejoin="round"/>
<path d="M13.9461 5.57184C14.2066 5.46454 14.5841 5.56175 14.7764 5.71012C14.9688 5.8585 15.0485 6.0462 15.2107 6.20652C15.4118 6.40524 15.7318 6.55394 16.072 6.67123C17.1208 7.03282 18.4315 7.12411 19.5964 6.9167C20.7611 6.70928 21.7623 6.20639 22.2882 5.56455C22.8368 4.89462 22.8652 4.1248 22.8743 3.38215C22.8769 3.17403 22.8783 2.96313 22.7899 2.76141C22.6119 2.35458 22.091 2.03034 21.5388 1.76167C18.9944 0.523902 15.3306 0.123918 12.1931 0.741295C12.2998 0.749647 11.2883 0.927019 11.3951 0.935371C8.59499 1.47572 6.29804 2.83634 5.41136 4.48002C4.52471 6.12368 5.07096 8.00817 6.83436 9.38945C7.58425 9.97679 8.52926 10.4707 9.29645 11.0504C10.0636 11.6301 10.6627 12.3391 10.5446 13.0687C10.4227 13.8212 9.57453 14.4551 9.06164 15.149C8.54873 15.8429 8.38457 17.112 9.47251 17.5206" stroke="#F9F7E7" stroke-width="0.75" stroke-miterlimit="10" stroke-linecap="round" stroke-linejoin="round"/>
<path d="M18.8181 7.0127C18.9601 7.5969 18.9791 8.24583 18.3658 8.71449C17.888 9.07955 17.1206 9.26227 16.4509 9.50321C15.7812 9.74415 15.1333 10.1255 15.1826 10.5841C15.2477 11.1897 16.4817 11.5872 16.5285 12.1934C16.5785 12.8417 15.3193 13.2135 14.2804 13.4426C13.2415 13.6717 12.0162 14.1277 12.2359 14.7639C12.3886 15.206 13.2151 15.485 13.3759 15.926C13.4624 16.1636 13.3394 16.4082 13.2175 16.6403C13.1073 16.8504 12.9815 17.2191 12.8713 17.4292" stroke="#F9F7E7" stroke-width="0.75" stroke-miterlimit="10" stroke-linecap="round" stroke-linejoin="round"/>
<path d="M12.7908 19.2822C13.0753 19.5415 12.9879 19.886 12.7823 20.1696C12.5766 20.4531 12.265 20.7098 12.1056 21.0034C11.8716 21.4342 12.001 21.9272 12.4456 22.2972C12.89 22.6672 13.6394 22.9061 14.4123 22.9237C14.7521 22.9315 15.1078 22.9007 15.4216 22.9774C15.7728 23.0631 15.9965 23.2662 16.1501 23.4697C16.5925 24.0554 16.6257 24.7423 16.2404 25.3416C16.0721 25.6034 15.8152 25.8561 15.4206 26.0144C15.0133 26.178 14.5044 26.2247 14.0129 26.2541C13.5588 26.2812 13.0731 26.2935 12.6747 26.1634C12.2761 26.0333 12.0324 25.7085 12.2922 25.4892" stroke="#F9F7E7" stroke-width="0.75" stroke-miterlimit="10" stroke-linecap="round" stroke-linejoin="round"/>
<path d="M9.52584 27.5704C10.2039 27.4241 10.5413 26.9289 10.3474 26.5218C10.1535 26.1148 9.53059 25.811 8.84203 25.6825C8.15345 25.5538 7.40714 25.5785 6.69634 25.6548C6.05997 25.7232 5.42023 25.8367 4.90872 26.0684C4.39739 26.3002 4.03278 26.6686 4.09093 27.0452C4.15782 27.4792 4.74695 27.8342 4.86247 28.2646C5.0034 28.7902 4.42361 29.2749 4.01352 29.7498C3.54149 30.2962 3.26956 30.9127 3.36465 31.5222C3.45972 32.1319 4.09669 33.0513 5.24674 33.387" stroke="#F9F7E7" stroke-width="0.75" stroke-miterlimit="10" stroke-linecap="round" stroke-linejoin="round"/>
<path d="M14.3437 26.2646C14.8367 26.4476 15.4096 26.7002 15.4257 27.0415C15.4398 27.3397 15.2845 27.7089 15.6998 27.8826C15.8538 27.947 16.0515 27.9626 16.2216 28.0109C16.6885 28.1437 16.8483 28.4835 16.8979 28.7855C16.9878 29.3314 16.8375 29.9442 16.1257 30.3019C15.6339 30.549 14.9572 30.63 14.3091 30.6448C13.8175 30.6563 13.2955 30.6294 12.8937 30.4633C12.168 30.1629 12.1992 29.4213 12.9493 29.1421" stroke="#F9F7E7" stroke-width="0.75" stroke-miterlimit="10" stroke-linecap="round" stroke-linejoin="round"/>
<path d="M8.60068 34.852C9.17034 35.0317 9.92321 34.7441 10.0665 34.3753C10.2101 34.0066 9.90237 33.6246 9.48694 33.3346C8.65346 32.7528 7.07208 32.4344 6.04567 32.899C5.74079 33.0371 5.51948 33.2277 5.24636 33.3868C4.87677 33.6026 4.41706 33.7584 4.03535 33.9669C3.42141 34.3022 3.02582 34.7846 3.05164 35.2753C3.07743 35.7662 3.55638 36.2521 4.31048 36.469C4.87557 36.6314 5.53177 36.6376 6.13579 36.7414C7.28369 36.9387 8.28726 37.4915 9.4802 37.4368C10.8127 37.3755 11.6606 36.6026 12.7732 36.1699C13.58 35.856 14.5526 35.7183 15.3859 35.4286C17.1069 34.8309 18.0431 33.4869 17.2815 32.4052C16.5199 31.3231 13.979 30.7691 12.3059 31.4115C11.3829 31.7659 10.8492 32.3791 10.5076 32.9927C10.4683 33.0634 10.4024 33.0924 10.267 33.1422" stroke="#F9F7E7" stroke-width="0.75" stroke-miterlimit="10" stroke-linecap="round" stroke-linejoin="round"/>
<path d="M16.8929 29.8257C17.4843 30.0189 17.8892 30.3941 17.933 30.7889C17.9769 31.184 17.3348 31.6838 16.7911 31.92" stroke="#F9F7E7" stroke-width="0.75" stroke-miterlimit="10" stroke-linecap="round" stroke-linejoin="round"/>
<path d="M8.88898 25.669C8.23 25.4538 7.61547 25.1695 7.23198 24.7894C6.84849 24.4095 6.72542 23.9225 7.04062 23.5215C7.36259 23.1118 8.06167 22.8579 8.60019 22.5354C9.1389 22.2129 9.52755 21.6928 9.08469 21.3238C8.76275 21.0556 8.09781 20.9616 7.86041 20.6648C7.71095 20.4781 7.77426 20.2563 7.89811 20.0633C8.05514 19.8186 8.91143 19.2568 9.35665 19.2319" stroke="#F9F7E7" stroke-width="0.75" stroke-miterlimit="10" stroke-linecap="round" stroke-linejoin="round"/>
<path d="M6.14577 18.9438C6.66005 21.8269 4.81983 22.12 4.81983 22.12C4.10883 22.2612 3.4554 22.454 2.88115 22.6888C1.34603 23.3164 0.375 24.2426 0.375 25.2758V36.6533C0.375 37.5867 1.9798 38.3436 3.95937 38.3436H16.1404C18.4781 38.3436 20.3733 37.4498 20.3733 36.3474V25.2756C20.3733 24.3168 19.537 23.45 18.1899 22.829C17.6365 22.5737 16.9967 22.3599 16.2933 22.1981C16.2933 22.1981 14.7738 21.5033 15.2309 18.8628" stroke="#F9F7E7" stroke-width="0.75" stroke-miterlimit="10" stroke-linecap="round" stroke-linejoin="round"/>
<path d="M13.227 15.7038C15.3631 15.8362 16.2575 16.1489 16.2575 16.5722C16.2575 17.1079 13.8046 17.5422 10.7788 17.5422C7.75296 17.5422 5.30017 17.1079 5.30017 16.5722C5.30017 16.1729 6.83076 15.8235 8.77737 15.6748" stroke="#F9F7E7" stroke-width="0.75" stroke-miterlimit="10" stroke-linecap="round" stroke-linejoin="round"/>
<path d="M16.2575 18.2964C16.2575 18.8321 13.8046 19.2664 10.7788 19.2664C7.75296 19.2664 5.30017 18.8321 5.30017 18.2964" stroke="#F9F7E7" stroke-width="0.75" stroke-miterlimit="10" stroke-linecap="round" stroke-linejoin="round"/>
<path d="M5.30017 18.2962V16.5718" stroke="#F9F7E7" stroke-width="0.75" stroke-miterlimit="10" stroke-linecap="round" stroke-linejoin="round"/>
<path d="M16.2577 18.2962V16.5718" stroke="#F9F7E7" stroke-width="0.75" stroke-miterlimit="10" stroke-linecap="round" stroke-linejoin="round"/>
<path d="M10.4659 14.7388C10.2958 14.9515 10.066 15.1468 9.89843 15.3602C9.49111 15.8791 9.4816 16.4995 9.87282 17.0226" stroke="#F9F7E7" stroke-width="0.75" stroke-miterlimit="10" stroke-linecap="round" stroke-linejoin="round"/>
<path d="M15.4182 23.9277C15.7229 24.2554 15.6967 24.6797 15.3523 24.9936C15.0079 25.3077 14.3592 25.4989 13.7225 25.4738" stroke="#F9F7E7" stroke-width="0.75" stroke-miterlimit="10" stroke-linecap="round" stroke-linejoin="round"/>
<path d="M13.8398 29.5559C13.8769 29.7487 14.1796 29.9027 14.5083 29.9304C14.837 29.9584 15.1739 29.8768 15.4198 29.746C16.0163 29.4294 16.0431 28.8165 15.4752 28.4822C15.2082 28.325 14.8299 28.2195 14.6796 28.0162C14.5228 27.8039 14.6693 27.5568 14.5988 27.3292C14.5272 27.0977 14.211 26.8986 13.8215 26.8394" stroke="#F9F7E7" stroke-width="0.75" stroke-miterlimit="10" stroke-linecap="round" stroke-linejoin="round"/>
<path d="M7.87519 32.6844C6.92046 32.2537 6.17233 31.6179 6.10702 30.9141C6.04172 30.2104 6.80136 29.465 7.97366 29.2996C8.21699 29.2652 8.46928 29.2556 8.7192 29.2632C9.27952 29.2807 9.85059 29.3941 10.2357 29.6328C10.6208 29.8714 10.7776 30.2478 10.5251 30.5408C10.2726 30.8337 9.57093 30.98 9.10149 30.8006" stroke="#F9F7E7" stroke-width="0.75" stroke-miterlimit="10" stroke-linecap="round" stroke-linejoin="round"/>
<path d="M9.04835 25.0167C8.48384 24.8633 8.10969 24.5081 8.08765 24.1447C8.06582 23.781 8.37885 23.4217 8.8693 23.1977C9.14323 23.0725 9.46678 22.9869 9.72998 22.8542C10.4344 22.4987 10.5335 21.805 9.93938 21.3862" stroke="#F9F7E7" stroke-width="0.75" stroke-miterlimit="10" stroke-linecap="round" stroke-linejoin="round"/>
<path d="M5.20741 32.7859C4.42099 32.0463 3.99542 31.0878 4.65323 30.3066C4.85687 30.0645 5.15343 29.8527 5.36423 29.6128C5.73738 29.1882 5.82156 28.6798 5.59487 28.2212" stroke="#F9F7E7" stroke-width="0.75" stroke-miterlimit="10" stroke-linecap="round" stroke-linejoin="round"/>
<path d="M8.68602 29.7852C8.29698 29.7878 7.93096 29.9036 7.64293 30.0563C7.32913 30.2228 7.0818 30.4506 7.07724 30.6983C7.07407 30.8812 7.20111 31.0551 7.32594 31.2227" stroke="#F9F7E7" stroke-width="0.75" stroke-miterlimit="10" stroke-linecap="round" stroke-linejoin="round"/>
<path d="M5.59943 27.3526C5.4186 27.2093 5.41386 27.008 5.52897 26.8432C5.64428 26.6783 5.86364 26.5453 6.1028 26.4351C6.24931 26.3673 6.40709 26.306 6.58297 26.2697C6.92498 26.1987 7.32493 26.232 7.61929 26.356C7.91365 26.4799 8.09468 26.6911 8.08812 26.9032" stroke="#F9F7E7" stroke-width="0.75" stroke-miterlimit="10" stroke-linecap="round" stroke-linejoin="round"/>
<path d="M10.4679 27.022C10.5721 27.1583 10.8686 27.1907 11.1104 27.2393C11.4323 27.304 11.7214 27.4298 11.8994 27.5994C12.0772 27.769 12.1378 27.9824 12.0403 28.1731C11.9744 28.3022 11.8404 28.4171 11.6775 28.5127C11.4085 28.6702 11.0459 28.7793 10.6654 28.7849C10.2851 28.7906 9.89343 28.6825 9.7001 28.4909" stroke="#F9F7E7" stroke-width="0.75" stroke-miterlimit="10" stroke-linecap="round" stroke-linejoin="round"/>
<path d="M11.4065 33.1987C11.838 33.1389 11.9442 32.8201 12.1089 32.5794C12.4555 32.0729 13.4426 31.7543 14.3678 31.8266C15.2929 31.8988 16.0877 32.3387 16.3076 32.8688C16.5274 33.399 16.1854 33.9879 15.4904 34.3522" stroke="#F9F7E7" stroke-width="0.75" stroke-miterlimit="10" stroke-linecap="round" stroke-linejoin="round"/>
<path d="M7.60066 33.3281C7.39004 33.1935 6.98612 33.2553 6.77613 33.3904C6.5661 33.5254 6.47679 33.7086 6.32038 33.8667C6.14629 34.0426 5.88408 34.1884 5.57464 34.2811C5.25249 34.3779 4.87874 34.4196 4.59489 34.5512C4.0792 34.7903 4.04368 35.2719 4.38966 35.5994" stroke="#F9F7E7" stroke-width="0.75" stroke-miterlimit="10" stroke-linecap="round" stroke-linejoin="round"/>
<path d="M7.13608 36.3771C8.04259 36.6438 9.10175 36.8715 10.0503 36.6608C11.0916 36.4296 11.6416 35.7485 12.6103 35.427C13.3032 35.1972 14.2127 35.1475 14.6923 34.7754" stroke="#F9F7E7" stroke-width="0.75" stroke-miterlimit="10" stroke-linecap="round" stroke-linejoin="round"/>
<path d="M14.6577 5.03809C15.046 5.05618 15.3854 5.20095 15.6484 5.36892C15.9112 5.5369 16.1198 5.73225 16.3868 5.89791C17.0311 6.29778 18.0174 6.49927 18.9476 6.42119C19.8779 6.34302 20.727 5.98735 21.1526 5.49768" stroke="#F9F7E7" stroke-width="0.75" stroke-miterlimit="10" stroke-linecap="round" stroke-linejoin="round"/>
<path d="M17.3375 1.28809C18.535 1.47601 19.7904 1.68273 20.6709 2.19293C21.504 2.67561 21.8897 3.4076 21.6656 4.08055" stroke="#F9F7E7" stroke-width="0.75" stroke-miterlimit="10" stroke-linecap="round" stroke-linejoin="round"/>
<path d="M8.27217 8.78488C6.2436 7.06547 6.24757 4.61127 8.28171 2.89404" stroke="#F9F7E7" stroke-width="0.75" stroke-miterlimit="10" stroke-linecap="round" stroke-linejoin="round"/>
<path d="M13.4649 6.38818C13.8101 6.78005 13.5777 7.26553 13.1854 7.64208C12.7932 8.0185 12.2511 8.33974 11.9133 8.7338C11.1001 9.68214 11.6632 10.8793 12.8365 11.6888" stroke="#F9F7E7" stroke-width="0.75" stroke-miterlimit="10" stroke-linecap="round" stroke-linejoin="round"/>
<path d="M17.8747 7.42773C17.9547 7.82355 17.7109 8.2277 17.2955 8.54382C16.88 8.85993 16.3044 9.09438 15.6901 9.26769C15.5162 9.31675 15.337 9.36187 15.1829 9.42985C14.6442 9.66732 14.5444 10.1087 14.488 10.5016" stroke="#F9F7E7" stroke-width="0.75" stroke-miterlimit="10" stroke-linecap="round" stroke-linejoin="round"/>
<path d="M11.5224 14.5029C11.6151 13.8196 12.5061 13.1983 13.6409 13.0254C14.0474 12.9635 14.4865 12.9522 14.8501 12.8293C15.2239 12.7029 15.4742 12.46 15.4904 12.2078C15.5067 11.9556 15.2884 11.7024 14.9319 11.5601" stroke="#F9F7E7" stroke-width="0.75" stroke-miterlimit="10" stroke-linecap="round" stroke-linejoin="round"/>
<path d="M12.1551 15.6167C12.5884 16.0639 12.5567 16.6517 12.0757 17.0821" stroke="#F9F7E7" stroke-width="0.75" stroke-miterlimit="10" stroke-linecap="round" stroke-linejoin="round"/>
<path d="M9.05396 9.7124C9.78816 10.1621 10.4093 10.6748 10.891 11.2289" stroke="#F9F7E7" stroke-width="0.75" stroke-miterlimit="10" stroke-linecap="round" stroke-linejoin="round"/>
<path d="M12.068 19.5298C12.263 19.7263 12.1901 19.979 12.0218 20.1835C11.8535 20.3882 11.5998 20.5654 11.4209 20.7669C11.1234 21.1026 11.047 21.5032 11.2111 21.8687" stroke="#F9F7E7" stroke-width="0.75" stroke-miterlimit="10" stroke-linecap="round" stroke-linejoin="round"/>
<path d="M15.1038 23.6924C14.9543 23.5452 14.6569 23.4706 14.3677 23.4437C14.0785 23.4167 13.7822 23.428 13.4922 23.4048C12.8449 23.353 12.2473 23.1195 11.9178 22.7896" stroke="#F9F7E7" stroke-width="0.75" stroke-miterlimit="10" stroke-linecap="round" stroke-linejoin="round"/>
<path d="M17.2827 23.3892C17.9806 23.6681 18.7065 23.9651 19.0892 24.4057C19.4757 24.8507 19.4536 25.3741 19.4227 25.8726C19.3613 26.8586 19.3002 27.8445 19.2389 28.8304" stroke="#F9F7E7" stroke-width="0.75" stroke-miterlimit="10" stroke-linecap="round" stroke-linejoin="round"/>
<path d="M1.43672 35.7075C1.40457 36.0253 1.37281 36.3466 1.46233 36.6609C1.55203 36.9752 1.77494 37.2864 2.17987 37.4996C2.78707 37.8193 3.67808 37.8651 4.4945 37.8429" stroke="#F9F7E7" stroke-width="0.75" stroke-miterlimit="10" stroke-linecap="round" stroke-linejoin="round"/>
<path d="M6.97673 20.7178C6.9172 21.1244 6.85208 21.5425 6.5349 21.9061C5.59306 22.9853 2.82209 23.2036 2.01622 24.3199C1.75759 24.6781 1.74825 25.0792 1.76534 25.4681" stroke="#F9F7E7" stroke-width="0.75" stroke-miterlimit="10" stroke-linecap="round" stroke-linejoin="round"/>
<path d="M19.2815 30.1362V34.8346" stroke="#F9F7E7" stroke-width="0.75" stroke-miterlimit="10" stroke-linecap="round" stroke-linejoin="round"/>
<path d="M13.9876 1.35778C14.1521 1.35778 14.2854 1.27987 14.2854 1.18377C14.2854 1.08767 14.1521 1.00977 13.9876 1.00977C13.8232 1.00977 13.6899 1.08767 13.6899 1.18377C13.6899 1.27987 13.8232 1.35778 13.9876 1.35778Z" stroke="#F9F7E7" stroke-width="0.75" stroke-miterlimit="10" stroke-linecap="round" stroke-linejoin="round"/>
<path d="M11.8374 12.7357C12.0019 12.7357 12.1352 12.6578 12.1352 12.5617C12.1352 12.4656 12.0019 12.3877 11.8374 12.3877C11.673 12.3877 11.5397 12.4656 11.5397 12.5617C11.5397 12.6578 11.673 12.7357 11.8374 12.7357Z" stroke="#F9F7E7" stroke-width="0.75" stroke-miterlimit="10" stroke-linecap="round" stroke-linejoin="round"/>
<path d="M20.6045 4.81823C20.769 4.81823 20.9023 4.74032 20.9023 4.64422C20.9023 4.54812 20.769 4.47021 20.6045 4.47021C20.4401 4.47021 20.3068 4.54812 20.3068 4.64422C20.3068 4.74032 20.4401 4.81823 20.6045 4.81823Z" stroke="#F9F7E7" stroke-width="0.75" stroke-miterlimit="10" stroke-linecap="round" stroke-linejoin="round"/>
<path d="M13.8722 24.7133C14.0366 24.7133 14.1699 24.6353 14.1699 24.5391C14.1699 24.4431 14.0366 24.3652 13.8722 24.3652C13.7077 24.3652 13.5744 24.4431 13.5744 24.5391C13.5744 24.6353 13.7077 24.7133 13.8722 24.7133Z" stroke="#F9F7E7" stroke-width="0.75" stroke-miterlimit="10" stroke-linecap="round" stroke-linejoin="round"/>
<path d="M6.97451 27.6136C7.13893 27.6136 7.27224 27.5357 7.27224 27.4397C7.27224 27.3435 7.13893 27.2656 6.97451 27.2656C6.81007 27.2656 6.67676 27.3435 6.67676 27.4397C6.67676 27.5357 6.81007 27.6136 6.97451 27.6136Z" stroke="#F9F7E7" stroke-width="0.75" stroke-miterlimit="10" stroke-linecap="round" stroke-linejoin="round"/>
<path d="M6.18078 35.3856C6.3452 35.3856 6.47851 35.3077 6.47851 35.2117C6.47851 35.1155 6.3452 35.0376 6.18078 35.0376C6.01633 35.0376 5.88303 35.1155 5.88303 35.2117C5.88303 35.3077 6.01633 35.3856 6.18078 35.3856Z" stroke="#F9F7E7" stroke-width="0.75" stroke-miterlimit="10" stroke-linecap="round" stroke-linejoin="round"/>
<path d="M14.6165 28.9471C14.7809 28.9471 14.9142 28.8692 14.9142 28.773C14.9142 28.677 14.7809 28.5991 14.6165 28.5991C14.4521 28.5991 14.3188 28.677 14.3188 28.773C14.3188 28.8692 14.4521 28.9471 14.6165 28.9471Z" stroke="#F9F7E7" stroke-width="0.75" stroke-miterlimit="10" stroke-linecap="round" stroke-linejoin="round"/>
<path d="M9.29013 20.015C9.29013 20.0575 9.23097 20.0922 9.15773 20.0922C9.08467 20.0922 9.02533 20.0577 9.02533 20.015C9.02533 19.9722 9.08467 19.9375 9.15773 19.9375C9.23097 19.9376 9.29013 19.9722 9.29013 20.015Z" fill="#F9F7E7"/>
<mask id="mask0_4772_20018" style="mask-type:luminance" maskUnits="userSpaceOnUse" x="9" y="19" width="1" height="2">
<path d="M9.29013 20.015C9.29013 20.0575 9.23097 20.0922 9.15773 20.0922C9.08467 20.0922 9.02533 20.0577 9.02533 20.015C9.02533 19.9722 9.08467 19.9375 9.15773 19.9375C9.23097 19.9376 9.29013 19.9722 9.29013 20.015Z" fill="white"/>
</mask>
<g mask="url(#mask0_4772_20018)">
<path d="M9.15765 19.938L9.15817 19.7324H9.15765V19.938ZM9.29005 20.0154H9.03079C9.03079 19.9561 9.0724 19.9193 9.09737 19.9047C9.12244 19.89 9.14463 19.8872 9.15765 19.8872V20.0927V20.2983C9.2439 20.2983 9.33228 20.2782 9.40524 20.2354C9.47809 20.1928 9.5493 20.1174 9.5493 20.0154H9.29005ZM9.15765 20.0927V19.8872C9.17066 19.8872 9.19278 19.89 9.21777 19.9046C9.24273 19.9192 9.2845 19.956 9.2845 20.0154H9.02525H8.76599C8.76599 20.1176 8.83744 20.193 8.91034 20.2356C8.98327 20.2781 9.07157 20.2983 9.15765 20.2983V20.0927ZM9.02525 20.0154H9.2845C9.2845 20.0748 9.24261 20.1116 9.21787 20.1262C9.19296 20.1406 9.17087 20.1435 9.15765 20.1435V19.938V19.7324C9.07137 19.7324 8.98307 19.7526 8.91024 19.7952C8.83757 19.8377 8.76599 19.9131 8.76599 20.0154H9.02525ZM9.15765 19.938L9.15713 20.1435C9.14448 20.1435 9.12249 20.1408 9.09747 20.1262C9.07253 20.1116 9.03079 20.0748 9.03079 20.0154H9.29005H9.5493C9.5493 19.9133 9.47798 19.8378 9.40513 19.7952C9.33223 19.7526 9.24406 19.7326 9.15817 19.7324L9.15765 19.938Z" fill="#F9F7E7"/>
</g>
<path d="M15.2447 32.6986C15.2447 32.7413 15.1855 32.7759 15.1123 32.7759C15.0392 32.7759 14.9799 32.7413 14.9799 32.6986C14.9799 32.6558 15.039 32.6211 15.1123 32.6211C15.1855 32.6211 15.2447 32.6558 15.2447 32.6986Z" fill="#F9F7E7"/>
<mask id="mask1_4772_20018" style="mask-type:luminance" maskUnits="userSpaceOnUse" x="14" y="32" width="2" height="1">
<path d="M15.2447 32.6986C15.2447 32.7413 15.1855 32.7759 15.1123 32.7759C15.0392 32.7759 14.9799 32.7413 14.9799 32.6986C14.9799 32.6558 15.039 32.6211 15.1123 32.6211C15.1855 32.6211 15.2447 32.6558 15.2447 32.6986Z" fill="white"/>
</mask>
<g mask="url(#mask1_4772_20018)">
<path d="M15.245 32.6986H14.9858C14.9858 32.6392 15.0274 32.6024 15.0524 32.5878C15.0774 32.5732 15.0996 32.5703 15.1126 32.5703V32.7759V32.9814C15.1989 32.9814 15.2872 32.9613 15.3602 32.9187C15.4331 32.876 15.5043 32.8005 15.5043 32.6986H15.245ZM15.1126 32.7759V32.5703C15.1256 32.5703 15.1477 32.5732 15.1728 32.5878C15.1977 32.6024 15.2395 32.6392 15.2395 32.6986H14.9802H14.721C14.721 32.8008 14.7924 32.8762 14.8653 32.9187C14.9383 32.9615 15.0266 32.9814 15.1126 32.9814V32.7759ZM14.9802 32.6986H15.2395C15.2395 32.7578 15.198 32.7946 15.1728 32.8094C15.1476 32.824 15.1254 32.8267 15.1126 32.8267V32.6211V32.4155C15.0266 32.4155 14.9382 32.4357 14.8651 32.4784C14.7921 32.521 14.721 32.5966 14.721 32.6986H14.9802ZM15.1126 32.6211V32.8267C15.0996 32.8267 15.0774 32.824 15.0524 32.8092C15.0274 32.7946 14.9858 32.7578 14.9858 32.6986H15.245H15.5043C15.5043 32.5966 15.4331 32.521 15.3602 32.4784C15.2873 32.4357 15.1989 32.4155 15.1126 32.4155V32.6211Z" fill="#F9F7E7"/>
</g>
<path d="M16.3698 7.79612C16.3698 7.8388 16.3104 7.8735 16.2374 7.8735C16.1644 7.8735 16.105 7.8388 16.105 7.79612C16.105 7.75343 16.1641 7.71875 16.2374 7.71875C16.3107 7.71875 16.3698 7.75343 16.3698 7.79612Z" fill="#F9F7E7"/>
<mask id="mask2_4772_20018" style="mask-type:luminance" maskUnits="userSpaceOnUse" x="16" y="7" width="1" height="1">
<path d="M16.3698 7.79612C16.3698 7.8388 16.3104 7.8735 16.2374 7.8735C16.1644 7.8735 16.105 7.8388 16.105 7.79612C16.105 7.75343 16.1641 7.71875 16.2374 7.71875C16.3107 7.71875 16.3698 7.75343 16.3698 7.79612Z" fill="white"/>
</mask>
<g mask="url(#mask2_4772_20018)">
<path d="M16.3702 7.79612H16.111C16.111 7.73657 16.1529 7.69979 16.1776 7.68534C16.2025 7.67079 16.2246 7.66793 16.2378 7.66793V7.87349V8.07906C16.3241 8.07906 16.4124 8.05885 16.4852 8.01628C16.5579 7.97381 16.6295 7.89835 16.6295 7.79612H16.3702ZM16.2378 7.87349V7.66793C16.251 7.66793 16.2732 7.67079 16.2981 7.68534C16.3228 7.69979 16.3647 7.73657 16.3647 7.79612H16.1054H15.8462C15.8462 7.89835 15.9177 7.97381 15.9904 8.01628C16.0633 8.05885 16.1516 8.07906 16.2378 8.07906V7.87349ZM16.1054 7.79612H16.3647C16.3647 7.8554 16.3231 7.89222 16.2981 7.90682C16.273 7.92149 16.2508 7.92431 16.2378 7.92431V7.71875V7.51318C16.1516 7.51318 16.0632 7.53333 15.9902 7.576C15.9174 7.61864 15.8462 7.69412 15.8462 7.79612H16.1054ZM16.2378 7.71875V7.92431C16.2248 7.92431 16.2026 7.92149 16.1776 7.90684C16.1526 7.89222 16.111 7.8554 16.111 7.79612H16.3702H16.6295C16.6295 7.69412 16.5583 7.61862 16.4854 7.576C16.4125 7.53333 16.3241 7.51318 16.2378 7.51318V7.71875Z" fill="#F9F7E7"/>
</g>
<path d="M8.23146 28.7153C8.30457 28.7153 8.36386 28.6806 8.36386 28.6378C8.36386 28.5953 8.30457 28.5605 8.23146 28.5605C8.15835 28.5605 8.09906 28.5953 8.09906 28.6378C8.09906 28.6806 8.15835 28.7153 8.23146 28.7153Z" fill="#F9F7E7"/>
<mask id="mask3_4772_20018" style="mask-type:luminance" maskUnits="userSpaceOnUse" x="8" y="28" width="1" height="1">
<path d="M8.23143 28.7163C8.30454 28.7163 8.36383 28.6816 8.36383 28.6388C8.36383 28.5963 8.30454 28.5615 8.23143 28.5615C8.15832 28.5615 8.09903 28.5963 8.09903 28.6388C8.09903 28.6816 8.15832 28.7163 8.23143 28.7163Z" fill="white"/>
</mask>
<g mask="url(#mask3_4772_20018)">
<path d="M8.36402 28.6388H8.10477C8.10477 28.5794 8.14651 28.5426 8.17142 28.5282C8.19642 28.5134 8.21856 28.5107 8.23162 28.5107V28.7163V28.9219C8.3178 28.9219 8.40613 28.9017 8.47906 28.8592C8.55188 28.8164 8.62328 28.741 8.62328 28.6388H8.36402ZM8.23162 28.7163V28.5107C8.24469 28.5107 8.26683 28.5134 8.29182 28.5282C8.31674 28.5426 8.35848 28.5794 8.35848 28.6388H8.09922H7.83997C7.83997 28.741 7.91136 28.8164 7.98419 28.8592C8.05709 28.9017 8.14545 28.9219 8.23162 28.9219V28.7163ZM8.09922 28.6388H8.35848C8.35848 28.6982 8.31674 28.735 8.29182 28.7496C8.26683 28.7642 8.24469 28.7671 8.23162 28.7671V28.5615V28.356C8.14542 28.356 8.05709 28.3761 7.98419 28.4187C7.91136 28.4612 7.83997 28.5369 7.83997 28.6388H8.09922ZM8.23162 28.5615V28.7671C8.21856 28.7671 8.19642 28.7642 8.17142 28.7496C8.14651 28.735 8.10477 28.6982 8.10477 28.6388H8.36402H8.62328C8.62328 28.5369 8.55188 28.4612 8.47906 28.4187C8.40615 28.3761 8.31782 28.356 8.23162 28.356V28.5615Z" fill="#F9F7E7"/>
</g>
<path d="M8.89313 31.6154C8.89313 31.6581 8.834 31.6929 8.76073 31.6929C8.6877 31.6929 8.62836 31.6581 8.62836 31.6154C8.62836 31.5726 8.6877 31.5381 8.76073 31.5381C8.834 31.5381 8.89313 31.5728 8.89313 31.6154Z" fill="#F9F7E7"/>
<mask id="mask4_4772_20018" style="mask-type:luminance" maskUnits="userSpaceOnUse" x="8" y="31" width="1" height="1">
<path d="M8.89313 31.6154C8.89313 31.6581 8.834 31.6929 8.76073 31.6929C8.6877 31.6929 8.62836 31.6581 8.62836 31.6154C8.62836 31.5726 8.6877 31.5381 8.76073 31.5381C8.834 31.5381 8.89313 31.5728 8.89313 31.6154Z" fill="white"/>
</mask>
<g mask="url(#mask4_4772_20018)">
<path d="M8.7604 31.5381L8.76092 31.3325H8.7604V31.5381ZM8.89281 31.6154H8.63355C8.63355 31.5562 8.67519 31.5194 8.70015 31.5048C8.72522 31.49 8.74742 31.4873 8.7604 31.4873V31.6929V31.8984C8.84666 31.8984 8.93504 31.8783 9.00799 31.8355C9.08084 31.793 9.15206 31.7173 9.15206 31.6154H8.89281ZM8.7604 31.6929V31.4873C8.77344 31.4873 8.79553 31.49 8.82055 31.5046C8.84549 31.5192 8.88728 31.556 8.88728 31.6154H8.62803H8.36877C8.36877 31.7175 8.4402 31.7932 8.5131 31.8357C8.58606 31.8783 8.67436 31.8984 8.7604 31.8984V31.6929ZM8.62803 31.6154H8.88728C8.88728 31.6748 8.84549 31.7116 8.82055 31.7262C8.79553 31.7408 8.77344 31.7436 8.7604 31.7436V31.5381V31.3325C8.67436 31.3325 8.58606 31.3527 8.5131 31.3952C8.4402 31.4378 8.36877 31.5132 8.36877 31.6154H8.62803ZM8.7604 31.5381L8.75989 31.7436C8.74723 31.7436 8.72525 31.7408 8.70026 31.7262C8.67529 31.7116 8.63355 31.6748 8.63355 31.6154H8.89281H9.15206C9.15206 31.5134 9.08074 31.438 9.00789 31.3952C8.93501 31.3527 8.84684 31.3327 8.76092 31.3325L8.7604 31.5381Z" fill="#F9F7E7"/>
</g>
<path d="M16.5021 2.15015C16.5021 2.19282 16.4428 2.22752 16.3697 2.22752C16.2967 2.22752 16.2373 2.19295 16.2373 2.15015C16.2373 2.10733 16.2967 2.07275 16.3697 2.07275C16.4428 2.07275 16.5021 2.10745 16.5021 2.15015Z" fill="#F9F7E7"/>
<mask id="mask5_4772_20018" style="mask-type:luminance" maskUnits="userSpaceOnUse" x="16" y="2" width="1" height="1">
<path d="M16.5021 2.15015C16.5021 2.19282 16.4428 2.22752 16.3697 2.22752C16.2967 2.22752 16.2373 2.19295 16.2373 2.15015C16.2373 2.10733 16.2967 2.07275 16.3697 2.07275C16.4428 2.07275 16.5021 2.10745 16.5021 2.15015Z" fill="white"/>
</mask>
<g mask="url(#mask5_4772_20018)">
<path d="M16.502 2.15014H16.2428C16.2428 2.09059 16.2846 2.05382 16.3094 2.03937C16.3343 2.02481 16.3564 2.02196 16.3696 2.02196V2.22752V2.43308C16.4559 2.43308 16.5442 2.41287 16.617 2.3703C16.6897 2.32783 16.7613 2.25237 16.7613 2.15014H16.502ZM16.3696 2.22752V2.02196C16.3826 2.02196 16.4048 2.02475 16.4297 2.03935C16.4547 2.05392 16.4965 2.09074 16.4965 2.15014H16.2372H15.978C15.978 2.25233 16.0494 2.32785 16.1223 2.37041C16.1952 2.413 16.2836 2.43308 16.3696 2.43308V2.22752ZM16.2372 2.15014H16.4965C16.4965 2.20953 16.4547 2.24635 16.4297 2.26092C16.4048 2.27552 16.3826 2.27831 16.3696 2.27831V2.07275V1.86719C16.2836 1.86719 16.1952 1.88727 16.1223 1.92986C16.0494 1.97242 15.978 2.04794 15.978 2.15014H16.2372ZM16.3696 2.07275V2.27831C16.3564 2.27831 16.3343 2.27546 16.3094 2.2609C16.2846 2.24645 16.2428 2.20968 16.2428 2.15014H16.502H16.7613C16.7613 2.0479 16.6897 1.97244 16.617 1.92997C16.5442 1.88739 16.4559 1.86719 16.3696 1.86719V2.07275Z" fill="#F9F7E7"/>
</g>
<path d="M8.82733 6.90648C8.82733 6.94917 8.76796 6.98385 8.69493 6.98385C8.62187 6.98385 8.56253 6.94927 8.56253 6.90648C8.56253 6.86378 8.62187 6.8291 8.69493 6.8291C8.76817 6.82922 8.82733 6.86378 8.82733 6.90648Z" fill="#F9F7E7"/>
<mask id="mask6_4772_20018" style="mask-type:luminance" maskUnits="userSpaceOnUse" x="8" y="6" width="1" height="1">
<path d="M8.82733 6.90648C8.82733 6.94917 8.76796 6.98385 8.69493 6.98385C8.62187 6.98385 8.56253 6.94927 8.56253 6.90648C8.56253 6.86378 8.62187 6.8291 8.69493 6.8291C8.76817 6.82922 8.82733 6.86378 8.82733 6.90648Z" fill="white"/>
</mask>
<g mask="url(#mask6_4772_20018)">
<path d="M8.6947 6.8291L8.69521 6.62354H8.6947V6.8291ZM8.8271 6.90647H8.56784C8.56784 6.84692 8.60974 6.81015 8.63447 6.79569C8.65936 6.78114 8.68147 6.77828 8.6947 6.77828V6.98385V7.18941C8.78098 7.18941 8.86925 7.1692 8.9421 7.12663C9.01477 7.08416 9.08635 7.0087 9.08635 6.90647H8.8271ZM8.6947 6.98385V6.77828C8.70771 6.77828 8.72982 6.78108 8.75482 6.79567C8.77978 6.81025 8.82155 6.84708 8.82155 6.90647H8.56229H8.30304C8.30304 7.00866 8.37449 7.08418 8.44739 7.12675C8.52032 7.16933 8.60862 7.18941 8.6947 7.18941V6.98385ZM8.56229 6.90647H8.82155C8.82155 6.96602 8.77965 7.0028 8.75492 7.01725C8.73003 7.0318 8.70792 7.03466 8.6947 7.03466V6.8291V6.62354C8.60842 6.62354 8.52011 6.64374 8.44729 6.68631C8.37462 6.72878 8.30304 6.80425 8.30304 6.90647H8.56229ZM8.6947 6.8291L8.69418 7.03466C8.68153 7.03464 8.65954 7.03191 8.63452 7.01729C8.60958 7.0027 8.56784 6.96586 8.56784 6.90647H8.8271H9.08635C9.08635 6.80439 9.01503 6.72893 8.94218 6.68635C8.86928 6.64374 8.78111 6.62368 8.69521 6.62354L8.6947 6.8291Z" fill="#F9F7E7"/>
</g>
<path d="M10.4152 3.73558C10.4152 3.77827 10.3559 3.81295 10.2828 3.81295C10.2098 3.81295 10.1504 3.77827 10.1504 3.73558C10.1504 3.69288 10.2098 3.6582 10.2828 3.6582C10.3561 3.6582 10.4152 3.69288 10.4152 3.73558Z" fill="#F9F7E7"/>
<mask id="mask7_4772_20018" style="mask-type:luminance" maskUnits="userSpaceOnUse" x="10" y="3" width="1" height="1">
<path d="M10.4152 3.73558C10.4152 3.77827 10.3559 3.81295 10.2828 3.81295C10.2098 3.81295 10.1504 3.77827 10.1504 3.73558C10.1504 3.69288 10.2098 3.6582 10.2828 3.6582C10.3561 3.6582 10.4152 3.69288 10.4152 3.73558Z" fill="white"/>
</mask>
<g mask="url(#mask7_4772_20018)">
<path d="M10.4152 3.73557H10.156C10.156 3.67602 10.1979 3.63925 10.2226 3.6248C10.2475 3.61024 10.2696 3.60738 10.2828 3.60738V3.81295V4.01851C10.3691 4.01851 10.4574 3.9983 10.5302 3.95573C10.6029 3.91326 10.6745 3.8378 10.6745 3.73557H10.4152ZM10.2828 3.81295V3.60738C10.2961 3.60738 10.3182 3.61024 10.3431 3.6248C10.3678 3.63925 10.4097 3.67602 10.4097 3.73557H10.1504H9.89117C9.89117 3.8378 9.96275 3.91326 10.0354 3.95573C10.1082 3.9983 10.1966 4.01851 10.2828 4.01851V3.81295ZM10.1504 3.73557H10.4097C10.4097 3.79512 10.3678 3.8319 10.3431 3.84635C10.3182 3.86091 10.2961 3.86376 10.2828 3.86376V3.6582V3.45264C10.1966 3.45264 10.1082 3.47284 10.0354 3.51542C9.96275 3.55788 9.89117 3.63335 9.89117 3.73557H10.1504ZM10.2828 3.6582V3.86376C10.2698 3.86376 10.2476 3.86095 10.2226 3.84629C10.1976 3.83167 10.156 3.79488 10.156 3.73557H10.4152H10.6745C10.6745 3.63359 10.6033 3.55809 10.5304 3.51546C10.4575 3.47278 10.3691 3.45264 10.2828 3.45264V3.6582Z" fill="#F9F7E7"/>
</g>
<path d="M10.9002 5.01074C10.9909 5.98959 9.62727 6.87028 9.75469 7.84763C9.81147 8.28439 10.184 8.70409 10.7618 8.98285" stroke="#F9F7E7" stroke-width="0.75" stroke-miterlimit="10" stroke-linecap="round" stroke-linejoin="round"/>
<path d="M5.98233 18.7776V17.0762" stroke="#F9F7E7" stroke-width="0.75" stroke-miterlimit="10" stroke-linecap="round" stroke-linejoin="round"/>
<path d="M6.5777 17.2695V18.934" stroke="#F9F7E7" stroke-width="0.75" stroke-miterlimit="10" stroke-linecap="round" stroke-linejoin="round"/>
<path d="M7.23929 17.4243V18.9328" stroke="#F9F7E7" stroke-width="0.75" stroke-miterlimit="10" stroke-linecap="round" stroke-linejoin="round"/>
<path d="M14.1204 17.2695V18.934" stroke="#F9F7E7" stroke-width="0.75" stroke-miterlimit="10" stroke-linecap="round" stroke-linejoin="round"/>
<path d="M14.782 17.4243V18.9328" stroke="#F9F7E7" stroke-width="0.75" stroke-miterlimit="10" stroke-linecap="round" stroke-linejoin="round"/>
<path d="M15.5099 18.7411V17.1538" stroke="#F9F7E7" stroke-width="0.75" stroke-miterlimit="10" stroke-linecap="round" stroke-linejoin="round"/>
<path d="M8.56253 17.6177V19.0916" stroke="#F9F7E7" stroke-width="0.75" stroke-miterlimit="10" stroke-linecap="round" stroke-linejoin="round"/>
<path d="M12.8629 17.6177V19.1117" stroke="#F9F7E7" stroke-width="0.75" stroke-miterlimit="10" stroke-linecap="round" stroke-linejoin="round"/>
<path d="M10.1504 17.6177V19.2876" stroke="#F9F7E7" stroke-width="0.75" stroke-miterlimit="10" stroke-linecap="round" stroke-linejoin="round"/>
<path d="M17.7451 34.8638V37.3137" stroke="#F9F7E7" stroke-width="0.75" stroke-miterlimit="10" stroke-linecap="round" stroke-linejoin="round"/>
<path d="M16.6015 35.8105H18.9834" stroke="#F9F7E7" stroke-width="0.75" stroke-miterlimit="10" stroke-linecap="round" stroke-linejoin="round"/>
<path d="M17.1493 36.2141C17.1731 36.1723 18.507 35.2954 18.507 35.2954" stroke="#F9F7E7" stroke-width="0.75" stroke-miterlimit="10" stroke-linecap="round" stroke-linejoin="round"/>
<path d="M17.0541 35.2671L18.3642 36.2277" stroke="#F9F7E7" stroke-width="0.75" stroke-miterlimit="10" stroke-linecap="round" stroke-linejoin="round"/>
<path d="M2.37979 26.9932V29.5489" stroke="#F9F7E7" stroke-width="0.75" stroke-miterlimit="10" stroke-linecap="round" stroke-linejoin="round"/>
<path d="M1.1868 27.9805H3.6717" stroke="#F9F7E7" stroke-width="0.75" stroke-miterlimit="10" stroke-linecap="round" stroke-linejoin="round"/>
<path d="M1.75836 28.4014C1.78317 28.3578 3.1748 27.4429 3.1748 27.4429" stroke="#F9F7E7" stroke-width="0.75" stroke-miterlimit="10" stroke-linecap="round" stroke-linejoin="round"/>
<path d="M1.6593 27.4141L3.02591 28.416" stroke="#F9F7E7" stroke-width="0.75" stroke-miterlimit="10" stroke-linecap="round" stroke-linejoin="round"/>
</svg>
