<svg width="31" height="31" viewBox="0 0 31 31" fill="none" xmlns="http://www.w3.org/2000/svg">
<path d="M24.7781 20.2746C23.8931 21.9845 22.5551 23.4181 20.9102 24.4188C19.2654 25.4194 17.3771 25.9486 15.4518 25.9484C14.9815 25.9494 14.5116 25.9181 14.0456 25.8546M20.2781 6.12204C21.988 7.00699 23.4216 8.34503 24.4223 9.98986C25.4229 11.6347 25.9521 13.523 25.9519 15.4483C25.9529 15.9186 25.9216 16.3885 25.8581 16.8545M6.12552 10.6221C7.01047 8.91224 8.34851 7.4786 9.99335 6.47795C11.6382 5.47729 13.5265 4.94814 15.4518 4.94836C15.9221 4.94734 16.392 4.97866 16.858 5.04211M10.6255 24.7746C8.64997 23.7483 7.05066 22.1221 6.05748 20.1296C5.0643 18.1372 4.72839 15.8812 5.09803 13.6859M2.18432 4.92206L0.451817 8.04956L5.54057 14.2183C5.67151 14.3735 5.83259 14.5004 6.01405 14.5915C6.1955 14.6825 6.39356 14.7358 6.59621 14.7481C6.79886 14.7604 7.0019 14.7314 7.19302 14.6629C7.38414 14.5944 7.55936 14.4878 7.70807 14.3496C7.84902 14.2117 7.96142 14.0475 8.03884 13.8662C8.11627 13.6849 8.15719 13.4901 8.15928 13.293C8.16137 13.0958 8.12458 12.9002 8.05102 12.7173C7.97746 12.5344 7.86857 12.3678 7.73057 12.2271L4.67807 9.17456M25.9781 2.18083L22.8506 0.448331L16.4756 5.42458C16.3277 5.57225 16.2104 5.74762 16.1304 5.94066C16.0504 6.13369 16.0092 6.34061 16.0092 6.54958C16.0092 6.75855 16.0504 6.96547 16.1304 7.15851C16.2104 7.35154 16.3277 7.52691 16.4756 7.67458C16.6233 7.82244 16.7986 7.93973 16.9917 8.01976C17.1847 8.09979 17.3916 8.14098 17.6006 8.14098C17.8096 8.14098 18.0165 8.09979 18.2095 8.01976C18.4026 7.93973 18.5779 7.82244 18.7256 7.67458L21.7256 4.67458M28.7193 25.9746L30.4518 22.8471L25.4756 16.4721C25.3279 16.3242 25.1526 16.207 24.9595 16.1269C24.7665 16.0469 24.5596 16.0057 24.3506 16.0057C24.1416 16.0057 23.9347 16.0469 23.7417 16.1269C23.5486 16.207 23.3733 16.3242 23.2256 16.4721C23.0777 16.6198 22.9604 16.7951 22.8804 16.9882C22.8004 17.1812 22.7592 17.3881 22.7592 17.5971C22.7592 17.8061 22.8004 18.013 22.8804 18.206C22.9604 18.3991 23.0777 18.5744 23.2256 18.7221L26.2256 21.7221M4.92554 28.7159L8.05304 30.4484L14.428 25.4721C14.5759 25.3244 14.6932 25.1491 14.7732 24.956C14.8532 24.763 14.8944 24.5561 14.8944 24.3471C14.8944 24.1381 14.8532 23.9312 14.7732 23.7382C14.6932 23.5451 14.5759 23.3698 14.428 23.2221C14.2804 23.0742 14.105 22.957 13.912 22.8769C13.7189 22.7969 13.512 22.7557 13.303 22.7557C13.0941 22.7557 12.8872 22.7969 12.6941 22.8769C12.5011 22.957 12.3257 23.0742 12.178 23.2221L9.17804 26.2221M5.04557 16.8546L0.451817 22.8471L1.92557 25.7196M4.67807 21.7221L6.12557 20.2746M14.0456 5.04208L8.05311 0.448331L5.18061 1.92208M9.17807 4.67459L10.6256 6.12209M25.8581 14.0421L30.4518 8.04962L28.9781 5.17712M26.2256 9.17459L24.7781 10.6221M16.8581 25.8546L22.8506 30.4483L25.7231 28.9746M21.7256 26.2221L20.2781 24.7746M1.33234 1.06799C2.16049 0.239839 3.50379 0.240432 4.33268 1.06932L5.83086 2.5675C6.65975 3.39639 6.66034 4.73969 5.83219 5.56784C5.00403 6.396 3.66073 6.39541 2.83185 5.56652L1.33366 4.06834C0.504776 3.23945 0.504182 1.89615 1.33234 1.06799ZM25.3345 2.82741L26.8327 1.32923C27.6616 0.500341 29.0049 0.499746 29.833 1.3279C30.6612 2.15606 30.6606 3.49936 29.8317 4.32825L28.3335 5.82643C27.5046 6.65532 26.1613 6.65591 25.3332 5.82775C24.505 4.9996 24.5056 3.6563 25.3345 2.82741ZM25.0733 25.329C25.9015 24.5009 27.2448 24.5014 28.0737 25.3303L29.5719 26.8285C30.4007 27.6574 30.4013 29.0007 29.5732 29.8289C28.745 30.657 27.4017 30.6564 26.5728 29.8275L25.0747 28.3294C24.2458 27.5005 24.2452 26.1572 25.0733 25.329ZM1.07347 26.5684L2.57165 25.0702C3.40054 24.2413 4.74384 24.2407 5.57199 25.0689C6.40015 25.8971 6.39956 27.2404 5.57067 28.0692L4.07249 29.5674C3.2436 30.3963 1.9003 30.3969 1.07214 29.5688C0.243989 28.7406 0.244583 27.3973 1.07347 26.5684ZM20.203 13.7346L18.703 15.6096L20.053 17.5933C20.1749 17.7738 20.2363 17.9884 20.2283 18.206C20.2203 18.4237 20.1434 18.6331 20.0086 18.8042C19.8739 18.9753 19.6882 19.0991 19.4785 19.1578C19.2688 19.2165 19.0458 19.2071 18.8418 19.1308L16.5918 18.2871L15.1218 20.1621C14.988 20.334 14.803 20.459 14.5936 20.519C14.3841 20.5789 14.161 20.5707 13.9565 20.4956C13.752 20.4205 13.5767 20.2823 13.4559 20.101C13.335 19.9198 13.275 19.7048 13.2843 19.4871L13.3968 17.0908L11.1468 16.2808C10.9414 16.207 10.7649 16.0696 10.6428 15.8887C10.5207 15.7078 10.4594 15.4927 10.4678 15.2746C10.4762 15.0566 10.5537 14.8468 10.6893 14.6758C10.8249 14.5047 11.0114 14.3813 11.2218 14.3233L13.5318 13.6896L13.6068 11.2933C13.6143 11.0768 13.6903 10.8681 13.8239 10.6975C13.9575 10.5269 14.1418 10.403 14.3502 10.3438C14.5587 10.2846 14.7806 10.2931 14.9839 10.3681C15.1873 10.443 15.3616 10.5805 15.4818 10.7608L16.8018 12.7633L19.1043 12.0921C19.3174 12.0204 19.5481 12.0208 19.761 12.0932C19.9738 12.1657 20.1569 12.3062 20.2819 12.4931C20.4069 12.68 20.4669 12.9028 20.4526 13.1272C20.4384 13.3516 20.3507 13.565 20.203 13.7346ZM16.8131 12.782L18.7068 15.6095L16.6031 18.287L13.4081 17.1095L13.5356 13.7083L16.8131 12.782Z" stroke="#F9F7E7" stroke-width="0.75"/>
</svg>
