<svg width="31" height="31" viewBox="0 0 31 31" fill="none" xmlns="http://www.w3.org/2000/svg">
<path d="M13.875 9.53027L12.375 3.53027L15.375 0.530273M15.375 0.530273L18.375 3.53027L16.875 9.53027M15.375 0.530273V9.53027M15.375 11.0303V15.5303M10.875 12.5303L7.875 15.5303C4.875 15.5303 0.375 18.5303 0.375 23.0303H10.875V24.5303H13.875M7.875 12.5303V26.0303M10.875 20.0303V9.53027M19.875 12.5303L22.875 15.5303C25.875 15.5303 30.375 18.5303 30.375 23.0303H19.875V24.5303H16.875M22.875 12.5303V26.0303M19.875 20.0303V9.53027M4.875 26.0303C4.47718 26.0303 4.09564 26.1883 3.81434 26.4696C3.53304 26.7509 3.375 27.1324 3.375 27.5303C2.57935 27.5303 1.81629 27.8463 1.25368 28.409C0.69107 28.9716 0.375 29.7346 0.375 30.5303M25.875 26.0303C26.2728 26.0303 26.6544 26.1883 26.9357 26.4696C27.217 26.7509 27.375 27.1324 27.375 27.5303C28.1706 27.5303 28.9337 27.8463 29.4963 28.409C30.0589 28.9716 30.375 29.7346 30.375 30.5303M21.375 27.5303C20.5794 27.5303 19.8163 27.8463 19.2537 28.409C18.6911 28.9716 18.375 29.7346 18.375 30.5303C18.375 30.1324 18.217 29.7509 17.9357 29.4696C17.6544 29.1883 17.2728 29.0303 16.875 29.0303M3.375 2.03027V3.53027M28.875 3.53027V5.03027M25.875 6.53027V8.03027M22.875 0.530273V2.03027M6.375 5.03027V6.53027M1.875 11.0303V12.5303M30.375 12.5303V14.0303M13.125 9.53027H17.625V11.0303H13.125V9.53027ZM13.875 15.5303H16.875V26.0303H13.875V15.5303Z" stroke="#F9F7E7" stroke-width="0.75"/>
</svg>
