<svg width="44" height="55" viewBox="0 0 44 55" fill="none" xmlns="http://www.w3.org/2000/svg">
<path d="M16.5763 10.8049C14.9876 9.93309 12.9655 10.8049 12.9655 10.8049C9.35468 12.8391 12.9655 16.1818 12.9655 16.1818C6.32194 20.9774 12.9655 26.2088 12.9655 26.2088C12.9655 26.2088 6.75539 26.79 5.16671 33.1842V49.896C5.16671 49.896 11.9544 54.8568 25.9637 54.4111M32.03 10.8049C33.6186 9.93309 35.6408 10.8049 35.6408 10.8049C39.2516 12.8391 35.6408 16.1818 35.6408 16.1818C42.2842 20.9774 35.6408 26.2088 35.6408 26.2088C35.6408 26.2088 41.8508 26.79 43.4395 33.1842V49.896C43.4395 49.896 36.6518 54.8568 22.6425 54.4111M9.71675 32.7483C12.5508 32.2816 14.3965 33.9026 17.2656 33.7842C18.8505 33.7189 20.3614 32.953 21.9467 32.9993C23.7825 33.0522 25.4058 34.1741 27.1846 34.6332C30.2676 35.4286 35.5871 33.8854 38.5292 32.6638M33.0411 2.34436C33.0411 3.39654 29.1714 4.24928 24.3978 4.24928C19.6242 4.24928 15.7544 3.39654 15.7544 2.34436M33.0411 2.34436C33.0411 1.29218 29.1714 0.439453 24.3978 0.439453C19.6242 0.439453 15.7544 1.29218 15.7544 2.34436M33.0411 2.34436L30.8064 15.213H17.9007L15.7544 2.34436M18.8681 4.16571C19.1816 7.82995 19.5946 11.4856 20.1058 15.1275M21.2895 4.55438C21.4147 8.09218 21.7263 11.6233 22.2228 15.1277M25.2904 4.65276V15.2133M14.0351 24.7937C13.2422 24.0316 12.7447 22.9666 12.6674 21.8666C12.5901 20.7662 12.9335 19.6415 13.6116 18.7745M41.5621 34.0076V44.3758M36.2655 19.9598C36.1388 22.0307 34.8968 23.9986 33.0876 24.9945M5.12388 3.39317V16.8597M2.26443 8.15712H7.98317M3.73019 9.85089L7.20725 5.90458M3.48237 5.90458L7.20698 10.1267M28.5405 20.0152V33.4818M25.681 24.7796H31.3998M27.1461 26.4733L30.6231 22.527M26.8984 22.527L30.6231 26.7491M14.0355 12.694C14.0355 12.694 14.5795 18.6039 24.1234 18.2164C33.6673 17.8289 34.677 12.694 34.677 12.694M8.9223 47.2805C8.9223 47.2805 24.9532 55.1278 40.1177 47.2805V32.4288C40.1177 32.4288 36.6516 31.0048 34.9183 29.5514C33.1849 28.0983 28.997 30.8593 25.9638 31.2955C22.9311 31.7316 19.0315 27.697 16.1429 29.1329C13.2544 30.5687 10.5105 29.3476 8.92183 32.4288L8.9223 47.2805ZM13.7754 39.7951C14.3933 39.7951 14.8942 39.2911 14.8942 38.6694C14.8942 38.0477 14.3933 37.5437 13.7754 37.5437C13.1576 37.5437 12.6567 38.0477 12.6567 38.6694C12.6567 39.2911 13.1576 39.7951 13.7754 39.7951ZM36.2653 45.5014C36.8832 45.5014 37.384 44.9973 37.384 44.3756C37.384 43.754 36.8832 43.25 36.2653 43.25C35.6475 43.25 35.1466 43.754 35.1466 44.3756C35.1466 44.9973 35.6475 45.5014 36.2653 45.5014ZM22.9918 46.2757C23.4166 46.2757 23.761 45.9292 23.761 45.5017C23.761 45.0743 23.4166 44.7278 22.9918 44.7278C22.567 44.7278 22.2226 45.0743 22.2226 45.5017C22.2226 45.9292 22.567 46.2757 22.9918 46.2757ZM25.6275 38.2223C25.8138 38.2223 25.9647 38.0704 25.9647 37.883C25.9647 37.6957 25.8138 37.5437 25.6275 37.5437C25.4413 37.5437 25.2904 37.6957 25.2904 37.883C25.2904 38.0704 25.4413 38.2223 25.6275 38.2223ZM18.5308 48.201C18.717 48.201 18.868 48.0491 18.868 47.8617C18.868 47.6744 18.717 47.5225 18.5308 47.5225C18.3446 47.5225 18.1936 47.6744 18.1936 47.8617C18.1936 48.0491 18.3446 48.201 18.5308 48.201ZM37.3843 4.47792C37.3843 4.47792 39.4444 3.81273 40.1182 0.971617C40.1182 0.971617 40.5996 3.42003 42.3329 4.47792C42.3329 4.47792 39.9257 6.61379 40.1182 8.77878C40.1182 8.77878 39.4643 4.94797 37.3843 4.47792ZM0.439453 23.2359C0.439453 23.2359 1.95889 22.7353 2.45636 20.5966C2.45636 20.5966 2.81156 22.4395 4.0901 23.2359C4.0901 23.2359 2.31457 24.844 2.45636 26.4731C2.45636 26.4731 1.97407 23.5895 0.439453 23.2359Z" stroke="#F9F7E7" stroke-width="0.878906" stroke-miterlimit="10" stroke-linecap="round" stroke-linejoin="round"/>
</svg>
