<svg width="632" height="166" viewBox="0 0 632 166" fill="none" xmlns="http://www.w3.org/2000/svg">
<path d="M168.539 153.708L137.366 122.972C147.486 111.094 153.579 95.7769 153.579 79.0524V79.0247H141.413V79.0524C141.413 88.8499 138.874 98.0628 134.416 106.087L107.012 79.0663L150.369 36.3159L160.392 3.95587L127.617 13.8753L84.2598 56.6257L40.9026 13.8808L8.12511 3.95587L18.145 36.3131L61.5023 79.0635L34.0986 106.084C29.6372 98.0573 27.0986 88.8499 27.0986 79.0497V79.022H14.9319V79.0497C14.9319 95.7824 21.0335 111.108 31.157 122.983L0 153.708L8.60371 162.193L39.7747 131.459C51.2864 140.957 65.9721 146.848 82.0347 147.35V135.352C72.9384 135.011 64.3879 132.567 56.8618 128.514L84.2542 101.504L111.647 128.514C104.123 132.567 95.5729 135.011 86.4765 135.352V147.35C102.548 146.851 117.236 140.955 128.748 131.448L159.927 162.193L168.534 153.708H168.539ZM130.45 18.5219L146.91 13.54L93.734 65.9716L88.0327 60.3496L130.452 18.5219H130.45ZM65.2471 82.8096L70.9316 88.451L41.9942 116.982C40.1693 115.009 38.49 112.909 36.9618 110.695L65.2471 82.8069V82.8096ZM22.8555 33.5257L17.8092 17.2307L122.747 120.7C120.732 122.509 118.588 124.177 116.326 125.693L22.8555 33.5257Z" fill="#534A13"/>
<path d="M415.978 82.3751C415.051 82.5612 414.372 82.4972 414.001 81.4508C413.815 80.9566 413.139 80.5875 412.643 80.4014C411.78 80.0933 410.789 79.9683 409.927 79.7241C406.962 78.9219 405.173 76.9482 405.173 74.4193V11.9787C405.173 10.3131 405.852 8.89456 407.271 8.15333C408.755 7.4121 410.419 6.91794 412.025 6.4267C413.075 6.11858 414.372 6.11858 414.31 4.63612C414.249 3.09262 412.827 3.27865 411.839 3.09262C411.655 3.03157 411.407 3.09262 411.221 3.09262C408.009 3.2147 404.735 3.46178 401.526 3.52573C397.017 3.58677 392.511 3.58677 388.002 3.52573C385.099 3.46469 382.134 3.33969 379.231 3.21761C378.368 3.21761 377.441 3.03157 376.637 3.21761C376.144 3.40364 375.34 4.14197 375.401 4.57508C375.462 5.19131 376.08 5.93254 376.637 6.17962C377.5 6.54878 378.613 6.54878 379.601 6.8569C383.184 7.90625 384.542 9.75787 384.542 13.4582V72.9949C384.542 76.4511 382.443 79.0411 379.047 79.7823C378.182 79.9683 377.319 80.0294 376.514 80.3985C376.022 80.6456 375.343 81.3868 375.404 81.756C375.526 82.3112 376.144 82.8053 376.701 83.1135C377.01 83.2995 377.628 83.1745 378.059 83.1745C381.394 83.1134 384.667 82.9885 387.94 82.9274C388.436 82.9274 389.424 83.3605 389.424 83.5437C389.238 85.5174 390.66 85.6424 391.957 85.9505C392.575 86.1365 393.254 86.2586 393.872 86.5057C397.95 87.9852 401.346 91.2554 401.22 96.5021C400.972 105.757 401.22 115.074 401.098 124.39C401.037 128.892 400.666 133.398 399.305 137.778C396.527 146.539 391.278 152.402 381.706 153.388C374.667 154.065 368.986 151.722 364.847 145.923C360.646 140.063 359.414 133.276 359.227 126.366C358.918 115.012 359.166 103.662 359.166 92.3105C359.166 89.4095 360.585 87.5608 363.305 86.6336C364.415 86.2644 365.529 86.1394 366.578 85.7092C367.135 85.4621 367.875 85.0319 368.123 84.4738C368.554 83.4245 369.172 83.1774 370.16 83.2384C370.778 83.2995 371.457 83.2384 372.137 83.2384C372.999 83.2384 373.99 83.1774 374.113 82.0031C374.235 80.7677 373.311 80.5846 372.323 80.3985C367.63 79.4102 364.109 76.8813 361.888 72.5618C359.11 67.193 356.33 61.8271 353.491 56.4583C347.069 44.18 340.645 31.9017 334.163 19.6264C332.125 15.74 330.149 11.8537 327.803 8.15042C325.456 4.38614 321.874 2.47347 317.307 2.47347C310.576 2.53451 303.846 2.47347 297.113 2.47347C296.682 2.47347 296.247 2.41243 295.877 2.53451C295.446 2.78159 294.828 3.08971 294.767 3.45887C294.641 3.89198 294.828 4.56926 295.137 4.93842C295.446 5.30759 296.064 5.43258 296.617 5.55466C301.31 6.66505 305.263 8.82479 307.732 13.1443C311.066 19.0043 314.339 24.8673 317.551 30.7884C317.86 31.4657 318.044 32.5151 317.738 33.1953C314.896 39.7355 312.179 46.2758 309.031 52.63C306.006 58.8622 301.992 64.4752 296.495 68.8557C291.863 72.495 286.739 73.5443 281.12 71.8787C276.61 70.5213 273.153 67.5593 269.941 64.3531C265.062 59.4174 261.174 53.8015 258.023 47.5722C256.539 44.7352 257.035 42.3284 259.629 40.4157C261.357 39.1193 263.15 37.8868 264.94 36.6514C269.571 33.4423 273.215 29.4949 275.561 24.3121C278.834 17.2167 277.167 8.45563 271.609 4.2001C265.928 -0.119379 259.442 -0.735616 252.712 0.682894C247.215 1.85433 242.77 4.94133 239.004 8.88874C235.731 12.281 232.95 16.1702 229.989 19.8095C229.741 20.1176 229.432 20.4258 229.187 20.7339C229.065 20.7339 228.939 20.6728 228.817 20.6118C228.817 18.266 228.878 15.9232 228.817 13.5774C228.756 10.6154 227.767 8.08647 225.421 6.11277C223.506 4.56926 221.285 3.89198 218.877 3.83094C212.765 3.70886 206.711 3.64491 200.66 3.52282C200.412 3.52282 200.103 3.46178 199.92 3.58386C199.488 3.89198 198.748 4.26114 198.748 4.69425C198.687 5.18841 199.118 5.86569 199.549 6.2988C199.92 6.60692 200.538 6.60692 201.033 6.73191C205.787 7.8423 209.431 12.2228 209.431 17.0975V73.3641C209.431 76.3261 208.011 78.2388 205.356 79.2881C203.936 79.8433 202.33 80.1514 200.785 80.5235C199.614 80.7706 199.241 81.6339 199.672 82.4362C199.92 82.9303 200.969 83.2995 201.648 83.2995C208.687 83.2384 215.729 83.0524 222.766 83.0524C227.15 83.0524 231.475 83.2384 235.856 83.3605C236.783 83.4216 237.584 83.1135 237.71 82.0031C237.832 80.8927 237.031 80.6456 236.165 80.4596C234.807 80.0904 233.326 79.7823 232.09 79.1631C229.682 77.9278 229.126 75.707 229.126 73.1781C229.187 61.0248 229.187 48.8076 229.126 36.6543C229.065 33.8173 229.312 31.1634 230.854 28.6956C231.411 27.7073 231.904 26.6608 232.521 25.7336C235.425 21.2309 238.943 17.3417 243.944 15.0598C247.218 13.6413 250.243 14.0715 252.899 16.3563C258.702 21.417 259.506 30.6693 254.505 36.5323C252.651 38.692 250.369 40.4797 248.145 42.3313C246.291 43.8748 244.256 45.1683 242.341 46.6508C238.946 49.3047 238.266 51.8336 240.426 55.5339C242.65 59.4203 245.119 63.1235 247.713 66.7628C253.024 74.1664 259.384 80.3375 267.598 84.407C267.907 84.593 268.216 84.9011 268.647 85.2092C267.784 85.8255 267.102 86.2586 266.423 86.6888C260.311 90.6362 255.618 95.819 252.406 102.359C248.331 110.626 247.282 119.387 248.083 128.456C248.701 135.613 250.491 142.4 254.196 148.629C259.877 158.193 268.399 163.931 279.205 165.349C285.256 166.213 291.68 166.338 297.792 164.98C305.327 163.253 312.488 160.722 318.665 155.85C320.393 154.431 321.381 152.766 321.32 150.423C321.134 144.438 321.072 138.392 321.011 132.407C320.95 129.137 322.431 126.73 325.334 125.311C326.074 125.003 327.001 125.003 327.68 124.573C328.176 124.265 328.607 123.524 328.607 122.968C328.607 122.599 327.806 121.919 327.31 121.858C325.952 121.736 324.532 121.858 323.174 121.919C317.924 122.044 312.675 122.288 307.428 122.288C302.182 122.288 297.055 121.98 291.866 121.794C290.817 121.733 289.829 121.916 289.829 123.274C289.768 124.509 290.756 124.57 291.683 124.878C293.781 125.555 295.883 126.05 297.734 127.099C299.897 128.331 301.503 130.308 301.503 133.084C301.564 140.735 301.503 148.385 301.564 156.036C301.564 157.271 301.071 157.888 300.019 158.443C294.77 161.097 288.409 159.431 284.209 156.161C279.269 152.275 276.121 147.153 274.022 141.354C269.883 130.064 268.895 118.527 270.997 106.743C271.923 101.252 273.9 96.13 277.482 91.7495C279.458 89.2816 281.93 87.6161 285.139 86.6917C288.721 85.6424 292.117 85.2732 295.699 86.1975C301.998 87.8021 306.936 91.5024 310.891 96.5021C312.681 98.7229 313.917 101.316 315.336 103.845C315.829 104.708 316.199 105.571 317.374 105.388C318.609 105.266 318.362 104.217 318.426 103.353V102.304C318.239 95.3946 317.994 88.4212 317.808 81.5118C317.747 81.3897 317.808 81.2037 317.747 81.0787C317.438 80.5846 317.068 79.8433 316.697 79.7823C316.202 79.7212 315.526 80.1514 315.091 80.5235C314.721 80.8927 314.66 81.4479 314.351 81.881C312.806 84.0407 310.646 83.6716 308.486 83.1164C305.091 82.3141 301.692 81.5729 298.296 80.7706C297.987 80.7095 297.617 80.4625 297.061 80.2154C308.918 68.6173 315.709 54.3654 321.268 39.3111C321.39 39.3111 321.577 39.3722 322.008 38.878C322.195 39.2472 322.439 39.6803 322.626 40.0495C324.48 43.6277 326.27 47.267 328.12 50.9092C331.889 58.2517 335.716 65.5943 339.421 72.9978C340.47 75.0326 340.161 76.268 338.308 77.6865C337.567 78.3027 336.702 78.7969 335.775 79.105C334.291 79.5991 332.749 79.7823 331.265 80.1544C329.968 80.4625 328.671 83.7936 329.537 84.843C329.785 85.1511 330.339 85.3371 330.834 85.4592C332.437 86.0144 334.107 86.3225 335.649 87.0027C337.564 87.866 338.491 89.4096 338.491 91.5693C338.552 103.231 338.614 114.89 338.8 126.552C338.923 134.511 340.284 142.287 344.172 149.318C349.605 159.251 358.067 164.62 369.429 165.114C372.332 165.236 375.171 165.236 378.074 165.114C380.359 164.989 382.705 164.806 384.929 164.25C392.896 162.216 398.638 157.277 402.529 150.121C406.359 142.964 407.778 135.191 407.901 127.233C408.087 116.806 407.962 106.379 407.962 95.9527C407.962 90.4618 411.049 86.6975 416.482 85.6482C417.718 85.4011 418.584 84.9069 418.397 83.5495C418.21 82.192 417.039 82.192 415.989 82.378L415.978 82.3751Z" fill="#534A13"/>
<path d="M541.042 135.752C540.671 135.627 539.865 136.244 539.556 136.736C539.185 137.164 539.185 137.842 538.998 138.458C536.706 146.882 531.381 152.663 522.77 154.386C517.383 155.492 511.745 155.185 506.171 155.431C503.818 155.552 503.757 155.37 503.757 153.031C503.757 132.86 503.818 112.628 503.757 92.4568C503.695 87.9062 505.614 86.123 510.385 85.1387C511.561 84.8927 512.986 84.9535 512.925 83.3555C512.799 81.5723 511.252 82.0036 510.136 82.0036C502.332 82.0644 494.592 82.2497 486.787 82.3105C485.672 82.3105 484.495 82.1252 483.38 82.0036C483.38 81.8821 483.319 81.6968 483.319 81.5723C488.522 80.2204 492.857 77.3893 496.945 74.0689C501.652 70.1957 505.307 65.5813 507.844 60.1101C511.374 52.546 512.986 44.6142 512.677 36.251C512.367 28.38 510.758 20.8766 506.484 14.1751C499.114 2.61322 488.151 -1.87665 475.33 0.708427C467.713 2.24558 461.394 6.18253 456.626 12.4556C456.378 12.8232 456.255 13.1938 456.069 13.5614C455.885 13.5006 455.698 13.3762 455.575 13.2546C455.45 12.7625 455.204 12.2095 455.14 11.7174C454.769 6.24332 451.549 3.9072 447.339 3.2935C446.471 3.17192 445.604 3.04744 444.737 3.04744H426.962C425.908 3.10823 424.731 2.98665 424.544 4.5238C424.357 6.00016 425.537 6.12174 426.527 6.30701C431.668 7.23046 435.137 12.2095 435.073 16.8239C434.889 35.0873 434.889 53.4144 435.073 71.6778C435.073 76.5961 432.906 77.8264 429.315 79.1812C428.757 79.3665 428.138 79.488 427.519 79.6125C424.857 80.2262 424.608 80.5968 424.795 83.3642C424.857 84.47 425.414 84.9014 426.53 85.0866C427.893 85.2719 429.192 85.518 430.43 86.0101C432.661 86.9943 434.147 88.5315 434.147 91.1744V152.18C434.147 154.823 432.909 156.609 430.556 157.59C429.254 158.082 427.893 158.265 426.53 158.575C425.54 158.821 424.857 159.252 424.857 160.297C424.918 161.342 425.662 161.649 426.591 161.649C429.067 161.649 431.546 161.588 434.022 161.588H454.895C457.31 161.588 459.727 161.71 462.142 161.588C462.699 161.588 463.196 160.789 463.753 160.358C463.257 159.805 462.761 159.188 462.206 158.699C461.896 158.453 461.4 158.638 460.968 158.575C457.377 158.207 454.775 155.5 454.775 152.119V91.2381C454.775 89.2696 455.517 87.7325 457.19 86.7483C458.428 86.0101 459.853 85.518 461.216 85.2111C462.454 84.965 463.631 84.8435 464.314 83.5495C464.501 83.1818 465.307 82.9966 465.8 82.9966C467.967 82.9358 470.197 82.875 472.428 82.9966C473.047 83.0574 473.605 83.674 474.224 84.0416C474.781 84.4092 475.336 84.8406 475.958 85.0866C477.508 85.6395 479.117 85.9464 480.603 86.6238C482.338 87.4227 483.205 88.9599 483.266 90.8676C483.392 94.3732 483.576 97.8152 483.576 101.321C483.576 108.514 483.389 115.65 483.327 122.844C483.266 132.498 483.266 142.213 483.327 151.87C483.389 154.392 482.335 156.175 480.046 157.098C478.621 157.651 477.073 158.022 475.587 158.328C474.472 158.514 473.73 159.003 473.73 160.172C473.791 161.403 474.72 161.588 475.713 161.649H477.695C486.489 161.649 495.222 161.464 504.017 161.77C512.872 162.016 521.731 162.138 530.586 161.278C537.956 160.54 540.928 157.098 541.734 150.515C542.23 146.703 542.23 142.83 542.414 139.017C542.476 138.401 542.601 137.726 542.353 137.17C542.105 136.617 541.611 135.94 541.054 135.758L541.042 135.752ZM473.718 76.1619C468.764 77.2677 463.809 77.453 458.854 76.3472C456.253 75.7943 455.324 74.6248 455.324 71.9181V48.5511C455.324 41.4791 455.385 34.407 455.324 27.335C455.263 20.509 458.854 16.1436 464.676 13.4369C469.321 11.2224 473.967 11.7753 478.364 14.5428C483.505 17.7415 486.478 22.5991 488.77 27.9487C491.803 35.0207 492.919 42.3996 492.425 50.0246C492.054 55.6811 490.752 61.0944 487.841 66.0127C484.682 71.4231 479.85 74.7463 473.721 76.159L473.718 76.1619Z" fill="#534A13"/>
<path d="M631.833 115C631.342 108.12 629.813 101.607 626.323 95.7087C619.834 84.7728 610.162 79.7985 597.551 81.2102C590.757 82.0099 584.759 84.8969 579.861 89.8106C578.391 91.2858 577.043 92.8217 575.392 94.603C575.332 93.7427 575.268 93.2519 575.086 92.7611C574.535 87.5991 572.024 84.9575 566.883 84.282C564.923 84.0366 563.027 83.976 561.067 83.976H546.375C545.397 83.976 544.6 84.282 544.54 85.3877C544.479 86.3693 544.967 86.8629 545.948 87.0477C552.131 88.3382 555.19 92.2097 555.19 98.5351V141.661C555.19 145.593 555.13 149.525 555.19 153.457C555.251 155.79 554.394 157.695 552.252 158.741C550.904 159.416 549.438 159.907 548.029 160.401C547.602 160.585 547.051 160.646 546.56 160.707C545.642 160.831 544.97 161.446 545.276 162.367C545.458 162.857 546.254 163.412 546.805 163.412C551.825 163.351 556.908 163.045 561.924 163.166C568.413 163.29 574.962 163.781 581.451 163.966C585.247 164.027 589.103 163.781 592.898 163.721C602.813 163.66 611.201 160.034 618.362 153.154C623.627 148.056 627.299 142.033 629.504 135.093C631.585 128.58 632.382 121.885 631.83 115.005L631.833 115ZM606 149.095C602.51 153.887 597.491 156.223 591.799 157.329C587.576 158.189 583.414 158.065 579.188 157.329C576.68 156.899 575.517 155.548 575.517 153.027V123.109H575.211V108.056C575.211 102.219 578.088 97.9808 582.923 95.1544C589.166 91.5283 595.84 92.637 601.041 97.6719C606.551 103.016 609.368 109.714 610.959 117.023C611.631 119.91 612.061 122.861 612.122 125.809C612.307 134.164 611.019 142.149 606 149.092V149.095Z" fill="#534A13"/>
</svg>
