<svg width="632" height="166" viewBox="0 0 632 166" fill="none" xmlns="http://www.w3.org/2000/svg">
<mask id="path-1-inside-1_4686_17843" fill="white">
<path d="M415.978 82.3751C415.051 82.5612 414.372 82.4972 414.002 81.4508C413.815 80.9566 413.139 80.5875 412.643 80.4014C411.781 80.0933 410.79 79.9683 409.927 79.7241C406.962 78.9219 405.173 76.9482 405.173 74.4193V11.9787C405.173 10.3131 405.852 8.89456 407.271 8.15333C408.755 7.4121 410.419 6.91794 412.025 6.4267C413.075 6.11858 414.372 6.11858 414.311 4.63612C414.249 3.09262 412.827 3.27865 411.839 3.09262C411.655 3.03157 411.407 3.09262 411.221 3.09262C408.009 3.2147 404.736 3.46178 401.526 3.52573C397.017 3.58677 392.511 3.58677 388.002 3.52573C385.099 3.46469 382.134 3.33969 379.231 3.21761C378.368 3.21761 377.442 3.03157 376.637 3.21761C376.144 3.40364 375.34 4.14197 375.401 4.57508C375.462 5.19131 376.08 5.93254 376.637 6.17962C377.5 6.54878 378.613 6.54878 379.601 6.8569C383.184 7.90625 384.542 9.75787 384.542 13.4582V72.9949C384.542 76.4511 382.443 79.0411 379.048 79.7823C378.182 79.9683 377.319 80.0294 376.515 80.3985C376.022 80.6456 375.343 81.3868 375.404 81.756C375.527 82.3112 376.144 82.8053 376.701 83.1135C377.01 83.2995 377.628 83.1745 378.059 83.1745C381.394 83.1135 384.667 82.9885 387.941 82.9274C388.436 82.9274 389.424 83.3605 389.424 83.5437C389.238 85.5174 390.66 85.6424 391.957 85.9505C392.575 86.1365 393.254 86.2586 393.872 86.5057C397.95 87.9852 401.346 91.2554 401.22 96.5021C400.973 105.757 401.22 115.074 401.098 124.39C401.037 128.892 400.667 133.398 399.305 137.778C396.528 146.539 391.278 152.402 381.706 153.388C374.667 154.065 368.986 151.722 364.847 145.923C360.647 140.063 359.414 133.276 359.227 126.366C358.918 115.012 359.166 103.661 359.166 92.3105C359.166 89.4095 360.585 87.5608 363.305 86.6336C364.415 86.2644 365.529 86.1394 366.578 85.7092C367.135 85.4621 367.875 85.0319 368.123 84.4738C368.554 83.4245 369.172 83.1774 370.16 83.2384C370.778 83.2995 371.457 83.2384 372.137 83.2384C372.999 83.2384 373.99 83.1774 374.113 82.0031C374.235 80.7677 373.311 80.5846 372.323 80.3985C367.63 79.4102 364.109 76.8813 361.888 72.5618C359.111 67.193 356.33 61.8271 353.491 56.4583C347.07 44.18 340.645 31.9017 334.163 19.6264C332.125 15.74 330.149 11.8537 327.803 8.15042C325.456 4.38614 321.874 2.47347 317.307 2.47347C310.576 2.53451 303.846 2.47347 297.113 2.47347C296.682 2.47347 296.247 2.41243 295.877 2.53451C295.446 2.78159 294.828 3.08971 294.767 3.45887C294.641 3.89198 294.828 4.56926 295.137 4.93842C295.446 5.30759 296.064 5.43258 296.618 5.55466C301.31 6.66505 305.263 8.82479 307.732 13.1443C311.066 19.0043 314.339 24.8673 317.552 30.7884C317.86 31.4657 318.044 32.5151 317.738 33.1953C314.896 39.7355 312.18 46.2758 309.032 52.63C306.006 58.8622 301.992 64.4752 296.495 68.8557C291.864 72.495 286.739 73.5443 281.12 71.8787C276.611 70.5213 273.154 67.5593 269.942 64.3531C265.062 59.4174 261.174 53.8015 258.023 47.5722C256.539 44.7352 257.035 42.3284 259.629 40.4157C261.357 39.1193 263.15 37.8868 264.94 36.6514C269.571 33.4423 273.215 29.4949 275.561 24.3121C278.835 17.2167 277.167 8.45563 271.609 4.2001C265.928 -0.119378 259.442 -0.735616 252.712 0.682894C247.215 1.85433 242.77 4.94133 239.004 8.88874C235.731 12.281 232.95 16.1702 229.989 19.8095C229.741 20.1176 229.432 20.4258 229.187 20.7339C229.065 20.7339 228.939 20.6728 228.817 20.6118C228.817 18.266 228.878 15.9232 228.817 13.5774C228.756 10.6154 227.768 8.08647 225.421 6.11277C223.506 4.56926 221.285 3.89198 218.877 3.83094C212.765 3.70886 206.711 3.64491 200.66 3.52282C200.412 3.52282 200.103 3.46178 199.92 3.58386C199.488 3.89198 198.748 4.26114 198.748 4.69425C198.687 5.18841 199.118 5.86569 199.55 6.2988C199.92 6.60692 200.538 6.60692 201.033 6.73191C205.787 7.8423 209.431 12.2228 209.431 17.0975V73.3641C209.431 76.3261 208.011 78.2388 205.356 79.2881C203.936 79.8433 202.33 80.1514 200.785 80.5235C199.614 80.7706 199.241 81.6339 199.672 82.4362C199.92 82.9303 200.969 83.2995 201.648 83.2995C208.687 83.2384 215.73 83.0524 222.766 83.0524C227.15 83.0524 231.475 83.2384 235.856 83.3605C236.783 83.4216 237.585 83.1135 237.71 82.0031C237.832 80.8927 237.031 80.6456 236.165 80.4596C234.807 80.0904 233.326 79.7823 232.09 79.1631C229.683 77.9278 229.126 75.707 229.126 73.1781C229.187 61.0248 229.187 48.8076 229.126 36.6543C229.065 33.8173 229.312 31.1634 230.854 28.6956C231.411 27.7073 231.904 26.6608 232.522 25.7336C235.425 21.2309 238.943 17.3417 243.945 15.0598C247.218 13.6413 250.243 14.0715 252.899 16.3563C258.702 21.417 259.507 30.6693 254.505 36.5323C252.651 38.692 250.369 40.4797 248.145 42.3313C246.291 43.8748 244.256 45.1683 242.341 46.6508C238.946 49.3047 238.267 51.8336 240.426 55.5339C242.65 59.4203 245.119 63.1235 247.713 66.7628C253.024 74.1664 259.384 80.3375 267.598 84.407C267.907 84.593 268.216 84.9011 268.647 85.2092C267.785 85.8255 267.103 86.2586 266.423 86.6888C260.311 90.6362 255.618 95.819 252.406 102.359C248.331 110.626 247.282 119.387 248.084 128.456C248.702 135.613 250.491 142.4 254.196 148.629C259.877 158.193 268.4 163.931 279.205 165.349C285.256 166.213 291.68 166.338 297.792 164.98C305.327 163.253 312.489 160.722 318.665 155.85C320.393 154.431 321.382 152.766 321.32 150.423C321.134 144.438 321.073 138.392 321.011 132.407C320.95 129.137 322.431 126.73 325.334 125.311C326.074 125.003 327.001 125.003 327.68 124.573C328.176 124.265 328.607 123.524 328.607 122.968C328.607 122.599 327.806 121.919 327.31 121.858C325.952 121.736 324.532 121.858 323.174 121.919C317.925 122.044 312.675 122.288 307.428 122.288C302.182 122.288 297.055 121.98 291.867 121.794C290.817 121.733 289.829 121.916 289.829 123.274C289.768 124.509 290.756 124.57 291.683 124.878C293.782 125.555 295.883 126.05 297.734 127.099C299.897 128.331 301.503 130.308 301.503 133.084C301.564 140.735 301.503 148.385 301.564 156.036C301.564 157.271 301.071 157.888 300.019 158.443C294.77 161.097 288.41 159.431 284.209 156.161C279.269 152.275 276.121 147.153 274.022 141.354C269.883 130.064 268.895 118.527 270.997 106.743C271.924 101.252 273.9 96.13 277.482 91.7495C279.458 89.2816 281.93 87.6161 285.139 86.6917C288.721 85.6424 292.117 85.2732 295.699 86.1975C301.998 87.8021 306.936 91.5024 310.891 96.5021C312.681 98.7229 313.917 101.316 315.336 103.845C315.829 104.708 316.199 105.571 317.374 105.388C318.61 105.266 318.362 104.217 318.426 103.353V102.304C318.239 95.3946 317.995 88.4212 317.808 81.5118C317.747 81.3897 317.808 81.2037 317.747 81.0787C317.438 80.5846 317.068 79.8433 316.698 79.7823C316.202 79.7212 315.526 80.1514 315.091 80.5235C314.721 80.8927 314.66 81.4479 314.351 81.881C312.806 84.0407 310.646 83.6716 308.487 83.1164C305.091 82.3141 301.692 81.5729 298.297 80.7706C297.988 80.7095 297.617 80.4625 297.061 80.2154C308.918 68.6173 315.709 54.3654 321.268 39.3111C321.39 39.3111 321.577 39.3722 322.008 38.878C322.195 39.2472 322.44 39.6803 322.626 40.0495C324.48 43.6277 326.27 47.267 328.121 50.9092C331.889 58.2517 335.716 65.5943 339.421 72.9978C340.47 75.0326 340.161 76.268 338.308 77.6865C337.567 78.3027 336.702 78.7969 335.775 79.105C334.291 79.5992 332.749 79.7823 331.266 80.1544C329.969 80.4625 328.671 83.7936 329.537 84.843C329.785 85.1511 330.339 85.3371 330.834 85.4592C332.437 86.0144 334.107 86.3225 335.649 87.0027C337.564 87.8661 338.491 89.4095 338.491 91.5693C338.553 103.231 338.614 114.89 338.8 126.552C338.923 134.511 340.284 142.287 344.172 149.318C349.605 159.251 358.067 164.62 369.429 165.114C372.332 165.236 375.171 165.236 378.074 165.114C380.359 164.989 382.706 164.806 384.93 164.25C392.896 162.216 398.638 157.277 402.529 150.121C406.359 142.964 407.779 135.191 407.901 127.233C408.088 116.806 407.962 106.379 407.962 95.9527C407.962 90.4618 411.049 86.6975 416.482 85.6482C417.718 85.4011 418.584 84.9069 418.397 83.5495C418.211 82.192 417.039 82.192 415.99 82.378L415.978 82.3751Z"/>
</mask>
<path d="M415.978 82.3751C415.051 82.5612 414.372 82.4972 414.002 81.4508C413.815 80.9566 413.139 80.5875 412.643 80.4014C411.781 80.0933 410.79 79.9683 409.927 79.7241C406.962 78.9219 405.173 76.9482 405.173 74.4193V11.9787C405.173 10.3131 405.852 8.89456 407.271 8.15333C408.755 7.4121 410.419 6.91794 412.025 6.4267C413.075 6.11858 414.372 6.11858 414.311 4.63612C414.249 3.09262 412.827 3.27865 411.839 3.09262C411.655 3.03157 411.407 3.09262 411.221 3.09262C408.009 3.2147 404.736 3.46178 401.526 3.52573C397.017 3.58677 392.511 3.58677 388.002 3.52573C385.099 3.46469 382.134 3.33969 379.231 3.21761C378.368 3.21761 377.442 3.03157 376.637 3.21761C376.144 3.40364 375.34 4.14197 375.401 4.57508C375.462 5.19131 376.08 5.93254 376.637 6.17962C377.5 6.54878 378.613 6.54878 379.601 6.8569C383.184 7.90625 384.542 9.75787 384.542 13.4582V72.9949C384.542 76.4511 382.443 79.0411 379.048 79.7823C378.182 79.9683 377.319 80.0294 376.515 80.3985C376.022 80.6456 375.343 81.3868 375.404 81.756C375.527 82.3112 376.144 82.8053 376.701 83.1135C377.01 83.2995 377.628 83.1745 378.059 83.1745C381.394 83.1135 384.667 82.9885 387.941 82.9274C388.436 82.9274 389.424 83.3605 389.424 83.5437C389.238 85.5174 390.66 85.6424 391.957 85.9505C392.575 86.1365 393.254 86.2586 393.872 86.5057C397.95 87.9852 401.346 91.2554 401.22 96.5021C400.973 105.757 401.22 115.074 401.098 124.39C401.037 128.892 400.667 133.398 399.305 137.778C396.528 146.539 391.278 152.402 381.706 153.388C374.667 154.065 368.986 151.722 364.847 145.923C360.647 140.063 359.414 133.276 359.227 126.366C358.918 115.012 359.166 103.661 359.166 92.3105C359.166 89.4095 360.585 87.5608 363.305 86.6336C364.415 86.2644 365.529 86.1394 366.578 85.7092C367.135 85.4621 367.875 85.0319 368.123 84.4738C368.554 83.4245 369.172 83.1774 370.16 83.2384C370.778 83.2995 371.457 83.2384 372.137 83.2384C372.999 83.2384 373.99 83.1774 374.113 82.0031C374.235 80.7677 373.311 80.5846 372.323 80.3985C367.63 79.4102 364.109 76.8813 361.888 72.5618C359.111 67.193 356.33 61.8271 353.491 56.4583C347.07 44.18 340.645 31.9017 334.163 19.6264C332.125 15.74 330.149 11.8537 327.803 8.15042C325.456 4.38614 321.874 2.47347 317.307 2.47347C310.576 2.53451 303.846 2.47347 297.113 2.47347C296.682 2.47347 296.247 2.41243 295.877 2.53451C295.446 2.78159 294.828 3.08971 294.767 3.45887C294.641 3.89198 294.828 4.56926 295.137 4.93842C295.446 5.30759 296.064 5.43258 296.618 5.55466C301.31 6.66505 305.263 8.82479 307.732 13.1443C311.066 19.0043 314.339 24.8673 317.552 30.7884C317.86 31.4657 318.044 32.5151 317.738 33.1953C314.896 39.7355 312.18 46.2758 309.032 52.63C306.006 58.8622 301.992 64.4752 296.495 68.8557C291.864 72.495 286.739 73.5443 281.12 71.8787C276.611 70.5213 273.154 67.5593 269.942 64.3531C265.062 59.4174 261.174 53.8015 258.023 47.5722C256.539 44.7352 257.035 42.3284 259.629 40.4157C261.357 39.1193 263.15 37.8868 264.94 36.6514C269.571 33.4423 273.215 29.4949 275.561 24.3121C278.835 17.2167 277.167 8.45563 271.609 4.2001C265.928 -0.119378 259.442 -0.735616 252.712 0.682894C247.215 1.85433 242.77 4.94133 239.004 8.88874C235.731 12.281 232.95 16.1702 229.989 19.8095C229.741 20.1176 229.432 20.4258 229.187 20.7339C229.065 20.7339 228.939 20.6728 228.817 20.6118C228.817 18.266 228.878 15.9232 228.817 13.5774C228.756 10.6154 227.768 8.08647 225.421 6.11277C223.506 4.56926 221.285 3.89198 218.877 3.83094C212.765 3.70886 206.711 3.64491 200.66 3.52282C200.412 3.52282 200.103 3.46178 199.92 3.58386C199.488 3.89198 198.748 4.26114 198.748 4.69425C198.687 5.18841 199.118 5.86569 199.55 6.2988C199.92 6.60692 200.538 6.60692 201.033 6.73191C205.787 7.8423 209.431 12.2228 209.431 17.0975V73.3641C209.431 76.3261 208.011 78.2388 205.356 79.2881C203.936 79.8433 202.33 80.1514 200.785 80.5235C199.614 80.7706 199.241 81.6339 199.672 82.4362C199.92 82.9303 200.969 83.2995 201.648 83.2995C208.687 83.2384 215.73 83.0524 222.766 83.0524C227.15 83.0524 231.475 83.2384 235.856 83.3605C236.783 83.4216 237.585 83.1135 237.71 82.0031C237.832 80.8927 237.031 80.6456 236.165 80.4596C234.807 80.0904 233.326 79.7823 232.09 79.1631C229.683 77.9278 229.126 75.707 229.126 73.1781C229.187 61.0248 229.187 48.8076 229.126 36.6543C229.065 33.8173 229.312 31.1634 230.854 28.6956C231.411 27.7073 231.904 26.6608 232.522 25.7336C235.425 21.2309 238.943 17.3417 243.945 15.0598C247.218 13.6413 250.243 14.0715 252.899 16.3563C258.702 21.417 259.507 30.6693 254.505 36.5323C252.651 38.692 250.369 40.4797 248.145 42.3313C246.291 43.8748 244.256 45.1683 242.341 46.6508C238.946 49.3047 238.267 51.8336 240.426 55.5339C242.65 59.4203 245.119 63.1235 247.713 66.7628C253.024 74.1664 259.384 80.3375 267.598 84.407C267.907 84.593 268.216 84.9011 268.647 85.2092C267.785 85.8255 267.103 86.2586 266.423 86.6888C260.311 90.6362 255.618 95.819 252.406 102.359C248.331 110.626 247.282 119.387 248.084 128.456C248.702 135.613 250.491 142.4 254.196 148.629C259.877 158.193 268.4 163.931 279.205 165.349C285.256 166.213 291.68 166.338 297.792 164.98C305.327 163.253 312.489 160.722 318.665 155.85C320.393 154.431 321.382 152.766 321.32 150.423C321.134 144.438 321.073 138.392 321.011 132.407C320.95 129.137 322.431 126.73 325.334 125.311C326.074 125.003 327.001 125.003 327.68 124.573C328.176 124.265 328.607 123.524 328.607 122.968C328.607 122.599 327.806 121.919 327.31 121.858C325.952 121.736 324.532 121.858 323.174 121.919C317.925 122.044 312.675 122.288 307.428 122.288C302.182 122.288 297.055 121.98 291.867 121.794C290.817 121.733 289.829 121.916 289.829 123.274C289.768 124.509 290.756 124.57 291.683 124.878C293.782 125.555 295.883 126.05 297.734 127.099C299.897 128.331 301.503 130.308 301.503 133.084C301.564 140.735 301.503 148.385 301.564 156.036C301.564 157.271 301.071 157.888 300.019 158.443C294.77 161.097 288.41 159.431 284.209 156.161C279.269 152.275 276.121 147.153 274.022 141.354C269.883 130.064 268.895 118.527 270.997 106.743C271.924 101.252 273.9 96.13 277.482 91.7495C279.458 89.2816 281.93 87.6161 285.139 86.6917C288.721 85.6424 292.117 85.2732 295.699 86.1975C301.998 87.8021 306.936 91.5024 310.891 96.5021C312.681 98.7229 313.917 101.316 315.336 103.845C315.829 104.708 316.199 105.571 317.374 105.388C318.61 105.266 318.362 104.217 318.426 103.353V102.304C318.239 95.3946 317.995 88.4212 317.808 81.5118C317.747 81.3897 317.808 81.2037 317.747 81.0787C317.438 80.5846 317.068 79.8433 316.698 79.7823C316.202 79.7212 315.526 80.1514 315.091 80.5235C314.721 80.8927 314.66 81.4479 314.351 81.881C312.806 84.0407 310.646 83.6716 308.487 83.1164C305.091 82.3141 301.692 81.5729 298.297 80.7706C297.988 80.7095 297.617 80.4625 297.061 80.2154C308.918 68.6173 315.709 54.3654 321.268 39.3111C321.39 39.3111 321.577 39.3722 322.008 38.878C322.195 39.2472 322.44 39.6803 322.626 40.0495C324.48 43.6277 326.27 47.267 328.121 50.9092C331.889 58.2517 335.716 65.5943 339.421 72.9978C340.47 75.0326 340.161 76.268 338.308 77.6865C337.567 78.3027 336.702 78.7969 335.775 79.105C334.291 79.5992 332.749 79.7823 331.266 80.1544C329.969 80.4625 328.671 83.7936 329.537 84.843C329.785 85.1511 330.339 85.3371 330.834 85.4592C332.437 86.0144 334.107 86.3225 335.649 87.0027C337.564 87.8661 338.491 89.4095 338.491 91.5693C338.553 103.231 338.614 114.89 338.8 126.552C338.923 134.511 340.284 142.287 344.172 149.318C349.605 159.251 358.067 164.62 369.429 165.114C372.332 165.236 375.171 165.236 378.074 165.114C380.359 164.989 382.706 164.806 384.93 164.25C392.896 162.216 398.638 157.277 402.529 150.121C406.359 142.964 407.779 135.191 407.901 127.233C408.088 116.806 407.962 106.379 407.962 95.9527C407.962 90.4618 411.049 86.6975 416.482 85.6482C417.718 85.4011 418.584 84.9069 418.397 83.5495C418.211 82.192 417.039 82.192 415.99 82.378L415.978 82.3751Z" fill="#29100A" stroke="black" stroke-width="2" mask="url(#path-1-inside-1_4686_17843)"/>
<path d="M478.628 14.1182C474.109 11.2747 469.284 10.6877 464.465 12.9834C461.498 14.3627 459.067 16.1799 457.386 18.5518C455.701 20.9288 454.793 23.8319 454.824 27.3389C454.886 34.4083 454.824 41.4727 454.824 48.5508V71.918C454.824 73.3166 455.062 74.4221 455.723 75.252C456.384 76.0825 457.399 76.5472 458.745 76.834V76.835C463.784 77.9594 468.814 77.7683 473.827 76.6494L473.968 76.6182L473.973 76.6123C480.158 75.1532 485.063 71.7631 488.274 66.2646L488.273 66.2637C491.233 61.2614 492.55 55.7681 492.924 50.0576V50.0566C493.422 42.3602 492.297 34.9021 489.23 27.752C486.993 22.5323 484.085 17.7072 479.115 14.4307L478.628 14.1182ZM435.573 71.6729C435.389 53.4129 435.389 35.0891 435.573 16.8291L435.572 16.8281C435.637 11.9966 432.021 6.78553 426.615 5.81445C426.071 5.71279 425.649 5.65 425.353 5.47168C425.225 5.39461 425.142 5.30628 425.092 5.19434C425.04 5.07783 425.002 4.89112 425.04 4.58691V4.58398C425.079 4.26218 425.166 4.07007 425.254 3.95117C425.34 3.83614 425.453 3.75754 425.605 3.7002C425.765 3.63983 425.963 3.60566 426.206 3.58594C426.461 3.56531 426.679 3.56397 426.968 3.54785H444.738C445.563 3.54787 446.395 3.66641 447.27 3.78906V3.78809C449.306 4.08531 451.052 4.79271 452.33 6.04102C453.603 7.28366 454.463 9.11134 454.642 11.751L454.643 11.7666L454.645 11.7822C454.683 12.078 454.774 12.3774 454.86 12.6406C454.951 12.9202 455.034 13.1529 455.091 13.3779L455.125 13.5127L455.223 13.6094C455.393 13.778 455.646 13.948 455.912 14.0361L456.32 14.1709L456.515 13.7881C456.614 13.5937 456.703 13.3808 456.779 13.2178C456.858 13.0444 456.938 12.8891 457.038 12.7393C461.731 6.57398 467.938 2.70987 475.429 1.19824C481.755 -0.0773522 487.597 0.397469 492.755 2.59668C497.914 4.79594 502.424 8.73507 506.063 14.4443C510.274 21.0467 511.87 28.4541 512.177 36.2705C512.483 44.5538 510.888 52.4064 507.392 59.8984L507.391 59.8994C504.887 65.2986 501.279 69.8541 496.627 73.6826C492.564 76.983 488.294 79.7634 483.193 81.0889L482.819 81.1855V81.5723C482.819 81.6405 482.827 81.7042 482.834 81.752C482.842 81.8007 482.851 81.8501 482.859 81.8867C482.867 81.9275 482.872 81.9557 482.876 81.9805C482.88 82.006 482.88 82.0111 482.88 82.0039V82.4521L483.326 82.501C484.408 82.6189 485.636 82.8105 486.787 82.8105H486.791C490.696 82.7801 494.584 82.7187 498.47 82.6572C502.356 82.5957 506.24 82.5333 510.14 82.5029C510.429 82.5027 510.779 82.4749 511.046 82.4639C511.342 82.4516 511.591 82.4561 511.798 82.5C511.997 82.5421 512.125 82.6139 512.213 82.7168C512.302 82.821 512.397 83.0122 512.424 83.3789C512.436 83.701 512.373 83.8874 512.299 84.0029C512.224 84.1192 512.107 84.2149 511.92 84.2959C511.728 84.3796 511.488 84.4368 511.198 84.4893C511.066 84.5131 510.912 84.5372 510.753 84.5635L510.282 84.6494C507.87 85.1473 506.071 85.8654 504.895 87.1182C503.777 88.3085 503.288 89.9067 503.257 92.0312V92.4639C503.318 112.632 503.257 132.86 503.257 153.031C503.257 153.607 503.26 154.09 503.307 154.471C503.354 154.848 503.453 155.22 503.721 155.5C503.995 155.786 504.363 155.891 504.747 155.933C505.128 155.974 505.611 155.96 506.193 155.93L506.194 155.931C511.699 155.688 517.432 155.991 522.87 154.875C531.693 153.109 537.147 147.167 539.481 138.59L539.48 138.589C539.575 138.269 539.641 137.873 539.696 137.64C539.761 137.358 539.832 137.182 539.934 137.063L539.959 137.034L539.98 137.002C540.091 136.825 540.317 136.594 540.563 136.423C540.683 136.339 540.789 136.282 540.867 136.254C540.889 136.246 540.905 136.243 540.916 136.24C541.069 136.296 541.252 136.432 541.44 136.65C541.582 136.816 541.708 137.007 541.807 137.192L541.897 137.375C541.977 137.556 542.007 137.779 542 138.059C541.993 138.349 541.951 138.629 541.917 138.968L541.915 138.98V138.993C541.73 142.838 541.731 146.665 541.239 150.451L541.238 150.455C540.842 153.689 539.922 156.071 538.267 157.736C536.716 159.296 534.459 160.288 531.201 160.705L530.538 160.78C521.717 161.637 512.887 161.516 504.033 161.271H504.034C495.229 160.963 486.476 161.148 477.696 161.148H475.732C475.241 161.118 474.871 161.058 474.62 160.915C474.422 160.802 474.256 160.615 474.231 160.161C474.233 159.701 474.374 159.434 474.574 159.254C474.797 159.054 475.153 158.907 475.669 158.821L475.679 158.82L475.689 158.818C477.182 158.51 478.762 158.133 480.227 157.564L480.233 157.562C481.459 157.067 482.387 156.328 482.993 155.347C483.523 154.491 483.789 153.482 483.825 152.351L483.827 151.858C483.766 142.206 483.766 132.497 483.827 122.848C483.889 115.669 484.075 108.513 484.075 101.32C484.075 97.8029 483.891 94.3435 483.766 90.8496C483.699 88.7838 482.744 87.0598 480.813 86.1699L480.811 86.1689L480.519 86.041C479.834 85.752 479.134 85.5319 478.447 85.3291C477.85 85.1533 477.269 84.9922 476.697 84.8086L476.126 84.6152C475.575 84.3936 475.098 84.0186 474.499 83.624L474.49 83.6182L474.479 83.6113C474.188 83.4387 473.959 83.2382 473.615 82.9951C473.312 82.7816 472.926 82.5431 472.477 82.499L472.455 82.4971C470.206 82.3745 467.959 82.4355 465.8 82.4961C465.502 82.4961 465.126 82.5509 464.789 82.6592C464.62 82.7137 464.445 82.7868 464.289 82.8848C464.14 82.979 463.975 83.1177 463.872 83.3164C463.321 84.3595 462.43 84.46 461.118 84.7207L461.107 84.7236C459.708 85.0384 458.23 85.5457 456.934 86.3184C455.086 87.4065 454.276 89.123 454.276 91.2383V152.119C454.276 155.784 457.099 158.681 460.917 159.072V159.07C461.189 159.106 461.506 159.073 461.651 159.068C461.832 159.062 461.881 159.084 461.892 159.09C462.297 159.45 462.664 159.875 463.052 160.318C463.031 160.34 463.009 160.36 462.989 160.381C462.842 160.529 462.727 160.653 462.601 160.774C462.478 160.892 462.378 160.976 462.29 161.029C462.204 161.082 462.159 161.088 462.142 161.088H462.129L462.116 161.089C459.717 161.21 457.345 161.088 454.895 161.088H434.022C432.78 161.088 431.538 161.103 430.3 161.118C429.061 161.133 427.825 161.148 426.591 161.148C426.168 161.148 425.867 161.076 425.677 160.949C425.519 160.844 425.382 160.664 425.357 160.282C425.36 159.893 425.482 159.667 425.659 159.505C425.861 159.321 426.179 159.178 426.641 159.062C427.946 158.766 429.388 158.566 430.733 158.058L430.748 158.052C431.997 157.531 432.981 156.783 433.65 155.787C434.318 154.79 434.648 153.581 434.648 152.18V91.1748C434.648 89.752 434.245 88.5966 433.521 87.6641C432.803 86.7397 431.794 86.0656 430.632 85.5527L430.624 85.5488L430.615 85.5459L430.127 85.3643C428.983 84.9686 427.801 84.7545 426.597 84.5908H426.596C426.083 84.504 425.787 84.3727 425.61 84.2061C425.446 84.0523 425.321 83.8079 425.295 83.3369L425.294 83.3301C425.248 82.6387 425.231 82.1317 425.266 81.7412C425.3 81.3561 425.381 81.1308 425.494 80.9736C425.607 80.818 425.79 80.6743 426.136 80.5303C426.4 80.4203 426.736 80.3191 427.167 80.2109L427.632 80.0996C428.238 79.9778 428.885 79.8507 429.473 79.6553L429.483 79.6523L429.491 79.6494C431.282 78.9739 432.831 78.2927 433.911 77.1016C435.014 75.8864 435.573 74.2105 435.573 71.6777V71.6729Z" fill="#29100A" stroke="black"/>
<path d="M597.609 81.7061C603.833 81.0096 609.303 81.8923 614.007 84.2754C618.713 86.6591 622.688 90.5623 625.893 95.9639V95.9629C629.309 101.736 630.825 108.121 631.323 114.9L631.321 114.906L631.332 115.045C631.878 121.859 631.09 128.489 629.028 134.941H629.027C626.846 141.805 623.218 147.756 618.014 152.795C610.94 159.591 602.673 163.161 592.895 163.221H592.89C589.059 163.282 585.253 163.526 581.464 163.466H581.465C578.228 163.374 574.974 163.205 571.713 163.044C568.454 162.883 565.188 162.728 561.936 162.666H561.937C556.914 162.545 551.786 162.851 546.804 162.911C546.671 162.911 546.434 162.832 546.185 162.661C545.939 162.492 545.791 162.308 545.748 162.199C545.651 161.9 545.717 161.704 545.839 161.563C545.98 161.399 546.248 161.255 546.622 161.203C547.075 161.147 547.693 161.081 548.195 160.872C549.591 160.383 551.093 159.881 552.476 159.188L552.475 159.187C553.633 158.62 554.464 157.812 554.99 156.815C555.513 155.824 555.721 154.677 555.69 153.449H555.691C555.631 149.522 555.691 145.604 555.691 141.661V98.5352C555.691 95.2926 554.905 92.6226 553.278 90.5908C551.65 88.5581 549.224 87.221 546.05 86.5586L546.041 86.5566L545.886 86.5234C545.547 86.4404 545.345 86.3196 545.228 86.1865C545.104 86.0451 545.014 85.8209 545.039 85.4189V85.415C545.062 84.9962 545.21 84.8004 545.386 84.6855C545.595 84.5492 545.923 84.4756 546.376 84.4756H561.067C563.017 84.4756 564.89 84.5357 566.821 84.7773C569.319 85.106 571.111 85.9041 572.346 87.1865C573.583 88.4703 574.321 90.3014 574.589 92.8145L574.596 92.876L574.618 92.9346C574.773 93.3525 574.834 93.7805 574.894 94.6377L574.975 95.7891L575.759 94.9434C577.422 93.1492 578.754 91.6309 580.214 90.1641C585.033 85.3307 590.926 82.4928 597.609 81.7061ZM601.389 97.3125C596.042 92.1361 589.126 90.9737 582.672 94.7217L582.671 94.7227C577.705 97.6257 574.711 102.017 574.711 108.057V123.609H575.016V153.027C575.016 154.362 575.325 155.461 576.032 156.287C576.737 157.112 577.78 157.593 579.102 157.82V157.821C583.374 158.566 587.602 158.694 591.899 157.818L591.898 157.817C597.664 156.697 602.816 154.317 606.404 149.39L606.5 149.258V149.25C611.37 142.436 612.723 134.661 612.635 126.585L612.622 125.798C612.568 123.183 612.228 120.57 611.689 118.006L611.446 116.91C609.893 109.776 607.17 103.172 601.907 97.8262L601.389 97.3125Z" fill="#29100A" stroke="black"/>
<path d="M168.539 153.708L137.366 122.972C147.486 111.094 153.579 95.7769 153.579 79.0524V79.0247H141.413V79.0524C141.413 88.8499 138.874 98.0628 134.416 106.087L107.012 79.0663L150.369 36.3159L160.392 3.95587L127.617 13.8753L84.2598 56.6257L40.9026 13.8808L8.12511 3.95587L18.145 36.3131L61.5023 79.0635L34.0986 106.084C29.6372 98.0573 27.0986 88.8499 27.0986 79.0497V79.022H14.9319V79.0497C14.9319 95.7824 21.0335 111.108 31.157 122.983L0 153.708L8.60371 162.193L39.7747 131.459C51.2864 140.957 65.9721 146.848 82.0347 147.35V135.352C72.9384 135.011 64.3879 132.567 56.8618 128.514L84.2542 101.504L111.647 128.514C104.123 132.567 95.5729 135.011 86.4765 135.352V147.35C102.548 146.851 117.236 140.955 128.748 131.448L159.927 162.193L168.534 153.708H168.536H168.539ZM130.45 18.5219L146.91 13.54L93.734 65.9716L88.0327 60.3496L130.452 18.5219H130.45ZM65.2471 82.8096L70.9316 88.451L41.9942 116.982C40.1693 115.009 38.49 112.909 36.9618 110.695L65.2471 82.8069V82.8096ZM22.8555 33.5257L17.8092 17.2307L122.747 120.7C120.732 122.509 118.588 124.177 116.326 125.693L22.8555 33.5257Z" fill="#29100A"/>
</svg>
