<svg width="169" height="159" viewBox="0 0 169 159" fill="none" xmlns="http://www.w3.org/2000/svg">
<path d="M168.539 149.753L137.366 119.016C147.486 107.138 153.579 91.821 153.579 75.0966V75.0689H141.413V75.0966C141.413 84.8941 138.874 94.1069 134.416 102.131L107.012 75.1104L150.369 32.36L160.392 0L127.617 9.91941L84.26 52.6698L40.9027 9.92495L8.12523 0L18.1452 32.3572L61.5024 75.1077L34.0987 102.128C29.6373 94.1014 27.0987 84.8941 27.0987 75.0938V75.0661H14.9321V75.0938C14.9321 91.8266 21.0336 107.152 31.1571 119.027L0.00012207 149.753L8.60383 158.237L39.7748 127.503C51.2865 137.001 65.9722 142.892 82.0349 143.394V131.396C72.9386 131.055 64.388 128.612 56.8619 124.558L84.2544 97.5482L111.647 124.558C104.124 128.612 95.573 131.055 86.4767 131.396V143.394C102.548 142.895 117.236 136.999 128.748 127.492L159.927 158.237L168.534 149.753H168.537H168.539ZM130.45 14.566L146.91 9.58414L93.7341 62.0157L88.0328 56.3938L130.452 14.566H130.45ZM65.2473 78.8538L70.9318 84.4951L41.9943 113.026C40.1694 111.053 38.4901 108.953 36.9619 106.739L65.2473 78.851V78.8538ZM22.8557 29.5698L17.8093 13.2748L122.747 116.744C120.732 118.554 118.588 120.222 116.327 121.737L22.8557 29.5698Z" fill="#29100A"/>
</svg>
