<svg width="72" height="16" viewBox="0 0 72 16" fill="none" xmlns="http://www.w3.org/2000/svg">
<path d="M16.2172 5.83872V7.53184H0V5.83872H16.2172ZM11.6205 0H14.433V10.2972C14.433 11.426 14.1709 12.4188 13.6467 13.2756C13.1225 14.1324 12.3891 14.802 11.4466 15.2843C10.504 15.7614 9.40273 16 8.14265 16C6.88257 16 5.78124 15.7614 4.83872 15.2843C3.89617 14.802 3.16281 14.1324 2.63861 13.2756C2.11946 12.4188 1.85988 11.426 1.85988 10.2972V0H4.66481V10.0587C4.66481 10.7154 4.80596 11.3003 5.08822 11.8134C5.37551 12.3264 5.77875 12.7292 6.2979 13.0216C6.82208 13.309 7.43701 13.4526 8.14265 13.4526C8.85335 13.4526 9.46824 13.309 9.98739 13.0216C10.5116 12.7292 10.9148 12.3264 11.1971 11.8134C11.4793 11.3003 11.6205 10.7154 11.6205 10.0587V0Z" fill="#F9F7E7"/>
<path d="M20.7018 8.83494V15.7614H17.9648V3.9403H20.5808V5.94894H20.7169C20.984 5.2871 21.4099 4.76122 21.9946 4.37126C22.5843 3.98134 23.3127 3.78638 24.1796 3.78638C24.981 3.78638 25.6791 3.96082 26.2738 4.3097C26.8737 4.65858 27.3373 5.16398 27.665 5.82582C27.9976 6.48766 28.1614 7.29062 28.1564 8.23466V15.7614H25.4195V8.66566C25.4195 7.87554 25.2179 7.25726 24.8147 6.8109C24.4165 6.36454 23.8646 6.14134 23.1589 6.14134C22.6801 6.14134 22.2542 6.2491 21.8812 6.46458C21.5133 6.67494 21.2234 6.98022 21.0117 7.38042C20.8051 7.78062 20.7018 8.26546 20.7018 8.83494Z" fill="#F9F7E7"/>
<path d="M33.4527 0V15.7614H30.7158V0H33.4527Z" fill="#F9F7E7"/>
<path d="M41.1104 15.9923C39.9762 15.9923 38.9935 15.7383 38.1618 15.2303C37.3302 14.7224 36.685 14.0118 36.2264 13.0985C35.7727 12.1853 35.5459 11.1181 35.5459 9.89702C35.5459 8.6759 35.7727 7.60618 36.2264 6.68778C36.685 5.76938 37.3302 5.05622 38.1618 4.5483C38.9935 4.04034 39.9762 3.78638 41.1104 3.78638C42.2446 3.78638 43.2273 4.04034 44.0592 4.5483C44.8908 5.05622 45.5333 5.76938 45.987 6.68778C46.4455 7.60618 46.675 8.6759 46.675 9.89702C46.675 11.1181 46.4455 12.1853 45.987 13.0985C45.5333 14.0118 44.8908 14.7224 44.0592 15.2303C43.2273 15.7383 42.2446 15.9923 41.1104 15.9923ZM41.1254 13.7604C41.7406 13.7604 42.2545 13.5885 42.6679 13.2448C43.0813 12.8959 43.3887 12.429 43.5904 11.8441C43.7969 11.2592 43.9002 10.6076 43.9002 9.8893C43.9002 9.1659 43.7969 8.51174 43.5904 7.92682C43.3887 7.33682 43.0813 6.86734 42.6679 6.51846C42.2545 6.16958 41.7406 5.99514 41.1254 5.99514C40.4956 5.99514 39.9714 6.16958 39.553 6.51846C39.1397 6.86734 38.8297 7.33682 38.623 7.92682C38.4214 8.51174 38.3206 9.1659 38.3206 9.8893C38.3206 10.6076 38.4214 11.2592 38.623 11.8441C38.8297 12.429 39.1397 12.8959 39.553 13.2448C39.9714 13.5885 40.4956 13.7604 41.1254 13.7604Z" fill="#F9F7E7"/>
<path d="M53.8409 15.9923C52.6818 15.9923 51.6861 15.7331 50.8545 15.2149C50.0281 14.6967 49.3904 13.981 48.9418 13.0678C48.4983 12.1494 48.2764 11.0925 48.2764 9.89702C48.2764 8.69642 48.503 7.63694 48.9568 6.71854C49.4106 5.79502 50.0507 5.07674 50.8771 4.56366C51.709 4.04546 52.6917 3.78638 53.8259 3.78638C54.7682 3.78638 55.6026 3.96338 56.3285 4.31742C57.0592 4.6663 57.6415 5.16138 58.0747 5.80274C58.5083 6.43894 58.7551 7.1829 58.8157 8.03458H56.1999C56.0939 7.46506 55.8419 6.9905 55.4439 6.61082C55.0507 6.22602 54.5238 6.03362 53.8635 6.03362C53.3041 6.03362 52.8128 6.18754 52.3895 6.49538C51.9658 6.7981 51.6358 7.23418 51.3989 7.8037C51.167 8.37318 51.0511 9.05558 51.0511 9.85082C51.0511 10.6563 51.167 11.349 51.3989 11.9287C51.6307 12.5034 51.9559 12.9472 52.374 13.2602C52.7977 13.568 53.2942 13.7219 53.8635 13.7219C54.267 13.7219 54.6274 13.645 54.9447 13.4911C55.2675 13.332 55.5369 13.1037 55.7537 12.8061C55.9705 12.5085 56.1192 12.1468 56.1999 11.721H58.8157C58.7504 12.5573 58.5083 13.2987 58.0901 13.9451C57.6716 14.5865 57.1019 15.0893 56.3811 15.4535C55.6603 15.8127 54.8137 15.9923 53.8409 15.9923Z" fill="#F9F7E7"/>
<path d="M63.1207 12.052L63.1131 8.6888H63.5519L67.7251 3.94036H70.9232L65.7894 9.75852H65.2225L63.1207 12.052ZM60.626 15.7614V0H63.3628V15.7614H60.626ZM67.9142 15.7614L64.1338 10.3819L65.9785 8.41944L71.1878 15.7614H67.9142Z" fill="#F9F7E7"/>
</svg>
