<svg width="589" height="166" viewBox="0 0 589 166" fill="none" xmlns="http://www.w3.org/2000/svg">
<path d="M372.978 82.3015C372.051 82.4873 371.372 82.4234 371.001 81.3779C370.815 80.8842 370.139 80.5154 369.643 80.3295C368.78 80.0217 367.789 79.8968 366.927 79.6529C363.962 78.8513 362.173 76.8794 362.173 74.3527V11.9679C362.173 10.3038 362.852 8.8866 364.271 8.14604C365.755 7.40547 367.419 6.91176 369.025 6.42095C370.074 6.11311 371.372 6.11311 371.31 4.63197C371.249 3.08985 369.827 3.27572 368.839 3.08985C368.655 3.02886 368.407 3.08985 368.221 3.08985C365.009 3.21183 361.735 3.45868 358.526 3.52257C354.017 3.58356 349.511 3.58356 345.002 3.52257C342.098 3.46159 339.134 3.33671 336.231 3.21473C335.368 3.21473 334.441 3.02886 333.637 3.21473C333.144 3.4006 332.34 4.13826 332.401 4.57099C332.462 5.18667 333.08 5.92724 333.637 6.1741C334.5 6.54293 335.613 6.54293 336.601 6.85077C340.183 7.89918 341.542 9.74914 341.542 13.4462V72.9297C341.542 76.3827 339.443 78.9704 336.047 79.7109C335.182 79.8968 334.319 79.9578 333.514 80.3266C333.022 80.5735 332.343 81.314 332.404 81.6829C332.526 82.2376 333.144 82.7313 333.701 83.0391C334.01 83.225 334.628 83.1001 335.059 83.1001C338.394 83.0391 341.667 82.9143 344.94 82.8533C345.436 82.8533 346.424 83.286 346.424 83.469C346.237 85.4409 347.66 85.5658 348.957 85.8736C349.575 86.0595 350.254 86.1815 350.872 86.4283C354.95 87.9065 358.345 91.1738 358.22 96.4158C357.972 105.663 358.22 114.971 358.098 124.279C358.036 128.777 357.666 133.279 356.305 137.655C353.527 146.408 348.278 152.266 338.706 153.251C331.666 153.927 325.986 151.587 321.847 145.793C317.646 139.938 316.413 133.157 316.227 126.253C315.918 114.91 316.166 103.569 316.166 92.228C316.166 89.3296 317.585 87.4825 320.305 86.5561C321.415 86.1873 322.529 86.0624 323.578 85.6326C324.135 85.3857 324.875 84.9559 325.123 84.3983C325.554 83.3499 326.172 83.103 327.16 83.164C327.778 83.225 328.457 83.164 329.136 83.164C329.999 83.164 330.99 83.103 331.113 81.9297C331.235 80.6955 330.311 80.5125 329.323 80.3266C324.63 79.3392 321.109 76.8126 318.888 72.4969C316.11 67.1329 313.33 61.7718 310.491 56.4078C304.069 44.1405 297.645 31.8732 291.163 19.6088C289.125 15.726 287.149 11.8431 284.803 8.14313C282.456 4.38221 278.874 2.47126 274.307 2.47126C267.576 2.53225 260.846 2.47126 254.113 2.47126C253.682 2.47126 253.247 2.41027 252.877 2.53225C252.446 2.7791 251.828 3.08695 251.767 3.45578C251.641 3.8885 251.828 4.56518 252.137 4.93401C252.446 5.30284 253.064 5.42772 253.617 5.5497C258.31 6.65909 262.263 8.8169 264.732 13.1325C268.066 18.9874 271.339 24.8451 274.551 30.7609C274.86 31.4376 275.044 32.486 274.738 33.1656C271.896 39.7 269.179 46.2344 266.031 52.583C263.006 58.8095 258.992 64.4175 253.495 68.7941C248.863 72.4302 243.739 73.4786 238.12 71.8145C233.61 70.4582 230.153 67.4988 226.941 64.2955C222.062 59.3642 218.174 53.7533 215.023 47.5297C213.539 44.6952 214.035 42.2905 216.629 40.3796C218.357 39.0843 220.15 37.8529 221.94 36.6187C226.571 33.4124 230.215 29.4686 232.561 24.2904C235.834 17.2013 234.167 8.44807 228.609 4.19635C222.928 -0.119271 216.442 -0.734959 209.712 0.682283C204.215 1.85267 199.77 4.93691 196.004 8.88079C192.731 12.27 189.95 16.1558 186.989 19.7918C186.741 20.0997 186.432 20.4075 186.187 20.7153C186.065 20.7153 185.939 20.6544 185.817 20.5934C185.817 18.2497 185.878 15.9089 185.817 13.5652C185.756 10.6059 184.767 8.07924 182.421 6.1073C180.506 4.56518 178.285 3.8885 175.877 3.82751C169.765 3.70554 163.711 3.64165 157.66 3.51967C157.412 3.51967 157.103 3.45868 156.92 3.58066C156.488 3.8885 155.748 4.25733 155.748 4.69006C155.687 5.18377 156.118 5.86044 156.55 6.29317C156.92 6.60101 157.538 6.60101 158.033 6.72589C162.787 7.83529 166.431 12.2119 166.431 17.0822V73.2985C166.431 76.2579 165.011 78.1688 162.356 79.2172C160.936 79.7719 159.33 80.0798 157.785 80.4515C156.614 80.6984 156.241 81.5609 156.672 82.3624C156.92 82.8562 157.969 83.225 158.648 83.225C165.687 83.164 172.729 82.9781 179.766 82.9781C184.15 82.9781 188.475 83.164 192.856 83.286C193.783 83.347 194.584 83.0391 194.71 81.9297C194.832 80.8203 194.031 80.5735 193.165 80.3876C191.807 80.0188 190.326 79.7109 189.09 79.0923C186.683 77.8581 186.126 75.6393 186.126 73.1126C186.187 60.9702 186.187 48.764 186.126 36.6216C186.065 33.7871 186.312 31.1356 187.854 28.6699C188.411 27.6825 188.904 26.637 189.521 25.7105C192.425 21.212 195.943 17.3262 200.945 15.0464C204.218 13.6291 207.243 14.059 209.899 16.3416C215.702 21.3978 216.507 30.6418 211.505 36.4996C209.651 38.6574 207.369 40.4435 205.145 42.2934C203.291 43.8356 201.256 45.1279 199.341 46.6091C195.946 49.2606 195.267 51.7872 197.426 55.4842C199.65 59.3671 202.119 63.0671 204.713 66.7031C210.024 74.1001 216.384 80.2656 224.598 84.3315C224.907 84.5174 225.216 84.8252 225.647 85.133C224.784 85.7487 224.102 86.1815 223.423 86.6113C217.311 90.5552 212.618 95.7333 209.406 102.268C205.331 110.527 204.282 119.28 205.083 128.341C205.701 135.492 207.491 142.273 211.196 148.497C216.877 158.051 225.399 163.784 236.205 165.201C242.256 166.064 248.68 166.189 254.792 164.833C262.327 163.107 269.488 160.578 275.665 155.711C277.393 154.293 278.381 152.629 278.32 150.288C278.134 144.309 278.072 138.268 278.011 132.288C277.95 129.021 279.431 126.616 282.334 125.199C283.074 124.891 284.001 124.891 284.68 124.462C285.176 124.154 285.607 123.413 285.607 122.858C285.607 122.49 284.806 121.81 284.31 121.749C282.952 121.627 281.532 121.749 280.174 121.81C274.924 121.935 269.675 122.179 264.428 122.179C259.182 122.179 254.055 121.871 248.866 121.685C247.817 121.624 246.829 121.807 246.829 123.163C246.768 124.398 247.756 124.459 248.683 124.766C250.781 125.443 252.883 125.937 254.734 126.985C256.897 128.217 258.503 130.191 258.503 132.965C258.564 140.609 258.503 148.253 258.564 155.896C258.564 157.131 258.071 157.746 257.019 158.301C251.769 160.953 245.409 159.288 241.209 156.021C236.269 152.138 233.121 147.021 231.022 141.227C226.883 129.948 225.895 118.421 227.997 106.647C228.923 101.161 230.9 96.0441 234.482 91.6675C236.458 89.2018 238.93 87.5377 242.139 86.6142C245.721 85.5658 249.117 85.1969 252.699 86.1205C258.998 87.7236 263.936 91.4206 267.891 96.4158C269.681 98.6346 270.917 101.225 272.336 103.752C272.829 104.614 273.199 105.477 274.374 105.294C275.609 105.172 275.362 104.124 275.426 103.261V102.213C275.239 95.3093 274.994 88.3422 274.808 81.4389C274.747 81.317 274.808 81.1311 274.747 81.0062C274.438 80.5125 274.068 79.7719 273.697 79.7109C273.202 79.6499 272.526 80.0798 272.091 80.4515C271.721 80.8203 271.66 81.375 271.351 81.8078C269.806 83.9656 267.646 83.5967 265.486 83.042C262.091 82.2405 258.692 81.4999 255.296 80.6984C254.987 80.6374 254.617 80.3905 254.061 80.1437C265.918 68.556 272.709 54.3168 278.268 39.276C278.39 39.276 278.577 39.337 279.008 38.8433C279.195 39.2121 279.439 39.6448 279.626 40.0136C281.48 43.5887 283.269 47.2247 285.12 50.8637C288.889 58.1996 292.716 65.5356 296.421 72.9326C297.47 74.9655 297.161 76.1998 295.308 77.617C294.567 78.2327 293.701 78.7264 292.775 79.0343C291.291 79.528 289.749 79.7109 288.265 80.0827C286.968 80.3905 285.671 83.7187 286.537 84.7671C286.785 85.075 287.339 85.2608 287.834 85.3828C289.437 85.9375 291.107 86.2454 292.649 86.9249C294.564 87.7875 295.491 89.3296 295.491 91.4874C295.552 103.139 295.614 114.788 295.8 126.439C295.923 134.391 297.284 142.16 301.172 149.185C306.605 159.108 315.067 164.472 326.429 164.966C329.332 165.088 332.171 165.088 335.074 164.966C337.359 164.841 339.705 164.658 341.929 164.104C349.895 162.071 355.638 157.136 359.529 149.986C363.359 142.836 364.778 135.07 364.901 127.119C365.087 116.702 364.962 106.284 364.962 95.8669C364.962 90.3809 368.049 86.62 373.482 85.5716C374.718 85.3247 375.583 84.831 375.397 83.4748C375.21 82.1185 374.039 82.1185 372.989 82.3044L372.978 82.3015Z" fill="#29100A"/>
<path d="M498.042 135.63C497.671 135.506 496.865 136.122 496.556 136.614C496.185 137.042 496.185 137.719 495.998 138.335C493.706 146.751 488.38 152.527 479.77 154.248C474.383 155.352 468.745 155.046 463.171 155.292C460.818 155.413 460.757 155.231 460.757 152.894C460.757 132.741 460.818 112.527 460.757 92.3742C460.695 87.8276 462.614 86.046 467.384 85.0626C468.561 84.8168 469.986 84.8775 469.925 83.281C469.799 81.4994 468.252 81.9303 467.136 81.9303C459.332 81.991 451.592 82.1761 443.787 82.2369C442.672 82.2369 441.495 82.0518 440.38 81.9303C440.38 81.8088 440.319 81.6237 440.319 81.4994C445.521 80.1487 449.857 77.3201 453.945 74.0027C458.652 70.1329 462.307 65.5227 464.844 60.0564C468.374 52.499 469.986 44.5743 469.676 36.2186C469.367 28.3546 467.758 20.858 463.484 14.1625C456.114 2.61088 445.151 -1.87497 432.33 0.707794C424.712 2.24357 418.394 6.177 413.626 12.4445C413.378 12.8118 413.255 13.182 413.069 13.5493C412.885 13.4886 412.698 13.3642 412.575 13.2427C412.45 12.751 412.204 12.1986 412.14 11.7069C411.769 6.23774 408.549 3.90371 404.339 3.29056C403.471 3.16908 402.604 3.04472 401.737 3.04472H383.962C382.908 3.10545 381.731 2.98398 381.544 4.51975C381.357 5.99479 382.537 6.11627 383.527 6.30137C388.668 7.22399 392.137 12.1986 392.073 16.8088C391.889 35.0559 391.889 53.3666 392.073 71.6137C392.073 76.5276 389.906 77.7568 386.315 79.1104C385.757 79.2955 385.138 79.417 384.519 79.5413C381.856 80.1545 381.608 80.5247 381.795 83.2897C381.856 84.3945 382.414 84.8254 383.53 85.0105C384.893 85.1956 386.192 85.4415 387.43 85.9332C389.661 86.9165 391.147 88.4523 391.147 91.0929V152.044C391.147 154.684 389.909 156.469 387.556 157.449C386.254 157.941 384.893 158.123 383.53 158.433C382.54 158.679 381.857 159.109 381.857 160.154C381.918 161.198 382.662 161.504 383.591 161.504C386.067 161.504 388.546 161.444 391.022 161.444H411.895C414.309 161.444 416.727 161.565 419.142 161.444C419.699 161.444 420.196 160.645 420.753 160.214C420.257 159.662 419.761 159.046 419.206 158.557C418.896 158.311 418.4 158.496 417.968 158.433C414.377 158.065 411.775 155.361 411.775 151.983V91.1565C411.775 89.1898 412.517 87.654 414.19 86.6707C415.428 85.9332 416.853 85.4415 418.216 85.1349C419.454 84.8891 420.631 84.7676 421.314 83.4748C421.501 83.1074 422.307 82.9223 422.8 82.9223C424.966 82.8616 427.197 82.8009 429.428 82.9223C430.047 82.9831 430.605 83.5991 431.224 83.9664C431.781 84.3338 432.336 84.7647 432.958 85.0105C434.508 85.563 436.117 85.8695 437.603 86.5463C439.337 87.3446 440.205 88.8803 440.266 90.7863C440.391 94.2888 440.575 97.7277 440.575 101.23C440.575 108.417 440.389 115.547 440.327 122.734C440.266 132.379 440.266 142.086 440.327 151.734C440.389 154.253 439.335 156.035 437.045 156.958C435.621 157.51 434.073 157.88 432.587 158.187C431.472 158.372 430.73 158.861 430.73 160.029C430.791 161.258 431.72 161.444 432.713 161.504H434.695C443.489 161.504 452.222 161.319 461.017 161.626C469.872 161.872 478.731 161.993 487.586 161.134C494.956 160.397 497.928 156.958 498.734 150.381C499.23 146.572 499.23 142.702 499.414 138.893C499.475 138.277 499.601 137.603 499.353 137.048C499.105 136.495 498.611 135.818 498.053 135.636L498.042 135.63ZM430.718 76.0938C425.764 77.1986 420.809 77.3837 415.854 76.2789C413.252 75.7265 412.324 74.558 412.324 71.8538V48.5077C412.324 41.442 412.385 34.3763 412.324 27.3105C412.263 20.4907 415.854 16.1292 421.676 13.4249C426.321 11.2124 430.967 11.7648 435.364 14.5298C440.505 17.7257 443.478 22.5788 445.77 27.9237C448.803 34.9894 449.919 42.3617 449.425 49.9798C449.054 55.6313 447.752 61.0397 444.841 65.9536C441.682 71.3592 436.85 74.6795 430.721 76.0909L430.718 76.0938Z" fill="#29100A"/>
<path d="M588.833 114.897C588.342 108.023 586.813 101.516 583.323 95.6232C576.834 84.697 567.162 79.7271 554.551 81.1376C547.757 81.9366 541.759 84.821 536.861 89.7303C535.391 91.2042 534.043 92.7387 532.392 94.5184C532.332 93.6589 532.268 93.1685 532.086 92.6782C531.535 87.5208 529.024 84.8816 523.883 84.2066C521.923 83.9615 520.027 83.9009 518.067 83.9009H503.375C502.397 83.9009 501.6 84.2066 501.54 85.3114C501.479 86.2921 501.967 86.7853 502.948 86.9699C509.131 88.2592 512.191 92.1272 512.191 98.447V141.534C512.191 145.463 512.13 149.392 512.191 153.32C512.251 155.651 511.394 157.554 509.252 158.599C507.904 159.274 506.438 159.764 505.029 160.257C504.602 160.442 504.051 160.502 503.56 160.563C502.642 160.687 501.97 161.301 502.276 162.221C502.458 162.712 503.254 163.266 503.806 163.266C508.825 163.205 513.908 162.899 518.924 163.02C525.413 163.144 531.962 163.635 538.451 163.819C542.247 163.88 546.103 163.635 549.898 163.574C559.813 163.514 568.201 159.891 575.362 153.017C580.627 147.923 584.299 141.907 586.504 134.972C588.585 128.465 589.382 121.776 588.83 114.903L588.833 114.897ZM563 148.962C559.51 153.75 554.491 156.083 548.799 157.188C544.576 158.048 540.414 157.924 536.188 157.188C533.68 156.758 532.517 155.408 532.517 152.89V122.999H532.211V107.96C532.211 102.128 535.088 97.8932 539.923 95.0694C546.166 91.4465 552.84 92.5541 558.041 97.5846C563.551 102.924 566.368 109.615 567.959 116.919C568.631 119.803 569.061 122.751 569.122 125.696C569.307 134.044 568.019 142.022 563 148.959V148.962Z" fill="#29100A"/>
<path d="M133 122.298L108.4 98.0176C116.386 88.6342 121.195 76.5345 121.195 63.323V63.3011H111.593V63.323C111.593 71.0625 109.59 78.3403 106.072 84.679L84.4466 63.3339L118.661 29.563L126.571 4L100.707 11.8359L66.4923 45.6068L32.2776 11.8403L6.41179 4L14.3189 29.5608L48.5335 63.3317L26.9083 84.6769C23.3877 78.3359 21.3844 71.0625 21.3844 63.3208V63.2989H11.7833V63.3208C11.7833 76.5389 16.5982 88.6451 24.587 98.0263L0 122.298L6.78948 129L31.3875 104.722C40.4718 112.225 52.0608 116.878 64.7364 117.275V107.797C57.5582 107.528 50.8107 105.597 44.8715 102.395L66.4879 81.0588L88.1042 102.395C82.1673 105.597 75.4198 107.528 68.2415 107.797V117.275C80.9238 116.881 92.5149 112.223 101.599 104.713L126.204 129L132.996 122.298H133ZM102.942 15.5065L115.931 11.571L73.9687 52.9897L69.4696 48.5486L102.944 15.5065H102.942ZM51.4887 66.291L55.9745 70.7474L33.139 93.2854C31.699 91.727 30.3737 90.0679 29.1678 88.319L51.4887 66.2888V66.291ZM18.0361 27.3588L14.0538 14.4865L96.8638 96.2228C95.2736 97.652 93.5817 98.9697 91.7971 100.167L18.0361 27.3588Z" fill="#29100A"/>
<path d="M18.712 133.28C20.2907 133.28 21.9973 133.451 23.832 133.792C25.7093 134.133 27.2453 134.581 28.44 135.136C28.7387 135.264 28.9307 135.413 29.016 135.584C29.1013 135.712 29.144 135.925 29.144 136.224L29.464 142.816C29.464 142.944 29.3573 143.029 29.144 143.072C28.9307 143.115 28.7813 143.051 28.696 142.88C27.0747 140.107 25.4107 138.059 23.704 136.736C22.04 135.371 20.12 134.688 17.944 134.688C14.9147 134.688 12.5893 135.904 10.968 138.336C9.34667 140.725 8.536 143.925 8.536 147.936C8.536 150.581 8.89867 153.077 9.624 155.424C10.392 157.771 11.5867 159.691 13.208 161.184C14.8293 162.677 16.8773 163.424 19.352 163.424C21.528 163.424 23.3627 162.763 24.856 161.44C26.392 160.117 27.8853 157.984 29.336 155.04C29.3787 154.869 29.5067 154.805 29.72 154.848C29.9333 154.891 30.04 154.976 30.04 155.104L29.528 161.888C29.4853 162.229 29.4213 162.464 29.336 162.592C29.2507 162.72 29.016 162.869 28.632 163.04C25.3467 164.192 21.9333 164.768 18.392 164.768C14.296 164.768 10.9467 163.957 8.344 162.336C5.74133 160.715 3.84267 158.688 2.648 156.256C1.496 153.824 0.92 151.371 0.92 148.896C0.92 145.995 1.688 143.349 3.224 140.96C4.80267 138.571 6.936 136.693 9.624 135.328C12.3547 133.963 15.384 133.28 18.712 133.28Z" fill="#29100A"/>
<path d="M49.7875 164.768C46.7582 164.768 44.0488 164.064 41.6595 162.656C39.2702 161.205 37.4142 159.285 36.0915 156.896C34.7688 154.464 34.1075 151.84 34.1075 149.024C34.1075 145.781 34.9395 142.965 36.6035 140.576C38.3102 138.187 40.4648 136.373 43.0675 135.136C45.7128 133.899 48.4222 133.28 51.1955 133.28C54.2248 133.28 56.8915 134.027 59.1955 135.52C61.5422 136.971 63.3555 138.891 64.6355 141.28C65.9155 143.627 66.5555 146.101 66.5555 148.704C66.5555 151.563 65.8088 154.229 64.3155 156.704C62.8222 159.136 60.7955 161.099 58.2355 162.592C55.6755 164.043 52.8595 164.768 49.7875 164.768ZM51.2595 163.296C53.6488 163.296 55.5688 162.123 57.0195 159.776C58.5128 157.429 59.2595 154.187 59.2595 150.048C59.2595 147.232 58.8328 144.672 57.9795 142.368C57.1262 140.064 55.9102 138.251 54.3315 136.928C52.7955 135.563 51.0035 134.88 48.9555 134.88C46.4808 134.88 44.6035 135.904 43.3235 137.952C42.0435 140 41.4035 143.029 41.4035 147.04C41.4035 150.069 41.8302 152.843 42.6835 155.36C43.5795 157.835 44.7742 159.776 46.2675 161.184C47.7608 162.592 49.4248 163.296 51.2595 163.296Z" fill="#29100A"/>
<path d="M96.404 139.36C96.404 138.08 96.2973 137.141 96.084 136.544C95.8707 135.904 95.4867 135.456 94.932 135.2C94.3773 134.944 93.5027 134.816 92.308 134.816C92.18 134.816 92.116 134.688 92.116 134.432C92.116 134.176 92.18 134.048 92.308 134.048L95.38 134.112C97.0867 134.197 98.516 134.24 99.668 134.24C100.692 134.24 102.1 134.197 103.892 134.112L106.964 134.048C107.092 134.048 107.156 134.176 107.156 134.432C107.156 134.688 107.092 134.816 106.964 134.816C105.769 134.816 104.873 134.944 104.276 135.2C103.721 135.413 103.337 135.819 103.124 136.416C102.911 137.013 102.804 137.952 102.804 139.232V158.816C102.804 160.096 102.911 161.056 103.124 161.696C103.337 162.293 103.721 162.699 104.276 162.912C104.831 163.125 105.727 163.232 106.964 163.232C107.092 163.232 107.156 163.36 107.156 163.616C107.156 163.872 107.092 164 106.964 164C105.641 164 104.617 163.979 103.892 163.936L99.668 163.872L95.38 163.936C94.6547 163.979 93.6307 164 92.308 164C92.18 164 92.116 163.872 92.116 163.616C92.116 163.36 92.18 163.232 92.308 163.232C93.5027 163.232 94.3773 163.125 94.932 162.912C95.4867 162.699 95.8707 162.293 96.084 161.696C96.2973 161.056 96.404 160.096 96.404 158.816V139.36ZM77.652 148.064H99.348V149.728H77.652V148.064ZM74.644 139.232C74.644 137.952 74.5373 137.013 74.324 136.416C74.1107 135.819 73.7053 135.413 73.108 135.2C72.5533 134.944 71.7 134.816 70.548 134.816C70.42 134.816 70.356 134.688 70.356 134.432C70.356 134.176 70.42 134.048 70.548 134.048L73.62 134.112C75.3267 134.197 76.7133 134.24 77.78 134.24C78.932 134.24 80.3613 134.197 82.068 134.112L85.14 134.048C85.2253 134.048 85.268 134.176 85.268 134.432C85.268 134.688 85.2253 134.816 85.14 134.816C83.4333 134.816 82.3027 135.115 81.748 135.712C81.236 136.309 80.98 137.525 80.98 139.36V158.816C80.98 160.096 81.0867 161.035 81.3 161.632C81.5133 162.229 81.8973 162.656 82.452 162.912C83.0493 163.125 83.9453 163.232 85.14 163.232C85.2253 163.232 85.268 163.36 85.268 163.616C85.268 163.872 85.2253 164 85.14 164C83.8173 164 82.7933 163.979 82.068 163.936L77.78 163.872L73.62 163.936C72.852 163.979 71.7853 164 70.42 164C70.3347 164 70.292 163.872 70.292 163.616C70.292 163.36 70.3347 163.232 70.42 163.232C71.6573 163.232 72.5533 163.125 73.108 162.912C73.7053 162.699 74.1107 162.293 74.324 161.696C74.5373 161.056 74.644 160.096 74.644 158.816V139.232Z" fill="#29100A"/>
<path d="M126.537 164.768C123.508 164.768 120.799 164.064 118.41 162.656C116.02 161.205 114.164 159.285 112.841 156.896C111.519 154.464 110.857 151.84 110.857 149.024C110.857 145.781 111.69 142.965 113.354 140.576C115.06 138.187 117.215 136.373 119.817 135.136C122.463 133.899 125.172 133.28 127.946 133.28C130.975 133.28 133.641 134.027 135.945 135.52C138.292 136.971 140.105 138.891 141.385 141.28C142.665 143.627 143.305 146.101 143.305 148.704C143.305 151.563 142.559 154.229 141.066 156.704C139.572 159.136 137.546 161.099 134.986 162.592C132.426 164.043 129.609 164.768 126.537 164.768ZM128.01 163.296C130.399 163.296 132.319 162.123 133.77 159.776C135.263 157.429 136.01 154.187 136.01 150.048C136.01 147.232 135.583 144.672 134.73 142.368C133.876 140.064 132.66 138.251 131.081 136.928C129.545 135.563 127.754 134.88 125.706 134.88C123.231 134.88 121.354 135.904 120.074 137.952C118.794 140 118.154 143.029 118.154 147.04C118.154 150.069 118.58 152.843 119.434 155.36C120.33 157.835 121.524 159.776 123.018 161.184C124.511 162.592 126.175 163.296 128.01 163.296Z" fill="#29100A"/>
<path d="M161.89 163.232C161.975 163.232 162.018 163.36 162.018 163.616C162.018 163.872 161.975 164 161.89 164C160.61 164 159.607 163.979 158.882 163.936L154.53 163.872L150.37 163.936C149.602 163.979 148.535 164 147.17 164C147.085 164 147.042 163.872 147.042 163.616C147.042 163.36 147.085 163.232 147.17 163.232C148.365 163.232 149.239 163.125 149.794 162.912C150.349 162.699 150.733 162.293 150.946 161.696C151.159 161.056 151.266 160.096 151.266 158.816V139.232C151.266 137.952 151.159 137.013 150.946 136.416C150.775 135.819 150.413 135.413 149.858 135.2C149.303 134.944 148.45 134.816 147.298 134.816C147.17 134.816 147.106 134.688 147.106 134.432C147.106 134.176 147.17 134.048 147.298 134.048L150.434 134.112C152.141 134.197 153.506 134.24 154.53 134.24C155.341 134.24 156.087 134.219 156.77 134.176C157.453 134.133 158.05 134.091 158.562 134.048C159.97 133.92 161.293 133.856 162.53 133.856C165.858 133.856 168.397 134.389 170.146 135.456C171.895 136.523 172.77 138.059 172.77 140.064C172.77 141.813 172.151 143.435 170.914 144.928C169.719 146.421 168.055 147.616 165.922 148.512C163.831 149.365 161.527 149.792 159.01 149.792C157.645 149.792 156.471 149.707 155.49 149.536L155.426 148.128C156.493 148.427 157.837 148.576 159.458 148.576C161.89 148.576 163.575 148.021 164.514 146.912C165.453 145.76 165.922 144.053 165.922 141.792C165.922 137.355 164.301 135.136 161.058 135.136C160.162 135.136 159.501 135.243 159.074 135.456C158.647 135.669 158.349 136.075 158.178 136.672C158.007 137.227 157.922 138.123 157.922 139.36V158.816C157.922 160.139 158.007 161.099 158.178 161.696C158.391 162.293 158.754 162.699 159.266 162.912C159.821 163.125 160.695 163.232 161.89 163.232ZM181.474 163.232C181.602 163.232 181.666 163.36 181.666 163.616C181.666 163.872 181.602 164 181.474 164H170.978C170.338 164 169.165 162.677 167.458 160.032C165.751 157.344 163.746 153.717 161.442 149.152L166.562 147.808C168.909 151.776 170.914 154.869 172.578 157.088C174.285 159.307 175.821 160.885 177.186 161.824C178.594 162.763 180.023 163.232 181.474 163.232Z" fill="#29100A"/>
<path d="M194.266 164.768C191.706 164.768 189.551 164.085 187.802 162.72C186.053 161.355 185.178 159.093 185.178 155.936V139.168C185.178 138.016 184.922 137.248 184.41 136.864C183.941 136.48 183.045 136.288 181.722 136.288C181.594 136.288 181.53 136.096 181.53 135.712C181.53 135.328 181.594 135.136 181.722 135.136C183.898 135.136 185.797 134.667 187.418 133.728C189.039 132.789 190.085 131.552 190.554 130.016C190.639 129.888 190.767 129.824 190.938 129.824C191.109 129.824 191.258 129.867 191.386 129.952C191.514 129.995 191.578 130.059 191.578 130.144V154.464C191.578 159.541 193.455 162.08 197.21 162.08C199.514 162.08 201.519 161.504 203.226 160.352L203.354 160.288C203.525 160.288 203.631 160.373 203.674 160.544C203.759 160.715 203.738 160.843 203.61 160.928C201.861 162.336 200.282 163.339 198.874 163.936C197.509 164.491 195.973 164.768 194.266 164.768ZM201.69 137.568C198.789 136.885 194.671 136.544 189.338 136.544V134.88C192.581 134.88 196.762 134.667 201.882 134.24C202.01 134.24 202.117 134.389 202.202 134.688C202.287 134.987 202.33 135.349 202.33 135.776C202.33 136.203 202.245 136.629 202.074 137.056C201.946 137.44 201.818 137.611 201.69 137.568Z" fill="#29100A"/>
</svg>
