<svg width="58" height="28" viewBox="0 0 58 28" fill="none" xmlns="http://www.w3.org/2000/svg">
<path d="M13.8992 21.451H7.33327V27.9812H13.8992V21.451Z" fill="#F9F7E7"/>
<path d="M7.31669 20.7479H13.8827V14.5744H7.31669V20.7479Z" fill="#F9F7E7"/>
<path d="M0 20.7479H6.56598V14.5744H0V20.7479Z" fill="#F9F7E7"/>
<path d="M14.6132 20.737C14.6132 17.1328 17.5572 14.2067 21.1793 14.2067V20.737H14.6132Z" fill="#F9F7E7"/>
<path d="M21.932 28H28.4979V21.4697H21.932V28Z" fill="#F9F7E7"/>
<path d="M14.6132 27.9991H21.1793L14.6132 21.451V27.9991Z" fill="#F9F7E7"/>
<path d="M28.5125 20.737C28.5125 17.1328 25.5685 14.2067 21.9466 14.2067V20.737H28.5125Z" fill="#F9F7E7"/>
<path d="M43.9639 20.737C43.9639 17.1328 46.9079 14.2067 50.5299 14.2067V20.737H43.9639Z" fill="#F9F7E7"/>
<path d="M43.9639 21.451H50.5299V27.9991L43.9639 21.451Z" fill="#F9F7E7"/>
<path d="M57.8455 27.9991C57.8455 24.395 54.9015 21.4688 51.2795 21.4688V27.9991H57.8455Z" fill="#F9F7E7"/>
<path d="M43.1252 21.451C43.1252 25.0551 40.1812 27.9812 36.5592 27.9812V21.451H43.1252Z" fill="#F9F7E7"/>
<path d="M29.2263 21.451C29.2263 25.0551 32.1703 27.9812 35.7923 27.9812V21.451H29.2263Z" fill="#F9F7E7"/>
<path d="M32.5093 20.737C34.3225 20.737 35.7923 19.2751 35.7923 17.4718C35.7923 15.6685 34.3225 14.2067 32.5093 14.2067C30.6961 14.2067 29.2263 15.6685 29.2263 17.4718C29.2263 19.2751 30.6961 20.737 32.5093 20.737Z" fill="#F9F7E7"/>
<path d="M54.5626 20.737C56.3757 20.737 57.8455 19.2751 57.8455 17.4718C57.8455 15.6685 56.3757 14.2067 54.5626 14.2067C52.7494 14.2067 51.2795 15.6685 51.2795 17.4718C51.2795 19.2751 52.7494 20.737 54.5626 20.737Z" fill="#F9F7E7"/>
<path d="M6.56636 21.451H4.87131V27.9812H6.56636V21.451Z" fill="#F9F7E7"/>
<path d="M4.12144 21.451H2.42642V27.9812H4.12144V21.451Z" fill="#F9F7E7"/>
<path d="M1.69539 21.451H0.00035568V27.9812H1.69539V21.451Z" fill="#F9F7E7"/>
<path d="M43.1966 14.2067H41.5015V20.737H43.1966V14.2067Z" fill="#F9F7E7"/>
<path d="M40.7523 14.2067H39.0572V20.737H40.7523V14.2067Z" fill="#F9F7E7"/>
<path d="M38.326 14.2067H36.631V20.737H38.326V14.2067Z" fill="#F9F7E7"/>
<path d="M13.8992 6.53033C13.8992 2.92615 10.9553 0 7.33327 0V6.53033H13.8992Z" fill="#F9F7E7"/>
<path d="M13.8992 7.24387C13.8992 10.8481 10.9553 13.7742 7.33327 13.7742V7.24387H13.8992Z" fill="#F9F7E7"/>
<path d="M3.28316 6.53033C5.09631 6.53033 6.56617 5.06846 6.56617 3.26516C6.56617 1.46186 5.09631 0 3.28316 0C1.47001 0 0.000156655 1.46186 0.000156655 3.26516C0.000156655 5.06846 1.47001 6.53033 3.28316 6.53033Z" fill="#F9F7E7"/>
<path d="M6.56636 7.24387H0.00035568V13.7742H6.56636V7.24387Z" fill="#F9F7E7"/>
<path d="M43.197 6.53033C43.197 2.92615 40.253 0 36.631 0V6.53033H43.197Z" fill="#F9F7E7"/>
<path d="M43.197 7.24387C43.197 10.8481 40.253 13.7742 36.631 13.7742V7.24387H43.197Z" fill="#F9F7E7"/>
<path d="M29.2794 7.24387C29.2794 10.8481 32.2234 13.7742 35.8454 13.7742V7.24387H29.2794Z" fill="#F9F7E7"/>
<path d="M29.2794 6.53033C29.2794 2.92615 32.2234 0 35.8454 0V6.53033H29.2794Z" fill="#F9F7E7"/>
<path d="M28.5125 6.53033C28.5125 2.92615 25.5685 0 21.9466 0V6.53033H28.5125Z" fill="#F9F7E7"/>
<path d="M28.5125 13.7742V7.24387H21.9466L28.5125 13.7742Z" fill="#F9F7E7"/>
<path d="M14.6132 6.53033C14.6132 2.92615 17.5572 0 21.1793 0V6.53033H14.6132Z" fill="#F9F7E7"/>
<path d="M21.1969 7.24387H19.5019V13.7742H21.1969V7.24387Z" fill="#F9F7E7"/>
<path d="M18.7525 7.24387H17.0575V13.7742H18.7525V7.24387Z" fill="#F9F7E7"/>
<path d="M16.3261 7.24387H14.6311V13.7742H16.3261V7.24387Z" fill="#F9F7E7"/>
</svg>
