<svg width="144" height="20" viewBox="0 0 144 20" fill="none" xmlns="http://www.w3.org/2000/svg">
<path d="M10.1931 12.1432C10.1931 12.564 10.1397 12.9439 10.033 13.2831C9.9262 13.616 9.7849 13.9111 9.60904 14.1686C9.43319 14.4198 9.22908 14.6365 8.9967 14.8187C8.76433 14.9945 8.51939 15.139 8.26189 15.252C8.01068 15.365 7.75318 15.4498 7.4894 15.5064C7.2319 15.5566 6.98697 15.5817 6.75459 15.5817H0.122468V13.1324H6.73575C7.06861 13.1324 7.31983 13.0476 7.4894 12.878C7.65897 12.7084 7.74376 12.4635 7.74376 12.1432C7.71236 11.49 7.38263 11.1634 6.75459 11.1634H2.95808C2.41796 11.1634 1.95949 11.0692 1.58267 10.8808C1.20584 10.6924 0.8981 10.4569 0.659444 10.1743C0.427069 9.89166 0.257497 9.58706 0.15073 9.26048C0.0502434 8.9339 0 8.6293 0 8.34668C0 7.80028 0.0973465 7.34181 0.29204 6.97127C0.486733 6.59444 0.731669 6.28984 1.02685 6.05747C1.32203 5.82509 1.64233 5.65866 1.98775 5.55817C2.33318 5.45141 2.65662 5.39802 2.95808 5.39802H8.97786V7.84739H2.97692C2.85131 7.84739 2.75082 7.86309 2.67546 7.89449C2.60637 7.91961 2.55299 7.95729 2.51531 8.00754C2.48391 8.0515 2.46507 8.10174 2.45878 8.15827C2.4525 8.20851 2.44936 8.25875 2.44936 8.309C2.45564 8.40948 2.47449 8.48799 2.50589 8.54451C2.53729 8.60104 2.57497 8.64186 2.61894 8.66698C2.66918 8.6921 2.72256 8.7078 2.77909 8.71408C2.84189 8.71408 2.90155 8.71408 2.95808 8.71408H6.75459C7.38263 8.71408 7.91647 8.82713 8.3561 9.05323C8.79573 9.27932 9.15057 9.56508 9.42063 9.9105C9.69069 10.2496 9.88538 10.6202 10.0047 11.0221C10.1303 11.4241 10.1931 11.7978 10.1931 12.1432Z" fill="#F9F7E7"/>
<path d="M23.8813 15.5817H20.3486L15.4122 10.8149C15.1358 10.5637 15.0071 10.2496 15.0259 9.87282C15.0385 9.69697 15.0824 9.53368 15.1578 9.38295C15.2394 9.22594 15.3493 9.09405 15.4875 8.98728L19.9623 5.37918H23.8813L18.1159 10.0236L23.8813 15.5817ZM14.4041 15.5817H11.9548V1.09279H14.4041V15.5817Z" fill="#F9F7E7"/>
<path d="M36.3919 14.3476C36.3919 14.5235 36.3605 14.6868 36.2977 14.8375C36.2349 14.9882 36.147 15.1201 36.0339 15.2332C35.9271 15.3399 35.7984 15.4247 35.6477 15.4875C35.5032 15.5503 35.3462 15.5817 35.1766 15.5817H29.6373C29.3358 15.5817 29.0124 15.5472 28.667 15.4781C28.3278 15.409 27.9918 15.2991 27.659 15.1484C27.3261 14.9914 27.0027 14.7967 26.6886 14.5643C26.3809 14.3256 26.1108 14.0399 25.8785 13.707C25.6461 13.3679 25.4577 12.9785 25.3132 12.5389C25.1751 12.0992 25.106 11.6031 25.106 11.0504V5.39802H27.5553V11.0504C27.5553 11.3707 27.6087 11.6596 27.7155 11.9171C27.8285 12.1683 27.9793 12.385 28.1677 12.5671C28.3561 12.7493 28.5759 12.8906 28.8271 12.9911C29.0846 13.0853 29.361 13.1324 29.6561 13.1324H33.9425V5.39802H36.3919V14.3476ZM34.6491 0.960904C34.6365 1.11791 34.6083 1.31575 34.5643 1.5544C34.5266 1.78678 34.4544 2.038 34.3476 2.30805C34.2409 2.57183 34.0964 2.83875 33.9143 3.10881C33.7384 3.37259 33.5092 3.61124 33.2266 3.82478C32.9439 4.03831 32.6048 4.21416 32.2091 4.35233C31.8198 4.48422 31.355 4.55016 30.8149 4.55016C30.2748 4.55016 29.8069 4.48422 29.4112 4.35233C29.0155 4.21416 28.6764 4.03831 28.3938 3.82478C28.1174 3.61124 27.8882 3.37259 27.7061 3.10881C27.5239 2.83875 27.3795 2.57183 27.2727 2.30805C27.1722 2.038 27.0969 1.78678 27.0466 1.5544C27.0027 1.31575 26.9775 1.11791 26.9713 0.960904H28.7518C28.7894 1.07395 28.846 1.20898 28.9213 1.36599C29.003 1.523 29.1192 1.67373 29.2699 1.81818C29.4269 1.96263 29.6279 2.08824 29.8728 2.19501C30.124 2.29549 30.4381 2.34574 30.8149 2.34574C31.1854 2.34574 31.4932 2.29549 31.7381 2.19501C31.9893 2.08824 32.1934 1.96263 32.3504 1.81818C32.5075 1.67373 32.6268 1.523 32.7084 1.36599C32.7964 1.20898 32.8592 1.07395 32.8968 0.960904H34.6491Z" fill="#F9F7E7"/>
<path d="M49.9764 15.5817H47.5271V9.92935C47.5271 9.60904 47.4706 9.32328 47.3575 9.07207C47.2507 8.81457 47.1032 8.59476 46.9147 8.41262C46.7263 8.23049 46.5034 8.09232 46.2459 7.99812C45.9947 7.89763 45.7215 7.84739 45.4263 7.84739H41.1399V15.5817H38.6905V6.61328C38.6905 6.44371 38.7219 6.2867 38.7847 6.14225C38.8475 5.99152 38.9355 5.86277 39.0485 5.75601C39.1616 5.64296 39.2935 5.55503 39.4442 5.49223C39.5949 5.42942 39.7551 5.39802 39.9246 5.39802H45.4451C45.7529 5.39802 46.0763 5.43256 46.4154 5.50165C46.7609 5.57073 47.1 5.68378 47.4329 5.84079C47.772 5.99152 48.0923 6.18621 48.3938 6.42487C48.7015 6.65725 48.9716 6.94301 49.204 7.28215C49.4426 7.61501 49.631 8.00126 49.7692 8.44089C49.9074 8.88051 49.9764 9.37667 49.9764 9.92935V15.5817Z" fill="#F9F7E7"/>
<path d="M63.203 16.5615C63.203 16.9823 63.1496 17.3591 63.0429 17.6919C62.9361 18.0311 62.7948 18.3263 62.6189 18.5775C62.4431 18.835 62.239 19.0517 62.0066 19.2275C61.7742 19.4096 61.5293 19.5572 61.2718 19.6703C61.0206 19.7833 60.7631 19.865 60.4993 19.9152C60.2418 19.9717 59.9969 20 59.7645 20H55.3462V17.5506H59.7645C60.0973 17.5506 60.3454 17.4659 60.5087 17.2963C60.672 17.1267 60.7536 16.8818 60.7536 16.5615V8.82713C60.7536 8.50683 60.672 8.26503 60.5087 8.10174C60.3454 7.93217 60.0973 7.84739 59.7645 7.84739H55.3462C55.0447 7.84739 54.8061 7.94159 54.6302 8.13C54.4544 8.31214 54.3665 8.54451 54.3665 8.82713V12.1432C54.3665 12.4635 54.4512 12.7084 54.6208 12.878C54.7904 13.0476 55.0385 13.1324 55.365 13.1324H59.7645V15.5817H55.3462C55.1138 15.5817 54.8689 15.5566 54.6114 15.5064C54.3539 15.4498 54.0964 15.365 53.8389 15.252C53.5877 15.139 53.3459 14.9945 53.1135 14.8187C52.8811 14.6365 52.677 14.4198 52.5012 14.1686C52.3253 13.9111 52.184 13.616 52.0772 13.2831C51.9705 12.9439 51.9171 12.564 51.9171 12.1432V8.82713C51.9171 8.59476 51.9422 8.34982 51.9925 8.09232C52.049 7.83482 52.1338 7.58047 52.2468 7.32925C52.3599 7.07175 52.5043 6.82682 52.6802 6.59444C52.8623 6.36207 53.079 6.15795 53.3302 5.9821C53.5877 5.80625 53.8829 5.66494 54.2157 5.55817C54.5486 5.45141 54.9254 5.39802 55.3462 5.39802H59.7645C59.9969 5.39802 60.2418 5.42628 60.4993 5.48281C60.7631 5.53305 61.0206 5.6147 61.2718 5.72774C61.5293 5.84079 61.7742 5.98838 62.0066 6.17051C62.239 6.34637 62.4431 6.56304 62.6189 6.82054C62.7948 7.07175 62.9361 7.36379 63.0429 7.69666C63.1496 8.02952 63.203 8.40634 63.203 8.82713V16.5615Z" fill="#F9F7E7"/>
<path d="M77.4093 15.5817H73.8766L68.9402 10.8149C68.6638 10.5637 68.5351 10.2496 68.5539 9.87282C68.5665 9.69697 68.6105 9.53368 68.6858 9.38295C68.7675 9.22594 68.8774 9.09405 69.0155 8.98728L73.4903 5.37918H77.4093L71.6439 10.0236L77.4093 15.5817ZM67.9322 15.5817H65.4828V1.09279H67.9322V15.5817Z" fill="#F9F7E7"/>
<path d="M95.5535 5.39802C95.1641 6.271 94.7433 7.13142 94.2911 7.97927C93.8389 8.82085 93.3647 9.61846 92.8686 10.3721C92.3787 11.1258 91.8763 11.8229 91.3613 12.4635C90.8463 13.0978 90.3344 13.6474 89.8257 14.1121C89.3233 14.5706 88.8303 14.9317 88.3467 15.1955C87.8694 15.453 87.4172 15.5817 86.9901 15.5817C86.8143 15.5817 86.651 15.5503 86.5002 15.4875C86.3495 15.4247 86.2176 15.3399 86.1046 15.2332C85.9915 15.1201 85.9036 14.9882 85.8408 14.8375C85.778 14.6868 85.7466 14.5235 85.7466 14.3476V9.77862L80.8855 15.2143C80.7599 15.3399 80.6218 15.4341 80.471 15.4969C80.3266 15.5535 80.1759 15.5817 80.0188 15.5817C79.8493 15.5817 79.6891 15.5503 79.5384 15.4875C79.3939 15.4247 79.2652 15.3399 79.1521 15.2332C79.0391 15.1201 78.948 14.9882 78.8789 14.8375C78.8161 14.6868 78.7847 14.5235 78.7847 14.3476V5.39802H81.2341V11.2011L86.114 5.74658C86.2898 5.57073 86.4971 5.46083 86.7358 5.41686C86.9807 5.36662 87.2193 5.39174 87.4517 5.49223C87.6841 5.58643 87.8662 5.73716 87.9981 5.94442C88.1363 6.14539 88.2054 6.36835 88.2054 6.61328V12.4352C88.7329 11.9265 89.2102 11.3895 89.6373 10.8243C90.0644 10.2591 90.46 9.67813 90.8243 9.08149C91.1948 8.47857 91.5403 7.86937 91.8606 7.25389C92.1872 6.63212 92.5043 6.0135 92.8121 5.39802H95.5535Z" fill="#F9F7E7"/>
<path d="M107.537 14.3476C107.537 14.5235 107.505 14.6868 107.442 14.8375C107.379 14.9882 107.292 15.1201 107.179 15.2332C107.072 15.3399 106.943 15.4247 106.792 15.4875C106.648 15.5503 106.491 15.5817 106.321 15.5817H100.782C100.48 15.5817 100.157 15.5472 99.8116 15.4781C99.4724 15.409 99.1364 15.2991 98.8036 15.1484C98.4707 14.9914 98.1473 14.7967 97.8333 14.5643C97.5255 14.3256 97.2555 14.0399 97.0231 13.707C96.7907 13.3679 96.6023 12.9785 96.4578 12.5389C96.3197 12.0992 96.2506 11.6031 96.2506 11.0504V5.39802H98.7V11.0504C98.7 11.3707 98.7533 11.6596 98.8601 11.9171C98.9732 12.1683 99.1239 12.385 99.3123 12.5671C99.5007 12.7493 99.7205 12.8906 99.9717 12.9911C100.229 13.0853 100.506 13.1324 100.801 13.1324H105.087V5.39802H107.537V14.3476ZM105.163 4.08855L101.884 2.39284L98.6057 4.08855L97.4658 2.50589L101.884 0L106.302 2.50589L105.163 4.08855Z" fill="#F9F7E7"/>
<path d="M118.747 7.84739H113.236C112.903 7.84739 112.652 7.93217 112.482 8.10174C112.313 8.26503 112.228 8.50683 112.228 8.82713V15.5817H109.779V8.82713C109.779 8.40634 109.832 8.02952 109.939 7.69666C110.046 7.36379 110.187 7.07175 110.363 6.82054C110.545 6.56304 110.752 6.34637 110.984 6.17051C111.217 5.98838 111.459 5.84079 111.71 5.72774C111.967 5.6147 112.225 5.53305 112.482 5.48281C112.746 5.42628 112.991 5.39802 113.217 5.39802H118.747V7.84739Z" fill="#F9F7E7"/>
<path d="M132.332 15.5817H128.799L123.862 10.8149C123.586 10.5637 123.457 10.2496 123.476 9.87282C123.489 9.69697 123.533 9.53368 123.608 9.38295C123.69 9.22594 123.8 9.09405 123.938 8.98728L128.413 5.37918H132.332L126.566 10.0236L132.332 15.5817ZM122.854 15.5817H120.405V1.09279H122.854V15.5817Z" fill="#F9F7E7"/>
<path d="M143.552 12.1432C143.552 12.564 143.498 12.9439 143.391 13.2831C143.285 13.616 143.143 13.9111 142.967 14.1686C142.792 14.4198 142.588 14.6365 142.355 14.8187C142.123 14.9945 141.878 15.139 141.62 15.252C141.369 15.365 141.112 15.4498 140.848 15.5064C140.59 15.5566 140.345 15.5817 140.113 15.5817H133.481V13.1324H140.094C140.427 13.1324 140.678 13.0476 140.848 12.878C141.017 12.7084 141.102 12.4635 141.102 12.1432C141.071 11.49 140.741 11.1634 140.113 11.1634H136.317C135.776 11.1634 135.318 11.0692 134.941 10.8808C134.564 10.6924 134.257 10.4569 134.018 10.1743C133.786 9.89166 133.616 9.58706 133.509 9.26048C133.409 8.9339 133.358 8.6293 133.358 8.34668C133.358 7.80028 133.456 7.34181 133.65 6.97127C133.845 6.59444 134.09 6.28984 134.385 6.05747C134.68 5.82509 135.001 5.65866 135.346 5.55817C135.692 5.45141 136.015 5.39802 136.317 5.39802H142.336V7.84739H136.335C136.21 7.84739 136.109 7.86309 136.034 7.89449C135.965 7.91961 135.911 7.95729 135.874 8.00754C135.842 8.0515 135.824 8.10174 135.817 8.15827C135.811 8.20851 135.808 8.25875 135.808 8.309C135.814 8.40948 135.833 8.48799 135.864 8.54451C135.896 8.60104 135.933 8.64186 135.977 8.66698C136.028 8.6921 136.081 8.7078 136.138 8.71408C136.2 8.71408 136.26 8.71408 136.317 8.71408H140.113C140.741 8.71408 141.275 8.82713 141.715 9.05323C142.154 9.27932 142.509 9.56508 142.779 9.9105C143.049 10.2496 143.244 10.6202 143.363 11.0221C143.489 11.4241 143.552 11.7978 143.552 12.1432Z" fill="#F9F7E7"/>
</svg>
