<svg width="130" height="18" viewBox="0 0 130 18" fill="none" xmlns="http://www.w3.org/2000/svg">
<path d="M22.6819 8.594C22.4953 6.62623 21.8568 0.584184 21.8477 0.359551C21.8374 0.0964075 21.4615 -0.238634 21.4615 0.247861C21.4615 0.584168 21.1577 4.4466 21.1577 7.24109C21.1255 7.19355 21.1062 7.16787 21.1062 7.16787H20.411C19.1623 4.10644 15.8448 1.88448 11.9029 1.7497H11.7266C11.6596 1.7497 11.5978 1.7497 11.5231 1.7497C11.4536 1.7497 11.3867 1.7497 11.3197 1.7497H11.146C7.20281 1.87806 3.884 4.10644 2.63527 7.16787H1.99159L1.94138 7.24109C1.94138 4.4466 1.63628 0.584168 1.63628 0.247861C1.63628 -0.238634 1.26038 0.0964075 1.25007 0.359551C1.24235 0.584184 0.606404 6.62623 0.417161 8.594C0.143126 8.9586 -0.00339733 9.40278 5.98011e-05 9.85839C5.98011e-05 10.5862 0.482816 11.3615 1.07628 11.3615C1.22716 11.7819 1.43275 12.1807 1.68778 12.5476H2.6417C3.92905 15.7079 7.42294 17.9735 11.5244 17.9735C15.626 17.9735 19.1198 15.7079 20.4072 12.5476H21.4075C21.6619 12.1803 21.8675 11.7816 22.0189 11.3615C22.6124 11.3615 23.0939 10.5914 23.0939 9.85839C23.0986 9.40342 22.9539 8.9594 22.6819 8.594ZM11.5231 17.4254C7.26459 17.4254 3.8132 14.6604 3.8132 11.2485C3.8132 8.69671 5.74422 6.50685 8.49785 5.56465L9.00122 6.80723C9.04452 6.91381 9.11875 7.00502 9.21441 7.06929C9.31002 7.13356 9.42274 7.16787 9.53804 7.16787H13.5211C13.6364 7.16787 13.7491 7.13356 13.8448 7.06929C13.9404 7.00502 14.0146 6.91381 14.0579 6.80723L14.56 5.56979C17.3072 6.51452 19.2318 8.70057 19.2318 11.2485C19.2318 14.6604 15.7804 17.4254 11.5231 17.4254Z" fill="#F9F7E7"/>
<path d="M14.0822 9.43014C13.8397 9.43014 13.6073 9.52617 13.4358 9.69707C13.2645 9.86801 13.1681 10.0998 13.1681 10.3415V12.5519C13.1681 12.7936 13.2645 13.0255 13.4358 13.1964C13.6073 13.3673 13.8397 13.4633 14.0822 13.4633C14.3246 13.4633 14.5571 13.3673 14.7285 13.1964C14.8999 13.0255 14.9962 12.7936 14.9962 12.5519V10.3415C14.9962 10.0998 14.8999 9.86801 14.7285 9.69707C14.5571 9.52617 14.3246 9.43014 14.0822 9.43014Z" fill="#F9F7E7"/>
<path d="M8.9627 9.43014C8.72028 9.43014 8.48782 9.52617 8.3164 9.69707C8.14497 9.86801 8.04867 10.0998 8.04867 10.3415V12.5519C8.04867 12.7936 8.14497 13.0255 8.3164 13.1964C8.48782 13.3673 8.72028 13.4633 8.9627 13.4633C9.20512 13.4633 9.43758 13.3673 9.60901 13.1964C9.78043 13.0255 9.87673 12.7936 9.87673 12.5519V10.3415C9.87673 10.0998 9.78043 9.86801 9.60901 9.69707C9.43758 9.52617 9.20512 9.43014 8.9627 9.43014Z" fill="#F9F7E7"/>
<path d="M11.5357 15.5153C11.0052 15.5153 10.5727 15.1302 10.5727 14.6591H10.8842C10.8842 14.9608 11.1765 15.2059 11.5357 15.2059C11.8948 15.2059 12.1883 14.9608 12.1883 14.6591H12.4999C12.4999 15.1315 12.0673 15.5153 11.5357 15.5153Z" fill="#F9F7E7"/>
<path d="M28.1964 9.23375C28.1964 5.25096 30.72 2.41545 34.8275 2.41545C38.2561 2.41545 40.6127 4.40618 41.177 7.76855H38.863C38.449 5.70215 36.923 4.44337 34.8313 4.44337C32.1753 4.44337 30.5168 6.30341 30.5168 9.23375C30.5168 12.2398 32.1753 14.0806 34.8313 14.0806C36.9603 14.0806 38.449 12.8589 38.863 10.7746H41.177C40.5741 14.1933 38.2754 16.1277 34.8275 16.1277C30.7765 16.1251 28.1964 13.346 28.1964 9.23375Z" fill="#F9F7E7"/>
<path d="M53.7982 15.8448V1.75575H56.0212V15.8448H53.7982Z" fill="#F9F7E7"/>
<path d="M57.9816 15.8448V1.75575H60.2046V15.8448H57.9816Z" fill="#F9F7E7"/>
<path d="M61.6404 13.0799C61.66 10.7507 63.9762 10.2597 65.9165 10.0366C67.4242 9.86744 68.535 9.81106 68.5545 9.02271C68.535 8.04589 67.7832 7.40753 66.4972 7.40753C65.1785 7.40753 64.2361 8.12022 64.1048 9.15469H61.8628C62.0698 7.04986 63.9534 5.58466 66.5348 5.58466C69.2343 5.58466 70.7167 7.04986 70.7167 9.17391V13.6823C70.7167 13.9643 70.8686 14.1143 71.2069 14.1143H71.7532V15.8436H70.6987C69.6806 15.8436 69.0596 15.4295 68.8902 14.6784C68.8473 14.569 68.8161 14.4556 68.796 14.3399C68.211 15.4116 67.1182 16.05 65.4241 16.05C63.1254 16.0512 61.6171 14.9424 61.6404 13.0799ZM68.5545 12.103V10.7135C68.1776 11.2955 67.2172 11.4275 66.1621 11.5582C64.9185 11.7095 63.8825 11.8775 63.8825 12.9299C63.8825 13.7939 64.5792 14.3014 65.8789 14.3014C67.4015 14.304 68.5508 13.44 68.5508 12.1056L68.5545 12.103Z" fill="#F9F7E7"/>
<path d="M74.8827 14.0784L74.6757 15.8448H72.8863V1.75575H75.1088V7.18322C75.8251 6.20641 77.0115 5.58599 78.4245 5.58599C81.0625 5.58599 82.9239 7.72799 82.9239 10.8083C82.9239 13.9451 81.0588 16.1243 78.4028 16.1243C76.8225 16.1256 75.5037 15.3372 74.8827 14.0784ZM80.6475 10.8096C80.6475 8.83684 79.5368 7.46651 77.9168 7.46651C76.2777 7.46651 75.1088 8.81889 75.1088 10.7533C75.1088 12.8043 76.2777 14.2476 77.9168 14.2476C79.5352 14.2476 80.6459 12.8389 80.6459 10.8096H80.6475Z" fill="#F9F7E7"/>
<path d="M88.4658 15.8459V2.69771H90.7269V13.8193H97.4531V15.8485L88.4658 15.8459Z" fill="#F9F7E7"/>
<path d="M98.3373 13.0799C98.3569 10.7507 100.675 10.2597 102.614 10.0366C104.122 9.86744 105.233 9.81106 105.252 9.02271C105.233 8.04589 104.481 7.40753 103.196 7.40753C101.877 7.40753 100.936 8.12022 100.803 9.15469H98.5639C98.7709 7.04986 100.656 5.58466 103.237 5.58466C105.93 5.58466 107.419 7.04986 107.419 9.17391V13.6823C107.419 13.9643 107.569 14.1143 107.909 14.1143H108.455V15.8436H107.4C106.383 15.8436 105.761 15.4295 105.591 14.6784C105.549 14.5688 105.517 14.4555 105.497 14.3399C104.913 15.4116 103.826 16.05 102.125 16.05C99.8239 16.0512 98.3193 14.9424 98.3373 13.0799ZM105.252 10.7135C104.876 11.2955 103.915 11.4275 102.859 11.5582C101.616 11.7095 100.579 11.8775 100.579 12.9299C100.579 13.7939 101.278 14.3014 102.577 14.3014C104.104 14.304 105.252 13.44 105.252 12.1056V10.7135Z" fill="#F9F7E7"/>
<path d="M109.548 15.8443V5.88801H111.338L111.527 7.35321C112.148 6.32001 113.41 5.58672 114.899 5.58672C117.028 5.58672 118.421 7.01476 118.421 9.25036V15.8443H116.199V9.36191C116.199 8.25305 115.463 7.52114 114.22 7.52114C112.77 7.52114 111.79 8.5158 111.777 9.8118V15.8366L109.548 15.8443Z" fill="#F9F7E7"/>
<path d="M119.646 10.8096C119.646 7.73312 121.549 5.58726 124.205 5.58726C125.619 5.58726 126.786 6.16924 127.483 7.10884V1.75575H129.707V15.8448H127.917L127.71 14.0784C127.145 15.3372 125.901 16.1294 124.281 16.1294C121.586 16.1256 119.646 13.9464 119.646 10.8096ZM127.488 10.7904C127.488 8.81889 126.358 7.44729 124.738 7.44729C123.08 7.44729 121.93 8.83684 121.93 10.8289C121.93 12.8209 123.062 14.2476 124.701 14.2476C126.34 14.2476 127.483 12.8235 127.483 10.7904H127.488Z" fill="#F9F7E7"/>
<path d="M86.769 13.8013C86.7695 13.6729 86.7007 13.5541 86.5895 13.49L85.3358 12.7683C85.2247 12.7042 85.087 12.7045 84.9758 12.7691L83.7137 13.5016C83.6036 13.5656 83.5353 13.6832 83.5348 13.8105L83.5295 15.2664C83.5295 15.3948 83.5978 15.5136 83.709 15.5778L84.9626 16.2994C85.0743 16.3636 85.2114 16.3633 85.3226 16.2987L86.5847 15.5663C86.6954 15.5023 86.7637 15.3847 86.7637 15.2574L86.769 13.8013Z" fill="#F9F7E7"/>
<path fill-rule="evenodd" clip-rule="evenodd" d="M51.7423 7.71197C52.0458 7.88673 52.2324 8.21031 52.2311 8.5602L52.2154 13.1375C52.2142 13.4845 52.0286 13.805 51.7278 13.9795L47.7602 16.2818C47.4569 16.4578 47.0826 16.4585 46.779 16.2837L42.8367 14.0142C42.5331 13.8394 42.3466 13.5158 42.3478 13.1659L42.3643 8.589C42.3656 8.24213 42.5511 7.92173 42.8518 7.74723L46.8187 5.44456C47.122 5.26847 47.4963 5.26768 47.8 5.44249L51.7423 7.71197ZM48.8111 8.23556C49.7443 8.77276 50.3174 9.77588 50.3137 10.8514C50.31 11.9284 49.7265 12.9363 48.7929 13.478C47.8606 14.0189 46.7028 14.0256 45.7696 13.4884C44.8364 12.9511 44.2632 11.9477 44.267 10.872C44.271 9.79537 44.8543 8.78795 45.7875 8.24626C46.7198 7.70504 47.8779 7.69831 48.8111 8.23556Z" fill="#F9F7E7"/>
</svg>
