<svg width="110" height="14" viewBox="0 0 110 14" fill="none" xmlns="http://www.w3.org/2000/svg">
<path d="M0 6.99999C0 2.75948 2.77985 0 7.50724 0C12.0725 0 14.8116 2.17103 14.8116 5.803V6.14787H10.5508V5.803C10.5508 4.26087 9.8203 3.65233 7.56808 3.65233C4.80887 3.65233 4.05803 4.30161 4.05803 6.99999C4.05803 9.69864 4.80887 10.3479 7.56808 10.3479C9.82031 10.3479 10.5508 9.7391 10.5508 8.19724V7.85211H14.8116V8.19724C14.8116 11.8289 12.0725 14 7.50724 14C2.77985 14 0 11.2405 0 6.99999Z" fill="#F9F7E7"/>
<path d="M15.5234 8.68419C15.5234 5.35663 17.9378 3.36835 21.4886 3.36835C25.0393 3.36835 27.4537 5.35663 27.4537 8.68419C27.4537 11.9914 25.0393 14 21.4886 14C17.9378 14 15.5234 11.9914 15.5234 8.68419ZM23.68 8.68419C23.68 7.20288 23.2132 6.716 21.4885 6.716C19.7639 6.716 19.2971 7.20288 19.2971 8.68419C19.2971 10.1652 19.7639 10.632 21.4885 10.632C23.2132 10.632 23.68 10.1652 23.68 8.68419Z" fill="#F9F7E7"/>
<path d="M28.064 8.68419C28.064 5.35663 30.4783 3.36835 34.0291 3.36835C37.5799 3.36835 39.9942 5.35663 39.9942 8.68419C39.9942 11.9914 37.5799 14 34.0291 14C30.4783 14 28.064 11.9914 28.064 8.68419ZM36.2205 8.68419C36.2205 7.20288 35.7537 6.716 34.0291 6.716C32.3045 6.716 31.8377 7.20288 31.8377 8.68419C31.8377 10.1652 32.3045 10.632 34.0291 10.632C35.7537 10.632 36.2205 10.1652 36.2205 8.68419Z" fill="#F9F7E7"/>
<path d="M40.9089 13.7972V0.202881H44.7234V7.12195H46.5292L48.7811 3.57117H53.2856L49.6536 8.54215L53.2248 13.7972H48.7203L46.5696 10.5304H44.7234V13.7972L40.9089 13.7972Z" fill="#F9F7E7"/>
<path d="M53.6931 2.63787V0.202881H57.5076V2.63786L53.6931 2.63787ZM53.6931 13.7972V3.57118H57.5076V13.7972H53.6931Z" fill="#F9F7E7"/>
<path d="M58.522 8.68419C58.522 5.35663 60.9366 3.36835 64.3453 3.36835C67.8758 3.36835 70.128 5.13342 70.128 8.42052C70.128 8.76538 70.1076 9.02905 70.0669 9.39429H62.0524C62.1135 10.632 62.6612 10.9769 64.2842 10.9769C65.8264 10.9769 66.2323 10.7132 66.2323 10.1044V9.88118H70.0468V10.1248C70.0468 12.3971 67.8758 14 64.4265 14C60.957 14 58.522 12.519 58.522 8.68419ZM62.1135 7.46683H66.4352C66.2932 6.59435 65.6844 6.28994 64.2642 6.28994C62.864 6.28994 62.2756 6.59435 62.1135 7.46683Z" fill="#F9F7E7"/>
<path d="M73.5791 7.97407V7.44645H77.6371V7.93333C77.6371 9.77987 77.7387 10.3072 79.9298 10.3072C82.1009 10.3072 82.2632 9.82033 82.2632 8.13618V0.202881H86.3213V8.17692C86.3213 11.971 84.5964 14 79.9298 14C75.2836 14 73.5791 11.9102 73.5791 7.97407Z" fill="#F9F7E7"/>
<path d="M87.1543 11.2001C87.1543 9.75953 88.1484 8.72465 90.4615 8.50144L94.6208 8.09574V7.8929C94.6208 6.85802 94.1744 6.69564 92.815 6.69564C91.5572 6.69564 91.1716 6.93922 91.1716 7.79134V7.87253H87.3571V7.83207C87.3571 5.11305 89.6295 3.36835 93.099 3.36835C96.6702 3.36835 98.3948 5.11304 98.3948 7.97409V13.7972H94.8237V11.6465H94.6208C94.2355 13.0871 92.9774 14 90.7659 14C88.4528 14 87.1543 12.9451 87.1543 11.2001ZM91.9021 11.3421C93.7483 11.3421 94.4992 11.1189 94.6007 10.206L91.476 10.5712C91.1311 10.6116 90.9891 10.7333 90.9891 10.9565C90.9891 11.2813 91.3136 11.3421 91.9021 11.3421Z" fill="#F9F7E7"/>
<path d="M99.5325 13.7972V3.5712H103.103V6.24948H103.306C103.59 4.56534 104.645 3.36835 106.674 3.36835C108.926 3.36835 109.819 4.84937 109.819 6.89875V8.92777H106.005V7.73051C106.005 6.87839 105.68 6.57398 104.686 6.57398C103.651 6.57398 103.347 6.87839 103.347 7.69005V13.7972L99.5325 13.7972Z" fill="#F9F7E7"/>
</svg>
