<svg width="79" height="14" viewBox="0 0 79 14" fill="none" xmlns="http://www.w3.org/2000/svg">
<path d="M24.0594 13.6688V3.29236H21.123V0.249342H30.2888V3.29308H27.3524V13.6695H24.0601L24.0594 13.6688Z" fill="#F9F7E7"/>
<path d="M0 7.01271C0 2.84774 3.1857 0 7.20799 0C9.62843 0 11.8176 0.978551 13.2234 3.07905L10.3223 4.59155C9.53907 3.52365 8.52449 2.95439 7.2433 2.95439C4.98283 2.95439 3.39899 4.71621 3.39899 7.03C3.39899 9.34379 5.1255 11.0703 7.13665 11.0703C8.79183 11.0703 9.98439 10.0737 10.1977 8.75652V8.73851H7.38597V6.21142H13.882V6.78068C13.882 11.1589 11.2656 13.9 7.10134 13.9C3.16768 13.9 0 11.0703 0 7.01271Z" fill="#F9F7E7"/>
<path d="M16.1409 13.6688V0.249342H19.4332V13.6688H16.1409Z" fill="#F9F7E7"/>
<path d="M59.3087 13.6688V0.249342H62.6011V13.6688H59.3087Z" fill="#F9F7E7"/>
<path d="M74.8534 0.249342H78.0751V13.6688H75.4054L68.678 5.21488L68.7313 13.6688H65.4923V0.249342H68.2334L74.9608 8.6499L74.8534 0.249342Z" fill="#F9F7E7"/>
<path d="M38.2668 10.857C36.2203 10.857 34.4938 9.25517 34.4938 6.95939C34.4938 4.78828 36.149 3.06176 38.3028 3.06176C39.3635 3.06176 40.2894 3.46312 40.9632 4.1275C41.2882 3.08986 41.794 2.11924 42.4663 1.25166C41.2889 0.4655 39.8564 0.0180182 38.3201 0.0180182C34.3691 0.0180182 31.0941 2.97241 31.0941 6.94138C31.0941 11.1063 34.3864 13.9 38.2668 13.9C39.816 13.9 41.2594 13.4663 42.4433 12.6952C41.7789 11.8284 41.2781 10.852 40.9574 9.80137C40.2736 10.4629 39.334 10.857 38.2668 10.857Z" fill="#F9F7E7"/>
<path d="M50.226 1.33514e-05C47.7465 1.33514e-05 45.5336 1.16375 44.2286 3.01133C43.4547 4.10806 43 5.44546 43 6.92337C43 8.40129 43.4532 9.82372 44.2214 10.919C45.5235 12.7759 47.7321 13.882 50.1727 13.882C54.1416 13.882 57.4167 11.0343 57.4167 6.95868C57.4167 2.88306 54.1597 1.33514e-05 50.226 1.33514e-05ZM50.1727 10.839C48.1262 10.839 46.3997 9.23716 46.3997 6.94139C46.3997 4.77027 48.0549 3.04375 50.2087 3.04375C52.3625 3.04375 54.0177 4.75226 54.0177 6.9594C54.0177 9.16655 52.3618 10.839 50.1727 10.839Z" fill="#F9F7E7"/>
</svg>
