<svg width="106" height="27" viewBox="0 0 106 27" fill="none" xmlns="http://www.w3.org/2000/svg">
<path d="M57.4447 9.88733C56.2743 8.60232 54.7846 7.95142 53.0152 7.95142C51.2458 7.95142 49.7545 8.60538 48.5826 9.89955C47.5283 11.0745 46.9935 12.4803 46.9935 14.0739C46.9935 15.6676 47.5558 17.1008 48.6666 18.3033C49.7897 19.5073 51.2535 20.117 53.0137 20.117C54.7739 20.117 56.2269 19.5073 57.3515 18.3018C58.4685 17.0993 59.0338 15.6767 59.0338 14.0724C59.0338 12.468 58.499 11.0639 57.4432 9.8858H57.4447V9.88733ZM56.8106 14.0938C56.8106 14.8028 56.6395 15.4766 56.3003 16.0954C55.9641 16.7035 55.5042 17.1772 54.9297 17.5057C54.3583 17.8296 53.7135 17.9946 53.0137 17.9946C52.3139 17.9946 51.6843 17.8296 51.1098 17.5057C50.5338 17.1757 50.0693 16.7005 49.7301 16.0954C49.3909 15.475 49.2198 14.8012 49.2198 14.0923C49.2198 12.983 49.588 12.0616 50.3459 11.2793C51.0991 10.5 51.9731 10.1211 53.0152 10.1211C54.0573 10.1211 54.9312 10.5 55.6845 11.2793C56.4424 12.0616 56.8106 12.9814 56.8106 14.0923V14.0938Z" fill="#F9F7E7"/>
<path d="M76.8092 12.4359V4.81299H74.6074V19.8801H76.8092V15.5148L81.4068 19.8801H84.2182L76.8092 12.4359Z" fill="#F9F7E7"/>
<path d="M104.157 17.8037L103.709 17.9626C103.133 18.2178 102.473 17.9779 101.981 17.6799C101.249 17.2384 100.999 16.4148 101.034 15.4308V11.2488H103.592V9.24564H101.025V4.81458H98.8198V15.6493C98.806 16.508 99.0046 17.3071 99.4172 18.0314C100.103 19.1941 101.06 19.8191 102.268 19.8863C102.31 19.8863 102.351 19.8878 102.394 19.8878C102.979 19.8878 103.637 19.7488 104.354 19.4753L104.739 19.3271L105.359 19.0261L104.157 17.8052V17.8037Z" fill="#F9F7E7"/>
<path d="M84.2197 7.74219H81.9216L77.7427 11.614L78.9971 12.87L84.2197 7.74219Z" fill="#F9F7E7"/>
<path d="M67.1782 9.83087C68.7031 9.83087 69.8719 10.4039 70.749 11.5804L70.9721 11.8799L72.7231 10.7828L72.5229 10.442C72.1761 9.85226 71.7437 9.36179 71.2395 8.98438C70.7398 8.60392 70.1271 8.29375 69.4181 8.06456C68.7183 7.83536 67.9849 7.71924 67.2362 7.71924C66.0322 7.71924 64.926 7.99121 63.9542 8.52753C62.9824 9.05925 62.2031 9.81712 61.6347 10.7767C61.0755 11.7286 60.7928 12.7798 60.7928 13.8998C60.7928 15.5576 61.401 16.9863 62.5989 18.1445C63.7999 19.2981 65.3202 19.8833 67.1186 19.8833C68.289 19.8833 69.3478 19.6571 70.2661 19.211C71.1799 18.7633 71.9118 18.1445 72.4633 17.3377C72.4633 17.3377 72.4695 17.3301 72.4801 17.3117L70.9843 15.7822L70.7551 16.0695C69.823 17.2399 68.6542 17.8098 67.1766 17.8098C66.3836 17.8098 65.6624 17.6341 65.0299 17.2873C64.4034 16.945 63.9038 16.4515 63.5447 15.8266C63.181 15.1894 62.9977 14.5033 62.9977 13.7898C62.9977 12.6774 63.3827 11.7591 64.1727 10.986C64.9733 10.2083 65.9558 9.82934 67.1766 9.82934H67.1782V9.83087Z" fill="#F9F7E7"/>
<path d="M44.9465 13.2412C44.9465 13.2412 44.9465 13.2305 44.945 13.2259C44.8304 11.9042 44.317 10.7292 43.4109 9.72691C43.2215 9.52063 43.0213 9.33117 42.815 9.15851C42.5247 8.91557 42.2176 8.70776 41.8937 8.53205C41.6309 8.38231 41.3589 8.25396 41.0762 8.15006C40.3841 7.86434 39.6308 7.71765 38.8317 7.71765C37.4458 7.71765 36.2189 8.1577 35.1738 9.02558C34.7597 9.32506 34.4174 9.66273 34.1302 10.0539C33.765 10.5505 33.4854 11.0944 33.2928 11.6644L35.0592 13.4352C35.105 12.8439 35.2838 12.2664 35.5924 11.7132C35.6719 11.5711 35.7574 11.4382 35.8491 11.3083C35.9347 11.2014 36.0264 11.0975 36.1272 10.9966C36.8927 10.2174 37.8034 9.83845 38.9096 9.83845C39.6232 9.83845 40.2848 10.0172 40.8807 10.3732C41.2031 10.5612 41.4918 10.7919 41.744 11.0623L44.9465 14.2726L44.9435 13.2397H44.945V13.2412H44.9465Z" fill="#F9F7E7"/>
<path d="M42.3087 15.8892C42.2292 16.0313 42.1436 16.1642 42.052 16.2941C41.9664 16.401 41.8747 16.5049 41.7739 16.6058C41.0084 17.385 40.0977 17.764 38.9915 17.764C38.2779 17.764 37.6163 17.5852 37.0204 17.2292C36.8355 17.1222 36.6629 16.9985 36.4994 16.864L35.9952 16.3583L32.9576 13.3146C32.9469 13.472 33.0004 23.7979 33.0004 23.7979H35.0891V18.424C35.6208 18.8794 36.2014 19.2232 36.8279 19.4554C37.5201 19.7411 38.2733 19.8878 39.0725 19.8878C40.4583 19.8878 41.6837 19.4478 42.7304 18.5799C43.1444 18.2804 43.4867 17.9427 43.774 17.5516C44.159 17.0275 44.4508 16.4515 44.6434 15.8464L42.8526 14.051C42.8221 14.6836 42.6418 15.3024 42.3132 15.8922L42.3087 15.8892Z" fill="#F9F7E7"/>
<path d="M94.0372 15.4216C93.6354 16.0893 93.2641 16.5722 92.9295 16.8594C92.6071 17.1406 92.2052 17.3743 91.7407 17.5516C91.2701 17.7242 90.7781 17.8129 90.2785 17.8129C89.2502 17.8129 88.4098 17.4614 87.7115 16.7387C87.0912 16.0909 86.7413 15.2978 86.6496 14.3261H96.3032L96.3017 13.9196C96.294 12.3642 95.8693 11.044 95.0365 9.9928C93.8615 8.49999 92.277 7.74365 90.3289 7.74365C88.3808 7.74365 86.8742 8.48471 85.7389 9.9439C84.8466 11.0807 84.3959 12.3963 84.3959 13.8509C84.3959 15.3926 84.9276 16.7937 85.9773 18.0191C87.0423 19.2537 88.529 19.8802 90.3992 19.8802C91.2365 19.8802 92.0005 19.7534 92.6758 19.4997C93.3481 19.24 93.9624 18.8595 94.5017 18.369C94.983 17.9305 95.4139 17.3621 95.7806 16.6791L94.213 15.1389L94.0418 15.4247L94.0372 15.4216ZM93.2641 11.2121C93.4979 11.5009 93.6919 11.8737 93.8463 12.3245H86.9262C87.1722 11.6659 87.493 11.1525 87.8872 10.798C88.5763 10.1792 89.3785 9.87973 90.3381 9.87973C90.9172 9.87973 91.4764 10.0065 92.0051 10.2556C92.5276 10.4955 92.9509 10.8179 93.2641 11.2136V11.2121Z" fill="#F9F7E7"/>
<path d="M21.1117 2.38513L21.1591 14.3414C21.1591 14.3414 19.4753 12.7049 18.9344 12.1411C18.0054 11.1739 16.9007 10.2113 16.1673 9.59707C15.4904 9.0302 14.6775 8.63904 13.8066 8.5C13.5957 8.46638 13.3833 8.44805 13.1694 8.44805C11.7026 8.44805 10.497 8.94921 9.484 9.98211C9.20744 10.2633 8.9706 10.5841 8.77503 10.9279C8.45569 11.4887 8.2326 12.1212 8.12718 12.7523C8.1119 12.8424 7.99883 13.3039 8.06147 13.368L5.68856 10.9906C5.94373 10.1884 6.3303 9.42593 6.83911 8.73224C7.21957 8.21427 7.67337 7.76811 8.22038 7.37084C9.6047 6.22335 11.2304 5.63814 13.064 5.63814C14.1229 5.63814 15.1206 5.83066 16.0359 6.2096C16.864 6.51519 17.6341 6.97052 18.337 7.57406V0.910659C16.8273 0.323926 15.1848 0 13.4674 0C6.0293 0 0 6.04305 0 13.4964C0 17.8297 2.03829 21.6862 5.20573 24.1554L5.16142 13.0915C5.16142 13.0915 6.84522 14.7279 7.38612 15.2917C8.31511 16.2589 9.41982 17.2215 10.1532 17.8358C10.8301 18.4027 11.643 18.7938 12.5139 18.9329C12.7248 18.9665 12.9372 18.9848 13.1511 18.9848C14.6179 18.9848 15.8235 18.4836 16.8365 17.4507C17.1131 17.1696 17.3499 16.8487 17.5455 16.5049C17.8648 15.9442 18.0879 15.3116 18.1933 14.6806C18.2086 14.5904 18.3217 14.129 18.259 14.0648L20.6319 16.4423C20.3768 17.2445 19.9902 18.0069 19.4814 18.7006C19.1009 19.2186 18.6471 19.6647 18.1001 20.062C16.7158 21.2095 15.0901 21.7947 13.2565 21.7947C12.1976 21.7947 11.1999 21.6022 10.2846 21.2232C9.45649 20.9177 8.68641 20.4623 7.98355 19.8588V25.8254C9.65971 26.5757 11.5146 26.9928 13.4689 26.9928C20.907 26.9928 26.9363 20.9497 26.9363 13.4964C26.9363 8.88657 24.6306 4.81763 21.1132 2.3836L21.1117 2.38513Z" fill="#F9F7E7"/>
</svg>
