<svg width="161" height="25" viewBox="0 0 161 25" fill="none" xmlns="http://www.w3.org/2000/svg">
<path d="M6.04252 0.0418904L0.929081 2.83458C0.754759 2.89044 0.754759 3.11385 0.929081 3.16971L12.8992 9.76046C13.0154 9.81632 13.1897 9.81632 13.3059 9.76046L18.4194 6.96777C18.5937 6.91192 18.5937 6.6885 18.4194 6.63265L6.50737 0.0418904C6.33305 -0.0139635 6.21684 -0.0139635 6.04252 0.0418904Z" fill="#F9F7E7"/>
<path d="M19.6977 0.0418151L14.5842 2.83451C14.4099 2.89036 14.4099 3.11378 14.5842 3.16963L19.7558 6.07403C19.872 6.12989 20.0463 6.12989 20.1625 6.07403L25.276 3.28134C25.4503 3.22549 25.4503 3.00207 25.276 2.94622L20.1044 0.0976681C19.9882 -0.0140396 19.8139 -0.0140387 19.6977 0.0418151Z" fill="#F9F7E7"/>
<path d="M13.7122 11.2684V16.9097C13.7122 17.0772 13.8865 17.1889 14.0608 17.0772L19.2323 14.2287C19.2905 14.1728 19.3486 14.117 19.3486 14.0611V8.25232C19.3486 8.08476 19.1742 7.97305 18.9999 8.08476L13.9446 10.8775C13.7703 10.9892 13.7122 11.1009 13.7122 11.2684Z" fill="#F9F7E7"/>
<path d="M20.686 7.13529L25.7994 4.3426C25.9157 4.28675 26.1481 4.3426 26.1481 4.51016V17.6917C26.1481 17.8592 26.09 17.9709 25.9157 18.0268L14.0037 24.6176C13.8875 24.6734 13.655 24.6176 13.655 24.45V18.8088C13.655 18.6412 13.7131 18.5295 13.8875 18.4736L20.2793 14.9548C20.3955 14.899 20.5117 14.7314 20.5117 14.5639V7.52627C20.5117 7.35871 20.5698 7.247 20.686 7.13529Z" fill="#F9F7E7"/>
<path d="M12.5512 11.2127V17.0215C12.5512 17.1332 12.4349 17.189 12.3187 17.1332L6.04315 13.6702C5.92694 13.6144 5.69451 13.6702 5.69451 13.8378V20.652C5.69451 20.8195 5.52019 20.9312 5.34587 20.8195L0.232429 18.0268C0.116214 17.971 0 17.8034 0 17.6917V4.45435C0 4.28679 0.174322 4.17508 0.348644 4.28679L12.3187 10.8775C12.4349 10.9334 12.5512 11.101 12.5512 11.2127Z" fill="#F9F7E7"/>
<path d="M7.14771 15.5692L12.2612 18.4178C12.3774 18.4736 12.4936 18.6412 12.4936 18.7529V24.45C12.4936 24.6175 12.3193 24.7293 12.1449 24.6175L7.0315 21.769C6.91529 21.7131 6.79907 21.5456 6.79907 21.4339V15.7926C6.85718 15.6251 7.0315 15.5134 7.14771 15.5692Z" fill="#F9F7E7"/>
<path d="M45.9615 8.58753C45.9615 10.9892 44.2764 12.3856 42.2426 12.609C41.5453 12.6649 41.0805 12.7207 40.267 12.7207H38.2332V17.6917H35.5022V4.45435H40.267C41.0805 4.45435 41.6035 4.45435 42.2426 4.56605C44.3345 4.78947 45.9615 6.12996 45.9615 8.58753ZM43.0561 8.58753C43.0561 7.35875 42.3589 6.74435 41.4291 6.63265C41.1386 6.57679 40.7318 6.57679 40.2089 6.57679H38.2332V10.5983H40.2089C40.7318 10.5983 41.1386 10.5983 41.4291 10.5424C42.417 10.3749 43.0561 9.81632 43.0561 8.58753Z" fill="#F9F7E7"/>
<path d="M53.4593 7.3028V9.42525C51.1931 9.25769 50.031 10.2631 50.031 12.9999V17.6358H47.2999V7.47036H50.031V9.31354L50.8445 7.9172C51.3674 7.47036 52.0647 7.24695 52.6458 7.24695C52.9944 7.24695 53.2269 7.24695 53.4593 7.3028Z" fill="#F9F7E7"/>
<path d="M64.9058 12.5531C64.9058 15.6251 62.9302 17.9151 59.4438 17.9151C55.9573 17.9151 53.9817 15.6251 53.9817 12.5531C53.9817 9.48117 55.9573 7.19116 59.4438 7.19116C62.9302 7.19116 64.9058 9.48117 64.9058 12.5531ZM62.0586 12.5531C62.0586 10.3748 61.0708 9.03434 59.4438 9.03434C57.8168 9.03434 56.8289 10.319 56.8289 12.5531C56.8289 14.7314 57.8168 16.0719 59.4438 16.0719C61.0708 16.0161 62.0586 14.7314 62.0586 12.5531Z" fill="#F9F7E7"/>
<path d="M69.8457 14.0054V14.899C69.9038 15.9044 70.3106 16.1278 71.8214 16.0161V17.7476C71.1822 17.8593 70.6011 17.8593 70.02 17.8593C67.9863 17.8593 67.2309 17.1891 67.1147 15.7927C67.0566 15.3459 67.0566 14.899 67.0566 14.3405V9.31366H65.4877V7.58219H67.0566V4.23096H69.7876V7.58219H71.9957V9.31366H69.7876V14.0054H69.8457Z" fill="#F9F7E7"/>
<path d="M83.6753 12.5531C83.6753 15.6251 81.6996 17.9151 78.2132 17.9151C74.7267 17.9151 72.7511 15.6251 72.7511 12.5531C72.7511 9.48117 74.7267 7.19116 78.2132 7.19116C81.6996 7.19116 83.6753 9.48117 83.6753 12.5531ZM80.8861 12.5531C80.8861 10.3748 79.8983 9.03434 78.2713 9.03434C76.6443 9.03434 75.6565 10.319 75.6565 12.5531C75.6565 14.7314 76.6443 16.0719 78.2713 16.0719C79.8402 16.0161 80.8861 14.7314 80.8861 12.5531Z" fill="#F9F7E7"/>
<path d="M94.7735 11.1567H92.1006C91.8681 9.70453 91.0546 9.09014 89.8925 9.09014C88.4979 9.09014 87.5101 10.1514 87.5101 12.4972C87.5101 15.0107 88.4979 16.0719 89.8925 16.0719C90.9384 16.0719 91.7519 15.4016 92.0425 14.117H94.7735C94.3086 16.6304 92.3911 17.9151 89.7182 17.9151C86.8128 17.9151 84.6628 16.1836 84.6628 12.6648C84.6628 9.20185 87.0452 7.24696 89.9506 7.24696C92.7979 7.19111 94.5992 8.86672 94.7735 11.1567Z" fill="#F9F7E7"/>
<path d="M106.686 12.5531C106.686 15.6251 104.71 17.9151 101.224 17.9151C97.7372 17.9151 95.7616 15.6251 95.7616 12.5531C95.7616 9.48117 97.7372 7.19116 101.224 7.19116C104.71 7.19116 106.686 9.48117 106.686 12.5531ZM103.838 12.5531C103.838 10.3748 102.851 9.03434 101.224 9.03434C99.5967 9.03434 98.6088 10.319 98.6088 12.5531C98.6088 14.7314 99.5967 16.0719 101.224 16.0719C102.851 16.0161 103.838 14.7314 103.838 12.5531Z" fill="#F9F7E7"/>
<path d="M107.905 17.6358V4.17505H110.636V17.6358H107.905Z" fill="#F9F7E7"/>
<path d="M127.603 17.6358H117.724V4.17505H120.455V15.4575H127.603V17.6358Z" fill="#F9F7E7"/>
<path d="M134.982 16.1278L134.46 17.1891C133.704 17.6918 132.833 17.8593 131.845 17.8593C130.043 17.8593 128.474 16.8539 128.474 14.8991C128.474 12.6649 130.45 11.3803 134.285 11.3803H134.982V11.1569C134.982 10.8776 134.982 10.5425 134.924 10.2073C134.866 9.48124 134.343 8.97855 133.297 8.97855C132.193 8.97855 131.612 9.59295 131.554 10.71H128.881C128.939 8.42001 130.915 7.13538 133.414 7.13538C136.377 7.13538 137.481 8.36416 137.655 10.1515C137.714 10.6542 137.714 11.1569 137.714 11.7154V15.0108C137.714 15.7927 137.772 16.463 137.888 17.58H135.215L134.982 16.1278ZM134.982 13.8937V13.0559C132.774 12.8883 131.322 13.391 131.322 14.7315C131.322 15.6252 131.961 16.072 132.949 16.072C134.053 16.0161 134.982 15.29 134.982 13.8937Z" fill="#F9F7E7"/>
<path d="M150.73 12.3856C150.73 16.0719 148.406 17.9151 145.675 17.9151C144.803 17.9151 143.757 17.6917 143.176 17.3566L142.479 16.2953V17.6358H139.748V4.17505H142.479V9.03433L143.292 7.91726C143.873 7.47043 144.977 7.19116 146.023 7.19116C148.987 7.19116 150.73 9.36946 150.73 12.3856ZM147.883 12.5531C147.883 10.4865 146.837 9.09019 145.21 9.09019C143.699 9.09019 142.479 9.98385 142.479 12.4414V12.9441C142.479 15.2341 143.873 16.0719 145.093 16.0719C146.72 16.0161 147.883 14.899 147.883 12.5531Z" fill="#F9F7E7"/>
<path d="M160.376 10.4308H157.645C157.471 9.48124 156.948 8.97855 156.018 8.97855C155.204 8.97855 154.739 9.42538 154.739 10.0398C154.739 10.8217 155.379 11.2127 157.122 11.6037C159.272 12.1622 160.55 13 160.55 14.8432C160.55 16.9098 158.633 17.8593 156.192 17.8593C153.635 17.8593 151.834 16.7981 151.544 14.5081H154.275C154.507 15.6252 155.262 16.1278 156.25 16.1278C157.122 16.1278 157.819 15.7927 157.819 15.0108C157.819 14.2288 157.122 13.782 155.321 13.3352C153.345 12.8325 152.008 12.0505 152.008 10.2632C152.008 8.30831 153.694 7.13538 156.192 7.13538C158.691 7.19123 160.143 8.58758 160.376 10.4308Z" fill="#F9F7E7"/>
</svg>
