<svg width="76" height="28" viewBox="0 0 76 28" fill="none" xmlns="http://www.w3.org/2000/svg">
<g clip-path="url(#clip0_4932_875)">
<path d="M4 4H0V8H4V4Z" fill="#F9F7E7"/>
<path d="M4 0H0V4H4V0Z" fill="#F9F7E7"/>
<path d="M4 8H0V12H4V8Z" fill="#F9F7E7"/>
<path d="M8 4H4V8H8V4Z" fill="#F9F7E7"/>
<path d="M8 0H4V4H8V0Z" fill="#F9F7E7"/>
<path d="M72 16H68V20H72V16Z" fill="#F9F7E7"/>
<path d="M32 4H28V8H32V4Z" fill="#F9F7E7"/>
<path d="M32 0H28V4H32V0Z" fill="#F9F7E7"/>
<path d="M72 4H68V8H72V4Z" fill="#F9F7E7"/>
<path d="M72 20H68V24H72V20Z" fill="#F9F7E7"/>
<path d="M32 8H28V12H32V8Z" fill="#F9F7E7"/>
<path d="M36 8H32V12H36V8Z" fill="#F9F7E7"/>
<path d="M48 8H44V12H48V8Z" fill="#F9F7E7"/>
<path d="M64 8H60V12H64V8Z" fill="#F9F7E7"/>
<path d="M40 8H36V12H40V8Z" fill="#F9F7E7"/>
<path d="M40 4H36V8H40V4Z" fill="#F9F7E7"/>
<path d="M52 8H48V12H52V8Z" fill="#F9F7E7"/>
<path d="M56 8H52V12H56V8Z" fill="#F9F7E7"/>
<path d="M72 0H68V4H72V0Z" fill="#F9F7E7"/>
<path d="M76 0H72V4H76V0Z" fill="#F9F7E7"/>
<path d="M76 16H72V20H76V16Z" fill="#F9F7E7"/>
<path d="M72 8H68V12H72V8Z" fill="#F9F7E7"/>
<path d="M76 8H72V12H76V8Z" fill="#F9F7E7"/>
<path d="M36 4H32V8H36V4Z" fill="#F9F7E7"/>
<path d="M36 0H32V4H36V0Z" fill="#F9F7E7"/>
<path d="M48 4H44V8H48V4Z" fill="#F9F7E7"/>
<path d="M48 0H44V4H48V0Z" fill="#F9F7E7"/>
<path d="M64 4H60V8H64V4Z" fill="#F9F7E7"/>
<path d="M64 0H60V4H64V0Z" fill="#F9F7E7"/>
<path d="M16 4H12V8H16V4Z" fill="#F9F7E7"/>
<path d="M16 0H12V4H16V0Z" fill="#F9F7E7"/>
<path d="M24 0H20V4H24V0Z" fill="#F9F7E7"/>
<path d="M16 8H12V12H16V8Z" fill="#F9F7E7"/>
<path d="M20 8H16V12H20V8Z" fill="#F9F7E7"/>
<path d="M24 8H20V12H24V8Z" fill="#F9F7E7"/>
<path d="M24 4H20V8H24V4Z" fill="#F9F7E7"/>
<path d="M4 16H0V20H4V16Z" fill="#F9F7E7"/>
<path d="M4 20H0V24H4V20Z" fill="#F9F7E7"/>
<path d="M12 20H8V24H12V20Z" fill="#F9F7E7"/>
<path d="M16 20H12V24H16V20Z" fill="#F9F7E7"/>
<path d="M16 16H12V20H16V16Z" fill="#F9F7E7"/>
<path d="M8 16H4V20H8V16Z" fill="#F9F7E7"/>
<path d="M52 16H48V20H52V16Z" fill="#F9F7E7"/>
<path d="M52 20H48V24H52V20Z" fill="#F9F7E7"/>
<path d="M72 28H76V24H72V28Z" fill="#F9F7E7"/>
<path d="M60 20H56V24H60V20Z" fill="#F9F7E7"/>
<path d="M64 20H60V24H64V20Z" fill="#F9F7E7"/>
<path d="M64 16H60V20H64V16Z" fill="#F9F7E7"/>
<path d="M56 16H52V20H56V16Z" fill="#F9F7E7"/>
<path d="M24 16H20V20H24V16Z" fill="#F9F7E7"/>
<path d="M24 20H20V24H24V20Z" fill="#F9F7E7"/>
<path d="M28 16H24V20H28V16Z" fill="#F9F7E7"/>
<path d="M36 16H32V20H36V16Z" fill="#F9F7E7"/>
<path d="M36 20H32V24H36V20Z" fill="#F9F7E7"/>
<path d="M40 20H36V24H40V20Z" fill="#F9F7E7"/>
<path d="M44 20H40V24H44V20Z" fill="#F9F7E7"/>
<path d="M44 16H40V20H44V16Z" fill="#F9F7E7"/>
<path d="M28 20H24V24H28V20Z" fill="#F9F7E7"/>
</g>
<defs>
<clipPath id="clip0_4932_875">
<rect width="76" height="28" fill="white"/>
</clipPath>
</defs>
</svg>
