<svg width="450" height="28" viewBox="0 0 450 28" fill="none" xmlns="http://www.w3.org/2000/svg">
<path d="M228.867 7.63972C229.194 6.59125 230.392 3.54114 229.956 2.87393L223.42 1.82547V0.872314H246.296C246.405 2.96926 246.732 2.68332 244.662 2.77863C240.85 3.06458 235.403 1.73016 231.046 2.77863C228.431 4.87558 240.85 13.4539 243.791 14.0258C251.961 15.6462 265.142 12.2149 273.965 14.2165L275.163 12.3102C276.253 12.3102 274.728 14.0259 277.233 14.3118C290.85 15.8369 306.209 13.5493 319.826 13.454C333.442 13.3587 329.847 15.6463 334.532 13.2634V16.1229C317.102 14.7884 299.237 14.7884 281.699 15.1697C264.161 15.551 271.024 16.5994 265.904 16.79C254.139 17.2666 233.224 11.4524 232.789 27.5608C229.521 26.0357 230.828 21.7465 229.847 20.1261C228.867 18.5057 222.658 15.4556 221.677 15.3603C213.399 15.4556 202.614 17.2666 194.662 17.1713C189.542 17.1713 184.314 14.2165 178.867 15.1697C178.649 13.8353 181.917 13.6446 183.006 13.5493C186.928 13.2633 189.869 14.9791 193.573 12.2149L196.841 15.1697C199.346 14.9791 200.545 13.454 203.268 13.1681C208.388 12.5009 215.577 14.3118 219.499 13.9306C223.42 13.5493 226.035 8.21164 228.867 7.54443C227.778 10.5945 226.906 11.7383 224.51 14.2165L231.046 18.0292L228.867 13.2634C238.344 13.0728 232.135 16.5994 232.135 19.4589L234.314 19.9355L237.582 13.2634L232.68 10.4039L228.867 12.3102L231.046 8.02101C231.046 7.25848 229.412 7.3538 228.867 7.54443V7.63972Z" fill="#D5CECD"/>
<path d="M19.7168 13.3591L16.9934 8.59326L24.8366 13.1685L45.7517 15.2654C36.9281 15.2654 28.1046 14.8841 19.6079 17.1717L20.6972 14.3122C19.9347 13.645 2.17865 18.0295 0 13.3591H19.6079H19.7168Z" fill="#D5CECD"/>
<path d="M440.741 14.3118C443.791 13.7399 446.514 8.11624 450 10.0226L443.464 14.3118L447.821 18.1244C440.414 15.4556 434.314 15.5509 426.579 15.2649C418.845 14.979 422.549 16.0275 422.767 14.3118C427.996 13.6446 435.948 15.2649 440.741 14.3118Z" fill="#D5CECD"/>
<path d="M177.668 14.312V15.2652H134.64C133.878 15.2652 131.917 17.4574 130.827 14.312H177.668Z" fill="#D5CECD"/>
<path d="M127.56 14.3118C126.797 16.5994 112.854 17.6479 112.309 17.1713C111.656 10.0226 122.549 15.8369 127.56 14.3118Z" fill="#D5CECD"/>
<path d="M258.823 1.9211C257.734 1.9211 255.773 3.54147 253.921 2.87425L256.644 1.06323C262.418 1.92107 268.627 -0.080539 273.965 0.014777C279.302 0.110093 277.124 -0.557118 276.688 1.9211C270.697 2.20704 264.705 1.53983 258.714 1.9211H258.823Z" fill="#D5CECD"/>
<path d="M216.884 0.967865C214.379 3.92266 205.664 4.11329 202.723 1.44444C207.189 -0.366558 212.091 1.44444 216.884 0.967865Z" fill="#D5CECD"/>
</svg>
