<?xml version="1.0" encoding="UTF-8"?>
<svg id="Layer_1" xmlns="http://www.w3.org/2000/svg" version="1.1" viewBox="0 0 1280 886">
  <!-- Generator: Adobe Illustrator 29.8.2, SVG Export Plug-In . SVG Version: 2.1.1 Build 3)  -->
  <defs>
    <style>
      .st0 {
        fill: #d5cecd;
      }
    </style>
  </defs>
  <path class="st0" d="M458.9,451.565c-7.024-36.875,18.437-71.115,12.291-107.112l40.387-33.363-17.56-17.559c-68.481,38.63-46.532,123.793-70.676,177.788-24.144,53.995-25.022,20.632-32.924,34.68-7.902,14.047,10.536,22.827-8.341,25.9.439-14.487-17.998-54.873,2.195-59.263l14.487,10.975c35.996-66.726,10.974-154.962,82.09-204.128,0-6.146-85.602-68.92-83.407-92.186-10.975,10.974-21.949,21.949-32.924,32.923-10.975,10.975-12.73,19.755-19.754,10.975,60.58-52.678,66.286-65.409,11.414-121.16-54.873-55.751-19.755-11.852-26.778-17.998-24.584-24.583-47.85-50.483-74.628-73.749-26.778-23.266-6.585-7.463,2.195-15.364l151.449,142.669,17.56,4.39-2.195-15.364c20.193,2.634,44.337,37.313,57.068,21.949l4.39,4.39c-17.56,17.559,10.096,28.534,17.559,43.898l13.169-13.17,21.95,39.509c43.898-67.604,113.696-52.239,179.983-74.627l6.585,19.754c-61.897,5.707-138.28,9.219-177.789,63.653l21.949,21.949,2.196-20.633,23.266-14.486-3.512-21.949c7.023,7.024,14.047,11.413,24.144,11.852,10.097.439,126.427-31.606,131.695-35.996,21.949-16.682-44.776-34.241-19.754-50.483,10.974,13.608,18.876,10.974,32.923,6.584-18.437,44.777,33.802,28.534,56.629,35.558,22.828,7.024,54.873,37.314,64.092,58.824l35.119-35.119c19.316,28.095-38.192,29.412,10.974,59.263l37.312-37.314-30.73,4.39-8.777-17.559,64.087-14.926c16.69,28.095,23.71,52.678,7.91,83.407l-19.76-15.364,18.44-10.536-5.27-28.973c-9.22,4.829-9.22,18.877-14.92,23.705-5.71,4.829-32.49-8.779-36,26.339l33.36,36.875c6.15,0,29.41-42.581,48.29-30.729-26.78,26.778-56.19,80.773-4.39,92.187-14.05,17.559,6.15,37.752,10.54,59.701,4.39,21.95,1.75,64.97-3.95,75.067l-13.17-4.39c-5.71,42.581-6.59,76.822,4.39,118.525l-13.61-4.828-36.88,46.536,26.34,26.33c11.42,0,33.36-53.551,52.68-43.893l-48.29,48.283,45.66,45.66-14.49,29.41,12.73,12.73,14.93-10.53-3.96,30.29c28.54.43,30.29,30.29,52.24,43.46l25.9-7.47,10.54,19.32-15.37,2.19-4.39,13.17,17.56,13.17c-17.99,1.32-22.38-18.87-39.5-8.78l-6.59-6.58c21.95-25.46-21.95-36.88-34.68-48.73s-22.83-33.36-36.87-41.26c-14.05-7.91-17.56,13.17-31.61,8.78-14.05-4.39-27.66-27.66-41.7-37.32l-43.902,33.36c-14.486-3.95-57.068-22.82-70.237-21.94-13.17.87-77.7,18.87-81.651,21.07-11.414,6.14-11.414,15.8-19.316,24.58-7.023-28.1-41.264-18.44-68.042-25.9s-79.456-36.44-96.576-32.49c-31.168,6.59-34.241,39.51-61.458,43.03l28.534-32.93-52.678-43.9-30.729,39.51c18.876,1.32,0,15.81,17.559,26.34-16.681,8.78-18.876-6.58-26.339-17.56l-26.339,43.9c-54.434-47.41,18.876-30.29,15.365-68.04,18.437,11.41,33.362-14.93,44.337-31.17-33.363-26.34,7.024-49.17-13.609-74.189-3.95,6.585-8.34,23.269-10.096,30.289-1.756,7.02-4.829,10.1,3.073,15.37-5.707,9.21-21.51-11.86-21.071-13.17,0-2.64,13.169-10.54,14.486-24.148,1.317-13.609-26.339-65.848-32.485-87.797-6.146-21.949-16.242-75.066,12.731-50.483-13.17,16.681-2.195,41.704,4.829,59.263,7.023,17.559,41.264,90.435,65.408,54.873l-13.169-7.024-25.9-67.165,48.288,65.848c15.803-12.292,21.51-26.778,8.779-43.898,12.731-22.389,20.194,28.973,26.339,0-4.389,21.949,5.707,33.801,21.95,48.288-12.292,7.024-22.828-5.268-30.729-13.17l-48.288,48.293c11.852,9.21,66.286,70.67,76.822,68.92,22.388-4.83,36.435-40.83,35.118-62.34l-23.266,10.97,3.512,21.95c-21.51-4.82-34.68-34.68-52.678-17.56l-4.39-21.94h35.119l-6.146,11.41,14.926,14.92c11.413-23.7,26.339-32.48,0-52.673,10.096-11.853,26.339-19.316,24.144-37.314l-24.144,2.195,17.12-17.121c-.439-.439-30.29-39.947-30.29-39.947l-8.78,35.119c.439-3.073-17.12-42.582-18.437-53.556-1.317-10.975,7.902-22.827,1.317-33.802-10.974,13.608-18.437,11.414-32.924,6.585,12.292,21.949-7.462,34.679-8.779,48.288-1.317,13.608,19.754,17.998,2.195,28.534-23.267-28.534,4.389-42.143-7.902-66.726l-20.632-1.317v43.899c-21.511-3.951-8.341-25.022-9.658-39.509-1.317-14.486-8.78-27.217-8.78-28.973.878-5.268,16.682-7.902,21.072-13.169.878,6.145,11.852,41.703,24.144,28.534,12.291-13.17-2.195-19.755,0-26.339,6.146-21.072,6.146-33.363,9.657-48.289,11.853-47.849,27.656-52.239,62.775-85.602l-17.559-17.559c-12.292,25.461-35.119,29.851-51.361,54.873-16.243,25.022-15.365,81.212-27.656,94.382h.878ZM423.781,179.395c-22.388-1.317,24.144,60.141,28.534,62.775,14.925,8.779,35.558-23.267,46.093-32.046-17.998-17.999-36.435-40.826-63.652-41.704l2.194,32.924-13.169-21.949ZM507.188,218.903c-57.946,43.899-28.095,76.384,17.559,17.56l-17.559-17.56ZM537.917,249.632l-35.119,35.119,13.17,13.169,39.508-30.728-17.559-17.56ZM695.951,249.632c3.073-.439,39.948-20.632,41.703-23.266l-4.389-27.217c-43.899,13.17-100.528,12.731-136.085,44.776-35.558,32.046-25.9,38.192-50.045,50.045,7.024,31.606,41.704.439,59.702-14.926,17.999-15.364,16.243-26.778,21.949-29.851,5.707-3.073,45.655-1.756,58.824-4.39,13.17-2.633,7.902,6.146,8.341,5.707-14.925,3.512-29.851,10.536-46.093,10.975l6.584,10.974-21.949,13.17-8.779-17.56-23.706,23.706,10.536,24.583,15.365-10.975,10.974,28.534c-8.341,10.097-17.559-13.17-21.949-13.17-7.024,0-25.022,27.656-8.78,35.119l26.339-8.779c-12.73,10.974-21.51,21.51-8.779,35.118-15.804,9.658-32.924-29.412-39.509-30.729,0,13.17-27.217,44.777-28.095,50.045-.878,5.267,4.829,11.852,3.951,15.364-1.756,7.024-13.17,14.048-17.121,24.144-3.95,10.097,1.317,67.165,5.707,74.188,8.78,14.048,68.482,78.139,82.529,88.675,14.048,10.536,68.043,35.558,82.529,38.631,14.486,3.069,21.51-12.731,43.899,14.049,28.972,0,18.437-41.266,11.413-42.144l-15.364,10.974,3.95-17.998c46.972-17.998,83.846-50.483,105.796-96.138,21.949-45.654,25.022-81.212-11.853-85.601l13.169-21.072,13.17,3.512c-18.437-9.657-29.412-40.825-41.703-50.483-12.292-9.658-27.656-3.073-28.534-10.975-1.317-16.242,27.217,2.634,30.729-4.389l-4.39-21.95,24.144,10.975c2.634-17.559-14.048-26.339-24.144-37.314l-21.949,21.95c-9.219-32.924-140.914-27.656-144.865-13.17-3.951,14.487,14.925,18.437,0,26.339l-15.804-35.118,17.999-22.389,129.939,4.39c-22.827-14.925-46.093-20.632-57.068-48.288-14.486,25.022-32.485,17.559-48.288,21.949ZM542.307,357.622l-10.975-4.829c-.878,35.997-30.729,79.895-10.975,116.331,10.536,0,13.609-58.385,19.316-68.481,5.706-10.097,16.242-13.609,19.754-19.755,6.146-9.657,6.585-26.778,21.949-35.118l-17.559-17.56-21.949,28.973.439.439ZM801.307,214.513l-37.314-24.144c-37.313-2.195,3.951,52.239,12.731,61.019,14.486,13.609,37.314,9.219,50.483,25.022l-26.339,8.78,13.17,13.169,39.508-39.508-92.186-39.509c9.218-13.608,10.096-5.707,19.315-2.634,22.388,6.585,87.797,53.556,87.797,13.17-28.973,0-37.753-38.631-72.433-46.094l4.39,30.729h.878ZM472.069,657.892c-13.169,26.33,88.675,126.42,72.432,63.65l-72.432-63.65ZM871.105,267.63l-25.9,17.121,30.729,30.729,21.949-21.949-26.339-26.34-.439.439ZM893.494,245.242l-17.56,17.56,39.509,30.728-35.119,26.34,35.119,43.898c5.706-24.144,26.776-29.412,43.896-43.898l-65.845-74.628ZM713.51,697.392c-5.707,3.95-46.093,12.73-48.727,11.86-4.39-.88-5.707-12.73-11.414-16.69-5.706-3.95-27.656-2.19-36.874-12.29l-35.119,43.02c-.439,4.83,78.139,36,89.992,39.07,41.703,10.1,82.09-4.83,121.598-13.61,39.509-8.78,26.339,7.91,38.192-11.85l-19.754-2.19,4.389-13.17-50.483,10.97,57.068-30.73h-35.119c26.339-.87,24.145-47.85,30.729-48.28,17.121-1.32-7.463,31.16,6.585,40.82,24.583,7.9,21.071-7.02,26.339-12.29l63.653-63.654-28.534-28.534c-11.414,2.634-37.753,31.607-39.509,43.021-1.756,11.417,21.071,15.807,10.975,25.017-17.56-24.578-32.924-11.85-54.873-2.19-21.949,9.66-8.78,13.17-10.975,13.61-2.195.44-14.925-6.15-24.144-5.71-37.314,2.2-55.312,28.1-7.024,20.19l-21.949,13.17c-.439,3.96,28.095,32.49,8.78,43.9-16.243-29.41,2.634-35.12-35.119-43.9,3.073-3.07,11.853-10.09,12.292-13.16-14.048-33.37-33.363-38.64-67.165-42.586-33.801-3.951-17.12,7.466-22.827,4.386-5.707-3.069-42.581-44.334-27.656-53.992-5.268-7.901-11.852,1.317-15.364,6.585-14.487,25.022,2.194,22.389,10.535,35.119,12.731,17.998,24.144,34.678,45.655,48.288,21.51,13.61,41.703,10.1,63.652,15.36l2.195.44ZM968.119,548.141c8.34,17.12-3.95,32.924,15.37,37.314l13.17-109.746,15.36,1.317c11.41-1.756-3.07-70.677-10.97-80.334-10.98-14.487-20.2,10.535-28.54,15.364l2.2-24.144h-17.56l6.58-19.754,24.15,10.974-9.22-39.947c-7.47-10.975-6.15-3.512-12.73-.439-21.07,11.413-37.756,31.607-59.705,42.142l-30.729-48.288-26.339,26.339c35.119,26.339,49.166,69.359,45.215,111.941-2.194,21.51-15.803,53.556-21.071,79.017s-34.241,40.387-39.069,44.337c-9.219,7.463-14.926-3.512-17.999-.439s-4.39,12.292-9.218,17.121c-12.292,12.291-26.778,10.096-21.072,35.116,29.412-10.094,61.897-26.775,81.212-52.237,19.316-25.461,35.558-52.239,13.17-64.091,24.583,1.756,32.924-70.677,43.898-70.238,10.977.439,16.677,11.414,9.657,16.682l-5.27,14.047c13.61-10.974,28.1-8.779,39.51,4.39l10.98-15.364c0,21.071,2.19,50.483-10.98,68.042-8.34-17.12-15.36-5.707-2.19-37.313l-15.37,10.974c-2.63-13.169,9.66-33.363-16.68-28.095-26.338,5.268-25.899,40.826-32.045,61.019s-11.852,17.12-11.852,19.754c.439,5.707,35.996,40.387,45.217,32.924l15.36-32.924-21.95,4.39c-14.483-10.097-3.509-26.339,9.22-24.144,12.73,2.195,8.78,22.827,30.29-6.585v.878ZM832.036,701.782c-19.755,2.2,6.145,36,22.388,37.32l47.849-37.32-17.12-25.9c-10.975,8.34-21.072,25.46-32.924,32.05-11.853,6.58-17.998-5.71-19.754-5.71l-.439-.44ZM952.759,607.404c-18.44,21.949-44.34,41.708-63.655,63.648l21.949,21.95,83.406-92.183c-8.34-15.364-12.29-.878-21.07-3.512-8.78-2.634-8.34-9.218-9.66-9.657-6.58-.439-8.78,17.559-10.97,19.754ZM911.053,710.562l-48.288,39.51c28.094,20.19,51.8,7.9,74.624-13.17l-26.336-26.34ZM954.949,666.662l-35.117,35.12,74.627,74.63,13.17-13.17c-25.46-11.41-85.163-68.48-24.14-59.26l46.09,37.31-74.63-74.63Z"/>
  <path class="st0" d="M1032.109,159.305l8.34-8.34c-15.8-15.804,16.68-29.851,26.78-44.338l13.17,13.17c-24.58,14.047-47.41,44.776-54.87,72.432-36.44,4.829-23.71-57.068,6.58-32.924Z"/>
  <path class="st0" d="M637.028,457.809l57.068,65.847,13.169-13.169-30.728-21.95,28.533-2.194c10.097-51.362,80.335-46.094,2.195-89.992,39.07-23.266,44.777,60.58,94.382,32.924-9.219,25.9-12.292,34.24,10.974,54.873-38.63-2.634-35.118,44.776-68.042,46.093,21.949-18.437,52.678-79.017,8.78-83.407-11.853,7.463,3.95,29.412.439,39.07-3.512,9.657-14.048,6.145-18.438,21.949-4.39,15.803,5.268,34.24,4.829,48.727l-15.364-10.975-32.485,46.533-44.337-9.219c10.535-21.071,34.24,14.047,50.483-10.975l-21.949-30.729-6.585,24.145c-17.121,1.317-7.463-37.314,2.195-37.314l17.559,8.78-65.848-74.628,72.433-81.212,10.974,6.585-70.237,70.238Z"/>
</svg>