<svg width="105" height="105" viewBox="0 0 105 105" fill="none" xmlns="http://www.w3.org/2000/svg">
<path d="M52.251 0.5625C80.7974 0.562694 103.938 23.7045 103.938 52.251C103.938 80.7973 80.7973 103.938 52.251 103.938C23.7045 103.938 0.56269 80.7974 0.5625 52.251C0.5625 23.7044 23.7044 0.5625 52.251 0.5625Z" fill="#F9F7E7" stroke="#29100A" stroke-width="1.125"/>
<path d="M76.129 33.687H74.187V35.6486H76.129V33.687Z" fill="black"/>
<path d="M76.129 31.7451H74.187V33.6871H76.129V31.7451Z" fill="black"/>
<path d="M74.1871 33.687H72.2255V35.6486H74.1871V33.687Z" fill="black"/>
<path d="M74.1871 31.7451H72.2255V33.6871H74.1871V31.7451Z" fill="#0404BF"/>
<path d="M74.1871 29.7837H72.2255V31.7453H74.1871V29.7837Z" fill="black"/>
<path d="M72.2227 33.687H70.2639V35.6486H72.2227V33.687Z" fill="black"/>
<path d="M72.2227 31.7451H70.2639V33.6871H72.2227V31.7451Z" fill="#0404BF"/>
<path d="M72.2227 29.7837H70.2639V31.7453H72.2227V29.7837Z" fill="black"/>
<path d="M70.2638 84.4761H68.3218V86.4209H70.2638V84.4761Z" fill="black"/>
<path d="M70.2638 82.5171H68.3218V84.4759H70.2638V82.5171Z" fill="black"/>
<path d="M70.2638 80.5752H68.3218V82.5172H70.2638V80.5752Z" fill="black"/>
<path d="M70.2638 78.6108H68.3218V80.5724H70.2638V78.6108Z" fill="black"/>
<path d="M70.2638 76.6687H68.3218V78.6107H70.2638V76.6687Z" fill="black"/>
<path d="M70.2638 62.9963H68.3218V64.9383H70.2638V62.9963Z" fill="black"/>
<path d="M70.2638 61.0347H68.3218V62.9963H70.2638V61.0347Z" fill="black"/>
<path d="M70.2638 59.0732H68.3218V61.032H70.2638V59.0732Z" fill="black"/>
<path d="M70.2638 57.1311H68.3218V59.0731H70.2638V57.1311Z" fill="black"/>
<path d="M70.2638 55.1694H68.3218V57.131H70.2638V55.1694Z" fill="black"/>
<path d="M70.2638 53.2275H68.3218V55.1695H70.2638V53.2275Z" fill="black"/>
<path d="M70.2638 51.2632H68.3218V53.2248H70.2638V51.2632Z" fill="black"/>
<path d="M70.2638 49.3213H68.3218V51.2633H70.2638V49.3213Z" fill="black"/>
<path d="M70.2638 47.3596H68.3218V49.3212H70.2638V47.3596Z" fill="black"/>
<path d="M70.2638 45.4175H68.3218V47.3595H70.2638V45.4175Z" fill="black"/>
<path d="M70.2638 43.4561H68.3218V45.4177H70.2638V43.4561Z" fill="black"/>
<path d="M70.2638 33.687H68.3218V35.6486H70.2638V33.687Z" fill="black"/>
<path d="M70.2638 31.7451H68.3218V33.6871H70.2638V31.7451Z" fill="#0404BF"/>
<path d="M70.2638 29.7837H68.3218V31.7453H70.2638V29.7837Z" fill="#0404BF"/>
<path d="M70.2638 27.8218H68.3218V29.7834H70.2638V27.8218Z" fill="black"/>
<path d="M68.3219 84.4761H66.3604V86.4209H68.3219V84.4761Z" fill="#030384"/>
<path d="M68.3219 82.5171H66.3604V84.4759H68.3219V82.5171Z" fill="#030384"/>
<path d="M68.3219 80.5752H66.3604V82.5172H68.3219V80.5752Z" fill="#030384"/>
<path d="M68.3219 78.6108H66.3604V80.5724H68.3219V78.6108Z" fill="#030384"/>
<path d="M68.3219 76.6687H66.3604V78.6107H68.3219V76.6687Z" fill="#030384"/>
<path d="M68.3219 74.7073H66.3604V76.6689H68.3219V74.7073Z" fill="black"/>
<path d="M68.3219 72.7485H66.3604V74.7073H68.3219V72.7485Z" fill="black"/>
<path d="M68.3219 70.8008H66.3604V72.7456H68.3219V70.8008Z" fill="black"/>
<path d="M68.3219 68.8447H66.3604V70.8035H68.3219V68.8447Z" fill="black"/>
<path d="M68.3219 66.8999H66.3604V68.8419H68.3219V66.8999Z" fill="black"/>
<path d="M68.3219 64.9382H66.3604V66.8998H68.3219V64.9382Z" fill="black"/>
<path d="M68.3219 62.9963H66.3604V64.9383H68.3219V62.9963Z" fill="#E5A070"/>
<path d="M68.3219 61.0347H66.3604V62.9963H68.3219V61.0347Z" fill="#0404BF"/>
<path d="M68.3219 59.0732H66.3604V61.032H68.3219V59.0732Z" fill="#0404BF"/>
<path d="M68.3219 57.1311H66.3604V59.0731H68.3219V57.1311Z" fill="#0404BF"/>
<path d="M68.3219 55.1694H66.3604V57.131H68.3219V55.1694Z" fill="#0404BF"/>
<path d="M68.3219 53.2275H66.3604V55.1695H68.3219V53.2275Z" fill="#0404BF"/>
<path d="M68.3219 51.2632H66.3604V53.2248H68.3219V51.2632Z" fill="#0404BF"/>
<path d="M68.3219 49.3213H66.3604V51.2633H68.3219V49.3213Z" fill="#0404BF"/>
<path d="M68.3219 47.3596H66.3604V49.3212H68.3219V47.3596Z" fill="#0404BF"/>
<path d="M68.3219 45.4175H66.3604V47.3595H68.3219V45.4175Z" fill="#0404BF"/>
<path d="M68.3219 43.4561H66.3604V45.4177H68.3219V43.4561Z" fill="#0404BF"/>
<path d="M68.3219 41.4944H66.3604V43.456H68.3219V41.4944Z" fill="black"/>
<path d="M68.3219 37.5908H66.3604V39.5524H68.3219V37.5908Z" fill="black"/>
<path d="M68.3219 35.6487H66.3604V37.5907H68.3219V35.6487Z" fill="black"/>
<path d="M68.3219 33.687H66.3604V35.6486H68.3219V33.687Z" fill="black"/>
<path d="M68.3219 31.7451H66.3604V33.6871H68.3219V31.7451Z" fill="#0404BF"/>
<path d="M68.3219 29.7837H66.3604V31.7453H68.3219V29.7837Z" fill="#0404BF"/>
<path d="M68.3219 27.8218H66.3604V29.7834H68.3219V27.8218Z" fill="#030384"/>
<path d="M68.3219 25.8799H66.3604V27.8219H68.3219V25.8799Z" fill="black"/>
<path d="M68.3219 23.9155H66.3604V25.8771H68.3219V23.9155Z" fill="black"/>
<path d="M68.3219 21.9736H66.3604V23.9156H68.3219V21.9736Z" fill="black"/>
<path d="M68.3219 20.0117H66.3604V21.9733H68.3219V20.0117Z" fill="black"/>
<path d="M66.3602 84.4761H64.4182V86.4209H66.3602V84.4761Z" fill="#030384"/>
<path d="M66.3602 82.5171H64.4182V84.4759H66.3602V82.5171Z" fill="#030384"/>
<path d="M66.3602 80.5752H64.4182V82.5172H66.3602V80.5752Z" fill="#030384"/>
<path d="M66.3602 78.6108H64.4182V80.5724H66.3602V78.6108Z" fill="#030384"/>
<path d="M66.3602 76.6687H64.4182V78.6107H66.3602V76.6687Z" fill="#030384"/>
<path d="M66.3602 74.7073H64.4182V76.6689H66.3602V74.7073Z" fill="#030384"/>
<path d="M66.3602 72.7485H64.4182V74.7073H66.3602V72.7485Z" fill="#030384"/>
<path d="M66.3602 70.8008H64.4182V72.7456H66.3602V70.8008Z" fill="#030384"/>
<path d="M66.3602 68.8447H64.4182V70.8035H66.3602V68.8447Z" fill="#030384"/>
<path d="M66.3602 66.8999H64.4182V68.8419H66.3602V66.8999Z" fill="#030384"/>
<path d="M66.3602 64.9382H64.4182V66.8998H66.3602V64.9382Z" fill="#0707A5"/>
<path d="M66.3602 62.9963H64.4182V64.9383H66.3602V62.9963Z" fill="#EDB58C"/>
<path d="M66.3602 61.0347H64.4182V62.9963H66.3602V61.0347Z" fill="#0404BF"/>
<path d="M66.3602 59.0732H64.4182V61.032H66.3602V59.0732Z" fill="#0404BF"/>
<path d="M66.3602 57.1311H64.4182V59.0731H66.3602V57.1311Z" fill="#0404BF"/>
<path d="M66.3602 55.1694H64.4182V57.131H66.3602V55.1694Z" fill="#0404BF"/>
<path d="M66.3602 53.2275H64.4182V55.1695H66.3602V53.2275Z" fill="#0404BF"/>
<path d="M66.3602 51.2632H64.4182V53.2248H66.3602V51.2632Z" fill="#0404BF"/>
<path d="M66.3602 49.3213H64.4182V51.2633H66.3602V49.3213Z" fill="#0404BF"/>
<path d="M66.3602 47.3596H64.4182V49.3212H66.3602V47.3596Z" fill="#0404BF"/>
<path d="M66.3602 45.4175H64.4182V47.3595H66.3602V45.4175Z" fill="#0404BF"/>
<path d="M66.3602 43.4561H64.4182V45.4177H66.3602V43.4561Z" fill="#0404BF"/>
<path d="M66.3602 41.4944H64.4182V43.456H66.3602V41.4944Z" fill="black"/>
<path d="M66.3602 39.5522H64.4182V41.4943H66.3602V39.5522Z" fill="black"/>
<path d="M66.3602 37.5908H64.4182V39.5524H66.3602V37.5908Z" fill="#D8D7D6"/>
<path d="M66.3602 35.6487H64.4182V37.5907H66.3602V35.6487Z" fill="#9E9B98"/>
<path d="M66.3602 33.687H64.4182V35.6486H66.3602V33.687Z" fill="black"/>
<path d="M66.3602 31.7451H64.4182V33.6871H66.3602V31.7451Z" fill="#030384"/>
<path d="M66.3602 29.7837H64.4182V31.7453H66.3602V29.7837Z" fill="#0404BF"/>
<path d="M66.3602 27.8218H64.4182V29.7834H66.3602V27.8218Z" fill="#030384"/>
<path d="M66.3602 25.8799H64.4182V27.8219H66.3602V25.8799Z" fill="black"/>
<path d="M66.3602 23.9155H64.4182V25.8771H66.3602V23.9155Z" fill="#030384"/>
<path d="M66.3602 21.9736H64.4182V23.9156H66.3602V21.9736Z" fill="#030384"/>
<path d="M66.3602 20.0117H64.4182V21.9733H66.3602V20.0117Z" fill="#030384"/>
<path d="M66.3602 18.0698H64.4182V20.0118H66.3602V18.0698Z" fill="black"/>
<path d="M64.4155 84.4761H62.4539V86.4209H64.4155V84.4761Z" fill="#0404BF"/>
<path d="M64.4155 82.5171H62.4539V84.4759H64.4155V82.5171Z" fill="#0404BF"/>
<path d="M64.4155 80.5752H62.4539V82.5172H64.4155V80.5752Z" fill="#0404BF"/>
<path d="M64.4155 78.6108H62.4539V80.5724H64.4155V78.6108Z" fill="#0404BF"/>
<path d="M64.4155 76.6687H62.4539V78.6107H64.4155V76.6687Z" fill="#0404BF"/>
<path d="M64.4155 74.7073H62.4539V76.6689H64.4155V74.7073Z" fill="#0404BF"/>
<path d="M64.4155 72.7485H62.4539V74.7073H64.4155V72.7485Z" fill="#0404BF"/>
<path d="M64.4155 70.8008H62.4539V72.7456H64.4155V70.8008Z" fill="#0404BF"/>
<path d="M64.4155 68.8447H62.4539V70.8035H64.4155V68.8447Z" fill="#0404BF"/>
<path d="M64.4155 66.8999H62.4539V68.8419H64.4155V66.8999Z" fill="#030384"/>
<path d="M64.4155 64.9382H62.4539V66.8998H64.4155V64.9382Z" fill="#0707A5"/>
<path d="M64.4155 62.9963H62.4539V64.9383H64.4155V62.9963Z" fill="#EDB58C"/>
<path d="M64.4155 61.0347H62.4539V62.9963H64.4155V61.0347Z" fill="#0404BF"/>
<path d="M64.4155 59.0732H62.4539V61.032H64.4155V59.0732Z" fill="#0404BF"/>
<path d="M64.4155 57.1311H62.4539V59.0731H64.4155V57.1311Z" fill="#0404BF"/>
<path d="M64.4155 55.1694H62.4539V57.131H64.4155V55.1694Z" fill="#0404BF"/>
<path d="M64.4155 53.2275H62.4539V55.1695H64.4155V53.2275Z" fill="#0404BF"/>
<path d="M64.4155 51.2632H62.4539V53.2248H64.4155V51.2632Z" fill="#0404BF"/>
<path d="M64.4155 49.3213H62.4539V51.2633H64.4155V49.3213Z" fill="#0404BF"/>
<path d="M64.4155 47.3596H62.4539V49.3212H64.4155V47.3596Z" fill="#0404BF"/>
<path d="M64.4155 45.4175H62.4539V47.3595H64.4155V45.4175Z" fill="#0404BF"/>
<path d="M64.4155 43.4561H62.4539V45.4177H64.4155V43.4561Z" fill="#030384"/>
<path d="M64.4155 41.4944H62.4539V43.456H64.4155V41.4944Z" fill="black"/>
<path d="M64.4155 39.5522H62.4539V41.4943H64.4155V39.5522Z" fill="#D8D7D6"/>
<path d="M64.4155 37.5908H62.4539V39.5524H64.4155V37.5908Z" fill="#D8D7D6"/>
<path d="M64.4155 35.6487H62.4539V37.5907H64.4155V35.6487Z" fill="#D8D7D6"/>
<path d="M64.4155 33.687H62.4539V35.6486H64.4155V33.687Z" fill="black"/>
<path d="M64.4155 31.7451H62.4539V33.6871H64.4155V31.7451Z" fill="#030384"/>
<path d="M64.4155 29.7837H62.4539V31.7453H64.4155V29.7837Z" fill="#0404BF"/>
<path d="M64.4155 27.8218H62.4539V29.7834H64.4155V27.8218Z" fill="#0404BF"/>
<path d="M64.4155 25.8799H62.4539V27.8219H64.4155V25.8799Z" fill="#030384"/>
<path d="M64.4155 23.9155H62.4539V25.8771H64.4155V23.9155Z" fill="#030384"/>
<path d="M64.4155 21.9736H62.4539V23.9156H64.4155V21.9736Z" fill="#030384"/>
<path d="M64.4155 20.0117H62.4539V21.9733H64.4155V20.0117Z" fill="#030384"/>
<path d="M64.4155 18.0698H62.4539V20.0118H64.4155V18.0698Z" fill="#030384"/>
<path d="M64.4155 16.1082H62.4539V18.0698H64.4155V16.1082Z" fill="black"/>
<path d="M62.4537 84.4761H60.5117V86.4209H62.4537V84.4761Z" fill="#0404BF"/>
<path d="M62.4537 82.5171H60.5117V84.4759H62.4537V82.5171Z" fill="#0404BF"/>
<path d="M62.4537 80.5752H60.5117V82.5172H62.4537V80.5752Z" fill="#0404BF"/>
<path d="M62.4537 78.6108H60.5117V80.5724H62.4537V78.6108Z" fill="#0404BF"/>
<path d="M62.4537 76.6687H60.5117V78.6107H62.4537V76.6687Z" fill="#0404BF"/>
<path d="M62.4537 74.7073H60.5117V76.6689H62.4537V74.7073Z" fill="#0404BF"/>
<path d="M62.4537 72.7485H60.5117V74.7073H62.4537V72.7485Z" fill="#0404BF"/>
<path d="M62.4537 70.8008H60.5117V72.7456H62.4537V70.8008Z" fill="#0404BF"/>
<path d="M62.4537 68.8447H60.5117V70.8035H62.4537V68.8447Z" fill="#0404BF"/>
<path d="M62.4537 66.8999H60.5117V68.8419H62.4537V66.8999Z" fill="#0404BF"/>
<path d="M62.4537 64.9382H60.5117V66.8998H62.4537V64.9382Z" fill="#030384"/>
<path d="M62.4537 62.9963H60.5117V64.9383H62.4537V62.9963Z" fill="#0707A5"/>
<path d="M62.4537 61.0347H60.5117V62.9963H62.4537V61.0347Z" fill="black"/>
<path d="M62.4537 59.0732H60.5117V61.032H62.4537V59.0732Z" fill="black"/>
<path d="M62.4537 57.1311H60.5117V59.0731H62.4537V57.1311Z" fill="black"/>
<path d="M62.4537 55.1694H60.5117V57.131H62.4537V55.1694Z" fill="black"/>
<path d="M62.4537 53.2275H60.5117V55.1695H62.4537V53.2275Z" fill="black"/>
<path d="M62.4537 51.2632H60.5117V53.2248H62.4537V51.2632Z" fill="black"/>
<path d="M62.4537 49.3213H60.5117V51.2633H62.4537V49.3213Z" fill="#0404BF"/>
<path d="M62.4537 47.3596H60.5117V49.3212H62.4537V47.3596Z" fill="#030384"/>
<path d="M62.4537 45.4175H60.5117V47.3595H62.4537V45.4175Z" fill="#030384"/>
<path d="M62.4537 43.4561H60.5117V45.4177H62.4537V43.4561Z" fill="black"/>
<path d="M62.4537 41.4944H60.5117V43.456H62.4537V41.4944Z" fill="#9E9B98"/>
<path d="M62.4537 39.5522H60.5117V41.4943H62.4537V39.5522Z" fill="#9E9B98"/>
<path d="M62.4537 37.5908H60.5117V39.5524H62.4537V37.5908Z" fill="#D8D7D6"/>
<path d="M62.4537 35.6487H60.5117V37.5907H62.4537V35.6487Z" fill="#9E9B98"/>
<path d="M62.4537 33.687H60.5117V35.6486H62.4537V33.687Z" fill="#9E9B98"/>
<path d="M62.4537 31.7451H60.5117V33.6871H62.4537V31.7451Z" fill="black"/>
<path d="M62.4537 29.7837H60.5117V31.7453H62.4537V29.7837Z" fill="#0404BF"/>
<path d="M62.4537 27.8218H60.5117V29.7834H62.4537V27.8218Z" fill="#0404BF"/>
<path d="M62.4537 25.8799H60.5117V27.8219H62.4537V25.8799Z" fill="#030384"/>
<path d="M62.4537 23.9155H60.5117V25.8771H62.4537V23.9155Z" fill="#030384"/>
<path d="M62.4537 21.9736H60.5117V23.9156H62.4537V21.9736Z" fill="#030384"/>
<path d="M62.4537 20.0117H60.5117V21.9733H62.4537V20.0117Z" fill="#030384"/>
<path d="M62.4537 18.0698H60.5117V20.0118H62.4537V18.0698Z" fill="#030384"/>
<path d="M62.4537 16.1082H60.5117V18.0698H62.4537V16.1082Z" fill="black"/>
<path d="M60.5119 84.4761H58.5503V86.4209H60.5119V84.4761Z" fill="#0404BF"/>
<path d="M60.5119 82.5171H58.5503V84.4759H60.5119V82.5171Z" fill="#0404BF"/>
<path d="M60.5119 80.5752H58.5503V82.5172H60.5119V80.5752Z" fill="#0404BF"/>
<path d="M60.5119 78.6108H58.5503V80.5724H60.5119V78.6108Z" fill="#0404BF"/>
<path d="M60.5119 76.6687H58.5503V78.6107H60.5119V76.6687Z" fill="#0404BF"/>
<path d="M60.5119 74.7073H58.5503V76.6689H60.5119V74.7073Z" fill="#0404BF"/>
<path d="M60.5119 72.7485H58.5503V74.7073H60.5119V72.7485Z" fill="#0404BF"/>
<path d="M60.5119 70.8008H58.5503V72.7456H60.5119V70.8008Z" fill="#0404BF"/>
<path d="M60.5119 68.8447H58.5503V70.8035H60.5119V68.8447Z" fill="#0404BF"/>
<path d="M60.5119 66.8999H58.5503V68.8419H60.5119V66.8999Z" fill="#0404BF"/>
<path d="M60.5119 64.9382H58.5503V66.8998H60.5119V64.9382Z" fill="#0404BF"/>
<path d="M60.5119 62.9963H58.5503V64.9383H60.5119V62.9963Z" fill="#030384"/>
<path d="M60.5119 61.0347H58.5503V62.9963H60.5119V61.0347Z" fill="#D6B409"/>
<path d="M60.5119 59.0732H58.5503V61.032H60.5119V59.0732Z" fill="#0404BF"/>
<path d="M60.5119 57.1311H58.5503V59.0731H60.5119V57.1311Z" fill="#0404BF"/>
<path d="M60.5119 55.1694H58.5503V57.131H60.5119V55.1694Z" fill="#0404BF"/>
<path d="M60.5119 53.2275H58.5503V55.1695H60.5119V53.2275Z" fill="#0404BF"/>
<path d="M60.5119 51.2632H58.5503V53.2248H60.5119V51.2632Z" fill="#0404BF"/>
<path d="M60.5119 49.3213H58.5503V51.2633H60.5119V49.3213Z" fill="#0404BF"/>
<path d="M60.5119 47.3596H58.5503V49.3212H60.5119V47.3596Z" fill="#030384"/>
<path d="M60.5119 45.4175H58.5503V47.3595H60.5119V45.4175Z" fill="black"/>
<path d="M60.5119 43.4561H58.5503V45.4177H60.5119V43.4561Z" fill="#D8D7D6"/>
<path d="M60.5119 41.4944H58.5503V43.456H60.5119V41.4944Z" fill="#D8D7D6"/>
<path d="M60.5119 39.5522H58.5503V41.4943H60.5119V39.5522Z" fill="#D8D7D6"/>
<path d="M60.5119 37.5908H58.5503V39.5524H60.5119V37.5908Z" fill="#9E9B98"/>
<path d="M60.5119 35.6487H58.5503V37.5907H60.5119V35.6487Z" fill="#EFB589"/>
<path d="M60.5119 33.687H58.5503V35.6486H60.5119V33.687Z" fill="#EFB589"/>
<path d="M60.5119 31.7451H58.5503V33.6871H60.5119V31.7451Z" fill="black"/>
<path d="M60.5119 29.7837H58.5503V31.7453H60.5119V29.7837Z" fill="#0404BF"/>
<path d="M60.5119 27.8218H58.5503V29.7834H60.5119V27.8218Z" fill="#0404BF"/>
<path d="M60.5119 25.8799H58.5503V27.8219H60.5119V25.8799Z" fill="#0404BF"/>
<path d="M60.5119 23.9155H58.5503V25.8771H60.5119V23.9155Z" fill="#030384"/>
<path d="M60.5119 21.9736H58.5503V23.9156H60.5119V21.9736Z" fill="#030384"/>
<path d="M60.5119 20.0117H58.5503V21.9733H60.5119V20.0117Z" fill="#030384"/>
<path d="M60.5119 18.0698H58.5503V20.0118H60.5119V18.0698Z" fill="#030384"/>
<path d="M60.5119 16.1082H58.5503V18.0698H60.5119V16.1082Z" fill="black"/>
<path d="M58.5502 84.4761H56.6082V86.4209H58.5502V84.4761Z" fill="#0404BF"/>
<path d="M58.5502 82.5171H56.6082V84.4759H58.5502V82.5171Z" fill="#0404BF"/>
<path d="M58.5502 80.5752H56.6082V82.5172H58.5502V80.5752Z" fill="#0404BF"/>
<path d="M58.5502 78.6108H56.6082V80.5724H58.5502V78.6108Z" fill="#0404BF"/>
<path d="M58.5502 76.6687H56.6082V78.6107H58.5502V76.6687Z" fill="#0404BF"/>
<path d="M58.5502 74.7073H56.6082V76.6689H58.5502V74.7073Z" fill="#0404BF"/>
<path d="M58.5502 72.7485H56.6082V74.7073H58.5502V72.7485Z" fill="#0404BF"/>
<path d="M58.5502 70.8008H56.6082V72.7456H58.5502V70.8008Z" fill="#0404BF"/>
<path d="M58.5502 68.8447H56.6082V70.8035H58.5502V68.8447Z" fill="#0404BF"/>
<path d="M58.5502 66.8999H56.6082V68.8419H58.5502V66.8999Z" fill="#0404BF"/>
<path d="M58.5502 64.9382H56.6082V66.8998H58.5502V64.9382Z" fill="#0404BF"/>
<path d="M58.5502 62.9963H56.6082V64.9383H58.5502V62.9963Z" fill="#0404BF"/>
<path d="M58.5502 61.0347H56.6082V62.9963H58.5502V61.0347Z" fill="#F9C126"/>
<path d="M58.5502 59.0732H56.6082V61.032H58.5502V59.0732Z" fill="#0404BF"/>
<path d="M58.5502 57.1311H56.6082V59.0731H58.5502V57.1311Z" fill="#0404BF"/>
<path d="M58.5502 55.1694H56.6082V57.131H58.5502V55.1694Z" fill="#0404BF"/>
<path d="M58.5502 53.2275H56.6082V55.1695H58.5502V53.2275Z" fill="#0404BF"/>
<path d="M58.5502 51.2632H56.6082V53.2248H58.5502V51.2632Z" fill="#0404BF"/>
<path d="M58.5502 49.3213H56.6082V51.2633H58.5502V49.3213Z" fill="black"/>
<path d="M58.5502 47.3596H56.6082V49.3212H58.5502V47.3596Z" fill="black"/>
<path d="M58.5502 45.4175H56.6082V47.3595H58.5502V45.4175Z" fill="#9E9B98"/>
<path d="M58.5502 43.4561H56.6082V45.4177H58.5502V43.4561Z" fill="#D8D7D6"/>
<path d="M58.5502 41.4944H56.6082V43.456H58.5502V41.4944Z" fill="#D8D7D6"/>
<path d="M58.5502 39.5522H56.6082V41.4943H58.5502V39.5522Z" fill="#9E9B98"/>
<path d="M58.5502 37.5908H56.6082V39.5524H58.5502V37.5908Z" fill="#EFB589"/>
<path d="M58.5502 35.6487H56.6082V37.5907H58.5502V35.6487Z" fill="#EFB589"/>
<path d="M58.5502 33.687H56.6082V35.6486H58.5502V33.687Z" fill="#EFB589"/>
<path d="M58.5502 31.7451H56.6082V33.6871H58.5502V31.7451Z" fill="black"/>
<path d="M58.5502 29.7837H56.6082V31.7453H58.5502V29.7837Z" fill="#0404BF"/>
<path d="M58.5502 27.8218H56.6082V29.7834H58.5502V27.8218Z" fill="#0404BF"/>
<path d="M58.5502 25.8799H56.6082V27.8219H58.5502V25.8799Z" fill="#0404BF"/>
<path d="M58.5502 23.9155H56.6082V25.8771H58.5502V23.9155Z" fill="#030384"/>
<path d="M58.5502 21.9736H56.6082V23.9156H58.5502V21.9736Z" fill="#030384"/>
<path d="M58.5502 20.0117H56.6082V21.9733H58.5502V20.0117Z" fill="#030384"/>
<path d="M58.5502 18.0698H56.6082V20.0118H58.5502V18.0698Z" fill="black"/>
<path d="M56.6081 84.4761H54.6465V86.4209H56.6081V84.4761Z" fill="#0404BF"/>
<path d="M56.6081 82.5171H54.6465V84.4759H56.6081V82.5171Z" fill="#0404BF"/>
<path d="M56.6081 80.5752H54.6465V82.5172H56.6081V80.5752Z" fill="#0404BF"/>
<path d="M56.6081 78.6108H54.6465V80.5724H56.6081V78.6108Z" fill="#0404BF"/>
<path d="M56.6081 76.6687H54.6465V78.6107H56.6081V76.6687Z" fill="#0404BF"/>
<path d="M56.6081 74.7073H54.6465V76.6689H56.6081V74.7073Z" fill="#0404BF"/>
<path d="M56.6081 72.7485H54.6465V74.7073H56.6081V72.7485Z" fill="#0404BF"/>
<path d="M56.6081 70.8008H54.6465V72.7456H56.6081V70.8008Z" fill="#0404BF"/>
<path d="M56.6081 68.8447H54.6465V70.8035H56.6081V68.8447Z" fill="#0404BF"/>
<path d="M56.6081 66.8999H54.6465V68.8419H56.6081V66.8999Z" fill="#0404BF"/>
<path d="M56.6081 64.9382H54.6465V66.8998H56.6081V64.9382Z" fill="#0404BF"/>
<path d="M56.6081 62.9963H54.6465V64.9383H56.6081V62.9963Z" fill="#0404BF"/>
<path d="M56.6081 61.0347H54.6465V62.9963H56.6081V61.0347Z" fill="#F9C126"/>
<path d="M56.6081 59.0732H54.6465V61.032H56.6081V59.0732Z" fill="#0404BF"/>
<path d="M56.6081 57.1311H54.6465V59.0731H56.6081V57.1311Z" fill="#0404BF"/>
<path d="M56.6081 55.1694H54.6465V57.131H56.6081V55.1694Z" fill="#0404BF"/>
<path d="M56.6081 53.2275H54.6465V55.1695H56.6081V53.2275Z" fill="#0404BF"/>
<path d="M56.6081 51.2632H54.6465V53.2248H56.6081V51.2632Z" fill="black"/>
<path d="M56.6081 49.3213H54.6465V51.2633H56.6081V49.3213Z" fill="#9E9B98"/>
<path d="M56.6081 47.3596H54.6465V49.3212H56.6081V47.3596Z" fill="#D8D7D6"/>
<path d="M56.6081 45.4175H54.6465V47.3595H56.6081V45.4175Z" fill="#D8D7D6"/>
<path d="M56.6081 43.4561H54.6465V45.4177H56.6081V43.4561Z" fill="#D8D7D6"/>
<path d="M56.6081 41.4944H54.6465V43.456H56.6081V41.4944Z" fill="#D8D7D6"/>
<path d="M56.6081 39.5522H54.6465V41.4943H56.6081V39.5522Z" fill="#D8D7D6"/>
<path d="M56.6081 37.5908H54.6465V39.5524H56.6081V37.5908Z" fill="#9E9B98"/>
<path d="M56.6081 35.6487H54.6465V37.5907H56.6081V35.6487Z" fill="#D8D7D6"/>
<path d="M56.6081 33.687H54.6465V35.6486H56.6081V33.687Z" fill="#EFB589"/>
<path d="M56.6081 31.7451H54.6465V33.6871H56.6081V31.7451Z" fill="black"/>
<path d="M56.6081 29.7837H54.6465V31.7453H56.6081V29.7837Z" fill="#0404BF"/>
<path d="M56.6081 27.8218H54.6465V29.7834H56.6081V27.8218Z" fill="#0404BF"/>
<path d="M56.6081 25.8799H54.6465V27.8219H56.6081V25.8799Z" fill="#0404BF"/>
<path d="M56.6081 23.9155H54.6465V25.8771H56.6081V23.9155Z" fill="#030384"/>
<path d="M56.6081 21.9736H54.6465V23.9156H56.6081V21.9736Z" fill="#030384"/>
<path d="M56.6081 20.0117H54.6465V21.9733H56.6081V20.0117Z" fill="black"/>
<path d="M54.6467 84.4761H52.6851V86.4209H54.6467V84.4761Z" fill="#0404BF"/>
<path d="M54.6467 82.5171H52.6851V84.4759H54.6467V82.5171Z" fill="#0404BF"/>
<path d="M54.6467 80.5752H52.6851V82.5172H54.6467V80.5752Z" fill="#0404BF"/>
<path d="M54.6467 78.6108H52.6851V80.5724H54.6467V78.6108Z" fill="#0404BF"/>
<path d="M54.6467 76.6687H52.6851V78.6107H54.6467V76.6687Z" fill="#0404BF"/>
<path d="M54.6467 74.7073H52.6851V76.6689H54.6467V74.7073Z" fill="#0404BF"/>
<path d="M54.6467 72.7485H52.6851V74.7073H54.6467V72.7485Z" fill="#0404BF"/>
<path d="M54.6467 70.8008H52.6851V72.7456H54.6467V70.8008Z" fill="#0404BF"/>
<path d="M54.6467 68.8447H52.6851V70.8035H54.6467V68.8447Z" fill="#0404BF"/>
<path d="M54.6467 66.8999H52.6851V68.8419H54.6467V66.8999Z" fill="#0404BF"/>
<path d="M54.6467 64.9382H52.6851V66.8998H54.6467V64.9382Z" fill="#0404BF"/>
<path d="M54.6467 62.9963H52.6851V64.9383H54.6467V62.9963Z" fill="#0404BF"/>
<path d="M54.6467 61.0347H52.6851V62.9963H54.6467V61.0347Z" fill="#F9C126"/>
<path d="M54.6467 59.0732H52.6851V61.032H54.6467V59.0732Z" fill="#0404BF"/>
<path d="M54.6467 57.1311H52.6851V59.0731H54.6467V57.1311Z" fill="#0404BF"/>
<path d="M54.6467 55.1694H52.6851V57.131H54.6467V55.1694Z" fill="#0404BF"/>
<path d="M54.6467 53.2275H52.6851V55.1695H54.6467V53.2275Z" fill="#0404BF"/>
<path d="M54.6467 51.2632H52.6851V53.2248H54.6467V51.2632Z" fill="#0404BF"/>
<path d="M54.6467 49.3213H52.6851V51.2633H54.6467V49.3213Z" fill="black"/>
<path d="M54.6467 47.3596H52.6851V49.3212H54.6467V47.3596Z" fill="#D8D7D6"/>
<path d="M54.6467 45.4175H52.6851V47.3595H54.6467V45.4175Z" fill="#D8D7D6"/>
<path d="M54.6467 43.4561H52.6851V45.4177H54.6467V43.4561Z" fill="#D8D7D6"/>
<path d="M54.6467 41.4944H52.6851V43.456H54.6467V41.4944Z" fill="#D8D7D6"/>
<path d="M54.6467 39.5522H52.6851V41.4943H54.6467V39.5522Z" fill="#D8D7D6"/>
<path d="M54.6467 37.5908H52.6851V39.5524H54.6467V37.5908Z" fill="#9E9B98"/>
<path d="M54.6467 35.6487H52.6851V37.5907H54.6467V35.6487Z" fill="#D8D7D6"/>
<path d="M54.6467 33.687H52.6851V35.6486H54.6467V33.687Z" fill="#EFB589"/>
<path d="M54.6467 31.7451H52.6851V33.6871H54.6467V31.7451Z" fill="black"/>
<path d="M54.6467 29.7837H52.6851V31.7453H54.6467V29.7837Z" fill="#0404BF"/>
<path d="M54.6467 27.8218H52.6851V29.7834H54.6467V27.8218Z" fill="#0404BF"/>
<path d="M54.6467 25.8799H52.6851V27.8219H54.6467V25.8799Z" fill="#0404BF"/>
<path d="M54.6467 23.9155H52.6851V25.8771H54.6467V23.9155Z" fill="#0404BF"/>
<path d="M54.6467 21.9736H52.6851V23.9156H54.6467V21.9736Z" fill="black"/>
<path d="M52.6849 84.4761H50.7429V86.4209H52.6849V84.4761Z" fill="#0404BF"/>
<path d="M52.6849 82.5171H50.7429V84.4759H52.6849V82.5171Z" fill="#0404BF"/>
<path d="M52.6849 80.5752H50.7429V82.5172H52.6849V80.5752Z" fill="#0404BF"/>
<path d="M52.6849 78.6108H50.7429V80.5724H52.6849V78.6108Z" fill="#0404BF"/>
<path d="M52.6849 76.6687H50.7429V78.6107H52.6849V76.6687Z" fill="#0404BF"/>
<path d="M52.6849 74.7073H50.7429V76.6689H52.6849V74.7073Z" fill="#0404BF"/>
<path d="M52.6849 72.7485H50.7429V74.7073H52.6849V72.7485Z" fill="#0404BF"/>
<path d="M52.6849 70.8008H50.7429V72.7456H52.6849V70.8008Z" fill="#0404BF"/>
<path d="M52.6849 68.8447H50.7429V70.8035H52.6849V68.8447Z" fill="#0404BF"/>
<path d="M52.6849 66.8999H50.7429V68.8419H52.6849V66.8999Z" fill="#0404BF"/>
<path d="M52.6849 64.9382H50.7429V66.8998H52.6849V64.9382Z" fill="#0404BF"/>
<path d="M52.6849 62.9963H50.7429V64.9383H52.6849V62.9963Z" fill="#0404BF"/>
<path d="M52.6849 61.0347H50.7429V62.9963H52.6849V61.0347Z" fill="#F9C126"/>
<path d="M52.6849 59.0732H50.7429V61.032H52.6849V59.0732Z" fill="#0404BF"/>
<path d="M52.6849 57.1311H50.7429V59.0731H52.6849V57.1311Z" fill="#0404BF"/>
<path d="M52.6849 55.1694H50.7429V57.131H52.6849V55.1694Z" fill="#0404BF"/>
<path d="M52.6849 53.2275H50.7429V55.1695H52.6849V53.2275Z" fill="#0404BF"/>
<path d="M52.6849 51.2632H50.7429V53.2248H52.6849V51.2632Z" fill="#0404BF"/>
<path d="M52.6849 49.3213H50.7429V51.2633H52.6849V49.3213Z" fill="#0404BF"/>
<path d="M52.6849 47.3596H50.7429V49.3212H52.6849V47.3596Z" fill="black"/>
<path d="M52.6849 45.4175H50.7429V47.3595H52.6849V45.4175Z" fill="#D8D7D6"/>
<path d="M52.6849 43.4561H50.7429V45.4177H52.6849V43.4561Z" fill="#D8D7D6"/>
<path d="M52.6849 41.4944H50.7429V43.456H52.6849V41.4944Z" fill="#D8D7D6"/>
<path d="M52.6849 39.5522H50.7429V41.4943H52.6849V39.5522Z" fill="#D8D7D6"/>
<path d="M52.6849 37.5908H50.7429V39.5524H52.6849V37.5908Z" fill="#9E9B98"/>
<path d="M52.6849 35.6487H50.7429V37.5907H52.6849V35.6487Z" fill="#D8D7D6"/>
<path d="M52.6849 33.687H50.7429V35.6486H52.6849V33.687Z" fill="#EFB589"/>
<path d="M52.6849 31.7451H50.7429V33.6871H52.6849V31.7451Z" fill="black"/>
<path d="M52.6849 29.7837H50.7429V31.7453H52.6849V29.7837Z" fill="#0404BF"/>
<path d="M52.6849 27.8218H50.7429V29.7834H52.6849V27.8218Z" fill="#0404BF"/>
<path d="M52.6849 25.8799H50.7429V27.8219H52.6849V25.8799Z" fill="black"/>
<path d="M52.6849 23.9155H50.7429V25.8771H52.6849V23.9155Z" fill="black"/>
<path d="M50.7428 84.4761H48.7812V86.4209H50.7428V84.4761Z" fill="#0404BF"/>
<path d="M50.7428 82.5171H48.7812V84.4759H50.7428V82.5171Z" fill="#0404BF"/>
<path d="M50.7428 80.5752H48.7812V82.5172H50.7428V80.5752Z" fill="#0404BF"/>
<path d="M50.7428 78.6108H48.7812V80.5724H50.7428V78.6108Z" fill="#0404BF"/>
<path d="M50.7428 76.6687H48.7812V78.6107H50.7428V76.6687Z" fill="#0404BF"/>
<path d="M50.7428 74.7073H48.7812V76.6689H50.7428V74.7073Z" fill="#0404BF"/>
<path d="M50.7428 72.7485H48.7812V74.7073H50.7428V72.7485Z" fill="#0404BF"/>
<path d="M50.7428 70.8008H48.7812V72.7456H50.7428V70.8008Z" fill="#0404BF"/>
<path d="M50.7428 68.8447H48.7812V70.8035H50.7428V68.8447Z" fill="#0404BF"/>
<path d="M50.7428 66.8999H48.7812V68.8419H50.7428V66.8999Z" fill="#030384"/>
<path d="M50.7428 64.9382H48.7812V66.8998H50.7428V64.9382Z" fill="black"/>
<path d="M50.7428 62.9963H48.7812V64.9383H50.7428V62.9963Z" fill="black"/>
<path d="M50.7428 61.0347H48.7812V62.9963H50.7428V61.0347Z" fill="black"/>
<path d="M50.7428 59.0732H48.7812V61.032H50.7428V59.0732Z" fill="black"/>
<path d="M50.7428 57.1311H48.7812V59.0731H50.7428V57.1311Z" fill="black"/>
<path d="M50.7428 55.1694H48.7812V57.131H50.7428V55.1694Z" fill="black"/>
<path d="M50.7428 53.2275H48.7812V55.1695H50.7428V53.2275Z" fill="black"/>
<path d="M50.7428 51.2632H48.7812V53.2248H50.7428V51.2632Z" fill="black"/>
<path d="M50.7428 49.3213H48.7812V51.2633H50.7428V49.3213Z" fill="black"/>
<path d="M50.7428 47.3596H48.7812V49.3212H50.7428V47.3596Z" fill="black"/>
<path d="M50.7428 45.4175H48.7812V47.3595H50.7428V45.4175Z" fill="black"/>
<path d="M50.7428 43.4561H48.7812V45.4177H50.7428V43.4561Z" fill="#9E9B98"/>
<path d="M50.7428 41.4944H48.7812V43.456H50.7428V41.4944Z" fill="#9E9B98"/>
<path d="M50.7428 39.5522H48.7812V41.4943H50.7428V39.5522Z" fill="black"/>
<path d="M50.7428 37.5908H48.7812V39.5524H50.7428V37.5908Z" fill="black"/>
<path d="M50.7428 35.6487H48.7812V37.5907H50.7428V35.6487Z" fill="black"/>
<path d="M50.7428 33.687H48.7812V35.6486H50.7428V33.687Z" fill="black"/>
<path d="M50.7428 31.7451H48.7812V33.6871H50.7428V31.7451Z" fill="#030384"/>
<path d="M50.7428 29.7837H48.7812V31.7453H50.7428V29.7837Z" fill="#0404BF"/>
<path d="M50.7428 27.8218H48.7812V29.7834H50.7428V27.8218Z" fill="#0404BF"/>
<path d="M50.7428 25.8799H48.7812V27.8219H50.7428V25.8799Z" fill="black"/>
<path d="M48.7814 84.4761H46.8394V86.4209H48.7814V84.4761Z" fill="black"/>
<path d="M48.7814 82.5171H46.8394V84.4759H48.7814V82.5171Z" fill="black"/>
<path d="M48.7814 80.5752H46.8394V82.5172H48.7814V80.5752Z" fill="black"/>
<path d="M48.7814 78.6108H46.8394V80.5724H48.7814V78.6108Z" fill="black"/>
<path d="M48.7814 76.6687H46.8394V78.6107H48.7814V76.6687Z" fill="black"/>
<path d="M48.7814 74.7073H46.8394V76.6689H48.7814V74.7073Z" fill="black"/>
<path d="M48.7814 72.7485H46.8394V74.7073H48.7814V72.7485Z" fill="black"/>
<path d="M48.7814 70.8008H46.8394V72.7456H48.7814V70.8008Z" fill="black"/>
<path d="M48.7814 68.8447H46.8394V70.8035H48.7814V68.8447Z" fill="black"/>
<path d="M48.7814 66.8999H46.8394V68.8419H48.7814V66.8999Z" fill="black"/>
<path d="M48.7814 57.1311H46.8394V59.0731H48.7814V57.1311Z" fill="black"/>
<path d="M48.7814 55.1694H46.8394V57.131H48.7814V55.1694Z" fill="#030384"/>
<path d="M48.7814 53.2275H46.8394V55.1695H48.7814V53.2275Z" fill="#030384"/>
<path d="M48.7814 51.2632H46.8394V53.2248H48.7814V51.2632Z" fill="#030384"/>
<path d="M48.7814 49.3213H46.8394V51.2633H48.7814V49.3213Z" fill="black"/>
<path d="M48.7814 43.4561H46.8394V45.4177H48.7814V43.4561Z" fill="black"/>
<path d="M48.7814 41.4944H46.8394V43.456H48.7814V41.4944Z" fill="black"/>
<path d="M48.7814 33.687H46.8394V35.6486H48.7814V33.687Z" fill="black"/>
<path d="M48.7814 31.7451H46.8394V33.6871H48.7814V31.7451Z" fill="#030384"/>
<path d="M48.7814 29.7837H46.8394V31.7453H48.7814V29.7837Z" fill="#0404BF"/>
<path d="M48.7814 27.8218H46.8394V29.7834H48.7814V27.8218Z" fill="black"/>
<path d="M46.8393 57.1311H44.8777V59.0731H46.8393V57.1311Z" fill="black"/>
<path d="M46.8393 55.1694H44.8777V57.131H46.8393V55.1694Z" fill="#030384"/>
<path d="M46.8393 53.2275H44.8777V55.1695H46.8393V53.2275Z" fill="#030384"/>
<path d="M46.8393 51.2632H44.8777V53.2248H46.8393V51.2632Z" fill="#030384"/>
<path d="M46.8393 49.3213H44.8777V51.2633H46.8393V49.3213Z" fill="black"/>
<path d="M46.8393 33.687H44.8777V35.6486H46.8393V33.687Z" fill="black"/>
<path d="M46.8393 31.7451H44.8777V33.6871H46.8393V31.7451Z" fill="#030384"/>
<path d="M46.8393 29.7837H44.8777V31.7453H46.8393V29.7837Z" fill="black"/>
<path d="M44.8778 57.1311H42.9358V59.0731H44.8778V57.1311Z" fill="black"/>
<path d="M44.8778 55.1694H42.9358V57.131H44.8778V55.1694Z" fill="#030384"/>
<path d="M44.8778 53.2275H42.9358V55.1695H44.8778V53.2275Z" fill="#030384"/>
<path d="M44.8778 51.2632H42.9358V53.2248H44.8778V51.2632Z" fill="#030384"/>
<path d="M44.8778 49.3213H42.9358V51.2633H44.8778V49.3213Z" fill="black"/>
<path d="M44.8778 37.5908H42.9358V39.5524H44.8778V37.5908Z" fill="black"/>
<path d="M44.8778 35.6487H42.9358V37.5907H44.8778V35.6487Z" fill="black"/>
<path d="M44.8778 33.687H42.9358V35.6486H44.8778V33.687Z" fill="black"/>
<path d="M44.8778 31.7451H42.9358V33.6871H44.8778V31.7451Z" fill="#030384"/>
<path d="M44.8778 29.7837H42.9358V31.7453H44.8778V29.7837Z" fill="black"/>
<path d="M42.9357 57.1311H40.9741V59.0731H42.9357V57.1311Z" fill="black"/>
<path d="M42.9357 55.1694H40.9741V57.131H42.9357V55.1694Z" fill="black"/>
<path d="M42.9357 53.2275H40.9741V55.1695H42.9357V53.2275Z" fill="black"/>
<path d="M42.9357 51.2632H40.9741V53.2248H42.9357V51.2632Z" fill="black"/>
<path d="M42.9357 49.3213H40.9741V51.2633H42.9357V49.3213Z" fill="black"/>
<path d="M42.9357 39.5522H40.9741V41.4943H42.9357V39.5522Z" fill="black"/>
<path d="M42.9357 37.5908H40.9741V39.5524H42.9357V37.5908Z" fill="#FCB029"/>
<path d="M42.9357 35.6487H40.9741V37.5907H42.9357V35.6487Z" fill="#FCB029"/>
<path d="M42.9357 33.687H40.9741V35.6486H42.9357V33.687Z" fill="black"/>
<path d="M42.9357 31.7451H40.9741V33.6871H42.9357V31.7451Z" fill="black"/>
<path d="M42.9357 29.7837H40.9741V31.7453H42.9357V29.7837Z" fill="black"/>
<path d="M40.974 55.1694H39.0125V57.131H40.974V55.1694Z" fill="black"/>
<path d="M40.974 53.2275H39.0125V55.1695H40.974V53.2275Z" fill="black"/>
<path d="M40.974 51.2632H39.0125V53.2248H40.974V51.2632Z" fill="black"/>
<path d="M40.974 49.3213H39.0125V51.2633H40.974V49.3213Z" fill="#EDB58C"/>
<path d="M40.974 47.3596H39.0125V49.3212H40.974V47.3596Z" fill="black"/>
<path d="M40.974 41.4944H39.0125V43.456H40.974V41.4944Z" fill="black"/>
<path d="M40.974 39.5522H39.0125V41.4943H40.974V39.5522Z" fill="#FCB029"/>
<path d="M40.974 37.5908H39.0125V39.5524H40.974V37.5908Z" fill="#FCB029"/>
<path d="M40.974 35.6487H39.0125V37.5907H40.974V35.6487Z" fill="#2BE1F9"/>
<path d="M40.974 33.687H39.0125V35.6486H40.974V33.687Z" fill="#2BE1F9"/>
<path d="M40.974 31.7451H39.0125V33.6871H40.974V31.7451Z" fill="#2BE1F9"/>
<path d="M39.0126 82.5171H37.0706V84.4759H39.0126V82.5171Z" fill="black"/>
<path d="M39.0126 80.5752H37.0706V82.5172H39.0126V80.5752Z" fill="black"/>
<path d="M39.0126 78.6108H37.0706V80.5724H39.0126V78.6108Z" fill="black"/>
<path d="M39.0126 76.6687H37.0706V78.6107H39.0126V76.6687Z" fill="black"/>
<path d="M39.0126 74.7073H37.0706V76.6689H39.0126V74.7073Z" fill="black"/>
<path d="M39.0126 72.7485H37.0706V74.7073H39.0126V72.7485Z" fill="black"/>
<path d="M39.0126 70.8008H37.0706V72.7456H39.0126V70.8008Z" fill="black"/>
<path d="M39.0126 68.8447H37.0706V70.8035H39.0126V68.8447Z" fill="black"/>
<path d="M39.0126 66.8999H37.0706V68.8419H39.0126V66.8999Z" fill="black"/>
<path d="M39.0126 64.9382H37.0706V66.8998H39.0126V64.9382Z" fill="black"/>
<path d="M39.0126 62.9963H37.0706V64.9383H39.0126V62.9963Z" fill="black"/>
<path d="M39.0126 61.0347H37.0706V62.9963H39.0126V61.0347Z" fill="black"/>
<path d="M39.0126 59.0732H37.0706V61.032H39.0126V59.0732Z" fill="black"/>
<path d="M39.0126 57.1311H37.0706V59.0731H39.0126V57.1311Z" fill="black"/>
<path d="M39.0126 55.1694H37.0706V57.131H39.0126V55.1694Z" fill="black"/>
<path d="M39.0126 53.2275H37.0706V55.1695H39.0126V53.2275Z" fill="black"/>
<path d="M39.0126 51.2632H37.0706V53.2248H39.0126V51.2632Z" fill="#EDB58C"/>
<path d="M39.0126 49.3213H37.0706V51.2633H39.0126V49.3213Z" fill="#EDB58C"/>
<path d="M39.0126 47.3596H37.0706V49.3212H39.0126V47.3596Z" fill="black"/>
<path d="M39.0126 45.4175H37.0706V47.3595H39.0126V45.4175Z" fill="black"/>
<path d="M39.0126 43.4561H37.0706V45.4177H39.0126V43.4561Z" fill="black"/>
<path d="M39.0126 41.4944H37.0706V43.456H39.0126V41.4944Z" fill="black"/>
<path d="M39.0126 39.5522H37.0706V41.4943H39.0126V39.5522Z" fill="black"/>
<path d="M39.0126 37.5908H37.0706V39.5524H39.0126V37.5908Z" fill="#2BE1F9"/>
<path d="M39.0126 35.6487H37.0706V37.5907H39.0126V35.6487Z" fill="#2BE1F9"/>
<path d="M39.0126 33.687H37.0706V35.6486H39.0126V33.687Z" fill="#2BE1F9"/>
<path d="M39.0126 31.7451H37.0706V33.6871H39.0126V31.7451Z" fill="#2BE1F9"/>
<path d="M39.0126 29.7837H37.0706V31.7453H39.0126V29.7837Z" fill="#2BE1F9"/>
<path d="M37.0676 84.4761H35.106V86.4209H37.0676V84.4761Z" fill="black"/>
<path d="M37.0676 82.5171H35.106V84.4759H37.0676V82.5171Z" fill="#823D27"/>
<path d="M37.0676 80.5752H35.106V82.5172H37.0676V80.5752Z" fill="#823D27"/>
<path d="M37.0676 78.6108H35.106V80.5724H37.0676V78.6108Z" fill="#823D27"/>
<path d="M37.0676 76.6687H35.106V78.6107H37.0676V76.6687Z" fill="#823D27"/>
<path d="M37.0676 74.7073H35.106V76.6689H37.0676V74.7073Z" fill="#823D27"/>
<path d="M37.0676 72.7485H35.106V74.7073H37.0676V72.7485Z" fill="#823D27"/>
<path d="M37.0676 70.8008H35.106V72.7456H37.0676V70.8008Z" fill="#823D27"/>
<path d="M37.0676 68.8447H35.106V70.8035H37.0676V68.8447Z" fill="#823D27"/>
<path d="M37.0676 66.8999H35.106V68.8419H37.0676V66.8999Z" fill="#823D27"/>
<path d="M37.0676 64.9382H35.106V66.8998H37.0676V64.9382Z" fill="#823D27"/>
<path d="M37.0676 62.9963H35.106V64.9383H37.0676V62.9963Z" fill="#823D27"/>
<path d="M37.0676 61.0347H35.106V62.9963H37.0676V61.0347Z" fill="#823D27"/>
<path d="M37.0676 59.0732H35.106V61.032H37.0676V59.0732Z" fill="#823D27"/>
<path d="M37.0676 57.1311H35.106V59.0731H37.0676V57.1311Z" fill="#823D27"/>
<path d="M37.0676 55.1694H35.106V57.131H37.0676V55.1694Z" fill="#823D27"/>
<path d="M37.0676 53.2275H35.106V55.1695H37.0676V53.2275Z" fill="#823D27"/>
<path d="M37.0676 51.2632H35.106V53.2248H37.0676V51.2632Z" fill="black"/>
<path d="M37.0676 49.3213H35.106V51.2633H37.0676V49.3213Z" fill="#823D27"/>
<path d="M37.0676 47.3596H35.106V49.3212H37.0676V47.3596Z" fill="black"/>
<path d="M37.0676 45.4175H35.106V47.3595H37.0676V45.4175Z" fill="#823D27"/>
<path d="M37.0676 43.4561H35.106V45.4177H37.0676V43.4561Z" fill="#823D27"/>
<path d="M37.0676 41.4944H35.106V43.456H37.0676V41.4944Z" fill="#823D27"/>
<path d="M37.0676 39.5522H35.106V41.4943H37.0676V39.5522Z" fill="#FCB029"/>
<path d="M37.0676 37.5908H35.106V39.5524H37.0676V37.5908Z" fill="#FCB029"/>
<path d="M37.0676 35.6487H35.106V37.5907H37.0676V35.6487Z" fill="#FCB029"/>
<path d="M37.0676 33.687H35.106V35.6486H37.0676V33.687Z" fill="#2BE1F9"/>
<path d="M37.0676 31.7451H35.106V33.6871H37.0676V31.7451Z" fill="#2BE1F9"/>
<path d="M37.0676 29.7837H35.106V31.7453H37.0676V29.7837Z" fill="#2BE1F9"/>
<path d="M37.0676 27.8218H35.106V29.7834H37.0676V27.8218Z" fill="#2BE1F9"/>
<path d="M35.1061 82.5171H33.1641V84.4759H35.1061V82.5171Z" fill="black"/>
<path d="M35.1061 80.5752H33.1641V82.5172H35.1061V80.5752Z" fill="black"/>
<path d="M35.1061 78.6108H33.1641V80.5724H35.1061V78.6108Z" fill="black"/>
<path d="M35.1061 76.6687H33.1641V78.6107H35.1061V76.6687Z" fill="black"/>
<path d="M35.1061 74.7073H33.1641V76.6689H35.1061V74.7073Z" fill="black"/>
<path d="M35.1061 72.7485H33.1641V74.7073H35.1061V72.7485Z" fill="black"/>
<path d="M35.1061 70.8008H33.1641V72.7456H35.1061V70.8008Z" fill="black"/>
<path d="M35.1061 68.8447H33.1641V70.8035H35.1061V68.8447Z" fill="black"/>
<path d="M35.1061 66.8999H33.1641V68.8419H35.1061V66.8999Z" fill="black"/>
<path d="M35.1061 64.9382H33.1641V66.8998H35.1061V64.9382Z" fill="black"/>
<path d="M35.1061 62.9963H33.1641V64.9383H35.1061V62.9963Z" fill="black"/>
<path d="M35.1061 61.0347H33.1641V62.9963H35.1061V61.0347Z" fill="black"/>
<path d="M35.1061 59.0732H33.1641V61.032H35.1061V59.0732Z" fill="black"/>
<path d="M35.1061 57.1311H33.1641V59.0731H35.1061V57.1311Z" fill="black"/>
<path d="M35.1061 55.1694H33.1641V57.131H35.1061V55.1694Z" fill="black"/>
<path d="M35.1061 53.2275H33.1641V55.1695H35.1061V53.2275Z" fill="#EDB58C"/>
<path d="M35.1061 51.2632H33.1641V53.2248H35.1061V51.2632Z" fill="#823D27"/>
<path d="M35.1061 49.3213H33.1641V51.2633H35.1061V49.3213Z" fill="#EDB58C"/>
<path d="M35.1061 47.3596H33.1641V49.3212H35.1061V47.3596Z" fill="black"/>
<path d="M35.1061 45.4175H33.1641V47.3595H35.1061V45.4175Z" fill="black"/>
<path d="M35.1061 43.4561H33.1641V45.4177H35.1061V43.4561Z" fill="black"/>
<path d="M35.1061 41.4944H33.1641V43.456H35.1061V41.4944Z" fill="black"/>
<path d="M35.1061 39.5522H33.1641V41.4943H35.1061V39.5522Z" fill="#2BE1F9"/>
<path d="M35.1061 37.5908H33.1641V39.5524H35.1061V37.5908Z" fill="#2BE1F9"/>
<path d="M35.1061 35.6487H33.1641V37.5907H35.1061V35.6487Z" fill="#2BE1F9"/>
<path d="M35.1061 33.687H33.1641V35.6486H35.1061V33.687Z" fill="#2BE1F9"/>
<path d="M35.1061 31.7451H33.1641V33.6871H35.1061V31.7451Z" fill="#2BE1F9"/>
<path d="M35.1061 29.7837H33.1641V31.7453H35.1061V29.7837Z" fill="#2BE1F9"/>
<path d="M35.1061 27.8218H33.1641V29.7834H35.1061V27.8218Z" fill="#2BE1F9"/>
<path d="M33.1642 55.1694H31.2026V57.131H33.1642V55.1694Z" fill="black"/>
<path d="M33.1642 53.2275H31.2026V55.1695H33.1642V53.2275Z" fill="black"/>
<path d="M33.1642 51.2632H31.2026V53.2248H33.1642V51.2632Z" fill="black"/>
<path d="M33.1642 49.3213H31.2026V51.2633H33.1642V49.3213Z" fill="black"/>
<path d="M33.1642 47.3596H31.2026V49.3212H33.1642V47.3596Z" fill="black"/>
<path d="M33.1642 41.4944H31.2026V43.456H33.1642V41.4944Z" fill="black"/>
<path d="M33.1642 39.5522H31.2026V41.4943H33.1642V39.5522Z" fill="#FCB029"/>
<path d="M33.1642 37.5908H31.2026V39.5524H33.1642V37.5908Z" fill="#2BE1F9"/>
<path d="M33.1642 35.6487H31.2026V37.5907H33.1642V35.6487Z" fill="#2BE1F9"/>
<path d="M33.1642 33.687H31.2026V35.6486H33.1642V33.687Z" fill="#2BE1F9"/>
<path d="M33.1642 31.7451H31.2026V33.6871H33.1642V31.7451Z" fill="#2BE1F9"/>
<path d="M33.1642 29.7837H31.2026V31.7453H33.1642V29.7837Z" fill="#2BE1F9"/>
<path d="M31.2028 41.4944H29.2607V43.456H31.2028V41.4944Z" fill="black"/>
<path d="M31.2028 39.5522H29.2607V41.4943H31.2028V39.5522Z" fill="#FCB029"/>
<path d="M31.2028 37.5908H29.2607V39.5524H31.2028V37.5908Z" fill="#FCB029"/>
<path d="M31.2028 35.6487H29.2607V37.5907H31.2028V35.6487Z" fill="#2BE1F9"/>
<path d="M31.2028 33.687H29.2607V35.6486H31.2028V33.687Z" fill="#2BE1F9"/>
<path d="M31.2028 31.7451H29.2607V33.6871H31.2028V31.7451Z" fill="#2BE1F9"/>
<path d="M29.2604 39.5522H27.2988V41.4943H29.2604V39.5522Z" fill="black"/>
<path d="M29.2604 37.5908H27.2988V39.5524H29.2604V37.5908Z" fill="#FCB029"/>
<path d="M29.2604 35.6487H27.2988V37.5907H29.2604V35.6487Z" fill="#FCB029"/>
<path d="M27.2989 37.5908H25.3569V39.5524H27.2989V37.5908Z" fill="black"/>
<path d="M27.2989 35.6487H25.3569V37.5907H27.2989V35.6487Z" fill="black"/>
</svg>
