<svg width="150" height="30" viewBox="0 0 150 30" fill="none" xmlns="http://www.w3.org/2000/svg">
<rect width="150" height="30" rx="6" fill="#BD482D"/>
<path d="M56.66 19.228C56.556 19.228 56.388 19.164 56.156 19.036C55.924 18.916 55.684 18.7 55.436 18.388C55.244 18.188 55.044 17.972 54.836 17.74C54.628 17.508 54.408 17.268 54.176 17.02C53.944 16.772 53.708 16.52 53.468 16.264C53.236 16.008 53.004 15.756 52.772 15.508C52.54 15.252 52.308 15 52.076 14.752C51.844 14.504 51.624 14.264 51.416 14.032C51.208 13.8 51.008 13.584 50.816 13.384C50.8 13.352 50.772 13.324 50.732 13.3C50.7 13.268 50.676 13.252 50.66 13.252C50.628 13.252 50.604 13.28 50.588 13.336C50.58 13.392 50.576 13.44 50.576 13.48C50.568 13.848 50.568 14.28 50.576 14.776C50.584 15.272 50.592 15.776 50.6 16.288C50.616 16.792 50.624 17.252 50.624 17.668C50.624 17.924 50.704 18.128 50.864 18.28C51.024 18.424 51.26 18.536 51.572 18.616C51.66 18.632 51.736 18.66 51.8 18.7C51.872 18.732 51.908 18.784 51.908 18.856C51.908 18.912 51.876 18.956 51.812 18.988C51.748 19.02 51.68 19.036 51.608 19.036C51.392 19.036 51.216 19.028 51.08 19.012C50.944 19.004 50.816 19 50.696 19C50.584 18.992 50.444 18.988 50.276 18.988C50.1 18.988 49.932 18.992 49.772 19C49.62 19.008 49.488 19.016 49.376 19.024C49.272 19.032 49.2 19.036 49.16 19.036C49.104 19.036 49.04 19.024 48.968 19C48.904 18.968 48.872 18.924 48.872 18.868C48.872 18.796 48.904 18.744 48.968 18.712C49.032 18.68 49.104 18.648 49.184 18.616C49.376 18.544 49.52 18.424 49.616 18.256C49.72 18.088 49.78 17.88 49.796 17.632C49.828 17.336 49.86 16.944 49.892 16.456C49.932 15.968 49.968 15.42 50 14.812C50.032 14.196 50.048 13.56 50.048 12.904C50.048 12.488 49.94 12.188 49.724 12.004C49.516 11.82 49.26 11.672 48.956 11.56C48.892 11.544 48.82 11.516 48.74 11.476C48.66 11.428 48.62 11.368 48.62 11.296C48.62 11.224 48.652 11.176 48.716 11.152C48.78 11.12 48.852 11.104 48.932 11.104C49.076 11.104 49.236 11.108 49.412 11.116C49.596 11.124 49.788 11.132 49.988 11.14C50.188 11.14 50.396 11.144 50.612 11.152C50.828 11.16 51.044 11.164 51.26 11.164C51.324 11.164 51.372 11.176 51.404 11.2C51.444 11.224 51.48 11.256 51.512 11.296C51.688 11.496 51.876 11.712 52.076 11.944C52.284 12.176 52.5 12.42 52.724 12.676C52.948 12.924 53.176 13.18 53.408 13.444C53.64 13.7 53.868 13.96 54.092 14.224C54.324 14.488 54.548 14.744 54.764 14.992C54.988 15.24 55.204 15.48 55.412 15.712C55.62 15.944 55.812 16.16 55.988 16.36C56.012 16.392 56.04 16.428 56.072 16.468C56.112 16.5 56.148 16.516 56.18 16.516C56.244 16.516 56.276 16.456 56.276 16.336C56.276 16.088 56.276 15.8 56.276 15.472C56.284 15.144 56.288 14.796 56.288 14.428C56.288 14.06 56.284 13.696 56.276 13.336C56.276 12.976 56.268 12.644 56.252 12.34C56.244 12.124 56.16 11.964 56 11.86C55.848 11.748 55.636 11.656 55.364 11.584C55.276 11.568 55.2 11.54 55.136 11.5C55.072 11.46 55.04 11.404 55.04 11.332C55.04 11.276 55.072 11.236 55.136 11.212C55.2 11.18 55.268 11.164 55.34 11.164C55.524 11.164 55.68 11.168 55.808 11.176C55.936 11.176 56.052 11.176 56.156 11.176C56.26 11.176 56.376 11.176 56.504 11.176C56.664 11.176 56.8 11.176 56.912 11.176C57.024 11.168 57.144 11.16 57.272 11.152C57.408 11.144 57.58 11.14 57.788 11.14C57.884 11.14 57.956 11.156 58.004 11.188C58.06 11.22 58.088 11.264 58.088 11.32C58.088 11.44 57.984 11.52 57.776 11.56C57.496 11.616 57.296 11.696 57.176 11.8C57.056 11.904 56.992 12.072 56.984 12.304C56.984 12.592 56.98 12.9 56.972 13.228C56.972 13.556 56.964 13.892 56.948 14.236C56.932 14.58 56.916 14.924 56.9 15.268C56.892 15.604 56.884 15.928 56.876 16.24C56.868 16.552 56.864 16.84 56.864 17.104C56.864 17.288 56.876 17.492 56.9 17.716C56.924 17.932 56.944 18.132 56.96 18.316C56.984 18.492 56.996 18.616 56.996 18.688C56.996 18.888 56.964 19.028 56.9 19.108C56.844 19.188 56.764 19.228 56.66 19.228ZM59.6551 19.06C59.5751 19.06 59.5111 19.04 59.4631 19C59.4231 18.968 59.4031 18.928 59.4031 18.88C59.4031 18.76 59.4911 18.676 59.6671 18.628C59.9391 18.556 60.1311 18.472 60.2431 18.376C60.3631 18.28 60.4231 18.104 60.4231 17.848V12.388C60.4231 12.132 60.3711 11.948 60.2671 11.836C60.1631 11.724 59.9671 11.636 59.6791 11.572C59.5751 11.548 59.5031 11.516 59.4631 11.476C59.4231 11.428 59.4031 11.376 59.4031 11.32C59.4031 11.272 59.4271 11.232 59.4751 11.2C59.5231 11.16 59.5871 11.14 59.6671 11.14C59.8671 11.14 60.0711 11.144 60.2791 11.152C60.4871 11.16 60.6911 11.172 60.8911 11.188C61.0911 11.196 61.2831 11.2 61.4671 11.2C61.8831 11.2 62.3271 11.196 62.7991 11.188C63.2711 11.18 63.6911 11.172 64.0591 11.164C64.3151 11.164 64.5271 11.152 64.6951 11.128C64.8631 11.096 64.9631 11.08 64.9951 11.08C65.0511 11.08 65.1111 11.1 65.1751 11.14C65.2471 11.172 65.2871 11.228 65.2951 11.308C65.3271 11.596 65.3671 11.876 65.4151 12.148C65.4631 12.42 65.4871 12.66 65.4871 12.868C65.4871 12.94 65.4711 12.996 65.4391 13.036C65.4071 13.076 65.3711 13.096 65.3311 13.096C65.2911 13.096 65.2471 13.08 65.1991 13.048C65.1591 13.016 65.1271 12.968 65.1031 12.904C65.0231 12.704 64.9511 12.532 64.8871 12.388C64.8231 12.244 64.7511 12.128 64.6711 12.04C64.5751 11.952 64.4591 11.868 64.3231 11.788C64.1871 11.708 64.0151 11.668 63.8071 11.668H62.9071C62.7311 11.668 62.5791 11.716 62.4511 11.812C62.3231 11.9 62.2591 12.028 62.2591 12.196V14.464C62.2591 14.56 62.2871 14.632 62.3431 14.68C62.3991 14.728 62.4711 14.752 62.5591 14.752H63.6151C63.8231 14.752 63.9711 14.684 64.0591 14.548C64.1551 14.404 64.2391 14.232 64.3111 14.032C64.3671 13.88 64.4471 13.804 64.5511 13.804C64.5911 13.804 64.6271 13.828 64.6591 13.876C64.6911 13.916 64.7031 13.98 64.6951 14.068C64.6871 14.164 64.6791 14.268 64.6711 14.38C64.6631 14.492 64.6551 14.604 64.6471 14.716C64.6471 14.828 64.6471 14.936 64.6471 15.04C64.6471 15.136 64.6471 15.24 64.6471 15.352C64.6551 15.464 64.6591 15.576 64.6591 15.688C64.6671 15.8 64.6751 15.908 64.6831 16.012C64.6991 16.124 64.6951 16.208 64.6711 16.264C64.6471 16.312 64.6111 16.336 64.5631 16.336C64.4351 16.336 64.3431 16.232 64.2871 16.024C64.2151 15.784 64.1351 15.6 64.0471 15.472C63.9591 15.344 63.8351 15.28 63.6751 15.28H62.5591C62.4631 15.28 62.3871 15.304 62.3311 15.352C62.2831 15.392 62.2591 15.46 62.2591 15.556V17.836C62.2591 18.076 62.3111 18.244 62.4151 18.34C62.5191 18.436 62.6791 18.484 62.8951 18.484H63.9271C64.1031 18.484 64.2711 18.464 64.4311 18.424C64.5911 18.384 64.7271 18.316 64.8391 18.22C64.9751 18.108 65.0991 17.968 65.2111 17.8C65.3231 17.632 65.4271 17.452 65.5231 17.26C65.5551 17.204 65.5871 17.168 65.6191 17.152C65.6591 17.128 65.7031 17.116 65.7511 17.116C65.7911 17.116 65.8191 17.14 65.8351 17.188C65.8591 17.236 65.8711 17.288 65.8711 17.344C65.8711 17.48 65.8511 17.632 65.8111 17.8C65.7711 17.968 65.7191 18.148 65.6551 18.34C65.5991 18.524 65.5431 18.708 65.4871 18.892C65.4711 18.948 65.4351 18.988 65.3791 19.012C65.3311 19.036 65.2791 19.048 65.2231 19.048C65.1191 19.048 64.9231 19.044 64.6351 19.036C64.3551 19.036 64.0231 19.032 63.6391 19.024C63.2551 19.016 62.8591 19.008 62.4511 19C62.0431 19 61.6631 19 61.3111 19C61.1511 19 60.9751 19.004 60.7831 19.012C60.5911 19.02 60.3951 19.028 60.1951 19.036C60.0031 19.052 59.8231 19.06 59.6551 19.06ZM67.3255 19.084C67.2295 19.084 67.1455 19.068 67.0735 19.036C67.0015 19.012 66.9655 18.964 66.9655 18.892C66.9655 18.812 66.9975 18.76 67.0615 18.736C67.1335 18.704 67.2095 18.672 67.2895 18.64C67.4495 18.6 67.6055 18.536 67.7575 18.448C67.9175 18.36 68.0815 18.24 68.2495 18.088C68.4175 17.936 68.5935 17.744 68.7775 17.512L70.2295 15.628C70.3335 15.5 70.3855 15.368 70.3855 15.232C70.3935 15.096 70.3415 14.952 70.2295 14.8L68.5255 12.4C68.4295 12.264 68.3335 12.144 68.2375 12.04C68.1495 11.928 68.0455 11.832 67.9255 11.752C67.8135 11.672 67.6815 11.612 67.5295 11.572C67.4495 11.548 67.3815 11.52 67.3255 11.488C67.2695 11.456 67.2415 11.4 67.2415 11.32C67.2415 11.256 67.2655 11.212 67.3135 11.188C67.3695 11.164 67.4295 11.152 67.4935 11.152C67.8535 11.152 68.2255 11.164 68.6095 11.188C69.0015 11.212 69.3855 11.224 69.7615 11.224C70.0175 11.224 70.2695 11.212 70.5175 11.188C70.7735 11.164 71.0295 11.152 71.2855 11.152C71.3575 11.152 71.4295 11.168 71.5015 11.2C71.5815 11.224 71.6215 11.264 71.6215 11.32C71.6215 11.384 71.5815 11.44 71.5015 11.488C71.4295 11.528 71.3535 11.556 71.2735 11.572C71.0335 11.628 70.8535 11.692 70.7335 11.764C70.6215 11.828 70.5655 11.924 70.5655 12.052C70.5655 12.148 70.6295 12.288 70.7575 12.472L71.8975 14.032C71.9775 14.136 72.0455 14.192 72.1015 14.2C72.1655 14.208 72.2335 14.16 72.3055 14.056L73.3015 12.688C73.4135 12.544 73.4895 12.42 73.5295 12.316C73.5695 12.204 73.5895 12.108 73.5895 12.028C73.5895 11.924 73.5495 11.836 73.4695 11.764C73.3895 11.692 73.2535 11.632 73.0615 11.584C72.9815 11.56 72.9015 11.528 72.8215 11.488C72.7415 11.448 72.7015 11.392 72.7015 11.32C72.7015 11.264 72.7375 11.224 72.8095 11.2C72.8815 11.176 72.9695 11.164 73.0735 11.164C73.2335 11.164 73.3655 11.168 73.4695 11.176C73.5735 11.176 73.6775 11.18 73.7815 11.188C73.8855 11.196 74.0135 11.2 74.1655 11.2C74.3975 11.2 74.6015 11.188 74.7775 11.164C74.9535 11.132 75.1575 11.116 75.3895 11.116C75.4775 11.116 75.5615 11.132 75.6415 11.164C75.7295 11.188 75.7735 11.236 75.7735 11.308C75.7735 11.388 75.7335 11.444 75.6535 11.476C75.5815 11.5 75.5015 11.524 75.4135 11.548C75.2375 11.604 75.0495 11.708 74.8495 11.86C74.6495 12.004 74.4735 12.168 74.3215 12.352L72.6775 14.38C72.5895 14.492 72.5415 14.592 72.5335 14.68C72.5255 14.768 72.5695 14.88 72.6655 15.016L74.6695 17.86C74.7975 18.036 74.9335 18.192 75.0775 18.328C75.2295 18.456 75.3815 18.544 75.5335 18.592C75.6215 18.608 75.7135 18.644 75.8095 18.7C75.9135 18.748 75.9655 18.812 75.9655 18.892C75.9655 18.948 75.9375 18.988 75.8815 19.012C75.8255 19.044 75.7495 19.06 75.6535 19.06C75.3575 19.06 75.0775 19.052 74.8135 19.036C74.5495 19.028 74.2935 19.016 74.0455 19C73.8055 18.984 73.5575 18.98 73.3015 18.988C73.0615 18.988 72.8215 18.992 72.5815 19C72.3495 19.016 72.1135 19.024 71.8735 19.024C71.8015 19.024 71.7295 19.008 71.6575 18.976C71.5855 18.944 71.5495 18.9 71.5495 18.844C71.5495 18.78 71.5895 18.728 71.6695 18.688C71.7495 18.64 71.8255 18.608 71.8975 18.592C72.0495 18.552 72.2015 18.496 72.3535 18.424C72.5055 18.352 72.5815 18.248 72.5815 18.112C72.5815 18.072 72.5735 18.028 72.5575 17.98C72.5415 17.932 72.5135 17.884 72.4735 17.836L71.1655 15.988C71.0695 15.844 70.9815 15.764 70.9015 15.748C70.8295 15.724 70.7415 15.792 70.6375 15.952L69.5095 17.572C69.4055 17.724 69.3415 17.852 69.3175 17.956C69.3015 18.06 69.2975 18.136 69.3055 18.184C69.3215 18.296 69.3735 18.392 69.4615 18.472C69.5575 18.544 69.6895 18.592 69.8575 18.616C69.9455 18.632 70.0255 18.664 70.0975 18.712C70.1775 18.752 70.2175 18.808 70.2175 18.88C70.2175 18.936 70.1815 18.976 70.1095 19C70.0455 19.024 69.9655 19.036 69.8695 19.036C69.6375 19.036 69.4095 19.032 69.1855 19.024C68.9695 19.016 68.7895 19.012 68.6455 19.012C68.4055 19.012 68.1855 19.024 67.9855 19.048C67.7935 19.072 67.5735 19.084 67.3255 19.084ZM79.4575 19.036C79.4015 19.036 79.3415 19.024 79.2775 19C79.2135 18.968 79.1815 18.924 79.1815 18.868C79.1815 18.796 79.2095 18.74 79.2655 18.7C79.3215 18.66 79.3895 18.632 79.4695 18.616C79.7735 18.552 79.9935 18.468 80.1295 18.364C80.2735 18.26 80.3455 18.08 80.3455 17.824V12.868C80.3455 12.556 80.3375 12.328 80.3215 12.184C80.3055 12.032 80.2815 11.932 80.2495 11.884C80.2255 11.828 80.1935 11.792 80.1535 11.776C80.0815 11.736 79.9855 11.716 79.8655 11.716C79.7535 11.708 79.6615 11.704 79.5895 11.704H79.3255C79.0695 11.704 78.8255 11.768 78.5935 11.896C78.3695 12.016 78.1895 12.168 78.0535 12.352C78.0135 12.408 77.9535 12.488 77.8735 12.592C77.8015 12.688 77.7215 12.776 77.6335 12.856C77.5535 12.928 77.4735 12.964 77.3935 12.964C77.3295 12.964 77.2855 12.944 77.2615 12.904C77.2375 12.856 77.2255 12.804 77.2255 12.748C77.2255 12.652 77.2495 12.552 77.2975 12.448C77.4495 12.144 77.5615 11.884 77.6335 11.668C77.7055 11.452 77.7535 11.204 77.7775 10.924C77.7935 10.804 77.8295 10.724 77.8855 10.684C77.9415 10.636 78.0055 10.612 78.0775 10.612C78.1335 10.612 78.1935 10.664 78.2575 10.768C78.3215 10.872 78.3895 10.956 78.4615 11.02C78.5415 11.084 78.6735 11.132 78.8575 11.164C79.0495 11.196 79.2055 11.212 79.3255 11.212H83.8375C84.0375 11.212 84.2055 11.192 84.3415 11.152C84.4855 11.112 84.5935 11.072 84.6655 11.032C84.7935 10.96 84.8935 10.88 84.9655 10.792C85.0455 10.704 85.1375 10.66 85.2415 10.66C85.2895 10.66 85.3215 10.68 85.3375 10.72C85.3615 10.752 85.3735 10.8 85.3735 10.864C85.3735 10.896 85.3695 10.936 85.3615 10.984C85.3615 11.032 85.3575 11.076 85.3495 11.116C85.3095 11.268 85.2695 11.416 85.2295 11.56C85.1895 11.696 85.1575 11.828 85.1335 11.956C85.1095 12.084 85.0975 12.216 85.0975 12.352V12.592C85.0975 12.72 85.0815 12.824 85.0495 12.904C85.0255 12.984 84.9735 13.024 84.8935 13.024C84.8215 13.024 84.7615 12.988 84.7135 12.916C84.6655 12.836 84.6135 12.712 84.5575 12.544C84.4695 12.256 84.3375 12.044 84.1615 11.908C83.9935 11.772 83.7335 11.704 83.3815 11.704H82.7575C82.6215 11.704 82.5095 11.736 82.4215 11.8C82.3415 11.856 82.2815 11.976 82.2415 12.16C82.2015 12.336 82.1815 12.608 82.1815 12.976V17.812C82.1815 18.052 82.2455 18.228 82.3735 18.34C82.5095 18.444 82.7335 18.536 83.0455 18.616C83.1255 18.64 83.1935 18.668 83.2495 18.7C83.3055 18.732 83.3335 18.784 83.3335 18.856C83.3335 18.912 83.3095 18.956 83.2615 18.988C83.2135 19.02 83.1535 19.036 83.0815 19.036C82.9055 19.036 82.7055 19.028 82.4815 19.012C82.2655 19.004 82.0455 18.996 81.8215 18.988C81.6055 18.98 81.4175 18.976 81.2575 18.976C81.0895 18.976 80.8975 18.98 80.6815 18.988C80.4735 18.996 80.2615 19.004 80.0455 19.012C79.8375 19.028 79.6415 19.036 79.4575 19.036Z" fill="#F9F7E7"/>
<path d="M101.5 15L94 19.3301V10.6699L101.5 15Z" fill="#F9F7E7"/>
</svg>
