<svg width="150" height="30" viewBox="0 0 150 30" fill="none" xmlns="http://www.w3.org/2000/svg">
<rect width="150" height="30" rx="6" fill="#29100A"/>
<path d="M33.5 15L41 10.6699V19.3301L33.5 15Z" fill="#BD482D"/>
<path d="M49.944 19.036C49.88 19.036 49.824 19.024 49.776 19C49.728 18.968 49.704 18.924 49.704 18.868C49.704 18.74 49.788 18.656 49.956 18.616C50.26 18.552 50.468 18.472 50.58 18.376C50.7 18.272 50.76 18.088 50.76 17.824V12.448C50.76 12.176 50.712 11.98 50.616 11.86C50.52 11.732 50.328 11.636 50.04 11.572C49.936 11.548 49.864 11.516 49.824 11.476C49.784 11.428 49.764 11.376 49.764 11.32C49.764 11.272 49.788 11.232 49.836 11.2C49.884 11.16 49.948 11.14 50.028 11.14C50.212 11.14 50.396 11.144 50.58 11.152C50.772 11.16 50.956 11.172 51.132 11.188C51.316 11.196 51.488 11.2 51.648 11.2C51.84 11.2 52.008 11.192 52.152 11.176C52.304 11.152 52.468 11.132 52.644 11.116C52.828 11.092 53.048 11.08 53.304 11.08C54.28 11.08 55.052 11.288 55.62 11.704C56.196 12.112 56.484 12.676 56.484 13.396C56.484 13.9 56.376 14.364 56.16 14.788C55.952 15.212 55.632 15.556 55.2 15.82C54.776 16.076 54.236 16.204 53.58 16.204C53.372 16.204 53.212 16.172 53.1 16.108C52.996 16.044 52.944 15.968 52.944 15.88C52.944 15.824 52.968 15.78 53.016 15.748C53.072 15.708 53.12 15.688 53.16 15.688C53.248 15.688 53.324 15.7 53.388 15.724C53.452 15.74 53.54 15.748 53.652 15.748C53.988 15.748 54.24 15.56 54.408 15.184C54.584 14.808 54.672 14.312 54.672 13.696C54.672 12.96 54.552 12.428 54.312 12.1C54.072 11.772 53.736 11.608 53.304 11.608C53.08 11.608 52.908 11.66 52.788 11.764C52.676 11.86 52.62 12.012 52.62 12.22L52.608 17.8C52.608 18.056 52.676 18.24 52.812 18.352C52.948 18.456 53.184 18.544 53.52 18.616C53.608 18.632 53.672 18.66 53.712 18.7C53.76 18.732 53.784 18.784 53.784 18.856C53.784 18.912 53.764 18.956 53.724 18.988C53.684 19.02 53.628 19.036 53.556 19.036C53.38 19.036 53.176 19.028 52.944 19.012C52.72 19.004 52.496 18.996 52.272 18.988C52.048 18.98 51.856 18.976 51.696 18.976C51.528 18.976 51.344 18.98 51.144 18.988C50.944 18.996 50.736 19.004 50.52 19.012C50.312 19.028 50.12 19.036 49.944 19.036ZM65.4891 19.252C65.0811 19.252 64.7371 19.2 64.4571 19.096C64.1771 19 63.9371 18.872 63.7371 18.712C63.5451 18.544 63.3731 18.356 63.2211 18.148C63.0451 17.916 62.8731 17.684 62.7051 17.452C62.5451 17.22 62.3851 16.968 62.2251 16.696C62.0651 16.424 61.8971 16.112 61.7211 15.76C61.6411 15.584 61.5331 15.46 61.3971 15.388C61.3251 15.34 61.2531 15.308 61.1811 15.292C61.1091 15.276 61.0451 15.268 60.9891 15.268C60.9491 15.268 60.9171 15.292 60.8931 15.34C60.8691 15.38 60.8571 15.436 60.8571 15.508V17.8C60.8571 18.048 60.9251 18.228 61.0611 18.34C61.1971 18.452 61.4331 18.544 61.7691 18.616C61.8571 18.632 61.9211 18.66 61.9611 18.7C62.0091 18.732 62.0331 18.784 62.0331 18.856C62.0331 18.912 62.0131 18.956 61.9731 18.988C61.9331 19.02 61.8771 19.036 61.8051 19.036C61.6291 19.036 61.4251 19.028 61.1931 19.012C60.9691 19.004 60.7451 18.996 60.5211 18.988C60.2971 18.98 60.1051 18.976 59.9451 18.976C59.7771 18.976 59.5931 18.98 59.3931 18.988C59.1931 18.996 58.9851 19.004 58.7691 19.012C58.5611 19.028 58.3691 19.036 58.1931 19.036C58.1291 19.036 58.0731 19.024 58.0251 19C57.9771 18.968 57.9531 18.924 57.9531 18.868C57.9531 18.74 58.0371 18.656 58.2051 18.616C58.5091 18.552 58.7171 18.472 58.8291 18.376C58.9491 18.272 59.0091 18.088 59.0091 17.824V12.436C59.0091 12.244 58.9891 12.092 58.9491 11.98C58.9171 11.868 58.8491 11.784 58.7451 11.728C58.6411 11.664 58.4891 11.612 58.2891 11.572C58.1851 11.548 58.1131 11.516 58.0731 11.476C58.0331 11.428 58.0131 11.376 58.0131 11.32C58.0131 11.272 58.0371 11.232 58.0851 11.2C58.1331 11.16 58.1971 11.14 58.2771 11.14C58.5331 11.14 58.7411 11.148 58.9011 11.164C59.0691 11.18 59.2251 11.196 59.3691 11.212C59.5211 11.22 59.6971 11.224 59.8971 11.224C60.0811 11.224 60.2411 11.216 60.3771 11.2C60.5211 11.176 60.6811 11.156 60.8571 11.14C61.0411 11.124 61.2731 11.116 61.5531 11.116C62.4891 11.116 63.2091 11.276 63.7131 11.596C64.2171 11.916 64.4691 12.4 64.4691 13.048C64.4691 13.408 64.3891 13.712 64.2291 13.96C64.0771 14.2 63.8811 14.4 63.6411 14.56C63.4091 14.712 63.1731 14.828 62.9331 14.908C62.9011 14.916 62.8851 14.936 62.8851 14.968C62.8931 14.992 62.9051 15.02 62.9211 15.052C63.1611 15.404 63.3931 15.748 63.6171 16.084C63.8491 16.412 64.0851 16.72 64.3251 17.008C64.5651 17.288 64.8131 17.548 65.0691 17.788C65.3411 18.044 65.6171 18.196 65.8971 18.244C66.1851 18.284 66.4691 18.304 66.7491 18.304C66.8691 18.304 66.9291 18.376 66.9291 18.52C66.9291 18.696 66.8651 18.84 66.7371 18.952C66.6171 19.056 66.4491 19.132 66.2331 19.18C66.0171 19.228 65.7691 19.252 65.4891 19.252ZM61.3131 14.884C61.6171 14.884 61.8691 14.816 62.0691 14.68C62.2691 14.544 62.4211 14.36 62.5251 14.128C62.6291 13.888 62.6811 13.616 62.6811 13.312C62.6811 12.944 62.6331 12.636 62.5371 12.388C62.4411 12.14 62.2971 11.956 62.1051 11.836C61.9131 11.708 61.6651 11.644 61.3611 11.644C61.1851 11.644 61.0571 11.716 60.9771 11.86C60.9051 11.996 60.8691 12.292 60.8691 12.748C60.8611 12.932 60.8571 13.164 60.8571 13.444C60.8571 13.724 60.8571 14.056 60.8571 14.44C60.8571 14.6 60.8971 14.716 60.9771 14.788C61.0651 14.852 61.1771 14.884 61.3131 14.884ZM68.3183 19.06C68.2383 19.06 68.1743 19.04 68.1263 19C68.0863 18.968 68.0663 18.928 68.0663 18.88C68.0663 18.76 68.1543 18.676 68.3303 18.628C68.6023 18.556 68.7943 18.472 68.9063 18.376C69.0263 18.28 69.0863 18.104 69.0863 17.848V12.388C69.0863 12.132 69.0343 11.948 68.9303 11.836C68.8263 11.724 68.6303 11.636 68.3423 11.572C68.2383 11.548 68.1663 11.516 68.1263 11.476C68.0863 11.428 68.0663 11.376 68.0663 11.32C68.0663 11.272 68.0903 11.232 68.1383 11.2C68.1863 11.16 68.2503 11.14 68.3303 11.14C68.5303 11.14 68.7343 11.144 68.9423 11.152C69.1503 11.16 69.3543 11.172 69.5543 11.188C69.7543 11.196 69.9463 11.2 70.1303 11.2C70.5463 11.2 70.9903 11.196 71.4623 11.188C71.9343 11.18 72.3543 11.172 72.7223 11.164C72.9783 11.164 73.1903 11.152 73.3583 11.128C73.5263 11.096 73.6263 11.08 73.6583 11.08C73.7143 11.08 73.7743 11.1 73.8383 11.14C73.9103 11.172 73.9503 11.228 73.9583 11.308C73.9903 11.596 74.0303 11.876 74.0783 12.148C74.1263 12.42 74.1503 12.66 74.1503 12.868C74.1503 12.94 74.1343 12.996 74.1023 13.036C74.0703 13.076 74.0343 13.096 73.9943 13.096C73.9543 13.096 73.9103 13.08 73.8623 13.048C73.8223 13.016 73.7903 12.968 73.7663 12.904C73.6863 12.704 73.6143 12.532 73.5503 12.388C73.4863 12.244 73.4143 12.128 73.3343 12.04C73.2383 11.952 73.1223 11.868 72.9863 11.788C72.8503 11.708 72.6783 11.668 72.4703 11.668H71.5703C71.3943 11.668 71.2423 11.716 71.1143 11.812C70.9863 11.9 70.9223 12.028 70.9223 12.196V14.464C70.9223 14.56 70.9503 14.632 71.0063 14.68C71.0623 14.728 71.1343 14.752 71.2223 14.752H72.2783C72.4863 14.752 72.6343 14.684 72.7223 14.548C72.8183 14.404 72.9023 14.232 72.9743 14.032C73.0303 13.88 73.1103 13.804 73.2143 13.804C73.2543 13.804 73.2903 13.828 73.3223 13.876C73.3543 13.916 73.3663 13.98 73.3583 14.068C73.3503 14.164 73.3423 14.268 73.3343 14.38C73.3263 14.492 73.3183 14.604 73.3103 14.716C73.3103 14.828 73.3103 14.936 73.3103 15.04C73.3103 15.136 73.3103 15.24 73.3103 15.352C73.3183 15.464 73.3223 15.576 73.3223 15.688C73.3303 15.8 73.3383 15.908 73.3463 16.012C73.3623 16.124 73.3583 16.208 73.3343 16.264C73.3103 16.312 73.2743 16.336 73.2263 16.336C73.0983 16.336 73.0063 16.232 72.9503 16.024C72.8783 15.784 72.7983 15.6 72.7103 15.472C72.6223 15.344 72.4983 15.28 72.3383 15.28H71.2223C71.1263 15.28 71.0503 15.304 70.9943 15.352C70.9463 15.392 70.9223 15.46 70.9223 15.556V17.836C70.9223 18.076 70.9743 18.244 71.0783 18.34C71.1823 18.436 71.3423 18.484 71.5583 18.484H72.5903C72.7663 18.484 72.9343 18.464 73.0943 18.424C73.2543 18.384 73.3903 18.316 73.5023 18.22C73.6383 18.108 73.7623 17.968 73.8743 17.8C73.9863 17.632 74.0903 17.452 74.1863 17.26C74.2183 17.204 74.2503 17.168 74.2823 17.152C74.3223 17.128 74.3663 17.116 74.4143 17.116C74.4543 17.116 74.4823 17.14 74.4983 17.188C74.5223 17.236 74.5343 17.288 74.5343 17.344C74.5343 17.48 74.5143 17.632 74.4743 17.8C74.4343 17.968 74.3823 18.148 74.3183 18.34C74.2623 18.524 74.2063 18.708 74.1503 18.892C74.1343 18.948 74.0983 18.988 74.0423 19.012C73.9943 19.036 73.9423 19.048 73.8863 19.048C73.7823 19.048 73.5863 19.044 73.2983 19.036C73.0183 19.036 72.6863 19.032 72.3023 19.024C71.9183 19.016 71.5223 19.008 71.1143 19C70.7063 19 70.3263 19 69.9743 19C69.8143 19 69.6383 19.004 69.4463 19.012C69.2543 19.02 69.0583 19.028 68.8583 19.036C68.6663 19.052 68.4863 19.06 68.3183 19.06ZM79.8646 19.204C79.7606 19.204 79.6806 19.14 79.6246 19.012C79.5686 18.892 79.4966 18.732 79.4086 18.532C79.3286 18.332 79.2606 18.144 79.2046 17.968L76.8406 12.4C76.7606 12.208 76.6526 12.04 76.5166 11.896C76.3886 11.744 76.2086 11.64 75.9766 11.584C75.8966 11.552 75.8286 11.52 75.7726 11.488C75.7166 11.456 75.6886 11.4 75.6886 11.32C75.6886 11.264 75.7126 11.224 75.7606 11.2C75.8166 11.168 75.8766 11.152 75.9406 11.152C76.1006 11.152 76.2846 11.156 76.4926 11.164C76.7086 11.172 76.9246 11.18 77.1406 11.188C77.3566 11.196 77.5406 11.2 77.6926 11.2C77.8526 11.2 78.0486 11.196 78.2806 11.188C78.5126 11.172 78.7446 11.164 78.9766 11.164C79.2086 11.156 79.4046 11.152 79.5646 11.152C79.6366 11.152 79.7086 11.168 79.7806 11.2C79.8526 11.224 79.8886 11.264 79.8886 11.32C79.8886 11.384 79.8526 11.44 79.7806 11.488C79.7086 11.528 79.6286 11.556 79.5406 11.572C79.3086 11.628 79.1366 11.688 79.0246 11.752C78.9126 11.816 78.8566 11.916 78.8566 12.052C78.8566 12.108 78.8646 12.168 78.8806 12.232C78.8966 12.288 78.9086 12.34 78.9166 12.388L80.4646 16.732C80.4806 16.78 80.4966 16.808 80.5126 16.816C80.5366 16.824 80.5606 16.792 80.5846 16.72L81.9886 13.036C82.1486 12.628 82.1806 12.296 82.0846 12.04C81.9886 11.784 81.7646 11.632 81.4126 11.584C81.3246 11.568 81.2406 11.54 81.1606 11.5C81.0806 11.452 81.0406 11.392 81.0406 11.32C81.0406 11.264 81.0766 11.224 81.1486 11.2C81.2286 11.176 81.3086 11.164 81.3886 11.164C81.5566 11.164 81.6966 11.168 81.8086 11.176C81.9206 11.176 82.0286 11.18 82.1326 11.188C82.2446 11.188 82.3806 11.188 82.5406 11.188C82.7726 11.188 82.9926 11.18 83.2006 11.164C83.4086 11.14 83.6286 11.128 83.8606 11.128C83.9486 11.128 84.0286 11.14 84.1006 11.164C84.1806 11.188 84.2206 11.24 84.2206 11.32C84.2206 11.392 84.1846 11.444 84.1126 11.476C84.0486 11.5 83.9766 11.528 83.8966 11.56C83.6406 11.624 83.4326 11.748 83.2726 11.932C83.1206 12.108 82.9726 12.372 82.8286 12.724L81.0046 17.092C80.8766 17.388 80.7606 17.648 80.6566 17.872C80.5606 18.096 80.4726 18.3 80.3926 18.484C80.3126 18.668 80.2286 18.844 80.1406 19.012C80.1166 19.084 80.0846 19.132 80.0446 19.156C80.0046 19.188 79.9446 19.204 79.8646 19.204ZM85.5533 19.036C85.4893 19.036 85.4333 19.024 85.3853 19C85.3373 18.968 85.3133 18.924 85.3133 18.868C85.3133 18.74 85.3973 18.656 85.5653 18.616C85.8693 18.552 86.0813 18.472 86.2013 18.376C86.3213 18.272 86.3813 18.092 86.3813 17.836V12.388C86.3813 12.132 86.3293 11.952 86.2253 11.848C86.1213 11.736 85.9093 11.644 85.5893 11.572C85.4213 11.532 85.3373 11.448 85.3373 11.32C85.3373 11.264 85.3613 11.22 85.4093 11.188C85.4573 11.156 85.5133 11.14 85.5773 11.14C85.7613 11.14 85.9533 11.144 86.1533 11.152C86.3613 11.16 86.5613 11.172 86.7533 11.188C86.9533 11.196 87.1373 11.2 87.3053 11.2C87.4653 11.2 87.6453 11.196 87.8453 11.188C88.0533 11.18 88.2613 11.172 88.4693 11.164C88.6853 11.156 88.8813 11.152 89.0573 11.152C89.1293 11.152 89.1853 11.168 89.2253 11.2C89.2653 11.224 89.2853 11.264 89.2853 11.32C89.2853 11.4 89.2613 11.456 89.2133 11.488C89.1733 11.52 89.1093 11.548 89.0213 11.572C88.7013 11.66 88.4893 11.76 88.3853 11.872C88.2813 11.976 88.2293 12.152 88.2293 12.4V17.824C88.2293 18.056 88.2853 18.228 88.3973 18.34C88.5173 18.444 88.7333 18.536 89.0453 18.616C89.1253 18.64 89.1853 18.668 89.2253 18.7C89.2733 18.732 89.2973 18.784 89.2973 18.856C89.2973 18.912 89.2773 18.956 89.2373 18.988C89.2053 19.02 89.1533 19.036 89.0813 19.036C88.9053 19.036 88.7093 19.028 88.4933 19.012C88.2773 19.004 88.0653 18.996 87.8573 18.988C87.6493 18.98 87.4653 18.976 87.3053 18.976C87.1373 18.976 86.9533 18.98 86.7533 18.988C86.5533 18.996 86.3493 19.004 86.1413 19.012C85.9333 19.028 85.7373 19.036 85.5533 19.036ZM94.9523 19.168C94.4003 19.168 93.8723 19.076 93.3683 18.892C92.8723 18.7 92.4283 18.432 92.0363 18.088C91.6523 17.736 91.3483 17.32 91.1243 16.84C90.9083 16.352 90.8003 15.812 90.8003 15.22C90.8003 14.676 90.8883 14.156 91.0643 13.66C91.2483 13.156 91.5203 12.708 91.8803 12.316C92.2403 11.924 92.6843 11.612 93.2123 11.38C93.7483 11.148 94.3643 11.032 95.0603 11.032C95.6203 11.032 96.1483 11.128 96.6443 11.32C97.1483 11.504 97.5923 11.772 97.9763 12.124C98.3603 12.468 98.6643 12.884 98.8883 13.372C99.1123 13.852 99.2243 14.388 99.2243 14.98C99.2243 15.516 99.1323 16.036 98.9483 16.54C98.7643 17.044 98.4923 17.492 98.1323 17.884C97.7723 18.276 97.3243 18.588 96.7883 18.82C96.2603 19.052 95.6483 19.168 94.9523 19.168ZM95.1683 18.616C95.6243 18.616 96.0043 18.488 96.3083 18.232C96.6203 17.976 96.8523 17.62 97.0043 17.164C97.1563 16.708 97.2323 16.184 97.2323 15.592C97.2323 15.104 97.1843 14.624 97.0883 14.152C97.0003 13.672 96.8563 13.24 96.6563 12.856C96.4643 12.472 96.2163 12.168 95.9123 11.944C95.6083 11.712 95.2483 11.596 94.8323 11.596C94.3843 11.596 94.0043 11.724 93.6923 11.98C93.3883 12.236 93.1603 12.588 93.0083 13.036C92.8563 13.484 92.7803 14.004 92.7803 14.596C92.7803 15.092 92.8283 15.58 92.9243 16.06C93.0203 16.532 93.1643 16.96 93.3563 17.344C93.5483 17.728 93.7923 18.036 94.0883 18.268C94.3923 18.5 94.7523 18.616 95.1683 18.616ZM105.006 19.168C104.254 19.168 103.626 19.036 103.122 18.772C102.618 18.5 102.238 18.124 101.982 17.644C101.734 17.164 101.61 16.604 101.61 15.964V12.544C101.61 12.32 101.558 12.116 101.454 11.932C101.35 11.748 101.198 11.632 100.998 11.584C100.774 11.52 100.662 11.432 100.662 11.32C100.662 11.264 100.69 11.22 100.746 11.188C100.81 11.156 100.886 11.14 100.974 11.14C101.23 11.14 101.494 11.152 101.766 11.176C102.038 11.192 102.294 11.2 102.534 11.2C102.758 11.2 103.026 11.192 103.338 11.176C103.658 11.16 103.93 11.152 104.154 11.152C104.25 11.152 104.326 11.168 104.382 11.2C104.446 11.224 104.478 11.268 104.478 11.332C104.478 11.42 104.418 11.484 104.298 11.524C104.178 11.564 104.05 11.616 103.914 11.68C103.794 11.728 103.69 11.828 103.602 11.98C103.514 12.124 103.47 12.332 103.47 12.604V15.748C103.47 16.292 103.558 16.74 103.734 17.092C103.91 17.444 104.142 17.704 104.43 17.872C104.726 18.04 105.054 18.124 105.414 18.124C106.142 18.124 106.682 17.908 107.034 17.476C107.394 17.044 107.574 16.384 107.574 15.496C107.574 15.288 107.574 15.056 107.574 14.8C107.582 14.536 107.586 14.268 107.586 13.996C107.586 13.716 107.582 13.452 107.574 13.204C107.566 12.844 107.538 12.564 107.49 12.364C107.45 12.164 107.386 12.008 107.298 11.896C107.21 11.784 107.09 11.692 106.938 11.62C106.85 11.572 106.746 11.532 106.626 11.5C106.514 11.46 106.458 11.404 106.458 11.332C106.458 11.268 106.49 11.224 106.554 11.2C106.618 11.176 106.706 11.164 106.818 11.164C107.106 11.164 107.322 11.168 107.466 11.176C107.618 11.184 107.786 11.188 107.97 11.188C108.122 11.188 108.246 11.184 108.342 11.176C108.446 11.168 108.55 11.16 108.654 11.152C108.766 11.144 108.898 11.14 109.05 11.14C109.146 11.14 109.222 11.152 109.278 11.176C109.334 11.2 109.362 11.248 109.362 11.32C109.362 11.424 109.254 11.508 109.038 11.572C108.774 11.644 108.586 11.768 108.474 11.944C108.37 12.112 108.31 12.34 108.294 12.628C108.27 13.236 108.254 13.796 108.246 14.308C108.238 14.812 108.234 15.328 108.234 15.856C108.226 16.504 108.078 17.08 107.79 17.584C107.51 18.08 107.126 18.468 106.638 18.748C106.15 19.028 105.606 19.168 105.006 19.168ZM113.059 19.168C112.715 19.168 112.383 19.128 112.063 19.048C111.743 18.968 111.443 18.84 111.163 18.664C111.115 18.624 111.067 18.58 111.019 18.532C110.971 18.484 110.935 18.432 110.911 18.376C110.831 18.16 110.775 17.896 110.743 17.584C110.719 17.272 110.711 16.956 110.719 16.636C110.719 16.58 110.743 16.54 110.791 16.516C110.839 16.492 110.895 16.48 110.959 16.48C111.039 16.48 111.091 16.492 111.115 16.516C111.147 16.532 111.179 16.568 111.211 16.624C111.387 17.224 111.647 17.708 111.991 18.076C112.343 18.444 112.751 18.628 113.215 18.628C113.471 18.628 113.679 18.572 113.839 18.46C114.007 18.34 114.135 18.192 114.223 18.016C114.311 17.832 114.355 17.648 114.355 17.464C114.355 17.208 114.303 16.992 114.199 16.816C114.103 16.64 113.955 16.48 113.755 16.336C113.555 16.192 113.299 16.036 112.987 15.868C112.651 15.676 112.327 15.476 112.015 15.268C111.703 15.052 111.447 14.792 111.247 14.488C111.047 14.184 110.947 13.804 110.947 13.348C110.947 12.876 111.067 12.468 111.307 12.124C111.555 11.78 111.891 11.512 112.315 11.32C112.739 11.128 113.215 11.032 113.743 11.032C114.047 11.032 114.335 11.064 114.607 11.128C114.887 11.192 115.111 11.256 115.279 11.32C115.375 11.36 115.443 11.404 115.483 11.452C115.531 11.5 115.571 11.584 115.603 11.704C115.643 11.872 115.675 12.076 115.699 12.316C115.731 12.556 115.747 12.82 115.747 13.108C115.747 13.212 115.675 13.264 115.531 13.264C115.459 13.264 115.391 13.248 115.327 13.216C115.271 13.176 115.235 13.128 115.219 13.072C115.083 12.592 114.883 12.228 114.619 11.98C114.355 11.732 114.031 11.608 113.647 11.608C113.407 11.608 113.203 11.648 113.035 11.728C112.867 11.808 112.739 11.928 112.651 12.088C112.571 12.248 112.531 12.448 112.531 12.688C112.531 12.88 112.595 13.06 112.723 13.228C112.859 13.388 113.051 13.552 113.299 13.72C113.547 13.888 113.831 14.068 114.151 14.26C114.583 14.516 114.927 14.768 115.183 15.016C115.439 15.264 115.623 15.528 115.735 15.808C115.855 16.08 115.915 16.396 115.915 16.756C115.915 17.3 115.795 17.752 115.555 18.112C115.323 18.472 114.991 18.74 114.559 18.916C114.135 19.084 113.635 19.168 113.059 19.168Z" fill="#BD482D"/>
</svg>
