<svg width="104" height="26" viewBox="0 0 104 26" fill="none" xmlns="http://www.w3.org/2000/svg">
<path d="M50.0656 6.91306L41.7426 18.7559C41.9213 18.7559 42.347 18.7299 42.5061 18.8079C43.039 19.0581 43.1301 19.5229 43.4421 19.9843C43.5786 20.1793 43.7346 20.3938 43.9523 20.5011C44.0501 20.5531 44.1635 20.5758 44.271 20.5726C44.4755 20.5661 44.5732 20.4458 44.6901 20.2866C44.7875 20.1501 44.8786 20.0103 44.963 19.8706C45.2101 19.4774 45.1874 19.4611 45.4537 19.0809C45.6003 18.8599 45.9123 18.7559 46.3412 18.7559H53.8517C54.2873 18.7559 54.6024 18.7656 54.7486 18.9898C55.0153 19.3734 55.0606 19.4774 55.3077 19.8738C55.3988 20.0169 55.4833 20.1566 55.5806 20.2898C55.6979 20.4458 55.7952 20.5661 56.0001 20.5758C56.1135 20.5758 56.221 20.5531 56.3184 20.5043C56.5361 20.3906 56.689 20.1826 56.8286 19.9876C57.1441 19.5261 57.2966 19.1523 57.8295 18.8989C57.9921 18.8241 58.2392 18.7559 58.4179 18.7559L50.0624 6.91306H50.0589H50.0656ZM47.8945 15.6457L49.8153 12.8117C49.994 12.5452 50.2345 12.5257 50.4264 12.8117L52.3469 15.6457H47.8945Z" fill="#F9F7E7"/>
<path d="M59.1298 18.7559H72.3017C72.8283 18.7559 72.9874 18.4634 72.9874 18.0571V16.2079C72.9874 15.8699 72.9874 15.6911 72.5812 15.6911H66.9426C66.6987 15.6879 65.9933 15.7171 66.3999 15.2036L73.2505 6.91955H60.0623C59.7147 6.91955 59.6334 6.95204 59.6334 7.4623V9.41551C59.6334 9.73075 59.6788 9.81524 60.0623 9.81524H65.9351C66.3964 9.81524 66.5427 9.97124 66.1493 10.527L59.1298 18.7494" fill="#F9F7E7"/>
<path d="M81.6126 6.91955C77.1345 6.91955 73.5074 9.18476 73.5074 12.776C73.5074 16.3671 77.1376 18.6323 81.6126 18.6323C86.0881 18.6323 89.7182 16.6076 89.7182 12.776C89.7182 9.24325 86.0881 6.91955 81.6126 6.91955ZM86.0068 12.776C86.013 14.8787 84.0371 15.7204 81.6095 15.7204C79.182 15.7204 77.2123 15.1062 77.2123 12.776C77.2123 10.7837 79.182 9.83151 81.6095 9.83151C84.0371 9.83151 86.0001 10.6992 86.0068 12.776Z" fill="#F9F7E7"/>
<path d="M101.97 10.3775C97.011 8.96703 94.6613 9.55853 94.2875 9.83475C93.8751 10.1338 93.8324 10.787 94.3755 10.9658C95.0124 11.1802 96.6404 11.281 98.9839 11.6157C101.759 12.0837 103.267 12.5452 103.816 13.9167C104.531 16.0617 103.062 17.7679 100.667 18.4049C97.723 19.1686 92.7698 18.6714 90.3031 16.9489C90.9303 16.2632 91.2 15.6652 91.3302 14.6609C93.3386 15.5222 96.3221 16.2469 99.5656 15.8569C99.9359 15.8017 100.557 15.6652 100.658 15.2232C100.7 15.0314 100.641 14.8429 100.485 14.7194C100.28 14.5537 100.024 14.5472 99.7736 14.5245C99.1364 14.4692 95.9613 14.3554 93.316 13.5982C92.6138 13.3967 91.9022 13.0782 91.3658 12.5647C90.9596 12.1747 90.7031 11.645 90.5956 11.099C90.4658 10.4003 90.6022 9.682 90.9823 9.07752C91.548 8.18055 92.4418 7.61181 93.5111 7.27381C95.747 6.64982 100.284 6.95533 103.04 8.11229C102.432 8.60304 102.11 9.46751 101.983 10.3775H101.97Z" fill="#F9F7E7"/>
<path d="M25.7267 16.2502C25.535 15.9252 25.769 15.5092 26.1492 15.5092H30.5951C30.9721 15.5092 31.2094 15.0964 31.0176 14.7682L29.2367 11.7392C29.1489 11.5897 28.9896 11.4955 28.8142 11.4955H23.2177C23.0455 11.4955 22.883 11.4045 22.7953 11.2517L16.2824 0.552913C15.8306 -0.162075 15.2326 -0.220574 14.7386 0.595162L8.28749 11.2582C8.19976 11.4077 8.04051 11.5053 7.86176 11.5053H2.26859C2.09634 11.5053 1.93385 11.5962 1.8461 11.749L0.0683787 14.7747C-0.123368 15.0997 0.110628 15.5157 0.490872 15.5157H4.93679C5.3138 15.5157 5.55104 15.9284 5.35931 16.2566L0.0683787 25.259C-0.123368 25.584 0.110628 26 0.490872 26H13.1852C13.4582 26 13.6759 25.779 13.6759 25.5093V22.7143C13.6759 22.4413 13.4549 22.2236 13.1852 22.2236H6.20103L10.0815 15.5092H21.0435L24.9532 22.2333L17.7871 22.2203C17.5141 22.2203 17.2964 22.4413 17.2964 22.7111V25.506C17.2964 25.779 17.5173 25.9968 17.7871 25.9968H30.5984C30.9754 25.9968 31.2126 25.584 31.0209 25.2557L25.73 16.2437L25.7267 16.2502ZM18.7101 11.502H12.3987L15.5414 6.05183L18.7101 11.502Z" fill="#F9F7E7"/>
</svg>
