<svg width="300" height="36" viewBox="0 0 300 36" fill="none" xmlns="http://www.w3.org/2000/svg">
<path d="M124.412 0.469416C123.864 0.469416 122.766 1.83072 123.041 0L157.227 0.0938604L173.36 11.1721C178.573 11.9232 185.871 10.468 190.81 11.266C195.749 12.064 192.566 12.862 194.102 13.1437C197.505 13.707 203.486 12.4865 206.614 13.2375C209.741 13.9886 208.754 15.3499 209.522 15.4438C210.29 15.5377 211.223 13.8478 212.759 13.6131C217.973 12.7681 225.984 14.2703 231.417 13.6131C236.849 12.9559 233.392 12.6273 234.105 12.6273C234.819 12.6273 234.325 13.4723 234.764 13.5661C236.794 14.0356 240.91 13.1906 242.337 13.2845C243.763 13.3784 243.489 14.0356 244.532 14.0356C253.092 14.2703 261.762 13.7539 270.322 14.0356C273.779 15.256 275.919 18.0256 278.279 20.3258C277.236 21.1707 275.919 21.2176 274.712 21.9687C273.011 23.0484 269.828 26.8037 268.402 27.367C266.975 27.9303 251.939 27.8834 250.677 27.6017C249.415 27.3201 249.525 25.724 248.921 25.724H240.69C240.471 25.724 238.989 26.9445 239.318 25.4893C239.922 22.7198 246.562 25.0199 249.196 24.3158V19.6216H241.239C241.129 19.6216 240.251 20.3727 240.416 20.5605L241.513 21.0299C241.074 21.0299 240.306 20.889 239.977 21.1237C239.373 21.4993 237.727 28.2589 235.752 29.5263L228.892 29.9488C228.234 27.6486 231.691 28.5875 231.636 26.6629H182.25L182.798 31.6387L181.426 32.7653L181.152 26.6629H177.86V29.01C177.86 28.3528 176.927 25.5363 175.665 26.1935C175.774 28.9161 172.482 31.0284 170.397 32.6714H153.441C152.179 32.953 150.203 37.6472 149.874 33.7041L151.52 33.2347L137.582 32.7183L136.43 35.5818L136.155 32.7653L129.571 32.5306C126.114 28.6344 126.278 25.5363 119.145 26.6629C117.937 28.8222 120.626 29.9487 120.626 30.1365C120.736 30.6059 119.913 31.9673 120.242 32.7653H118.596V28.5405H116.401L118.596 26.6629H71.953L74.4223 28.5405C73.2699 31.6856 68.4959 28.4936 66.4656 30.4182L65.5876 25.6771H55.82L54.5579 27.6017H42.6503C41.9918 27.6956 42.1564 28.4936 41.882 28.8691C40.1261 31.1692 41.4979 27.7425 40.4005 27.6486C39.303 27.5548 39.0835 28.165 38.2055 28.1181C33.7607 27.8833 30.5231 24.7383 27.2307 22.4381L27.7794 25.2546C25.3101 20.5135 23.2249 20.6543 17.6278 20.091C17.957 22.2504 17.1339 23.6586 14.3353 23.377L16.8047 14.9275L17.079 19.6216C18.7801 19.9502 20.7007 19.2461 22.2372 19.293C23.7736 19.3399 23.8285 21.2176 26.4076 18.4481C28.9867 15.6785 29.8646 15.1152 32.0596 13.0967C34.2546 11.0782 32.4437 12.2048 32.4437 11.6415L33.2668 13.0967C37.6568 12.5334 43.9124 13.707 48.0279 13.0967C52.1435 12.4865 49.5095 12.064 50.4972 11.6885L50.8265 13.1437H68.9349L71.4042 11.6885L70.8555 13.0967C71.7883 13.707 91.3235 12.7212 94.7805 13.0967C98.2376 13.4723 96.3718 14.4111 97.0303 14.5519C98.1827 14.7866 110.529 14.6458 111.462 14.3172C112.395 13.9886 113.493 11.8762 114.206 11.5007C116.181 10.468 128.309 11.8763 131.93 11.1721C135.552 10.468 134.454 9.95163 135.332 9.38833C139.064 7.04125 142.137 3.80227 146.033 1.64296C146.033 1.26742 142.85 0.469416 142.466 0.469416C136.54 0.469416 130.284 0.234708 124.358 0.469416H124.412ZM162.824 20.1849H176.543C178.902 17.6031 174.842 18.9175 173.25 18.8236C171.659 18.7297 169.738 17.6031 168.586 16.7112C166.94 15.3968 165.129 11.5946 162.55 12.7212C163.538 11.4068 161.672 10.0924 160.355 9.66997C159.038 9.24749 159.203 10.7027 158.16 10.3741C159.587 9.10667 156.843 6.61876 155.691 6.61876H147.185L147.734 9.43526L145.21 9.90467L145.429 8.77806C143.948 7.74535 143.893 7.32287 144.441 5.72686L157.556 5.21051L156.953 1.97153C156.459 1.40823 149.27 1.26741 148.283 1.68989C146.691 2.34707 145.484 4.69416 144.387 5.39829C143.289 6.10241 142.466 5.82075 141.698 6.38405C139.393 8.02701 134.4 12.6273 131.93 13.0498C129.461 13.4723 128.254 13.0498 127.979 13.1906C127.705 13.3314 126.278 17.6501 126.827 18.3072L102.408 18.7767L101.036 20.1849C108.115 20.6543 115.139 19.7155 122.163 19.7155C125.29 19.7155 128.857 20.091 131.985 20.2318C134.454 20.3257 138.076 19.8563 140.216 20.2318C142.356 20.6074 144.441 25.1607 145.429 26.569C149.49 26.7567 153.496 27.5547 157.501 26.8037L156.239 26.3342L155.855 25.3954C158.818 25.1138 160.849 22.0626 162.714 20.2318L162.824 20.1849ZM178.463 12.6742C177.091 12.3457 175.445 13.0967 174.293 13.0967C171.439 13.0028 161.782 4.17781 158.379 2.8165C157.501 7.83925 161.727 9.20056 165.239 11.9701C167.214 13.5192 169.025 15.303 170.946 16.9459L182.25 17.8848L182.634 20.2318L233.282 19.5277L230.868 16.1949C226.313 16.7582 221.704 16.3826 217.095 16.4296C212.485 16.4765 215.119 16.5235 212.759 16.4296C208.809 16.2887 196.297 17.9317 193.938 16.3357C191.578 14.7397 191.194 12.9559 190.92 12.8151L180.164 13.0028L177.86 16.899L178.408 12.6742H178.463ZM126.882 13.1437H115.084C114.261 13.1437 112.669 16.5235 111.243 16.4296L72.392 16.5234L70.4165 20.2318H98.6766C99.0058 20.2318 100.487 18.1195 101.969 17.8848C106.469 17.1337 115.687 17.7909 121.175 17.5093C121.943 17.5093 122.766 17.9787 123.809 17.7909C126.114 17.4623 126.388 14.8335 126.937 13.1906L126.882 13.1437ZM55.5456 14.5519L51.1557 14.2703L49.5095 17.3684L55.0518 17.1337L55.5456 14.5519ZM37.986 14.5519C34.6387 14.6458 30.7975 13.6131 30.3036 17.3684H37.986V14.5519ZM42.3759 14.5519H39.0835V17.3684C41.3882 17.5092 42.5405 16.5235 42.3759 14.5519ZM48.9608 14.5519H42.9246C41.6077 18.7297 49.7839 18.4011 48.9608 14.5519ZM68.1667 14.5519H56.6431V16.899H66.7948L68.1667 14.5519ZM95.6036 14.5519H71.4591V15.0213H95.6036V14.5519ZM203.98 15.0213C200.797 15.1152 197.559 14.9744 194.377 15.0213C194.047 15.3969 195.474 15.9602 195.749 15.9602H203.98C204.583 15.9602 206.394 15.0213 207.546 15.4907C206.723 13.6131 204.803 15.0213 203.98 15.0213ZM238.276 15.0213L232.788 14.5519L235.038 19.4339C235.807 20.5605 237.508 20.138 238.825 20.1849C237.014 18.6828 238.715 16.9929 238.276 15.0213ZM250.348 15.0213C247.989 14.7866 245.684 15.2091 243.379 15.303C241.074 15.3968 239.428 14.0825 239.373 16.4296L243.434 16.9459L243.983 15.9602C245.519 17.5562 248.153 16.7112 250.293 16.899V15.0213H250.348ZM251.446 16.899H265.164C264.341 15.7254 264.121 14.5989 262.201 15.0213L261.597 15.9602L260.445 15.0213C257.482 14.3172 259.293 16.852 257.756 16.4296C256.22 16.0071 257.372 15.303 256.659 15.0213C254.683 14.2233 256 15.8663 255.012 16.4296C254.244 15.1152 253.421 14.3172 251.72 15.4907L251.446 16.899ZM272.846 16.4296C270.158 15.3969 268.347 14.5989 265.164 15.0213L266.097 16.899C267.688 16.899 269.335 16.899 270.926 16.899C272.517 16.899 272.956 17.2745 272.846 16.4296ZM249.799 17.8378H240.196C240.087 17.8378 239.812 17.3684 239.373 17.5562L238.825 18.7767H249.799V17.8378ZM67.3435 17.8378H58.2893C58.2893 18.1195 59.0027 18.7767 59.1125 18.7767H67.0692L66.5204 20.1849H68.7154C68.9898 19.4338 68.1118 18.0256 67.3435 17.8378ZM265.164 17.8378H250.897V18.7767H263.792C264.067 18.7767 264.615 18.2134 265.164 18.3072V17.8378ZM266.316 24.8321C267.14 24.926 267.908 25.3954 268.731 24.926C269.554 24.4566 275.316 20.1849 274.767 19.2461C273.889 17.6501 271.42 18.495 271.42 20.2318H266.262L266.316 24.8321ZM40.1809 19.7155C36.6141 19.8094 32.7181 20.2319 29.5354 18.7297L28.1087 20.889C28.1087 21.6401 28.9318 22.0626 29.4805 22.532C30.0293 23.0014 36.0105 26.6159 36.3398 26.2873V24.926H39.6322L40.1809 19.7624V19.7155ZM62.1854 23.4239L65.1486 23.0483C64.7096 20.2318 66.3009 18.2133 61.6366 19.8093L62.1854 23.4239ZM54.9969 24.4097L55.6005 19.9502L40.7845 19.7155L42.1564 24.8791L43.5282 20.6543V24.4097H55.0518H54.9969ZM60.4843 19.7155L56.8626 20.138L56.0944 24.4097H61.033L60.4843 19.7155ZM263.792 20.1849C259.622 20.6074 254.628 19.8563 250.348 20.1849L251.226 24.4097H264.615L265.164 19.7155C264.506 19.5277 264.012 20.138 263.792 20.1849ZM117.828 25.8179H126.882V23.9402H118.651V23.4708H126.882V21.5932H69.8129C69.6482 22.8136 70.5811 22.9075 71.6786 23.0014C76.1783 23.4708 89.787 23.4708 94.2318 23.0014C98.6766 22.532 95.7683 22.532 96.6462 22.0156L98.073 25.8179H114.48L116.126 23.0953L117.498 23.4708L117.004 25.0668L117.773 25.8179H117.828ZM138.68 21.5932H127.979V23.4708H137.857C137.582 24.3627 136.979 24.3627 136.101 24.3158C133.522 24.2219 130.668 23.6116 127.979 23.9402C127.815 26.6159 128.693 29.1977 130.723 31.2162C133.631 31.4509 139.887 32.4836 140.052 29.1038L141.149 29.3385L140.6 30.9815C143.124 31.404 143.948 30.3712 144.99 28.6344L137.857 28.3997C137.418 27.32 139.064 27.7425 139.777 27.6956C141.314 27.6486 142.905 27.6956 144.441 27.6956C143.454 26.1934 140.545 21.9217 138.68 21.5932ZM156.788 31.4509H166.94V29.5732C168.751 29.0569 167.708 31.7795 169.409 31.4509C171.11 31.1223 173.031 25.6771 175.665 25.5363L202.608 25.8179L200.413 22.532C202.772 22.4381 208.534 24.4566 209.193 21.5932C199.425 21.8279 189.658 22.2034 179.835 22.0626C176.268 22.0626 166.72 20.6543 163.922 22.0156C161.123 23.3769 157.392 27.5547 157.117 28.0241C156.623 28.7752 155.416 31.1223 156.843 31.4509H156.788ZM210.29 21.5932L211.113 23.0014H232.514L233.337 22.2973L232.514 21.5932H210.29ZM70.636 23.9402L69.8129 24.6444C69.8129 24.7852 71.514 25.8179 71.7335 25.8179H96.4267L97.2498 25.1138C96.9206 24.8791 96.0426 23.9402 95.878 23.9402H70.636ZM233.337 25.3485C233.502 24.128 232.569 24.0341 231.471 23.9402C224.283 23.1892 216.162 24.2219 208.918 24.3158C207.272 24.3158 205.022 23.5647 203.157 23.9402C202.827 27.2262 206.998 25.3485 208.973 25.3954C210.949 25.4424 211.058 25.8179 212.211 25.8179C214.954 25.8179 232.569 26.0526 233.337 25.3016V25.3485ZM237.178 23.9402L235.313 24.4566L232.788 28.6344L235.422 28.5405L237.124 23.9402H237.178ZM70.9103 28.6344L68.441 25.3485C65.7522 27.0384 67.8923 29.1508 70.9103 28.6344ZM149.929 30.0427H144.441V31.4509H149.929V30.0427Z" fill="#D5CECD"/>
<path d="M12.7436 17.8378L10.0547 18.3542L9.56087 19.9502L12.6887 21.0768C13.0728 20.7482 11.3168 18.5889 13.2374 18.2603L13.7862 21.3584L12.9082 22.4381L0.122548 20.6074C-0.920057 19.4339 5.00632 18.495 5.93917 18.3072C8.02438 17.9317 10.6035 17.7909 12.7436 17.7909V17.8378Z" fill="#D5CECD"/>
<path d="M299.735 20.6543L290.132 22.0156C288.979 21.8278 289.418 20.044 289.912 19.7624C290.79 19.293 293.04 20.5135 292.546 18.7766L289.254 18.5419C289.967 17.5561 290.625 17.9317 291.558 17.9786C293.04 17.9786 301.765 18.495 299.68 20.6543H299.735Z" fill="#D5CECD"/>
<path d="M283.272 16.4296C282.833 18.2133 284.04 20.138 283.821 21.8279C283.601 23.5178 283.437 23.1892 282.723 22.532L282.175 19.7155C281.242 19.7155 281.022 19.3869 281.187 20.3257C281.9 23.5178 279.431 20.5135 279.98 18.7766L282.723 18.0725L280.528 16.4296H283.272Z" fill="#D5CECD"/>
<path d="M138.405 12.2048L135.771 14.3172C136.484 16.3357 138.35 15.5377 139.503 16.899L130.174 18.3072C132.095 15.6785 134.509 12.7212 138.405 12.2048Z" fill="#D5CECD"/>
<path d="M185.048 23.9402H179.286L177.914 22.532C180.054 23.7525 183.621 21.9687 185.048 23.9402Z" fill="#D5CECD"/>
<path d="M157.205 17.3714H147.222L145.612 20.1261V17.3714H134.663C134.406 16.8204 136.145 16.2695 136.273 16.2695H156.561V14.0657H157.205V17.3714Z" fill="#D5CECD"/>
</svg>
