<svg width="31" height="31" viewBox="0 0 31 31" fill="none" xmlns="http://www.w3.org/2000/svg">
<path d="M28.125 6.53027H30.375V26.0303H0.375V6.53027H2.625M0.375 23.7803H30.375M10.875 3.53027H13.125C13.7217 3.53027 14.294 3.76733 14.716 4.18928C15.1379 4.61124 15.375 5.18354 15.375 5.78027M15.375 5.78027C15.375 5.18354 15.6121 4.61124 16.034 4.18928C16.456 3.76733 17.0283 3.53027 17.625 3.53027H28.125V21.5303H2.625V3.53027H3.375M15.375 5.78027V11.0303M15.375 21.5303C15.375 20.9335 15.1379 20.3612 14.716 19.9393C14.294 19.5173 13.7217 19.2803 13.125 19.2803H4.875M15.375 21.5303C15.375 20.9335 15.6121 20.3612 16.034 19.9393C16.456 19.5173 17.0283 19.2803 17.625 19.2803H25.875M15.375 21.5303V14.0303M4.875 15.5303H11.625M4.875 13.2803H11.625M19.125 15.5303H22.125M22.875 15.5303H25.875M19.125 14.0303H22.125M22.875 14.0303H25.875M4.875 8.03027H7.875M4.875 11.0303H11.625M25.125 6.15527L19.875 11.4053M25.125 11.4053L19.875 6.15527M24.4688 8.78027C24.4688 9.30242 24.2613 9.80318 23.8921 10.1724C23.5229 10.5416 23.0221 10.749 22.5 10.749C21.9779 10.749 21.4771 10.5416 21.1079 10.1724C20.7387 9.80318 20.5312 9.30242 20.5312 8.78027M12.375 26.0303C12.375 26.0303 12.375 29.0303 10.125 30.5303M18.375 26.0303C18.375 26.0303 18.375 29.0303 20.625 30.5303M3.375 30.5303V27.5303M1.875 29.0303H4.875M25.875 27.9053V30.1553M24.75 29.0303H27M21.375 0.530273V2.03027M13.8724 12.5314L15.3731 11.0306L16.8743 12.5314L15.3731 14.0321L13.8724 12.5314ZM4.87802 2.78215L7.12915 0.530273L9.38065 2.78177L7.12915 5.0329L4.87802 2.78215Z" stroke="#F9F7E7" stroke-width="0.75"/>
</svg>
