<svg width="38" height="39" viewBox="0 0 38 39" fill="none" xmlns="http://www.w3.org/2000/svg">
<path d="M12.0758 17.1392L15.1883 19.6976" stroke="#F9F7E7" stroke-width="0.75" stroke-miterlimit="10" stroke-linecap="round" stroke-linejoin="round"/>
<path d="M19.2211 12.7158L20.7952 16.7851" stroke="#F9F7E7" stroke-width="0.75" stroke-miterlimit="10" stroke-linecap="round" stroke-linejoin="round"/>
<path d="M24.3068 14.9926C24.3068 14.9926 19.4628 21.0185 12.1969 22.4164M24.3068 14.9926L22.0437 8.49522C22.0437 8.49522 20.6136 8.44044 19.8766 9.11254C19.1397 9.78462 19.342 11.6888 16.8594 11.4835C14.3769 11.278 12.8632 12.1929 12.1971 13.201C11.531 14.2091 12.4393 15.7213 9.89617 15.8893C7.35312 16.0573 6.14209 17.836 6.14209 17.836L12.1969 22.4164M24.3068 14.9926C24.3068 14.9926 29.938 14.4892 36.7496 25.1305C36.7496 25.1305 35.811 34.2594 21.0976 37.732C21.0976 37.732 12.8385 30.6061 12.1969 22.4164" stroke="#F9F7E7" stroke-width="0.75" stroke-miterlimit="10" stroke-linecap="round" stroke-linejoin="round"/>
<path d="M8.15925 22.2743C7.25211 22.5076 6.36475 22.9396 5.82908 23.6557C5.62182 23.9328 5.47052 24.2924 5.61293 24.6025C5.73916 24.8775 6.06995 25.0338 6.39183 25.0562C6.7137 25.0783 7.0314 24.9902 7.33839 24.8979C8.22737 24.6306 9.104 24.316 9.92722 23.9035C10.3394 23.697 10.7379 23.4662 11.1125 23.2051C11.3786 23.0194 12.0198 22.6471 12.0828 22.3384C10.9692 21.8379 9.31072 21.9779 8.15925 22.2743Z" stroke="#F9F7E7" stroke-width="0.75" stroke-miterlimit="10" stroke-linecap="round" stroke-linejoin="round"/>
<path d="M10.5728 22.6306C9.63019 22.9688 8.64749 23.3558 8.03915 24.1026C7.65279 24.577 7.45206 25.1594 7.32673 25.7418C7.23191 26.1823 7.17795 26.6472 7.328 27.0743C7.47802 27.5016 7.8782 27.8807 8.36302 27.9048C8.83947 27.9285 9.25709 27.6223 9.58805 27.3045C10.3281 26.5937 10.8985 25.7326 11.247 24.7998C11.4844 24.1644 11.6185 23.4962 11.9046 22.8762C12.0368 22.5896 12.2359 22.3446 11.7671 22.3243C11.3769 22.3071 10.9275 22.5032 10.5728 22.6306Z" stroke="#F9F7E7" stroke-width="0.75" stroke-miterlimit="10" stroke-linecap="round" stroke-linejoin="round"/>
<path d="M24.4034 14.8552C24.4649 14.479 24.9435 14.3098 25.3502 14.2529C26.1242 14.1445 26.9209 14.1764 27.6819 14.3463C28.4253 14.5123 29.1406 14.8092 29.9035 14.8598C30.7225 14.9142 31.5468 14.6737 32.2372 14.2619" stroke="#F9F7E7" stroke-width="0.75" stroke-miterlimit="10" stroke-linecap="round" stroke-linejoin="round"/>
<path d="M13.4684 24.71C13.4684 24.71 14.2253 28.1545 15.9811 30.3946" stroke="#F9F7E7" stroke-width="0.75" stroke-miterlimit="10" stroke-linecap="round" stroke-linejoin="round"/>
<path d="M29.0902 17.541C29.0902 17.541 32.814 20.1243 35.2209 24.1358" stroke="#F9F7E7" stroke-width="0.75" stroke-miterlimit="10" stroke-linecap="round" stroke-linejoin="round"/>
<path d="M21.446 38.344C21.446 38.344 27.796 37.1469 31.2701 34.0596" stroke="#F9F7E7" stroke-width="0.75" stroke-miterlimit="10" stroke-linecap="round" stroke-linejoin="round"/>
<path d="M6.02122 13.2568L5.55713 10.0923H6.74782L8.62478 11.3805V12.9486L7.68637 13.7328L6.02122 13.2568Z" stroke="#F9F7E7" stroke-width="0.75" stroke-miterlimit="10" stroke-linecap="round" stroke-linejoin="round"/>
<path d="M9.8053 6.78764L10.4714 2.41911C10.4714 2.41911 13.2566 1.10301 13.3172 1.15896C13.3778 1.21491 15.0311 2.97912 15.1884 3.03524C15.3457 3.09119 14.8916 6.78764 14.8916 6.78764L13.4687 8.83196L11.0469 8.49374L9.8053 6.78764Z" stroke="#F9F7E7" stroke-width="0.75" stroke-miterlimit="10" stroke-linecap="round" stroke-linejoin="round"/>
<path d="M1.02563 2.36349L2.20633 4.79978L4.93105 5.94786L6.62637 5.55587L7.53461 3.56769L6.92916 2.50346L2.47881 0.963379L1.02563 2.36349Z" stroke="#F9F7E7" stroke-width="0.75" stroke-miterlimit="10" stroke-linecap="round" stroke-linejoin="round"/>
<path d="M3.11462 2.89556L3.50825 3.9037L4.68897 4.51965H5.55689L6.14215 3.45559L5.42535 2.89556L3.81089 2.72754L3.11462 2.89556Z" stroke="#F9F7E7" stroke-width="0.75" stroke-miterlimit="10" stroke-linecap="round" stroke-linejoin="round"/>
<path d="M3.11457 2.89539L1.02563 2.36328" stroke="#F9F7E7" stroke-width="0.75" stroke-miterlimit="10" stroke-linecap="round" stroke-linejoin="round"/>
<path d="M3.81091 2.7276L2.47888 0.963379" stroke="#F9F7E7" stroke-width="0.75" stroke-miterlimit="10" stroke-linecap="round" stroke-linejoin="round"/>
<path d="M7.5346 3.56764L6.14209 3.45557" stroke="#F9F7E7" stroke-width="0.75" stroke-miterlimit="10" stroke-linecap="round" stroke-linejoin="round"/>
<path d="M5.55713 4.51953L6.62667 5.55572" stroke="#F9F7E7" stroke-width="0.75" stroke-miterlimit="10" stroke-linecap="round" stroke-linejoin="round"/>
<path d="M4.68921 4.51953L4.93134 5.94771" stroke="#F9F7E7" stroke-width="0.75" stroke-miterlimit="10" stroke-linecap="round" stroke-linejoin="round"/>
<path d="M3.50817 3.90381L2.2063 4.79988" stroke="#F9F7E7" stroke-width="0.75" stroke-miterlimit="10" stroke-linecap="round" stroke-linejoin="round"/>
<path d="M5.42529 2.89509L6.92915 2.50293" stroke="#F9F7E7" stroke-width="0.75" stroke-miterlimit="10" stroke-linecap="round" stroke-linejoin="round"/>
<path d="M11.5007 6.08783L12.0618 4.09948L13.2869 3.14746L14.1648 4.7996L13.8621 6.47982L13.2264 7.01195L11.8033 6.81586L11.5007 6.08783Z" stroke="#F9F7E7" stroke-width="0.75" stroke-miterlimit="10" stroke-linecap="round" stroke-linejoin="round"/>
<path d="M13.2871 3.14754L13.3174 1.15918" stroke="#F9F7E7" stroke-width="0.75" stroke-miterlimit="10" stroke-linecap="round" stroke-linejoin="round"/>
<path d="M12.0619 4.09962L10.4714 2.41943" stroke="#F9F7E7" stroke-width="0.75" stroke-miterlimit="10" stroke-linecap="round" stroke-linejoin="round"/>
<path d="M14.1649 4.79988C14.3465 4.54784 15.1883 3.03564 15.1883 3.03564" stroke="#F9F7E7" stroke-width="0.75" stroke-miterlimit="10" stroke-linecap="round" stroke-linejoin="round"/>
<path d="M13.8621 6.47998L14.8913 6.78797" stroke="#F9F7E7" stroke-width="0.75" stroke-miterlimit="10" stroke-linecap="round" stroke-linejoin="round"/>
<path d="M13.2262 7.01172L13.4683 8.83188" stroke="#F9F7E7" stroke-width="0.75" stroke-miterlimit="10" stroke-linecap="round" stroke-linejoin="round"/>
<path d="M11.8035 6.81592L11.0468 8.49394" stroke="#F9F7E7" stroke-width="0.75" stroke-miterlimit="10" stroke-linecap="round" stroke-linejoin="round"/>
<path d="M11.5008 6.08789L9.8053 6.78787" stroke="#F9F7E7" stroke-width="0.75" stroke-miterlimit="10" stroke-linecap="round" stroke-linejoin="round"/>
<path d="M6.9292 12.305L6.83838 11.2407L8.04943 11.7729V12.4449L7.68614 12.7161L6.9292 12.305Z" stroke="#F9F7E7" stroke-width="0.75" stroke-miterlimit="10" stroke-linecap="round" stroke-linejoin="round"/>
<path d="M6.83864 11.2404L5.55713 10.0923" stroke="#F9F7E7" stroke-width="0.75" stroke-miterlimit="10" stroke-linecap="round" stroke-linejoin="round"/>
<path d="M6.92923 12.3047L6.021 13.2569" stroke="#F9F7E7" stroke-width="0.75" stroke-miterlimit="10" stroke-linecap="round" stroke-linejoin="round"/>
<path d="M7.68604 12.7158V13.7329" stroke="#F9F7E7" stroke-width="0.75" stroke-miterlimit="10" stroke-linecap="round" stroke-linejoin="round"/>
<path d="M8.04968 11.7724L8.62477 11.3804" stroke="#F9F7E7" stroke-width="0.75" stroke-miterlimit="10" stroke-linecap="round" stroke-linejoin="round"/>
<path d="M8.04968 12.4448L8.62477 12.9489" stroke="#F9F7E7" stroke-width="0.75" stroke-miterlimit="10" stroke-linecap="round" stroke-linejoin="round"/>
<path d="M9.29077 7.01172L10.6531 8.91588L13.2265 9.30789" stroke="#F9F7E7" stroke-width="0.75" stroke-miterlimit="10" stroke-linecap="round" stroke-linejoin="round"/>
<path d="M15.4365 6.47974L15.7998 3.25928" stroke="#F9F7E7" stroke-width="0.75" stroke-miterlimit="10" stroke-linecap="round" stroke-linejoin="round"/>
<path d="M10.314 1.91493L13.0083 0.73877" stroke="#F9F7E7" stroke-width="0.75" stroke-miterlimit="10" stroke-linecap="round" stroke-linejoin="round"/>
<path d="M14.1649 9.02829L15.2215 7.37598" stroke="#F9F7E7" stroke-width="0.75" stroke-miterlimit="10" stroke-linecap="round" stroke-linejoin="round"/>
<path d="M1.10159 1.32666L0.375 2.15366L1.919 5.23398L3.11478 5.8081" stroke="#F9F7E7" stroke-width="0.75" stroke-miterlimit="10" stroke-linecap="round" stroke-linejoin="round"/>
<path d="M3.50854 0.738281L6.62672 1.84536" stroke="#F9F7E7" stroke-width="0.75" stroke-miterlimit="10" stroke-linecap="round" stroke-linejoin="round"/>
<path d="M4.93127 6.29822L6.84875 5.90606L7.62565 4.16992" stroke="#F9F7E7" stroke-width="0.75" stroke-miterlimit="10" stroke-linecap="round" stroke-linejoin="round"/>
<path d="M5.06726 9.8125L5.29431 12.3049" stroke="#F9F7E7" stroke-width="0.75" stroke-miterlimit="10" stroke-linecap="round" stroke-linejoin="round"/>
<path d="M8.62427 13.7327L9.10871 13.2567V11.3804" stroke="#F9F7E7" stroke-width="0.75" stroke-miterlimit="10" stroke-linecap="round" stroke-linejoin="round"/>
<path d="M7.09082 9.7002L8.33709 10.4842" stroke="#F9F7E7" stroke-width="0.75" stroke-miterlimit="10" stroke-linecap="round" stroke-linejoin="round"/>
<path d="M2.00647 8.42822C2.19211 8.54582 2.37792 8.66361 2.56359 8.78123C2.58193 8.79283 2.60264 8.80896 2.59955 8.82927C2.59664 8.84978 2.55269 8.8491 2.55941 8.82962" stroke="#F9F7E7" stroke-width="0.75" stroke-miterlimit="10" stroke-linecap="round" stroke-linejoin="round"/>
<path d="M10.0778 13.5647L10.4163 13.2515" stroke="#F9F7E7" stroke-width="0.75" stroke-miterlimit="10" stroke-linecap="round" stroke-linejoin="round"/>
<path d="M8.77612 2.69963L9.19992 2.30762" stroke="#F9F7E7" stroke-width="0.75" stroke-miterlimit="10" stroke-linecap="round" stroke-linejoin="round"/>
<path d="M6.59644 0.375V0.906952" stroke="#F9F7E7" stroke-width="0.75" stroke-miterlimit="10" stroke-linecap="round" stroke-linejoin="round"/>
<path d="M15.7693 2.27915V1.73828" stroke="#F9F7E7" stroke-width="0.75" stroke-miterlimit="10" stroke-linecap="round" stroke-linejoin="round"/>
<path d="M18.1914 7.29183L18.6132 6.90186" stroke="#F9F7E7" stroke-width="0.75" stroke-miterlimit="10" stroke-linecap="round" stroke-linejoin="round"/>
<path d="M16.0721 10.3444L15.6892 9.99023" stroke="#F9F7E7" stroke-width="0.75" stroke-miterlimit="10" stroke-linecap="round" stroke-linejoin="round"/>
<path d="M7.50439 7.29199L7.93254 7.68818" stroke="#F9F7E7" stroke-width="0.75" stroke-miterlimit="10" stroke-linecap="round" stroke-linejoin="round"/>
<path d="M3.08423 13.4808V12.7988" stroke="#F9F7E7" stroke-width="0.75" stroke-miterlimit="10" stroke-linecap="round" stroke-linejoin="round"/>
<path d="M21.4005 7.86344C21.6703 7.767 21.9923 7.67476 22.2319 7.82464C22.3849 7.92023 22.4586 8.08994 22.5238 8.24972C22.9661 9.33093 23.4085 10.412 23.8509 11.4932" stroke="#F9F7E7" stroke-width="0.75" stroke-miterlimit="10" stroke-linecap="round" stroke-linejoin="round"/>
<path d="M6.09429 16.7627C5.74372 16.9875 5.50576 17.3563 5.458 17.7483C5.44892 17.8231 5.44728 17.9024 5.48379 17.9696C5.51684 18.0302 5.57697 18.0737 5.63528 18.1153C6.61236 18.8099 7.58944 19.5043 8.56634 20.1989" stroke="#F9F7E7" stroke-width="0.75" stroke-miterlimit="10" stroke-linecap="round" stroke-linejoin="round"/>
<path d="M28.423 30.6861C30.8582 28.4332 30.8582 24.7806 28.423 22.528C25.9874 20.2752 22.0387 20.2752 19.6032 22.528C17.1677 24.7806 17.1677 28.4332 19.6032 30.6861C22.0387 32.9387 25.9874 32.9387 28.423 30.6861Z" stroke="#F9F7E7" stroke-width="0.75" stroke-miterlimit="10" stroke-linecap="round" stroke-linejoin="round"/>
<path d="M19.696 30.7686L24.0138 20.8384L28.3202 30.7785L18.3774 24.1358H29.587L19.696 30.7686Z" stroke="#F9F7E7" stroke-width="0.75" stroke-miterlimit="10" stroke-linecap="round" stroke-linejoin="round"/>
<path d="M17.949 30.0558C17.8886 29.9716 15.2243 25.0421 19.2206 21.8643" stroke="#F9F7E7" stroke-width="0.75" stroke-miterlimit="10" stroke-linecap="round" stroke-linejoin="round"/>
<path d="M29.6131 22.6387C29.6825 22.7164 32.8769 27.3687 29.2522 30.9072" stroke="#F9F7E7" stroke-width="0.75" stroke-miterlimit="10" stroke-linecap="round" stroke-linejoin="round"/>
<path d="M24.2992 14.9337C24.1159 13.9422 24.863 12.9667 25.8095 12.4714C26.7557 11.9759 27.868 11.8507 28.9446 11.7087C29.7343 11.6045 30.6268 11.4227 31.0233 10.7822" stroke="#F9F7E7" stroke-width="0.75" stroke-miterlimit="10" stroke-linecap="round" stroke-linejoin="round"/>
</svg>
