<?xml version="1.0" encoding="UTF-8"?>
<svg id="Layer_2" xmlns="http://www.w3.org/2000/svg" version="1.1" viewBox="0 0 1280 690">
  <!-- Generator: Adobe Illustrator 29.8.2, SVG Export Plug-In . SVG Version: 2.1.1 Build 3)  -->
  <defs>
    <style>
      .st0 {
        fill: none;
      }

      .st1 {
        fill: #d5cecd;
      }
    </style>
  </defs>
  <rect class="st0" width="1280" height="690"/>
  <path class="st1" d="M1024,593.1c5.4-5.7,6.3-11.3,7.8-18.4l18.5-.9-14.6,23.6c9.7-4.3,41.9,28.8,46.3,18.9,4.4-9.9-24.9-19.4-26.3-26.5-1.5-7.1,14.1-25.5-13.6-28.8-31.2-4.3-22.4,10.9-30.7,24.6-34,35.8-69.2,70.2-104.6,104.4h16.4c37.1-33.6,74.8-67.1,100.9-96.9Z"/>
  <path class="st1" d="M556.8,254.7c-6.3,7.1,8.8-15.1-33.1,27.4-41.9,42.5-79.9,89.3-121.8,132.3l-7.3,2.4c-68.4.3-136.8.3-205.3.2l-14,14h202.3c-10.7,24.1-39,45.8-60.9,61.4-13.6,3.8-3.9-14.2-7.8-18.4-1.8-1.8-10.6.6-13.6.1-1,17.9-9.3,33.4-29.2,28.2-2.9-20.8,8.3-31.2,29.2-28.4-4.4-2.4.5-11.8-21.4-9.5-21.9,2.4-33.6,34-66.3,18.9-2.9,15.1,4.4,3.8,13.6,10.9,9.3,7.1,8.8,21.3,35.6,33.6,26.8,12.3,38.5-10.4,56.5-20.3,9.7-5.2,12.2-.5,30.7-12.8,18.5-12.3,44.3-40.2,39-63.8h146.1l-7.3-14.2h-99.9c41.9-50.6,96-97.4,136.4-148.9,5.1-7,21.9-25.8,9.9-26.8-3.7,3.4-7.3,6.3-8.7,7.2,0,1.8-.6,3.9-2.7,6.3Z"/>
  <polygon class="st1" points="154.9 506.2 163.2 492.9 113.3 493 100.3 506.1 154.9 506.2"/>
  <path class="st1" d="M1025.9,383.7l4.4-13.2-23.4-.9-203.1-230.7c-65.8,71.4-125.7,154.6-194.9,222.2-3.9,3.3-10.2,1.4-15.6,5.7-5.4,4.3-6.8,17.5-18.5,26.9-6.8,5.2-16.1,5.7-22.4,11.8-6.3,6.1-.5,12.8-2.4,16.5-1.9,3.8-57.5,52.9-62.8,56.7-30.7,20.8-96.9-1.4-134,14.2.5,18.4,8.8,9.5,12.2,9.5l1,.9h85.2l-88.2,87-17,7.1c-71.1.7-142.1,1-213.2,1.1l14.7,13.1h203.9c21.4,21.7,9.3,2.8,20,0s36.5,5.2,43.4-4.3l1.9-24.1h-14.6l4.9,14.2-29.2-2.4,40.4-35c14.6,1.4,83.3,76.6,100.8,91.7,11.7,10.4,29.2,25.5,43.8,30.7,11.7-13.2-59.9-57.2-63.3-73.3,23.4-9.5,40.9-20.3,52.6-43.5,8.8-17.5,20.9-51,1-62.9,3.9,29.8-9.3,53.9-19.5,80.4-26.8-17-20.5,23.2-48.7,18.9,5.8-22.7-33.6-11.3-43.8-35.5,18.5-6.1,58.9-68.5,75.5-68.5h99.9c-10.7,12.3-25.3,19.4-38.5,40.7-13.2,21.3-3.9,37.8-5.4,39.2-.5.5,1.9-8.5-12.7,1.4-14.6,9.9-35.1,27.4-45.8,41.1,23.9,3.3,48.2-39.7,68.2-30.7l101.1,100.2h16.2l-122.7-119.1c22.9-10.9,10.2-37.3,34.1-42.5,17.5,22.7,41.9,43,60.4,64.3,9.7,10.9,7.8,18,29.7,42.1,13.2,14.5,36.9,35.6,56.9,55.3h17.2l-69.7-64.2-78.9-102.1c16.1-25.1,56-33.1,83.3-25.1,8.3,2.4,85.7,93.6,93.5,93.6,26.7-29.7,67.4-54.6,80.7-93.1-.1,0-.2,0-.3,0l.5-.5c0,.2-.1.3-.2.5,33.6,1.3,88.9-15,96.1,28.8l-154,162.1h19.9l139.9-152.6,34.1,17-39-56.7h68.2c1,7.1-7.3,4.3-11.2,10.4-3.9,6.1-9.2,17.5-7.8,24.1l67.2,80.8c-4.1,10.4-52.2,53-70.9,77h16.6l98.6-100.2-7.3-7.1-24.3,17.5-70.6-83.7c13.6,2.4,16.1-15.6,20.5-18,4.4-2.4,42.4-1.9,49.2,0,3.9,1.4,61.4,47.3,64.3,51,2.9,3.8,4.9,8.5-1,9.9l-21.4,18.4c10.2,2.8,17.5-10.4,26.3-8.5,5.4,1.4,23.4,22.2,32.2,25.5l-34.1,2.4v14.2h87.2l-33.7-30.9c-30.1-24.7-55.5-54.7-82.2-82.5h73.1l-21.9,28.4-12.2-9.5,4.9,23.6c18.5-1.4,16.1-18.9,34.6-25.1l13.6-11.4c-3.1-.3-6.3-.7-9.7-1.4-1-8.5,4.9-4.7,17-4.7l-20.5-12.2-98.3-4.8-101.8-97.4ZM660.6,488.2h-.5.5l136.4-146.5c-5.4,26.5,9.7,54.4,0,78.5-2.4,5.7-56.5,68.1-61.4,68.1h-75ZM816,474l2.4-23.6,26.8,33.1h-82.8l29.2-33.1,4.4,21.7,20,1.9ZM864.7,509c-15.6,9.9-43.8,54.4-60.9,54.4s-52.1-44-58.5-52c-3.9-4.7-9.7-6.1-7.3-14.2l48.7,2.4,17,30.7,8.3-26.9v-.5c9.7-5.2,57-12.3,52.6,6.1ZM876.8,488.2c-19-3.3-55.5-54.4-70.6-69.5v-77c49.7,41.1,87.7,102.1,141.3,137.1-8.8,14.2-51.6,12.8-70.6,9.5ZM986.5,483.5c-4.4-4.3,8.8-52.9-9.7-56.7-1,14.7,1,30.2,0,44.9-.5,7.1,3.9,13.7-7.3,11.8l-163.2-174.9-165.6,177.2-136.4,2.4c-6.3-5.7,11.7-22.7,26.8-28.4,15.1-5.7-1.5,24.6,17,18.9-15.6-41.1,19.5-43.5,35.1-75.6h38l-7.3-28.4,180.2-198.5,7.3,18.9,4.9-16.5,9.7-2.4,185.1,210.3-47.7,8-5.8,22.7h14.6l-4.9-14.2,55.5-4.3c9.7,14.2,9.2,18.9,27.8,25.1l62.8,59.6h-116.9Z"/>
  <path class="st1" d="M827.9,0h-48.1l-202.6,228.2c2.3.5,0,3.8-3.6,7.6,5.2-4.3,11.9-9.9,20.7-17,73.6-60,132.5-144.2,202.2-208v78l-209.5,257.6,214.3-241.1c7.3-1.4-9.3-14.7,11.7,5.2,20.9,19.9,42.9,56.7,63.8,79.9,34.6,38.8,73.1,76.1,109.6,113.4l-177.8-212.7V6.1l382.4,413.6-43.9,2.4,2.4-9.5-12.7-4.7v13.7c-5.8,5.7-51.6-9-58,9.9,44.8-.2,89.6-.3,134.5-.4l-4.4-14.8C1070.8,287.1,952.8,140.7,827.9,0Z"/>
</svg>