<svg width="32" height="31" viewBox="0 0 32 31" fill="none" xmlns="http://www.w3.org/2000/svg">
<path d="M5.40527 3.37573L11.0415 14.127M9.26024 20.3745L6.39899 11.4495L8.18024 5.20197C9.60524 0.203219 14.9602 0.375719 14.9602 0.375719L6.41024 30.3757M9.26024 20.3745L5.68652 13.9507L3.90527 20.202C3.90527 20.202 8.19152 24.1245 7.12277 27.8745C8.19152 24.1245 13.9066 23.052 13.9066 23.052L16.7566 13.0508L10.3291 16.6245M9.26024 20.3745L15.6878 16.8008M9.26024 20.3745L5.72781 22.3433M14.2477 2.87695C14.2477 2.87695 19.2465 4.30195 18.1815 8.05195L17.469 10.5495L10.344 16.6245M27.9053 10.8757V8.62573H21.9053V10.8757M18.9053 21.3757H15.9053M5.40527 25.8757L0.905273 30.3757H21.9053L27.9053 24.3757M11.4053 28.8757L14.4053 25.8757M14.4053 28.8757L15.9053 27.3757M17.4053 28.8757L18.9053 27.3757M24.9053 30.3757L29.4053 25.8757M27.9053 30.3757L30.9053 27.3757M27.9053 16.1257L21.9053 22.1257M27.9053 22.1257L21.9053 16.1257M27.1553 19.1257C27.1553 19.7225 26.9182 20.2948 26.4963 20.7167C26.0743 21.1387 25.502 21.3757 24.9053 21.3757C24.3085 21.3757 23.7362 21.1387 23.3143 20.7167C22.8923 20.2948 22.6553 19.7225 22.6553 19.1257M29.4053 14.7532V13.8757H20.4053V14.7532C20.4054 14.9503 20.3668 15.1454 20.2915 15.3275C20.2162 15.5096 20.1058 15.6751 19.9665 15.8145L19.344 16.437C19.2048 16.5764 19.0944 16.7419 19.0191 16.924C18.9438 17.1061 18.9051 17.3012 18.9053 17.4982V22.8757C18.9053 23.2736 19.0633 23.6551 19.3446 23.9364C19.6259 24.2177 20.0074 24.3757 20.4053 24.3757H29.4053C29.8031 24.3757 30.1846 24.2177 30.4659 23.9364C30.7472 23.6551 30.9053 23.2736 30.9053 22.8757V17.4982C30.9054 17.3012 30.8668 17.1061 30.7915 16.924C30.7162 16.7419 30.6058 16.5764 30.4665 16.437L29.844 15.8145C29.7048 15.6751 29.5943 15.5096 29.5191 15.3275C29.4438 15.1454 29.4051 14.9503 29.4053 14.7532ZM19.6553 10.8757H30.1553C30.5695 10.8757 30.9053 11.2115 30.9053 11.6257V13.1257C30.9053 13.5399 30.5695 13.8757 30.1553 13.8757H19.6553C19.2411 13.8757 18.9053 13.5399 18.9053 13.1257V11.6257C18.9053 11.2115 19.2411 10.8757 19.6553 10.8757ZM16.8653 7.30947C16.8653 7.937 16.3566 8.44572 15.729 8.44572C15.1015 8.44572 14.5928 7.937 14.5928 7.30947C14.5928 6.68193 15.1015 6.17322 15.729 6.17322C16.3566 6.17322 16.8653 6.68193 16.8653 7.30947Z" stroke="#F9F7E7" stroke-width="0.75"/>
</svg>
