<svg width="36" height="39" viewBox="0 0 36 39" fill="none" xmlns="http://www.w3.org/2000/svg">
<path d="M20.0579 22.312C18.4687 21.0125 18.2364 18.6741 19.5387 17.0887C20.1062 16.398 20.8713 15.9643 21.6856 15.8023C20.0279 15.407 18.2137 15.9511 17.0607 17.3546C15.4523 19.3123 15.7393 22.2003 17.7019 23.8049C19.6643 25.4095 22.5591 25.1232 24.1676 23.1654C24.3715 22.9173 24.5446 22.6543 24.6878 22.3809C23.3471 23.4133 21.4239 23.4288 20.0579 22.312Z" stroke="#F9F7E7" stroke-width="0.75" stroke-miterlimit="10" stroke-linecap="round" stroke-linejoin="round"/>
<path d="M20.1706 38.3436C27.8759 38.3436 34.1219 32.1122 34.1219 24.4255C34.1219 16.7387 27.8759 10.5073 20.1706 10.5073C12.4653 10.5073 6.21906 16.7387 6.21906 24.4255C6.21906 32.1122 12.4653 38.3436 20.1706 38.3436Z" stroke="#F9F7E7" stroke-width="0.75" stroke-miterlimit="10" stroke-linecap="round" stroke-linejoin="round"/>
<path d="M31.2045 22.7236C31.6439 23.7827 31.9586 25.164 31.9586 26.3509C31.9586 31.9727 26.6071 36.0351 19.9885 36.0351C13.3699 36.0351 7.9036 31.3697 8.10404 23.9386" stroke="#F9F7E7" stroke-width="0.75" stroke-miterlimit="10" stroke-linecap="round" stroke-linejoin="round"/>
<path d="M16.204 21.5439C16.204 21.5439 9.47789 22.1044 8.10388 23.9386C8.10388 23.9386 11.3931 26.8664 21.6853 26.0197C31.9772 25.1731 31.2043 22.7236 31.2043 22.7236C31.2043 22.7236 25.4902 20.7342 19.2162 21.3361" stroke="#F9F7E7" stroke-width="0.75" stroke-miterlimit="10" stroke-linecap="round" stroke-linejoin="round"/>
<path d="M6.52309 21.5245C6.54798 21.4108 4.45399 13.3934 4.45399 13.3934L2.82238 14.5928L1.70599 12.5367L9.43477 6.62549L10.8088 8.29605L9.52065 9.58108L13.202 12.3654" stroke="#F9F7E7" stroke-width="0.75" stroke-miterlimit="10" stroke-linecap="round" stroke-linejoin="round"/>
<path d="M5.65601 13.2222C5.82775 13.3507 7.45372 18.6924 7.45372 18.6924" stroke="#F9F7E7" stroke-width="0.75" stroke-miterlimit="10" stroke-linecap="round" stroke-linejoin="round"/>
<path d="M9.43488 11.0371L12.0314 13.1208" stroke="#F9F7E7" stroke-width="0.75" stroke-miterlimit="10" stroke-linecap="round" stroke-linejoin="round"/>
<path d="M3.66625 11.0376L0.375 6.88264L5.18403 1.82812L7.69795 7.95421" stroke="#F9F7E7" stroke-width="0.75" stroke-miterlimit="10" stroke-linecap="round" stroke-linejoin="round"/>
<path d="M1.48944 5.71094L4.76644 10.1959" stroke="#F9F7E7" stroke-width="0.75" stroke-miterlimit="10" stroke-linecap="round" stroke-linejoin="round"/>
<path d="M2.39789 4.71143L5.6747 9.19643" stroke="#F9F7E7" stroke-width="0.75" stroke-miterlimit="10" stroke-linecap="round" stroke-linejoin="round"/>
<path d="M22.8826 11.6567C22.8826 11.6567 29.9772 13.6133 31.5956 18.8392" stroke="#F9F7E7" stroke-width="0.75" stroke-miterlimit="10" stroke-linecap="round" stroke-linejoin="round"/>
<path d="M10.2506 32.6172C10.2506 32.6172 13.202 37.2526 20.1706 37.2526" stroke="#F9F7E7" stroke-width="0.75" stroke-miterlimit="10" stroke-linecap="round" stroke-linejoin="round"/>
<path d="M19.9884 36.0353C21.0273 35.7456 21.5233 34.2231 22.3403 33.5204C23.6484 32.3957 25.7972 32.9761 27.2231 32.0042C28.0238 31.4591 28.4486 30.5221 29.0954 29.8019C29.7559 29.0657 30.6655 28.556 31.6391 28.376" stroke="#F9F7E7" stroke-width="0.75" stroke-miterlimit="10" stroke-linecap="round" stroke-linejoin="round"/>
<path d="M9.30237 29.8371C10.1799 29.6964 11.1085 29.5323 11.7739 28.9445C12.4715 28.3277 12.7681 27.3355 13.5139 26.7779C14.0728 26.3602 14.7974 26.2514 15.489 26.1558" stroke="#F9F7E7" stroke-width="0.75" stroke-miterlimit="10" stroke-linecap="round" stroke-linejoin="round"/>
<path d="M13.3907 34.0732C14.1819 33.0683 15.0814 32.082 16.2666 31.5975C17.2939 31.1773 18.4355 31.174 19.5376 31.0397C20.6398 30.905 21.8051 30.5848 22.5067 29.7264C22.7301 29.453 22.8952 29.1374 23.1054 28.8538C23.4733 28.3577 23.9803 27.9654 24.5534 27.7333C25.1972 27.4725 25.9189 27.4103 26.5239 27.0697C27.2539 26.659 27.7354 25.8415 27.7398 25.0054" stroke="#F9F7E7" stroke-width="0.75" stroke-miterlimit="10" stroke-linecap="round" stroke-linejoin="round"/>
<path d="M9.43488 23.8877C9.43488 23.8877 11.3957 25.2298 16.3192 25.4012" stroke="#F9F7E7" stroke-width="0.75" stroke-miterlimit="10" stroke-linecap="round" stroke-linejoin="round"/>
<path d="M27.4544 22.3744C27.5403 22.3173 32.6355 23.1356 27.855 24.4257C27.855 24.4257 25.5651 25.0301 23.8476 25.173" stroke="#F9F7E7" stroke-width="0.75" stroke-miterlimit="10" stroke-linecap="round" stroke-linejoin="round"/>
<path d="M10.5314 25.9297C10.5313 25.9664 10.5014 25.9959 10.4652 25.9959L10.452 25.9945C10.4264 25.9892 10.406 25.969 10.4007 25.9432L10.3994 25.9297C10.3994 25.893 10.429 25.8633 10.4652 25.8633L10.4787 25.8646C10.5086 25.8708 10.5314 25.8974 10.5314 25.9297Z" fill="#F9F7E7" stroke="#F9F7E7" stroke-width="0.75"/>
<path d="M27.0105 28.8715C27.0105 28.9084 26.9806 28.9376 26.9444 28.9376C26.9127 28.9376 26.886 28.9153 26.8798 28.885L26.8785 28.8715C26.8785 28.8346 26.9082 28.8052 26.9444 28.8052L26.9576 28.8066C26.9875 28.8126 27.0105 28.839 27.0105 28.8715Z" fill="#F9F7E7" stroke="#F9F7E7" stroke-width="0.75"/>
<path d="M12.1686 32.2055C12.1686 32.2424 12.1385 32.2716 12.1025 32.2716C12.0709 32.2716 12.0442 32.2493 12.0379 32.219L12.0366 32.2055C12.0366 32.1686 12.0663 32.1392 12.1025 32.1392L12.1157 32.1405C12.1456 32.1466 12.1686 32.173 12.1686 32.2055Z" fill="#F9F7E7" stroke="#F9F7E7" stroke-width="0.75"/>
<path d="M23.2693 34.8632C23.2693 34.9001 23.2394 34.9296 23.2032 34.9296C23.1716 34.9293 23.1449 34.907 23.1387 34.8767L23.1373 34.8632C23.1373 34.8263 23.167 34.7969 23.2032 34.7969L23.2167 34.7983C23.2466 34.8043 23.2693 34.831 23.2693 34.8632Z" fill="#F9F7E7" stroke="#F9F7E7" stroke-width="0.75"/>
<path d="M19.0957 27.6338V27.7662C19.132 27.7662 19.1618 27.7368 19.1619 27.7001C19.1619 27.6679 19.1391 27.6412 19.1092 27.6352L19.0957 27.6338ZM19.0957 27.6338C19.0595 27.6338 19.0298 27.6635 19.0298 27.7001L19.0312 27.7136C19.0374 27.7442 19.0644 27.7662 19.0952 27.7662L19.0957 27.6338Z" fill="#F9F7E7"/>
<path d="M19.0957 27.6338V27.7662C19.132 27.7662 19.1618 27.7368 19.1619 27.7001C19.1619 27.6679 19.1391 27.6412 19.1092 27.6352L19.0957 27.6338ZM19.0957 27.6338C19.0595 27.6338 19.0298 27.6635 19.0298 27.7001L19.0312 27.7136C19.0374 27.7442 19.0644 27.7662 19.0952 27.7662L19.0957 27.6338Z" stroke="#F9F7E7" stroke-width="0.75"/>
<path d="M16.5483 20.375C16.5483 20.375 16.5483 22.8024 19.0959 24.0018" stroke="#F9F7E7" stroke-width="0.75" stroke-miterlimit="10" stroke-linecap="round" stroke-linejoin="round"/>
<path d="M16.5483 19.8045C16.5483 19.8045 16.6342 18.7478 17.0348 18.291" stroke="#F9F7E7" stroke-width="0.75" stroke-miterlimit="10" stroke-linecap="round" stroke-linejoin="round"/>
<path d="M11.7365 18.6548V15.6895" stroke="#F9F7E7" stroke-width="0.75" stroke-miterlimit="10" stroke-linecap="round" stroke-linejoin="round"/>
<path d="M12.7047 18.2968L10.7684 16.0469" stroke="#F9F7E7" stroke-width="0.75" stroke-miterlimit="10" stroke-linecap="round" stroke-linejoin="round"/>
<path d="M10.2506 17.1611L13.2231 17.1819" stroke="#F9F7E7" stroke-width="0.75" stroke-miterlimit="10" stroke-linecap="round" stroke-linejoin="round"/>
<path d="M10.6207 18.1516L12.8525 16.1929" stroke="#F9F7E7" stroke-width="0.75" stroke-miterlimit="10" stroke-linecap="round" stroke-linejoin="round"/>
<path d="M11.7365 18.6548V15.6895" stroke="#F9F7E7" stroke-width="0.75" stroke-miterlimit="10" stroke-linecap="round" stroke-linejoin="round"/>
<path d="M27.8549 19.9956V18.3218" stroke="#F9F7E7" stroke-width="0.75" stroke-miterlimit="10" stroke-linecap="round" stroke-linejoin="round"/>
<path d="M28.4013 19.7934L27.3083 18.5234" stroke="#F9F7E7" stroke-width="0.75" stroke-miterlimit="10" stroke-linecap="round" stroke-linejoin="round"/>
<path d="M27.0158 19.1523L28.6936 19.164" stroke="#F9F7E7" stroke-width="0.75" stroke-miterlimit="10" stroke-linecap="round" stroke-linejoin="round"/>
<path d="M27.2252 19.7109L28.4851 18.6055" stroke="#F9F7E7" stroke-width="0.75" stroke-miterlimit="10" stroke-linecap="round" stroke-linejoin="round"/>
<path d="M27.8549 19.9956V18.3218" stroke="#F9F7E7" stroke-width="0.75" stroke-miterlimit="10" stroke-linecap="round" stroke-linejoin="round"/>
<path d="M28.0983 11.6562V8.06494" stroke="#F9F7E7" stroke-width="0.75" stroke-miterlimit="10" stroke-linecap="round" stroke-linejoin="round"/>
<path d="M29.2709 11.2232L26.9258 8.49854" stroke="#F9F7E7" stroke-width="0.75" stroke-miterlimit="10" stroke-linecap="round" stroke-linejoin="round"/>
<path d="M26.2982 9.84814L29.8979 9.87317" stroke="#F9F7E7" stroke-width="0.75" stroke-miterlimit="10" stroke-linecap="round" stroke-linejoin="round"/>
<path d="M26.747 11.0468L29.4496 8.6748" stroke="#F9F7E7" stroke-width="0.75" stroke-miterlimit="10" stroke-linecap="round" stroke-linejoin="round"/>
<path d="M28.0983 11.6562V8.06494" stroke="#F9F7E7" stroke-width="0.75" stroke-miterlimit="10" stroke-linecap="round" stroke-linejoin="round"/>
<path d="M7.22321 36.7305V33.1392" stroke="#F9F7E7" stroke-width="0.75" stroke-miterlimit="10" stroke-linecap="round" stroke-linejoin="round"/>
<path d="M8.39576 36.2972L6.05084 33.5723" stroke="#F9F7E7" stroke-width="0.75" stroke-miterlimit="10" stroke-linecap="round" stroke-linejoin="round"/>
<path d="M5.42322 34.9224L9.02294 34.9474" stroke="#F9F7E7" stroke-width="0.75" stroke-miterlimit="10" stroke-linecap="round" stroke-linejoin="round"/>
<path d="M5.87164 36.1207L8.57449 33.7485" stroke="#F9F7E7" stroke-width="0.75" stroke-miterlimit="10" stroke-linecap="round" stroke-linejoin="round"/>
<path d="M7.22321 36.7305V33.1392" stroke="#F9F7E7" stroke-width="0.75" stroke-miterlimit="10" stroke-linecap="round" stroke-linejoin="round"/>
<path d="M4.12616 15.1562C4.50454 16.7826 4.88289 18.4088 5.26144 20.0352" stroke="#F9F7E7" stroke-width="0.75" stroke-miterlimit="10" stroke-linecap="round" stroke-linejoin="round"/>
<path d="M31.4467 34.754C33.2614 32.7554 34.4095 30.1646 34.67 27.4805" stroke="#F9F7E7" stroke-width="0.75" stroke-miterlimit="10" stroke-linecap="round" stroke-linejoin="round"/>
<path d="M3.26031 2.70951L5.5556 0.375L7.58637 5.36665" stroke="#F9F7E7" stroke-width="0.75" stroke-miterlimit="10" stroke-linecap="round" stroke-linejoin="round"/>
</svg>
