<svg width="31" height="31" viewBox="0 0 31 31" fill="none" xmlns="http://www.w3.org/2000/svg">
<path d="M17.625 15.375L16.875 25.875M16.875 25.875L18.375 28.875L15.375 30.375L12.375 28.875L13.875 25.875M16.875 25.875H13.875M13.875 25.875L13.125 15.375M6 20.625V22.125M24.75 20.625V22.125M7.875 19.875H10.875C10.875 18.375 12.8888 17.625 15.375 17.625C17.8612 17.625 19.875 18.375 19.875 19.875H22.875M7.875 22.875H10.875C10.875 21.375 12.8888 20.625 15.375 20.625C17.8612 20.625 19.875 21.375 19.875 22.875H22.875M19.875 12.375V0.375H10.875V12.375M19.875 1.875H17.625V6.375H15.375V1.875H13.875V3.375H12.375V1.875H10.875M1.875 12.375V15.375M0.375 13.875H3.375M24.375 7.875V10.875M22.875 9.375H25.875M6.375 18.375H7.875V24.375H6.375C5.57935 24.375 4.81629 24.0589 4.25368 23.4963C3.69107 22.9337 3.375 22.1706 3.375 21.375C3.375 20.5794 3.69107 19.8163 4.25368 19.2537C4.81629 18.6911 5.57935 18.375 6.375 18.375ZM22.875 18.375H24.375C25.1706 18.375 25.9337 18.6911 26.4963 19.2537C27.0589 19.8163 27.375 20.5794 27.375 21.375C27.375 22.1706 27.0589 22.9337 26.4963 23.4963C25.9337 24.0589 25.1706 24.375 24.375 24.375H22.875V18.375ZM20.625 12.375L19.875 15.375H10.875L10.125 12.375H20.625ZM3.375 1.875C3.375 2.70343 2.70343 3.375 1.875 3.375C1.04657 3.375 0.375 2.70343 0.375 1.875C0.375 1.04657 1.04657 0.375 1.875 0.375C2.70343 0.375 3.375 1.04657 3.375 1.875ZM7.875 7.875C7.875 8.70343 7.20343 9.375 6.375 9.375C5.54657 9.375 4.875 8.70343 4.875 7.875C4.875 7.04657 5.54657 6.375 6.375 6.375C7.20343 6.375 7.875 7.04657 7.875 7.875ZM27.375 1.875C27.375 2.70343 26.7034 3.375 25.875 3.375C25.0466 3.375 24.375 2.70343 24.375 1.875C24.375 1.04657 25.0466 0.375 25.875 0.375C26.7034 0.375 27.375 1.04657 27.375 1.875ZM30.375 13.875C30.375 14.7034 29.7034 15.375 28.875 15.375C28.0466 15.375 27.375 14.7034 27.375 13.875C27.375 13.0466 28.0466 12.375 28.875 12.375C29.7034 12.375 30.375 13.0466 30.375 13.875Z" stroke="#F9F7E7" stroke-width="0.75"/>
</svg>
