<svg width="26" height="36" viewBox="0 0 26 36" fill="none" xmlns="http://www.w3.org/2000/svg">
<path d="M13.2383 2.90881C17.8093 2.90881 21.5147 2.42478 21.5147 1.8277C21.5147 1.23061 17.8093 0.746582 13.2383 0.746582C8.66736 0.746582 4.96185 1.23061 4.96185 1.8277C4.96185 2.42478 8.66736 2.90881 13.2383 2.90881Z" stroke="#F9F7E7" stroke-width="0.75" stroke-miterlimit="10" stroke-linecap="round" stroke-linejoin="round"/>
<path d="M4.96185 1.82764L5.57492 5.20204C5.57492 5.20204 13.2724 7.03666 20.6973 5.20204L21.5147 1.82764" stroke="#F9F7E7" stroke-width="0.75" stroke-miterlimit="10" stroke-linecap="round" stroke-linejoin="round"/>
<path d="M5.28753 3.62061C5.28753 3.62061 1.55584 4.53961 3.94 6.01741L5.28753 6.57802" stroke="#F9F7E7" stroke-width="0.75" stroke-miterlimit="10" stroke-linecap="round" stroke-linejoin="round"/>
<path d="M3.94008 6.01709C3.94008 6.01709 1.28345 6.77428 1.28345 9.7883V33.6384C1.28345 33.6384 13.613 37.8973 25.125 33.6384V9.7883C25.125 6.77428 22.4683 6.01709 22.4683 6.01709" stroke="#F9F7E7" stroke-width="0.75" stroke-miterlimit="10" stroke-linecap="round" stroke-linejoin="round"/>
<path d="M21.121 3.62061C21.121 3.62061 24.8528 4.53961 22.4684 6.01741L21.121 6.57802" stroke="#F9F7E7" stroke-width="0.75" stroke-miterlimit="10" stroke-linecap="round" stroke-linejoin="round"/>
<path d="M6.10632 2.37598L6.595 5.40717" stroke="#F9F7E7" stroke-width="0.75" stroke-miterlimit="10" stroke-linecap="round" stroke-linejoin="round"/>
<path d="M7.63055 2.62207V5.40703" stroke="#F9F7E7" stroke-width="0.75" stroke-miterlimit="10" stroke-linecap="round" stroke-linejoin="round"/>
<path d="M19.8842 2.47168L19.793 5.40709" stroke="#F9F7E7" stroke-width="0.75" stroke-miterlimit="10" stroke-linecap="round" stroke-linejoin="round"/>
<path d="M18.846 2.62207V5.58551" stroke="#F9F7E7" stroke-width="0.75" stroke-miterlimit="10" stroke-linecap="round" stroke-linejoin="round"/>
<path d="M9.39374 2.78467V5.80107" stroke="#F9F7E7" stroke-width="0.75" stroke-miterlimit="10" stroke-linecap="round" stroke-linejoin="round"/>
<path d="M17.0849 2.78467V5.80107" stroke="#F9F7E7" stroke-width="0.75" stroke-miterlimit="10" stroke-linecap="round" stroke-linejoin="round"/>
<path d="M13.6262 24.3986C13.6262 24.3986 12.5363 20.0742 12.7406 20.0742C12.945 20.0742 9.33468 13.3253 9.33468 13.3253L3.7522 12.8667C3.7522 12.8667 6.87884 16.0773 6.13132 18.1085C6.13132 18.1085 9.40279 18.5016 10.084 21.4501C10.084 21.4501 12.8769 22.2364 13.6262 24.3986Z" stroke="#F9F7E7" stroke-width="0.75" stroke-miterlimit="10" stroke-linecap="round" stroke-linejoin="round"/>
<path d="M4.82397 13.293C4.83884 13.293 8.01481 14.0036 8.9302 14.1447L12.1957 19.9107L12.7406 22.4005" stroke="#F9F7E7" stroke-width="0.75" stroke-miterlimit="10" stroke-linecap="round" stroke-linejoin="round"/>
<path d="M6.57568 17.847L9.64104 15.8813" stroke="#F9F7E7" stroke-width="0.75" stroke-miterlimit="10" stroke-linecap="round" stroke-linejoin="round"/>
<path d="M10.3563 21.0574L11.6846 19.5176" stroke="#F9F7E7" stroke-width="0.75" stroke-miterlimit="10" stroke-linecap="round" stroke-linejoin="round"/>
<path d="M14.4717 31.8801C14.4717 31.8801 13.0578 27.6434 13.2616 27.629C13.4654 27.6148 9.35456 21.1363 9.35456 21.1363L3.7522 21.0693C3.7522 21.0693 7.11318 24.0528 6.52123 26.1308C6.52123 26.1308 9.81369 26.2941 10.716 29.1871C10.716 29.1871 13.5609 29.7759 14.4717 31.8801Z" stroke="#F9F7E7" stroke-width="0.75" stroke-miterlimit="10" stroke-linecap="round" stroke-linejoin="round"/>
<path d="M4.85303 21.4199C4.86787 21.4189 8.08907 21.9056 9.01279 21.9824L12.7055 27.5048L13.4372 29.95" stroke="#F9F7E7" stroke-width="0.75" stroke-miterlimit="10" stroke-linecap="round" stroke-linejoin="round"/>
<path d="M6.94446 25.8389L9.85314 23.6641" stroke="#F9F7E7" stroke-width="0.75" stroke-miterlimit="10" stroke-linecap="round" stroke-linejoin="round"/>
<path d="M10.9582 28.7762L12.1666 27.1475" stroke="#F9F7E7" stroke-width="0.75" stroke-miterlimit="10" stroke-linecap="round" stroke-linejoin="round"/>
<path d="M14.6328 23.0047C14.6328 23.0047 13.9614 18.6021 13.7719 18.6756C13.5824 18.7491 14.3054 11.1912 14.3054 11.1912L19.304 8.75684C19.304 8.75684 17.6532 12.8595 19.1365 14.474C19.1365 14.474 16.2557 16.0159 16.7708 18.9955C16.7708 18.9955 14.4866 20.7298 14.6328 23.0047Z" stroke="#F9F7E7" stroke-width="0.75" stroke-miterlimit="10" stroke-linecap="round" stroke-linejoin="round"/>
<path d="M18.4758 9.5376C18.462 9.54297 15.7931 11.345 14.9991 11.8053L14.2136 18.3277L14.6766 20.8329" stroke="#F9F7E7" stroke-width="0.75" stroke-miterlimit="10" stroke-linecap="round" stroke-linejoin="round"/>
<path d="M18.6224 14.3912L15.0151 13.6714" stroke="#F9F7E7" stroke-width="0.75" stroke-miterlimit="10" stroke-linecap="round" stroke-linejoin="round"/>
<path d="M16.3649 18.7293L14.5341 17.7793" stroke="#F9F7E7" stroke-width="0.75" stroke-miterlimit="10" stroke-linecap="round" stroke-linejoin="round"/>
<path d="M13.9841 28.9302C13.9841 28.9302 15.018 24.5932 14.8137 24.5957C14.6093 24.5982 18.1322 17.8066 18.1322 17.8066L23.7082 17.2812C23.7082 17.2812 20.6233 20.5289 21.3971 22.5511C21.3971 22.5511 18.1309 22.9833 17.4879 25.9397C17.4879 25.9397 14.7054 26.7594 13.9841 28.9302Z" stroke="#F9F7E7" stroke-width="0.75" stroke-miterlimit="10" stroke-linecap="round" stroke-linejoin="round"/>
<path d="M22.6419 17.7197C22.627 17.7199 19.4604 18.4685 18.5469 18.6205L15.3563 24.4252L14.8434 26.9214" stroke="#F9F7E7" stroke-width="0.75" stroke-miterlimit="10" stroke-linecap="round" stroke-linejoin="round"/>
<path d="M20.9492 22.2941L17.8586 20.3652" stroke="#F9F7E7" stroke-width="0.75" stroke-miterlimit="10" stroke-linecap="round" stroke-linejoin="round"/>
<path d="M17.2102 25.5493L15.8622 24.0254" stroke="#F9F7E7" stroke-width="0.75" stroke-miterlimit="10" stroke-linecap="round" stroke-linejoin="round"/>
<path d="M2.41882 32.6118V21.6914" stroke="#F9F7E7" stroke-width="0.75" stroke-miterlimit="10" stroke-linecap="round" stroke-linejoin="round"/>
<path d="M2.41875 14.0314V10.3345C2.41875 10.3345 2.28918 7.23309 4.21587 7.10205" stroke="#F9F7E7" stroke-width="0.75" stroke-miterlimit="10" stroke-linecap="round" stroke-linejoin="round"/>
<path d="M23.99 14.3909V10.6939C23.99 10.6939 24.1195 7.59247 22.1929 7.46143" stroke="#F9F7E7" stroke-width="0.75" stroke-miterlimit="10" stroke-linecap="round" stroke-linejoin="round"/>
<path d="M19.4039 34.2391C19.4039 34.2391 23.2669 33.6167 23.9917 32.6119V26.2344" stroke="#F9F7E7" stroke-width="0.75" stroke-miterlimit="10" stroke-linecap="round" stroke-linejoin="round"/>
<path d="M19.4039 0.375C19.4039 0.375 22.4458 0.964701 22.4003 1.82737L21.9462 3.25798" stroke="#F9F7E7" stroke-width="0.75" stroke-miterlimit="10" stroke-linecap="round" stroke-linejoin="round"/>
<path d="M14.6173 10.1247L15.4129 9.35938" stroke="#F9F7E7" stroke-width="0.75" stroke-miterlimit="10" stroke-linecap="round" stroke-linejoin="round"/>
<path d="M12.0375 24.6787L13.1234 24.9622" stroke="#F9F7E7" stroke-width="0.75" stroke-miterlimit="10" stroke-linecap="round" stroke-linejoin="round"/>
<path d="M19.9508 23.7759L20.9489 24.2758" stroke="#F9F7E7" stroke-width="0.75" stroke-miterlimit="10" stroke-linecap="round" stroke-linejoin="round"/>
<path d="M17.0849 28.3449L17.8807 27.5796" stroke="#F9F7E7" stroke-width="0.75" stroke-miterlimit="10" stroke-linecap="round" stroke-linejoin="round"/>
<path d="M11.5624 14.0539L12.358 13.2886" stroke="#F9F7E7" stroke-width="0.75" stroke-miterlimit="10" stroke-linecap="round" stroke-linejoin="round"/>
<path d="M6.94482 11.1367L7.77874 11.8635" stroke="#F9F7E7" stroke-width="0.75" stroke-miterlimit="10" stroke-linecap="round" stroke-linejoin="round"/>
<path d="M12.2195 16.6602L13.262 17.0676" stroke="#F9F7E7" stroke-width="0.75" stroke-miterlimit="10" stroke-linecap="round" stroke-linejoin="round"/>
<path d="M8.74768 29.3132L9.54344 28.5479" stroke="#F9F7E7" stroke-width="0.75" stroke-miterlimit="10" stroke-linecap="round" stroke-linejoin="round"/>
<path d="M6.17804 20.2057L6.97367 19.4404" stroke="#F9F7E7" stroke-width="0.75" stroke-miterlimit="10" stroke-linecap="round" stroke-linejoin="round"/>
<path d="M19.2692 15.6826L20.3164 16.0788" stroke="#F9F7E7" stroke-width="0.75" stroke-miterlimit="10" stroke-linecap="round" stroke-linejoin="round"/>
<path d="M20.5513 12.6286L21.3471 11.8633" stroke="#F9F7E7" stroke-width="0.75" stroke-miterlimit="10" stroke-linecap="round" stroke-linejoin="round"/>
<path d="M20.0523 28.2969L21.0504 28.7969" stroke="#F9F7E7" stroke-width="0.75" stroke-miterlimit="10" stroke-linecap="round" stroke-linejoin="round"/>
<path d="M0.375 14.0312V24.0259" stroke="#F9F7E7" stroke-width="0.75" stroke-miterlimit="10" stroke-linecap="round" stroke-linejoin="round"/>
</svg>
