<svg width="31" height="31" viewBox="0 0 31 31" fill="none" xmlns="http://www.w3.org/2000/svg">
<path d="M13.875 4.91919L7.875 7.91919V9.41919C4.875 9.41919 0.375 10.9192 0.375 12.4192C0.375 12.4192 7.785 12.4192 12.8212 14.2942C15.2519 15.2335 17.9072 15.428 20.4487 14.8529C25.545 13.6679 30.375 10.9192 30.375 10.9192C30.375 9.41919 25.7063 9.72294 22.875 9.41919V7.91919L19.875 6.41919L18.375 1.91919L15.375 0.419189L12.375 1.91919L10.875 6.41919M14.625 14.8529V15.4192C14.625 16.2479 14.625 16.9192 15.375 16.9192C16.125 16.9192 16.125 16.2479 16.125 15.4192V15.1117M11.625 13.9154V16.1692L12.375 17.2942V19.1692L13.5 21.7942L15.375 22.1692L17.25 21.7942L18.375 19.1692V17.2942L19.125 16.1692V15.1004M9.5175 13.2892L9.1425 16.3642C8.955 17.6692 7.605 19.4392 7.605 19.4392C7.605 19.4392 4.875 22.9192 7.875 25.9192M7.875 25.9192C7.875 25.9192 4.875 27.4192 4.875 30.4192M7.875 25.9192C8.79 23.6692 9.5625 21.5204 9.5625 21.5204C10.4325 25.5067 12.0525 25.8179 11.8875 28.7692L13.7362 26.8942C13.892 27.7106 14.2661 28.4695 14.8188 29.0902C15.3714 29.7109 16.0821 30.1702 16.875 30.4192C16.8338 27.1304 18.3075 25.8817 18.3075 25.8817C19.1779 26.6762 20.2758 27.1773 21.4463 27.3142M21.4462 14.6017L21.7162 16.323L23.0062 18.573C23.0062 18.573 21.6262 20.073 22.875 22.9192L20.325 22.2255M16.875 19.2105C16.4409 19.518 15.922 19.6832 15.39 19.6832C14.858 19.6832 14.3391 19.518 13.905 19.2105M17.625 7.16919L12.375 12.4192M18.375 12.4192L13.125 7.16919M17.625 9.41919C17.625 10.0159 17.3879 10.5882 16.966 11.0102C16.544 11.4321 15.9717 11.6692 15.375 11.6692C14.7783 11.6692 14.206 11.4321 13.784 11.0102C13.3621 10.5882 13.125 10.0159 13.125 9.41919M27.375 25.9192H26.625C26.4261 25.9192 26.2353 25.8402 26.0947 25.6995C25.954 25.5589 25.875 25.3681 25.875 25.1692V23.6692C25.875 23.4703 25.954 23.2795 26.0947 23.1389C26.2353 22.9982 26.4261 22.9192 26.625 22.9192H28.875V11.7067M28.875 27.4192V30.4192M28.875 9.89169V1.91919C28.875 1.52136 28.717 1.13983 28.4357 0.858529C28.1544 0.577225 27.7728 0.419189 27.375 0.419189H25.875C25.4772 0.419189 25.0956 0.577225 24.8143 0.858529C24.533 1.13983 24.375 1.52136 24.375 1.91919V3.41919C24.375 3.81701 24.533 4.19855 24.8143 4.47985C25.0956 4.76115 25.4772 4.91919 25.875 4.91919H26.625C26.8239 4.91919 27.0147 4.84017 27.1553 4.69952C27.296 4.55887 27.375 4.3681 27.375 4.16919V2.66919C27.375 2.47028 27.296 2.27951 27.1553 2.13886C27.0147 1.99821 26.8239 1.91919 26.625 1.91919C26.4261 1.91919 26.2353 1.99821 26.0947 2.13886C25.954 2.27951 25.875 2.47028 25.875 2.66919V3.41919M0.375 30.4192C0.375 28.6727 0.781632 26.9502 1.56269 25.388C2.34376 23.8259 3.47779 22.4671 4.875 21.4192M21.4463 27.3142C20.25 24.1567 21.375 22.7279 21.375 22.7279M21.4463 27.3142C21.4463 27.3142 25.875 27.4192 25.875 30.4192M27.5138 22.9192C27.0279 22.3569 26.4779 21.8535 25.875 21.4192M1.875 0.419189V3.41919M0.375 1.91919H3.375M3.375 15.4192V18.4192M1.875 16.9192H4.875M28.125 22.9192H29.625C30.0392 22.9192 30.375 23.255 30.375 23.6692V26.6692C30.375 27.0834 30.0392 27.4192 29.625 27.4192H28.125C27.7108 27.4192 27.375 27.0834 27.375 26.6692V23.6692C27.375 23.255 27.7108 22.9192 28.125 22.9192ZM6 6.41919C6 7.04051 5.49632 7.54419 4.875 7.54419C4.25368 7.54419 3.75 7.04051 3.75 6.41919C3.75 5.79787 4.25368 5.29419 4.875 5.29419C5.49632 5.29419 6 5.79787 6 6.41919Z" stroke="#F9F7E7" stroke-width="0.75"/>
</svg>
