<svg width="21" height="39" viewBox="0 0 21 39" fill="none" xmlns="http://www.w3.org/2000/svg">
<path d="M12.1375 30.5609H8.16615C3.9212 30.5609 0.480103 28.212 0.480103 25.3147V17.3579H19.8234V25.3147C19.8234 28.212 16.3823 30.5609 12.1375 30.5609Z" stroke="#F9F7E7" stroke-width="0.75" stroke-miterlimit="10" stroke-linecap="round" stroke-linejoin="round"/>
<path d="M9.78125 21.9839V26.2337" stroke="#F9F7E7" stroke-width="0.75" stroke-miterlimit="10" stroke-linecap="round" stroke-linejoin="round"/>
<path d="M6.7439 24.1089H12.894" stroke="#F9F7E7" stroke-width="0.75" stroke-miterlimit="10" stroke-linecap="round" stroke-linejoin="round"/>
<path d="M8.26294 25.197L11.3758 23.0723" stroke="#F9F7E7" stroke-width="0.75" stroke-miterlimit="10" stroke-linecap="round" stroke-linejoin="round"/>
<path d="M8.26294 23.0723L11.7556 25.197" stroke="#F9F7E7" stroke-width="0.75" stroke-miterlimit="10" stroke-linecap="round" stroke-linejoin="round"/>
<path d="M0.480103 19.1406H19.8234" stroke="#F9F7E7" stroke-width="0.75" stroke-miterlimit="10" stroke-linecap="round" stroke-linejoin="round"/>
<path d="M7.60561 30.7256V33.9387C7.60561 33.9387 7.43639 36.0117 5.23464 36.3746C3.03268 36.7372 0.375366 37.2038 0.375366 37.2038V38.3437H19.2631V37.2038L14.9635 36.5756C14.9635 36.5756 12.7134 36.3743 12.5237 33.8868V30.7256" stroke="#F9F7E7" stroke-width="0.75" stroke-miterlimit="10" stroke-linecap="round" stroke-linejoin="round"/>
<path d="M0.540039 20.7915L3.00145 20.9547" stroke="#F9F7E7" stroke-width="0.75" stroke-miterlimit="10" stroke-linecap="round" stroke-linejoin="round"/>
<path d="M0.480103 24.2645L3.0618 24.1089" stroke="#F9F7E7" stroke-width="0.75" stroke-miterlimit="10" stroke-linecap="round" stroke-linejoin="round"/>
<path d="M1.77087 28.2256L4.08674 27.3994" stroke="#F9F7E7" stroke-width="0.75" stroke-miterlimit="10" stroke-linecap="round" stroke-linejoin="round"/>
<path d="M0.375 37.8418H19.2627" stroke="#F9F7E7" stroke-width="0.75" stroke-miterlimit="10" stroke-linecap="round" stroke-linejoin="round"/>
<path d="M8.16626 30.5609L9.81928 28.8506L11.7174 30.5609" stroke="#F9F7E7" stroke-width="0.75" stroke-miterlimit="10" stroke-linecap="round" stroke-linejoin="round"/>
<path d="M0.658936 26.4425L2.30216 26.104" stroke="#F9F7E7" stroke-width="0.75" stroke-miterlimit="10" stroke-linecap="round" stroke-linejoin="round"/>
<path d="M0.480103 22.606H1.99872" stroke="#F9F7E7" stroke-width="0.75" stroke-miterlimit="10" stroke-linecap="round" stroke-linejoin="round"/>
<path d="M19.5924 20.5732L17.1307 20.7365" stroke="#F9F7E7" stroke-width="0.75" stroke-miterlimit="10" stroke-linecap="round" stroke-linejoin="round"/>
<path d="M19.6526 24.0455L17.0712 23.8901" stroke="#F9F7E7" stroke-width="0.75" stroke-miterlimit="10" stroke-linecap="round" stroke-linejoin="round"/>
<path d="M18.362 28.0073L16.0461 27.1812" stroke="#F9F7E7" stroke-width="0.75" stroke-miterlimit="10" stroke-linecap="round" stroke-linejoin="round"/>
<path d="M19.4737 26.2243L17.8304 25.8857" stroke="#F9F7E7" stroke-width="0.75" stroke-miterlimit="10" stroke-linecap="round" stroke-linejoin="round"/>
<path d="M19.6523 22.3877H18.1339" stroke="#F9F7E7" stroke-width="0.75" stroke-miterlimit="10" stroke-linecap="round" stroke-linejoin="round"/>
<path d="M11.6895 31.061C11.7334 32.219 11.7776 33.3768 11.8218 34.5348" stroke="#F9F7E7" stroke-width="0.75" stroke-miterlimit="10" stroke-linecap="round" stroke-linejoin="round"/>
<path d="M12.4781 35.7583C12.6907 36.4045 13.5405 36.929 14.5038 37.0083" stroke="#F9F7E7" stroke-width="0.75" stroke-miterlimit="10" stroke-linecap="round" stroke-linejoin="round"/>
<path d="M7.79614 30.064C8.31434 29.5286 8.83253 28.993 9.35097 28.4576C9.45596 28.3493 9.59401 28.2283 9.78422 28.2315C9.93067 28.2338 10.0487 28.3108 10.1477 28.3845C10.3619 28.5438 10.5628 28.7115 10.7493 28.8863" stroke="#F9F7E7" stroke-width="0.75" stroke-miterlimit="10" stroke-linecap="round" stroke-linejoin="round"/>
<path d="M11.2041 29.2578C11.4335 29.5085 11.6909 29.7471 11.9735 29.9708" stroke="#F9F7E7" stroke-width="0.75" stroke-miterlimit="10" stroke-linecap="round" stroke-linejoin="round"/>
<path d="M0.585815 18.3281H3.41147" stroke="#F9F7E7" stroke-width="0.75" stroke-miterlimit="10" stroke-linecap="round" stroke-linejoin="round"/>
<path d="M16.5386 18.3281H19.728" stroke="#F9F7E7" stroke-width="0.75" stroke-miterlimit="10" stroke-linecap="round" stroke-linejoin="round"/>
<path d="M4.01025 18.3281H15.6322" stroke="#F9F7E7" stroke-width="0.75" stroke-miterlimit="10" stroke-linecap="round" stroke-linejoin="round"/>
<path d="M9.01318 15.3461C9.08197 14.1346 10.6981 13.2834 12.0388 12.488C13.2488 11.7702 14.3428 10.9612 15.2945 10.0806C15.6826 9.72167 16.0523 9.34309 16.2391 8.91553C16.6819 7.90139 15.8895 6.70549 14.4813 6.2627" stroke="#F9F7E7" stroke-width="0.75" stroke-miterlimit="10" stroke-linecap="round" stroke-linejoin="round"/>
<path d="M11.3169 16.4233C11.6558 15.2237 13.5997 14.644 14.9177 13.817C15.3837 13.5245 15.8033 13.1576 15.8668 12.7277C15.9304 12.2979 15.5081 11.8154 14.8769 11.7808" stroke="#F9F7E7" stroke-width="0.75" stroke-miterlimit="10" stroke-linecap="round" stroke-linejoin="round"/>
<path d="M12.4718 10.4684C12.8925 10.0406 12.2076 9.5258 11.668 9.16542C10.6038 8.4549 9.89148 7.50309 9.67213 6.49828C9.55094 5.94339 9.58763 5.34685 10.0051 4.86361C10.4227 4.38041 11.2971 4.05253 12.0853 4.2122" stroke="#F9F7E7" stroke-width="0.75" stroke-miterlimit="10" stroke-linecap="round" stroke-linejoin="round"/>
<path d="M7.91151 12.8098C7.65799 11.372 6.73499 9.9926 5.30907 8.92031C4.72709 8.48281 4.06697 8.09708 3.46109 7.67481C2.3028 6.86744 1.32426 5.88968 1.02495 4.77834C0.6359 3.33324 1.52835 1.76218 3.24333 0.873959C3.67999 0.6479 4.17449 0.461176 4.71458 0.397589C6.15165 0.22859 7.57553 1.03207 7.9231 1.99865C8.22127 2.82793 7.83701 3.75565 6.94683 4.35563C6.51656 4.64573 5.94573 4.86666 5.34097 4.85702C4.7362 4.84737 4.12301 4.554 4.03987 4.14511C3.96813 3.7928 4.27677 3.46119 4.5886 3.17635" stroke="#F9F7E7" stroke-width="0.75" stroke-miterlimit="10" stroke-linecap="round" stroke-linejoin="round"/>
<path d="M14.2318 15.7127C14.8355 14.949 15.811 14.3251 16.9668 13.9635C17.6278 13.7567 18.382 13.6342 19.0843 13.7636C19.7863 13.8929 20.399 14.3296 20.3742 14.8256C20.3453 15.403 19.4834 15.8289 18.6401 15.8786C18.2342 15.9026 17.7431 15.8209 17.6085 15.5585C17.5105 15.3673 17.6542 15.149 17.8811 15.0182C18.108 14.8876 18.4021 14.827 18.6893 14.7761" stroke="#F9F7E7" stroke-width="0.75" stroke-miterlimit="10" stroke-linecap="round" stroke-linejoin="round"/>
<path d="M7.16693 16.5828C6.77767 15.8952 6.26331 15.2408 5.63941 14.6391C5.18456 14.2005 4.65086 13.7786 3.94586 13.5395C3.24089 13.3003 2.33065 13.2801 1.70837 13.6091C1.23183 13.8611 0.991526 14.2762 0.927748 14.6853C0.876041 15.0168 0.93139 15.3653 1.17557 15.6539C1.47716 16.0099 2.06665 16.2436 2.66938 16.2456C2.93201 16.2466 3.19964 16.2046 3.41811 16.1051C3.7887 15.9361 3.97479 15.5989 3.85952 15.305C3.74429 15.0112 3.33609 14.7825 2.89144 14.7627" stroke="#F9F7E7" stroke-width="0.75" stroke-miterlimit="10" stroke-linecap="round" stroke-linejoin="round"/>
<path d="M10.0081 12.6102C9.98373 11.4611 9.36917 10.3216 8.29562 9.43603C7.52642 8.80139 6.50482 8.26362 6.12784 7.48127C5.65357 6.49697 6.5563 5.28553 8.02866 5.0332" stroke="#F9F7E7" stroke-width="0.75" stroke-miterlimit="10" stroke-linecap="round" stroke-linejoin="round"/>
<path d="M12.6123 2.86118C12.1153 2.79027 11.6826 2.53669 11.5047 2.21206C11.3268 1.88744 11.4092 1.50234 11.7158 1.22606C11.9172 1.04463 12.2017 0.913253 12.5008 0.812352C13.0321 0.63309 13.6494 0.541362 14.2239 0.641176C15.2179 0.813906 15.8546 1.5454 15.8416 2.24534C15.8286 2.94544 15.284 3.59751 14.5877 4.11148C13.9471 4.58412 13.1545 4.98322 12.7369 5.56051C12.1392 6.38652 12.5304 7.48696 13.616 8.03438" stroke="#F9F7E7" stroke-width="0.75" stroke-miterlimit="10" stroke-linecap="round" stroke-linejoin="round"/>
<path d="M5.89254 13.2029C5.52195 12.9232 5.05248 12.7156 4.60376 12.4958C4.03748 12.2184 3.49083 11.9129 3.07216 11.5325C2.65349 11.152 2.36923 10.6885 2.38266 10.2128C2.39109 9.9202 2.52798 9.61348 2.85621 9.42533C3.02659 9.32771 3.23843 9.26784 3.45618 9.23628C4.16825 9.13321 4.98325 9.37031 5.28642 9.82196C5.58938 10.2736 5.2584 10.8911 4.56866 11.05" stroke="#F9F7E7" stroke-width="0.75" stroke-miterlimit="10" stroke-linecap="round" stroke-linejoin="round"/>
</svg>
