<svg width="37" height="55" viewBox="0 0 37 55" fill="none" xmlns="http://www.w3.org/2000/svg">
<path d="M15.2243 15.8489C13.7058 15.6593 12.0489 15.6235 10.5551 15.8803C9.06143 16.1372 7.69748 16.9849 7.80673 17.9647C7.85249 18.3748 8.15792 18.7711 8.64017 19.046C9.6809 19.6389 11.3997 19.6426 12.2471 20.3485C13.1795 21.1251 12.5455 22.3275 13.3781 23.1483C13.8558 23.6193 14.7264 23.8694 15.3001 24.2952C16.6607 25.3053 15.9613 26.9092 16.8986 28.0975C17.0882 28.3378 17.4472 28.5847 17.861 28.5275C18.0918 28.4956 18.2641 28.375 18.401 28.2526C19.4413 27.3217 19.2562 26.0762 19.3762 24.9376C19.4022 24.6894 19.4524 24.4288 19.6845 24.2285C20.1745 23.8045 21.2293 23.8314 21.8237 23.465C22.7729 22.8796 22.0034 21.706 22.9378 21.111C23.3327 20.8593 23.9225 20.7914 24.453 20.6784C24.9839 20.5651 25.5465 20.342 25.6137 19.9892C25.6541 19.776 25.4991 19.5594 25.5638 19.3488C25.7266 18.8192 27.0229 18.7679 27.3831 18.2788C27.5913 17.9961 27.3996 17.6461 27.0505 17.4261C26.7018 17.2062 26.2274 17.0887 25.7637 16.9846C23.8013 16.5447 20.82 16.2447 18.7542 16.0838M9.10663 19.2616C10.8782 22.7089 9.94461 26.2329 8.77073 29.7817C8.66106 30.1136 8.55186 30.4717 8.76823 30.7819C8.98465 31.0921 9.67669 31.2846 10.0715 31.056C10.3659 33.5356 10.2393 36.0353 9.69485 38.4976C9.53159 39.2368 9.33004 39.9862 9.49742 40.7248C9.60907 41.2185 9.88195 41.6911 10.0798 42.1738C11.4936 45.6216 8.5288 49.5799 3.42269 51.0612C4.1968 51.4635 3.73474 52.2936 2.96354 52.698C2.19236 53.1023 1.17221 53.331 0.593103 53.8487C0.507782 53.9249 0.431116 54.0129 0.440184 54.1064C0.459969 54.3086 0.841229 54.405 1.15861 54.4265C2.92191 54.5449 4.59082 53.8116 6.36361 53.8373C8.0383 53.8613 9.65321 54.5617 11.285 54.3208C12.0814 54.2033 12.7548 53.8739 13.5104 53.676C15.218 53.2295 17.1507 53.4877 18.9746 53.6713C23.9031 54.1675 28.9798 54.0605 33.8456 53.3588C34.7318 53.2308 35.688 53.0509 36.2 52.5741C36.7119 52.0978 36.3735 51.2626 35.4667 51.2268M27.1232 18.5153C27.5321 20.929 27.868 22.9822 28.2769 25.3959C28.4867 26.6359 28.6977 27.8797 29.14 29.0949C29.4574 29.9672 29.8963 30.8431 29.8007 31.7361C29.7673 32.0484 29.4301 32.4528 28.9685 32.3424C28.6309 32.2616 28.4088 31.921 28.0831 32.0191C27.6124 33.5168 27.5337 35.0516 27.4566 36.5781C27.3808 38.0786 27.305 39.5795 27.2291 41.0798C27.1735 42.1787 27.1219 43.2986 27.6021 44.3545C27.9793 45.1834 28.635 46.1614 27.7646 46.824C27.3837 47.1142 26.7065 47.3896 26.908 47.7447C26.9909 47.8908 27.2097 47.986 27.3524 48.1124C28.0152 48.6991 26.8602 49.664 27.6351 50.1926C27.2943 50.5051 26.6442 50.6677 26.0589 50.5873M28.1702 46.7915C28.634 47.9544 30.2554 48.758 31.7764 49.4703C32.4247 49.7735 33.0797 50.0793 33.8171 50.2853C34.1699 50.3834 34.5611 50.4681 34.789 50.6652C35.1831 51.0059 34.8591 51.524 34.2989 51.7518C33.7383 51.9801 33.0352 51.9982 32.3695 52.0092M13.3961 41.9484C13.4926 43.2242 13.4823 44.5016 13.4719 45.7787C13.465 46.6214 13.4105 47.0991 12.9996 47.5628C11.8179 48.8971 9.02208 49.4421 8.05842 50.8451C7.74063 51.3076 7.84367 51.9992 8.61278 52.1264C9.4219 52.2599 10.0455 51.6521 10.8505 51.5093C11.6316 51.3707 12.5623 51.6803 13.2358 51.3939C13.589 51.244 13.7506 50.9727 13.9814 50.7465C14.2122 50.5204 14.6306 50.3131 15.03 50.405M26.1147 26.0025C25.9358 26.7534 26.2074 27.5137 26.3789 28.2655C26.5504 29.0172 26.6085 29.8238 26.05 30.4955C25.9494 30.6169 25.8113 30.7406 25.6032 30.7767C25.1828 30.8499 24.858 30.5337 24.7693 30.2627C24.6803 29.9917 24.6193 29.6643 24.2286 29.5419C24.1008 29.5019 23.9487 29.4901 23.8411 29.431C23.7393 29.3752 23.6969 29.2884 23.661 29.206C23.4714 28.7745 23.3197 28.3361 23.2072 27.8941M12.8869 32.4072V39.6001M12.1657 24.103V26.9807M23.8348 31.6894C23.8435 35.4911 23.8521 39.2932 23.8608 43.095C23.8612 43.3465 23.862 43.5996 23.9399 43.846C24.0323 44.1387 24.233 44.4394 24.0974 44.7258C24.0137 44.9027 23.8084 45.0502 23.7379 45.2296C23.6675 45.409 23.8381 45.652 24.1275 45.6314M17.5394 10.7633C17.4689 12.9452 17.2731 15.1258 16.9524 17.2986M25.2199 17.917C25.0448 18.3287 24.3602 18.5559 23.7246 18.6946C22.5408 18.953 21.2829 19.0738 20.0315 19.0498M9.64707 17.3817C9.44015 17.4471 9.40926 17.6398 9.52629 17.7664C9.64337 17.893 9.85895 17.9673 10.0671 18.0316C11.398 18.4434 12.851 18.6952 14.3266 18.77M14.2747 20.6078C14.6193 20.7889 14.6737 21.1043 14.7173 21.3868C14.761 21.6693 14.8546 21.9879 15.2334 22.139C15.4852 22.2397 15.8224 22.2447 16.0396 22.3736C16.1901 22.4628 16.2535 22.5944 16.3112 22.7197C16.404 22.9219 16.4971 23.1241 16.5899 23.326C16.6628 23.4848 16.7403 23.6487 16.9101 23.7738C17.0804 23.899 17.3709 23.9741 17.608 23.9061C17.8347 23.841 17.9377 23.6733 17.9843 23.5182C18.0523 23.292 18.0486 23.0589 18.1083 22.8316C18.1681 22.6044 18.3054 22.3721 18.5902 22.229M21.7639 20.3284C21.3793 20.4249 21.3418 20.7548 21.3566 21.0168C21.3714 21.2792 21.2956 21.6132 20.8967 21.682C20.515 21.7479 20.179 21.5025 20.0331 21.2692M14.2608 31.906V35.3086M15.4497 16.0192C13.5346 14.3766 11.536 12.5831 11.5084 10.5398C11.4845 8.76773 12.9531 7.14949 14.1562 5.55004C15.3594 3.95087 16.337 2.08989 15.3202 0.439453C18.0558 1.84062 20.0969 3.77983 21.0895 5.91988C21.6781 5.42477 22.0272 4.81637 22.0787 4.19702C23.4035 5.91676 24.3795 7.78586 24.3733 9.7002C24.3671 11.6146 23.2815 13.5828 21.0231 14.8521C20.0524 15.3975 18.8617 15.8212 18.0439 16.4701C17.8275 16.642 17.3902 17.3377 17.0312 17.3299C16.6664 17.322 15.6768 16.2141 15.4497 16.0192ZM13.7809 11.2994C13.4269 9.74786 13.933 8.0872 15.4329 6.84112C16.4819 5.96935 17.1402 4.25407 16.803 3.17827C17.8409 4.36602 19.5028 6.51732 19.856 7.85652C20.3964 7.5675 20.8519 7.21463 21.1927 6.82179C22.6267 9.82005 21.2677 13.8629 17.2206 15.8498C15.3431 14.9128 14.1115 12.7471 13.7809 11.2994Z" stroke="#F9F7E7" stroke-width="0.878906" stroke-miterlimit="10" stroke-linecap="round" stroke-linejoin="round"/>
</svg>
