<svg width="26" height="36" viewBox="0 0 26 36" fill="none" xmlns="http://www.w3.org/2000/svg">
<path d="M25.0143 5.50684H0.375V7.06198H25.0143V5.50684Z" stroke="#F9F7E7" stroke-width="0.75" stroke-miterlimit="10" stroke-linecap="round" stroke-linejoin="round"/>
<path d="M24.8587 29.5601H0.530518V31.1153H24.8587V29.5601Z" stroke="#F9F7E7" stroke-width="0.75" stroke-miterlimit="10" stroke-linecap="round" stroke-linejoin="round"/>
<path d="M23.8172 31.0947H1.57031V35.5315H23.8172V31.0947Z" stroke="#F9F7E7" stroke-width="0.75" stroke-miterlimit="10" stroke-linecap="round" stroke-linejoin="round"/>
<path d="M3.24512 5.24763C3.24512 2.55658 7.44461 0.375 12.625 0.375C17.8055 0.375 22.005 2.55658 22.005 5.24763" stroke="#F9F7E7" stroke-width="0.75" stroke-miterlimit="10" stroke-linecap="round" stroke-linejoin="round"/>
<path d="M4.09448 29.3785V23.4556C4.09448 20.6076 7.24088 18.2988 11.122 18.2988" stroke="#F9F7E7" stroke-width="0.75" stroke-miterlimit="10" stroke-linecap="round" stroke-linejoin="round"/>
<path d="M14.2617 18.2988C18.0689 18.2988 21.1555 20.5636 21.1555 23.3574V29.3787" stroke="#F9F7E7" stroke-width="0.75" stroke-miterlimit="10" stroke-linecap="round" stroke-linejoin="round"/>
<path d="M21.1552 7.10107V13.0864C21.1552 15.9644 18.0088 18.2975 14.1277 18.2975" stroke="#F9F7E7" stroke-width="0.75" stroke-miterlimit="10" stroke-linecap="round" stroke-linejoin="round"/>
<path d="M10.9883 18.2975C7.18104 18.2975 4.09448 16.0087 4.09448 13.1856V7.10107" stroke="#F9F7E7" stroke-width="0.75" stroke-miterlimit="10" stroke-linecap="round" stroke-linejoin="round"/>
<path d="M5.41138 12.1939C5.41138 12.1939 7.11138 12.5567 9.269 11.8311C11.4266 11.1053 11.8842 10.8462 15.0226 11.52C18.1609 12.1939 19.5992 11.9866 19.5992 11.9866C19.5992 11.9866 20.253 16.4448 13.8457 17.3259C13.8457 17.3259 13.2572 17.5332 13.2572 18.2072C13.2572 18.8811 14.8917 19.7624 13.8457 20.229C12.7996 20.6955 11.6227 20.3327 12.2112 18.5183C12.2112 18.5183 12.342 17.6889 11.2304 17.3779C10.1189 17.0668 6.06515 16.5483 5.41138 12.1939Z" stroke="#F9F7E7" stroke-width="0.75" stroke-miterlimit="10" stroke-linecap="round" stroke-linejoin="round"/>
<path d="M19.4033 28.3162H5.86914C6.42325 27.605 6.80123 26.8651 7.35513 26.1542C7.45107 26.0309 7.55366 25.9028 7.71233 25.8311C7.9479 25.725 8.24584 25.7694 8.50476 25.705C9.21971 25.528 9.31406 24.6552 10.011 24.4374C10.193 24.3805 10.3942 24.3777 10.5829 24.3374C11.5996 24.1203 12.0054 22.9147 13.0577 22.8863C13.9513 22.862 14.4258 23.6912 15.1157 24.1422C15.3114 24.2702 15.5337 24.3702 15.7357 24.4918C16.0011 24.6514 16.2288 24.8466 16.455 25.0408C16.628 25.1891 16.801 25.3376 16.974 25.4861C17.3749 25.8299 17.7762 26.1741 18.1428 26.5413C18.6534 27.0522 19.0398 27.7311 19.4033 28.3162Z" stroke="#F9F7E7" stroke-width="0.75" stroke-miterlimit="10" stroke-linecap="round" stroke-linejoin="round"/>
<path d="M15.5955 19.2441C16.481 19.4717 17.3531 19.7665 18.0812 20.2264C18.8093 20.6862 19.3864 21.3273 19.5454 22.0546" stroke="#F9F7E7" stroke-width="0.75" stroke-miterlimit="10" stroke-linecap="round" stroke-linejoin="round"/>
<path d="M19.7954 23.8057V26.7035" stroke="#F9F7E7" stroke-width="0.75" stroke-miterlimit="10" stroke-linecap="round" stroke-linejoin="round"/>
<path d="M6.89673 12.9781C8.42766 13.4563 10.0314 13.9434 11.6688 13.8143C12.0526 13.784 12.4312 13.7201 12.8143 13.6849C13.5877 13.6142 14.3705 13.6619 15.1472 13.621C16.2553 13.5625 17.3474 13.3213 18.3336 12.917" stroke="#F9F7E7" stroke-width="0.75" stroke-miterlimit="10" stroke-linecap="round" stroke-linejoin="round"/>
<path d="M14.4844 25.3744C14.5334 25.1766 14.7809 25.0228 15.0348 25.0321C15.2886 25.0415 15.5171 25.2132 15.5426 25.4135" stroke="#F9F7E7" stroke-width="0.75" stroke-miterlimit="10" stroke-linecap="round" stroke-linejoin="round"/>
<path d="M10.7201 26.1158C10.6959 26.0314 10.5584 25.9928 10.4555 26.0218C10.3525 26.0505 10.2817 26.1257 10.2311 26.2023C10.2032 26.2444 10.1769 26.2909 10.1259 26.3163C10.0567 26.3504 9.96803 26.3345 9.88662 26.3307C9.47432 26.3123 9.1752 26.625 8.9563 26.9027" stroke="#F9F7E7" stroke-width="0.75" stroke-miterlimit="10" stroke-linecap="round" stroke-linejoin="round"/>
<path d="M15.0137 26.7003C15.2247 26.5959 15.5307 26.6372 15.6863 26.7911C15.7618 26.866 15.8028 26.9606 15.884 27.0317C16.0218 27.1522 16.2423 27.1805 16.4377 27.2301C16.6332 27.2801 16.8431 27.3893 16.8461 27.5522" stroke="#F9F7E7" stroke-width="0.75" stroke-miterlimit="10" stroke-linecap="round" stroke-linejoin="round"/>
<path d="M14.6158 21.6009L14.1209 21.5644L13.8021 21.8667L13.6933 21.4822L13.2319 21.3354L13.6595 21.1343L13.6931 20.7412L14.0663 21.0015L14.5483 20.9054L14.3515 21.2672L14.6158 21.6009Z" stroke="#F9F7E7" stroke-width="0.75" stroke-miterlimit="10" stroke-linecap="round" stroke-linejoin="round"/>
<path d="M14.0718 24.7135L13.5769 24.6767L13.2582 24.979L13.1493 24.5944L12.688 24.4477L13.1156 24.2468L13.1491 23.8535L13.5224 24.1139L14.0043 24.0177L13.8074 24.3795L14.0718 24.7135Z" stroke="#F9F7E7" stroke-width="0.75" stroke-miterlimit="10" stroke-linecap="round" stroke-linejoin="round"/>
<path d="M10.7546 23.4907L10.3162 23.3047L9.87467 23.4856L9.96215 23.0976L9.60889 22.8206L10.1012 22.7666L10.3244 22.4146L10.5412 22.7693L11.0325 22.8287L10.6742 23.1018L10.7546 23.4907Z" stroke="#F9F7E7" stroke-width="0.75" stroke-miterlimit="10" stroke-linecap="round" stroke-linejoin="round"/>
<path d="M15.4705 10.89L15.3619 10.6536L15.0547 10.5906L15.3046 10.4357L15.2854 10.1846L15.5484 10.3252L15.8434 10.2331L15.7563 10.4748L15.958 10.6688L15.641 10.6779L15.4705 10.89Z" stroke="#F9F7E7" stroke-width="0.75" stroke-miterlimit="10" stroke-linecap="round" stroke-linejoin="round"/>
<path d="M11.4835 27.3606L11.3748 27.1243L11.0676 27.0613L11.3175 26.9062L11.2983 26.6553L11.5613 26.7957L11.8565 26.7037L11.7692 26.9455L11.9709 27.1395L11.6539 27.1483L11.4835 27.3606Z" stroke="#F9F7E7" stroke-width="0.75" stroke-miterlimit="10" stroke-linecap="round" stroke-linejoin="round"/>
<path d="M14.6092 14.7989L14.4097 14.6034L14.0935 14.6227L14.2663 14.412L14.1453 14.1795L14.4517 14.2447L14.6931 14.0815L14.7096 14.3328L14.9799 14.4644L14.6837 14.5545L14.6092 14.7989Z" stroke="#F9F7E7" stroke-width="0.75" stroke-miterlimit="10" stroke-linecap="round" stroke-linejoin="round"/>
<path d="M12.5324 17.1759L12.3077 16.8244L11.8149 16.7719L12.1672 16.4938L12.078 16.1061L12.5205 16.2857L12.9579 16.0986L12.8791 16.4877L13.2388 16.7599L12.7476 16.8207L12.5324 17.1759Z" stroke="#F9F7E7" stroke-width="0.75" stroke-miterlimit="10" stroke-linecap="round" stroke-linejoin="round"/>
<path d="M12.3588 12.267L11.9632 12.5056L11.9868 12.8992L11.5784 12.6745L11.1133 12.8138L11.2567 12.4366L10.9458 12.1289L11.4428 12.1204L11.7157 11.791L11.8795 12.1632L12.3588 12.267Z" stroke="#F9F7E7" stroke-width="0.75" stroke-miterlimit="10" stroke-linecap="round" stroke-linejoin="round"/>
<path d="M7.78247 14.4136C7.78698 14.6178 8.03552 14.7975 8.29247 14.7825C8.34503 14.7793 8.40467 14.771 8.44507 14.7979C8.47057 14.8148 8.48076 14.8419 8.49019 14.8671C8.53177 14.9772 8.60062 15.0986 8.73927 15.1319C8.87795 15.1652 9.04528 15.0181 8.94052 14.9386" stroke="#F9F7E7" stroke-width="0.75" stroke-miterlimit="10" stroke-linecap="round" stroke-linejoin="round"/>
<path d="M16.8875 15.1812C16.8494 15.2913 16.787 15.4037 16.667 15.4667C16.5469 15.5295 16.3575 15.5183 16.2873 15.4188C16.2202 15.5757 15.9848 15.6735 15.7839 15.6281" stroke="#F9F7E7" stroke-width="0.75" stroke-miterlimit="10" stroke-linecap="round" stroke-linejoin="round"/>
<path d="M11.3992 14.3857C11.458 14.4895 11.5284 14.6024 11.661 14.6456C11.7936 14.6888 11.9868 14.5985 11.9427 14.4902" stroke="#F9F7E7" stroke-width="0.75" stroke-miterlimit="10" stroke-linecap="round" stroke-linejoin="round"/>
<path d="M20.2993 11.8833V9.08398" stroke="#F9F7E7" stroke-width="0.75" stroke-miterlimit="10" stroke-linecap="round" stroke-linejoin="round"/>
<path d="M20.2993 8.42334V7.80127" stroke="#F9F7E7" stroke-width="0.75" stroke-miterlimit="10" stroke-linecap="round" stroke-linejoin="round"/>
<path d="M5.19604 27.4349V23.4304C5.19604 23.4304 5.19604 20.9422 7.795 19.9702" stroke="#F9F7E7" stroke-width="0.75" stroke-miterlimit="10" stroke-linecap="round" stroke-linejoin="round"/>
<path d="M4.85278 7.87891V10.2116" stroke="#F9F7E7" stroke-width="0.75" stroke-miterlimit="10" stroke-linecap="round" stroke-linejoin="round"/>
<path d="M4.95093 13.8276C4.95093 13.8276 5.53936 16.0437 7.69698 16.8991" stroke="#F9F7E7" stroke-width="0.75" stroke-miterlimit="10" stroke-linecap="round" stroke-linejoin="round"/>
<path d="M23.0453 7.0957V13.6073C23.0453 13.6073 22.1626 14.6777 23.0453 16.1049C23.0453 16.1049 22.0645 17.1753 23.0453 18.2457" stroke="#F9F7E7" stroke-width="0.75" stroke-miterlimit="10" stroke-linecap="round" stroke-linejoin="round"/>
<path d="M24.4241 7.0957V13.6073C24.4241 13.6073 25.3068 14.6777 24.4241 16.1049C24.4241 16.1049 25.4049 17.1753 24.4241 18.2457" stroke="#F9F7E7" stroke-width="0.75" stroke-miterlimit="10" stroke-linecap="round" stroke-linejoin="round"/>
<path d="M24.4404 29.4122V22.9006C24.4404 22.9006 25.323 21.8302 24.4404 20.403C24.4404 20.403 25.4211 19.3326 24.4404 18.2622" stroke="#F9F7E7" stroke-width="0.75" stroke-miterlimit="10" stroke-linecap="round" stroke-linejoin="round"/>
<path d="M23.0619 29.4122V22.9006C23.0619 22.9006 22.1792 21.8302 23.0619 20.403C23.0619 20.403 22.0811 19.3326 23.0619 18.2622" stroke="#F9F7E7" stroke-width="0.75" stroke-miterlimit="10" stroke-linecap="round" stroke-linejoin="round"/>
<path d="M1.00595 7.0957V13.6073C1.00595 13.6073 0.12329 14.6777 1.00595 16.1049C1.00595 16.1049 0.0252169 17.1753 1.00595 18.2457" stroke="#F9F7E7" stroke-width="0.75" stroke-miterlimit="10" stroke-linecap="round" stroke-linejoin="round"/>
<path d="M2.38477 7.0957V13.6073C2.38477 13.6073 3.26742 14.6777 2.38477 16.1049C2.38477 16.1049 3.3655 17.1753 2.38477 18.2457" stroke="#F9F7E7" stroke-width="0.75" stroke-miterlimit="10" stroke-linecap="round" stroke-linejoin="round"/>
<path d="M2.40112 29.4122V22.9006C2.40112 22.9006 3.28378 21.8302 2.40112 20.403C2.40112 20.403 3.38186 19.3326 2.40112 18.2622" stroke="#F9F7E7" stroke-width="0.75" stroke-miterlimit="10" stroke-linecap="round" stroke-linejoin="round"/>
<path d="M1.02255 29.4122V22.9006C1.02255 22.9006 0.139892 21.8302 1.02255 20.403C1.02255 20.403 0.0418184 19.3326 1.02255 18.2622" stroke="#F9F7E7" stroke-width="0.75" stroke-miterlimit="10" stroke-linecap="round" stroke-linejoin="round"/>
<path d="M7.61011 11.4166V7.94336" stroke="#F9F7E7" stroke-width="0.75" stroke-miterlimit="10" stroke-linecap="round" stroke-linejoin="round"/>
<path d="M6.40015 9.68018H8.81924" stroke="#F9F7E7" stroke-width="0.75" stroke-miterlimit="10" stroke-linecap="round" stroke-linejoin="round"/>
<path d="M6.8252 10.354L8.39439 9.00635" stroke="#F9F7E7" stroke-width="0.75" stroke-miterlimit="10" stroke-linecap="round" stroke-linejoin="round"/>
<path d="M6.91235 9.08398L8.38344 10.3281" stroke="#F9F7E7" stroke-width="0.75" stroke-miterlimit="10" stroke-linecap="round" stroke-linejoin="round"/>
<path d="M17.8096 24.6353V21.1621" stroke="#F9F7E7" stroke-width="0.75" stroke-miterlimit="10" stroke-linecap="round" stroke-linejoin="round"/>
<path d="M16.5999 22.8994H19.0189" stroke="#F9F7E7" stroke-width="0.75" stroke-miterlimit="10" stroke-linecap="round" stroke-linejoin="round"/>
<path d="M17.0249 23.5728L18.5941 22.2251" stroke="#F9F7E7" stroke-width="0.75" stroke-miterlimit="10" stroke-linecap="round" stroke-linejoin="round"/>
<path d="M17.1121 22.3027L18.5831 23.5469" stroke="#F9F7E7" stroke-width="0.75" stroke-miterlimit="10" stroke-linecap="round" stroke-linejoin="round"/>
<path d="M15.7063 1.46387C15.7063 1.46387 19.2697 2.13772 20.3811 4.13361" stroke="#F9F7E7" stroke-width="0.75" stroke-miterlimit="10" stroke-linecap="round" stroke-linejoin="round"/>
<path d="M20.741 4.75537V5.42939" stroke="#F9F7E7" stroke-width="0.75" stroke-miterlimit="10" stroke-linecap="round" stroke-linejoin="round"/>
</svg>
