<svg width="31" height="31" viewBox="0 0 31 31" fill="none" xmlns="http://www.w3.org/2000/svg">
<path d="M1.95752 30.375V7.875M19.9575 30.375V7.875H28.9575M1.95752 21.375H19.9575M28.2075 13.875L23.7075 18.375M28.2075 18.375L23.7075 13.875M27.645 16.125C27.645 16.5726 27.4672 17.0018 27.1508 17.3182C26.8343 17.6347 26.4051 17.8125 25.9575 17.8125C25.51 17.8125 25.0807 17.6347 24.7643 17.3182C24.4478 17.0018 24.27 16.5726 24.27 16.125M28.9575 7.875C29.3553 7.875 29.7369 7.71696 30.0182 7.43566C30.2995 7.15436 30.4575 6.77282 30.4575 6.375M28.9575 7.875V9.375M0.45752 30.375H30.4575M8.70752 30.375V25.875C8.70752 25.2783 8.94457 24.706 9.36653 24.284C9.78849 23.8621 10.3608 23.625 10.9575 23.625C11.5543 23.625 12.1266 23.8621 12.5485 24.284C12.9705 24.706 13.2075 25.2783 13.2075 25.875V30.375M11.7075 27.375H13.2075M22.2075 9.375V10.875M22.9575 7.875V9.375M28.2075 9.375V10.875M22.9575 10.875V12.375M28.9575 10.875V12.375M28.9575 0.375V3.375M24.4575 0.375V1.875M27.4575 1.875H30.4575M25.9575 3.75V6M24.8325 4.875H27.0825M27.4575 27.375V30.375M27.4575 27.375L28.9575 24.375L27.4575 22.875L25.9575 24.375L27.4575 27.375ZM7.95752 16.875L4.95752 21.375L1.95752 16.875H19.9575L16.9575 21.375L13.9575 16.875L10.9575 21.375L7.95752 16.875ZM5.33252 24.375C4.93469 24.375 4.55316 24.533 4.27186 24.8143C3.99056 25.0956 3.83252 25.4772 3.83252 25.875V27.375H6.83252V25.875C6.83252 25.4772 6.67448 25.0956 6.39318 24.8143C6.11187 24.533 5.73034 24.375 5.33252 24.375ZM16.5825 24.375C16.1847 24.375 15.8032 24.533 15.5219 24.8143C15.2406 25.0956 15.0825 25.4772 15.0825 25.875V27.375H18.0825V25.875C18.0825 25.4772 17.9245 25.0956 17.6432 24.8143C17.3619 24.533 16.9803 24.375 16.5825 24.375ZM5.70752 10.875C5.30969 10.875 4.92816 11.033 4.64686 11.3143C4.36556 11.5956 4.20752 11.9772 4.20752 12.375V13.875H7.20752V12.375C7.20752 11.9772 7.04948 11.5956 6.76818 11.3143C6.48687 11.033 6.10534 10.875 5.70752 10.875ZM7.95752 2.625C7.55969 2.625 7.17816 2.78304 6.89686 3.06434C6.61556 3.34564 6.45752 3.72718 6.45752 4.125V5.625H9.45752V4.125C9.45752 3.72718 9.29948 3.34564 9.01818 3.06434C8.73687 2.78304 8.35534 2.625 7.95752 2.625ZM13.9575 2.625C13.5597 2.625 13.1782 2.78304 12.8969 3.06434C12.6156 3.34564 12.4575 3.72718 12.4575 4.125V5.625H15.4575V4.125C15.4575 3.72718 15.2995 3.34564 15.0182 3.06434C14.7369 2.78304 14.3553 2.625 13.9575 2.625ZM16.2075 10.875C15.8097 10.875 15.4282 11.033 15.1469 11.3143C14.8656 11.5956 14.7075 11.9772 14.7075 12.375V13.875H17.7075V12.375C17.7075 11.9772 17.5495 11.5956 17.2682 11.3143C16.9869 11.033 16.6053 10.875 16.2075 10.875ZM10.9575 10.875C10.5597 10.875 10.1782 11.033 9.89686 11.3143C9.61556 11.5956 9.45752 11.9772 9.45752 12.375V13.875H12.4575V12.375C12.4575 11.9772 12.2995 11.5956 12.0182 11.3143C11.7369 11.033 11.3553 10.875 10.9575 10.875ZM19.9575 0.375H1.95752L0.45752 7.875H21.4575L19.9575 0.375ZM22.2075 12.375H29.7075V19.875H22.2075V12.375Z" stroke="#F9F7E7" stroke-width="0.75"/>
</svg>
