<svg width="30" height="31" viewBox="0 0 30 31" fill="none" xmlns="http://www.w3.org/2000/svg">
<path d="M3 30.375V24.375L1.5 22.875V18.375H4.5V21.375H7.5V18.375H10.5V22.875L9 24.375V30.375M21 30.375V24.375L19.5 22.875V18.375H22.5V21.375H25.5V18.375H28.5V22.875L27 24.375V30.375M6 4.875H1.5V1.875H6V7.875M6 7.875L3 10.875V16.875M6 7.875L9 10.875V16.875M3 12.375H9M24 4.875H28.5V1.875H24V7.875M24 7.875L27 10.875V16.875M24 7.875L21 10.875V16.875M27 12.375H21M0 30.375H30M13.5 21.375V19.875M13.5 18.375V16.875M16.5 18.375V16.875M16.5 21.375V19.875M12 9.375H18M15 10.875V13.875M9 15.375H12V7.875L15 4.875M15 4.875L18 7.875V15.375H21M15 4.875V0.375H19.5V3.375H15M12 30.375V27.375C12 24.375 15 22.875 15 22.875C15 22.875 18 24.375 18 27.375V30.375M6 27.375V25.875M24 27.375V25.875M6 16.875V15.375M24 16.875V15.375" stroke="#F9F7E7" stroke-width="0.75"/>
</svg>
