<svg width="32" height="39" viewBox="0 0 32 39" fill="none" xmlns="http://www.w3.org/2000/svg">
<path d="M6.95703 23.7772C6.95703 23.7772 4.19312 24.5901 4.19312 26.0128C4.19312 27.4353 10.3733 27.8418 16.7409 27.8418C16.7409 27.8418 28.2587 27.9435 29.195 25.6065C29.195 25.6065 29.2468 23.9807 25.0331 23.3711" stroke="#F9F7E7" stroke-width="0.75" stroke-miterlimit="10" stroke-linecap="round" stroke-linejoin="round"/>
<path d="M5.84087 24.2231C5.84087 24.2231 2.76551 25.3267 3.04632 28.1719C3.32731 31.0167 8.10292 36.9104 8.10292 36.9104C8.10292 36.9104 15.9101 40.1364 25.7542 36.9104C25.7542 36.9104 30.5297 31.017 30.8108 28.1719C31.0917 25.3269 28.034 24.2481 28.034 24.2481" stroke="#F9F7E7" stroke-width="0.75" stroke-miterlimit="10" stroke-linecap="round" stroke-linejoin="round"/>
<path d="M3.16321 27.8418C3.16321 27.8418 4.66146 30.0772 13.6977 30.3311" stroke="#F9F7E7" stroke-width="0.75" stroke-miterlimit="10" stroke-linecap="round" stroke-linejoin="round"/>
<path d="M30.6936 27.8921C30.6936 27.8921 29.1952 30.1275 20.1591 30.3815" stroke="#F9F7E7" stroke-width="0.75" stroke-miterlimit="10" stroke-linecap="round" stroke-linejoin="round"/>
<path d="M4.38025 31.3979C4.38025 31.3979 15.1489 34.5478 29.476 31.3979" stroke="#F9F7E7" stroke-width="0.75" stroke-miterlimit="10" stroke-linecap="round" stroke-linejoin="round"/>
<path d="M6.35535 34.6523C9.68805 35.3326 17.5174 36.458 27.3175 34.7181" stroke="#F9F7E7" stroke-width="0.75" stroke-miterlimit="10" stroke-linecap="round" stroke-linejoin="round"/>
<path d="M14.8214 30.3819C14.8214 30.3819 17.0688 30.585 19.1289 30.3311" stroke="#F9F7E7" stroke-width="0.75" stroke-miterlimit="10" stroke-linecap="round" stroke-linejoin="round"/>
<path d="M7.93896 32.2612L10.678 35.233" stroke="#F9F7E7" stroke-width="0.75" stroke-miterlimit="10" stroke-linecap="round" stroke-linejoin="round"/>
<path d="M10.4908 32.4648L8.22009 34.9796" stroke="#F9F7E7" stroke-width="0.75" stroke-miterlimit="10" stroke-linecap="round" stroke-linejoin="round"/>
<path d="M13.0011 32.7695L15.7051 35.6084" stroke="#F9F7E7" stroke-width="0.75" stroke-miterlimit="10" stroke-linecap="round" stroke-linejoin="round"/>
<path d="M15.6409 32.897L13.2648 35.4944" stroke="#F9F7E7" stroke-width="0.75" stroke-miterlimit="10" stroke-linecap="round" stroke-linejoin="round"/>
<path d="M18.3206 32.771L20.8145 35.3991" stroke="#F9F7E7" stroke-width="0.75" stroke-miterlimit="10" stroke-linecap="round" stroke-linejoin="round"/>
<path d="M20.8258 32.77L18.4149 35.4879" stroke="#F9F7E7" stroke-width="0.75" stroke-miterlimit="10" stroke-linecap="round" stroke-linejoin="round"/>
<path d="M22.1958 32.5415L24.5835 35.1324" stroke="#F9F7E7" stroke-width="0.75" stroke-miterlimit="10" stroke-linecap="round" stroke-linejoin="round"/>
<path d="M24.8174 32.3638L22.0784 35.3356" stroke="#F9F7E7" stroke-width="0.75" stroke-miterlimit="10" stroke-linecap="round" stroke-linejoin="round"/>
<path d="M13.4649 27.8018C13.6502 27.0528 13.1664 26.0808 12.4961 25.8118C11.826 25.5427 11.0862 25.6309 10.373 25.6771C9.3877 25.741 8.29424 25.6747 7.58034 24.9348C6.85046 24.1784 6.7849 22.7916 7.43986 21.9582C8.09481 21.1248 9.36709 20.9759 10.1707 21.6384" stroke="#F9F7E7" stroke-width="0.75" stroke-miterlimit="10" stroke-linecap="round" stroke-linejoin="round"/>
<path d="M14.5677 16.638C15.6767 16.2377 17.02 16.9196 17.4474 18.1C17.6908 18.7719 17.7489 19.6648 18.3636 19.9407C18.9419 20.2003 19.5528 19.6898 20.1699 19.577C20.93 19.4382 21.7229 19.9797 22.0166 20.7528C22.3102 21.526 22.1341 22.4586 21.6524 23.1113C21.1706 23.7639 20.4189 24.1461 19.6529 24.2374C19.1269 24.3 18.4418 24.0842 18.4038 23.5115C18.3742 23.064 18.7761 22.7306 19.1548 22.5505" stroke="#F9F7E7" stroke-width="0.75" stroke-miterlimit="10" stroke-linecap="round" stroke-linejoin="round"/>
<path d="M22.1029 27.5773C22.2088 27.3219 22.403 26.825 22.4254 26.5459C22.4479 26.2669 22.3696 25.9622 22.164 25.7926C21.5973 25.3252 20.7405 26.2102 20.105 25.8622C19.9473 25.7759 19.8287 25.6216 19.7424 25.4544C19.5752 25.1305 19.5152 24.743 19.576 24.3774" stroke="#F9F7E7" stroke-width="0.75" stroke-miterlimit="10" stroke-linecap="round" stroke-linejoin="round"/>
<path d="M7.89391 21.4329C6.95866 21.0417 6.58044 19.5192 6.94691 18.507C7.31337 17.4945 8.16298 16.789 9.0235 16.2313C9.884 15.6736 10.8111 15.1959 11.51 14.4161C12.526 13.2825 12.9198 11.6774 13.5506 10.2519C13.8281 9.62495 14.1564 9.02476 14.5303 8.46004C14.7071 8.19322 14.8987 7.9297 15.1502 7.7464C15.8231 7.25617 16.8082 7.4962 17.3446 8.15531C17.8811 8.81446 18.0078 9.78387 17.8252 10.6407C17.6427 11.4974 17.1871 12.2574 16.6711 12.9354C16.2508 13.4877 15.7759 14.0153 15.5322 14.6811C15.2885 15.3469 15.3367 15.8519 15.6645 16.5632" stroke="#F9F7E7" stroke-width="0.75" stroke-miterlimit="10" stroke-linecap="round" stroke-linejoin="round"/>
<path d="M21.4275 7.58296C21.063 7.42535 20.7807 7.07352 20.6632 6.66734C20.5823 6.38812 20.5816 6.06308 20.7376 5.82436C20.826 5.68925 20.9559 5.59354 21.0586 5.47084C21.3551 5.11624 21.3856 4.59607 21.4281 4.11969C21.5504 2.75059 21.9823 1.28023 23.0601 0.556231C23.2457 0.431499 23.4686 0.33042 23.6784 0.396206C23.8634 0.454227 23.9955 0.62959 24.0946 0.80865C24.473 1.49144 24.5313 2.3714 24.2467 3.10574C24.072 3.55682 23.7793 3.94876 23.6304 4.41071C23.4628 4.93145 23.4906 5.49911 23.4165 6.04462C23.2847 7.0164 22.407 8.00651 21.4275 7.58296Z" stroke="#F9F7E7" stroke-width="0.75" stroke-miterlimit="10" stroke-linecap="round" stroke-linejoin="round"/>
<path d="M13.7208 18.8237C13.4267 19.4699 13.5691 20.317 14.0544 20.8089C13.6387 20.7801 13.2148 20.7646 12.8123 20.8804C12.4097 20.9963 12.0255 21.2626 11.8431 21.6687C11.6609 22.0751 11.7328 22.6267 12.0694 22.8927C12.2736 23.0543 12.5386 23.0938 12.7913 23.0945C13.2244 23.096 13.6576 22.9977 14.0537 22.808" stroke="#F9F7E7" stroke-width="0.75" stroke-miterlimit="10" stroke-linecap="round" stroke-linejoin="round"/>
<path d="M16.3519 23.5615C16.1434 24.0135 16.2832 24.6202 16.6632 24.9125C16.8861 25.084 17.163 25.1474 17.4099 25.2745C17.6569 25.4017 17.8946 25.6378 17.8907 25.9344C17.8859 26.2923 17.5431 26.5278 17.227 26.6299C16.911 26.7321 16.5544 26.7866 16.3326 27.0514C16.1966 27.2139 16.1494 27.6258 16.1797 27.8427" stroke="#F9F7E7" stroke-width="0.75" stroke-miterlimit="10" stroke-linecap="round" stroke-linejoin="round"/>
<path d="M15.2228 11.8892C15.2121 12.8866 14.8364 13.8651 14.2276 14.6126C13.6188 15.36 12.7864 15.8787 11.8959 16.1267C11.6322 16.2001 11.358 16.2527 11.1213 16.3989C10.7921 16.6022 10.5637 16.9862 10.5288 17.3953C10.4939 17.8044 10.6533 18.2276 10.9425 18.4929" stroke="#F9F7E7" stroke-width="0.75" stroke-miterlimit="10" stroke-linecap="round" stroke-linejoin="round"/>
<path d="M18.3641 19.9407C18.3641 19.9407 25.0987 8.53574 28.6804 7.1639C32.2622 5.79221 23.4132 27.511 23.4132 27.511" stroke="#F9F7E7" stroke-width="0.75" stroke-miterlimit="10" stroke-linecap="round" stroke-linejoin="round"/>
<path d="M2.27159 25.3486C2.31353 25.5422 2.36824 25.7534 2.43979 25.968C2.64691 26.5891 3.00244 27.2603 3.60508 27.5963C3.47093 27.6483 3.32255 27.7254 3.17348 27.8396C2.78575 28.1368 2.40963 28.6723 2.25298 29.6199C2.20537 29.4403 2.14565 29.245 2.07077 29.0466C1.84186 28.4399 1.46419 27.7804 0.854492 27.4581C0.998136 27.3936 1.16291 27.2979 1.33008 27.1544C1.70523 26.8321 2.08169 26.281 2.27159 25.3486Z" fill="#F9F7E7" stroke="#F9F7E7" stroke-width="0.75"/>
<path d="M22.4048 10.8184C22.4467 11.0119 22.5014 11.2231 22.573 11.4377C22.7801 12.0589 23.1356 12.73 23.7383 13.066C23.6041 13.1181 23.4557 13.1951 23.3066 13.3093C22.9189 13.6065 22.5428 14.142 22.3861 15.0895C22.3385 14.91 22.2788 14.7148 22.2039 14.5164C21.975 13.9097 21.5973 13.2501 20.9877 12.9278C21.1313 12.8634 21.2961 12.7677 21.4632 12.6241C21.8384 12.3018 22.2149 11.7507 22.4048 10.8184Z" fill="#F9F7E7" stroke="#F9F7E7" stroke-width="0.75"/>
<path d="M29.521 33.7817C29.563 33.9753 29.6177 34.1864 29.6892 34.4011C29.8964 35.0222 30.252 35.6936 30.8545 36.0295C30.7204 36.0816 30.5719 36.1586 30.423 36.2727C30.0352 36.5698 29.659 37.1053 29.5024 38.0529C29.4549 37.8733 29.395 37.6782 29.3203 37.4799C29.0914 36.8731 28.7135 36.2136 28.104 35.8913C28.2475 35.8268 28.4123 35.731 28.5796 35.5874C28.9548 35.2654 29.3312 34.7142 29.521 33.7817Z" fill="#F9F7E7" stroke="#F9F7E7" stroke-width="0.75"/>
<path d="M8.92154 22.5171C8.46822 22.8445 8.5699 23.6641 8.98831 24.0423C9.40671 24.4206 9.99577 24.4673 10.5402 24.4529C11.1141 24.4378 11.689 24.3742 12.2611 24.4258C12.8331 24.4773 13.4155 24.656 13.8485 25.0649C14.4684 25.6503 14.6285 26.9342 14.6428 27.8258" stroke="#F9F7E7" stroke-width="0.75" stroke-miterlimit="10" stroke-linecap="round" stroke-linejoin="round"/>
<path d="M8.86781 21.1329C8.51479 20.8489 8.30736 20.2032 8.25849 19.7294C8.17487 18.9208 8.63943 18.0821 9.33663 17.7827" stroke="#F9F7E7" stroke-width="0.75" stroke-miterlimit="10" stroke-linecap="round" stroke-linejoin="round"/>
<path d="M14.4122 17.8823C15.0616 17.8139 15.7322 18.2036 16.0396 18.828C16.1939 19.1416 16.2608 19.4995 16.4217 19.809C16.6705 20.2873 17.1288 20.6084 17.6158 20.7574C18.103 20.9063 18.6195 20.8991 19.1229 20.8429C19.4409 20.8075 19.768 20.7535 20.0756 20.8477C20.6333 21.0187 20.9972 21.7251 20.8394 22.3301C20.6817 22.9351 20.0306 23.3298 19.4731 23.1585" stroke="#F9F7E7" stroke-width="0.75" stroke-miterlimit="10" stroke-linecap="round" stroke-linejoin="round"/>
<path d="M17.3201 23.627C17.35 24.0377 17.6474 24.3624 17.9497 24.6117C18.2519 24.861 18.5903 25.0903 18.7715 25.4523C18.9915 25.8921 18.9125 26.4845 18.5864 26.8386C18.4042 27.0363 18.1819 27.5637 18.2715 27.8261" stroke="#F9F7E7" stroke-width="0.75" stroke-miterlimit="10" stroke-linecap="round" stroke-linejoin="round"/>
<path d="M12.1307 18.5934C12.057 18.3242 11.8225 18.1155 11.8087 17.835C11.7941 17.5368 12.0437 17.2938 12.3045 17.1979C12.5652 17.102 12.8484 17.1049 13.1144 17.0284C13.3805 16.9519 13.6513 16.7562 13.6922 16.4609" stroke="#F9F7E7" stroke-width="0.75" stroke-miterlimit="10" stroke-linecap="round" stroke-linejoin="round"/>
<path d="M30.3658 6.93604C30.3658 6.93604 31.2786 8.80313 28.4343 16.3094" stroke="#F9F7E7" stroke-width="0.75" stroke-miterlimit="10" stroke-linecap="round" stroke-linejoin="round"/>
<path d="M21.4014 6.47832C21.4612 6.66293 21.6733 6.74996 21.8486 6.70414C22.0238 6.65829 22.1623 6.51085 22.2624 6.34806C22.7845 5.49857 22.4415 4.26493 22.9647 3.41638C23.0984 3.19945 23.2809 3.02352 23.4318 2.82027C23.5827 2.61699 23.7058 2.36809 23.6861 2.10791" stroke="#F9F7E7" stroke-width="0.75" stroke-miterlimit="10" stroke-linecap="round" stroke-linejoin="round"/>
<path d="M26.4664 8.80469C26.577 9.38677 26.9057 9.91637 27.3608 10.2468C27.8161 10.5771 28.3924 10.7045 28.9304 10.5934C28.9693 10.5853 29.2212 10.5058 29.1954 10.4733" stroke="#F9F7E7" stroke-width="0.75" stroke-miterlimit="10" stroke-linecap="round" stroke-linejoin="round"/>
<path d="M25.4054 9.89746C25.6479 10.6181 26.1295 11.241 26.7417 11.6252C27.3537 12.0094 28.0913 12.152 28.7882 12.0209" stroke="#F9F7E7" stroke-width="0.75" stroke-miterlimit="10" stroke-linecap="round" stroke-linejoin="round"/>
<path d="M7.45214 24.9897C7.0952 25.0903 6.36821 25.3005 6.03783 25.4783C5.70744 25.6561 5.40467 25.9181 5.23113 26.2711C5.1586 26.4185 5.11158 26.6038 5.18908 26.7482" stroke="#F9F7E7" stroke-width="0.75" stroke-miterlimit="10" stroke-linecap="round" stroke-linejoin="round"/>
<path d="M24.5217 24.7051C25.1827 24.8572 26.3017 25.2929 26.8917 25.6501C26.9805 25.7039 27.0691 25.7606 27.1418 25.838C27.3564 26.0673 27.3811 26.4744 27.1963 26.7324" stroke="#F9F7E7" stroke-width="0.75" stroke-miterlimit="10" stroke-linecap="round" stroke-linejoin="round"/>
</svg>
