<svg width="31" height="32" viewBox="0 0 31 32" fill="none" xmlns="http://www.w3.org/2000/svg">
<path d="M13.3324 12.656C15.8186 12.656 17.8324 9.14226 17.8324 6.65601V2.15601C17.8324 2.15601 16.3324 0.656006 13.3324 0.656006C10.3324 0.656006 8.83237 2.15601 8.83237 2.15601V6.65601C8.83237 9.14226 10.8461 12.656 13.3324 12.656ZM13.3324 12.656V10.406M16.3324 6.65601C16.3324 6.65601 16.3324 8.15601 15.5824 8.15601H14.0824L13.3324 7.40601L12.5824 8.15601H11.0824C10.3324 8.15601 10.3324 6.65601 10.3324 6.65601M10.3324 4.59351L11.4574 4.21851L12.5824 4.59351M14.0824 4.59351L15.2074 4.21851L16.3324 4.59351M23.8324 2.15601V18.656H21.5824C21.3835 18.656 21.1927 18.735 21.052 18.8757C20.9114 19.0163 20.8324 19.2071 20.8324 19.406V20.906C20.8324 21.1049 20.9114 21.2957 21.052 21.4363C21.1927 21.577 21.3835 21.656 21.5824 21.656H22.3324M23.8324 23.156V30.656M23.8324 3.65601C25.3324 3.65601 26.8324 0.656006 26.8324 0.656006C28.7083 2.70977 29.7744 5.37503 29.8324 8.15601C29.7744 10.937 28.7083 13.6022 26.8324 15.656C26.8324 15.656 25.3324 12.656 23.8324 12.656M8.83237 11.156C5.83237 11.156 4.33237 12.656 4.33237 12.656C4.33237 12.656 8.83237 12.656 8.83237 15.656C13.3324 14.156 13.3324 18.656 13.3324 18.656C13.3324 18.656 13.3324 14.156 17.8324 15.656C17.8324 12.656 22.3324 12.656 22.3324 12.656C22.3324 12.656 20.8324 11.156 17.8324 11.156M10.5724 20.156C10.5724 20.156 4.57238 20.156 6.07238 15.656M16.0924 20.156C16.0924 20.156 22.0924 20.156 20.5924 15.656M7.33237 20.156V23.156C7.33237 23.156 7.33237 27.656 13.3324 27.656C19.3324 27.656 19.3324 23.156 19.3324 23.156V20.156M4.33239 14.156C-0.167611 17.156 -1.66761 26.156 4.33239 29.156M5.83237 26.156C2.83237 23.156 4.33237 20.156 4.33237 20.156M14.8324 29.156H16.3324M16.3324 29.156C16.7302 29.156 17.1117 28.998 17.393 28.7167C17.6743 28.4354 17.8324 28.0538 17.8324 27.656M16.3324 29.156H17.8324C18.2302 29.156 18.6117 29.314 18.893 29.5953C19.1743 29.8766 19.3324 30.2582 19.3324 30.656M23.8324 11.156C24.2302 11.156 24.6117 10.998 24.893 10.7167C25.1743 10.4354 25.3324 10.0538 25.3324 9.65601V6.65601C25.3324 6.25818 25.1743 5.87665 24.893 5.59535C24.6117 5.31404 24.2302 5.15601 23.8324 5.15601M8.45737 17.906H9.20737M18.2074 17.906H17.4574M14.8324 21.656L11.8324 24.656M14.8324 24.656L11.8324 21.656M23.0824 18.656H24.5824C24.9966 18.656 25.3324 18.9918 25.3324 19.406V22.406C25.3324 22.8202 24.9966 23.156 24.5824 23.156H23.0824C22.6682 23.156 22.3324 22.8202 22.3324 22.406V19.406C22.3324 18.9918 22.6682 18.656 23.0824 18.656ZM5.08237 26.156H6.58237C6.99658 26.156 7.33237 26.4918 7.33237 26.906V29.906C7.33237 30.3202 6.99658 30.656 6.58237 30.656H5.08237C4.66815 30.656 4.33237 30.3202 4.33237 29.906V26.906C4.33237 26.4918 4.66815 26.156 5.08237 26.156Z" stroke="#F9F7E7" stroke-width="0.75"/>
</svg>
