<svg width="52" height="45" viewBox="0 0 52 45" fill="none" xmlns="http://www.w3.org/2000/svg">
<path d="M2.60742 15.6562L2.72681 15.6818L2.84621 15.7074L2.79717 15.2298C2.76306 14.91 2.99546 14.6221 3.3174 14.588C3.4368 14.5752 3.55619 14.6008 3.66066 14.6584L5.69467 15.7863C6.0891 16.0059 6.58801 15.863 6.80761 15.4686C6.82041 15.443 6.8332 15.4174 6.84599 15.3918L7.00376 15.0208L7.12103 14.7458L7.12743 14.7287L7.23829 14.4708L7.93548 12.8333C8.06128 12.537 8.40454 12.3984 8.7009 12.5242C8.73928 12.5412 8.77552 12.5604 8.81177 12.586L11.0547 14.1787C11.4236 14.4409 11.9331 14.3535 12.1954 13.9846C12.2188 13.9505 12.2402 13.9164 12.2593 13.878L13.5045 11.4155C13.6495 11.1277 14.0012 11.0125 14.2891 11.1575C14.3232 11.1746 14.3552 11.1959 14.3872 11.2193L16.5576 12.925C16.9137 13.2043 17.4275 13.1425 17.7068 12.7864C17.7324 12.7523 17.7558 12.7182 17.7772 12.6798L18.905 10.6607L19.0415 10.4198C18.9924 10.9358 18.9498 11.4411 18.9072 11.9272C18.8496 12.6073 18.7942 13.2512 18.7323 13.8375L18.7046 14.0976L18.9605 14.1509C18.9711 14.1509 19.0244 14.1637 19.1182 14.1765C19.1886 14.1872 19.2845 14.1979 19.4082 14.2106C19.4914 14.2192 19.5894 14.2277 19.6982 14.2341C19.9753 14.2533 20.3357 14.2682 20.7877 14.2682C21.8004 14.2682 23.2758 14.1979 25.3162 13.9441C25.5379 13.9164 25.7511 13.8866 25.9579 13.8589C28.2244 13.5412 29.6998 13.1339 30.6101 12.8035C30.7487 12.7544 30.8703 12.7075 30.9833 12.6606C31.1432 12.5967 31.2796 12.5348 31.3926 12.4815L31.4587 12.5114L31.4374 12.4602C31.5888 12.3898 31.7338 12.3088 31.8723 12.2193L32.0557 12.0871L31.9704 11.876C31.7465 11.3195 31.5141 10.7055 31.269 10.0574C31.0813 9.56484 30.8831 9.05101 30.6826 8.52865C30.8404 8.52865 30.9918 8.59261 31.1005 8.70775L32.8872 10.5712C33.2006 10.8974 33.7187 10.9081 34.0449 10.5968C34.0876 10.5563 34.1238 10.5115 34.1579 10.4624L35.5971 8.32824C35.7783 8.0596 36.145 7.98924 36.4137 8.17046C36.452 8.19605 36.4883 8.22803 36.5203 8.26427L38.2494 10.1831C38.55 10.5179 39.066 10.5456 39.4007 10.245C39.4434 10.2066 39.4796 10.1661 39.5137 10.1192L41.0339 8.04467C41.2258 7.78456 41.5925 7.73125 41.8505 7.92101C41.891 7.95086 41.9251 7.98497 41.9571 8.02335L43.2854 9.67358L43.4708 9.90384L43.5583 10.0126C43.8546 10.3793 44.3898 10.4369 44.7565 10.1426C44.7927 10.1149 44.8247 10.0829 44.8567 10.0488L45.5219 9.30686L45.9931 8.78237L45.9995 8.77597L46.3769 8.35382C46.5773 8.13209 46.912 8.09158 47.1572 8.26214L47.1657 8.26854C47.2468 8.3261 47.3107 8.40286 47.3534 8.49241L47.944 9.67784L48.0484 9.62881L48.155 9.57977C48.688 9.33884 49.2019 9.05528 49.6901 8.73333C50.3361 8.28773 50.5899 7.92314 50.5536 7.66516C50.5472 7.62465 50.5344 7.58627 50.5174 7.55003C50.4897 7.49673 50.4534 7.44769 50.4129 7.40505C50.3468 7.33682 50.2722 7.27499 50.1912 7.22595C50.0504 7.1364 49.9033 7.05965 49.7498 6.99569C48.7222 6.56714 46.6391 6.19616 43.0807 6.12153C42.6393 6.11301 42.1852 6.10874 41.7183 6.10874C38.3155 6.10874 34.288 6.35393 29.9812 6.81872C29.9727 6.7974 29.962 6.77608 29.9535 6.75476L29.8767 6.5778C29.8618 6.54369 29.8469 6.51171 29.8341 6.47759L29.8277 6.4648C29.8106 6.42855 29.7936 6.38804 29.7786 6.3518L29.7125 6.19829C29.704 6.18123 29.6955 6.16204 29.6891 6.14499C28.1838 2.7294 26.2373 -0.338665 23.5807 0.0301842C22.3355 0.205015 21.4465 1.06637 20.7983 2.31791C20.0393 3.67817 19.5788 5.60557 19.2696 7.63318L19.163 8.36022C14.7176 9.15975 10.6688 10.1021 7.41526 11.1042C3.99967 12.1553 2.09785 13.087 1.23223 13.7821C1.10643 13.8802 0.991302 13.9889 0.88683 14.1062C0.852716 14.1445 0.824999 14.1829 0.799414 14.2149C0.74398 14.2874 0.701339 14.3684 0.67149 14.4558C0.652301 14.5134 0.645905 14.5752 0.652301 14.6371C0.697075 14.9782 1.28126 15.3556 2.60742 15.6562ZM19.4786 11.9762C19.4956 11.7715 19.5148 11.5605 19.5319 11.3494C19.5724 10.9017 19.6129 10.439 19.6598 9.97207L19.6704 9.85481L19.6811 9.73754C19.7323 9.24077 19.7877 8.7376 19.8517 8.23869L19.8602 8.1662C19.8666 8.11076 19.873 8.05746 19.8815 8.00203L19.8986 7.88263V7.86558C19.9028 7.83146 19.9071 7.79735 19.9135 7.7611C19.922 7.69501 19.9327 7.63105 19.9412 7.56495C19.9412 7.54576 19.9476 7.52871 19.9498 7.50952C20.1672 6.02133 20.4678 4.58431 20.922 3.41166C20.9561 3.33917 20.9753 3.30079 20.9753 3.30079C21.0968 2.95753 21.3271 2.58442 21.6448 2.39892C22.3952 1.95758 23.1074 2.85732 23.3803 3.45644C23.8237 4.4308 24.0007 5.5608 24.1691 6.61191C24.1819 6.68867 24.1905 6.76116 24.2032 6.83578C24.2032 6.85497 24.2096 6.87203 24.2118 6.88908C24.2246 6.96584 24.2352 7.04259 24.2459 7.11935C24.2459 7.1364 24.2523 7.15559 24.2544 7.17478L24.2629 7.23661C24.2693 7.27499 24.2736 7.31337 24.28 7.35174L24.2971 7.46261C24.2971 7.48393 24.3035 7.50739 24.3056 7.53084C24.3887 8.13848 24.4591 8.75039 24.5209 9.36016C24.5273 9.42413 24.5337 9.48596 24.5401 9.54992C24.5465 9.61388 24.5529 9.67571 24.5593 9.73967C24.5636 9.78018 24.5678 9.82069 24.5721 9.8612C24.6126 10.2897 24.651 10.7204 24.6851 11.1511L24.8173 11.1362C25.587 11.0424 26.3822 10.9166 27.169 10.7588L27.3076 10.7311L27.444 10.7034C27.9429 10.5989 28.4354 10.4795 28.9151 10.3431L29.0857 10.294L29.2541 10.245C29.6592 10.1234 30.0515 9.99126 30.4311 9.84628L30.5483 9.8015C30.608 9.95501 30.6656 10.1085 30.7231 10.2599L30.8234 10.5221L30.7978 10.5328L30.7082 10.5669C30.6208 10.601 30.5334 10.633 30.446 10.665C29.8064 10.8931 29.1561 11.0893 28.4973 11.2492C28.3565 11.2833 28.2158 11.3153 28.0751 11.3494C27.4547 11.4922 26.8236 11.6159 26.1946 11.7182C25.7533 11.7907 25.3141 11.8526 24.8812 11.9059L24.7469 11.9208C24.2224 11.9826 23.7107 12.0317 23.2182 12.07C22.7513 12.1063 22.3036 12.1297 21.8835 12.1468L21.6021 12.1575H21.5211L21.2141 12.1638H20.745C20.2461 12.1638 19.8112 12.1468 19.4658 12.1169C19.4743 12.0722 19.4764 12.0253 19.4828 11.9805L19.4786 11.9762ZM19.3357 13.5668C19.3464 13.4602 19.357 13.3535 19.3656 13.2448C19.3741 13.1361 19.3869 13.0082 19.3975 12.8866C19.4807 12.893 19.5681 12.8994 19.6577 12.9058H19.6875L19.8666 12.9143H19.9092C20.0627 12.9207 20.2333 12.925 20.4103 12.9293H20.745C20.9177 12.9293 21.0989 12.9293 21.2844 12.9229C22.2972 12.9015 23.5103 12.8248 24.796 12.6734L24.9346 12.6564C25.3844 12.6009 25.8407 12.537 26.3012 12.4623C26.5635 12.4197 26.83 12.3728 27.0943 12.3238C27.4206 12.2619 27.7468 12.1958 28.0708 12.1255C28.3821 12.0572 28.6913 11.9826 28.994 11.9016C29.6678 11.7289 30.333 11.5221 30.9854 11.2812L31.1027 11.2364C31.1837 11.4475 31.2626 11.6521 31.3415 11.8526C31.3073 11.8696 31.269 11.8909 31.2263 11.9101C31.0728 11.9869 30.8596 12.0828 30.5718 12.1894C30.4055 12.2534 30.2114 12.3195 29.994 12.392C29.8341 12.4431 29.6571 12.4965 29.4674 12.5519C28.3608 12.8568 27.2351 13.087 26.0965 13.2448C25.8236 13.2832 25.5401 13.3216 25.2416 13.3599L24.9836 13.3898L24.8365 13.4068C22.6276 13.6648 21.1373 13.6947 20.2248 13.667C20.0755 13.6627 19.9391 13.6563 19.8197 13.6499C19.7003 13.6435 19.6129 13.6371 19.5276 13.6286L19.3272 13.6094L19.3314 13.5604L19.3357 13.5668Z" fill="#F9F7E7"/>
<path d="M35.4949 21.4939C35.384 21.545 35.2817 21.6133 35.19 21.6943C34.7956 21.9949 34.4736 22.449 33.9854 22.464H33.9427C33.3265 22.464 32.7232 22.0482 32.1283 21.9352C31.9833 21.9075 31.8362 21.8926 31.687 21.8926C31.5889 21.8926 31.4908 21.899 31.3928 21.9118C31.2968 21.9245 31.203 21.9416 31.1092 21.9629C31.0132 21.9864 30.9173 22.0162 30.8235 22.0482C30.2798 22.2508 29.8022 22.6047 29.4483 23.0652L29.2074 22.9735C28.8279 22.8264 28.4228 22.7518 28.0155 22.7497C27.5806 22.7497 27.152 22.8392 26.7555 23.0162C26.7 23.0418 26.6467 23.0673 26.5913 23.0929C26.2694 23.2614 25.9687 23.4682 25.6958 23.7091C25.4293 23.9394 25.2055 24.2357 24.8238 24.257H24.7833C24.4571 24.257 24.1671 24.0374 23.9134 23.8519C23.7919 23.7624 23.4806 23.417 23.2972 23.417C23.2887 23.417 23.2802 23.417 23.2717 23.417C22.9348 23.4831 23.0947 24.5769 23.1437 24.7901C23.2738 25.3572 23.5659 25.8753 23.9838 26.2804C24.5722 26.8411 25.3547 27.1481 26.167 27.1396C27.0028 27.1353 27.813 26.8518 28.4697 26.3337C28.8279 26.0523 29.1264 25.7026 29.346 25.3039C29.4803 25.0566 29.5272 24.7176 29.7084 24.5086C29.7233 24.4894 29.7404 24.4745 29.7617 24.4617C29.7894 24.4489 29.8171 24.4425 29.847 24.4425C30.1817 24.4425 30.8192 25.1483 31.6337 25.3892C31.7467 25.4233 31.8512 25.451 31.9492 25.4745C32.0878 25.5086 32.2157 25.532 32.3351 25.5512C32.4567 25.5704 32.5803 25.5832 32.704 25.5875H32.7914C33.0579 25.5832 33.3223 25.5384 33.576 25.4553C34.8574 25.1184 35.885 23.6856 35.8637 22.2891C35.8637 22.1036 35.8531 21.4789 35.578 21.4789C35.5503 21.4789 35.5205 21.4832 35.4949 21.4917V21.4939Z" fill="#F9F7E7"/>
<path d="M51.1934 8.07666C51.1273 8.25149 51.0335 8.41353 50.9141 8.55638C50.8394 8.65019 50.7605 8.73974 50.6753 8.82289C50.6539 8.84421 50.6284 8.86766 50.6049 8.88898C49.5858 9.83349 47.3769 10.8313 43.9997 11.8718C40.7718 12.8653 36.772 13.797 32.3842 14.5944L32.0665 14.652L31.7509 14.7074C29.96 15.023 28.1093 15.3151 26.2224 15.5794C26.0263 15.6072 25.8323 15.6327 25.6361 15.6562C23.4806 15.9504 21.3656 16.1956 19.3252 16.3854L19.0288 16.4131L18.7324 16.4408C15.368 16.7436 12.2253 16.9035 9.48136 16.9035C9.0123 16.9035 8.5539 16.8992 8.1083 16.8907C4.44752 16.8139 2.00842 16.4365 0.81019 15.7649C0.842171 15.8587 0.878417 15.9504 0.914662 16.0421C0.876285 15.9504 0.837907 15.8566 0.805926 15.7628C0.671605 15.6882 0.54368 15.6029 0.426416 15.5048C0.232397 15.3556 0.0852832 15.153 0 14.9249C0.560737 18.2467 3.46463 20.3894 8.64345 21.2849C10.5261 21.6132 12.6987 21.7753 15.1591 21.7753C16.3147 21.7753 17.53 21.739 18.8092 21.6665C19.7921 28.0415 23.7258 34.6935 30.8597 35.9834C37.9915 37.267 44.9208 32.8898 46.8247 25.8987C46.8674 25.7452 46.7778 25.5853 46.6243 25.5427C46.5028 25.5085 46.3749 25.5576 46.3045 25.662C43.7844 29.406 38.7058 30.3995 34.9618 27.8794C34.2177 27.3784 33.5632 26.7601 33.0195 26.048C32.947 26.0544 32.866 26.0586 32.785 26.0586H32.6677C32.5398 26.0522 32.414 26.0416 32.2882 26.0224C32.0217 25.9819 31.7573 25.9222 31.4993 25.8433C30.9898 25.6898 30.5655 25.4019 30.2244 25.1695C30.1476 25.1141 30.0495 25.0501 29.9685 24.999C29.9514 25.0437 29.9344 25.0928 29.9173 25.1376C29.8747 25.274 29.8193 25.4041 29.7532 25.532C29.5037 25.9819 29.169 26.3784 28.7639 26.6982C29.5016 27.5617 30.3651 28.3101 31.3245 28.9177C33.2476 30.1245 35.497 30.7087 37.7655 30.5893C39.5522 30.4933 41.4604 30.003 43.0531 29.1054C44.0679 28.6576 44.989 28.0223 45.7672 27.2313C43.3921 33.1201 37.2112 36.5357 30.9599 35.412C24.1287 34.1797 20.3486 27.7856 19.3849 21.6346C21.4146 21.5045 23.5936 21.287 25.9176 20.9821C26.0497 21.5535 26.2182 22.1185 26.4186 22.6707C26.4655 22.6473 26.5124 22.626 26.5593 22.6046C27.0156 22.4 27.5102 22.2955 28.0113 22.2976C28.4526 22.2976 28.8897 22.3765 29.3033 22.5279C29.7063 22.0908 30.2158 21.7667 30.783 21.5834C30.8768 21.5535 30.9748 21.5279 31.0708 21.5066C31.1667 21.4853 31.2605 21.4704 31.3565 21.4597C31.3373 21.0141 31.3565 20.5664 31.4098 20.1229C36.8295 19.1144 41.3304 17.7712 44.586 16.1764C49.1594 13.9356 51.3767 11.2172 51.1891 8.08732L51.1934 8.07666ZM31.5015 19.5067L31.203 19.5622L30.9024 19.6176C29.5975 19.8543 28.2394 20.0717 26.8322 20.2679C26.4868 20.3148 26.1436 20.3617 25.8046 20.4065C23.4955 20.7092 21.3315 20.9246 19.3102 21.0525L19.0181 21.0696L18.7303 21.0866C14.7988 21.3062 11.4557 21.1804 8.74366 20.7092C5.85682 20.2082 3.72261 19.3212 2.33676 18.0441L4.74174 17.2339C4.97841 17.1551 5.24065 17.2062 5.42827 17.3704L8.07205 19.6752C8.31724 19.8884 8.67756 19.9097 8.9462 19.7242L11.7584 17.7819C12.0036 17.6113 12.3319 17.6177 12.5707 17.7947L15.3275 19.8351C15.5834 20.0248 15.9352 20.0184 16.1846 19.8223L18.6003 17.9119L18.8732 17.6966C18.8732 17.6966 18.8945 17.6817 18.9051 17.6753C18.9947 17.6113 19.097 17.5708 19.2036 17.5538C19.3721 17.5282 19.5426 17.5644 19.6876 17.6561L22.5617 19.5025C22.8367 19.6794 23.1949 19.6475 23.4337 19.4257L25.5231 17.4813L25.9453 17.089C26.1563 16.8928 26.4655 16.8459 26.7256 16.9696L29.9792 18.5345C30.2585 18.6688 30.5932 18.607 30.8043 18.381L31.1241 18.0356L31.4759 17.6561L31.8298 17.2702L33.2626 15.7202C33.4587 15.5091 33.7636 15.4387 34.0322 15.5411L37.4095 16.8395C37.6994 16.9504 38.0278 16.863 38.2218 16.6199L40.4839 13.797C40.6651 13.5732 40.9636 13.4815 41.2387 13.5668L44.6926 14.6157C44.9933 14.7074 45.3195 14.5902 45.4922 14.3279L47.5134 11.2599C47.6498 11.053 47.8822 10.9336 48.1296 10.9443L49.9567 11.0253C49.0336 12.7289 47.1552 14.2789 44.3387 15.6562C41.1683 17.1977 36.7869 18.5111 31.5057 19.5046L31.5015 19.5067Z" fill="#F9F7E7"/>
<path d="M27.4526 45C34.0326 45 39.3667 43.8918 39.3667 42.5247C39.3667 41.1576 34.0326 40.0493 27.4526 40.0493C20.8727 40.0493 15.5386 41.1576 15.5386 42.5247C15.5386 43.8918 20.8727 45 27.4526 45Z" fill="#F9F7E7"/>
</svg>
