<svg width="200" height="53" viewBox="0 0 200 53" fill="none" xmlns="http://www.w3.org/2000/svg">
<path d="M53.3352 48.642L43.4701 38.9153C46.6729 35.1564 48.6011 30.3092 48.6011 25.0167V25.0079H44.7508V25.0167C44.7508 28.1172 43.9475 31.0326 42.5366 33.5719L33.8645 25.0211L47.5851 11.4925L50.7569 1.25195L40.3851 4.39101L26.6645 17.9196L12.9439 4.39276L2.57124 1.25195L5.7421 11.4916L19.4627 25.0202L10.7907 33.571C9.37886 31.0309 8.57551 28.1172 8.57551 25.0158V25.007H4.7253V25.0158C4.7253 30.311 6.65616 35.1607 9.8598 38.9188L0 48.642L2.72269 51.3269L12.5869 41.6011C16.2299 44.6068 20.8772 46.471 25.9604 46.6297V42.833C23.0818 42.7252 20.3759 41.9518 17.9942 40.669L26.6627 32.1216L35.3312 40.669C32.9504 41.9518 30.2446 42.7252 27.366 42.833V46.6297C32.4518 46.4719 37.1 44.606 40.743 41.5976L50.6099 51.3269L53.3334 48.642H53.3343H53.3352ZM41.2815 5.86145L46.4904 4.28491L29.6627 20.8772L27.8585 19.0981L41.2824 5.86145H41.2815ZM20.6478 26.2057L22.4467 27.9909L13.2893 37.0196C12.7118 36.3953 12.1804 35.7307 11.6968 35.0301L20.6478 26.2048V26.2057ZM7.23276 10.6095L5.63582 5.45285L38.844 38.1963C38.2063 38.7689 37.5278 39.2968 36.8122 39.7764L7.23276 10.6095Z" fill="#29100A"/>
<path d="M131.639 26.0681C131.345 26.127 131.13 26.1067 131.013 25.7756C130.954 25.6192 130.74 25.5024 130.583 25.4435C130.31 25.346 129.997 25.3064 129.724 25.2292C128.786 24.9753 128.219 24.3507 128.219 23.5504V3.79071C128.219 3.26363 128.434 2.81473 128.883 2.58017C129.353 2.3456 129.88 2.18922 130.388 2.03377C130.72 1.93626 131.13 1.93626 131.111 1.46713C131.092 0.978676 130.641 1.03755 130.329 0.978676C130.271 0.959359 130.192 0.978676 130.133 0.978676C129.117 1.01731 128.081 1.0955 127.065 1.11574C125.638 1.13505 124.212 1.13505 122.785 1.11574C121.867 1.09642 120.929 1.05687 120.01 1.01823C119.737 1.01823 119.443 0.959359 119.189 1.01823C119.033 1.0771 118.778 1.31075 118.798 1.44781C118.817 1.64282 119.013 1.87739 119.189 1.95558C119.462 2.0724 119.814 2.0724 120.127 2.16991C121.261 2.50198 121.69 3.08793 121.69 4.25893V23.0997C121.69 24.1934 121.026 25.013 119.952 25.2476C119.678 25.3064 119.405 25.3257 119.15 25.4426C118.994 25.5208 118.779 25.7553 118.799 25.8721C118.837 26.0478 119.033 26.2042 119.209 26.3017C119.307 26.3606 119.503 26.321 119.639 26.321C120.694 26.3017 121.73 26.2622 122.766 26.2429C122.923 26.2429 123.235 26.3799 123.235 26.4379C123.176 27.0625 123.627 27.102 124.037 27.1995C124.233 27.2584 124.448 27.297 124.643 27.3752C125.933 27.8434 127.008 28.8783 126.968 30.5386C126.89 33.4675 126.968 36.4157 126.93 39.3639C126.91 40.7887 126.793 42.2145 126.362 43.6008C125.483 46.3732 123.822 48.2286 120.793 48.5405C118.565 48.7548 116.768 48.0134 115.458 46.1782C114.129 44.3238 113.738 42.1759 113.679 39.9894C113.582 36.3964 113.66 32.8043 113.66 29.2122C113.66 28.2942 114.109 27.7091 114.97 27.4157C115.321 27.2989 115.674 27.2593 116.006 27.1232C116.182 27.045 116.416 26.9088 116.495 26.7322C116.631 26.4002 116.827 26.322 117.139 26.3413C117.335 26.3606 117.55 26.3413 117.765 26.3413C118.038 26.3413 118.351 26.322 118.39 25.9503C118.429 25.5594 118.136 25.5014 117.824 25.4426C116.339 25.1298 115.224 24.3295 114.522 22.9626C113.643 21.2636 112.763 19.5655 111.864 17.8665C109.832 13.981 107.799 10.0955 105.748 6.21089C105.103 4.98102 104.478 3.75116 103.735 2.57925C102.993 1.38802 101.859 0.782744 100.413 0.782744C98.2837 0.802062 96.1538 0.782744 94.0231 0.782744C93.8866 0.782744 93.7492 0.763427 93.632 0.802062C93.4955 0.88025 93.2999 0.977756 93.2806 1.09458C93.2409 1.23164 93.2999 1.44597 93.3977 1.56279C93.4955 1.67962 93.691 1.71917 93.8663 1.7578C95.3514 2.10919 96.6021 2.79266 97.3834 4.15958C98.4386 6.01403 99.4745 7.86941 100.491 9.74318C100.589 9.95751 100.647 10.2896 100.55 10.5048C99.6507 12.5745 98.791 14.6442 97.7948 16.6551C96.8373 18.6273 95.5672 20.4035 93.8276 21.7898C92.3619 22.9414 90.7403 23.2735 88.9619 22.7464C87.535 22.3169 86.441 21.3795 85.4245 20.3649C83.8804 18.803 82.6499 17.0258 81.6528 15.0545C81.1833 14.1567 81.3401 13.3951 82.1611 12.7898C82.708 12.3795 83.2753 11.9895 83.8417 11.5986C85.3074 10.583 86.4604 9.33384 87.2029 7.69371C88.2387 5.44832 87.7111 2.67583 85.9521 1.32915C84.1544 -0.0377779 82.102 -0.23279 79.9722 0.216106C78.2326 0.586812 76.8259 1.56371 75.6342 2.81289C74.5983 3.88638 73.7183 5.11716 72.7812 6.26884C72.7028 6.36634 72.605 6.46385 72.5275 6.56136C72.4888 6.56136 72.4491 6.54204 72.4104 6.52272C72.4104 5.78039 72.4298 5.03897 72.4104 4.29664C72.391 3.35929 72.0783 2.55901 71.3358 1.93442C70.7298 1.44597 70.0269 1.23164 69.265 1.21232C67.3307 1.17369 65.4149 1.15345 63.5 1.11482C63.4216 1.11482 63.3238 1.0955 63.2657 1.13413C63.1292 1.23164 62.8949 1.34846 62.8949 1.48552C62.8755 1.6419 63.0121 1.85623 63.1486 1.99329C63.2657 2.0908 63.4613 2.0908 63.6181 2.13035C65.1225 2.48174 66.2755 3.86798 66.2755 5.4106V23.2165C66.2755 24.1538 65.8263 24.7591 64.986 25.0912C64.5368 25.2669 64.0285 25.3644 63.5397 25.4821C63.1689 25.5603 63.0508 25.8335 63.1873 26.0874C63.2657 26.2438 63.5978 26.3606 63.8127 26.3606C66.0403 26.3413 68.2688 26.2824 70.4955 26.2824C71.8828 26.2824 73.2516 26.3413 74.638 26.3799C74.9313 26.3992 75.185 26.3017 75.2246 25.9503C75.2634 25.5989 75.0097 25.5208 74.7357 25.4619C74.3059 25.3451 73.8373 25.2476 73.4462 25.0516C72.6843 24.6607 72.5082 23.9579 72.5082 23.1576C72.5275 19.3116 72.5275 15.4454 72.5082 11.5995C72.4888 10.7017 72.5672 9.86184 73.0551 9.08087C73.2313 8.76812 73.3872 8.43697 73.5827 8.14353C74.5015 6.71865 75.6148 5.48787 77.1976 4.76577C78.2335 4.31688 79.1909 4.45302 80.0312 5.17603C81.8677 6.77752 82.1223 9.70547 80.5395 11.5608C79.9528 12.2443 79.2306 12.81 78.5268 13.396C77.9402 13.8844 77.2963 14.2938 76.6903 14.7629C75.6157 15.6027 75.4008 16.403 76.0843 17.574C76.7881 18.8039 77.5694 19.9758 78.3903 21.1275C80.0709 23.4704 82.0836 25.4233 84.6829 26.7111C84.7807 26.7699 84.8784 26.8674 85.015 26.965C84.7419 27.16 84.5261 27.297 84.3112 27.4332C82.3769 28.6823 80.8918 30.3225 79.8754 32.3922C78.5858 35.0083 78.2538 37.7808 78.5074 40.6507C78.703 42.9155 79.2693 45.0634 80.4417 47.0346C82.2395 50.061 84.9366 51.8768 88.3559 52.3257C90.2708 52.5989 92.3038 52.6385 94.238 52.2089C96.6224 51.6625 98.8888 50.8613 100.843 49.3196C101.39 48.8707 101.703 48.3436 101.684 47.6022C101.625 45.7082 101.605 43.7949 101.586 41.9008C101.566 40.866 102.035 40.1043 102.954 39.6555C103.188 39.5579 103.481 39.5579 103.696 39.4218C103.853 39.3243 103.99 39.0897 103.99 38.914C103.99 38.7972 103.736 38.582 103.579 38.5626C103.149 38.524 102.7 38.5626 102.27 38.582C100.609 38.6215 98.9478 38.6988 97.2875 38.6988C95.6272 38.6988 94.0047 38.6013 92.3628 38.5424C92.0307 38.5231 91.718 38.581 91.718 39.0106C91.6987 39.4016 92.0114 39.4209 92.3047 39.5184C92.9688 39.7327 93.6338 39.8891 94.2196 40.2212C94.904 40.6112 95.4122 41.2367 95.4122 42.1152C95.4316 44.5363 95.4122 46.9574 95.4316 49.3785C95.4316 49.7694 95.2757 49.9644 94.9427 50.1401C93.2815 50.9799 91.2688 50.4529 89.9396 49.418C88.3762 48.1881 87.38 46.5673 86.7159 44.7322C85.4061 41.1594 85.0934 37.5085 85.7584 33.7793C86.0517 32.0417 86.6771 30.4209 87.8107 29.0347C88.4361 28.2537 89.2183 27.7266 90.2339 27.4341C91.3675 27.102 92.4421 26.9852 93.5757 27.2777C95.569 27.7855 97.1316 28.9565 98.3833 30.5386C98.9496 31.2414 99.3407 32.0619 99.7899 32.8622C99.9458 33.1354 100.063 33.4086 100.435 33.3507C100.826 33.312 100.747 32.98 100.768 32.7068V32.3747C100.709 30.1882 100.631 27.9814 100.572 25.7949C100.553 25.7562 100.572 25.6974 100.553 25.6578C100.455 25.5014 100.338 25.2669 100.221 25.2476C100.064 25.2282 99.8499 25.3644 99.7125 25.4821C99.5953 25.5989 99.5759 25.7746 99.4782 25.9117C98.9893 26.5952 98.3058 26.4783 97.6223 26.3026C96.5477 26.0488 95.4722 25.8142 94.3976 25.5603C94.2998 25.541 94.1827 25.4628 94.0065 25.3846C97.7588 21.7143 99.908 17.2042 101.667 12.4402C101.706 12.4402 101.765 12.4596 101.901 12.3032C101.96 12.42 102.038 12.5571 102.097 12.6739C102.684 13.8062 103.25 14.9579 103.836 16.1105C105.028 18.4341 106.239 20.7577 107.412 23.1006C107.744 23.7445 107.646 24.1354 107.059 24.5843C106.825 24.7793 106.551 24.9357 106.258 25.0332C105.788 25.1896 105.3 25.2476 104.831 25.3653C104.42 25.4628 104.01 26.517 104.284 26.849C104.362 26.9466 104.538 27.0054 104.694 27.0441C105.202 27.2198 105.73 27.3173 106.218 27.5325C106.824 27.8057 107.117 28.2942 107.117 28.9776C107.137 32.6681 107.156 36.3577 107.215 40.0482C107.254 42.5668 107.685 45.0275 108.915 47.2526C110.635 50.3958 113.312 52.0948 116.908 52.2512C117.827 52.2898 118.725 52.2898 119.644 52.2512C120.367 52.2117 121.109 52.1537 121.813 51.978C124.334 51.3341 126.151 49.7712 127.383 47.5065C128.595 45.2418 129.044 42.7821 129.083 40.2635C129.142 36.9639 129.102 33.6643 129.102 30.3648C129.102 28.6272 130.079 27.4359 131.798 27.1039C132.189 27.0257 132.463 26.8693 132.404 26.4397C132.345 26.0101 131.974 26.0101 131.642 26.069L131.639 26.0681Z" fill="#29100A"/>
<path d="M171.216 42.9594C171.099 42.92 170.844 43.1152 170.746 43.2709C170.628 43.4065 170.628 43.6208 170.569 43.816C169.844 46.4818 168.158 48.3112 165.434 48.8562C163.729 49.2062 161.945 49.1091 160.181 49.1869C159.436 49.2254 159.417 49.1677 159.417 48.4275C159.417 42.0443 159.436 35.6418 159.417 29.2585C159.397 27.8184 160.004 27.2541 161.514 26.9426C161.887 26.8648 162.337 26.884 162.318 26.3783C162.278 25.814 161.789 25.9505 161.436 25.9505C158.966 25.9698 156.516 26.0284 154.047 26.0476C153.694 26.0476 153.321 25.989 152.968 25.9505C152.968 25.912 152.949 25.8534 152.949 25.814C154.596 25.3862 155.968 24.4903 157.261 23.4395C158.751 22.2138 159.907 20.7536 160.71 19.0222C161.827 16.6285 162.337 14.1184 162.24 11.4718C162.142 8.98102 161.632 6.60653 160.28 4.4858C157.948 0.826968 154.478 -0.593876 150.421 0.224186C148.01 0.710625 146.011 1.9565 144.502 3.94165C144.424 4.05799 144.385 4.17525 144.326 4.29159C144.267 4.27235 144.208 4.23296 144.169 4.19449C144.13 4.03875 144.052 3.86378 144.032 3.70805C143.914 1.97573 142.895 1.23646 141.563 1.04225C141.289 1.00377 141.014 0.96438 140.74 0.96438H135.115C134.781 0.983618 134.409 0.945142 134.349 1.43158C134.29 1.89878 134.664 1.93726 134.977 1.99589C136.604 2.28812 137.702 3.86378 137.681 5.32401C137.623 11.1036 137.623 16.9033 137.681 22.6829C137.681 24.2393 136.996 24.6286 135.859 25.0573C135.683 25.116 135.487 25.1544 135.291 25.1938C134.448 25.388 134.37 25.5053 134.429 26.3811C134.448 26.731 134.625 26.8675 134.978 26.9261C135.409 26.9848 135.82 27.0626 136.212 27.2184C136.918 27.5298 137.388 28.0163 137.388 28.8527V48.1582C137.388 48.9946 136.997 49.5598 136.252 49.8703C135.84 50.0261 135.409 50.0838 134.978 50.1818C134.665 50.2597 134.448 50.3962 134.448 50.7269C134.468 51.0576 134.703 51.1547 134.997 51.1547C135.781 51.1547 136.565 51.1355 137.349 51.1355H143.954C144.718 51.1355 145.483 51.1739 146.247 51.1355C146.424 51.1355 146.581 50.8826 146.757 50.7461C146.6 50.5711 146.443 50.376 146.268 50.2212C146.17 50.1433 146.013 50.202 145.876 50.1818C144.74 50.0655 143.916 49.2089 143.916 48.1389V28.8728C143.916 28.2499 144.151 27.7634 144.68 27.452C145.072 27.2184 145.523 27.0626 145.955 26.9655C146.346 26.8877 146.719 26.8492 146.935 26.4397C146.994 26.3234 147.249 26.2647 147.405 26.2647C148.091 26.2455 148.797 26.2263 149.503 26.2647C149.698 26.284 149.875 26.4791 150.071 26.5954C150.247 26.7118 150.423 26.8483 150.62 26.9261C151.11 27.1011 151.619 27.1982 152.09 27.4126C152.639 27.6654 152.913 28.1519 152.932 28.7556C152.972 29.8649 153.03 30.9542 153.03 32.0635C153.03 34.34 152.971 36.5981 152.952 38.8746C152.932 41.9297 152.932 45.0041 152.952 48.0602C152.971 48.8581 152.638 49.4224 151.913 49.7146C151.462 49.8896 150.973 50.0068 150.502 50.1039C150.149 50.1626 149.915 50.3174 149.915 50.6875C149.934 51.0768 150.228 51.1354 150.542 51.1547H151.169C153.952 51.1547 156.716 51.0961 159.499 51.1932C162.301 51.271 165.105 51.3095 167.907 51.0374C170.239 50.8038 171.18 49.7146 171.435 47.6314C171.592 46.425 171.592 45.1992 171.65 43.9928C171.67 43.7976 171.709 43.5842 171.631 43.4083C171.552 43.2333 171.396 43.019 171.22 42.9613L171.216 42.9594ZM149.911 24.1019C148.343 24.4518 146.775 24.5104 145.207 24.1605C144.384 23.9855 144.09 23.6154 144.09 22.7589V15.3643C144.09 13.1263 144.109 10.8883 144.09 8.65031C144.071 6.49019 145.207 5.10874 147.049 4.2522C148.52 3.5514 149.99 3.72637 151.381 4.60214C153.008 5.61441 153.949 7.1516 154.674 8.84452C155.634 11.0825 155.987 13.4176 155.831 15.8306C155.714 17.6206 155.301 19.3337 154.38 20.8901C153.381 22.6022 151.851 23.6539 149.912 24.101L149.911 24.1019Z" fill="#29100A"/>
<path d="M199.947 36.3921C199.792 34.215 199.308 32.1539 198.204 30.2874C196.15 26.8266 193.089 25.2525 189.099 25.6993C186.948 25.9523 185.05 26.8659 183.5 28.4209C183.035 28.8877 182.609 29.3738 182.086 29.9375C182.067 29.6652 182.047 29.5099 181.989 29.3546C181.815 27.7211 181.02 26.8851 179.394 26.6713C178.773 26.5937 178.173 26.5745 177.553 26.5745H172.904C172.594 26.5745 172.342 26.6713 172.323 27.0212C172.304 27.3319 172.458 27.4881 172.769 27.5466C174.725 27.955 175.693 29.1801 175.693 31.1818V44.8293C175.693 46.0736 175.674 47.3179 175.693 48.5623C175.712 49.3005 175.441 49.9034 174.763 50.2342C174.337 50.448 173.873 50.6033 173.427 50.7595C173.292 50.818 173.117 50.8372 172.962 50.8563C172.672 50.8956 172.459 51.0902 172.556 51.3817C172.613 51.537 172.865 51.7124 173.04 51.7124C174.628 51.6932 176.237 51.5964 177.824 51.6347C179.878 51.674 181.95 51.8293 184.004 51.8878C185.205 51.907 186.425 51.8293 187.626 51.8101C190.764 51.791 193.418 50.6435 195.684 48.4663C197.35 46.8529 198.512 44.9471 199.21 42.7508C199.869 40.6897 200.121 38.5711 199.946 36.3939L199.947 36.3921ZM191.772 47.1818C190.668 48.6984 189.079 49.4375 187.278 49.7874C185.942 50.0597 184.625 50.0204 183.287 49.7874C182.494 49.6513 182.126 49.2237 182.126 48.4261V38.9584H182.029V34.1949C182.029 32.3476 182.939 31.0064 184.469 30.112C186.445 28.9645 188.557 29.3153 190.203 30.9086C191.947 32.5997 192.838 34.7193 193.341 37.0326C193.554 37.9462 193.69 38.8799 193.71 39.8127C193.768 42.4566 193.361 44.9837 191.772 47.1809V47.1818Z" fill="#29100A"/>
</svg>
