<svg width="79" height="14" viewBox="0 0 79 14" fill="none" xmlns="http://www.w3.org/2000/svg">
<path d="M24.0594 13.6688V3.29241H21.123V0.24939H30.2888V3.29313H27.3524V13.6695H24.0601L24.0594 13.6688Z" fill="#F9F7E7"/>
<path d="M0 7.01271C0 2.84774 3.1857 0 7.20799 0C9.62843 0 11.8176 0.978551 13.2234 3.07905L10.3223 4.59155C9.53907 3.52365 8.52449 2.95439 7.2433 2.95439C4.98283 2.95439 3.39899 4.71621 3.39899 7.03C3.39899 9.34379 5.1255 11.0703 7.13665 11.0703C8.79183 11.0703 9.98439 10.0737 10.1977 8.75652V8.73851H7.38597V6.21142H13.882V6.78068C13.882 11.1589 11.2656 13.9 7.10134 13.9C3.16768 13.9 0 11.0703 0 7.01271Z" fill="#F9F7E7"/>
<path d="M16.1409 13.6688V0.24939H19.4332V13.6688H16.1409Z" fill="#F9F7E7"/>
<path d="M59.3087 13.6688V0.24939H62.6011V13.6688H59.3087Z" fill="#F9F7E7"/>
<path d="M74.8534 0.24939H78.0751V13.6688H75.4054L68.678 5.21493L68.7313 13.6688H65.4923V0.24939H68.2334L74.9608 8.64994L74.8541 0.24939H74.8534Z" fill="#F9F7E7"/>
<path d="M38.2668 10.8569C36.2203 10.8569 34.4938 9.25509 34.4938 6.95932C34.4938 4.7882 36.149 3.06169 38.3028 3.06169C39.3635 3.06169 40.2895 3.46305 40.9632 4.12743C41.2882 3.08979 41.794 2.11916 42.4664 1.25158C41.2889 0.465426 39.8564 0.0179443 38.3201 0.0179443C34.3692 0.0179443 31.0941 2.97233 31.0941 6.9413C31.0941 11.1063 34.3865 13.9 38.2668 13.9C39.816 13.9 41.2594 13.4662 42.4433 12.6952C41.7789 11.8283 41.2781 10.8519 40.9575 9.8013C40.2736 10.4628 39.334 10.8569 38.2668 10.8569Z" fill="#F9F7E7"/>
<path d="M50.0676 0.0179443C47.588 0.0179443 45.3751 1.18169 44.0701 3.02926C43.2962 4.12599 42.8416 5.46339 42.8416 6.9413C42.8416 8.41922 43.2948 9.84165 44.0629 10.9369C45.365 12.7939 47.5736 13.9 50.0142 13.9C53.9832 13.9 57.2582 11.0522 57.2582 6.97661C57.2582 2.901 54.0012 0.0179443 50.0676 0.0179443ZM50.0142 10.8569C47.9678 10.8569 46.2413 9.25509 46.2413 6.95932C46.2413 4.7882 47.8964 3.06169 50.0503 3.06169C52.2041 3.06169 53.8593 4.77019 53.8593 6.97733C53.8593 9.18448 52.2041 10.8569 50.015 10.8569H50.0142Z" fill="#F9F7E7"/>
</svg>
