<svg width="60" height="22" viewBox="0 0 60 22" fill="none" xmlns="http://www.w3.org/2000/svg">
<path d="M4.25761 0V4.42513C4.25761 5.19754 4.2297 5.93275 4.17387 6.6307C4.12732 7.32869 4.09009 7.8219 4.06219 8.11041H4.28554C4.62057 7.57065 5.01607 7.13324 5.4721 6.79822C5.93738 6.46319 6.44924 6.21658 7.00761 6.05836C7.56599 5.90017 8.16624 5.82107 8.80838 5.82107C9.93443 5.82107 10.9162 6.02114 11.7538 6.42132C12.5914 6.81218 13.2428 7.43104 13.7081 8.27793C14.1734 9.11549 14.4061 10.2043 14.4061 11.5444V21.7208H10.1485V12.6053C10.1485 11.4886 9.94375 10.6464 9.53427 10.0787C9.1248 9.511 8.49197 9.22716 7.63579 9.22716C6.77962 9.22716 6.10492 9.42726 5.61168 9.82741C5.11843 10.2183 4.76947 10.7999 4.56473 11.5723C4.35999 12.3355 4.25761 13.2707 4.25761 14.3782V21.7208H0V0H4.25761ZM25.1827 5.79314C27.2766 5.79314 28.882 6.24916 29.9987 7.16117C31.1154 8.07319 31.6738 9.45981 31.6738 11.3211V21.7208H28.7005L27.8769 19.599H27.7652C27.3185 20.1574 26.8625 20.6134 26.3972 20.967C25.9319 21.3206 25.3968 21.5812 24.7919 21.7487C24.187 21.9162 23.4518 22 22.5863 22C21.665 22 20.8367 21.8232 20.1015 21.4695C19.3756 21.1159 18.8033 20.5761 18.3845 19.8503C17.9657 19.1151 17.7564 18.1844 17.7564 17.0584C17.7564 15.4018 18.338 14.1827 19.5013 13.401C20.6646 12.61 22.4095 12.1726 24.736 12.0888L27.4442 12.0051V11.3211C27.4442 10.5021 27.2301 9.90186 26.802 9.52029C26.3739 9.13875 25.7783 8.94798 25.0152 8.94798C24.2614 8.94798 23.5216 9.05501 22.7957 9.26904C22.0698 9.48306 21.3439 9.75296 20.618 10.0787L19.2081 7.20305C20.0364 6.76564 20.9624 6.42132 21.986 6.17004C23.019 5.91878 24.0846 5.79314 25.1827 5.79314ZM27.4442 14.4899L25.797 14.5457C24.4196 14.5829 23.4611 14.8295 22.9213 15.2855C22.3908 15.7415 22.1256 16.3418 22.1256 17.0863C22.1256 17.7377 22.3164 18.203 22.698 18.4822C23.0795 18.7521 23.5774 18.8871 24.1916 18.8871C25.1036 18.8871 25.8714 18.6172 26.4949 18.0774C27.1277 17.5376 27.4442 16.7699 27.4442 15.7741V14.4899ZM42.646 18.6079C43.1111 18.6079 43.5626 18.5613 44.0001 18.4683C44.4468 18.3752 44.8887 18.2589 45.3262 18.1193V21.2881C44.8702 21.4928 44.3023 21.6603 43.6231 21.7906C42.953 21.9302 42.2177 22 41.4175 22C40.4869 22 39.6492 21.8511 38.9047 21.5533C38.1697 21.2462 37.5881 20.7204 37.1599 19.9759C36.7412 19.2221 36.5318 18.1751 36.5318 16.835V9.31091H34.4937V7.51014L36.8389 6.08629L38.0673 2.79188H40.7895V6.11423H45.1585V9.31091H40.7895V16.835C40.7895 17.4306 40.9569 17.8773 41.2919 18.1751C41.6361 18.4636 42.0876 18.6079 42.646 18.6079ZM59.3832 17.0863C59.3832 18.1472 59.1319 19.0453 58.6295 19.7805C58.1364 20.5064 57.3963 21.0601 56.41 21.4416C55.4234 21.8139 54.195 22 52.7247 22C51.6357 22 50.7006 21.9302 49.9189 21.7906C49.1464 21.651 48.3646 21.4184 47.5737 21.0926V17.5749C48.4203 17.9564 49.3277 18.2728 50.2956 18.5241C51.273 18.7661 52.1291 18.8871 52.8641 18.8871C53.6926 18.8871 54.2834 18.7661 54.6372 18.5241C54.9999 18.2728 55.1816 17.9471 55.1816 17.547C55.1816 17.2864 55.1071 17.0537 54.9582 16.849C54.8186 16.6349 54.5115 16.3976 54.0368 16.1371C53.5621 15.8672 52.8176 15.5182 51.8033 15.0901C50.8263 14.6806 50.0213 14.2665 49.3882 13.8477C48.7649 13.4289 48.2994 12.9357 47.9924 12.368C47.6946 11.791 47.5457 11.0605 47.5457 10.1764C47.5457 8.73392 48.1041 7.64975 49.2208 6.92386C50.3468 6.18868 51.8498 5.82107 53.7298 5.82107C54.6977 5.82107 55.6188 5.91878 56.4937 6.11423C57.3779 6.30964 58.2853 6.62141 59.2156 7.0495L57.9315 10.1206C57.159 9.78554 56.4285 9.511 55.74 9.29694C55.0604 9.08291 54.3671 8.97588 53.6598 8.97588C53.0362 8.97588 52.5663 9.05965 52.25 9.22716C51.9335 9.39468 51.7753 9.65061 51.7753 9.99492C51.7753 10.2462 51.8546 10.4696 52.0127 10.665C52.1804 10.8604 52.4966 11.0791 52.9618 11.3211C53.4365 11.5537 54.1298 11.8562 55.0419 12.2284C55.9261 12.5914 56.6938 12.9729 57.3451 13.3731C57.9967 13.7639 58.4991 14.2525 58.8529 14.8388C59.2064 15.4158 59.3832 16.165 59.3832 17.0863Z" fill="#F9F7E7"/>
</svg>
