<svg width="84" height="24" viewBox="0 0 84 24" fill="none" xmlns="http://www.w3.org/2000/svg">
<path d="M6.23551 11.8899H0.670331C0.274018 11.8899 0.0759277 11.6918 0.0759277 11.2954V0.594538C0.0759277 0.19809 0.274015 0 0.670331 0H6.23551C7.62268 0 8.64645 0.275498 9.30711 0.825686C9.96763 1.37641 10.2978 2.22387 10.2978 3.36886V8.52107C10.2978 9.66633 9.96763 10.5138 9.30711 11.0642C8.64645 11.615 7.62268 11.8899 6.23551 11.8899ZM3.82444 3.15411V8.76888H5.78961C6.30701 8.76888 6.56584 8.4993 6.56584 7.95959V3.94674C6.56584 3.41832 6.30701 3.15411 5.78961 3.15411H3.82444Z" fill="#F9F7E7"/>
<path d="M19.8809 11.8899H12.2184C11.8221 11.8899 11.624 11.6918 11.624 11.2954V0.594538C11.624 0.19809 11.8221 0 12.2184 0H19.8809C20.2772 0 20.4753 0.19809 20.4753 0.594538V2.52678C20.4753 2.92296 20.2772 3.12105 19.8809 3.12105H15.3231V4.39264H18.5432C18.9396 4.39264 19.1377 4.591 19.1377 4.98718V6.75413C19.1377 7.15057 18.9396 7.34867 18.5432 7.34867H15.3231V8.76889H19.8809C20.2772 8.76889 20.4753 8.96698 20.4753 9.36343V11.2954C20.4753 11.6919 20.2772 11.8899 19.8809 11.8899Z" fill="#F9F7E7"/>
<path d="M30.7051 11.8899H22.2997C21.9034 11.8899 21.7053 11.6918 21.7053 11.2954V0.594538C21.7053 0.19809 21.9034 0 22.2997 0H24.8594C25.2556 0 25.4537 0.19809 25.4537 0.594538V8.76889H27.7163V6.09374C27.7163 5.69729 27.9144 5.4992 28.3108 5.4992H30.7051C31.1015 5.4992 31.2996 5.69729 31.2996 6.09374V11.2954C31.2996 11.6918 31.1015 11.8899 30.7051 11.8899Z" fill="#F9F7E7"/>
<path d="M40.7652 11.8899H33.1028C32.7064 11.8899 32.5083 11.6918 32.5083 11.2954V0.594538C32.5083 0.19809 32.7064 0 33.1028 0H40.7652C41.1616 0 41.3597 0.19809 41.3597 0.594538V2.52678C41.3597 2.92296 41.1616 3.12105 40.7652 3.12105H36.2075V4.39264H39.4275C39.8239 4.39264 40.022 4.591 40.022 4.98718V6.75413C40.022 7.15057 39.8239 7.34867 39.4275 7.34867H36.2075V8.76889H40.7652C41.1616 8.76889 41.3597 8.96698 41.3597 9.36343V11.2954C41.3597 11.6919 41.1616 11.8899 40.7652 11.8899Z" fill="#F9F7E7"/>
<path d="M51.7699 11.8899H46.5682C45.181 11.8899 44.157 11.615 43.4966 11.0643C42.8359 10.5138 42.5056 9.66634 42.5056 8.52107V3.36886C42.5056 2.22387 42.8359 1.37641 43.4966 0.825686C44.157 0.275498 45.181 0 46.5682 0H50.6966C51.0928 0 51.2909 0.19809 51.2909 0.594538V2.59264C51.2909 2.98908 51.0928 3.18717 50.6966 3.18717H47.2616C46.59 3.18717 46.2543 3.4624 46.2543 4.01286V7.9596C46.2543 8.4993 46.5075 8.76889 47.0138 8.76889H48.6157V6.19265C48.6157 5.79647 48.8138 5.59811 49.2103 5.59811H51.7699C52.1663 5.59811 52.3644 5.79647 52.3644 6.19265V11.2954C52.3644 11.6918 52.1663 11.8899 51.7699 11.8899Z" fill="#F9F7E7"/>
<path d="M57.1364 11.2954C57.1364 11.6918 56.9383 11.8899 56.5422 11.8899H54.1146C53.7181 11.8899 53.52 11.6918 53.52 11.2954V6.93582C53.52 6.60549 53.5722 6.22571 53.677 5.79647C53.7813 5.36696 53.9436 4.86623 54.164 4.29373L55.6006 0.545082C55.7218 0.181695 56.0025 0 56.443 0H60.8851C61.3146 0 61.5895 0.181695 61.7108 0.545082L63.1476 4.29373C63.3675 4.86623 63.5299 5.36696 63.6347 5.79647C63.7392 6.22571 63.7916 6.60549 63.7916 6.93582V11.2954C63.7916 11.6918 63.5933 11.8899 63.1971 11.8899H60.7034C60.2741 11.8899 60.0594 11.6918 60.0594 11.2954V8.98364H57.1364L57.1364 11.2954ZM58.0777 3.46804L57.3017 5.97789H59.8944L59.1181 3.46804C59.041 3.28097 58.9364 3.18717 58.8045 3.18717H58.3916C58.2594 3.18717 58.1548 3.28097 58.0777 3.46804Z" fill="#F9F7E7"/>
<path d="M70.4515 11.8899H67.7763C67.3799 11.8899 67.1818 11.6918 67.1818 11.2954V3.18717H64.7542C64.358 3.18717 64.1599 2.98908 64.1599 2.59263V0.594538C64.1599 0.19809 64.358 0 64.7542 0H73.4736C73.8698 0 74.0681 0.19809 74.0681 0.594538V2.59264C74.0681 2.98908 73.8698 3.18717 73.4736 3.18717H71.046V11.2954C71.046 11.6918 70.8479 11.8899 70.4515 11.8899Z" fill="#F9F7E7"/>
<path d="M83.395 11.8899H75.7327C75.3365 11.8899 75.1384 11.6918 75.1384 11.2954V0.594538C75.1384 0.19809 75.3365 0 75.7327 0H83.395C83.7915 0 83.9896 0.19809 83.9896 0.594538V2.52678C83.9896 2.92296 83.7915 3.12105 83.395 3.12105H78.8374V4.39264H82.0576C82.454 4.39264 82.6521 4.591 82.6521 4.98718V6.75413C82.6521 7.15057 82.454 7.34867 82.0576 7.34867H78.8374V8.76889H83.395C83.7915 8.76889 83.9896 8.96698 83.9896 9.36343V11.2954C83.9896 11.6919 83.7915 11.8899 83.395 11.8899Z" fill="#F9F7E7"/>
<path d="M2.85147 24H0.554891C0.185053 24 0 23.8151 0 23.4453V13.4577C0 13.0876 0.185053 12.9027 0.554891 12.9027H3.03638C3.34467 12.9027 3.58093 13.057 3.74542 13.3653L5.13258 15.8775C5.18379 15.97 5.22746 16.0369 5.26348 16.0778C5.29936 16.1189 5.34828 16.1396 5.40996 16.1396H5.54866C5.61034 16.1396 5.65899 16.1189 5.69514 16.0778C5.73102 16.0369 5.77456 15.97 5.82617 15.8775L7.19788 13.3653C7.3621 13.057 7.59862 12.9027 7.90678 12.9027H10.4037C10.7736 12.9027 10.9586 13.0876 10.9586 13.4577V23.4453C10.9586 23.8151 10.7736 24 10.4037 24H8.03015C7.66018 24 7.47526 23.8151 7.47526 23.4453V18.02L6.56598 19.6998C6.39114 20.0288 6.11901 20.193 5.74903 20.193H5.13259C4.76262 20.193 4.49021 20.0288 4.31564 19.6998L3.40636 18.02V23.4453C3.40636 23.8151 3.2213 24 2.85147 24Z" fill="#F9F7E7"/>
<path d="M15.8552 23.4453C15.8552 23.8151 15.6703 24 15.3003 24H13.0346C12.6647 24 12.4797 23.8151 12.4797 23.4453V19.3762C12.4797 19.0679 12.5284 18.7134 12.6262 18.3127C12.7237 17.9119 12.8752 17.4445 13.0809 16.9102L14.4218 13.4115C14.5347 13.0723 14.7967 12.9027 15.2078 12.9027H19.3539C19.7546 12.9027 20.0113 13.0723 20.1245 13.4115L21.4654 16.9102C21.6709 17.4445 21.8223 17.9119 21.9202 18.3127C22.0176 18.7134 22.0665 19.0679 22.0665 19.3762V23.4453C22.0665 23.8151 21.8816 24 21.5116 24H19.1843C18.7837 24 18.5833 23.8151 18.5833 23.4453V21.2872H15.8552L15.8552 23.4453ZM16.7337 16.1396L16.0093 18.4823H18.4291L17.7046 16.1396C17.6327 15.9649 17.5352 15.8775 17.4118 15.8775H17.0265C16.9033 15.8775 16.8054 15.9649 16.7337 16.1396Z" fill="#F9F7E7"/>
<path d="M28.6123 24H26.1153C25.7455 24 25.5605 23.8151 25.5605 23.4453V15.8775H23.2949C22.925 15.8775 22.74 15.6926 22.74 15.3225V13.4577C22.74 13.0876 22.925 12.9027 23.2949 12.9027H31.4328C31.8026 12.9027 31.9876 13.0876 31.9876 13.4577V15.3225C31.9876 15.6926 31.8026 15.8775 31.4328 15.8775H29.167V23.4453C29.167 23.8151 28.9821 24 28.6123 24Z" fill="#F9F7E7"/>
<path d="M40.7882 24H37.0275C35.7328 24 34.7773 23.7433 34.1607 23.2294C33.5444 22.7158 33.2361 21.9245 33.2361 20.8559V16.0625C33.2361 14.9836 33.5444 14.1875 34.1607 13.6736C34.7773 13.1597 35.7328 12.9027 37.0275 12.9027H40.7882C41.1583 12.9027 41.3432 13.0876 41.3432 13.4577V15.3225C41.3432 15.6926 41.1583 15.8775 40.7882 15.8775H37.6903C37.0635 15.8775 36.7501 16.1345 36.7501 16.6481V20.3164C36.7501 20.8096 37.0635 21.0561 37.6903 21.0561H40.7882C41.1583 21.0561 41.3432 21.241 41.3432 21.6111V23.4453C41.3432 23.8151 41.1583 24 40.7882 24Z" fill="#F9F7E7"/>
<path d="M45.7369 24H43.3477C42.9779 24 42.793 23.8151 42.793 23.4453V13.4577C42.793 13.0876 42.9779 12.9027 43.3477 12.9027H45.7369C46.1067 12.9027 46.2916 13.0876 46.2916 13.4577V16.8021H48.8657V13.4577C48.8657 13.0876 49.0507 12.9027 49.4205 12.9027H51.8094C52.1792 12.9027 52.3644 13.0876 52.3644 13.4577V23.4453C52.3644 23.8151 52.1792 24 51.8094 24H49.4205C49.0507 24 48.8657 23.8151 48.8657 23.4453V20.0234H46.2916V23.4453C46.2916 23.8151 46.1067 24 45.7369 24Z" fill="#F9F7E7"/>
</svg>
