<svg width="148" height="15" viewBox="0 0 148 15" fill="none" xmlns="http://www.w3.org/2000/svg">
<path d="M58.3347 14.9618H66.6153V0.0454519H58.3347V14.9618ZM52.1103 0.0418156H57.0185V1.96806H52.4793C51.7299 1.96806 51.1172 2.17805 50.6402 2.59711C50.1621 3.01618 49.9239 3.56706 49.9239 4.24883C49.9239 4.9306 50.1621 5.50331 50.6402 5.92239C51.1172 6.34142 51.7309 6.55142 52.4793 6.55142H57.0185V14.9627H47.1102V13.0328H52.3047C53.1123 13.0328 53.7704 12.8129 54.276 12.372C54.7832 11.932 55.0368 11.3702 55.0368 10.6885C55.0368 10.0066 54.7832 9.45218 54.276 9.02584C53.7694 8.5995 53.1123 8.38674 52.3047 8.38674L51.6456 8.39768C49.5257 8.39768 47.804 6.74231 47.7908 4.69152L47.788 4.24156V4.2252C47.788 1.91534 49.7241 0.0427248 52.1113 0.0427248L52.1103 0.0418156ZM72.669 0.0418156H77.4247V1.96806H73.0385C72.2896 1.96806 71.6764 2.17805 71.1993 2.59711C70.7218 3.01618 70.483 3.56706 70.483 4.24883C70.483 4.9306 70.7218 5.50331 71.1993 5.92239C71.6764 6.34142 72.2906 6.55142 73.0385 6.55142H77.4247V10.7003C77.4247 13.0546 75.4524 14.9627 73.0188 14.9627H67.972V13.0328H72.7109C73.5185 13.0328 74.1766 12.8129 74.6828 12.372C75.1894 11.932 75.443 11.3702 75.443 10.6885C75.443 10.0066 75.1894 9.45218 74.6828 9.02584C74.1756 8.5995 73.5185 8.39768 72.7109 8.39768H68.3735L68.3464 4.24156V4.2252C68.3464 1.91534 70.2822 0.0427248 72.6695 0.0427248L72.669 0.0418156ZM7.71055 0.0418156H13.2628V1.96806H7.86546C6.8525 1.96806 5.91551 2.2135 5.05652 2.70347C4.19748 3.19344 3.51777 3.86159 3.01832 4.707C2.51887 5.55237 2.26914 6.47235 2.26914 7.46681C2.26914 8.46131 2.51887 9.46577 3.01832 10.3039C3.51777 11.143 4.19654 11.8065 5.05652 12.2965C5.91551 12.7865 6.8525 13.032 7.86546 13.032H11.1476V8.39676H5.81601V6.52142H13.2628V14.9618H7.71618C3.45581 14.9645 0 11.6238 0 7.50227C0 3.38161 3.45206 0.0418156 7.71055 0.0418156ZM29.435 6.96774V14.9673H27.47V6.99319C27.47 4.21793 25.1445 1.96806 22.2755 1.96806C19.4065 1.96806 17.081 4.21793 17.081 6.99319V14.9673H15.0991V0.0509061H22.2858C26.2345 0.0509061 29.4359 3.14799 29.4359 6.96866L29.435 6.96774ZM65.1486 4.54336C65.1486 5.97416 63.9508 7.13323 62.4743 7.13323C60.9972 7.13323 59.7994 5.97329 59.7994 4.54336C59.7994 3.11345 60.9972 1.95352 62.4743 1.95352C63.9508 1.95352 65.1486 3.11345 65.1486 4.54336ZM82.7769 7.48955V7.50682C82.7769 11.6265 86.2292 14.9618 90.4877 14.9618H93.7462V13.032H90.54C87.3407 13.032 84.7542 10.4894 84.8227 7.37864C84.8894 4.35428 87.5183 1.96715 90.6456 1.96715H93.7462V0.0509061H90.466C86.2189 0.0509061 82.7759 3.38161 82.7759 7.49047L82.7769 7.48955ZM140.851 0.0509061H133.664V14.9618H135.646V6.99319C135.646 4.21793 137.972 1.96806 140.841 1.96806C143.709 1.96806 146.035 4.21793 146.035 6.99319V14.9618H148V6.96774C148 3.14708 144.799 0.0499969 140.85 0.0499969L140.851 0.0509061ZM104.978 5.05152C104.978 5.46329 104.827 5.81148 104.527 6.096C104.226 6.38052 103.87 6.52234 103.458 6.52234H98.8768C98.4506 6.52234 98.091 6.38052 97.7974 6.096C97.5034 5.81235 97.3569 5.46421 97.3569 5.05152V0.0509061H95.3752V14.9618H97.3569V9.86758C97.3569 9.45581 97.5034 9.10761 97.7974 8.8231C98.091 8.5395 98.4506 8.39676 98.8768 8.39676H103.458C103.87 8.39676 104.226 8.53858 104.527 8.8231C104.827 9.10761 104.978 9.45581 104.978 9.86758V14.9618H106.939V0.0509061H104.978V5.05152ZM123.756 0.0509061V14.9618H132.036V0.0509061H123.756ZM127.896 7.1341C126.418 7.1341 125.221 5.97416 125.221 4.54427C125.221 3.11436 126.419 1.95443 127.896 1.95443C129.373 1.95443 130.571 3.11436 130.571 4.54427C130.571 5.97416 129.373 7.1341 127.896 7.1341ZM116.5 0.844495C116.238 0.282711 115.868 0.000909182 115.388 0.000909182C114.908 0.000909182 114.538 0.281802 114.277 0.844495L107.675 14.9618H123.036L116.5 0.844495ZM115.388 12.5183C113.91 12.5183 112.713 11.3584 112.713 9.9285C112.713 8.49856 113.911 7.33863 115.388 7.33863C116.865 7.33863 118.063 8.49856 118.063 9.9285C118.063 11.3584 116.865 12.5183 115.388 12.5183ZM45.4926 3.70432C44.7857 2.55257 43.8318 1.64717 42.6329 0.988123C41.4331 0.329981 40.1263 0 38.7124 0C37.2986 0 36.0452 0.329981 34.8238 0.988123C33.6024 1.64717 32.6486 2.55257 31.9642 3.70432C31.2779 4.857 30.9361 6.11144 30.9361 7.46956C30.9361 8.82765 31.2788 10.083 31.9642 11.2348C32.6495 12.3874 33.6034 13.3028 34.8238 13.9819C36.0452 14.661 37.3399 15 38.7124 15C40.085 15 41.4322 14.661 42.6329 13.9819C43.8318 13.3028 44.7857 12.3874 45.4926 11.2348C46.1995 10.083 46.5526 8.82673 46.5526 7.46956C46.5526 6.11235 46.1995 4.85608 45.4926 3.70432ZM38.7453 10.1021C37.2638 10.1021 36.0631 8.93855 36.0631 7.50319C36.0631 6.06779 37.2638 4.90423 38.7453 4.90423C40.2267 4.90423 41.4275 6.06779 41.4275 7.50319C41.4275 8.93855 40.2267 10.1021 38.7453 10.1021Z" fill="#F9F7E7"/>
</svg>
