<svg width="122" height="20" viewBox="0 0 122 20" fill="none" xmlns="http://www.w3.org/2000/svg">
<path d="M9.02428 0.0177556V13.5542H6.77263V0.0177556H0V15.8058H2.25165V2.26941H4.51214V15.8058H11.2759V2.26941H13.5365V15.8058H15.7881V0.0177556H9.02428Z" fill="#F9F7E7"/>
<path d="M36.0885 4.5297V6.79018H42.8611V9.04184H36.0885V15.8145H45.1127V4.5297H36.0885ZM42.8522 13.554H38.3401V11.2935H42.8522V13.554Z" fill="#F9F7E7"/>
<path d="M31.576 6.7814H33.8365V4.52975H31.576V1.91606H29.3155V15.8057H33.8365V13.554H31.576V6.7814Z" fill="#F9F7E7"/>
<path d="M47.3731 15.8057H49.6954V9.00662H57.2008V6.80795H49.6954V2.19867H57.6954V0H47.3731V15.8057Z" fill="#F9F7E7"/>
<path d="M63.5584 4.30908C61.6511 4.30908 60.2118 5.10378 59.2846 6.67553L59.1522 6.89628L60.8035 8.40621L60.9888 8.00886C61.4215 7.05522 62.4282 6.44595 63.5407 6.44595C65.0242 6.44595 65.9072 7.25831 65.9072 8.61814V9.28036C64.8829 9.00665 63.9911 8.86537 63.2494 8.86537C60.6092 8.86537 58.9138 10.2958 58.9138 12.521C58.9138 14.6049 60.5562 16.0618 62.8962 16.0618C64.1146 16.0618 65.139 15.744 65.9514 15.1258V15.8235H68.1942V8.77707C68.1854 5.97795 66.4546 4.30908 63.5584 4.30908ZM62.9845 13.978C61.8984 13.978 61.1919 13.4128 61.1919 12.5475C61.1919 11.1876 62.5341 10.9845 63.3376 10.9845C64.1146 10.9845 64.9535 11.1258 65.9072 11.4173V12.5034C65.2096 13.404 64.0794 13.978 62.9845 13.978Z" fill="#F9F7E7"/>
<path d="M78.9228 12.4768C78.1722 13.4305 77.2185 13.9162 76.0884 13.9162C73.9074 13.9162 72.5034 12.4504 72.5034 10.1899C72.5034 9.11264 72.8389 8.22078 73.5012 7.53204C74.1811 6.81681 75.0023 6.46361 76.0177 6.46361C77.0773 6.46361 77.9603 6.89628 78.7285 7.77928L78.9493 8.03535L80.521 6.53425L80.3267 6.30466C79.2054 4.98016 77.7572 4.30908 76.0177 4.30908C74.393 4.30908 72.9978 4.89186 71.8587 6.0486C70.7374 7.18767 70.1723 8.58281 70.1723 10.1899C70.1723 11.8235 70.7285 13.2185 71.8146 14.3488C72.9272 15.4703 74.3135 16.0442 75.9471 16.0442C77.7925 16.0442 79.3378 15.3201 80.5476 13.8985L80.7506 13.6601L79.1347 12.2119L78.9228 12.4768Z" fill="#F9F7E7"/>
<path d="M85.0675 3.18182H82.7805V13.6013C82.7805 15.9766 83.8844 17.0803 86.2507 17.0803C86.6569 17.0803 87.0455 17.0538 87.2927 17.0361L87.5929 17.0097V14.9346L86.4097 14.9611C85.3413 14.9611 85.0675 14.6344 85.0675 13.354V7.93237H87.6017V5.822H85.0675V3.18182Z" fill="#F9F7E7"/>
<path d="M94.5873 4.30908C92.9445 4.30908 91.55 4.89186 90.4461 6.03094C89.3512 7.16118 88.8037 8.56515 88.8037 10.1899C88.8037 11.8146 89.36 13.2185 90.4461 14.3488C91.5591 15.4703 92.9446 16.0442 94.5782 16.0442C96.23 16.0442 97.6245 15.4703 98.7373 14.3488C99.8409 13.2009 100.406 11.8057 100.406 10.1899C100.406 8.56515 99.8409 7.17001 98.72 6.03094C97.6246 4.88304 96.23 4.30908 94.5873 4.30908ZM94.5873 13.9162C93.5982 13.9162 92.76 13.5629 92.1145 12.8742C91.4618 12.159 91.1345 11.2583 91.1345 10.1899C91.1345 9.12145 91.4618 8.22078 92.1145 7.53204C92.76 6.82564 93.59 6.46361 94.5873 6.46361C95.6118 6.46361 96.4327 6.80798 97.0864 7.53204C97.74 8.22078 98.0664 9.12145 98.0664 10.1899C98.0664 11.2583 97.74 12.159 97.0864 12.8742C96.4327 13.5629 95.5936 13.9162 94.5873 13.9162Z" fill="#F9F7E7"/>
<path d="M108.15 4.41495C106.737 4.41495 105.775 4.724 104.918 5.49221V4.56506H102.675V15.8056H104.963V10.9668C104.963 7.73504 105.827 6.59596 108.265 6.59596C108.379 6.59596 108.503 6.59596 108.583 6.61363L108.963 6.68426V4.47676L108.688 4.44144C108.512 4.41495 108.317 4.41495 108.15 4.41495Z" fill="#F9F7E7"/>
<path d="M119.408 4.56521L116.115 12.8301L112.759 4.56521H110.216L114.861 15.6204L113.086 20.0001H115.576L121.925 4.56521H119.408Z" fill="#F9F7E7"/>
<path d="M18.0398 4.5297V15.8056H27.0641V13.554H20.2915V11.2935H27.0641V4.5297H18.0398ZM24.8035 9.04184H20.2915V6.78135H24.8035V9.04184Z" fill="#F9F7E7"/>
</svg>
