<svg width="118" height="21" viewBox="0 0 118 21" fill="none" xmlns="http://www.w3.org/2000/svg">
<path d="M18.56 0H2.23757C1.00195 0 0 1.00524 0 2.2443V18.6209C0 19.8605 1.00195 20.8658 2.23757 20.8658H18.5606C19.7962 20.8658 20.7982 19.8605 20.7982 18.6209V2.2443C20.7982 1.00463 19.7962 0 18.5606 0H18.56ZM18.9135 11.9812C18.7808 12.5808 19.0298 13.3799 18.4988 13.6965C17.9679 14.0132 16.6075 13.5364 16.2294 14.0494C15.9132 14.479 16.8222 15.9783 16.3744 16.4275C15.926 16.8773 14.4317 15.9648 14.0041 16.282C13.4927 16.6613 13.968 18.0262 13.6524 18.5589C13.3367 19.0916 12.5403 18.8418 11.9427 18.975C11.3451 19.1081 11.2955 20.0465 10.3994 20.0465C9.50325 20.0465 9.4531 19.1081 8.85608 18.975C8.25846 18.8418 7.46204 19.0916 7.1464 18.5589C6.83077 18.0262 7.30605 16.6613 6.79468 16.282C6.3665 15.9648 4.87213 16.8767 4.42437 16.4275C3.97661 15.9783 4.88559 14.4784 4.56934 14.0494C4.19132 13.5364 2.83091 14.0132 2.29996 13.6965C1.76901 13.3799 2.01797 12.5808 1.88524 11.9812C1.7525 11.3817 0.817221 11.332 0.817221 10.4329C0.817221 9.53381 1.7525 9.48349 1.88524 8.88452C2.01797 8.28494 1.76901 7.4859 2.29996 7.16923C2.83091 6.85256 4.19132 7.32941 4.56934 6.81635C4.88559 6.38677 3.97661 4.8875 4.42437 4.43827C4.87274 3.98843 6.36711 4.901 6.79468 4.58372C7.30605 4.20445 6.83077 2.83959 7.1464 2.30689C7.46204 1.7742 8.25846 2.02398 8.85608 1.89081C9.45371 1.75763 9.50325 0.819288 10.3994 0.819288C11.2955 0.819288 11.3457 1.75763 11.9427 1.89081C12.5403 2.02398 13.3367 1.7742 13.6524 2.30689C13.968 2.83959 13.4927 4.20445 14.0041 4.58372C14.4323 4.901 15.9266 3.98904 16.3744 4.43827C16.8228 4.88811 15.9132 6.38738 16.2294 6.81635C16.6075 7.32941 17.9679 6.85256 18.4988 7.16923C19.0298 7.4859 18.7808 8.28494 18.9135 8.88452C19.0463 9.4841 19.9815 9.53381 19.9815 10.4329C19.9815 11.332 19.0463 11.3823 18.9135 11.9812Z" fill="#F9F7E7"/>
<path d="M16.7119 9.28469C16.6134 8.84037 16.7982 8.24754 16.4042 8.01311C16.0103 7.77868 15.0016 8.13217 14.7215 7.75167C14.4872 7.43316 15.1613 6.32175 14.8291 5.9879C14.497 5.65405 13.3886 6.33096 13.0711 6.09591C12.6919 5.81484 13.0442 4.80285 12.8105 4.40763C12.5769 4.0124 11.986 4.19774 11.5431 4.09894C11.1002 4.00013 11.0629 3.30481 10.3986 3.30481C9.73433 3.30481 9.69702 4.00013 9.25415 4.09894C8.81129 4.19774 8.22039 4.0124 7.98673 4.40763C7.75306 4.80285 8.1054 5.81484 7.72615 6.09591C7.40868 6.33096 6.3009 5.65466 5.96814 5.9879C5.63538 6.32114 6.31008 7.43316 6.0758 7.75167C5.79565 8.13217 4.78696 7.77868 4.39303 8.01311C3.9991 8.24754 4.18384 8.84037 4.08535 9.28469C3.98687 9.72901 3.29382 9.76645 3.29382 10.4329C3.29382 11.0994 3.98687 11.1368 4.08535 11.5812C4.18384 12.0255 3.9991 12.6183 4.39303 12.8527C4.78696 13.0872 5.79565 12.7337 6.0758 13.1142C6.31008 13.4327 5.63599 14.5441 5.96814 14.8779C6.30029 15.2118 7.40868 14.5349 7.72615 14.7699C8.1054 15.051 7.75306 16.063 7.98673 16.4582C8.22039 16.8534 8.81129 16.6681 9.25415 16.7669C9.69702 16.8657 9.73433 17.561 10.3986 17.561C11.0629 17.561 11.1002 16.8657 11.5431 16.7669C11.986 16.6681 12.5769 16.8534 12.8105 16.4582C13.0442 16.063 12.6919 15.051 13.0711 14.7699C13.3886 14.5349 14.4964 15.2112 14.8291 14.8779C15.1619 14.5447 14.4872 13.4327 14.7215 13.1142C15.0016 12.7337 16.0103 13.0872 16.4042 12.8527C16.7982 12.6183 16.6134 12.0255 16.7119 11.5812C16.8104 11.1368 17.5034 11.0994 17.5034 10.4329C17.5034 9.76645 16.8104 9.72901 16.7119 9.28469ZM14.3661 11.1546C14.3043 11.4339 14.4199 11.8064 14.1728 11.9537C13.925 12.101 13.2913 11.8788 13.1152 12.1181C12.9677 12.3182 13.3916 13.0166 13.1824 13.2265C12.9739 13.4358 12.2771 13.0111 12.0777 13.159C11.8398 13.3357 12.0606 13.9715 11.9138 14.2201C11.767 14.4686 11.3957 14.352 11.1174 14.414C10.839 14.476 10.8158 14.9129 10.398 14.9129C9.98023 14.9129 9.95699 14.476 9.67867 14.414C9.40035 14.352 9.02905 14.468 8.88225 14.2201C8.73544 13.9715 8.95687 13.3357 8.71831 13.159C8.5189 13.0111 7.82279 13.4364 7.6136 13.2265C7.4044 13.0166 7.8283 12.3182 7.68088 12.1181C7.50471 11.8794 6.871 12.101 6.62327 11.9537C6.37553 11.8064 6.49175 11.4339 6.42997 11.1546C6.36819 10.8754 5.93266 10.8521 5.93266 10.4329C5.93266 10.0138 6.36819 9.99045 6.42997 9.71121C6.49175 9.43198 6.37614 9.05946 6.62327 8.91218C6.871 8.76489 7.50471 8.98705 7.68088 8.7477C7.8283 8.54764 7.4044 7.84925 7.6136 7.63937C7.82218 7.43009 8.5189 7.85477 8.71831 7.70687C8.95626 7.53013 8.73544 6.89433 8.88225 6.64579C9.02905 6.39724 9.40035 6.51384 9.67867 6.45186C9.95699 6.38987 9.98023 5.95292 10.398 5.95292C10.8158 5.95292 10.839 6.38987 11.1174 6.45186C11.3957 6.51384 11.767 6.39724 11.9138 6.64579C12.0606 6.89433 11.8392 7.53013 12.0777 7.70687C12.2771 7.85477 12.9732 7.42948 13.1824 7.63937C13.391 7.84864 12.9677 8.54764 13.1152 8.7477C13.2913 8.98643 13.925 8.76489 14.1728 8.91218C14.4205 9.05946 14.3043 9.43198 14.3661 9.71121C14.4278 9.99045 14.8634 10.0138 14.8634 10.4329C14.8634 10.8521 14.4278 10.8754 14.3661 11.1546Z" fill="#F9F7E7"/>
<path d="M28.8474 3.31384H30.7479V9.09427H37.9898V3.31384H39.8713V17.0503H37.9898V10.8501H30.7479V17.0503H28.8474V3.31384Z" fill="#F9F7E7"/>
<path d="M40.9665 19.3203H42.4871C42.7783 19.3203 43.0101 19.2822 43.1808 19.2061C43.352 19.13 43.4878 19.0153 43.5894 18.8625C43.6909 18.7096 43.7919 18.4936 43.8934 18.2138L44.3308 17.0692L40.5676 7.12976H42.525L45.2618 14.952L47.9985 7.12976H49.9369L45.6416 18.5574C45.4514 19.0791 45.2618 19.4952 45.0715 19.8069C44.8813 20.1187 44.628 20.3728 44.3112 20.5698C43.9943 20.7668 43.5888 20.8656 43.0945 20.8656H40.9658V19.3203H40.9665Z" fill="#F9F7E7"/>
<path d="M55.5867 6.90039C56.5373 6.90039 57.3545 7.12316 58.0383 7.5681C58.7228 8.01364 59.2422 8.62673 59.5969 9.40919C59.9517 10.191 60.1291 11.0852 60.1291 12.0898C60.1291 13.0945 59.9517 13.988 59.5969 14.7705C59.2422 15.5529 58.7228 16.1666 58.0383 16.6116C57.3539 17.0565 56.5366 17.2793 55.5867 17.2793C54.8771 17.2793 54.2495 17.1393 53.7051 16.8595C53.1601 16.5797 52.7105 16.1857 52.3557 15.6769V20.8663H50.569V7.1293H52.2793V8.61752C52.6469 8.07071 53.1026 7.64788 53.6476 7.349C54.192 7.05013 54.8386 6.901 55.5861 6.901L55.5867 6.90039ZM55.3016 8.48435C54.6428 8.48435 54.0948 8.63716 53.6574 8.94217C53.22 9.24718 52.8873 9.67063 52.6597 10.2107C52.4316 10.7514 52.3178 11.3779 52.3178 12.0898C52.3178 12.8017 52.4322 13.4283 52.6597 13.969C52.8879 14.5096 53.2207 14.9325 53.6574 15.2375C54.0948 15.5425 54.6422 15.6953 55.3016 15.6953C55.961 15.6953 56.4926 15.5425 56.9361 15.2375C57.3796 14.9325 57.7123 14.5096 57.9337 13.969C58.1552 13.4283 58.2665 12.8023 58.2665 12.0898C58.2665 11.3773 58.1558 10.7514 57.9337 10.2107C57.7117 9.67001 57.3789 9.24718 56.9361 8.94217C56.4926 8.63716 55.9476 8.48435 55.3016 8.48435Z" fill="#F9F7E7"/>
<path d="M63.0665 16.6114C62.357 16.1665 61.8089 15.5497 61.4223 14.7611C61.0357 13.9725 60.8424 13.0821 60.8424 12.0903C60.8424 11.0986 61.0357 10.2081 61.4223 9.4195C61.8089 8.63089 62.3563 8.01413 63.0665 7.56919C63.7761 7.12426 64.5994 6.90149 65.5378 6.90149C66.4761 6.90149 67.2988 7.12426 68.0084 7.56919C68.718 8.01474 69.263 8.63457 69.6428 9.42931C70.0227 10.2241 70.2129 11.1305 70.2129 12.148V12.7206H62.7246C62.7876 13.3183 62.9362 13.84 63.1711 14.2849C63.4054 14.7304 63.7223 15.0803 64.1217 15.3343C64.5205 15.589 64.9927 15.716 65.5378 15.716C66.1709 15.716 66.7159 15.5669 67.1722 15.268C67.6285 14.9692 67.9705 14.5592 68.1986 14.0376H70.0233C69.7064 15.0299 69.1516 15.8185 68.3601 16.4034C67.568 16.9889 66.6272 17.281 65.5378 17.281C64.6 17.281 63.7761 17.0582 63.0665 16.6133V16.6114ZM67.4095 9.19918C66.9343 8.70945 66.3103 8.46458 65.5372 8.46458C64.764 8.46458 64.137 8.70945 63.6556 9.19918C63.1742 9.68891 62.8696 10.3535 62.7435 11.1931H68.3124C68.1858 10.3535 67.8848 9.68952 67.4095 9.19918Z" fill="#F9F7E7"/>
<path d="M71.3463 7.12916H73.0572V8.80824C73.4248 8.14729 73.8677 7.68272 74.3876 7.41576C74.907 7.1488 75.5028 7.01501 76.1744 7.01501H76.9347V8.73214H76.1175C75.5346 8.73214 75.0214 8.83095 74.5779 9.02795C74.1344 9.22556 73.7827 9.55266 73.5227 10.0105C73.2627 10.4683 73.1331 11.0918 73.1331 11.8804V17.0508H71.3463V7.12916Z" fill="#F9F7E7"/>
<path d="M79.2709 16.6114C78.5614 16.1665 78.0164 15.5497 77.6365 14.7611C77.2566 13.9725 77.0664 13.0821 77.0664 12.0903C77.0664 11.0986 77.2566 10.2081 77.6365 9.4195C78.0164 8.63089 78.5614 8.01413 79.2709 7.56919C79.9805 7.12426 80.7977 6.90149 81.7226 6.90149C82.9515 6.90149 83.9431 7.2292 84.6973 7.88402C85.4509 8.53945 85.9041 9.42625 86.0564 10.5456H84.2128C84.0733 9.90984 83.7883 9.40722 83.3577 9.03839C82.9264 8.66956 82.3814 8.48545 81.7232 8.48545C81.1274 8.48545 80.621 8.63826 80.2026 8.94327C79.7848 9.24827 79.4673 9.67173 79.252 10.2118C79.0367 10.7524 78.929 11.379 78.929 12.0909C78.929 12.8028 79.0367 13.4294 79.252 13.9701C79.4673 14.5107 79.7842 14.9336 80.2026 15.2386C80.621 15.5436 81.1274 15.6964 81.7232 15.6964C82.382 15.6964 82.9301 15.5092 83.3675 15.1336C83.8048 14.7587 84.0862 14.2401 84.2134 13.5785H86.0571C85.9176 14.685 85.4552 15.5786 84.6697 16.2592C83.8837 16.9398 82.902 17.2798 81.7238 17.2798C80.799 17.2798 79.9817 17.057 79.2722 16.612L79.2709 16.6114Z" fill="#F9F7E7"/>
<path d="M88.8245 16.6114C88.1149 16.1665 87.5668 15.5497 87.1802 14.7611C86.7936 13.9725 86.6003 13.0821 86.6003 12.0903C86.6003 11.0986 86.7936 10.2081 87.1802 9.4195C87.5668 8.63089 88.1143 8.01413 88.8245 7.56919C89.534 7.12426 90.3574 6.90149 91.2957 6.90149C92.234 6.90149 93.0568 7.12426 93.7663 7.56919C94.4759 8.01474 95.0209 8.63457 95.4008 9.42931C95.7812 10.2241 95.9709 11.1305 95.9709 12.148V12.7206H88.4819C88.5449 13.3183 88.6942 13.84 88.9284 14.2849C89.1627 14.7304 89.4796 15.0803 89.879 15.3343C90.2778 15.589 90.7501 15.716 91.2951 15.716C91.9282 15.716 92.4732 15.5669 92.9295 15.268C93.3858 14.9692 93.7278 14.5592 93.9559 14.0376H95.7806C95.4638 15.0299 94.909 15.8185 94.1174 16.4034C93.3253 16.9889 92.3845 17.281 91.2951 17.281C90.3574 17.281 89.5334 17.0582 88.8238 16.6133L88.8245 16.6114ZM93.1675 9.19918C92.6922 8.70945 92.0676 8.46458 91.2951 8.46458C90.5225 8.46458 89.8949 8.70945 89.4135 9.19918C88.9321 9.68891 88.6275 10.3535 88.5015 11.1931H94.0703C93.9437 10.3535 93.6428 9.68952 93.1675 9.19918Z" fill="#F9F7E7"/>
<path d="M97.1033 7.12916H98.8136V8.80824C99.1812 8.14729 99.6247 7.68272 100.144 7.41576C100.663 7.1488 101.259 7.01501 101.931 7.01501H102.691V8.73214H101.874C101.291 8.73214 100.778 8.83095 100.334 9.02795C99.8908 9.22556 99.539 9.55266 99.2791 10.0105C99.0191 10.4683 98.8894 11.0918 98.8894 11.8804V17.0508H97.1027V7.12916H97.1033Z" fill="#F9F7E7"/>
<path d="M105.96 16.8115C105.612 16.6526 105.352 16.4046 105.181 16.0677C105.01 15.7308 104.925 15.2822 104.925 14.7225V8.65547H103.119V7.1292H104.925V4.07666H106.73V7.1292H109.353V8.65547H106.73V14.5126C106.73 14.8686 106.809 15.1263 106.968 15.2853C107.126 15.4442 107.382 15.524 107.737 15.524H109.353V17.0503H107.357C106.774 17.0503 106.308 16.9711 105.96 16.8115H105.96Z" fill="#F9F7E7"/>
<path d="M110.891 16.4206C110.13 15.848 109.719 14.9772 109.655 13.8068H111.442C111.518 14.5193 111.762 15.0312 112.173 15.3429C112.585 15.6547 113.184 15.8106 113.969 15.8106C114.666 15.8106 115.211 15.6866 115.604 15.4387C115.997 15.1907 116.193 14.8446 116.193 14.399C116.193 14.094 116.136 13.8522 116.022 13.6743C115.908 13.4963 115.677 13.3404 115.329 13.2066C114.98 13.0728 114.451 12.9489 113.741 12.8347C112.766 12.6696 111.999 12.4499 111.441 12.1768C110.883 11.9031 110.494 11.573 110.272 11.1845C110.05 10.7966 109.94 10.3229 109.94 9.76317C109.94 8.89847 110.285 8.2056 110.975 7.68396C111.666 7.16231 112.569 6.90149 113.684 6.90149C114.963 6.90149 115.965 7.19116 116.687 7.76926C117.409 8.34798 117.782 9.15929 117.808 10.202H116.04C116.014 9.52812 115.793 9.05435 115.375 8.78064C114.957 8.50754 114.393 8.37068 113.684 8.37068C113.114 8.37068 112.644 8.49158 112.277 8.73338C111.91 8.97518 111.726 9.30596 111.726 9.72573C111.726 10.0307 111.793 10.2695 111.926 10.4413C112.059 10.6131 112.306 10.7629 112.667 10.8893C113.028 11.0163 113.557 11.1372 114.254 11.252C115.217 11.4177 115.971 11.6307 116.516 11.8909C117.06 12.1517 117.444 12.4726 117.666 12.8544C117.887 13.2361 117.999 13.7129 117.999 14.2855C117.999 15.2269 117.625 15.9615 116.877 16.4893C116.13 17.0171 115.154 17.281 113.95 17.281C112.67 17.281 111.65 16.995 110.89 16.4224L110.891 16.4206Z" fill="#F9F7E7"/>
</svg>
