<svg width="100" height="26" viewBox="0 0 100 26" fill="none" xmlns="http://www.w3.org/2000/svg">
<path d="M31.2373 6.87982H33.191V11.6009H33.2709C33.6295 11.3095 34.5266 10.8433 35.7626 10.8433C38.1148 10.8433 39.9887 12.2422 39.9887 15.9919C39.9887 19.3918 38.1746 21.8205 34.5266 21.8205C33.0317 21.8205 31.975 21.568 31.2374 21.2181L31.2373 6.87982ZM38.0151 16.2056C38.0151 13.3107 36.7194 12.4753 35.2642 12.4753C34.4469 12.4753 33.6295 12.825 33.2109 13.3885V19.9553C33.6095 20.1107 34.1678 20.2078 34.7658 20.2078C36.7194 20.2079 38.0151 18.9062 38.0151 16.2056Z" fill="#F9F7E7"/>
<path d="M47.8838 12.8058C47.4852 12.7086 47.0467 12.6502 46.6479 12.6502C45.6312 12.6502 44.5547 13.0583 43.9965 13.8742V21.6263H42.043V10.9406H43.558L43.9767 12.2423H44.0563C44.5348 11.3874 45.5116 10.7463 46.8273 10.7463C47.2857 10.7463 47.6445 10.7851 47.8837 10.8434L47.8838 12.8058Z" fill="#F9F7E7"/>
<path d="M50.375 6.6272C51.1324 6.6272 51.6905 7.17129 51.6905 7.92903C51.6905 8.62841 51.1324 9.17238 50.375 9.17238C49.6572 9.17238 49.0791 8.62828 49.0791 7.92903C49.0791 7.17129 49.6572 6.6272 50.375 6.6272ZM49.4579 10.9405H51.4315V21.6262H49.4579V10.9405Z" fill="#F9F7E7"/>
<path d="M62.5354 21.5486C62.5354 24.3853 60.6616 25.7842 57.8707 25.7842C55.618 25.7842 54.5218 25.0653 54.0234 24.5602L55.1596 23.0642C55.6979 23.6666 56.6348 24.1523 58.0103 24.1523C59.8441 24.1523 60.6017 23.3363 60.6017 21.5292V20.6744H60.522C60.1632 20.9854 59.286 21.4515 58.0103 21.4515C55.7378 21.4515 53.7842 20.1695 53.7842 16.4584C53.7842 13.1748 55.5184 10.824 59.1267 10.824C60.6814 10.824 61.778 11.0572 62.5354 11.4069V21.5486ZM58.9673 12.4366C57.0335 12.4366 55.7778 13.6993 55.7778 16.3029C55.7778 19.1006 57.0335 19.839 58.4889 19.839C59.3061 19.839 60.1036 19.5087 60.582 18.9258V12.7086C60.1434 12.5338 59.6052 12.4366 58.9673 12.4366Z" fill="#F9F7E7"/>
<path d="M73.7595 14.2821V21.6263H71.7861V14.6319C71.7861 13.3496 71.1281 12.4753 69.7727 12.4753C68.4969 12.4753 67.5399 13.2913 67.1611 14.1462V21.6262H65.1875V6.87982H67.1611V12.0868H67.2408C67.6395 11.6397 68.6563 10.7849 70.3306 10.7849C72.4438 10.7849 73.7595 12.0479 73.7595 14.2821Z" fill="#F9F7E7"/>
<path d="M76.6505 18.6151V12.4561H75.0957V11.2515L76.6505 10.863L77.2883 8.16235H78.6041V10.9408H81.5346V12.4561H78.6041V18.5762C78.6041 19.6254 79.1622 20.0917 80.0594 20.0917C80.8366 20.0917 81.355 19.9168 81.6939 19.6836L82.2123 21.1798C81.8135 21.4322 81.056 21.7236 79.5809 21.7236C77.747 21.7236 76.6505 20.7911 76.6505 18.6151Z" fill="#F9F7E7"/>
<path d="M83.8867 8.00671H86.3784V21.6264H83.8867V8.00671Z" fill="#F9F7E7"/>
<path d="M89.4884 8.00671H93.5749C98.0005 8.00671 99.9939 10.144 99.9939 14.5738C99.9939 18.4207 98.4191 21.6264 93.5949 21.6264H89.4883L89.4884 8.00671ZM91.9803 19.5862H93.4353C96.3658 19.5862 97.4223 17.9153 97.4223 14.8067C97.4223 11.2319 95.8873 10.0467 93.3956 10.0467H91.9803V19.5862Z" fill="#F9F7E7"/>
<path d="M9.0969 8.98753V13.1538C9.0969 15.4551 11.0109 17.3205 13.3719 17.3205C15.7329 17.3205 17.6468 15.4551 17.6468 13.1538C17.6468 10.8527 15.7329 8.98727 13.3719 8.98727C13.3666 8.98727 13.3615 8.98766 13.3562 8.98766L9.0969 8.98753Z" fill="#F9F7E7"/>
<path d="M14.0466 3.49768e-07H9.09693V4.82076H13.3563C13.3615 4.82076 13.3667 4.82076 13.3719 4.82076C18.0939 4.82076 21.922 8.55147 21.922 13.154C21.922 17.7564 18.0939 21.4871 13.3719 21.4871C8.64989 21.4871 4.82178 17.7564 4.82178 13.154V8.98757H0V12.8005H0.0314875C0.0372985 19.876 5.92412 25.6099 13.185 25.6099C20.4496 25.6099 26.339 19.8702 26.339 12.7898C26.339 5.99167 20.9092 0.432934 14.0466 3.49768e-07Z" fill="#F9F7E7"/>
<path d="M4.8083 0H0.0303002V4.85605H4.8083V0Z" fill="#F9F7E7"/>
</svg>
