<svg width="133" height="18" viewBox="0 0 133 18" fill="none" xmlns="http://www.w3.org/2000/svg">
<g clip-path="url(#clip0_4924_310)">
<path d="M12.3214 15.2957C12.3753 15.358 12.4275 15.4296 12.478 15.5095C12.5285 15.5903 12.5705 15.6703 12.6042 15.7502C12.6379 15.831 12.6547 15.8891 12.6547 15.9244C12.6547 15.969 12.6093 16.0431 12.5184 16.1449C12.4275 16.2476 12.3113 16.3688 12.1699 16.5068C12.0285 16.6449 11.8737 16.788 11.7054 16.9352C11.537 17.0817 11.3738 17.2248 11.2155 17.3628C11.0573 17.5017 10.9159 17.622 10.7913 17.7247C10.6668 17.8265 10.5809 17.9006 10.5338 17.9452L10.2914 17.9721C9.77971 17.6153 9.38753 17.1406 9.11483 16.5464C8.84215 15.9539 8.67887 15.3042 8.625 14.5997C7.97189 15.1527 7.33057 15.7107 6.70104 16.272C6.0715 16.8342 5.43018 17.3922 4.77707 17.9452H4.51449L0.848351 14.8L0.757462 14.5997C0.757462 14.5282 0.826477 14.4305 0.964508 14.3051C1.10254 14.1806 1.25572 14.0291 1.42404 13.8506C1.59235 13.6722 1.74553 13.4711 1.88356 13.248C2.02159 13.025 2.09061 12.775 2.09061 12.499V4.1349C2.09061 3.94805 2.08051 3.75364 2.06031 3.55249C2.04011 3.35218 1.99803 3.16703 1.93407 2.99785C1.8701 2.82785 1.78088 2.68728 1.66643 2.57619C1.55197 2.46426 1.40047 2.40029 1.21196 2.38178C1.18503 2.40029 1.13958 2.44238 1.07562 2.50887C1.01165 2.57619 0.944324 2.64521 0.873619 2.71676C0.802915 2.7883 0.738967 2.85058 0.681724 2.9036C0.624499 2.95746 0.585786 2.98441 0.565584 2.98441C0.478057 2.98441 0.390529 2.93306 0.303002 2.83038C0.215475 2.7277 0.138048 2.64102 0.0707045 2.56947L0 2.38178C0 2.34643 0.0521752 2.26816 0.156543 2.14781C0.26091 2.02746 0.392201 1.88943 0.550433 1.73289C0.708665 1.57719 0.882031 1.4097 1.07056 1.23127C1.2591 1.05284 1.44088 0.882834 1.61595 0.72293C1.791 0.562182 1.94418 0.421634 2.07548 0.301271C2.20677 0.180908 2.29598 0.0984311 2.34311 0.0538401L2.60569 0.0269165C2.82789 0.178409 3.06017 0.356842 3.30257 0.562199C3.54496 0.767556 3.76545 0.997319 3.96409 1.25149C4.16272 1.50566 4.32599 1.78172 4.45392 2.0805C4.58185 2.38013 4.64581 2.69911 4.64581 3.03744V11.2947C4.64581 11.6339 4.63907 11.9343 4.62561 12.1978C4.61215 12.4612 4.57006 12.7019 4.49937 12.9207C4.42867 13.1387 4.32094 13.3398 4.17618 13.5225C4.03143 13.7051 3.83111 13.8903 3.57527 14.078C3.89845 14.3549 4.21828 14.6292 4.53472 14.9011C4.85117 15.1729 5.17773 15.438 5.51438 15.6973L8.57455 13.0478V2.68981L8.07967 2.24795C8.05947 2.26647 8.02075 2.30602 7.96353 2.3683C7.9063 2.43142 7.8457 2.4937 7.78173 2.55599C7.71777 2.61828 7.65886 2.67466 7.60499 2.72348C7.55113 2.77229 7.5141 2.7967 7.4939 2.7967C7.44004 2.7967 7.38281 2.77481 7.32221 2.73022C7.2616 2.68563 7.20269 2.62923 7.14546 2.56273C7.08824 2.4954 7.03942 2.42639 6.99902 2.35484C6.95862 2.28413 6.9317 2.22101 6.91822 2.16799C6.91822 2.12339 6.96703 2.04511 7.06466 1.93402C7.16229 1.82209 7.28517 1.69501 7.4333 1.55192C7.58143 1.40969 7.74469 1.2582 7.92313 1.09745C8.10156 0.936698 8.27156 0.785206 8.43316 0.642125C8.59475 0.499889 8.73783 0.377009 8.86238 0.274331C8.98694 0.171652 9.07279 0.0984311 9.11991 0.0538228H9.4027L11.5337 1.93992L11.6347 2.16799C11.6347 2.2126 11.6111 2.26393 11.564 2.32202C11.5169 2.38011 11.463 2.43816 11.4024 2.4954C11.3418 2.55347 11.2795 2.60734 11.2156 2.65615C11.1516 2.70581 11.1061 2.74283 11.0792 2.76978V14.9877C11.0792 15.0416 11.0809 15.1064 11.0843 15.1821C11.0876 15.2579 11.0994 15.3336 11.1196 15.4094C11.1398 15.4851 11.1684 15.5474 11.2055 15.5971C11.2425 15.6459 11.2913 15.6703 11.3519 15.6703C11.4866 15.6703 11.6078 15.6324 11.7155 15.5567C11.8232 15.4809 11.9208 15.3942 12.0084 15.2958L12.1801 15.2015C12.2205 15.2015 12.2676 15.2335 12.3214 15.2957Z" fill="#F9F7E7"/>
<path d="M16.4665 15.2284C16.5069 15.2284 16.5524 15.2537 16.6029 15.3025C16.6534 15.3513 16.7022 15.4094 16.7493 15.4759C16.7964 15.5432 16.8368 15.6122 16.8705 15.6838C16.9042 15.7553 16.921 15.8084 16.921 15.8445C16.921 15.9068 16.8789 15.996 16.7948 16.1122C16.7106 16.2283 16.6029 16.3554 16.4716 16.4934C16.3403 16.6314 16.1938 16.7762 16.0322 16.9285C15.8707 17.08 15.7158 17.2223 15.5677 17.3561C15.4195 17.4899 15.2849 17.6103 15.1637 17.718C15.0425 17.8249 14.955 17.9006 14.9011 17.9452H14.6385C14.2547 17.633 13.8743 17.325 13.4973 17.022C13.1202 16.719 12.7398 16.4244 12.356 16.1383L12.2348 15.9245C12.2348 15.8706 12.2651 15.7974 12.3257 15.704C12.3863 15.6097 12.4553 15.5121 12.5328 15.4094C12.6102 15.3067 12.6893 15.2108 12.7701 15.1216C12.8509 15.0324 12.9115 14.9608 12.9519 14.9078V3.26551C12.9519 2.97093 12.8963 2.75463 12.7853 2.61577C12.6742 2.47774 12.5462 2.37086 12.4015 2.2951C12.2567 2.21935 12.1153 2.15202 11.9773 2.09395C11.8393 2.03673 11.7433 1.93993 11.6895 1.80612C11.6895 1.74384 11.6928 1.67483 11.6996 1.59907C11.7063 1.52332 11.7214 1.45179 11.745 1.38531C11.7686 1.31798 11.8006 1.26243 11.8409 1.21782C11.8813 1.17321 11.9318 1.15049 11.9924 1.15049C12.1473 1.15049 12.3055 1.19594 12.4671 1.28432C12.6287 1.37353 12.797 1.41814 12.9721 1.41814C13.2684 1.41814 13.5495 1.35418 13.8154 1.22457C14.0814 1.09497 14.3456 0.950203 14.6082 0.789454C14.8708 0.628706 15.1385 0.483935 15.4111 0.354334C15.6838 0.225559 15.9784 0.160767 16.2949 0.160767C16.3622 0.160767 16.4127 0.182657 16.4464 0.227248C16.48 0.271839 16.5036 0.323187 16.5171 0.381274C16.5305 0.439362 16.5373 0.504154 16.5373 0.575686C16.5373 0.647218 16.5406 0.709511 16.5474 0.762531C16.5002 0.887927 16.3976 0.992294 16.2393 1.07731C16.0811 1.16232 15.9161 1.2692 15.7444 1.3988C15.5728 1.52758 15.4196 1.70179 15.2849 1.92061C15.1503 2.13942 15.0829 2.44915 15.0829 2.85061V15.3227C15.1907 15.4027 15.29 15.4877 15.3809 15.5769C15.4717 15.6661 15.5711 15.7553 15.6788 15.8445C15.7125 15.8176 15.7663 15.7688 15.8404 15.6972C15.9145 15.6257 15.9919 15.5567 16.0727 15.4894C16.1535 15.4229 16.2309 15.3623 16.305 15.3092C16.379 15.2554 16.4329 15.2284 16.4665 15.2284Z" fill="#F9F7E7"/>
<path d="M20.6923 15.2285C20.7327 15.2285 20.7781 15.2537 20.8286 15.3025C20.8791 15.3513 20.9296 15.412 20.9801 15.4826C21.0306 15.5542 21.0727 15.6257 21.1063 15.6973C21.14 15.7688 21.1602 15.8269 21.1669 15.8706C21.1669 15.9245 21.1232 16.0045 21.0357 16.1122C20.9481 16.2191 20.8354 16.342 20.6973 16.48C20.5593 16.618 20.4078 16.7636 20.2428 16.9151C20.0779 17.0666 19.9197 17.2114 19.7682 17.3494C19.6167 17.4883 19.482 17.6103 19.3642 17.718C19.2463 17.8249 19.1639 17.9007 19.1167 17.9453H18.8844L16.5918 16.1122L16.4808 15.8706C16.4808 15.8353 16.5094 15.7772 16.5666 15.6973C16.6238 15.6164 16.6895 15.5323 16.7635 15.4431C16.8376 15.3539 16.91 15.2689 16.9807 15.1889C17.0514 15.1081 17.1002 15.05 17.1271 15.0147V7.01247C17.0733 7.01247 16.984 7.02088 16.8595 7.03857C16.7349 7.05708 16.6087 7.06382 16.4808 7.05877C16.3528 7.05457 16.24 7.03185 16.1424 6.99229C16.0448 6.95189 15.996 6.86941 15.996 6.74486V5.94194C16.0431 5.8258 16.1374 5.73659 16.2788 5.67431C16.4201 5.61203 16.5784 5.53376 16.7534 5.4395C16.9285 5.34607 17.1052 5.21225 17.2837 5.03804C17.4621 4.86466 17.6119 4.60797 17.7331 4.26879C17.8139 4.02808 17.8846 3.7697 17.9452 3.4928C18.0058 3.21589 18.058 2.93059 18.1017 2.63602C18.1455 2.34144 18.1842 2.05192 18.2179 1.76662C18.2515 1.48132 18.2852 1.20862 18.3189 0.950243C18.3323 0.896378 18.3609 0.850081 18.4047 0.809696C18.4485 0.76931 18.4872 0.73563 18.5208 0.709534H19.0965C19.2446 0.709534 19.3187 0.802956 19.3187 0.990645V5.31241C19.386 5.31241 19.5055 5.30147 19.6772 5.27959C19.8489 5.25687 20.0223 5.24593 20.1974 5.24593C20.3724 5.24593 20.5273 5.27034 20.662 5.31915C20.7966 5.36881 20.8639 5.4597 20.8639 5.59352C20.8639 5.90576 20.8656 6.15573 20.869 6.34342C20.8724 6.53026 20.8656 6.67755 20.8488 6.78443C20.832 6.89216 20.7966 6.96287 20.7428 6.99905C20.6889 7.0344 20.6047 7.0546 20.4903 7.05881C20.3758 7.06386 20.2243 7.05712 20.0358 7.0386C19.8473 7.02094 19.6082 7.01251 19.3187 7.01251V15.2689C19.4332 15.3489 19.5392 15.4381 19.6369 15.5365C19.7345 15.635 19.8405 15.7242 19.955 15.8042C19.9954 15.7688 20.0493 15.7192 20.1166 15.6569C20.1839 15.5946 20.2529 15.5323 20.3236 15.4692C20.3943 15.4069 20.4633 15.3514 20.5307 15.3026C20.598 15.2537 20.6519 15.2285 20.6923 15.2285Z" fill="#F9F7E7"/>
<path d="M24.685 15.1755C24.7321 15.1755 24.786 15.2041 24.8466 15.2622C24.9072 15.3202 24.9627 15.3876 25.0132 15.4633C25.0637 15.5391 25.1075 15.6165 25.1445 15.6973C25.1815 15.7773 25.2034 15.8446 25.2102 15.8976C25.2102 15.9422 25.163 16.0205 25.0688 16.1324C24.9745 16.2435 24.8567 16.3689 24.7153 16.507C24.5739 16.645 24.4156 16.7897 24.2406 16.9412C24.0655 17.0936 23.8989 17.2358 23.7407 17.3696C23.5824 17.5035 23.4394 17.6238 23.3114 17.7315C23.1835 17.8384 23.096 17.91 23.0489 17.9453L22.8267 17.9722C22.389 17.7399 22.0726 17.4193 21.8773 17.0086C21.682 16.5987 21.5844 16.1164 21.5844 15.5635V7.09246L21.5036 6.87869C21.4295 6.87869 21.3555 6.91405 21.2814 6.98558C21.2074 7.05711 21.1434 7.1194 21.0895 7.17242L21.1097 7.14633C21.0626 7.17242 21.0087 7.21786 20.9481 7.28015C20.8875 7.34244 20.8303 7.37357 20.7764 7.37357C20.6956 7.37357 20.6249 7.3315 20.5643 7.24649C20.5037 7.16148 20.4465 7.09246 20.3926 7.0386L20.3018 6.82483C20.3018 6.78022 20.3455 6.69354 20.433 6.56392C20.5206 6.4343 20.6317 6.28281 20.7663 6.1086C20.901 5.93521 21.0508 5.75259 21.2158 5.55985C21.3807 5.3688 21.5373 5.18532 21.6854 5.01195C21.8335 4.83774 21.9665 4.68372 22.0843 4.54989C22.2022 4.41607 22.2813 4.32265 22.3217 4.26878L22.5035 4.18882C22.5371 4.18882 22.6062 4.23343 22.7105 4.32265C22.8149 4.41186 22.9361 4.52549 23.0741 4.6635C23.2121 4.80237 23.3586 4.95387 23.5134 5.11882C23.6683 5.28378 23.8164 5.44201 23.9578 5.5935C24.0992 5.74584 24.2238 5.88133 24.3315 6.0017C24.4392 6.12206 24.5133 6.20454 24.5537 6.24913L24.6446 6.43682C24.6446 6.49909 24.6092 6.56644 24.5385 6.63712C24.4678 6.70866 24.3854 6.776 24.2911 6.83827C24.1969 6.90055 24.1009 6.95862 24.0033 7.01248C23.9057 7.0655 23.8299 7.11011 23.776 7.14631V14.8809C23.776 15.0324 23.7996 15.1755 23.8467 15.3093C23.8939 15.4431 23.9949 15.5096 24.1497 15.5096C24.2238 15.5096 24.2928 15.4877 24.3568 15.4431C24.4207 15.3985 24.4796 15.3404 24.5335 15.2689L24.685 15.1755ZM23.776 1.36517C23.776 1.5882 23.7457 1.80619 23.6851 2.0208C23.6245 2.23457 23.5488 2.44246 23.4579 2.64277C23.367 2.84392 23.266 3.03749 23.1549 3.22517C23.0438 3.41286 22.9344 3.58623 22.8267 3.74698L22.6449 3.86732H22.5035L22.3419 3.7739C22.2476 3.6485 22.1449 3.49532 22.0338 3.31184C21.9228 3.1292 21.8167 2.93563 21.7157 2.73028C21.6147 2.52492 21.5306 2.31703 21.4632 2.10747C21.3959 1.8979 21.3622 1.70432 21.3622 1.5259C21.3622 1.04364 21.4733 0.696049 21.6955 0.481436C21.9177 0.267668 22.2207 0.160767 22.6045 0.160767C22.7526 0.160767 22.8974 0.185174 23.0388 0.233988C23.1801 0.283646 23.3064 0.356867 23.4175 0.45534C23.5286 0.552968 23.6161 0.678364 23.6801 0.829874C23.744 0.981384 23.776 1.15982 23.776 1.36517Z" fill="#F9F7E7"/>
<path d="M38.263 15.4565C38.3169 15.4565 38.3741 15.4851 38.4347 15.5432C38.4953 15.6013 38.5526 15.6686 38.6064 15.7435C38.6603 15.8201 38.7057 15.8975 38.7428 15.9783C38.7798 16.0583 38.7983 16.1206 38.7983 16.1652C38.7983 16.1921 38.7562 16.2502 38.6721 16.3394C38.5879 16.4286 38.4802 16.5338 38.3489 16.6541C38.2176 16.7745 38.0728 16.9041 37.9146 17.0421C37.7564 17.1802 37.6049 17.3115 37.4601 17.4369C37.3154 17.5614 37.1875 17.6708 37.0763 17.7643C36.9653 17.8585 36.8895 17.9183 36.8491 17.9452L36.6471 17.9721C36.3374 17.8383 36.0815 17.6531 35.8795 17.4166C35.6775 17.1801 35.5176 16.9125 35.3998 16.6137C35.282 16.3149 35.1995 15.9935 35.1524 15.6501C35.1053 15.3067 35.0817 14.9566 35.0817 14.5997V7.3196C34.9672 7.20431 34.8494 7.09236 34.7282 6.98547C34.607 6.87859 34.4824 6.76665 34.3545 6.6505C34.0448 6.85585 33.7384 7.07215 33.4354 7.29938C33.1325 7.52746 32.8227 7.74376 32.5063 7.94912V17.3695C32.5063 17.4587 32.4827 17.5235 32.4356 17.5639C32.3884 17.6043 32.338 17.6237 32.2841 17.6237H30.5268C30.4729 17.6237 30.4224 17.6043 30.3753 17.5639C30.3282 17.5235 30.3046 17.4587 30.3046 17.3695V7.5342C30.3046 7.42731 30.2962 7.31117 30.2793 7.18576C30.2625 7.06119 30.2322 6.94505 30.1884 6.83817C30.1447 6.73128 30.0874 6.64207 30.0167 6.57053C29.946 6.499 29.8568 6.46365 29.7491 6.46365C29.6885 6.50826 29.5606 6.59494 29.3653 6.72456C29.1701 6.85418 28.9664 6.99219 28.7543 7.13948C28.5422 7.28677 28.3503 7.41806 28.1786 7.5342C28.007 7.65034 27.9144 7.71263 27.9009 7.72104V17.3695C27.9009 17.4587 27.874 17.5235 27.8201 17.5639C27.7662 17.6043 27.7124 17.6237 27.6585 17.6237H25.9113C25.8574 17.6237 25.8103 17.5993 25.7699 17.5505C25.7295 17.5016 25.7093 17.441 25.7093 17.3695V7.37345C25.7093 7.17735 25.6638 7.0368 25.5729 6.95179C25.4821 6.86678 25.3592 6.82471 25.2043 6.82471C25.137 6.82471 25.0747 6.84237 25.0175 6.87857C24.9602 6.91392 24.908 6.95853 24.8609 7.01239L24.7094 7.11928C24.6219 7.11928 24.5579 7.07467 24.5175 6.98545C24.4771 6.89624 24.4334 6.82471 24.3862 6.77084L24.4266 6.85165C24.393 6.80704 24.3593 6.75822 24.3256 6.70436C24.292 6.6505 24.2751 6.59748 24.2751 6.54361C24.2751 6.499 24.3122 6.41904 24.3862 6.3029C24.4603 6.18676 24.5562 6.05294 24.6741 5.90144C24.7919 5.74995 24.9198 5.5892 25.0579 5.42003C25.1959 5.25002 25.3305 5.08927 25.4619 4.93776C25.5932 4.78625 25.7127 4.64993 25.8204 4.52957C25.9281 4.4092 26.0055 4.32252 26.0527 4.26866C26.1066 4.2333 26.1571 4.21564 26.2042 4.21564C26.3254 4.21564 26.4718 4.30232 26.6435 4.47655C26.8152 4.64993 26.9835 4.8578 27.1485 5.09851C27.3134 5.33922 27.4582 5.58245 27.5828 5.82736C27.7073 6.07312 27.7797 6.26753 27.7999 6.40977L30.8702 4.21564L31.1227 4.24173C31.2641 4.37556 31.4071 4.5321 31.5519 4.71052C31.6966 4.88893 31.8313 5.07662 31.9559 5.27272C32.0804 5.46882 32.1898 5.67587 32.2841 5.89469C32.3784 6.11351 32.4524 6.32981 32.5063 6.54358C32.9709 6.23134 33.4271 5.90394 33.8748 5.55971C34.3226 5.21717 34.7787 4.87968 35.2433 4.54975H35.213L35.6271 4.24172H35.8897L37.9298 6.07562L38.0207 6.30287C38.0274 6.36514 37.9971 6.43669 37.9298 6.51664C37.8624 6.59744 37.7833 6.67571 37.6924 6.75145C37.6015 6.82719 37.5089 6.89789 37.4147 6.96522C37.3204 7.0317 37.2531 7.08389 37.2127 7.11924V15.4564C37.2127 15.4918 37.2144 15.5364 37.2177 15.5903C37.2211 15.6433 37.2278 15.6971 37.2379 15.7502C37.248 15.804 37.2666 15.8511 37.2935 15.8907C37.3204 15.9311 37.3575 15.9513 37.4046 15.9513C37.5258 15.9513 37.6537 15.8974 37.7884 15.7906C37.923 15.6837 38.0375 15.581 38.1318 15.4825C38.152 15.4825 38.1722 15.4783 38.1924 15.4691C38.2126 15.4607 38.2361 15.4565 38.263 15.4565Z" fill="#F9F7E7"/>
<path d="M46.9125 15.4297C46.9529 15.4297 47 15.4583 47.0539 15.5164C47.1078 15.5744 47.1566 15.6392 47.2004 15.7108C47.2441 15.7823 47.2828 15.853 47.3165 15.9245C47.3502 15.9961 47.367 16.0499 47.367 16.0853C47.367 16.1206 47.3266 16.188 47.2458 16.2856C47.165 16.3841 47.0607 16.4977 46.9327 16.6273C46.8048 16.7569 46.6651 16.8907 46.5136 17.0288C46.3621 17.1668 46.2173 17.2989 46.0793 17.4235C45.9413 17.548 45.8167 17.6574 45.7056 17.7509C45.5945 17.8451 45.5188 17.9099 45.4784 17.9453L45.3168 17.9991C45.1283 17.9629 44.9532 17.8763 44.7916 17.7382C44.63 17.5994 44.4853 17.4344 44.3573 17.2425C44.2294 17.0506 44.12 16.8461 44.0291 16.6273C43.9382 16.4085 43.8692 16.2014 43.8221 16.0045C43.4315 16.3352 43.0393 16.6626 42.6454 16.9883C42.2516 17.314 41.8526 17.633 41.4486 17.9453H41.2163C40.7383 17.5792 40.3411 17.1424 40.0246 16.634C39.7081 16.1257 39.454 15.5769 39.2621 14.9878C39.0702 14.3986 38.9355 13.7792 38.8581 13.1278C38.7806 12.4764 38.7419 11.8249 38.7419 11.1744C38.7419 9.50626 39.0416 8.0982 39.6408 6.9519C40.24 5.80559 41.1692 4.89326 42.4283 4.21576H42.6101C42.7178 4.27804 42.8929 4.36894 43.1353 4.48929C43.3776 4.61048 43.647 4.7443 43.9432 4.89074C44.2395 5.03803 44.5441 5.19204 44.8572 5.35281C45.1703 5.51357 45.4565 5.66758 45.7157 5.81487C45.9749 5.96131 46.187 6.09344 46.352 6.20958C46.5169 6.32572 46.5994 6.40989 46.5994 6.46376C46.5994 6.52603 46.5624 6.59505 46.4883 6.6708C46.4142 6.74656 46.3318 6.82734 46.2409 6.91151C46.15 6.99652 46.0675 7.09246 45.9934 7.19934C45.9194 7.30623 45.8824 7.42742 45.8824 7.56124V15.2689C45.8824 15.3135 45.884 15.3674 45.8874 15.4296C45.8908 15.4919 45.8992 15.5542 45.9127 15.6165C45.9261 15.6796 45.9463 15.7326 45.9733 15.7772C46.0002 15.8218 46.0406 15.8446 46.0945 15.8446C46.2156 15.8446 46.3335 15.8084 46.4479 15.7368C46.5624 15.6661 46.6634 15.5811 46.7509 15.4827C46.8183 15.4473 46.8721 15.4297 46.9125 15.4297ZM43.711 7.40053L41.5395 6.16922C41.3982 6.46379 41.2854 6.77603 41.2012 7.10596C41.117 7.43588 41.0531 7.77253 41.0093 8.11592C40.9656 8.46015 40.9369 8.80521 40.9235 9.15365C40.91 9.50124 40.9033 9.84042 40.9033 10.1703C40.9033 10.3403 40.9134 10.5945 40.9336 10.9328C40.9538 11.272 40.9858 11.6516 41.0295 12.0707C41.0733 12.4899 41.1305 12.9183 41.2012 13.3551C41.2719 13.7927 41.3611 14.19 41.4688 14.546C41.5766 14.9028 41.7011 15.1974 41.8425 15.4297C41.9839 15.662 42.1489 15.7773 42.3374 15.7773C42.398 15.7773 42.4923 15.7327 42.6202 15.6435C42.7481 15.5542 42.8811 15.4541 43.0191 15.3422C43.1572 15.2311 43.2868 15.1175 43.408 15.0013C43.5292 14.8852 43.6201 14.8002 43.6807 14.7471H43.711V7.40053Z" fill="#F9F7E7"/>
<path d="M51.2797 15.2285C51.3201 15.2285 51.3655 15.2537 51.416 15.3025C51.4665 15.3513 51.517 15.412 51.5675 15.4826C51.618 15.5542 51.6601 15.6257 51.6937 15.6973C51.7274 15.7688 51.7476 15.8269 51.7544 15.8706C51.7544 15.9245 51.7106 16.0045 51.6231 16.1122C51.5355 16.2191 51.4228 16.342 51.2847 16.48C51.1467 16.618 50.9952 16.7636 50.8302 16.9151C50.6653 17.0666 50.5071 17.2114 50.3556 17.3494C50.2041 17.4883 50.0694 17.6103 49.9516 17.718C49.8337 17.8249 49.7513 17.9007 49.7041 17.9453H49.4718L47.1792 16.1122L47.0682 15.8706C47.0682 15.8353 47.0968 15.7772 47.154 15.6973C47.2112 15.6164 47.2769 15.5323 47.3509 15.4431C47.425 15.3539 47.4974 15.2689 47.5681 15.1889C47.6388 15.1081 47.6876 15.05 47.7145 15.0147V7.01247C47.6607 7.01247 47.5714 7.02088 47.4469 7.03857C47.3223 7.05708 47.1961 7.06382 47.0682 7.05877C46.9402 7.05457 46.8274 7.03185 46.7298 6.99229C46.6322 6.95189 46.5834 6.86941 46.5834 6.74486V5.94194C46.6305 5.8258 46.7248 5.73659 46.8662 5.67431C47.0075 5.61203 47.1658 5.53376 47.3408 5.4395C47.5159 5.34607 47.6926 5.21225 47.8711 5.03804C48.0495 4.86466 48.1993 4.60797 48.3205 4.26879C48.4013 4.02808 48.472 3.7697 48.5326 3.4928C48.5932 3.21589 48.6454 2.93059 48.6891 2.63602C48.7329 2.34144 48.7716 2.05192 48.8053 1.76662C48.8389 1.48132 48.8726 1.20862 48.9063 0.950243C48.9197 0.896378 48.9483 0.850081 48.9921 0.809696C49.0359 0.76931 49.0746 0.73563 49.1082 0.709534H49.6839C49.832 0.709534 49.9061 0.802956 49.9061 0.990645V5.31241C49.9734 5.31241 50.0929 5.30147 50.2646 5.27959C50.4363 5.25687 50.6097 5.24593 50.7848 5.24593C50.9598 5.24593 51.1147 5.27034 51.2494 5.31915C51.384 5.36881 51.4513 5.4597 51.4513 5.59352C51.4513 5.90576 51.453 6.15573 51.4564 6.34342C51.4598 6.53026 51.453 6.67755 51.4362 6.78443C51.4194 6.89216 51.384 6.96287 51.3302 6.99905C51.2763 7.0344 51.1921 7.0546 51.0777 7.05881C50.9632 7.06386 50.8117 7.05712 50.6232 7.0386C50.4347 7.02094 50.1956 7.01251 49.9061 7.01251V15.2689C50.0206 15.3489 50.1266 15.4381 50.2243 15.5365C50.3219 15.635 50.4279 15.7242 50.5424 15.8042C50.5828 15.7688 50.6367 15.7192 50.704 15.6569C50.7713 15.5946 50.8403 15.5323 50.911 15.4692C50.9817 15.4069 51.0507 15.3514 51.1181 15.3026C51.1854 15.2537 51.2393 15.2285 51.2797 15.2285Z" fill="#F9F7E7"/>
<path d="M56.162 4.34953C56.1957 4.43875 56.2714 4.62811 56.3893 4.91763C56.5071 5.208 56.6434 5.54885 56.7983 5.9419C56.9531 6.3341 57.1147 6.7465 57.2831 7.17909C57.4514 7.61252 57.608 8.01399 57.7527 8.38346C57.8975 8.75377 58.017 9.06855 58.1112 9.32692C58.2055 9.58614 58.2526 9.72838 58.2526 9.75532C58.2526 9.80919 58.155 9.90935 57.9598 10.0566C57.7645 10.2039 57.5154 10.3781 57.2124 10.5784C56.9094 10.7796 56.5778 10.9933 56.2176 11.2206C55.8574 11.4487 55.5106 11.665 55.1773 11.8695C54.844 12.0748 54.5478 12.2558 54.2886 12.4115C54.0293 12.568 53.8526 12.6774 53.7583 12.7397C53.8122 13.052 53.8863 13.3802 53.9805 13.7236C54.0748 14.067 54.201 14.3859 54.3593 14.6797C54.5175 14.9743 54.7094 15.2175 54.9349 15.4094C55.1605 15.6013 55.4349 15.6972 55.7581 15.6972C55.8658 15.6972 56.0156 15.6619 56.2075 15.5903C56.3994 15.5188 56.5946 15.4296 56.7932 15.3227C56.9919 15.215 57.1753 15.0997 57.3437 14.9743C57.512 14.8497 57.6265 14.7335 57.6871 14.6267L57.7982 14.5997C57.8453 14.5997 57.889 14.6241 57.9294 14.673C57.9698 14.7226 58.0035 14.7824 58.0304 14.8539C58.0574 14.9254 58.0792 14.9987 58.0961 15.0744C58.1129 15.151 58.1213 15.215 58.1213 15.2688C58.1213 15.2865 58.118 15.3134 58.1112 15.3488C58.1045 15.385 58.0944 15.4119 58.0809 15.4296L54.9602 17.9452L54.7582 17.9991C54.0983 17.7491 53.5429 17.3477 53.0917 16.7947C52.6406 16.2409 52.2787 15.608 52.006 14.8943C51.7334 14.1806 51.5381 13.4248 51.4203 12.6261C51.3024 11.8274 51.2435 11.0531 51.2435 10.304C51.2435 9.42117 51.3546 8.625 51.5768 7.9155C51.799 7.20601 52.1138 6.5933 52.5211 6.07571C52.9285 5.55811 53.4217 5.14066 54.0007 4.82421C54.5798 4.50776 55.2227 4.29567 55.9297 4.18878L56.162 4.34953ZM56.0004 9.88913L54.3643 5.96798L53.9502 6.35682C53.7348 6.90977 53.5951 7.48966 53.5311 8.09647C53.4671 8.70329 53.4352 9.30926 53.4352 9.91607C53.4352 10.1753 53.4436 10.4404 53.4604 10.7122C53.4773 10.9841 53.4991 11.25 53.5261 11.5084L56.0004 9.88913Z" fill="#F9F7E7"/>
<path d="M68.2183 5.17098e-05C69.3629 5.17098e-05 70.4032 0.223076 71.3391 0.669142C72.275 1.11521 73.0762 1.74222 73.7428 2.54934C74.4093 3.35646 74.9244 4.32938 75.288 5.46643C75.6516 6.60432 75.8334 7.86002 75.8334 9.23357C75.8334 10.0904 75.7711 10.8798 75.6465 11.6019C75.522 12.3249 75.3385 13.0116 75.0961 13.6631C74.8537 14.3145 74.5541 14.9407 74.1973 15.5433C73.8404 16.145 73.4297 16.7544 72.9651 17.3696H72.9954L72.5409 17.9184L72.3692 17.9992H64.2896C64.1415 17.9992 64.0674 17.9099 64.0674 17.7315V17.5034L64.1583 17.3166C64.3468 17.1289 64.5522 16.9396 64.7744 16.7477C64.9965 16.5558 65.2036 16.3487 65.3955 16.1257C65.5874 15.9027 65.7473 15.6569 65.8752 15.3893C66.0031 15.1216 66.0671 14.8136 66.0671 14.466V6.30303C66.0671 6.08926 66.0402 5.92429 65.9863 5.80815C65.9324 5.69201 65.8634 5.60531 65.7792 5.54724C65.6951 5.48917 65.6059 5.4513 65.5116 5.43277C65.4173 5.4151 65.3281 5.3949 65.244 5.37301C65.1598 5.35112 65.0908 5.31914 65.0369 5.27959C64.9831 5.23918 64.9561 5.17017 64.9561 5.07169C64.9561 5.03634 65.0218 4.96228 65.1531 4.85119C65.2844 4.73925 65.451 4.60796 65.653 4.45647C65.855 4.30498 66.0772 4.14423 66.3196 3.97421C66.562 3.80505 66.7959 3.64428 67.0215 3.49279C67.2471 3.3413 67.4457 3.20747 67.6174 3.09133C67.7891 2.97519 67.9086 2.89523 67.9759 2.85062C67.6056 2.85062 67.2353 2.87503 66.865 2.92384C66.4947 2.9735 66.1328 3.05346 65.7793 3.16455C65.4258 3.27649 65.0807 3.42377 64.7441 3.60641C64.4074 3.78905 64.0909 4.01881 63.7947 4.2957H63.5523C63.4984 4.26878 63.4311 4.22417 63.3503 4.16188C63.2695 4.09959 63.2291 4.02805 63.2291 3.94811C63.2291 3.92119 63.2544 3.82271 63.3049 3.65354C63.3554 3.48353 63.4194 3.279 63.4968 3.03747C63.5742 2.79676 63.6601 2.5409 63.7543 2.26821C63.8486 1.99638 63.9378 1.74219 64.0219 1.5057C64.1061 1.26922 64.1802 1.0731 64.2441 0.916556C64.3081 0.760858 64.3502 0.67333 64.3704 0.655645C64.9965 0.424193 65.6312 0.256705 66.2741 0.154026C66.9171 0.0513478 67.5652 5.17098e-05 68.2183 5.17098e-05ZM73.5307 11.8965C73.5307 11.3082 73.5155 10.7106 73.4852 10.1038C73.4549 9.49702 73.3926 8.90115 73.2984 8.31705C73.2041 7.73296 73.0728 7.17075 72.9045 6.63042C72.7362 6.09093 72.514 5.59605 72.2379 5.14578C71.9619 4.69466 71.6252 4.29825 71.228 3.95402C70.8307 3.61148 70.356 3.34131 69.8039 3.14521H69.8241C69.777 3.1267 69.7315 3.11829 69.6878 3.11829H69.5514C69.3494 3.11829 69.1811 3.19151 69.0465 3.3388C68.9118 3.48608 68.8041 3.66703 68.7233 3.8808C68.6425 4.09457 68.5852 4.32266 68.5516 4.56337C68.5179 4.80408 68.5011 5.01869 68.5011 5.20554V13.9442C68.5011 14.1049 68.4725 14.2522 68.4152 14.386C68.358 14.5199 68.2856 14.6419 68.1981 14.7538C68.1106 14.8649 68.0129 14.9676 67.9052 15.0619C67.7975 15.1553 67.6931 15.242 67.5921 15.3228H72.8439C73.0594 14.7875 73.2277 14.2295 73.3489 13.6496C73.4701 13.0697 73.5307 12.4857 73.5307 11.8965Z" fill="#F9F7E7"/>
<path d="M83.7659 10.8528C83.7659 11.4419 83.7322 12.0151 83.6649 12.5722C83.5975 13.1302 83.4797 13.6605 83.3114 14.1646C83.1431 14.6687 82.9175 15.1392 82.6347 15.5769C82.3519 16.0137 81.9951 16.4017 81.5642 16.7408C81.5036 16.7854 81.3891 16.8789 81.2208 17.0219C81.0524 17.165 80.8723 17.3098 80.6804 17.4571C80.4886 17.6043 80.3101 17.7331 80.1452 17.8451C79.9802 17.9561 79.8742 18.0075 79.827 17.9991C79.1941 17.7845 78.637 17.4638 78.1555 17.0354C77.6741 16.607 77.2718 16.0987 76.9486 15.5096C76.6255 14.9212 76.3814 14.2715 76.2164 13.5629C76.0515 12.8534 75.969 12.1153 75.969 11.3477C75.969 10.4202 76.0498 9.59962 76.2114 8.88593C76.373 8.17223 76.617 7.53175 76.9436 6.96532C77.2701 6.39889 77.6792 5.89224 78.1707 5.44617C78.6622 5.00011 79.2379 4.58098 79.8977 4.18878C80.571 4.30492 81.15 4.57929 81.6348 5.0119C82.1196 5.4445 82.5202 5.97051 82.8367 6.5908C83.1531 7.2111 83.3871 7.89112 83.5386 8.63175C83.6901 9.37239 83.7659 10.1122 83.7659 10.8528ZM81.7156 12.552C81.7156 11.9461 81.6752 11.3207 81.5945 10.6786C81.5137 10.0364 81.3739 9.42538 81.1753 8.84549C80.9767 8.2656 80.7091 7.74128 80.3724 7.27332C80.0358 6.80454 79.6116 6.43674 79.0999 6.16911C78.8777 6.40982 78.7009 6.69765 78.5696 7.03178C78.4383 7.36676 78.3373 7.7194 78.2667 8.08972C78.196 8.46003 78.1505 8.83456 78.1303 9.2133C78.1101 9.59287 78.1 9.95646 78.1 10.304C78.1 10.6971 78.1169 11.0935 78.1505 11.495C78.1842 11.8964 78.2431 12.2911 78.3273 12.6791C78.4114 13.0671 78.5259 13.4425 78.6706 13.8035C78.8154 14.1646 78.9989 14.497 79.2211 14.8V14.8269C79.3019 14.9608 79.3945 15.0946 79.4988 15.2284C79.6032 15.3622 79.7143 15.4893 79.8321 15.6097C79.9499 15.7309 80.0762 15.8335 80.2108 15.9177C80.3455 16.0027 80.4869 16.0582 80.635 16.0852C80.8505 15.8975 81.0289 15.6661 81.1703 15.3892C81.3117 15.1131 81.4228 14.8135 81.5036 14.4928C81.5844 14.1713 81.6399 13.8439 81.6702 13.509C81.7005 13.1748 81.7156 12.8559 81.7156 12.552Z" fill="#F9F7E7"/>
<path d="M97.5862 15.4565C97.64 15.4565 97.6972 15.4851 97.7579 15.5432C97.8185 15.6013 97.8757 15.6686 97.9295 15.7435C97.9834 15.8201 98.0289 15.8975 98.0659 15.9783C98.1029 16.0583 98.1214 16.1206 98.1214 16.1652C98.1214 16.1921 98.0794 16.2502 97.9952 16.3394C97.911 16.4286 97.8033 16.5338 97.672 16.6541C97.5407 16.7745 97.396 16.9041 97.2377 17.0421C97.0795 17.1802 96.928 17.3115 96.7833 17.4369C96.6385 17.5614 96.5106 17.6708 96.3995 17.7643C96.2884 17.8585 96.2126 17.9183 96.1722 17.9452L95.9702 17.9721C95.6605 17.8383 95.4047 17.6531 95.2027 17.4166C95.0007 17.1801 94.8408 16.9125 94.7229 16.6137C94.6051 16.3149 94.5226 15.9935 94.4755 15.6501C94.4284 15.3067 94.4048 14.9566 94.4048 14.5997V7.3196C94.2903 7.20431 94.1725 7.09236 94.0513 6.98547C93.9301 6.87859 93.8056 6.76665 93.6776 6.6505C93.3679 6.85585 93.0616 7.07215 92.7586 7.29938C92.4556 7.52746 92.1459 7.74376 91.8294 7.94912V17.3695C91.8294 17.4587 91.8059 17.5235 91.7587 17.5639C91.7116 17.6043 91.6611 17.6237 91.6072 17.6237H89.8499C89.796 17.6237 89.7455 17.6043 89.6984 17.5639C89.6513 17.5235 89.6277 17.4587 89.6277 17.3695V7.5342C89.6277 7.42731 89.6193 7.31117 89.6024 7.18576C89.5856 7.06119 89.5553 6.94505 89.5116 6.83817C89.4678 6.73128 89.4106 6.64207 89.3399 6.57053C89.2692 6.499 89.18 6.46365 89.0722 6.46365C89.0116 6.50826 88.8837 6.59494 88.6884 6.72456C88.4932 6.85418 88.2895 6.99219 88.0774 7.13948C87.8653 7.28677 87.6734 7.41806 87.5018 7.5342C87.3301 7.65034 87.2375 7.71263 87.224 7.72104V17.3695C87.224 17.4587 87.1971 17.5235 87.1432 17.5639C87.0893 17.6043 87.0355 17.6237 86.9816 17.6237H85.2344C85.1805 17.6237 85.1334 17.5993 85.093 17.5505C85.0526 17.5016 85.0324 17.441 85.0324 17.3695V7.37345C85.0324 7.17735 84.987 7.0368 84.8961 6.95179C84.8052 6.86678 84.6823 6.82471 84.5274 6.82471C84.4601 6.82471 84.3978 6.84237 84.3406 6.87857C84.2834 6.91392 84.2312 6.95853 84.184 7.01239L84.0325 7.11928C83.945 7.11928 83.8811 7.07467 83.8406 6.98545C83.8002 6.89624 83.7565 6.82471 83.7094 6.77084L83.7498 6.85165C83.7161 6.80704 83.6824 6.75822 83.6488 6.70436C83.6151 6.6505 83.5983 6.59748 83.5983 6.54361C83.5983 6.499 83.6353 6.41904 83.7094 6.3029C83.7834 6.18676 83.8794 6.05294 83.9972 5.90144C84.115 5.74995 84.243 5.5892 84.381 5.42003C84.519 5.25002 84.6537 5.08927 84.785 4.93776C84.9163 4.78625 85.0358 4.64993 85.1435 4.52957C85.2512 4.4092 85.3287 4.32252 85.3758 4.26866C85.4297 4.2333 85.4802 4.21564 85.5273 4.21564C85.6485 4.21564 85.7949 4.30232 85.9666 4.47655C86.1383 4.64993 86.3067 4.8578 86.4716 5.09851C86.6366 5.33922 86.7813 5.58245 86.9059 5.82736C87.0305 6.07312 87.1028 6.26753 87.123 6.40977L90.1933 4.21564L90.4458 4.24173C90.5872 4.37556 90.7303 4.5321 90.875 4.71052C91.0198 4.88893 91.1544 5.07662 91.279 5.27272C91.4036 5.46882 91.513 5.67587 91.6072 5.89469C91.7015 6.11351 91.7756 6.32981 91.8294 6.54358C92.294 6.23134 92.7502 5.90394 93.1979 5.55971C93.6457 5.21717 94.1018 4.87968 94.5664 4.54975H94.5361L94.9502 4.24172H95.2128L97.2529 6.07562L97.3438 6.30287C97.3505 6.36514 97.3202 6.43669 97.2529 6.51664C97.1856 6.59744 97.1065 6.67571 97.0155 6.75145C96.9246 6.82719 96.8321 6.89789 96.7378 6.96522C96.6435 7.0317 96.5762 7.08389 96.5358 7.11924V15.4564C96.5358 15.4918 96.5375 15.5364 96.5409 15.5903C96.5442 15.6433 96.551 15.6971 96.5611 15.7502C96.5712 15.804 96.5897 15.8511 96.6166 15.8907C96.6435 15.9311 96.6806 15.9513 96.7277 15.9513C96.8489 15.9513 96.9768 15.8974 97.1115 15.7906C97.2462 15.6837 97.3606 15.581 97.4549 15.4825C97.4751 15.4825 97.4953 15.4783 97.5155 15.4691C97.5357 15.4607 97.5592 15.4565 97.5862 15.4565Z" fill="#F9F7E7"/>
<path d="M101.772 15.1755C101.819 15.1755 101.873 15.2041 101.933 15.2622C101.994 15.3202 102.049 15.3876 102.1 15.4633C102.15 15.5391 102.194 15.6165 102.231 15.6973C102.268 15.7773 102.29 15.8446 102.297 15.8976C102.297 15.9422 102.25 16.0205 102.155 16.1324C102.061 16.2435 101.943 16.3689 101.802 16.507C101.661 16.645 101.502 16.7897 101.327 16.9412C101.152 17.0936 100.986 17.2358 100.827 17.3696C100.669 17.5035 100.526 17.6238 100.398 17.7315C100.27 17.8384 100.183 17.91 100.136 17.9453L99.9133 17.9722C99.4757 17.7399 99.1592 17.4193 98.964 17.0086C98.7687 16.5987 98.6711 16.1164 98.6711 15.5635V7.09246L98.5903 6.87869C98.5162 6.87869 98.4422 6.91405 98.3681 6.98558C98.294 7.05711 98.2301 7.1194 98.1762 7.17242L98.1964 7.14633C98.1493 7.17242 98.0954 7.21786 98.0348 7.28015C97.9742 7.34244 97.917 7.37357 97.8631 7.37357C97.7823 7.37357 97.7116 7.3315 97.651 7.24649C97.5904 7.16148 97.5332 7.09246 97.4793 7.0386L97.3884 6.82483C97.3884 6.78022 97.4322 6.69354 97.5197 6.56392C97.6072 6.4343 97.7183 6.28281 97.853 6.1086C97.9877 5.93521 98.1375 5.75259 98.3024 5.55985C98.4674 5.3688 98.6239 5.18532 98.7721 5.01195C98.9202 4.83774 99.0532 4.68372 99.171 4.54989C99.2888 4.41607 99.3679 4.32265 99.4083 4.26878L99.5901 4.18882C99.6238 4.18882 99.6928 4.23343 99.7972 4.32265C99.9016 4.41186 100.023 4.52549 100.161 4.6635C100.299 4.80237 100.445 4.95387 100.6 5.11882C100.755 5.28378 100.903 5.44201 101.044 5.5935C101.186 5.74584 101.31 5.88133 101.418 6.0017C101.526 6.12206 101.6 6.20454 101.64 6.24913L101.731 6.43682C101.731 6.49909 101.696 6.56644 101.625 6.63712C101.555 6.70866 101.472 6.776 101.378 6.83827C101.284 6.90055 101.188 6.95862 101.09 7.01248C100.992 7.0655 100.917 7.11011 100.863 7.14631V14.8809C100.863 15.0324 100.886 15.1755 100.933 15.3093C100.981 15.4431 101.082 15.5096 101.236 15.5096C101.31 15.5096 101.379 15.4877 101.443 15.4431C101.507 15.3985 101.566 15.3404 101.62 15.2689L101.772 15.1755ZM100.863 1.36517C100.863 1.5882 100.832 1.80619 100.772 2.0208C100.711 2.23457 100.635 2.44246 100.545 2.64277C100.454 2.84392 100.353 3.03749 100.242 3.22517C100.13 3.41286 100.021 3.58623 99.9133 3.74698L99.7315 3.86732H99.5901L99.4285 3.7739C99.3343 3.6485 99.2316 3.49532 99.1205 3.31184C99.0094 3.1292 98.9033 2.93563 98.8024 2.73028C98.7014 2.52492 98.6172 2.31703 98.5499 2.10747C98.4826 1.8979 98.4489 1.70432 98.4489 1.5259C98.4489 1.04364 98.56 0.696049 98.7822 0.481436C99.0044 0.267668 99.3074 0.160767 99.6911 0.160767C99.8393 0.160767 99.984 0.185174 100.125 0.233988C100.267 0.283646 100.393 0.356867 100.504 0.45534C100.615 0.552968 100.703 0.678364 100.767 0.829874C100.831 0.981384 100.863 1.15982 100.863 1.36517Z" fill="#F9F7E7"/>
<path d="M110.764 15.3228C110.804 15.3228 110.851 15.3539 110.905 15.4162C110.959 15.4785 111.013 15.55 111.067 15.63C111.121 15.7108 111.166 15.789 111.203 15.8648C111.24 15.9405 111.259 15.9961 111.259 16.0314C111.259 16.1299 111.169 16.2721 110.991 16.4598C110.813 16.6475 110.607 16.8394 110.375 17.0355C110.143 17.2316 109.919 17.4167 109.703 17.591C109.488 17.7643 109.34 17.883 109.259 17.9453L109.027 17.9722C108.825 17.8384 108.631 17.6886 108.446 17.5236C108.261 17.3587 108.101 17.1735 107.966 16.9681C107.831 16.7636 107.724 16.5381 107.643 16.2923C107.562 16.0474 107.522 15.7772 107.522 15.4827V7.31969C107.394 7.20439 107.273 7.08824 107.158 6.9721C107.044 6.85596 106.923 6.7398 106.795 6.6245L104.946 7.86843V17.3696C104.946 17.4411 104.923 17.5017 104.876 17.5506C104.829 17.5994 104.778 17.6238 104.724 17.6238H103.017C102.963 17.6238 102.916 17.5994 102.876 17.5506C102.836 17.5017 102.815 17.4411 102.815 17.3696V7.58734C102.815 7.40891 102.76 7.24226 102.649 7.08572C102.538 6.93002 102.405 6.85175 102.25 6.85175C102.102 6.85175 101.98 6.91403 101.886 7.0386C101.859 7.05711 101.836 7.07057 101.815 7.079C101.795 7.08825 101.772 7.09246 101.745 7.09246C101.684 7.09246 101.617 7.04533 101.543 6.95191C101.469 6.85849 101.408 6.78948 101.361 6.74487L101.29 6.57066C101.29 6.5353 101.331 6.45957 101.411 6.34341C101.492 6.22725 101.595 6.09344 101.72 5.94195C101.844 5.79046 101.982 5.62466 102.134 5.44623C102.285 5.26779 102.43 5.10115 102.568 4.94461C102.706 4.78891 102.829 4.64835 102.936 4.52295C103.044 4.39838 103.118 4.31339 103.159 4.26878L103.381 4.21576C103.819 4.44721 104.165 4.75692 104.421 5.14576C104.677 5.53375 104.839 6.00843 104.906 6.57064L108.067 4.21576L108.33 4.24186L110.35 6.07576L110.44 6.30301C110.447 6.35687 110.42 6.42335 110.36 6.50331C110.299 6.58412 110.228 6.66406 110.148 6.74487C110.067 6.82483 109.984 6.89805 109.9 6.96537C109.816 7.03186 109.754 7.08405 109.713 7.1194V15.5837C109.713 15.6417 109.715 15.6998 109.718 15.7571C109.722 15.8151 109.734 15.8665 109.754 15.9111C109.774 15.9557 109.804 15.9784 109.845 15.9784C109.939 15.9784 110.025 15.9515 110.102 15.8976C110.18 15.8446 110.254 15.7798 110.324 15.704C110.395 15.6283 110.466 15.5542 110.536 15.4827C110.607 15.412 110.683 15.3581 110.764 15.3228Z" fill="#F9F7E7"/>
<path d="M114.868 15.1755C114.915 15.1755 114.969 15.2041 115.03 15.2622C115.09 15.3202 115.146 15.3876 115.196 15.4633C115.247 15.5391 115.291 15.6165 115.328 15.6973C115.365 15.7773 115.387 15.8446 115.393 15.8976C115.393 15.9422 115.346 16.0205 115.252 16.1324C115.158 16.2435 115.04 16.3689 114.898 16.507C114.757 16.645 114.599 16.7897 114.424 16.9412C114.249 17.0936 114.082 17.2358 113.924 17.3696C113.766 17.5035 113.623 17.6238 113.495 17.7315C113.367 17.8384 113.279 17.91 113.232 17.9453L113.01 17.9722C112.572 17.7399 112.256 17.4193 112.061 17.0086C111.865 16.5987 111.768 16.1164 111.768 15.5635V7.09246L111.687 6.87869C111.613 6.87869 111.539 6.91405 111.465 6.98558C111.391 7.05711 111.327 7.1194 111.273 7.17242L111.293 7.14633C111.246 7.17242 111.192 7.21786 111.131 7.28015C111.071 7.34244 111.014 7.37357 110.96 7.37357C110.879 7.37357 110.808 7.3315 110.748 7.24649C110.687 7.16148 110.63 7.09246 110.576 7.0386L110.485 6.82483C110.485 6.78022 110.529 6.69354 110.616 6.56392C110.704 6.4343 110.815 6.28281 110.95 6.1086C111.084 5.93521 111.234 5.75259 111.399 5.55985C111.564 5.3688 111.72 5.18532 111.869 5.01195C112.017 4.83774 112.15 4.68372 112.268 4.54989C112.385 4.41607 112.465 4.32265 112.505 4.26878L112.687 4.18882C112.72 4.18882 112.789 4.23343 112.894 4.32265C112.998 4.41186 113.119 4.52549 113.257 4.6635C113.395 4.80237 113.542 4.95387 113.697 5.11882C113.852 5.28378 114 5.44201 114.141 5.5935C114.282 5.74584 114.407 5.88133 114.515 6.0017C114.622 6.12206 114.697 6.20454 114.737 6.24913L114.828 6.43682C114.828 6.49909 114.792 6.56644 114.722 6.63712C114.651 6.70866 114.569 6.776 114.474 6.83827C114.38 6.90055 114.284 6.95862 114.187 7.01248C114.089 7.0655 114.013 7.11011 113.959 7.14631V14.8809C113.959 15.0324 113.983 15.1755 114.03 15.3093C114.077 15.4431 114.178 15.5096 114.333 15.5096C114.407 15.5096 114.476 15.4877 114.54 15.4431C114.604 15.3985 114.663 15.3404 114.717 15.2689L114.868 15.1755ZM113.959 1.36517C113.959 1.5882 113.929 1.80619 113.868 2.0208C113.808 2.23457 113.732 2.44246 113.641 2.64277C113.55 2.84392 113.449 3.03749 113.338 3.22517C113.227 3.41286 113.118 3.58623 113.01 3.74698L112.828 3.86732H112.687L112.525 3.7739C112.431 3.6485 112.328 3.49532 112.217 3.31184C112.106 3.1292 112 2.93563 111.899 2.73028C111.798 2.52492 111.714 2.31703 111.646 2.10747C111.579 1.8979 111.545 1.70432 111.545 1.5259C111.545 1.04364 111.657 0.696049 111.879 0.481436C112.101 0.267668 112.404 0.160767 112.788 0.160767C112.936 0.160767 113.081 0.185174 113.222 0.233988C113.363 0.283646 113.49 0.356867 113.601 0.45534C113.712 0.552968 113.799 0.678364 113.863 0.829874C113.927 0.981384 113.959 1.15982 113.959 1.36517Z" fill="#F9F7E7"/>
<path d="M122.669 10.8528C122.669 11.4419 122.636 12.0151 122.568 12.5722C122.501 13.1302 122.383 13.6605 122.215 14.1646C122.046 14.6687 121.821 15.1392 121.538 15.5769C121.255 16.0137 120.899 16.4017 120.468 16.7408C120.407 16.7854 120.293 16.8789 120.124 17.0219C119.956 17.165 119.776 17.3098 119.584 17.4571C119.392 17.6043 119.214 17.7331 119.049 17.8451C118.884 17.9561 118.778 18.0075 118.73 17.9991C118.098 17.7845 117.54 17.4638 117.059 17.0354C116.578 16.607 116.175 16.0987 115.852 15.5096C115.529 14.9212 115.285 14.2715 115.12 13.5629C114.955 12.8534 114.872 12.1153 114.872 11.3477C114.872 10.4202 114.953 9.59962 115.115 8.88593C115.276 8.17223 115.52 7.53175 115.847 6.96532C116.174 6.39889 116.583 5.89224 117.074 5.44617C117.566 5.00011 118.141 4.58098 118.801 4.18878C119.474 4.30492 120.053 4.57929 120.538 5.0119C121.023 5.4445 121.424 5.97051 121.74 6.5908C122.057 7.2111 122.291 7.89112 122.442 8.63175C122.594 9.37239 122.669 10.1122 122.669 10.8528ZM120.619 12.552C120.619 11.9461 120.579 11.3207 120.498 10.6786C120.417 10.0364 120.277 9.42538 120.079 8.84549C119.88 8.2656 119.613 7.74128 119.276 7.27332C118.939 6.80454 118.515 6.43674 118.003 6.16911C117.781 6.40982 117.604 6.69765 117.473 7.03178C117.342 7.36676 117.241 7.7194 117.17 8.08972C117.099 8.46003 117.054 8.83456 117.034 9.2133C117.014 9.59287 117.003 9.95646 117.003 10.304C117.003 10.6971 117.02 11.0935 117.054 11.495C117.088 11.8964 117.147 12.2911 117.231 12.6791C117.315 13.0671 117.429 13.4425 117.574 13.8035C117.719 14.1646 117.902 14.497 118.125 14.8V14.8269C118.205 14.9608 118.298 15.0946 118.402 15.2284C118.507 15.3622 118.618 15.4893 118.736 15.6097C118.853 15.7309 118.98 15.8335 119.114 15.9177C119.249 16.0027 119.39 16.0582 119.538 16.0852C119.754 15.8975 119.932 15.6661 120.074 15.3892C120.215 15.1131 120.326 14.8135 120.407 14.4928C120.488 14.1713 120.543 13.8439 120.574 13.509C120.604 13.1748 120.619 12.8559 120.619 12.552Z" fill="#F9F7E7"/>
<path d="M131.905 15.3228C131.945 15.3228 131.992 15.3539 132.046 15.4162C132.1 15.4785 132.154 15.55 132.208 15.63C132.261 15.7108 132.307 15.789 132.344 15.8648C132.381 15.9405 132.399 15.9961 132.399 16.0314C132.399 16.1299 132.31 16.2721 132.132 16.4598C131.953 16.6475 131.748 16.8394 131.516 17.0355C131.283 17.2316 131.06 17.4167 130.844 17.591C130.629 17.7643 130.481 17.883 130.4 17.9453L130.167 17.9722C129.965 17.8384 129.772 17.6886 129.587 17.5236C129.402 17.3587 129.242 17.1735 129.107 16.9681C128.972 16.7636 128.865 16.5381 128.784 16.2923C128.703 16.0474 128.663 15.7772 128.663 15.4827V7.31969C128.535 7.20439 128.414 7.08824 128.299 6.9721C128.185 6.85596 128.063 6.7398 127.935 6.6245L126.087 7.86843V17.3696C126.087 17.4411 126.064 17.5017 126.017 17.5506C125.969 17.5994 125.919 17.6238 125.865 17.6238H124.158C124.104 17.6238 124.057 17.5994 124.017 17.5506C123.976 17.5017 123.956 17.4411 123.956 17.3696V7.58734C123.956 7.40891 123.901 7.24226 123.79 7.08572C123.678 6.93002 123.546 6.85175 123.391 6.85175C123.243 6.85175 123.121 6.91403 123.027 7.0386C123 7.05711 122.977 7.07057 122.956 7.079C122.936 7.08825 122.913 7.09246 122.886 7.09246C122.825 7.09246 122.758 7.04533 122.684 6.95191C122.61 6.85849 122.549 6.78948 122.502 6.74487L122.431 6.57066C122.431 6.5353 122.472 6.45957 122.552 6.34341C122.633 6.22725 122.736 6.09344 122.86 5.94195C122.985 5.79046 123.123 5.62466 123.274 5.44623C123.426 5.26779 123.571 5.10115 123.709 4.94461C123.847 4.78891 123.97 4.64835 124.077 4.52295C124.185 4.39838 124.259 4.31339 124.3 4.26878L124.522 4.21576C124.959 4.44721 125.306 4.75692 125.562 5.14576C125.818 5.53375 125.979 6.00843 126.047 6.57064L129.208 4.21576L129.471 4.24186L131.49 6.07576L131.581 6.30301C131.588 6.35687 131.561 6.42335 131.501 6.50331C131.44 6.58412 131.369 6.66406 131.288 6.74487C131.208 6.82483 131.125 6.89805 131.041 6.96537C130.957 7.03186 130.895 7.08405 130.854 7.1194V15.5837C130.854 15.6417 130.856 15.6998 130.859 15.7571C130.863 15.8151 130.874 15.8665 130.895 15.9111C130.915 15.9557 130.945 15.9784 130.985 15.9784C131.08 15.9784 131.166 15.9515 131.243 15.8976C131.32 15.8446 131.394 15.7798 131.465 15.704C131.536 15.6283 131.607 15.5542 131.677 15.4827C131.748 15.412 131.824 15.3581 131.905 15.3228Z" fill="#F9F7E7"/>
</g>
<defs>
<clipPath id="clip0_4924_310">
<rect width="132.399" height="18" fill="white"/>
</clipPath>
</defs>
</svg>
