<svg width="42" height="36" viewBox="0 0 42 36" fill="none" xmlns="http://www.w3.org/2000/svg">
<g clip-path="url(#clip0_4929_663)">
<path d="M41.3209 0L20.4095 36L0 0H41.3209ZM19.7732 1.77452H3.42228C3.34674 1.77452 3.06826 1.42253 2.79021 1.52194L3.07013 2.63384L11.4131 17.2382L14.1853 15.6988C12.1888 11.2478 14.8476 6.17438 19.7732 5.57705L19.7732 1.77452ZM38.5323 1.77452H21.5477V5.57705C26.3978 6.24715 28.8176 11.089 27.1704 15.5579L29.5344 17.2107L38.5323 1.77452ZM16.3044 16.1456C18.0745 18.3386 21.9006 18.6405 24.0626 16.8378C29.1587 12.5885 23.6824 4.4166 17.5503 8.02976C15.0461 9.50532 14.5122 13.9253 16.3044 16.1456ZM20.7841 32.9547L28.6254 18.6709L26.2351 17.0278C24.0032 19.4753 20.9154 20.5361 17.7447 19.1398C16.8879 18.7625 15.3159 17.1403 14.6397 17.2752L12.4363 18.5275L20.7841 32.9547Z" fill="#F9F7E7"/>
<path d="M20.4748 8.68512C26.1102 8.53135 25.7138 17.2429 19.8888 16.4881C15.4512 15.913 15.7374 8.81438 20.4748 8.68512Z" fill="#F9F7E7"/>
</g>
<defs>
<clipPath id="clip0_4929_663">
<rect width="41.3209" height="36" fill="white"/>
</clipPath>
</defs>
</svg>
