<svg width="46" height="60" viewBox="0 0 46 60" fill="none" xmlns="http://www.w3.org/2000/svg">
<path d="M32.3433 37.4739C31.3305 38.9634 29.3049 39.2612 28.2921 40.6911L25.7899 40.4528V41.6443C29.4241 42.6571 31.5688 39.0229 34.22 38.0101C36.8712 36.9973 35.769 38.1591 36.5137 37.9505C37.2584 37.742 36.9308 36.8186 37.6755 37.3548C37.1691 37.8314 36.4244 39.8272 35.5903 39.291L35.4711 38.4272C31.9859 39.4698 29.8411 43.3125 25.7601 42.5678C25.5516 42.7763 26.3261 47.8105 25.4622 48.5255C26.2069 48.5255 26.9516 48.5255 27.6963 48.5255C28.4411 48.5255 28.7985 48.2872 28.7389 48.8234C24.8962 48.5553 24.2707 48.7936 24.2409 52.5469C24.2111 56.3003 24.509 53.6193 24.5387 54.0661C24.5387 55.7343 24.4494 57.4024 24.5685 59.1004C24.6877 60.7983 24.5388 59.577 23.9728 59.5472L23.6749 49.5681L23.2281 48.8234L22.7812 49.4191C22.1855 48.6446 22.5429 46.6488 21.5897 46.7382V46.4403C22.7812 46.4403 22.2153 45.1296 22.4834 44.3551H21.5897L22.1855 42.2699C18.4023 43.0742 16.5554 40.1847 13.5468 38.6953L13.9936 37.8016C16.2873 39.7081 18.9981 42.1805 22.1855 41.6741V40.1847L21.411 40.8102L20.1301 40.5124L19.5045 41.3762C19.5045 40.8996 19.4151 40.5124 19.0875 40.1549C18.7598 39.7974 13.7255 36.9377 13.3979 36.9079C12.0872 36.7292 13.7553 39.5889 12.3553 39.291C12.4446 38.457 12.0872 38.2782 11.4616 37.9505C13.6064 37.0569 11.2829 35.8356 10.7467 34.8228C10.2105 33.8099 10.1509 31.695 10.568 30.6524H8.18487C8.48276 29.0438 10.4786 30.9502 9.82324 28.2693H7.29122L8.48276 29.1629L8.18487 30.0566L5.50391 28.3884C5.89116 26.8692 6.48692 25.7968 8.06571 25.2904L8.21465 26.482L7.23164 26.2139L6.42734 27.3756C6.90396 27.5246 7.38058 27.048 7.73805 27.0777C8.09551 27.1075 8.54233 28.4778 9.85302 27.4054L9.97218 25.0223C9.76366 24.8138 7.52952 25.4692 7.29122 24.4266C9.10831 24.4266 11.9382 23.5925 10.568 21.4477C11.6403 21.3286 11.6403 19.9583 12.2361 19.0646C12.8319 18.171 14.3809 16.8007 14.9171 16.6518L15.215 17.2475C16.8533 15.9964 18.0449 14.8645 19.0875 13.0771L19.3853 13.7027L22.2152 13.375V11.5877C21.828 11.2005 19.2662 12.2729 18.9385 11.2898H22.2152V8.19184L23.7047 7.68543V6.82156L22.8408 6.67262L24.0026 5.77897C23.0493 4.79595 24.0026 3.72356 23.7047 2.53202L22.5727 1.90645L22.8706 0.893654L23.4664 1.34048L24.0621 1.0426L23.9132 -8.42067e-07C24.5685 0.565981 24.0324 1.40006 24.9558 1.63837V2.08519C23.3472 2.20435 24.4494 4.08102 24.4792 4.9151C24.509 5.74918 24.1217 6.82156 24.3302 7.56628C24.5387 8.31099 25.3728 7.71522 25.7005 8.34078C26.0282 8.96634 25.7005 10.2175 25.8495 11.0217L28.4708 11.3792C28.8283 12.0048 29.6326 14.09 30.1092 14.507C30.5858 14.924 33.3859 16.5028 33.5945 16.5624C34.1902 16.7411 34.5179 16.4135 35.0839 16.3837C34.369 17.5752 35.8584 18.4093 36.5137 19.571C37.1691 20.7328 37.9734 23.5031 38.6883 23.95C39.9692 24.784 41.1905 23.7712 42.2331 24.5755L40.1479 24.7245L40.4458 28.0012L42.8289 27.7033C42.2331 27.0182 43.3651 27.1671 43.1268 26.2139C43.9906 26.482 43.5438 27.0777 43.4247 27.7033L45.8077 27.1075C46.0461 30.563 44.1396 27.4948 42.9778 28.8948C42.7395 27.882 41.3395 28.2693 40.416 28.448C40.6543 30.4736 38.5096 29.8779 38.3606 31.4269C38.7181 31.3375 39.433 30.9205 39.7309 30.7417C40.0288 30.563 40.2373 30.563 40.1479 30.1162C40.6543 29.997 40.4756 31.2481 40.416 31.2779C40.3266 31.3673 39.6117 31.1886 39.1053 31.6056C38.5989 32.0226 37.7649 34.7334 37.2287 35.6866C36.6925 36.6399 35.2328 38.7846 35.0839 36.9675C36.0967 36.8484 36.5733 35.627 36.9308 34.793C37.2882 33.9589 38.5989 30.3247 36.5733 30.7119L36.7818 31.3971L35.3818 34.5547L35.9775 30.6822C35.0243 30.563 34.3392 30.8609 34.1902 31.8737C32.9987 32.2014 34.4881 30.2055 33.2966 30.98C34.1902 30.3843 34.2498 29.6396 34.1902 28.597C34.8456 28.7757 34.786 29.5502 34.786 30.0864H38.0627C37.9734 29.3715 38.2117 25.4394 37.7946 25.1415C36.8712 24.5457 35.1732 25.2904 34.4881 26.0649L35.6499 26.482L36.2754 25.6181C36.8414 26.5118 36.2754 27.9714 37.467 28.0012L36.8712 28.8948L35.6797 27.7033L36.2754 27.5246V26.5118C35.0839 26.9288 34.2796 26.7203 34.4881 28.2991C33.7434 28.3587 32.9391 28.0608 32.4029 28.7459L33.2966 29.4906H32.1348C32.1348 29.5204 31.8071 31.8737 31.8071 31.8737L33.2966 30.98C33.1774 31.0694 32.4327 33.0057 32.105 33.4227C31.7774 33.8397 31.0624 33.9291 30.9135 34.5249C31.7476 34.4355 31.9263 34.7632 32.254 35.4185C32.5816 34.2568 33.6838 34.4951 34.1902 34.078C34.6966 33.661 34.1307 32.7971 35.0839 33.0354C34.9052 34.793 33.5051 34.3163 33.0881 35.5675L33.7434 36.3122L35.2328 34.8228C35.8286 35.6866 34.6668 35.9547 34.22 36.4909C33.7732 37.0271 33.5945 37.7122 33.5349 37.7718C33.3264 37.9208 32.7008 37.4739 32.3731 37.5037C32.5519 37.2654 33.3859 35.6866 32.5221 35.7164C31.6582 35.7462 31.9263 36.4611 31.6284 36.6101C30.705 37.1165 30.2879 37.5335 29.6624 37.9208C27.6368 39.1421 26.9516 38.7548 24.6281 38.6953V39.8868C25.909 39.44 26.8325 40.0655 28.2325 39.7676C29.6326 39.4698 31.5093 37.5335 32.3731 37.5037L32.3433 37.4739ZM24.3004 47.8999C25.0154 48.7042 25.5218 45.0402 25.4622 44.8019C25.2537 43.9976 23.4664 44.3849 22.811 44.3253C22.811 45.5466 22.6621 46.9467 23.5557 47.8999L24.5983 46.7084L24.3004 47.8999ZM22.811 43.7295C26.2665 44.2061 26.3559 42.0911 22.811 42.538V43.7295ZM22.811 41.6443H25.1941V40.7507L22.811 40.4528V41.6443ZM17.4491 36.2824C17.3299 36.193 15.3937 35.627 15.2447 35.6568L14.4702 36.7292C16.4065 37.7718 18.3129 39.7081 20.6067 39.8272C22.9004 39.9464 22.7812 39.4102 24.0026 39.8272C24.8366 38.5165 22.6025 38.3974 21.4705 38.308C20.3386 38.2186 20.0109 38.6655 19.713 38.5761C19.4151 38.4867 18.1044 37.0867 17.5683 36.7292C17.0321 36.3718 17.5087 36.2526 17.4789 36.2526C18.1044 36.6398 18.8491 36.9079 19.4151 37.4441L19.5641 36.8484L20.7556 37.1463L20.4577 38.0399H22.0663L22.5429 36.8484L21.6493 36.6994L22.245 35.3589C22.8706 35.2994 22.394 36.4015 22.5429 36.5505C22.7812 36.7888 24.3302 36.4611 24.0323 35.6568L22.8408 35.0611C23.6451 35.1206 24.3004 35.0611 24.3302 34.1674C25.1941 34.3759 24.4494 36.2824 24.6281 36.5505C25.0749 36.1037 27.0708 35.9547 27.2793 35.8058C27.4878 35.6568 27.5176 35.2398 27.6665 35.1504C27.9644 34.9717 28.59 35.1206 29.0666 34.9121C29.5432 34.7036 31.3007 32.5886 31.3901 32.2014C31.5688 31.4269 31.7178 27.2267 31.5986 26.3926C31.4795 25.5585 30.4965 22.8776 30.1092 22.2818C29.722 21.686 28.9474 21.9839 29.0964 20.3158C28.1134 19.3327 27.0708 21.0903 27.2793 21.3583L28.1729 21.5073L27.4282 21.9839C25.2239 21.0009 22.8706 20.8519 20.5769 21.6562C18.2832 22.4605 16.9725 23.5627 18.0746 24.9628L16.9129 25.2309L16.5852 24.6649C16.8831 25.6181 16.198 27.048 16.2873 27.7927C16.3767 28.5374 17.1214 28.8353 16.8831 29.1331C16.3767 29.7289 16.049 28.1203 15.6916 28.2395L15.0958 29.1331L14.649 27.9416C13.9638 28.448 14.2319 29.3119 14.2021 30.0268H15.6916C14.8873 31.4567 19.5343 35.7462 20.1598 35.3887C20.7854 35.0313 20.279 34.2568 21.0535 34.4951L20.3982 36.2228L19.0279 36.3718L14.7681 31.8141C15.0362 33.095 15.632 34.078 15.066 35.3887C16.4065 35.0313 16.764 35.8951 17.4491 36.2824ZM26.3261 37.8314L26.5346 38.3676C27.7857 37.176 30.2879 36.6994 30.8539 34.793C30.4965 34.4355 28.4113 36.3122 27.8751 36.4611C27.3389 36.6101 26.8623 36.3718 26.5346 36.4611C25.9984 36.5803 25.4026 37.1463 24.5983 36.9079V38.0995L26.3261 37.8612V37.8314ZM12.6829 33.8993L13.1298 35.9845C14.3213 37.325 14.7681 34.078 14.7681 33.4823C14.7383 32.529 13.8149 31.9035 13.9043 30.9205L15.0958 31.5162V30.6226H12.4148L14.2021 35.0908C13.4276 35.2398 13.6659 34.9419 13.4574 34.5249C12.9212 33.5418 12.2957 29.7289 10.9254 31.0992C11.9084 32.0822 10.8956 33.6908 11.8191 35.1206L12.7127 33.9291L12.6829 33.8993ZM38.8968 30.0268C40.2373 29.58 40.1777 22.7286 38.5989 25.4096L38.8968 30.0268ZM12.1169 29.7289L13.5766 30.0268V27.9416H12.0872V29.7289H12.1169ZM10.5977 29.7289H11.7893L11.4914 27.3458L13.5766 27.6437L13.8745 24.9628C12.8617 25.5883 11.968 25.0521 10.8956 24.9628L10.5977 29.7289ZM32.0455 20.4945C32.3731 20.5541 34.0413 21.6265 34.1009 21.7456C34.22 21.9243 33.8625 22.3712 33.9221 22.6988C33.9817 23.0265 34.786 23.7116 34.7562 24.367L37.4074 24.0989C37.5861 23.95 35.9775 20.2264 35.6797 19.72C34.6073 17.9625 32.7306 17.0986 31.0922 16.056C29.4539 15.0134 30.4667 14.8942 29.3943 15.1623L29.99 15.9071L29.3943 16.2049L31.4795 17.5454L28.5006 16.6518L29.6922 17.8433C28.7687 16.9794 27.2495 18.6476 27.0112 18.4391C26.3856 17.9029 28.3219 17.6348 28.1729 16.8305C27.607 15.7283 27.2197 16.3539 26.8622 16.3539H22.5429V18.2901C23.0195 18.588 24.8962 18.4987 25.343 18.171C25.7899 17.8433 25.1643 16.9199 25.8197 16.9497C25.5813 18.3795 26.5346 18.4689 27.607 18.8859C28.6793 19.3029 28.3517 18.737 28.4411 18.7965C28.5304 18.8561 28.7389 19.5115 29.0666 19.8094C30.4071 21.0009 31.8965 20.7328 29.99 19.3625L31.1816 19.6604C31.3305 19.5413 31.3305 17.605 32.3731 17.8731C31.9263 19.4221 31.0922 18.9753 32.0752 20.5541C31.8667 20.5541 31.3305 20.4945 31.2114 20.5838C30.556 22.1924 31.0326 23.0265 32.0455 24.3074C33.0583 25.5883 32.8795 24.6351 32.9689 24.933C33.0583 25.2309 32.9093 27.882 32.0752 27.7033C31.9859 28.1501 32.5221 28.0608 32.8199 28.0012C34.1604 27.6437 33.5051 27.1671 33.654 26.4522C33.8328 25.4096 34.0115 24.4564 33.7434 23.2648C33.4753 22.0733 32.671 21.5073 32.105 20.5838L32.0455 20.4945ZM18.3427 16.9199C18.6406 16.056 19.5939 15.9368 19.0875 15.1326L14.9171 18.4093L14.4405 17.8433C13.9936 17.5156 12.1467 20.3455 12.0872 20.9413C11.968 21.8052 13.1298 21.269 13.5766 21.3881L12.6829 22.1329L13.2787 22.7286L12.385 23.1754L11.9382 21.9839L10.8956 23.6521C10.7765 24.2776 10.985 23.9797 11.3127 24.0989C12.4148 24.4266 13.6659 24.3074 14.7681 24.6947L14.1724 27.3756H15.9597C15.6618 25.2904 16.6448 23.3542 18.2236 22.0435C19.0279 21.3881 20.5769 20.7626 21.6195 20.0774C22.6621 19.3923 24.1515 19.8689 24.4494 19.8987C25.0154 19.9583 24.8366 20.5243 25.0452 20.5243C25.2537 20.5243 25.6111 20.2562 25.9388 20.2562C26.7729 20.2562 27.1899 20.8222 27.8453 19.7796C26.5048 19.1242 24.8366 18.588 23.3174 18.7965C21.7982 19.0051 20.3386 19.3625 20.696 20.5243C19.9215 19.6306 17.181 21.8052 16.8235 21.4179C16.4661 21.0307 16.6448 20.4647 17.0618 20.5243L17.7172 20.2264C16.8831 20.137 16.4661 19.571 16.5257 18.737L15.632 18.8859C16.3469 18.171 17.2704 17.0986 18.313 16.9497C18.0151 17.8135 18.6406 17.6646 17.1214 18.2901L18.0151 18.4391C17.6576 18.9753 16.5554 19.2434 17.6278 19.9583C18.7002 20.6732 19.8918 19.4519 20.7854 18.9753C21.6791 18.4987 21.7684 18.7965 21.8578 18.7072C22.0365 18.4987 22.0067 16.1156 21.4408 16.056L19.8024 16.6518L20.696 17.2475C20.845 18.0816 19.9215 18.2603 19.5641 17.7539C19.2066 17.2475 20.0407 16.6816 18.313 16.9497L18.3427 16.9199ZM28.1729 16.3241C28.9177 16.9199 29.1858 14.8942 28.6794 14.2985L25.7899 13.941L25.492 15.4006C26.1473 15.49 27.0708 15.2517 27.6963 15.4304C28.3219 15.6092 28.1134 16.2347 28.1729 16.2943V16.3241ZM20.8748 15.4304C22.245 15.3113 23.794 15.5198 25.1941 15.4304V13.941L19.2364 14.2389C18.9981 15.0432 19.6236 14.6857 19.8322 15.073C20.0407 15.4602 19.8024 15.6687 19.8322 15.7283C20.0407 15.9666 20.7258 15.4304 20.8748 15.4304ZM25.7899 13.3452L28.7687 13.6431C28.5006 12.0048 27.2793 11.6175 25.7899 11.5579V13.3452ZM22.811 13.3452H25.1941V8.2812H24.3004C24.7771 9.53232 24.8664 13.4942 23.1089 11.1111L22.811 8.2812V13.3452Z" fill="#BD482D"/>
<path d="M2.97885 27.9415H2.41286C2.41286 29.0139 0.834079 28.3884 1.08237e-06 28.5373V27.6436C1.3107 28.0011 3.12779 27.733 4.31933 27.0479C5.71939 28.1203 3.18737 29.7884 2.97885 27.9415Z" fill="#BD482D"/>
<path d="M26.5113 31.2182L26.8092 27.0478H25.9155L26.2134 28.8351L25.1708 27.9415C23.0856 29.3415 20.8813 26.7797 22.043 30.9203C19.928 30.3841 22.5792 27.3457 19.9578 26.601C21.1494 26.035 21.5366 25.8563 21.4472 24.3668C22.6686 25.7669 24.158 24.0392 25.3197 25.1116C23.9495 24.9924 20.8515 26.0052 22.192 27.6436C22.8473 27.7925 23.0558 26.5116 23.5027 26.3031C23.9495 26.0946 24.1878 26.5712 24.8729 26.1839C25.5581 25.7967 25.8559 24.8435 26.3623 24.3668L26.5113 25.2605L29.1923 24.7839L30.3838 26.601C29.3114 26.9584 29.6987 24.9626 28.2986 25.2605L28.0007 27.0478L29.0433 26.452C29.6689 26.9882 28.0305 27.9712 27.7028 27.6436L27.4049 26.7499L27.1071 31.5161L21.8941 31.814L21.7451 31.2182H26.5113Z" fill="#BD482D"/>
</svg>
