<svg width="105" height="105" viewBox="0 0 105 105" fill="none" xmlns="http://www.w3.org/2000/svg">
<path d="M52.251 0.5625C80.7974 0.562694 103.938 23.7045 103.938 52.251C103.938 80.7973 80.7973 103.938 52.251 103.938C23.7045 103.938 0.56269 80.7974 0.5625 52.251C0.5625 23.7044 23.7044 0.5625 52.251 0.5625Z" fill="#F9F7E7" stroke="#29100A" stroke-width="1.125"/>
<path d="M80.4429 69.9998H78.325V72.1419H80.4429V69.9998Z" fill="black"/>
<path d="M80.4429 67.882H78.325V69.9998H80.4429V67.882Z" fill="black"/>
<path d="M80.4429 65.7399H78.325V67.882H80.4429V65.7399Z" fill="black"/>
<path d="M80.4429 63.6008H78.325V65.7399H80.4429V63.6008Z" fill="black"/>
<path d="M80.4429 61.4803H78.325V63.5981H80.4429V61.4803Z" fill="black"/>
<path d="M80.4429 59.3411H78.325V61.4831H80.4429V59.3411Z" fill="black"/>
<path d="M80.4429 57.2231H78.325V59.3411H80.4429V57.2231Z" fill="black"/>
<path d="M80.4429 55.0811H78.325V57.2231H80.4429V55.0811Z" fill="black"/>
<path d="M80.4429 52.9633H78.325V55.0811H80.4429V52.9633Z" fill="black"/>
<path d="M80.4429 50.8212H78.325V52.9633H80.4429V50.8212Z" fill="black"/>
<path d="M80.4429 48.7034H78.325V50.8212H80.4429V48.7034Z" fill="black"/>
<path d="M80.4429 46.5612H78.325V48.7034H80.4429V46.5612Z" fill="black"/>
<path d="M80.4429 44.4222H78.325V46.5643H80.4429V44.4222Z" fill="black"/>
<path d="M80.4429 35.9025H78.325V38.0445H80.4429V35.9025Z" fill="black"/>
<path d="M80.4429 33.7847H78.325V35.9025H80.4429V33.7847Z" fill="black"/>
<path d="M80.4429 31.6425H78.325V33.7847H80.4429V31.6425Z" fill="black"/>
<path d="M80.4429 29.5037H78.325V31.6457H80.4429V29.5037Z" fill="black"/>
<path d="M78.3282 72.1418H76.1861V74.2596H78.3282V72.1418Z" fill="black"/>
<path d="M78.3282 69.9998H76.1861V72.1418H78.3282V69.9998Z" fill="#577C57"/>
<path d="M78.3282 67.882H76.1861V69.9998H78.3282V67.882Z" fill="#577C57"/>
<path d="M78.3282 65.7399H76.1861V67.882H78.3282V65.7399Z" fill="#577C57"/>
<path d="M78.3282 63.6008H76.1861V65.7399H78.3282V63.6008Z" fill="#577C57"/>
<path d="M78.3282 61.4803H76.1861V63.5981H78.3282V61.4803Z" fill="#577C57"/>
<path d="M78.3282 59.3411H76.1861V61.4831H78.3282V59.3411Z" fill="#668466"/>
<path d="M78.3282 57.2231H76.1861V59.3411H78.3282V57.2231Z" fill="#668466"/>
<path d="M78.3282 55.0811H76.1861V57.2231H78.3282V55.0811Z" fill="#668466"/>
<path d="M78.3282 52.9633H76.1861V55.0811H78.3282V52.9633Z" fill="#577C57"/>
<path d="M78.3282 50.8212H76.1861V52.9633H78.3282V50.8212Z" fill="#577C57"/>
<path d="M78.3282 48.7034H76.1861V50.8212H78.3282V48.7034Z" fill="#577C57"/>
<path d="M78.3282 46.5612H76.1861V48.7034H78.3282V46.5612Z" fill="#577C57"/>
<path d="M78.3282 44.4222H76.1861V46.5643H78.3282V44.4222Z" fill="#577C57"/>
<path d="M78.3282 42.3046H76.1861V44.4222H78.3282V42.3046Z" fill="black"/>
<path d="M78.3282 40.1624H76.1861V42.3046H78.3282V40.1624Z" fill="black"/>
<path d="M78.3282 38.0446H76.1861V40.1624H78.3282V38.0446Z" fill="black"/>
<path d="M78.3282 35.9025H76.1861V38.0446H78.3282V35.9025Z" fill="#668466"/>
<path d="M78.3282 33.7847H76.1861V35.9025H78.3282V33.7847Z" fill="#446644"/>
<path d="M78.3282 31.6425H76.1861V33.7847H78.3282V31.6425Z" fill="#446644"/>
<path d="M78.3282 29.5037H76.1861V31.6457H78.3282V29.5037Z" fill="#668466"/>
<path d="M78.3282 27.3857H76.1861V29.5037H78.3282V27.3857Z" fill="black"/>
<path d="M78.3282 25.2437H76.1861V27.3857H78.3282V25.2437Z" fill="black"/>
<path d="M76.1861 72.1418H74.047V74.2596H76.1861V72.1418Z" fill="black"/>
<path d="M76.1861 69.9998H74.047V72.1418H76.1861V69.9998Z" fill="#446644"/>
<path d="M76.1861 67.882H74.047V69.9998H76.1861V67.882Z" fill="#668466"/>
<path d="M76.1861 65.7399H74.047V67.882H76.1861V65.7399Z" fill="#668466"/>
<path d="M76.1861 63.6008H74.047V65.7399H76.1861V63.6008Z" fill="#668466"/>
<path d="M76.1861 61.4803H74.047V63.5981H76.1861V61.4803Z" fill="#668466"/>
<path d="M76.1861 59.3411H74.047V61.4831H76.1861V59.3411Z" fill="#668466"/>
<path d="M76.1861 57.2231H74.047V59.3411H76.1861V57.2231Z" fill="#668466"/>
<path d="M76.1861 55.0811H74.047V57.2231H76.1861V55.0811Z" fill="#668466"/>
<path d="M76.1861 52.9633H74.047V55.0811H76.1861V52.9633Z" fill="#668466"/>
<path d="M76.1861 50.8212H74.047V52.9633H76.1861V50.8212Z" fill="#668466"/>
<path d="M76.1861 48.7034H74.047V50.8212H76.1861V48.7034Z" fill="#668466"/>
<path d="M76.1861 46.5612H74.047V48.7034H76.1861V46.5612Z" fill="#668466"/>
<path d="M76.1861 44.4222H74.047V46.5643H76.1861V44.4222Z" fill="#577C57"/>
<path d="M76.1861 42.3046H74.047V44.4222H76.1861V42.3046Z" fill="#446644"/>
<path d="M76.1861 40.1624H74.047V42.3046H76.1861V40.1624Z" fill="#668466"/>
<path d="M76.1861 38.0446H74.047V40.1624H76.1861V38.0446Z" fill="#668466"/>
<path d="M76.1861 35.9025H74.047V38.0446H76.1861V35.9025Z" fill="#446644"/>
<path d="M76.1861 33.7847H74.047V35.9025H76.1861V33.7847Z" fill="#668466"/>
<path d="M76.1861 31.6425H74.047V33.7847H76.1861V31.6425Z" fill="#668466"/>
<path d="M76.1861 29.5037H74.047V31.6457H76.1861V29.5037Z" fill="#446644"/>
<path d="M76.1861 27.3857H74.047V29.5037H76.1861V27.3857Z" fill="#668466"/>
<path d="M76.1861 25.2437H74.047V27.3857H76.1861V25.2437Z" fill="black"/>
<path d="M74.044 72.1418H71.9231V74.2596H74.044V72.1418Z" fill="black"/>
<path d="M74.044 69.9998H71.9231V72.1418H74.044V69.9998Z" fill="#446644"/>
<path d="M74.044 67.882H71.9231V69.9998H74.044V67.882Z" fill="#446644"/>
<path d="M74.044 65.7399H71.9231V67.882H74.044V65.7399Z" fill="#446644"/>
<path d="M74.044 63.6008H71.9231V65.7399H74.044V63.6008Z" fill="#668466"/>
<path d="M74.044 61.4803H71.9231V63.5981H74.044V61.4803Z" fill="#668466"/>
<path d="M74.044 59.3411H71.9231V61.4831H74.044V59.3411Z" fill="#668466"/>
<path d="M74.044 57.2231H71.9231V59.3411H74.044V57.2231Z" fill="#668466"/>
<path d="M74.044 55.0811H71.9231V57.2231H74.044V55.0811Z" fill="#668466"/>
<path d="M74.044 52.9633H71.9231V55.0811H74.044V52.9633Z" fill="#668466"/>
<path d="M74.044 50.8212H71.9231V52.9633H74.044V50.8212Z" fill="#668466"/>
<path d="M74.044 48.7034H71.9231V50.8212H74.044V48.7034Z" fill="#668466"/>
<path d="M74.044 46.5612H71.9231V48.7034H74.044V46.5612Z" fill="#668466"/>
<path d="M74.044 44.4222H71.9231V46.5643H74.044V44.4222Z" fill="#668466"/>
<path d="M74.044 42.3046H71.9231V44.4222H74.044V42.3046Z" fill="#446644"/>
<path d="M74.044 40.1624H71.9231V42.3046H74.044V40.1624Z" fill="#668466"/>
<path d="M74.044 38.0446H71.9231V40.1624H74.044V38.0446Z" fill="#668466"/>
<path d="M74.044 35.9025H71.9231V38.0446H74.044V35.9025Z" fill="#668466"/>
<path d="M74.044 33.7847H71.9231V35.9025H74.044V33.7847Z" fill="#446644"/>
<path d="M74.044 31.6425H71.9231V33.7847H74.044V31.6425Z" fill="#668466"/>
<path d="M74.044 29.5037H71.9231V31.6457H74.044V29.5037Z" fill="#446644"/>
<path d="M74.044 27.3857H71.9231V29.5037H74.044V27.3857Z" fill="#668466"/>
<path d="M74.044 25.2437H71.9231V27.3857H74.044V25.2437Z" fill="black"/>
<path d="M71.9262 72.1418H69.7871V74.2596H71.9262V72.1418Z" fill="black"/>
<path d="M71.9262 69.9998H69.7871V72.1418H71.9262V69.9998Z" fill="#446644"/>
<path d="M71.9262 67.882H69.7871V69.9998H71.9262V67.882Z" fill="#446644"/>
<path d="M71.9262 65.7399H69.7871V67.882H71.9262V65.7399Z" fill="#446644"/>
<path d="M71.9262 63.6008H69.7871V65.7399H71.9262V63.6008Z" fill="#446644"/>
<path d="M71.9262 61.4803H69.7871V63.5981H71.9262V61.4803Z" fill="#668466"/>
<path d="M71.9262 59.3411H69.7871V61.4831H71.9262V59.3411Z" fill="#668466"/>
<path d="M71.9262 57.2231H69.7871V59.3411H71.9262V57.2231Z" fill="#668466"/>
<path d="M71.9262 55.0811H69.7871V57.2231H71.9262V55.0811Z" fill="black"/>
<path d="M71.9262 52.9633H69.7871V55.0811H71.9262V52.9633Z" fill="black"/>
<path d="M71.9262 50.8212H69.7871V52.9633H71.9262V50.8212Z" fill="black"/>
<path d="M71.9262 48.7034H69.7871V50.8212H71.9262V48.7034Z" fill="black"/>
<path d="M71.9262 46.5612H69.7871V48.7034H71.9262V46.5612Z" fill="black"/>
<path d="M71.9262 44.4222H69.7871V46.5643H71.9262V44.4222Z" fill="#668466"/>
<path d="M71.9262 42.3046H69.7871V44.4222H71.9262V42.3046Z" fill="#446644"/>
<path d="M71.9262 40.1624H69.7871V42.3046H71.9262V40.1624Z" fill="black"/>
<path d="M71.9262 38.0446H69.7871V40.1624H71.9262V38.0446Z" fill="black"/>
<path d="M71.9262 35.9025H69.7871V38.0446H71.9262V35.9025Z" fill="black"/>
<path d="M71.9262 33.7847H69.7871V35.9025H71.9262V33.7847Z" fill="black"/>
<path d="M71.9262 31.6425H69.7871V33.7847H71.9262V31.6425Z" fill="#668466"/>
<path d="M71.9262 29.5037H69.7871V31.6457H71.9262V29.5037Z" fill="#668466"/>
<path d="M71.9262 27.3857H69.7871V29.5037H71.9262V27.3857Z" fill="#668466"/>
<path d="M71.9262 25.2437H69.7871V27.3857H71.9262V25.2437Z" fill="black"/>
<path d="M69.7841 87.0609H67.6663V89.1787H69.7841V87.0609Z" fill="black"/>
<path d="M69.7841 84.9187H67.6663V87.0609H69.7841V84.9187Z" fill="black"/>
<path d="M69.7841 72.1418H67.6663V74.2596H69.7841V72.1418Z" fill="black"/>
<path d="M69.7841 69.9998H67.6663V72.1418H69.7841V69.9998Z" fill="#446644"/>
<path d="M69.7841 67.882H67.6663V69.9998H69.7841V67.882Z" fill="#446644"/>
<path d="M69.7841 65.7399H67.6663V67.882H69.7841V65.7399Z" fill="#446644"/>
<path d="M69.7841 63.6008H67.6663V65.7399H69.7841V63.6008Z" fill="#446644"/>
<path d="M69.7841 61.4803H67.6663V63.5981H69.7841V61.4803Z" fill="#446644"/>
<path d="M69.7841 59.3411H67.6663V61.4831H69.7841V59.3411Z" fill="#446644"/>
<path d="M69.7841 57.2231H67.6663V59.3411H69.7841V57.2231Z" fill="black"/>
<path d="M69.7841 55.0811H67.6663V57.2231H69.7841V55.0811Z" fill="#8ABC8A"/>
<path d="M69.7841 52.9633H67.6663V55.0811H69.7841V52.9633Z" fill="#8ABC8A"/>
<path d="M69.7841 50.8212H67.6663V52.9633H69.7841V50.8212Z" fill="#8ABC8A"/>
<path d="M69.7841 48.7034H67.6663V50.8212H69.7841V48.7034Z" fill="#8ABC8A"/>
<path d="M69.7841 46.5612H67.6663V48.7034H69.7841V46.5612Z" fill="#8ABC8A"/>
<path d="M69.7841 44.4222H67.6663V46.5643H69.7841V44.4222Z" fill="black"/>
<path d="M69.7841 42.3046H67.6663V44.4222H69.7841V42.3046Z" fill="#446644"/>
<path d="M69.7841 40.1624H67.6663V42.3046H69.7841V40.1624Z" fill="black"/>
<path d="M69.7841 38.0446H67.6663V40.1624H69.7841V38.0446Z" fill="#969696"/>
<path d="M69.7841 35.9025H67.6663V38.0446H69.7841V35.9025Z" fill="#969696"/>
<path d="M69.7841 33.7847H67.6663V35.9025H69.7841V33.7847Z" fill="black"/>
<path d="M69.7841 31.6425H67.6663V33.7847H69.7841V31.6425Z" fill="#668466"/>
<path d="M69.7841 29.5037H67.6663V31.6457H69.7841V29.5037Z" fill="#668466"/>
<path d="M69.7841 27.3857H67.6663V29.5037H69.7841V27.3857Z" fill="black"/>
<path d="M67.6663 87.0609H65.5241V89.1787H67.6663V87.0609Z" fill="black"/>
<path d="M67.6663 84.9187H65.5241V87.0609H67.6663V84.9187Z" fill="#724107"/>
<path d="M67.6662 82.8007H65.5241V84.9187H67.6663L67.6662 82.8007Z" fill="black"/>
<path d="M67.6662 80.6588H65.5241V82.8007H67.6662V80.6588Z" fill="black"/>
<path d="M67.6663 69.9998H65.5241V72.1419L67.6663 72.1418V69.9998Z" fill="black"/>
<path d="M67.6663 67.882H65.5241V69.9998H67.6663V67.882Z" fill="#446644"/>
<path d="M67.6663 65.7399H65.5241V67.882H67.6663V65.7399Z" fill="#446644"/>
<path d="M67.6663 63.6008H65.5241V65.7399H67.6663V63.6008Z" fill="#446644"/>
<path d="M67.6663 61.4803H65.5241V63.5981H67.6663V61.4803Z" fill="#446644"/>
<path d="M67.6663 59.3411H65.5241V61.4831H67.6663V59.3411Z" fill="black"/>
<path d="M67.6663 57.2231H65.5241V59.3411H67.6663V57.2231Z" fill="#9DCF9D"/>
<path d="M67.6663 55.0811H65.5241V57.2231H67.6663V55.0811Z" fill="#9DCF9D"/>
<path d="M67.6663 52.9633H65.5241V55.0811H67.6663V52.9633Z" fill="#9DCF9D"/>
<path d="M67.6663 50.8212H65.5241V52.9633H67.6663V50.8212Z" fill="#9DCF9D"/>
<path d="M67.6663 48.7034H65.5241V50.8212H67.6663V48.7034Z" fill="#9DCF9D"/>
<path d="M67.6663 46.5612H65.5241V48.7034H67.6663V46.5612Z" fill="#8ABC8A"/>
<path d="M67.6663 44.4222H65.5241V46.5643H67.6663V44.4222Z" fill="#73C6C6"/>
<path d="M67.6663 42.3046H65.5241V44.4222H67.6663V42.3046Z" fill="black"/>
<path d="M67.6663 40.1624H65.5241V42.3046H67.6663V40.1624Z" fill="black"/>
<path d="M67.6663 38.0446H65.5241V40.1624H67.6663V38.0446Z" fill="#969696"/>
<path d="M67.6663 35.9025H65.5241V38.0446H67.6663V35.9025Z" fill="#969696"/>
<path d="M67.6663 33.7847H65.5241V35.9025H67.6663V33.7847Z" fill="#969696"/>
<path d="M67.6663 31.6425H65.5241V33.7847H67.6663V31.6425Z" fill="black"/>
<path d="M67.6663 29.5037H65.5241V31.6457H67.6663V29.5037Z" fill="black"/>
<path d="M65.5241 87.0609H63.4064V89.1787H65.5241V87.0609Z" fill="black"/>
<path d="M65.5241 84.9187H63.4064V87.0609H65.5241V84.9187Z" fill="#724107"/>
<path d="M65.5241 82.8007H63.4064V84.9187H65.5241V82.8007Z" fill="#4C3A1F"/>
<path d="M65.5241 80.6588H63.4064V82.8007H65.5241V80.6588Z" fill="#4C3A1F"/>
<path d="M65.5242 78.5195H63.4064V80.6588H65.5241L65.5242 78.5195Z" fill="black"/>
<path d="M65.5242 76.3988H63.4064V78.5195H65.5242V76.3988Z" fill="black"/>
<path d="M65.5242 74.2629H63.4064V76.4019H65.5242V74.2629Z" fill="black"/>
<path d="M65.5241 72.1419L63.4064 72.1418V74.2596H65.5242L65.5241 72.1419Z" fill="black"/>
<path d="M65.5241 69.9998H63.4064V72.1418L65.5241 72.1419V69.9998Z" fill="black"/>
<path d="M65.5241 67.882H63.4064V69.9998H65.5241V67.882Z" fill="black"/>
<path d="M65.5241 65.7399H63.4064V67.882H65.5241V65.7399Z" fill="black"/>
<path d="M65.5241 63.6008H63.4064V65.7399H65.5241V63.6008Z" fill="#446644"/>
<path d="M65.5241 61.4803H63.4064V63.5981H65.5241V61.4803Z" fill="black"/>
<path d="M65.5241 59.3411H63.4064V61.4831H65.5241V59.3411Z" fill="#668466"/>
<path d="M65.5241 57.2231H63.4064V59.3411H65.5241V57.2231Z" fill="#668466"/>
<path d="M65.5241 55.0811H63.4064V57.2231H65.5241V55.0811Z" fill="#668466"/>
<path d="M65.5241 52.9633H63.4064V55.0811H65.5241V52.9633Z" fill="#668466"/>
<path d="M65.5241 50.8212H63.4064V52.9633H65.5241V50.8212Z" fill="#9DCF9D"/>
<path d="M65.5241 48.7034H63.4064V50.8212H65.5241V48.7034Z" fill="#9DCF9D"/>
<path d="M65.5241 46.5612H63.4064V48.7034H65.5241V46.5612Z" fill="#8ABC8A"/>
<path d="M65.5241 44.4222H63.4064V46.5643H65.5241V44.4222Z" fill="#9FF5F7"/>
<path d="M65.5241 42.3046H63.4064V44.4222H65.5241V42.3046Z" fill="#73C6C6"/>
<path d="M65.5241 40.1624H63.4064V42.3046H65.5241V40.1624Z" fill="#969696"/>
<path d="M65.5241 38.0446H63.4064V40.1624H65.5241V38.0446Z" fill="#969696"/>
<path d="M65.5241 35.9025H63.4064V38.0446H65.5241V35.9025Z" fill="#969696"/>
<path d="M65.5241 33.7847H63.4064V35.9025H65.5241V33.7847Z" fill="#FFD8AE"/>
<path d="M65.5241 31.6425H63.4064V33.7847H65.5241V31.6425Z" fill="#969696"/>
<path d="M65.5241 29.5037H63.4064V31.6457H65.5241V29.5037Z" fill="black"/>
<path d="M65.5242 27.3857H63.4064V29.5037H65.5241L65.5242 27.3857Z" fill="black"/>
<path d="M65.5242 25.2437H63.4064V27.3857H65.5242V25.2437Z" fill="black"/>
<path d="M63.4094 87.0609H61.2673V89.1787H63.4094V87.0609Z" fill="black"/>
<path d="M63.4094 84.9187H61.2673V87.0609H63.4094V84.9187Z" fill="#724107"/>
<path d="M63.4094 82.8007H61.2673V84.9187H63.4094V82.8007Z" fill="#4C3A1F"/>
<path d="M63.4094 80.6588H61.2673V82.8007H63.4094V80.6588Z" fill="#4C3A1F"/>
<path d="M63.4094 78.5195H61.2673V80.6588H63.4094V78.5195Z" fill="#4C3A1F"/>
<path d="M63.4094 76.3988H61.2673V78.5195H63.4094V76.3988Z" fill="#4C3A1F"/>
<path d="M63.4094 74.2629H61.2673V76.4019H63.4094V74.2629Z" fill="#4C3A1F"/>
<path d="M63.4094 72.1418H61.2673V74.2596H63.4094V72.1418Z" fill="#634D27"/>
<path d="M63.4094 69.9998H61.2673V72.1418H63.4094V69.9998Z" fill="#634D27"/>
<path d="M63.4094 67.882H61.2673V69.9998H63.4094V67.882Z" fill="#634D27"/>
<path d="M63.4094 65.7399H61.2673V67.882H63.4094V65.7399Z" fill="#634D27"/>
<path d="M63.4094 63.6008H61.2673V65.7399H63.4094V63.6008Z" fill="black"/>
<path d="M63.4094 61.4803H61.2673V63.5981H63.4094V61.4803Z" fill="black"/>
<path d="M63.4094 59.3411H61.2673V61.4831H63.4094V59.3411Z" fill="#FFD8AE"/>
<path d="M63.4094 57.2231H61.2673V59.3411H63.4094V57.2231Z" fill="#FFD8AE"/>
<path d="M63.4094 55.0811H61.2673V57.2231H63.4094V55.0811Z" fill="#FFD8AE"/>
<path d="M63.4094 52.9633H61.2673V55.0811H63.4094V52.9633Z" fill="#668466"/>
<path d="M63.4094 50.8212H61.2673V52.9633H63.4094V50.8212Z" fill="#9DCF9D"/>
<path d="M63.4094 48.7034H61.2673V50.8212H63.4094V48.7034Z" fill="#8ABC8A"/>
<path d="M63.4094 46.5612H61.2673V48.7034H63.4094V46.5612Z" fill="#9FF5F7"/>
<path d="M63.4094 44.4222H61.2673V46.5643H63.4094V44.4222Z" fill="#9FF5F7"/>
<path d="M63.4094 42.3046H61.2673V44.4222H63.4094V42.3046Z" fill="#9FF5F7"/>
<path d="M63.4094 40.1624H61.2673V42.3046H63.4094V40.1624Z" fill="#73C6C6"/>
<path d="M63.4094 38.0446H61.2673V40.1624H63.4094V38.0446Z" fill="#73C6C6"/>
<path d="M63.4094 35.9025H61.2673V38.0446H63.4094V35.9025Z" fill="#DBAB7B"/>
<path d="M63.4094 33.7847H61.2673V35.9025H63.4094V33.7847Z" fill="#DBAB7B"/>
<path d="M63.4094 31.6425H61.2673V33.7847H63.4094V31.6425Z" fill="#969696"/>
<path d="M63.4094 29.5037H61.2673V31.6457H63.4094V29.5037Z" fill="#969696"/>
<path d="M63.4094 27.3857H61.2673V29.5037H63.4094V27.3857Z" fill="#969696"/>
<path d="M63.4094 25.2437H61.2673V27.3857H63.4094V25.2437Z" fill="black"/>
<path d="M63.4094 23.1259H61.2673V25.2437H63.4094V23.1259Z" fill="black"/>
<path d="M61.2673 87.0609H59.1283V89.1787H61.2673V87.0609Z" fill="black"/>
<path d="M61.2673 84.9187H59.1283V87.0609H61.2673V84.9187Z" fill="black"/>
<path d="M61.2673 82.8007H59.1283V84.9187H61.2673V82.8007Z" fill="black"/>
<path d="M61.2673 80.6588H59.1283V82.8007H61.2673V80.6588Z" fill="#4C3A1F"/>
<path d="M61.2673 78.5195H59.1283V80.6588H61.2673V78.5195Z" fill="#4C3A1F"/>
<path d="M61.2673 76.3988H59.1283V78.5195H61.2673V76.3988Z" fill="#634D27"/>
<path d="M61.2673 74.2629H59.1283V76.4019H61.2673V74.2629Z" fill="#634D27"/>
<path d="M61.2673 72.1418H59.1283V74.2596H61.2673V72.1418Z" fill="#634D27"/>
<path d="M61.2673 69.9998H59.1283V72.1418H61.2673V69.9998Z" fill="#634D27"/>
<path d="M61.2673 67.882H59.1283V69.9998H61.2673V67.882Z" fill="#634D27"/>
<path d="M61.2673 65.7399H59.1283V67.882H61.2673V65.7399Z" fill="#634D27"/>
<path d="M61.2673 63.6008H59.1283V65.7399H61.2673V63.6008Z" fill="#4C3A1F"/>
<path d="M61.2673 61.4803H59.1283V63.5981H61.2673V61.4803Z" fill="#8ABC8A"/>
<path d="M61.2673 59.3411H59.1283V61.4831H61.2673V59.3411Z" fill="#FFD8AE"/>
<path d="M61.2673 57.2231H59.1283V59.3411H61.2673V57.2231Z" fill="#FFD8AE"/>
<path d="M61.2673 55.0811H59.1283V57.2231H61.2673V55.0811Z" fill="#FFD8AE"/>
<path d="M61.2673 52.9633H59.1283V55.0811H61.2673V52.9633Z" fill="#9DCF9D"/>
<path d="M61.2673 50.8212H59.1283V52.9633H61.2673V50.8212Z" fill="#9DCF9D"/>
<path d="M61.2673 48.7034H59.1283V50.8212H61.2673V48.7034Z" fill="#9FF5F7"/>
<path d="M61.2673 46.5612H59.1283V48.7034H61.2673V46.5612Z" fill="#9FF5F7"/>
<path d="M61.2673 44.4222H59.1283V46.5643H61.2673V44.4222Z" fill="#73C6C6"/>
<path d="M61.2673 42.3046H59.1283V44.4222H61.2673V42.3046Z" fill="#9FF5F7"/>
<path d="M61.2673 40.1624H59.1283V42.3046H61.2673V40.1624Z" fill="#9FF5F7"/>
<path d="M61.2673 38.0446H59.1283V40.1624H61.2673V38.0446Z" fill="#73C6C6"/>
<path d="M61.2673 35.9025H59.1283V38.0446H61.2673V35.9025Z" fill="#FFD8AE"/>
<path d="M61.2673 33.7847H59.1283V35.9025H61.2673V33.7847Z" fill="#FFD8AE"/>
<path d="M61.2673 31.6425H59.1283V33.7847H61.2673V31.6425Z" fill="#FFD8AE"/>
<path d="M61.2673 29.5037H59.1283V31.6457H61.2673V29.5037Z" fill="#AFAFAF"/>
<path d="M61.2673 27.3857H59.1283V29.5037H61.2673V27.3857Z" fill="#AFAFAF"/>
<path d="M61.2673 25.2437H59.1283V27.3857H61.2673V25.2437Z" fill="#969696"/>
<path d="M61.2673 23.1259H59.1283V25.2437H61.2673V23.1259Z" fill="#969696"/>
<path d="M61.2673 20.9838H59.1283V23.1259H61.2673L61.2673 20.9838Z" fill="black"/>
<path d="M59.1253 80.6588H57.0074V82.8008H59.1253V80.6588Z" fill="black"/>
<path d="M59.1253 78.5195H57.0074V80.6588H59.1253V78.5195Z" fill="black"/>
<path d="M59.1253 76.3988H57.0074V78.5195H59.1253V76.3988Z" fill="#634D27"/>
<path d="M59.1253 74.2629H57.0074V76.4019H59.1253V74.2629Z" fill="#634D27"/>
<path d="M59.1253 72.1418H57.0074V74.2596H59.1253V72.1418Z" fill="#634D27"/>
<path d="M59.1253 69.9998H57.0074V72.1418H59.1253V69.9998Z" fill="#634D27"/>
<path d="M59.1253 67.882H57.0074V69.9998H59.1253V67.882Z" fill="#634D27"/>
<path d="M59.1253 65.7399H57.0074V67.882H59.1253V65.7399Z" fill="#634D27"/>
<path d="M59.1253 63.6008H57.0074V65.7399H59.1253V63.6008Z" fill="#4C3A1F"/>
<path d="M59.1253 61.4803H57.0074V63.5981H59.1253V61.4803Z" fill="#8ABC8A"/>
<path d="M59.1253 59.3411H57.0074V61.4831H59.1253V59.3411Z" fill="#9DCF9D"/>
<path d="M59.1253 57.2231H57.0074V59.3411H59.1253V57.2231Z" fill="#9DCF9D"/>
<path d="M59.1253 55.0811H57.0074V57.2231H59.1253V55.0811Z" fill="#FFD8AE"/>
<path d="M59.1253 52.9633H57.0074V55.0811H59.1253V52.9633Z" fill="#9DCF9D"/>
<path d="M59.1253 50.8212H57.0074V52.9633H59.1253V50.8212Z" fill="#73C6C6"/>
<path d="M59.1253 48.7034H57.0074V50.8212H59.1253V48.7034Z" fill="#9FF5F7"/>
<path d="M59.1253 46.5612H57.0074V48.7034H59.1253V46.5612Z" fill="#9FF5F7"/>
<path d="M59.1253 44.4222H57.0074V46.5643H59.1253V44.4222Z" fill="#9FF5F7"/>
<path d="M59.1253 42.3046H57.0074V44.4222H59.1253V42.3046Z" fill="#73C6C6"/>
<path d="M59.1253 40.1624H57.0074V42.3046H59.1253V40.1624Z" fill="#73C6C6"/>
<path d="M59.1253 38.0446H57.0074V40.1624H59.1253V38.0446Z" fill="#FFD8AE"/>
<path d="M59.1253 35.9025H57.0074V38.0446H59.1253V35.9025Z" fill="#FFD8AE"/>
<path d="M59.1253 33.7847H57.0074V35.9025H59.1253V33.7847Z" fill="black"/>
<path d="M59.1253 31.6425H57.0074V33.7847H59.1253V31.6425Z" fill="#FFD8AE"/>
<path d="M59.1253 29.5037H57.0074V31.6457H59.1253V29.5037Z" fill="#AFAFAF"/>
<path d="M59.1253 27.3857H57.0074V29.5037H59.1253V27.3857Z" fill="#AFAFAF"/>
<path d="M59.1253 25.2437H57.0074V27.3857H59.1253V25.2437Z" fill="#AFAFAF"/>
<path d="M59.1253 23.1259H57.0074V25.2437H59.1253V23.1259Z" fill="#969696"/>
<path d="M59.1253 20.9838H57.0074V23.1259H59.1253V20.9838Z" fill="black"/>
<path d="M57.0074 78.5195H54.8654V80.6586L57.0074 80.6588V78.5195Z" fill="black"/>
<path d="M57.0074 76.3988H54.8654V78.5195H57.0074V76.3988Z" fill="black"/>
<path d="M57.0074 74.2629H54.8654V76.4019H57.0074V74.2629Z" fill="black"/>
<path d="M57.0074 72.1418H54.8654V74.2596H57.0074V72.1418Z" fill="#634D27"/>
<path d="M57.0074 69.9998H54.8654V72.1418H57.0074V69.9998Z" fill="#634D27"/>
<path d="M57.0074 67.882H54.8654V69.9998H57.0074V67.882Z" fill="#634D27"/>
<path d="M57.0074 65.7399H54.8654V67.882H57.0074V65.7399Z" fill="#634D27"/>
<path d="M57.0074 63.6008H54.8654V65.7399H57.0074V63.6008Z" fill="#4C3A1F"/>
<path d="M57.0074 61.4803H54.8654V63.5981H57.0074V61.4803Z" fill="#8ABC8A"/>
<path d="M57.0074 59.3411H54.8654V61.4831H57.0074V59.3411Z" fill="#9DCF9D"/>
<path d="M57.0074 57.2231H54.8654V59.3411H57.0074V57.2231Z" fill="#9DCF9D"/>
<path d="M57.0074 55.0811H54.8654V57.2231H57.0074V55.0811Z" fill="#9DCF9D"/>
<path d="M57.0074 52.9633H54.8654V55.0811H57.0074V52.9633Z" fill="#9DCF9D"/>
<path d="M57.0074 50.8212H54.8654V52.9633H57.0074V50.8212Z" fill="#8ABC8A"/>
<path d="M57.0074 48.7034H54.8654V50.8212H57.0074V48.7034Z" fill="#73C6C6"/>
<path d="M57.0074 46.5612H54.8654V48.7034H57.0074V46.5612Z" fill="#9FF5F7"/>
<path d="M57.0074 44.4222H54.8654V46.5643H57.0074V44.4222Z" fill="#9FF5F7"/>
<path d="M57.0074 42.3046H54.8654V44.4222H57.0074V42.3046Z" fill="#9FF5F7"/>
<path d="M57.0074 40.1624H54.8654V42.3046H57.0074V40.1624Z" fill="#73C6C6"/>
<path d="M57.0074 38.0446H54.8654V40.1624H57.0074V38.0446Z" fill="#FFD8AE"/>
<path d="M57.0074 35.9025H54.8654V38.0446H57.0074V35.9025Z" fill="#FFD8AE"/>
<path d="M57.0074 33.7847H54.8654V35.9025H57.0074V33.7847Z" fill="#FFD8AE"/>
<path d="M57.0074 31.6425H54.8654V33.7847H57.0074V31.6425Z" fill="#FFD8AE"/>
<path d="M57.0074 29.5037H54.8654V31.6457H57.0074V29.5037Z" fill="#AFAFAF"/>
<path d="M57.0074 27.3857H54.8654V29.5037H57.0074V27.3857Z" fill="#AFAFAF"/>
<path d="M57.0074 25.2437H54.8654V27.3857H57.0074V25.2437Z" fill="#AFAFAF"/>
<path d="M57.0074 23.1259H54.8654V25.2437H57.0074V23.1259Z" fill="#969696"/>
<path d="M57.0074 20.9838H54.8654V23.1259H57.0074V20.9838Z" fill="black"/>
<path d="M54.8654 87.0609H52.7476V89.1787H54.8654V87.0609Z" fill="black"/>
<path d="M54.8654 84.9187H52.7476V87.0609H54.8654V84.9187Z" fill="black"/>
<path d="M54.8654 82.8007H52.7476V84.9187H54.8654V82.8007Z" fill="black"/>
<path d="M54.8654 80.6586L52.7476 80.6588V82.8007H54.8654L54.8654 80.6586Z" fill="black"/>
<path d="M54.8654 78.5195H52.7476V80.6588L54.8654 80.6586V78.5195Z" fill="#4C3A1F"/>
<path d="M54.8654 76.3988H52.7476V78.5195H54.8654V76.3988Z" fill="#634D27"/>
<path d="M54.8654 74.2629H52.7476V76.4019H54.8654V74.2629Z" fill="#634D27"/>
<path d="M54.8654 72.1418H52.7476V74.2596H54.8654V72.1418Z" fill="#634D27"/>
<path d="M54.8654 69.9998H52.7476V72.1418H54.8654V69.9998Z" fill="#634D27"/>
<path d="M54.8654 67.882H52.7476V69.9998H54.8654V67.882Z" fill="#634D27"/>
<path d="M54.8654 65.7399H52.7476V67.882H54.8654V65.7399Z" fill="#4C3A1F"/>
<path d="M54.8654 63.6008H52.7476V65.7399H54.8654V63.6008Z" fill="#8ABC8A"/>
<path d="M54.8654 61.4803H52.7476V63.5981H54.8654V61.4803Z" fill="#8ABC8A"/>
<path d="M54.8654 59.3411H52.7476V61.4831H54.8654V59.3411Z" fill="#9DCF9D"/>
<path d="M54.8654 57.2231H52.7476V59.3411H54.8654V57.2231Z" fill="#9DCF9D"/>
<path d="M54.8654 55.0811H52.7476V57.2231H54.8654V55.0811Z" fill="#9DCF9D"/>
<path d="M54.8654 52.9633H52.7476V55.0811H54.8654V52.9633Z" fill="#9DCF9D"/>
<path d="M54.8654 50.8212H52.7476V52.9633H54.8654V50.8212Z" fill="#8ABC8A"/>
<path d="M54.8654 48.7034H52.7476V50.8212H54.8654V48.7034Z" fill="#8ABC8A"/>
<path d="M54.8654 46.5612H52.7476V48.7034H54.8654V46.5612Z" fill="#73C6C6"/>
<path d="M54.8654 44.4222H52.7476V46.5643H54.8654V44.4222Z" fill="#9FF5F7"/>
<path d="M54.8654 42.3046H52.7476V44.4222H54.8654V42.3046Z" fill="#9FF5F7"/>
<path d="M54.8654 40.1624H52.7476V42.3046H54.8654V40.1624Z" fill="#73C6C6"/>
<path d="M54.8654 38.0446H52.7476V40.1624H54.8654V38.0446Z" fill="#FFD8AE"/>
<path d="M54.8654 35.9025H52.7476V38.0446H54.8654V35.9025Z" fill="#FFD8AE"/>
<path d="M54.8654 33.7847H52.7476V35.9025H54.8654V33.7847Z" fill="#FFD8AE"/>
<path d="M54.8654 31.6425H52.7476V33.7847H54.8654V31.6425Z" fill="#FFD8AE"/>
<path d="M54.8654 29.5037H52.7476V31.6457H54.8654V29.5037Z" fill="#AFAFAF"/>
<path d="M54.8654 27.3857H52.7476V29.5037H54.8654V27.3857Z" fill="#AFAFAF"/>
<path d="M54.8654 25.2437H52.7476V27.3857H54.8654V25.2437Z" fill="#AFAFAF"/>
<path d="M54.8654 23.1259H52.7476V25.2437H54.8654V23.1259Z" fill="#AFAFAF"/>
<path d="M54.8654 20.9838H52.7476V23.1259H54.8654V20.9838Z" fill="#969696"/>
<path d="M54.8654 18.866H52.7476V20.9838H54.8654L54.8654 18.866Z" fill="black"/>
<path d="M52.7476 87.0609H50.6054V89.1787H52.7476V87.0609Z" fill="black"/>
<path d="M52.7476 84.9187H50.6054V87.0609H52.7476V84.9187Z" fill="#724107"/>
<path d="M52.7476 82.8007H50.6054V84.9187H52.7476V82.8007Z" fill="#4C3A1F"/>
<path d="M52.7476 80.6588H50.6054V82.8007H52.7476V80.6588Z" fill="#4C3A1F"/>
<path d="M52.7476 78.5195H50.6054V80.6588H52.7476V78.5195Z" fill="#4C3A1F"/>
<path d="M52.7476 76.3988H50.6054V78.5195H52.7476V76.3988Z" fill="#4C3A1F"/>
<path d="M52.7476 74.2629H50.6054V76.4019H52.7476V74.2629Z" fill="#634D27"/>
<path d="M52.7476 72.1418H50.6054V74.2596H52.7476V72.1418Z" fill="#634D27"/>
<path d="M52.7476 69.9998H50.6054V72.1418H52.7476V69.9998Z" fill="#634D27"/>
<path d="M52.7476 67.882H50.6054V69.9998H52.7476V67.882Z" fill="#634D27"/>
<path d="M52.7476 65.7399H50.6054V67.882H52.7476V65.7399Z" fill="#4C3A1F"/>
<path d="M52.7476 63.6008H50.6054V65.7399H52.7476V63.6008Z" fill="#8ABC8A"/>
<path d="M52.7476 61.4803H50.6054V63.5981H52.7476V61.4803Z" fill="#9DCF9D"/>
<path d="M52.7476 59.3411H50.6054V61.4831H52.7476V59.3411Z" fill="#9FF5F7"/>
<path d="M52.7476 57.2231H50.6054V59.3411H52.7476V57.2231Z" fill="#9DCF9D"/>
<path d="M52.7476 55.0811H50.6054V57.2231H52.7476V55.0811Z" fill="#9DCF9D"/>
<path d="M52.7476 52.9633H50.6054V55.0811H52.7476V52.9633Z" fill="#9FF5F7"/>
<path d="M52.7476 50.8212H50.6054V52.9633H52.7476V50.8212Z" fill="#9DCF9D"/>
<path d="M52.7476 48.7034H50.6054V50.8212H52.7476V48.7034Z" fill="#9DCF9D"/>
<path d="M52.7476 46.5612H50.6054V48.7034H52.7476V46.5612Z" fill="#73C6C6"/>
<path d="M52.7476 44.4222H50.6054V46.5643H52.7476V44.4222Z" fill="#9FF5F7"/>
<path d="M52.7476 42.3046H50.6054V44.4222H52.7476V42.3046Z" fill="#9FF5F7"/>
<path d="M52.7476 40.1624H50.6054V42.3046H52.7476V40.1624Z" fill="#73C6C6"/>
<path d="M52.7476 38.0446H50.6054V40.1624H52.7476V38.0446Z" fill="#FFD8AE"/>
<path d="M52.7476 35.9025H50.6054V38.0446H52.7476V35.9025Z" fill="#FFD8AE"/>
<path d="M52.7476 33.7847H50.6054V35.9025H52.7476V33.7847Z" fill="black"/>
<path d="M52.7476 31.6425H50.6054V33.7847H52.7476V31.6425Z" fill="#FFD8AE"/>
<path d="M52.7476 29.5037H50.6054V31.6457H52.7476V29.5037Z" fill="#AFAFAF"/>
<path d="M52.7476 27.3857H50.6054V29.5037H52.7476V27.3857Z" fill="#AFAFAF"/>
<path d="M52.7476 25.2437H50.6054V27.3857H52.7476V25.2437Z" fill="#AFAFAF"/>
<path d="M52.7476 23.1259H50.6054V25.2437H52.7476V23.1259Z" fill="#AFAFAF"/>
<path d="M52.7476 20.9838H50.6054V23.1259H52.7476V20.9838Z" fill="#969696"/>
<path d="M52.7476 18.866H50.6054V20.9838H52.7476V18.866Z" fill="black"/>
<path d="M50.6054 87.0609H48.4876V89.1787H50.6054V87.0609Z" fill="black"/>
<path d="M50.6054 84.9187H48.4876V87.0609H50.6054V84.9187Z" fill="#724107"/>
<path d="M50.6054 82.8007H48.4876V84.9187H50.6054V82.8007Z" fill="#4C3A1F"/>
<path d="M50.6054 80.6588H48.4876V82.8007H50.6054V80.6588Z" fill="#4C3A1F"/>
<path d="M50.6054 78.5195H48.4876V80.6588H50.6054V78.5195Z" fill="#4C3A1F"/>
<path d="M50.6054 76.3988H48.4876V78.5195H50.6054V76.3988Z" fill="#4C3A1F"/>
<path d="M50.6054 74.2629H48.4876V76.4019H50.6054V74.2629Z" fill="#4C3A1F"/>
<path d="M50.6054 72.1418H48.4876V74.2596H50.6054V72.1418Z" fill="#634D27"/>
<path d="M50.6054 69.9998H48.4876V72.1418H50.6054V69.9998Z" fill="#634D27"/>
<path d="M50.6054 67.882H48.4876V69.9998H50.6054V67.882Z" fill="#634D27"/>
<path d="M50.6054 65.7399H48.4876V67.882H50.6054V65.7399Z" fill="#4C3A1F"/>
<path d="M50.6054 63.6008H48.4876V65.7399H50.6054V63.6008Z" fill="#668466"/>
<path d="M50.6054 61.4803H48.4876V63.5981H50.6054V61.4803Z" fill="#668466"/>
<path d="M50.6054 59.3411H48.4876V61.4831H50.6054V59.3411Z" fill="#668466"/>
<path d="M50.6054 57.2231H48.4876V59.3411H50.6054V57.2231Z" fill="#668466"/>
<path d="M50.6054 55.0811H48.4876V57.2231H50.6054V55.0811Z" fill="#668466"/>
<path d="M50.6054 52.9633H48.4876V55.0811H50.6054V52.9633Z" fill="#668466"/>
<path d="M50.6054 50.8212H48.4876V52.9633H50.6054V50.8212Z" fill="#668466"/>
<path d="M50.6054 48.7034H48.4876V50.8212H50.6054V48.7034Z" fill="#668466"/>
<path d="M50.6054 46.5612H48.4876V48.7034H50.6054V46.5612Z" fill="#73C6C6"/>
<path d="M50.6054 44.4222H48.4876V46.5643H50.6054V44.4222Z" fill="#9FF5F7"/>
<path d="M50.6054 42.3046H48.4876V44.4222H50.6054V42.3046Z" fill="#73C6C6"/>
<path d="M50.6054 40.1624H48.4876V42.3046H50.6054V40.1624Z" fill="#73C6C6"/>
<path d="M50.6054 38.0446H48.4876V40.1624H50.6054V38.0446Z" fill="#FFD8AE"/>
<path d="M50.6054 35.9025H48.4876V38.0446H50.6054V35.9025Z" fill="#FFD8AE"/>
<path d="M50.6054 33.7847H48.4876V35.9025H50.6054V33.7847Z" fill="#FFD8AE"/>
<path d="M50.6054 31.6425H48.4876V33.7847H50.6054V31.6425Z" fill="#AFAFAF"/>
<path d="M50.6054 29.5037H48.4876V31.6457H50.6054V29.5037Z" fill="#AFAFAF"/>
<path d="M50.6054 27.3857H48.4876V29.5037H50.6054V27.3857Z" fill="#AFAFAF"/>
<path d="M50.6054 25.2437H48.4876V27.3857H50.6054V25.2437Z" fill="#AFAFAF"/>
<path d="M50.6054 23.1259H48.4876V25.2437H50.6054V23.1259Z" fill="#AFAFAF"/>
<path d="M50.6054 20.9838H48.4876V23.1259H50.6054V20.9838Z" fill="#AFAFAF"/>
<path d="M50.6054 18.866H48.4876V20.9838H50.6054V18.866Z" fill="black"/>
<path d="M48.4907 87.0609H46.3486V89.1787H48.4907V87.0609Z" fill="black"/>
<path d="M48.4907 84.9187H46.3486V87.0609H48.4907V84.9187Z" fill="#724107"/>
<path d="M48.4907 82.8007H46.3486V84.9187H48.4907V82.8007Z" fill="#724107"/>
<path d="M48.4907 80.6588H46.3486V82.8007H48.4907V80.6588Z" fill="black"/>
<path d="M48.4907 78.5195H46.3486V80.6588H48.4907V78.5195Z" fill="black"/>
<path d="M48.4907 76.3988H46.3486V78.5195H48.4907V76.3988Z" fill="black"/>
<path d="M48.4907 74.2629H46.3486V76.4019H48.4907V74.2629Z" fill="#4C3A1F"/>
<path d="M48.4907 72.1418H46.3486V74.2596H48.4907V72.1418Z" fill="#4C3A1F"/>
<path d="M48.4907 69.9998H46.3486V72.1418H48.4907V69.9998Z" fill="#4C3A1F"/>
<path d="M48.4907 67.882H46.3486V69.9998H48.4907V67.882Z" fill="#4C3A1F"/>
<path d="M48.4907 65.7399H46.3486V67.882H48.4907V65.7399Z" fill="#4C3A1F"/>
<path d="M48.4907 63.6008H46.3486V65.7399H48.4907V63.6008Z" fill="#8ABC8A"/>
<path d="M48.4907 61.4803H46.3486V63.5981H48.4907V61.4803Z" fill="#9DCF9D"/>
<path d="M48.4907 59.3411H46.3486V61.4831H48.4907V59.3411Z" fill="#9DCF9D"/>
<path d="M48.4907 57.2231H46.3486V59.3411H48.4907V57.2231Z" fill="#9DCF9D"/>
<path d="M48.4907 55.0811H46.3486V57.2231H48.4907V55.0811Z" fill="#9DCF9D"/>
<path d="M48.4907 52.9633H46.3486V55.0811H48.4907V52.9633Z" fill="#9DCF9D"/>
<path d="M48.4907 50.8212H46.3486V52.9633H48.4907V50.8212Z" fill="#9DCF9D"/>
<path d="M48.4907 48.7034H46.3486V50.8212H48.4907V48.7034Z" fill="#73C6C6"/>
<path d="M48.4907 46.5612H46.3486V48.7034H48.4907V46.5612Z" fill="#9FF5F7"/>
<path d="M48.4907 44.4222H46.3486V46.5643H48.4907V44.4222Z" fill="#9FF5F7"/>
<path d="M48.4907 42.3046H46.3486V44.4222H48.4907V42.3046Z" fill="#73C6C6"/>
<path d="M48.4907 40.1624H46.3486V42.3046H48.4907V40.1624Z" fill="#73C6C6"/>
<path d="M48.4907 38.0446H46.3486V40.1624H48.4907V38.0446Z" fill="#969696"/>
<path d="M48.4907 35.9025H46.3486V38.0446H48.4907V35.9025Z" fill="#FFD8AE"/>
<path d="M48.4907 33.7847H46.3486V35.9025H48.4907V33.7847Z" fill="#AFAFAF"/>
<path d="M48.4907 31.6425H46.3486V33.7847H48.4907V31.6425Z" fill="#AFAFAF"/>
<path d="M48.4907 29.5037H46.3486V31.6457H48.4907V29.5037Z" fill="#AFAFAF"/>
<path d="M48.4907 27.3857H46.3486V29.5037H48.4907V27.3857Z" fill="#AFAFAF"/>
<path d="M48.4907 25.2437H46.3486V27.3857H48.4907V25.2437Z" fill="#AFAFAF"/>
<path d="M48.4907 23.1259H46.3486V25.2437H48.4907V23.1259Z" fill="#AFAFAF"/>
<path d="M48.4907 20.9838H46.3486V23.1259H48.4907V20.9838Z" fill="black"/>
<path d="M46.3456 87.0609H44.2278V89.1787H46.3456V87.0609Z" fill="black"/>
<path d="M46.3456 84.9187H44.2278V87.0609H46.3456V84.9187Z" fill="#724107"/>
<path d="M46.3456 82.8007H44.2278V84.9187H46.3456V82.8007Z" fill="black"/>
<path d="M46.3456 74.2629H44.2278V76.4019H46.3456V74.2629Z" fill="black"/>
<path d="M46.3456 72.1418H44.2278V74.2596H46.3456V72.1418Z" fill="black"/>
<path d="M46.3456 69.9998H44.2278V72.1418H46.3456V69.9998Z" fill="black"/>
<path d="M46.3456 67.882H44.2278V69.9998H46.3456V67.882Z" fill="black"/>
<path d="M46.3456 65.7399H44.2278V67.882H46.3456V65.7399Z" fill="black"/>
<path d="M46.3456 63.6008H44.2278V65.7399H46.3456V63.6008Z" fill="black"/>
<path d="M46.3456 61.4803H44.2278V63.5981H46.3456V61.4803Z" fill="#9DCF9D"/>
<path d="M46.3456 59.3411H44.2278V61.4831H46.3456V59.3411Z" fill="#9DCF9D"/>
<path d="M46.3456 57.2231H44.2278V59.3411H46.3456V57.2231Z" fill="#9DCF9D"/>
<path d="M46.3456 55.0811H44.2278V57.2231H46.3456V55.0811Z" fill="#9DCF9D"/>
<path d="M46.3456 52.9633H44.2278V55.0811H46.3456V52.9633Z" fill="#9DCF9D"/>
<path d="M46.3456 50.8212H44.2278V52.9633H46.3456V50.8212Z" fill="#9DCF9D"/>
<path d="M46.3456 48.7034H44.2278V50.8212H46.3456V48.7034Z" fill="#73C6C6"/>
<path d="M46.3456 46.5612H44.2278V48.7034H46.3456V46.5612Z" fill="#73C6C6"/>
<path d="M46.3456 44.4222H44.2278V46.5643H46.3456V44.4222Z" fill="#73C6C6"/>
<path d="M46.3456 42.3046H44.2278V44.4222H46.3456V42.3046Z" fill="black"/>
<path d="M46.3456 40.1624H44.2278V42.3046H46.3456V40.1624Z" fill="#969696"/>
<path d="M46.3456 38.0446H44.2278V40.1624H46.3456V38.0446Z" fill="#969696"/>
<path d="M46.3456 35.9025H44.2278V38.0446H46.3456V35.9025Z" fill="#969696"/>
<path d="M46.3456 33.7847H44.2278V35.9025H46.3456V33.7847Z" fill="#969696"/>
<path d="M46.3456 31.6425H44.2278V33.7847H46.3456V31.6425Z" fill="black"/>
<path d="M46.3456 29.5037H44.2278V31.6457H46.3456V29.5037Z" fill="#AFAFAF"/>
<path d="M46.3456 27.3857H44.2278V29.5037H46.3456V27.3857Z" fill="#AFAFAF"/>
<path d="M46.3456 25.2437H44.2278V27.3857H46.3456V25.2437Z" fill="#AFAFAF"/>
<path d="M46.3456 23.1259H44.2278V25.2437H46.3456V23.1259Z" fill="#969696"/>
<path d="M46.3456 20.9838H44.2278V23.1259H46.3456V20.9838Z" fill="black"/>
<path d="M44.2308 87.0609H42.0887V89.1787H44.2308V87.0609Z" fill="black"/>
<path d="M44.2308 84.9187H42.0887V87.0609H44.2308V84.9187Z" fill="black"/>
<path d="M44.2308 61.4803H42.0887V63.5981H44.2308V61.4803Z" fill="black"/>
<path d="M44.2308 59.3411H42.0887V61.4831H44.2308V59.3411Z" fill="#9DCF9D"/>
<path d="M44.2308 57.2231H42.0887V59.3411H44.2308V57.2231Z" fill="#668466"/>
<path d="M44.2308 55.0811H42.0887V57.2231H44.2308V55.0811Z" fill="#4F704F"/>
<path d="M44.2308 52.9633H42.0887V55.0811H44.2308V52.9633Z" fill="#4F704F"/>
<path d="M44.2308 50.8212H42.0887V52.9633H44.2308V50.8212Z" fill="black"/>
<path d="M44.2308 48.7034H42.0887V50.8212H44.2308V48.7034Z" fill="black"/>
<path d="M44.2308 46.5612H42.0887V48.7034H44.2308V46.5612Z" fill="black"/>
<path d="M44.2308 44.4222H42.0887V46.5643H44.2308V44.4222Z" fill="black"/>
<path d="M44.2308 40.1624H42.0887V42.3045H44.2308V40.1624Z" fill="black"/>
<path d="M44.2308 38.0446H42.0887V40.1624H44.2308V38.0446Z" fill="#969696"/>
<path d="M44.2308 35.9025H42.0887V38.0446H44.2308V35.9025Z" fill="black"/>
<path d="M44.2308 33.7847H42.0887V35.9025H44.2308V33.7847Z" fill="black"/>
<path d="M44.2308 27.3857H42.0887V29.5035H44.2308V27.3857Z" fill="black"/>
<path d="M44.2308 25.2437H42.0887V27.3857H44.2308V25.2437Z" fill="#969696"/>
<path d="M44.2308 23.1259H42.0887V25.2437H44.2308V23.1259Z" fill="black"/>
<path d="M42.0887 61.4803H39.9466V63.5981H42.0887V61.4803Z" fill="black"/>
<path d="M42.0887 59.3411H39.9466V61.4831H42.0887V59.3411Z" fill="#668466"/>
<path d="M42.0887 57.2231H39.9466V59.3411H42.0887V57.2231Z" fill="#668466"/>
<path d="M42.0887 55.0811H39.9466V57.2231H42.0887V55.0811Z" fill="#668466"/>
<path d="M42.0887 52.9633H39.9466V55.0811H42.0887V52.9633Z" fill="#4F704F"/>
<path d="M42.0887 50.8212H39.9466V52.9633H42.0887V50.8212Z" fill="black"/>
<path d="M42.0887 40.1624H39.9466V42.3045H42.0887V40.1624Z" fill="black"/>
<path d="M42.0887 38.0446H39.9466V40.1624H42.0887V38.0446Z" fill="black"/>
<path d="M42.0887 35.9025H39.9466V38.0446H42.0887V35.9025Z" fill="black"/>
<path d="M42.0887 29.5035L39.9466 29.5037V31.6457H42.0887L42.0887 29.5035Z" fill="black"/>
<path d="M42.0887 27.3857H39.9466V29.5037L42.0887 29.5035V27.3857Z" fill="#969696"/>
<path d="M42.0887 25.2437H39.9466V27.3857H42.0887V25.2437Z" fill="black"/>
<path d="M39.9466 63.6008H37.8288V65.7399H39.9466V63.6008Z" fill="black"/>
<path d="M39.9466 61.4803H37.8288V63.5981H39.9466V61.4803Z" fill="#4F704F"/>
<path d="M39.9466 59.3411H37.8288V61.4831H39.9466V59.3411Z" fill="#668466"/>
<path d="M39.9466 57.2231H37.8288V59.3411H39.9466V57.2231Z" fill="#4F704F"/>
<path d="M39.9466 55.0811H37.8288V57.2231H39.9466V55.0811Z" fill="#668466"/>
<path d="M39.9466 52.9633H37.8288V55.0811H39.9466V52.9633Z" fill="#668466"/>
<path d="M39.9466 50.8212H37.8288V52.9633H39.9466V50.8212Z" fill="black"/>
<path d="M39.9466 48.7034H37.8288V50.8212H39.9466L39.9466 48.7034Z" fill="black"/>
<path d="M39.9466 27.3857H37.8288V29.5035L39.9466 29.5037V27.3857Z" fill="black"/>
<path d="M37.8288 63.6008H35.6867V65.7399H37.8288V63.6008Z" fill="black"/>
<path d="M37.8288 61.4803H35.6867V63.5981H37.8288V61.4803Z" fill="#4F704F"/>
<path d="M37.8288 59.3411H35.6867V61.4831H37.8288V59.3411Z" fill="#4F704F"/>
<path d="M37.8288 57.2231H35.6867V59.3411H37.8288V57.2231Z" fill="#668466"/>
<path d="M37.8288 55.0811H35.6867V57.2231H37.8288V55.0811Z" fill="#668466"/>
<path d="M37.8288 52.9633H35.6867V55.0811H37.8288V52.9633Z" fill="black"/>
<path d="M35.6867 63.6008H33.5689V65.7399H35.6867V63.6008Z" fill="black"/>
<path d="M35.6867 61.4803H33.5689V63.5981H35.6867V61.4803Z" fill="#4F704F"/>
<path d="M35.6867 59.3411H33.5689V61.4831H35.6867V59.3411Z" fill="#FFD8AE"/>
<path d="M35.6867 57.2231H33.5689V59.3411H35.6867V57.2231Z" fill="#FFD8AE"/>
<path d="M35.6867 55.0811H33.5689V57.2231H35.6867V55.0811Z" fill="black"/>
<path d="M33.572 63.6008H31.4299V65.7399H33.572V63.6008Z" fill="black"/>
<path d="M33.572 61.4803H31.4299V63.5981H33.572V61.4803Z" fill="#4F704F"/>
<path d="M33.572 59.3411H31.4299V61.4831H33.572V59.3411Z" fill="#FFD8AE"/>
<path d="M33.572 57.2231H31.4299V59.3411H33.572V57.2231Z" fill="black"/>
<path d="M31.4268 61.4803H29.309V63.5981H31.4268V61.4803Z" fill="black"/>
<path d="M31.4268 59.3411H29.309V61.4831H31.4268V59.3411Z" fill="#FFD8AE"/>
<path d="M31.4268 57.2231H29.309V59.3411H31.4268V57.2231Z" fill="black"/>
<path d="M29.312 61.4803H27.17V63.5981H29.312V61.4803Z" fill="black"/>
<path d="M29.312 59.3411H27.17V61.4831H29.312V59.3411Z" fill="#FFD8AE"/>
<path d="M29.312 57.2231H27.17V59.3411H29.312V57.2231Z" fill="black"/>
<path d="M27.17 59.3411H25.028V61.4831H27.17V59.3411Z" fill="black"/>
<path d="M27.17 57.2231H25.028V59.3411H27.17V57.2231Z" fill="black"/>
<path d="M25.028 57.2231H22.9101V59.3409L25.028 59.3411V57.2231Z" fill="black"/>
<path d="M22.9101 57.2231H20.768V59.3409H22.9101V57.2231Z" fill="black"/>
<path d="M20.768 57.2231H18.6501V59.3409H20.768V57.2231Z" fill="black"/>
<path d="M67.3174 49.1404H66.2463V50.2115H67.3174V49.1404Z" fill="#594F4F"/>
<path d="M66.2463 50.2115L65.1541 50.2116V51.3039H66.2464L66.2463 50.2115Z" fill="#594F4F"/>
<path d="M66.2463 49.1404H65.1541V50.2116L66.2463 50.2115V49.1404Z" fill="black"/>
<path d="M66.2464 48.0695H65.1541V49.1404H66.2463L66.2464 48.0695Z" fill="#594F4F"/>
<path d="M65.1541 51.3039L64.0829 51.3038V52.3749H65.154L65.1541 51.3039Z" fill="#594F4F"/>
<path d="M65.1541 50.2116H64.0829V51.3038L65.1541 51.3039V50.2116Z" fill="black"/>
<path d="M65.1541 49.1404H64.0829V50.2116H65.1541V49.1404Z" fill="#594F4F"/>
<path d="M64.083 52.3719H63.015V53.4642H64.083V52.3719Z" fill="#594F4F"/>
<path d="M64.0829 51.3038H63.015V52.3749H64.0829V51.3038Z" fill="black"/>
<path d="M64.0829 50.2116H63.015V51.3038H64.0829V50.2116Z" fill="#594F4F"/>
<path d="M63.015 52.3719H61.9228V53.4642H63.015V52.3719Z" fill="black"/>
<path d="M63.015 51.3038H61.9228V52.3749H63.015V51.3038Z" fill="#594F4F"/>
<path d="M61.9228 53.4642L60.8517 53.4641V54.5352H61.9227L61.9228 53.4642Z" fill="black"/>
<path d="M60.8517 54.5352L59.7594 54.5353V55.6063H60.8517L60.8517 54.5352Z" fill="black"/>
<path d="M58.6884 57.7697H57.6174V58.8407H58.6884V57.7697Z" fill="black"/>
<path d="M57.6174 58.8375H56.5251V59.9298H57.6174V58.8375Z" fill="black"/>
<path d="M40.3411 48.0695H39.2701V49.1405H40.3411V48.0695Z" fill="black"/>
<path d="M39.2701 52.3719H38.1991V53.4642H39.2701V52.3719Z" fill="black"/>
<path d="M39.2701 48.0695H38.1991V49.1405H39.2701V48.0695Z" fill="black"/>
<path d="M38.1991 52.3719H37.1068V53.4642H38.1991V52.3719Z" fill="black"/>
<path d="M38.199 51.3038H37.1068V52.3749H38.199V51.3038Z" fill="#DDCA6C"/>
<path d="M38.199 50.2116H37.1068V51.3038H38.199V50.2116Z" fill="#DDCA6C"/>
<path d="M38.1991 49.1405L37.1068 49.1404V50.2116H38.199L38.1991 49.1405Z" fill="#DDCA6C"/>
<path d="M38.1991 48.0695H37.1068V49.1404L38.1991 49.1405V48.0695Z" fill="black"/>
<path d="M37.1097 54.5353H36.0387V55.6063H37.1097V54.5353Z" fill="black"/>
<path d="M37.1097 53.4641H36.0387V54.5353H37.1097V53.4641Z" fill="#DDCA6C"/>
<path d="M37.1097 52.3719H36.0387V53.4641H37.1097V52.3719Z" fill="#DDCA6C"/>
<path d="M37.1097 51.3038H36.0387V52.3749H37.1097V51.3038Z" fill="#FCE76B"/>
<path d="M37.1097 50.2116H36.0387V51.3038H37.1097V50.2116Z" fill="#FCE76B"/>
<path d="M37.1097 49.1404H36.0387V50.2116H37.1097V49.1404Z" fill="#DDCA6C"/>
<path d="M37.1097 48.0695H36.0387V49.1404H37.1097V48.0695Z" fill="black"/>
<path d="M36.0387 54.5353H34.9677V55.6063H36.0387V54.5353Z" fill="black"/>
<path d="M36.0387 53.4641H34.9677V54.5353H36.0387V53.4641Z" fill="#DDCA6C"/>
<path d="M36.0387 52.3719H34.9677V53.4641H36.0387V52.3719Z" fill="#FCE76B"/>
<path d="M36.0387 51.3038H34.9677V52.3749H36.0387V51.3038Z" fill="#FCE76B"/>
<path d="M36.0387 50.2116H34.9677V51.3038H36.0387V50.2116Z" fill="#FCE76B"/>
<path d="M36.0387 49.1404H34.9677V50.2116H36.0387V49.1404Z" fill="#DDCA6C"/>
<path d="M36.0387 48.0695H34.9677V49.1404H36.0387V48.0695Z" fill="black"/>
<path d="M34.9678 56.6985H33.8755V57.7695H34.9678V56.6985Z" fill="black"/>
<path d="M34.9677 55.6063L33.8755 55.6061V56.6985H34.9678L34.9677 55.6063Z" fill="#DDCA6C"/>
<path d="M34.9677 54.5353H33.8755V55.6061L34.9677 55.6063V54.5353Z" fill="#DDCA6C"/>
<path d="M34.9677 53.4641H33.8755V54.5353H34.9677V53.4641Z" fill="#FCE76B"/>
<path d="M34.9677 52.3719H33.8755V53.4641H34.9677V52.3719Z" fill="#FCE76B"/>
<path d="M34.9677 51.3038H33.8755V52.3749H34.9677V51.3038Z" fill="#FCE76B"/>
<path d="M34.9677 50.2116H33.8755V51.3038H34.9677V50.2116Z" fill="#FCE76B"/>
<path d="M34.9677 49.1404H33.8755V50.2116H34.9677V49.1404Z" fill="#DDCA6C"/>
<path d="M34.9677 48.0695H33.8755V49.1404H34.9677V48.0695Z" fill="black"/>
<path d="M33.8755 56.6985H32.8044V57.7695H33.8755V56.6985Z" fill="black"/>
<path d="M33.8755 55.6061H32.8044V56.6985H33.8755V55.6061Z" fill="#DDCA6C"/>
<path d="M33.8755 54.5353H32.8044V55.6061H33.8755V54.5353Z" fill="#FCE76B"/>
<path d="M33.8755 53.4641H32.8044V54.5353H33.8755V53.4641Z" fill="#FCE76B"/>
<path d="M33.8755 52.3719H32.8044V53.4641H33.8755V52.3719Z" fill="#FCE76B"/>
<path d="M33.8755 51.3038H32.8044V52.3749H33.8755V51.3038Z" fill="#FCE76B"/>
<path d="M33.8755 50.2116H32.8044V51.3038H33.8755V50.2116Z" fill="#FCE76B"/>
<path d="M33.8755 49.1404H32.8044V50.2116H33.8755V49.1404Z" fill="#DDCA6C"/>
<path d="M33.8755 48.0695H32.8044V49.1404H33.8755V48.0695Z" fill="black"/>
<path d="M32.8044 56.6985H31.7121V57.7695H32.8044V56.6985Z" fill="#DDCA6C"/>
<path d="M32.8044 55.6061H31.7121V56.6985H32.8044V55.6061Z" fill="#FCE76B"/>
<path d="M32.8044 54.5353H31.7121V55.6061H32.8044V54.5353Z" fill="#FCE76B"/>
<path d="M32.8044 53.4641H31.7121V54.5353H32.8044V53.4641Z" fill="#E80F42"/>
<path d="M32.8044 52.3719H31.7121V53.4641H32.8044V52.3719Z" fill="#FCE76B"/>
<path d="M32.8044 51.3038H31.7121V52.3749H32.8044V51.3038Z" fill="#FCE76B"/>
<path d="M32.8044 50.2116H31.7121V51.3038H32.8044V50.2116Z" fill="#FCE76B"/>
<path d="M32.8044 49.1404H31.7121V50.2116H32.8044V49.1404Z" fill="#DDCA6C"/>
<path d="M32.8044 48.0695H31.7121V49.1404H32.8044V48.0695Z" fill="black"/>
<path d="M31.7121 56.6985H30.641V57.7695H31.7121V56.6985Z" fill="#DDCA6C"/>
<path d="M31.7121 55.6061H30.641V56.6985H31.7121V55.6061Z" fill="#FCE76B"/>
<path d="M31.7121 54.5353H30.641V55.6061H31.7121V54.5353Z" fill="#E80F42"/>
<path d="M31.7121 53.4641H30.641V54.5353H31.7121V53.4641Z" fill="#E80F42"/>
<path d="M31.7121 52.3719H30.641V53.4641H31.7121V52.3719Z" fill="#E80F42"/>
<path d="M31.7121 51.3038H30.641V52.3749H31.7121V51.3038Z" fill="#FCE76B"/>
<path d="M31.7121 50.2116H30.641V51.3038H31.7121V50.2116Z" fill="#FCE76B"/>
<path d="M31.7121 49.1404H30.641V50.2116H31.7121V49.1404Z" fill="#DDCA6C"/>
<path d="M31.7121 48.0695H30.641V49.1404H31.7121V48.0695Z" fill="black"/>
<path d="M30.6441 56.6985H29.5731V57.7695H30.6441V56.6985Z" fill="#DDCA6C"/>
<path d="M30.6441 55.6061H29.5731V56.6985H30.6441V55.6061Z" fill="#FCE76B"/>
<path d="M30.6441 54.5353H29.5731V55.6061H30.6441V54.5353Z" fill="#E80F42"/>
<path d="M30.6441 53.4641H29.5731V54.5353H30.6441V53.4641Z" fill="#E80F42"/>
<path d="M30.6441 52.3719H29.5731V53.4641H30.6441V52.3719Z" fill="#E80F42"/>
<path d="M30.6441 51.3038H29.5731V52.3749H30.6441V51.3038Z" fill="#FCE76B"/>
<path d="M30.6441 50.2116H29.5731V51.3038H30.6441V50.2116Z" fill="#FCE76B"/>
<path d="M30.6441 49.1404H29.5731V50.2116H30.6441V49.1404Z" fill="#DDCA6C"/>
<path d="M30.6441 48.0695H29.5731V49.1404H30.6441V48.0695Z" fill="black"/>
<path d="M29.5731 56.6985H28.4807V57.7695H29.5731V56.6985Z" fill="#DDCA6C"/>
<path d="M29.5731 55.6061H28.4807V56.6985H29.5731V55.6061Z" fill="#FCE76B"/>
<path d="M29.5731 54.5353H28.4807V55.6061H29.5731V54.5353Z" fill="#E80F42"/>
<path d="M29.5731 53.4641H28.4807V54.5353H29.5731V53.4641Z" fill="#FCE76B"/>
<path d="M29.5731 52.3719H28.4807V53.4641H29.5731V52.3719Z" fill="#E80F42"/>
<path d="M29.5731 51.3038H28.4807V52.3749H29.5731V51.3038Z" fill="#FCE76B"/>
<path d="M29.5731 50.2116H28.4807V51.3038H29.5731V50.2116Z" fill="#FCE76B"/>
<path d="M29.5731 49.1404H28.4807V50.2116H29.5731V49.1404Z" fill="#DDCA6C"/>
<path d="M29.5731 48.0695H28.4807V49.1404H29.5731V48.0695Z" fill="black"/>
<path d="M28.4807 56.6985H27.4098V57.7695H28.4807V56.6985Z" fill="#DDCA6C"/>
<path d="M28.4807 55.6061H27.4098V56.6985H28.4807V55.6061Z" fill="#E80F42"/>
<path d="M28.4807 54.5353H27.4098V55.6061H28.4807V54.5353Z" fill="#FCE76B"/>
<path d="M28.4807 53.4641H27.4098V54.5353H28.4807V53.4641Z" fill="#FCE76B"/>
<path d="M28.4807 52.3719H27.4098V53.4641H28.4807V52.3719Z" fill="#FCE76B"/>
<path d="M28.4807 51.3038H27.4098V52.3749H28.4807V51.3038Z" fill="#E80F42"/>
<path d="M28.4807 50.2116H27.4098V51.3038H28.4807V50.2116Z" fill="#FCE76B"/>
<path d="M28.4807 49.1404H27.4098V50.2116H28.4807V49.1404Z" fill="#DDCA6C"/>
<path d="M28.4807 48.0695H27.4098V49.1404H28.4807V48.0695Z" fill="black"/>
<path d="M27.4098 56.6985H26.3387V57.7695H27.4098V56.6985Z" fill="#DDCA6C"/>
<path d="M27.4098 55.6061H26.3387V56.6985H27.4098V55.6061Z" fill="#E80F42"/>
<path d="M27.4098 54.5353H26.3387V55.6061H27.4098V54.5353Z" fill="#FCE76B"/>
<path d="M27.4098 53.4641H26.3387V54.5353H27.4098V53.4641Z" fill="#FCE76B"/>
<path d="M27.4098 52.3719H26.3387V53.4641H27.4098V52.3719Z" fill="#FCE76B"/>
<path d="M27.4098 51.3038H26.3387V52.3749H27.4098V51.3038Z" fill="#E80F42"/>
<path d="M27.4098 50.2116H26.3387V51.3038H27.4098V50.2116Z" fill="#FCE76B"/>
<path d="M27.4098 49.1404H26.3387V50.2116H27.4098V49.1404Z" fill="#DDCA6C"/>
<path d="M27.4098 48.0695H26.3387V49.1404H27.4098V48.0695Z" fill="black"/>
<path d="M26.3387 56.6985H25.2464V57.7695H26.3387V56.6985Z" fill="#DDCA6C"/>
<path d="M26.3387 55.6061H25.2464V56.6985H26.3387V55.6061Z" fill="#FCE76B"/>
<path d="M26.3387 54.5353H25.2464V55.6061H26.3387V54.5353Z" fill="#FCE76B"/>
<path d="M26.3387 53.4641H25.2464V54.5353H26.3387V53.4641Z" fill="#FCE76B"/>
<path d="M26.3387 52.3719H25.2464V53.4641H26.3387V52.3719Z" fill="#FCE76B"/>
<path d="M26.3387 51.3038H25.2464V52.3749H26.3387V51.3038Z" fill="#FCE76B"/>
<path d="M26.3387 50.2116H25.2464V51.3038H26.3387V50.2116Z" fill="#DDCA6C"/>
<path d="M26.3387 49.1404H25.2464V50.2116H26.3387V49.1404Z" fill="#DDCA6C"/>
<path d="M26.3387 48.0695H25.2464V49.1404H26.3387V48.0695Z" fill="black"/>
<path d="M25.2494 56.6985H24.1784V57.7695H25.2494V56.6985Z" fill="#DDCA6C"/>
<path d="M25.2494 55.6061H24.1784V56.6985H25.2494V55.6061Z" fill="#FCE76B"/>
<path d="M25.2494 54.5353H24.1784V55.6061H25.2494V54.5353Z" fill="#FCE76B"/>
<path d="M25.2494 53.4641H24.1784V54.5353H25.2494V53.4641Z" fill="#FCE76B"/>
<path d="M25.2494 52.3719H24.1784V53.4641H25.2494V52.3719Z" fill="#FCE76B"/>
<path d="M25.2494 51.3038H24.1784V52.3749H25.2494V51.3038Z" fill="#DDCA6C"/>
<path d="M25.2494 50.2116H24.1784V51.3038H25.2494V50.2116Z" fill="black"/>
<path d="M25.2494 49.1404H24.1784V50.2116H25.2494V49.1404Z" fill="black"/>
<path d="M24.1784 56.6985H23.0862V57.7695H24.1784V56.6985Z" fill="#DDCA6C"/>
<path d="M24.1784 55.6061H23.0862V56.6985H24.1784V55.6061Z" fill="#FCE76B"/>
<path d="M24.1784 54.5353H23.0862V55.6061H24.1784V54.5353Z" fill="#FCE76B"/>
<path d="M24.1784 53.4641H23.0862V54.5353H24.1784V53.4641Z" fill="#DDCA6C"/>
<path d="M24.1784 52.3719H23.0862V53.4641H24.1784V52.3719Z" fill="#DDCA6C"/>
<path d="M24.1784 51.3038H23.0862V52.3749H24.1784V51.3038Z" fill="black"/>
<path d="M24.1784 50.2116H23.0862V51.3038H24.1784V50.2116Z" fill="black"/>
<path d="M23.0862 56.6985H22.0151V57.7695H23.0862V56.6985Z" fill="#DDCA6C"/>
<path d="M23.0862 55.6061H22.0151V56.6985H23.0862V55.6061Z" fill="#FCE76B"/>
<path d="M23.0862 54.5353H22.0151V55.6061H23.0862V54.5353Z" fill="#DDCA6C"/>
<path d="M23.0862 53.4641H22.0151V54.5353H23.0862V53.4641Z" fill="black"/>
<path d="M23.0862 52.3719H22.0151V53.4641H23.0862V52.3719Z" fill="black"/>
<path d="M23.0862 51.3038H22.0151V52.3749H23.0862V51.3038Z" fill="#DDCA6C"/>
<path d="M23.0862 50.2116H22.0151V51.3038H23.0862V50.2116Z" fill="#DDCA6C"/>
<path d="M23.0861 49.1404H22.0151V50.2116H23.0862L23.0861 49.1404Z" fill="black"/>
<path d="M22.0151 56.6985H20.944V57.7695H22.0151V56.6985Z" fill="#DDCA6C"/>
<path d="M22.0151 55.6061H20.944V56.6985H22.0151V55.6061Z" fill="#DDCA6C"/>
<path d="M22.0151 54.5353H20.944V55.6061H22.0151V54.5353Z" fill="black"/>
<path d="M22.0151 53.4641H20.944V54.5353H22.0151V53.4641Z" fill="#DDCA6C"/>
<path d="M22.0151 52.3719H20.944V53.4641H22.0151V52.3719Z" fill="#DDCA6C"/>
<path d="M22.0151 51.3038H20.944V52.3749H22.0151V51.3038Z" fill="#DDCA6C"/>
<path d="M22.0151 50.2116H20.944V51.3038H22.0151V50.2116Z" fill="#DDCA6C"/>
<path d="M22.0151 49.1404H20.944V50.2116H22.0151V49.1404Z" fill="black"/>
<path d="M20.944 56.6985H19.8518V57.7695H20.944V56.6985Z" fill="#DDCA6C"/>
<path d="M20.944 55.6061H19.8518V56.6985H20.944V55.6061Z" fill="black"/>
<path d="M20.944 54.5353H19.8518V55.6061H20.944V54.5353Z" fill="#DDCA6C"/>
<path d="M20.944 53.4641H19.8518V54.5353H20.944V53.4641Z" fill="#DDCA6C"/>
<path d="M20.944 52.3719H19.8518V53.4641H20.944V52.3719Z" fill="#DDCA6C"/>
<path d="M20.944 51.3038H19.8518V52.3749H20.944V51.3038Z" fill="#DDCA6C"/>
<path d="M20.944 50.2116H19.8518V51.3038H20.944V50.2116Z" fill="#DDCA6C"/>
<path d="M20.944 49.1404H19.8518V50.2116H20.944V49.1404Z" fill="#DDCA6C"/>
<path d="M20.9441 48.0695H19.8518V49.1404H20.944L20.9441 48.0695Z" fill="black"/>
<path d="M19.8518 56.6985H18.7807V57.7695H19.8518V56.6985Z" fill="black"/>
<path d="M19.8518 55.6061H18.7807V56.6985H19.8518V55.6061Z" fill="#DDCA6C"/>
<path d="M19.8518 54.5353H18.7807V55.6061H19.8518V54.5353Z" fill="#DDCA6C"/>
<path d="M19.8518 53.4641H18.7807V54.5353H19.8518V53.4641Z" fill="#DDCA6C"/>
<path d="M19.8518 52.3719H18.7807V53.4641H19.8518V52.3719Z" fill="#DDCA6C"/>
<path d="M19.8518 51.3038H18.7807V52.3749H19.8518V51.3038Z" fill="#DDCA6C"/>
<path d="M19.8518 50.2116H18.7807V51.3038H19.8518V50.2116Z" fill="#DDCA6C"/>
<path d="M19.8518 49.1404H18.7807V50.2116H19.8518V49.1404Z" fill="#DDCA6C"/>
<path d="M19.8518 48.0695H18.7807V49.1404H19.8518V48.0695Z" fill="black"/>
<path d="M18.7807 57.7695L17.6884 57.7697V58.8407H18.7807L18.7807 57.7695Z" fill="black"/>
<path d="M18.7807 56.6985H17.6884V57.7697L18.7807 57.7695V56.6985Z" fill="black"/>
<path d="M18.7807 55.6061H17.6884V56.6985H18.7807V55.6061Z" fill="black"/>
<path d="M18.7807 54.5353H17.6884V55.6061H18.7807V54.5353Z" fill="black"/>
<path d="M18.7807 53.4641H17.6884V54.5353H18.7807V53.4641Z" fill="black"/>
<path d="M18.7807 52.3719H17.6884V53.4641H18.7807V52.3719Z" fill="black"/>
<path d="M18.7807 51.3038H17.6884V52.3749H18.7807V51.3038Z" fill="black"/>
<path d="M18.7807 50.2116H17.6884V51.3038H18.7807V50.2116Z" fill="black"/>
<path d="M18.7807 49.1404H17.6884V50.2116H18.7807V49.1404Z" fill="black"/>
<path d="M18.7807 48.0695L17.6884 48.0693L17.6884 49.1404H18.7807V48.0695Z" fill="black"/>
</svg>
