<svg width="46" height="60" viewBox="0 0 46 60" fill="none" xmlns="http://www.w3.org/2000/svg">
<path d="M13.4848 22.5261C14.4976 21.0366 16.5232 20.7388 17.536 19.3089L20.0383 19.5472V18.3557C16.4041 17.3429 14.2593 20.9771 11.6081 21.9899C8.95694 23.0027 10.0591 21.8409 9.3144 22.0495C8.56969 22.258 8.89735 23.1814 8.15264 22.6452C8.65905 22.1686 9.40376 20.1728 10.2378 20.709L10.357 21.5728C13.8423 20.5302 15.987 16.6875 20.068 17.4322C20.2766 17.2237 19.5021 12.1895 20.3659 11.4745C19.6212 11.4745 18.8765 11.4745 18.1318 11.4745C17.3871 11.4745 17.0296 11.7128 17.0892 11.1766C20.9319 11.4447 21.5575 11.2064 21.5873 7.45309C21.6171 3.69974 21.3192 6.3807 21.2894 5.93387C21.2894 4.26572 21.3787 2.59756 21.2596 0.899618C21.1404 -0.798327 21.2894 0.423002 21.8554 0.45279L22.1532 10.4319L22.6001 11.1766L23.0469 10.5809C23.6427 11.3554 23.2852 13.3512 24.2384 13.2618V13.5597C23.0469 13.5597 23.6129 14.8704 23.3448 15.6449H24.2384L23.6427 17.7301C27.4258 16.9258 29.2727 19.8153 32.2813 21.3047L31.8345 22.1984C29.5408 20.2919 26.83 17.8195 23.6427 18.3259V19.8153L24.4172 19.1898L25.6981 19.4876L26.3236 18.6238C26.3236 19.1004 26.413 19.4876 26.7407 19.8451C27.0683 20.2026 32.1026 23.0623 32.4303 23.0921C33.741 23.2708 32.0728 20.4111 33.4729 20.709C33.3835 21.543 33.741 21.7218 34.3665 22.0495C32.2217 22.9431 34.5453 24.1644 35.0815 25.1772C35.6176 26.1901 35.6772 28.305 35.2602 29.3476H37.6433C37.3454 30.9562 35.3495 29.0498 36.0049 31.7307H38.5369L37.3454 30.8371L37.6433 29.9434L40.3242 31.6116C39.937 33.1308 39.3412 34.2032 37.7624 34.7096L37.6135 33.518L38.5965 33.7861L39.4008 32.6244C38.9242 32.4754 38.4475 32.952 38.0901 32.9223C37.7326 32.8925 37.2858 31.5222 35.9751 32.5946L35.8559 34.9777C36.0645 35.1862 38.2986 34.5308 38.5369 35.5734C36.7198 35.5734 33.8899 36.4075 35.2602 38.5523C34.1878 38.6714 34.1878 40.0417 33.592 40.9354C32.9963 41.829 31.4473 43.1993 30.9111 43.3482L30.6132 42.7525C28.9748 44.0036 27.7833 45.1355 26.7407 46.9229L26.4428 46.2973L23.6129 46.625V48.4123C24.0001 48.7995 26.5619 47.7271 26.8896 48.7102H23.6129V51.8082L22.1235 52.3146V53.1784L22.9873 53.3274L21.8256 54.221C22.7788 55.2041 21.8256 56.2764 22.1235 57.468L23.2554 58.0935L22.9575 59.1063L22.3618 58.6595L21.766 58.9574L21.9149 60C21.2596 59.434 21.7958 58.5999 20.8723 58.3616V57.9148C22.4809 57.7957 21.3787 55.919 21.349 55.0849C21.3192 54.2508 21.7064 53.1784 21.4979 52.4337C21.2894 51.689 20.4553 52.2848 20.1276 51.6592C19.7999 51.0337 20.1276 49.7825 19.9787 48.9783L17.3573 48.6208C16.9998 47.9952 16.1955 45.91 15.7189 45.493C15.2423 45.076 12.4422 43.4972 12.2337 43.4376C11.6379 43.2589 11.3102 43.5865 10.7442 43.6163C11.4592 42.4248 9.96975 41.5907 9.3144 40.429C8.65905 39.2672 7.85477 36.4969 7.13984 36.05C5.85894 35.216 4.6376 36.2288 3.595 35.4245L5.6802 35.2755L5.38231 31.9988L2.99923 32.2967C3.595 32.9818 2.46304 32.8329 2.70135 33.7861C1.83748 33.518 2.28431 32.9223 2.40346 32.2967L0.0203845 32.8925C-0.217923 29.437 1.68854 32.5052 2.85029 31.1052C3.0886 32.118 4.48867 31.7307 5.41211 31.552C5.17381 29.5264 7.31857 30.1221 7.46751 28.5731C7.11005 28.6625 6.39513 29.0795 6.09725 29.2583C5.79936 29.437 5.59083 29.437 5.6802 29.8838C5.1738 30.003 5.35254 28.7519 5.41211 28.7221C5.50148 28.6327 6.21639 28.8114 6.7228 28.3944C7.2292 27.9774 8.06328 25.2666 8.59947 24.3134C9.13566 23.3601 10.5953 21.2154 10.7442 23.0325C9.73144 23.1516 9.25482 24.373 8.89735 25.207C8.53989 26.0411 7.2292 29.6753 9.25482 29.2881L9.0463 28.6029L10.4464 25.4453L9.85059 29.3178C10.8038 29.437 11.489 29.1391 11.6379 28.1263C12.8294 27.7986 11.34 29.7945 12.5316 29.02C11.6379 29.6157 11.5783 30.3604 11.6379 31.403C10.9826 31.2243 11.0421 30.4498 11.0421 29.9136H7.76539C7.85476 30.6285 7.61646 34.5606 8.0335 34.8585C8.95694 35.4543 10.6549 34.7096 11.34 33.9351L10.1783 33.518L9.5527 34.3819C8.98672 33.4882 9.5527 32.0286 8.36116 31.9988L8.95693 31.1052L10.1485 32.2967L9.5527 32.4754V33.4882C10.7442 33.0712 11.5485 33.2797 11.34 31.7009C12.0847 31.6413 12.889 31.9392 13.4252 31.2541L12.5316 30.5094H13.6933C13.6933 30.4796 14.021 28.1263 14.021 28.1263L12.5316 29.02C12.6507 28.9306 13.3954 26.9943 13.7231 26.5773C14.0508 26.1603 14.7657 26.0709 14.9146 25.4751C14.0806 25.5645 13.9018 25.2368 13.5742 24.5815C13.2465 25.7432 12.1443 25.5049 11.6379 25.922C11.1315 26.339 11.6975 27.2029 10.7442 26.9646C10.923 25.207 12.323 25.6837 12.7401 24.4325L12.0847 23.6878L10.5953 25.1772C9.99953 24.3134 11.1613 24.0453 11.6081 23.5091C12.0549 22.9729 12.2337 22.2878 12.2933 22.2282C12.5018 22.0792 13.1273 22.5261 13.455 22.4963C13.2763 22.7346 12.4422 24.3134 13.3061 24.2836C14.1699 24.2538 13.9018 23.5389 14.1997 23.3899C15.1232 22.8835 15.5402 22.4665 16.1658 22.0792C18.1914 20.8579 18.8765 21.2452 21.2 21.3047V20.1132C19.9191 20.56 18.9957 19.9345 17.5956 20.2324C16.1955 20.5302 14.3189 22.4665 13.455 22.4963L13.4848 22.5261ZM21.5277 12.1001C20.8128 11.2958 20.3063 14.9598 20.3659 15.1981C20.5744 16.0024 22.3618 15.6151 23.0171 15.6747C23.0171 14.4534 23.1661 13.0533 22.2724 12.1001L21.2298 13.2916L21.5277 12.1001ZM23.0171 16.2705C19.5616 15.7939 19.4723 17.9089 23.0171 17.462V16.2705ZM23.0171 18.3557H20.634V19.2493L23.0171 19.5472V18.3557ZM28.379 23.7176C28.4982 23.807 30.4345 24.373 30.5834 24.3432L31.3579 23.2708C29.4216 22.2282 27.5152 20.2919 25.2215 20.1728C22.9278 20.0536 23.0469 20.5898 21.8256 20.1728C20.9915 21.4835 23.2256 21.6026 24.3576 21.692C25.4896 21.7814 25.8172 21.3345 26.1151 21.4239C26.413 21.5133 27.7237 22.9133 28.2599 23.2708C28.7961 23.6282 28.3195 23.7474 28.3493 23.7474C27.7237 23.3602 26.979 23.0921 26.413 22.5559L26.2641 23.1516L25.0725 22.8537L25.3704 21.9601H23.7618L23.2852 23.1516L24.1789 23.3006L23.5831 24.6411C22.9575 24.7006 23.4342 23.5985 23.2852 23.4495C23.0469 23.2112 21.4979 23.5389 21.7958 24.3432L22.9873 24.9389C22.183 24.8794 21.5277 24.9389 21.4979 25.8326C20.634 25.6241 21.3787 23.7176 21.2 23.4495C20.7532 23.8963 18.7574 24.0453 18.5488 24.1942C18.3403 24.3432 18.3105 24.7602 18.1616 24.8496C17.8637 25.0283 17.2381 24.8794 16.7615 25.0879C16.2849 25.2964 14.5274 27.4114 14.438 27.7986C14.2593 28.5731 14.1103 32.7733 14.2295 33.6074C14.3487 34.4415 15.3317 37.1224 15.7189 37.7182C16.1062 38.314 16.8807 38.0161 16.7317 39.6842C17.7148 40.6673 18.7574 38.9097 18.5488 38.6417L17.6552 38.4927L18.3999 38.0161C20.6042 38.9991 22.9575 39.1481 25.2512 38.3438C27.545 37.5395 28.8557 36.4373 27.7535 35.0372L28.9152 34.7691L29.2429 35.3351C28.945 34.3819 29.6302 32.952 29.5408 32.2073C29.4514 31.4626 28.7067 31.1647 28.945 30.8669C29.4514 30.2711 29.7791 31.8797 30.1366 31.7605L30.7323 30.8669L31.1792 32.0584C31.8643 31.552 31.5962 30.6881 31.626 29.9732H30.1366C30.9409 28.5433 26.2939 24.2538 25.6683 24.6113C25.0427 24.9687 25.5491 25.7432 24.7746 25.5049L25.43 23.7772L26.8003 23.6282L31.06 28.1859C30.7919 26.905 30.1961 25.922 30.7621 24.6113C29.4216 24.9687 29.0642 24.1049 28.379 23.7176ZM19.5021 22.1686L19.2935 21.6324C18.0424 22.824 15.5402 23.3006 14.9742 25.207C15.3317 25.5645 17.4169 23.6878 17.9531 23.5389C18.4893 23.3899 18.9659 23.6282 19.2935 23.5389C19.8297 23.4197 20.4255 22.8537 21.2298 23.0921V21.9005L19.5021 22.1388V22.1686ZM33.1452 26.1007L32.6984 24.0155C31.5068 22.675 31.06 25.922 31.06 26.5177C31.0898 27.471 32.0132 28.0965 31.9239 29.0795L30.7323 28.4838V29.3774H33.4133L31.626 24.9092C32.4005 24.7602 32.1622 25.0581 32.3707 25.4751C32.9069 26.4582 33.5325 30.2711 34.9027 28.9008C33.9197 27.9178 34.9325 26.3092 34.0091 24.8794L33.1154 26.0709L33.1452 26.1007ZM6.93132 29.9732C5.59084 30.42 5.65041 37.2714 7.22921 34.5904L6.93132 29.9732ZM33.7112 30.2711L32.2515 29.9732V32.0584H33.741V30.2711H33.7112ZM35.2304 30.2711H34.0389L34.3367 32.6542L32.2515 32.3563L31.9537 35.0372C32.9665 34.4117 33.8601 34.9479 34.9325 35.0372L35.2304 30.2711ZM13.7827 39.5055C13.455 39.4459 11.7868 38.3735 11.7273 38.2544C11.6081 38.0757 11.9656 37.6288 11.906 37.3012C11.8464 36.9735 11.0421 36.2884 11.0719 35.633L8.42075 35.9011C8.24201 36.05 9.85059 39.7736 10.1485 40.28C11.2209 42.0375 13.0975 42.9014 14.7359 43.944C16.3743 44.9866 15.3615 45.1058 16.4339 44.8377L15.8381 44.0929L16.4339 43.7951L14.3487 42.4546L17.3275 43.3482L16.136 42.1567C17.0594 43.0206 18.5786 41.3524 18.8169 41.5609C19.4425 42.0971 17.5062 42.3652 17.6552 43.1695C18.2212 44.2717 18.6084 43.6461 18.9659 43.6461H23.2852V41.7099C22.8086 41.412 20.9319 41.5013 20.4851 41.829C20.0383 42.1567 20.6638 43.0801 20.0085 43.0503C20.2468 41.6205 19.2936 41.5311 18.2212 41.1141C17.1488 40.6971 17.4764 41.263 17.3871 41.2035C17.2977 41.1439 17.0892 40.4885 16.7615 40.1906C15.421 38.9991 13.9316 39.2672 15.8381 40.6375L14.6465 40.3396C14.4976 40.4587 14.4976 42.395 13.455 42.1269C13.9018 40.5779 14.7359 41.0247 13.7529 39.4459C13.9614 39.4459 14.4976 39.5055 14.6167 39.4162C15.2721 37.8076 14.7955 36.9735 13.7827 35.6926C12.7699 34.4117 12.9486 35.3649 12.8592 35.067C12.7699 34.7691 12.9188 32.118 13.7529 32.2967C13.8423 31.8499 13.3061 31.9392 13.0082 31.9988C11.6677 32.3563 12.323 32.8329 12.1741 33.5478C11.9954 34.5904 11.8166 35.5436 12.0847 36.7352C12.3528 37.9267 13.1571 38.4927 13.7231 39.4162L13.7827 39.5055ZM27.4854 43.0801C27.1875 43.944 26.2343 44.0632 26.7407 44.8674L30.9111 41.5907L31.3877 42.1567C31.8345 42.4844 33.6814 39.6545 33.741 39.0587C33.8601 38.1948 32.6984 38.731 32.2515 38.6119L33.1452 37.8671L32.5494 37.2714L33.4431 36.8246L33.8899 38.0161L34.9325 36.3479C35.0517 35.7224 34.8431 36.0203 34.5155 35.9011C33.4133 35.5734 32.1622 35.6926 31.06 35.3053L31.6558 32.6244H29.8685C30.1663 34.7096 29.1833 36.6458 27.6045 37.9565C26.8003 38.6119 25.2512 39.2374 24.2086 39.9226C23.1661 40.6077 21.6766 40.1311 21.3787 40.1013C20.8128 40.0417 20.9915 39.4757 20.783 39.4757C20.5745 39.4757 20.217 39.7438 19.8893 39.7438C19.0552 39.7438 18.6382 39.1778 17.9828 40.2204C19.3233 40.8758 20.9915 41.412 22.5107 41.2035C24.0299 40.9949 25.4895 40.6375 25.1321 39.4757C25.9066 40.3694 28.6471 38.1948 29.0046 38.5821C29.3621 38.9693 29.1833 39.5353 28.7663 39.4757L28.1109 39.7736C28.945 39.863 29.3621 40.429 29.3025 41.263L30.1961 41.1141C29.4812 41.829 28.5578 42.9014 27.5152 43.0503C27.8131 42.1865 27.1875 42.3354 28.7067 41.7099L27.8131 41.5609C28.1705 41.0247 29.2727 40.7566 28.2003 40.0417C27.1279 39.3268 25.9364 40.5481 25.0427 41.0247C24.1491 41.5013 24.0597 41.2035 23.9703 41.2928C23.7916 41.5013 23.8214 43.8844 24.3874 43.944L26.0257 43.3482L25.1321 42.7525C24.9831 41.9184 25.9066 41.7397 26.2641 42.2461C26.6215 42.7525 25.7874 43.3184 27.5152 43.0503L27.4854 43.0801ZM17.6552 43.6759C16.9105 43.0801 16.6424 45.1058 17.1488 45.7015L20.0383 46.059L20.3361 44.5994C19.6808 44.51 18.7573 44.7483 18.1318 44.5696C17.5062 44.3908 17.7148 43.7653 17.6552 43.7057V43.6759ZM24.9534 44.5696C23.5831 44.6887 22.0341 44.4802 20.634 44.5696V46.059L26.5917 45.7611C26.83 44.9568 26.2045 45.3143 25.996 44.927C25.7874 44.5398 26.0257 44.3313 25.996 44.2717C25.7874 44.0334 25.1023 44.5696 24.9534 44.5696ZM20.0383 46.6548L17.0594 46.3569C17.3275 47.9952 18.5488 48.3825 20.0383 48.4421V46.6548ZM23.0171 46.6548H20.634V51.7188H21.5277C21.0511 50.4677 20.9617 46.5058 22.7192 48.8889L23.0171 51.7188V46.6548Z" fill="#BD482D"/>
<path d="M42.6774 32.0585H43.2434C43.2434 30.9861 44.8222 31.6116 45.6563 31.4627V32.3564C44.3456 31.9989 42.5285 32.267 41.3369 32.9521C39.9369 31.8797 42.4689 30.2116 42.6774 32.0585Z" fill="#BD482D"/>
<path d="M19.145 28.7818L18.8471 32.9522H19.7407L19.4429 31.1649L20.4854 32.0585C22.5706 30.6585 24.775 33.2203 23.6132 29.0797C25.7282 29.6159 23.077 32.6543 25.6984 33.399C24.5069 33.965 24.1196 34.1437 24.209 35.6332C22.9877 34.2331 21.4983 35.9608 20.3365 34.8884C21.7068 35.0076 24.8048 33.9948 23.4643 32.3564C22.809 32.2075 22.6004 33.4884 22.1536 33.6969C21.7068 33.9054 21.4685 33.4288 20.7833 33.8161C20.0982 34.2033 19.8003 35.1565 19.2939 35.6332L19.145 34.7395L16.464 35.2161L15.2725 33.399C16.3448 33.0416 15.9576 35.0374 17.3577 34.7395L17.6555 32.9522L16.6129 33.548C15.9874 33.0118 17.6258 32.0288 17.9534 32.3564L18.2513 33.2501L18.5492 28.4839L23.7622 28.186L23.9111 28.7818H19.145Z" fill="#BD482D"/>
</svg>
