<svg width="105" height="105" viewBox="0 0 105 105" fill="none" xmlns="http://www.w3.org/2000/svg">
<path d="M52.251 0.5625C80.7974 0.562694 103.938 23.7045 103.938 52.251C103.938 80.7973 80.7973 103.938 52.251 103.938C23.7045 103.938 0.56269 80.7974 0.5625 52.251C0.5625 23.7044 23.7044 0.5625 52.251 0.5625Z" fill="#F9F7E7" stroke="#29100A" stroke-width="1.125"/>
<path d="M76.7017 84.575H74.5638V86.6932H76.7017V84.575Z" fill="black"/>
<path d="M76.7017 82.4343H74.5638V84.575H76.7017V82.4343Z" fill="black"/>
<path d="M76.7017 80.3162H74.5638V82.4343H76.7017V80.3162Z" fill="black"/>
<path d="M76.7017 78.1753H74.5638V80.3162H76.7017V78.1753Z" fill="black"/>
<path d="M74.561 84.575H72.4399V86.6932H74.561V84.575Z" fill="black"/>
<path d="M74.561 82.4343H72.4399V84.575H74.561V82.4343Z" fill="#EAD32D"/>
<path d="M74.561 80.3162H72.4399V82.4343H74.561V80.3162Z" fill="#EAD32D"/>
<path d="M74.561 78.1753H72.4399V80.3162H74.561V78.1753Z" fill="black"/>
<path d="M74.561 76.0374H72.4399V78.1753H74.561V76.0374Z" fill="black"/>
<path d="M74.561 73.9137H72.4399V76.0347H74.561V73.9137Z" fill="black"/>
<path d="M72.4427 84.575H70.3047V86.6932H72.4427V84.575Z" fill="black"/>
<path d="M72.4427 82.4343H70.3047V84.575H72.4427V82.4343Z" fill="#FFEF56"/>
<path d="M72.4427 80.3162H70.3047V82.4343H72.4427V80.3162Z" fill="#EAD32D"/>
<path d="M72.4427 78.1753H70.3047V80.3162H72.4427V78.1753Z" fill="#EAD32D"/>
<path d="M72.4427 76.0374H70.3047V78.1753H72.4427V76.0374Z" fill="#EAD32D"/>
<path d="M72.4427 73.9137H70.3047V76.0347H72.4427V73.9137Z" fill="black"/>
<path d="M72.4427 71.7787H70.3047V73.9166H72.4427V71.7787Z" fill="black"/>
<path d="M72.4427 69.6576H70.3047V71.7758H72.4427V69.6576Z" fill="black"/>
<path d="M72.4427 67.5167H70.3047V69.6576H72.4427V67.5167Z" fill="black"/>
<path d="M72.4427 65.3986H70.3047V67.5167H72.4427V65.3986Z" fill="black"/>
<path d="M72.4427 63.2577H70.3047V65.3986H72.4427V63.2577Z" fill="black"/>
<path d="M72.4427 61.1198H70.3047V63.2577H72.4427V61.1198Z" fill="black"/>
<path d="M72.4427 58.9987H70.3047V61.1169H72.4427V58.9987Z" fill="black"/>
<path d="M72.4427 56.8582H70.3047V58.9987H72.4427V56.8582Z" fill="black"/>
<path d="M72.4427 54.7369H70.3047V56.8551H72.4427V54.7369Z" fill="black"/>
<path d="M72.4427 52.5962H70.3047V54.7369H72.4427V52.5962Z" fill="black"/>
<path d="M72.4427 50.478H70.3047V52.5962H72.4427V50.478Z" fill="black"/>
<path d="M72.4427 48.3372H70.3047V50.478H72.4427V48.3372Z" fill="black"/>
<path d="M72.4427 46.219H70.3047V48.3372H72.4427V46.219Z" fill="black"/>
<path d="M72.4427 44.0783H70.3047V46.219H72.4427V44.0783Z" fill="black"/>
<path d="M72.4427 41.9374H70.3047V44.0783H72.4427V41.9374Z" fill="black"/>
<path d="M72.4427 39.8195H70.3047V41.9374H72.4427V39.8195Z" fill="black"/>
<path d="M72.4427 37.6784H70.3047V39.8195H72.4427V37.6784Z" fill="black"/>
<path d="M70.3019 84.575H68.1837V86.6932H70.3019V84.575Z" fill="black"/>
<path d="M70.3019 82.4343H68.1837V84.575H70.3019V82.4343Z" fill="#FFEF56"/>
<path d="M70.3019 80.3162H68.1837V82.4343H70.3019V80.3162Z" fill="#FFEF56"/>
<path d="M70.3019 78.1753H68.1837V80.3162H70.3019V78.1753Z" fill="#EAD32D"/>
<path d="M70.3019 76.0374H68.1837V78.1753H70.3019V76.0374Z" fill="#EAD32D"/>
<path d="M70.3019 73.9137H68.1837V76.0347H70.3019V73.9137Z" fill="#EAD32D"/>
<path d="M70.3019 71.7787H68.1837V73.9166H70.3019V71.7787Z" fill="#EAD32D"/>
<path d="M70.3019 69.6576H68.1837V71.7758H70.3019V69.6576Z" fill="#EAD32D"/>
<path d="M70.3019 67.5167H68.1837V69.6576H70.3019V67.5167Z" fill="black"/>
<path d="M70.3019 65.3986H68.1837V67.5167H70.3019V65.3986Z" fill="black"/>
<path d="M70.3019 63.2577H68.1837V65.3986H70.3019V63.2577Z" fill="black"/>
<path d="M70.3019 61.1198H68.1837V63.2577H70.3019V61.1198Z" fill="#FFEF56"/>
<path d="M70.3019 58.9987H68.1837V61.1169H70.3019V58.9987Z" fill="#FFEF56"/>
<path d="M70.3019 56.8582H68.1837V58.9987H70.3019V56.8582Z" fill="#FFEF56"/>
<path d="M70.3019 54.7369H68.1837V56.8551H70.3019V54.7369Z" fill="#FFEF56"/>
<path d="M70.3019 52.5962H68.1837V54.7369H70.3019V52.5962Z" fill="#FFEF56"/>
<path d="M70.3019 50.478H68.1837V52.5962H70.3019V50.478Z" fill="#FFEF56"/>
<path d="M70.3019 48.3372H68.1837V50.478H70.3019V48.3372Z" fill="#FFEF56"/>
<path d="M70.3019 46.219H68.1837V48.3372H70.3019V46.219Z" fill="#EAD32D"/>
<path d="M70.3019 44.0783H68.1837V46.219H70.3019V44.0783Z" fill="#EAD32D"/>
<path d="M70.3019 41.9374H68.1837V44.0783H70.3019V41.9374Z" fill="#EAD32D"/>
<path d="M70.3019 39.8195H68.1837V41.9374H70.3019V39.8195Z" fill="#EAD32D"/>
<path d="M70.3019 37.6784H68.1837V39.8195H70.3019V37.6784Z" fill="black"/>
<path d="M70.3019 35.5602H68.1837V37.6784H70.3019V35.5602Z" fill="black"/>
<path d="M68.1837 84.575H66.043V86.6932H68.1837V84.575Z" fill="black"/>
<path d="M68.1837 82.4343H66.043V84.575H68.1837V82.4343Z" fill="#FFEF56"/>
<path d="M68.1837 80.3162H66.043V82.4343H68.1837V80.3162Z" fill="#FFEF56"/>
<path d="M68.1837 78.1753H66.043V80.3162H68.1837V78.1753Z" fill="#FFEF56"/>
<path d="M68.1837 76.0374H66.043V78.1753H68.1837V76.0374Z" fill="#FFEF56"/>
<path d="M68.1837 73.9137H66.043V76.0347H68.1837V73.9137Z" fill="#FFEF56"/>
<path d="M68.1837 71.7787H66.043V73.9166H68.1837V71.7787Z" fill="#EAD32D"/>
<path d="M68.1837 69.6576H66.043V71.7758H68.1837V69.6576Z" fill="black"/>
<path d="M68.1837 67.5167H66.043V69.6576H68.1837V67.5167Z" fill="#00F3FF"/>
<path d="M68.1837 65.3986H66.043V67.5167H68.1837V65.3986Z" fill="#2CF926"/>
<path d="M68.1837 63.2577H66.043V65.3986H68.1837V63.2577Z" fill="#2CF926"/>
<path d="M68.1837 61.1198H66.043V63.2577H68.1837V61.1198Z" fill="black"/>
<path d="M68.1837 58.9987H66.043V61.1169H68.1837V58.9987Z" fill="#FFEF56"/>
<path d="M68.1837 56.8582H66.043V58.9987H68.1837V56.8582Z" fill="black"/>
<path d="M68.1837 54.7369H66.043V56.8551H68.1837V54.7369Z" fill="black"/>
<path d="M68.1837 52.5962H66.043V54.7369H68.1837V52.5962Z" fill="black"/>
<path d="M68.1837 50.478H66.043V52.5962H68.1837V50.478Z" fill="#FFEF56"/>
<path d="M68.1837 48.3372H66.043V50.478H68.1837V48.3372Z" fill="#FFEF56"/>
<path d="M68.1837 46.219H66.043V48.3372H68.1837V46.219Z" fill="#FFEF56"/>
<path d="M68.1837 44.0783H66.043V46.219H68.1837V44.0783Z" fill="#FFEF56"/>
<path d="M68.1837 41.9374H66.043V44.0783H68.1837V41.9374Z" fill="#FFEF56"/>
<path d="M68.1837 39.8195H66.043V41.9374H68.1837V39.8195Z" fill="#EAD32D"/>
<path d="M68.1837 37.6784H66.043V39.8195H68.1837V37.6784Z" fill="#EAD32D"/>
<path d="M68.1837 35.5602H66.043V37.6784H68.1837V35.5602Z" fill="black"/>
<path d="M68.1837 33.4196H66.043V35.5602H68.1837L68.1837 33.4196Z" fill="black"/>
<path d="M66.043 84.575H63.9248V86.6932H66.043V84.575Z" fill="black"/>
<path d="M66.043 82.4343H63.9248V84.575H66.043V82.4343Z" fill="#FFEF56"/>
<path d="M66.043 80.3162H63.9248V82.4343H66.043V80.3162Z" fill="#FFEF56"/>
<path d="M66.043 78.1753H63.9248V80.3162H66.043V78.1753Z" fill="#FFEF56"/>
<path d="M66.043 76.0374H63.9248V78.1753H66.043V76.0374Z" fill="#FFEF56"/>
<path d="M66.043 73.9137H63.9248V76.0347H66.043V73.9137Z" fill="#FFEF56"/>
<path d="M66.043 71.7787H63.9248V73.9166H66.043V71.7787Z" fill="#FFEF56"/>
<path d="M66.043 69.6576H63.9248V71.7758H66.043V69.6576Z" fill="black"/>
<path d="M66.043 67.5167H63.9248V69.6576H66.043V67.5167Z" fill="#2CF926"/>
<path d="M66.043 65.3986H63.9248V67.5167H66.043V65.3986Z" fill="#00F3FF"/>
<path d="M66.043 63.2577H63.9248V65.3986H66.043V63.2577Z" fill="#00F3FF"/>
<path d="M66.043 61.1198H63.9248V63.2577H66.043V61.1198Z" fill="#EFE4A3"/>
<path d="M66.043 58.9987H63.9248V61.1169H66.043V58.9987Z" fill="black"/>
<path d="M66.043 56.8582H63.9248V58.9987H66.043V56.8582Z" fill="#F9C6AA"/>
<path d="M66.043 54.7369H63.9248V56.8551H66.043V54.7369Z" fill="#F9C6AA"/>
<path d="M66.043 52.5962H63.9248V54.7369H66.043V52.5962Z" fill="#DDA487"/>
<path d="M66.043 50.478H63.9248V52.5962H66.043V50.478Z" fill="black"/>
<path d="M66.043 48.3372H63.9248V50.478H66.043V48.3372Z" fill="#FFEF56"/>
<path d="M66.043 46.219H63.9248V48.3372H66.043V46.219Z" fill="#FFEF56"/>
<path d="M66.043 44.0783H63.9248V46.219H66.043V44.0783Z" fill="#FFEF56"/>
<path d="M66.043 41.9374H63.9248V44.0783H66.043V41.9374Z" fill="#FFEF56"/>
<path d="M66.043 39.8195H63.9248V41.9374H66.043V39.8195Z" fill="#FFEF56"/>
<path d="M66.043 37.6784H63.9248V39.8195H66.043V37.6784Z" fill="#EAD32D"/>
<path d="M66.043 35.5602H63.9248V37.6784H66.043V35.5602Z" fill="#EAD32D"/>
<path d="M66.043 33.4196H63.9248V35.5602H66.043V33.4196Z" fill="black"/>
<path d="M66.043 31.3012H63.9248V33.4196H66.043L66.043 31.3012Z" fill="black"/>
<path d="M63.9248 84.575H61.784V86.6932H63.9248V84.575Z" fill="black"/>
<path d="M63.9248 82.4343H61.784V84.575H63.9248V82.4343Z" fill="#EAD32D"/>
<path d="M63.9248 80.3162H61.784V82.4343H63.9248V80.3162Z" fill="#FFEF56"/>
<path d="M63.9248 78.1753H61.784V80.3162H63.9248V78.1753Z" fill="#FFEF56"/>
<path d="M63.9248 76.0374H61.784V78.1753H63.9248V76.0374Z" fill="#FFEF56"/>
<path d="M63.9248 73.9137H61.784V76.0347H63.9248V73.9137Z" fill="#FFEF56"/>
<path d="M63.9248 71.7787H61.784V73.9166H63.9248V71.7787Z" fill="#FFEF56"/>
<path d="M63.9248 69.6576H61.784V71.7758H63.9248V69.6576Z" fill="black"/>
<path d="M63.9248 67.5167H61.784V69.6576H63.9248V67.5167Z" fill="#00F3FF"/>
<path d="M63.9248 65.3986H61.784V67.5167H63.9248V65.3986Z" fill="#2CF926"/>
<path d="M63.9248 63.2577H61.784V65.3986H63.9248V63.2577Z" fill="#2CF926"/>
<path d="M63.9248 61.1198H61.784V63.2577H63.9248V61.1198Z" fill="#EFE4A3"/>
<path d="M63.9248 58.9987H61.784V61.1169H63.9248V58.9987Z" fill="black"/>
<path d="M63.9248 56.8582H61.784V58.9987H63.9248V56.8582Z" fill="#DDA487"/>
<path d="M63.9248 54.7369H61.784V56.8551H63.9248V54.7369Z" fill="#F9C6AA"/>
<path d="M63.9248 52.5962H61.784V54.7369H63.9248V52.5962Z" fill="#F9C6AA"/>
<path d="M63.9248 50.478H61.784V52.5962H63.9248V50.478Z" fill="#DDA487"/>
<path d="M63.9248 48.3372H61.784V50.478H63.9248V48.3372Z" fill="black"/>
<path d="M63.9248 46.219H61.784V48.3372H63.9248V46.219Z" fill="#FFEF56"/>
<path d="M63.9248 44.0783H61.784V46.219H63.9248V44.0783Z" fill="#FFEF56"/>
<path d="M63.9248 41.9374H61.784V44.0783H63.9248V41.9374Z" fill="#FFEF56"/>
<path d="M63.9248 39.8195H61.784V41.9374H63.9248V39.8195Z" fill="#FFEF56"/>
<path d="M63.9248 37.6784H61.784V39.8195H63.9248V37.6784Z" fill="#FFEF56"/>
<path d="M63.9248 35.5602H61.784V37.6784H63.9248V35.5602Z" fill="#EAD32D"/>
<path d="M63.9248 33.4196H61.784V35.5602H63.9248V33.4196Z" fill="#EAD32D"/>
<path d="M63.9248 31.3012H61.784V33.4196H63.9248V31.3012Z" fill="black"/>
<path d="M63.9248 29.1605H61.784V31.3012H63.9248L63.9248 29.1605Z" fill="black"/>
<path d="M61.784 84.575H59.646V86.6932H61.784V84.575Z" fill="black"/>
<path d="M61.784 82.4343H59.646V84.575H61.784V82.4343Z" fill="#EAD32D"/>
<path d="M61.784 80.3162H59.646V82.4343H61.784V80.3162Z" fill="#EAD32D"/>
<path d="M61.784 78.1753H59.646V80.3162H61.784V78.1753Z" fill="#FFEF56"/>
<path d="M61.784 76.0374H59.646V78.1753H61.784V76.0374Z" fill="#FFEF56"/>
<path d="M61.784 73.9137H59.646V76.0347H61.784V73.9137Z" fill="#FFEF56"/>
<path d="M61.784 71.7787H59.646V73.9166H61.784V71.7787Z" fill="#FFEF56"/>
<path d="M61.784 69.6576H59.646V71.7758H61.784V69.6576Z" fill="black"/>
<path d="M61.784 67.5167H59.646V69.6576H61.784V67.5167Z" fill="#2CF926"/>
<path d="M61.784 65.3986H59.646V67.5167H61.784V65.3986Z" fill="#00F3FF"/>
<path d="M61.784 63.2577H59.646V65.3986H61.784V63.2577Z" fill="#00F3FF"/>
<path d="M61.784 61.1198H59.646V63.2577H61.784V61.1198Z" fill="#EFE4A3"/>
<path d="M61.784 58.9987H59.646V61.1169H61.784V58.9987Z" fill="black"/>
<path d="M61.784 56.8582H59.646V58.9987H61.784V56.8582Z" fill="#DDA487"/>
<path d="M61.784 54.7369H59.646V56.8551H61.784V54.7369Z" fill="#F9C6AA"/>
<path d="M61.784 52.5962H59.646V54.7369H61.784V52.5962Z" fill="#F9C6AA"/>
<path d="M61.784 50.478H59.646V52.5962H61.784V50.478Z" fill="black"/>
<path d="M61.784 48.3372H59.646V50.478H61.784V48.3372Z" fill="#FFEF56"/>
<path d="M61.784 46.219H59.646V48.3372H61.784V46.219Z" fill="#FFEF56"/>
<path d="M61.784 44.0783H59.646V46.219H61.784V44.0783Z" fill="#FFEF56"/>
<path d="M61.784 41.9374H59.646V44.0783H61.784V41.9374Z" fill="#FFEF56"/>
<path d="M61.784 39.8195H59.646V41.9374H61.784V39.8195Z" fill="#FFEF56"/>
<path d="M61.784 37.6784H59.646V39.8195H61.784V37.6784Z" fill="#FFEF56"/>
<path d="M61.784 35.5602H59.646V37.6784H61.784V35.5602Z" fill="#FFEF56"/>
<path d="M61.784 33.4196H59.646V35.5602H61.784V33.4196Z" fill="#EAD32D"/>
<path d="M61.784 31.3012H59.646V33.4196H61.784V31.3012Z" fill="#EAD32D"/>
<path d="M61.784 29.1605H59.646V31.3012H61.784V29.1605Z" fill="black"/>
<path d="M61.7839 27.0198H59.646V29.1605H61.784L61.7839 27.0198Z" fill="black"/>
<path d="M59.6432 84.575H57.525V86.6932H59.6432V84.575Z" fill="black"/>
<path d="M59.6432 82.4343H57.525V84.575H59.6432V82.4343Z" fill="black"/>
<path d="M59.6432 80.3162H57.525V82.4343H59.6432V80.3162Z" fill="#EAD32D"/>
<path d="M59.6432 78.1753H57.525V80.3162H59.6432V78.1753Z" fill="#EAD32D"/>
<path d="M59.6432 76.0374H57.525V78.1753H59.6432V76.0374Z" fill="#FFEF56"/>
<path d="M59.6432 73.9137H57.525V76.0347H59.6432V73.9137Z" fill="#FFEF56"/>
<path d="M59.6432 71.7787H57.525V73.9166H59.6432V71.7787Z" fill="#FFEF56"/>
<path d="M59.6432 69.6576H57.525V71.7758H59.6432V69.6576Z" fill="black"/>
<path d="M59.6432 67.5167H57.525V69.6576H59.6432V67.5167Z" fill="#00F3FF"/>
<path d="M59.6432 65.3986H57.525V67.5167H59.6432V65.3986Z" fill="#2CF926"/>
<path d="M59.6432 63.2577H57.525V65.3986H59.6432V63.2577Z" fill="#2CF926"/>
<path d="M59.6432 61.1198H57.525V63.2577H59.6432V61.1198Z" fill="black"/>
<path d="M59.6432 58.9987H57.525V61.1169H59.6432V58.9987Z" fill="#FFEF56"/>
<path d="M59.6432 56.8582H57.525V58.9987H59.6432V56.8582Z" fill="black"/>
<path d="M59.6432 54.7369H57.525V56.8551H59.6432V54.7369Z" fill="#F9C6AA"/>
<path d="M59.6432 52.5962H57.525V54.7369H59.6432V52.5962Z" fill="#F9C6AA"/>
<path d="M59.6432 50.478H57.525V52.5962H59.6432V50.478Z" fill="black"/>
<path d="M59.6432 48.3372H57.525V50.478H59.6432V48.3372Z" fill="#FFEF56"/>
<path d="M59.6432 46.219H57.525V48.3372H59.6432V46.219Z" fill="#FFEF56"/>
<path d="M59.6432 44.0783H57.525V46.219H59.6432V44.0783Z" fill="#FFEF56"/>
<path d="M59.6432 41.9374H57.525V44.0783H59.6432V41.9374Z" fill="#FFEF56"/>
<path d="M59.6432 39.8195H57.525V41.9374H59.6432V39.8195Z" fill="#FFEF56"/>
<path d="M59.6432 37.6784H57.525V39.8195H59.6432V37.6784Z" fill="#EAD32D"/>
<path d="M59.6432 35.5602H57.525V37.6784H59.6432V35.5602Z" fill="#FFEF56"/>
<path d="M59.6432 33.4196H57.525V35.5602H59.6432V33.4196Z" fill="#FFEF56"/>
<path d="M59.6432 31.3012H57.525V33.4196H59.6432V31.3012Z" fill="#EAD32D"/>
<path d="M59.6432 29.1605H57.525V31.3012H59.6432V29.1605Z" fill="#EAD32D"/>
<path d="M59.6432 27.0198H57.525V29.1605H59.6432V27.0198Z" fill="black"/>
<path d="M57.525 84.575H55.3843V86.6932H57.525V84.575Z" fill="black"/>
<path d="M57.525 82.4343H55.3843V84.575H57.525V82.4343Z" fill="#2B2403"/>
<path d="M57.525 80.3162H55.3843V82.4343H57.525V80.3162Z" fill="black"/>
<path d="M57.525 78.1753H55.3843V80.3162H57.525V78.1753Z" fill="black"/>
<path d="M57.525 76.0374H55.3843V78.1753H57.525V76.0374Z" fill="#EAD32D"/>
<path d="M57.525 73.9137H55.3843V76.0347H57.525V73.9137Z" fill="#EAD32D"/>
<path d="M57.525 71.7787H55.3843V73.9166H57.525V71.7787Z" fill="#FFEF56"/>
<path d="M57.525 69.6576H55.3843V71.7758H57.525V69.6576Z" fill="#FFEF56"/>
<path d="M57.525 67.5167H55.3843V69.6576H57.525V67.5167Z" fill="black"/>
<path d="M57.525 65.3986H55.3843V67.5167H57.525V65.3986Z" fill="black"/>
<path d="M57.525 63.2577H55.3843V65.3986H57.525V63.2577Z" fill="black"/>
<path d="M57.525 61.1198H55.3843V63.2577H57.525V61.1198Z" fill="#FFEF56"/>
<path d="M57.525 58.9987H55.3843V61.1169H57.525V58.9987Z" fill="#FFEF56"/>
<path d="M57.525 56.8582H55.3843V58.9987H57.525V56.8582Z" fill="black"/>
<path d="M57.525 54.7369H55.3843V56.8551H57.525V54.7369Z" fill="#F9C6AA"/>
<path d="M57.525 52.5962H55.3843V54.7369H57.525V52.5962Z" fill="#F9C6AA"/>
<path d="M57.525 50.478H55.3843V52.5962H57.525V50.478Z" fill="black"/>
<path d="M57.525 48.3372H55.3843V50.478H57.525V48.3372Z" fill="#FFEF56"/>
<path d="M57.525 46.219H55.3843V48.3372H57.525V46.219Z" fill="#FFEF56"/>
<path d="M57.525 44.0783H55.3843V46.219H57.525V44.0783Z" fill="#FFEF56"/>
<path d="M57.525 41.9374H55.3843V44.0783H57.525V41.9374Z" fill="#FFEF56"/>
<path d="M57.525 39.8195H55.3843V41.9374H57.525V39.8195Z" fill="#EAD32D"/>
<path d="M57.525 37.6784H55.3843V39.8195H57.525V37.6784Z" fill="#EAD32D"/>
<path d="M57.525 35.5602H55.3843V37.6784H57.525V35.5602Z" fill="#212120"/>
<path d="M57.525 33.4196H55.3843V35.5602H57.525V33.4196Z" fill="#FFEF56"/>
<path d="M57.525 31.3012H55.3843V33.4196H57.525V31.3012Z" fill="#FFEF56"/>
<path d="M57.525 29.1605H55.3843V31.3012H57.525V29.1605Z" fill="black"/>
<path d="M57.525 27.0198H55.3843V29.1605H57.525V27.0198Z" fill="black"/>
<path d="M57.5251 24.8989H55.3843V27.0171H57.5251V24.8989Z" fill="black"/>
<path d="M57.5251 22.7581H55.3843V24.8989H57.5251V22.7581Z" fill="black"/>
<path d="M57.5251 20.6399H55.3843V22.7581H57.5251V20.6399Z" fill="black"/>
<path d="M57.5251 18.499H55.3843V20.6399H57.5251V18.499Z" fill="black"/>
<path d="M55.3814 84.575H53.2632V86.6932H55.3814V84.575Z" fill="black"/>
<path d="M55.3814 82.4343H53.2632V84.575H55.3814V82.4343Z" fill="#2B2403"/>
<path d="M55.3814 80.3162H53.2632V82.4343H55.3814V80.3162Z" fill="#2B2403"/>
<path d="M55.3814 78.1753H53.2632V80.3162H55.3814V78.1753Z" fill="#352E07"/>
<path d="M55.3814 76.0374H53.2632V78.1753H55.3814V76.0374Z" fill="black"/>
<path d="M55.3814 73.9137H53.2632V76.0347H55.3814V73.9137Z" fill="black"/>
<path d="M55.3814 71.7787H53.2632V73.9166H55.3814V71.7787Z" fill="#EAD32D"/>
<path d="M55.3814 69.6576H53.2632V71.7758H55.3814V69.6576Z" fill="#EAD32D"/>
<path d="M55.3814 67.5167H53.2632V69.6576H55.3814V67.5167Z" fill="#EAD32D"/>
<path d="M55.3814 65.3986H53.2632V67.5167H55.3814V65.3986Z" fill="#EAD32D"/>
<path d="M55.3814 63.2577H53.2632V65.3986H55.3814V63.2577Z" fill="#EAD32D"/>
<path d="M55.3814 61.1198H53.2632V63.2577H55.3814V61.1198Z" fill="#EAD32D"/>
<path d="M55.3814 58.9987H53.2632V61.1169H55.3814V58.9987Z" fill="black"/>
<path d="M55.3814 56.8582H53.2632V58.9987H55.3814V56.8582Z" fill="black"/>
<path d="M55.3814 54.7369H53.2632V56.8551H55.3814V54.7369Z" fill="black"/>
<path d="M55.3814 52.5962H53.2632V54.7369H55.3814V52.5962Z" fill="black"/>
<path d="M55.3814 50.478H53.2632V52.5962H55.3814V50.478Z" fill="black"/>
<path d="M55.3814 48.3372H53.2632V50.478H55.3814V48.3372Z" fill="black"/>
<path d="M55.3814 46.219H53.2632V48.3372H55.3814V46.219Z" fill="#EAD32D"/>
<path d="M55.3814 44.0783H53.2632V46.219H55.3814V44.0783Z" fill="#EAD32D"/>
<path d="M55.3814 41.9374H53.2632V44.0783H55.3814V41.9374Z" fill="#EAD32D"/>
<path d="M55.3814 39.8195H53.2632V41.9374H55.3814V39.8195Z" fill="#EAD32D"/>
<path d="M55.3814 37.6784H53.2632V39.8195H55.3814V37.6784Z" fill="#212120"/>
<path d="M55.3814 35.5602H53.2632V37.6784H55.3814V35.5602Z" fill="#212120"/>
<path d="M55.3814 33.4196H53.2632V35.5602H55.3814V33.4196Z" fill="#FFEF56"/>
<path d="M55.3814 31.3012H53.2632V33.4196H55.3814V31.3012Z" fill="black"/>
<path d="M55.3814 29.1605H53.2632V31.3012H55.3814V29.1605Z" fill="#A8A8A7"/>
<path d="M55.3814 27.0198H53.2632V29.1605H55.3814V27.0198Z" fill="#CCCCCA"/>
<path d="M55.3814 24.8989H53.2632V27.0171H55.3814V24.8989Z" fill="#CCCCCA"/>
<path d="M55.3814 22.7581H53.2632V24.8989H55.3814V22.7581Z" fill="#F9C6AA"/>
<path d="M55.3814 20.6399H53.2632V22.7581H55.3814V20.6399Z" fill="#F9C6AA"/>
<path d="M55.3814 18.499H53.2632V20.6399H55.3814V18.499Z" fill="#F9C6AA"/>
<path d="M55.3814 16.3809H53.2632V18.499H55.3814V16.3809Z" fill="black"/>
<path d="M53.2632 84.575H51.1224V86.6932H53.2632V84.575Z" fill="black"/>
<path d="M53.2632 82.4343H51.1224V84.575H53.2632V82.4343Z" fill="#2B2403"/>
<path d="M53.2632 80.3162H51.1224V82.4343H53.2632V80.3162Z" fill="#2B2403"/>
<path d="M53.2632 78.1753H51.1224V80.3162H53.2632V78.1753Z" fill="#352E07"/>
<path d="M53.2632 76.0374H51.1224V78.1753H53.2632V76.0374Z" fill="#352E07"/>
<path d="M53.2632 73.9137H51.1224V76.0347H53.2632V73.9137Z" fill="black"/>
<path d="M53.2632 71.7787H51.1224V73.9166H53.2632V71.7787Z" fill="black"/>
<path d="M53.2632 69.6576H51.1224V71.7758H53.2632V69.6576Z" fill="black"/>
<path d="M53.2632 67.5167H51.1224V69.6576H53.2632V67.5167Z" fill="black"/>
<path d="M53.2632 65.3986H51.1224V67.5167H53.2632V65.3986Z" fill="black"/>
<path d="M53.2632 63.2577H51.1224V65.3986H53.2632V63.2577Z" fill="black"/>
<path d="M53.2632 61.1198H51.1224V63.2577H53.2632V61.1198Z" fill="black"/>
<path d="M53.2632 58.9987H51.1224V61.1169H53.2632V58.9987Z" fill="black"/>
<path d="M53.2632 56.8582H51.1224V58.9987H53.2632V56.8582Z" fill="#352E07"/>
<path d="M53.2632 54.7369H51.1224V56.8551H53.2632V54.7369Z" fill="#352E07"/>
<path d="M53.2632 52.5962H51.1224V54.7369H53.2632V52.5962Z" fill="#352E07"/>
<path d="M53.2632 50.478H51.1224V52.5962H53.2632V50.478Z" fill="#352E07"/>
<path d="M53.2632 48.3372H51.1224V50.478H53.2632V48.3372Z" fill="black"/>
<path d="M53.2632 46.219H51.1224V48.3372H53.2632V46.219Z" fill="black"/>
<path d="M53.2632 44.0783H51.1224V46.219H53.2632V44.0783Z" fill="black"/>
<path d="M53.2632 41.9374H51.1224V44.0783H53.2632V41.9374Z" fill="black"/>
<path d="M53.2632 39.8195H51.1224V41.9374H53.2632V39.8195Z" fill="black"/>
<path d="M53.2632 37.6784H51.1224V39.8195H53.2632V37.6784Z" fill="#212120"/>
<path d="M53.2632 35.5602H51.1224V37.6784H53.2632V35.5602Z" fill="#212120"/>
<path d="M53.2632 33.4196H51.1224V35.5602H53.2632V33.4196Z" fill="#212120"/>
<path d="M53.2632 31.3012H51.1224V33.4196H53.2632V31.3012Z" fill="#A8A8A7"/>
<path d="M53.2632 29.1605H51.1224V31.3012H53.2632V29.1605Z" fill="#CCCCCA"/>
<path d="M53.2632 27.0198H51.1224V29.1605H53.2632V27.0198Z" fill="#CCCCCA"/>
<path d="M53.2632 24.8989H51.1224V27.0171H53.2632V24.8989Z" fill="#F9C6AA"/>
<path d="M53.2632 22.7581H51.1224V24.8989H53.2632V22.7581Z" fill="#2D2D2D"/>
<path d="M53.2632 20.6399H51.1224V22.7581H53.2632V20.6399Z" fill="#F9C6AA"/>
<path d="M53.2632 18.499H51.1224V20.6399H53.2632V18.499Z" fill="#F9C6AA"/>
<path d="M53.2632 16.3809H51.1224V18.499H53.2632V16.3809Z" fill="black"/>
<path d="M51.1224 84.575H49.0043V86.6932H51.1224V84.575Z" fill="black"/>
<path d="M51.1224 82.4343H49.0043V84.575H51.1224V82.4343Z" fill="#2B2403"/>
<path d="M51.1224 80.3162H49.0043V82.4343H51.1224V80.3162Z" fill="#514911"/>
<path d="M51.1224 78.1753H49.0043V80.3162H51.1224V78.1753Z" fill="#2B2403"/>
<path d="M51.1224 76.0374H49.0043V78.1753H51.1224V76.0374Z" fill="#352E07"/>
<path d="M51.1224 73.9137H49.0043V76.0347H51.1224V73.9137Z" fill="#352E07"/>
<path d="M51.1224 71.7787H49.0043V73.9166H51.1224V71.7787Z" fill="#352E07"/>
<path d="M51.1224 69.6576H49.0043V71.7758H51.1224V69.6576Z" fill="#352E07"/>
<path d="M51.1224 67.5167H49.0043V69.6576H51.1224V67.5167Z" fill="#352E07"/>
<path d="M51.1224 65.3986H49.0043V67.5167H51.1224V65.3986Z" fill="#352E07"/>
<path d="M51.1224 63.2577H49.0043V65.3986H51.1224V63.2577Z" fill="#352E07"/>
<path d="M51.1224 61.1198H49.0043V63.2577H51.1224V61.1198Z" fill="#352E07"/>
<path d="M51.1224 58.9987H49.0043V61.1169H51.1224V58.9987Z" fill="#352E07"/>
<path d="M51.1224 56.8582H49.0043V58.9987H51.1224V56.8582Z" fill="black"/>
<path d="M51.1224 54.7369H49.0043V56.8551H51.1224V54.7369Z" fill="#60561B"/>
<path d="M51.1224 52.5962H49.0043V54.7369H51.1224V52.5962Z" fill="#352E07"/>
<path d="M51.1224 50.478H49.0043V52.5962H51.1224V50.478Z" fill="#352E07"/>
<path d="M51.1224 48.3372H49.0043V50.478H51.1224V48.3372Z" fill="black"/>
<path d="M51.1224 46.219H49.0043V48.3372H51.1224V46.219Z" fill="#352E07"/>
<path d="M51.1224 44.0783H49.0043V46.219H51.1224V44.0783Z" fill="#352E07"/>
<path d="M51.1224 41.9374H49.0043V44.0783H51.1224V41.9374Z" fill="#352E07"/>
<path d="M51.1224 39.8195H49.0043V41.9374H51.1224V39.8195Z" fill="#352E07"/>
<path d="M51.1224 37.6784H49.0043V39.8195H51.1224V37.6784Z" fill="#352E07"/>
<path d="M51.1224 35.5602H49.0043V37.6784H51.1224V35.5602Z" fill="#212120"/>
<path d="M51.1224 33.4196H49.0043V35.5602H51.1224V33.4196Z" fill="#212120"/>
<path d="M51.1224 31.3012H49.0043V33.4196H51.1224V31.3012Z" fill="#A8A8A7"/>
<path d="M51.1224 29.1605H49.0043V31.3012H51.1224V29.1605Z" fill="#CCCCCA"/>
<path d="M51.1224 27.0198H49.0043V29.1605H51.1224V27.0198Z" fill="#CCCCCA"/>
<path d="M51.1224 24.8989H49.0043V27.0171H51.1224V24.8989Z" fill="#F9C6AA"/>
<path d="M51.1224 22.7581H49.0043V24.8989H51.1224V22.7581Z" fill="#2D2D2D"/>
<path d="M51.1224 20.6399H49.0043V22.7581H51.1224V20.6399Z" fill="#F9C6AA"/>
<path d="M51.1224 18.499H49.0043V20.6399H51.1224V18.499Z" fill="#F9C6AA"/>
<path d="M51.1224 16.3809H49.0043V18.499H51.1224V16.3809Z" fill="black"/>
<path d="M49.0043 84.575H46.8634V86.6932H49.0043V84.575Z" fill="black"/>
<path d="M49.0043 82.4343H46.8634V84.575H49.0043V82.4343Z" fill="#2B2403"/>
<path d="M49.0043 80.3162H46.8634V82.4343H49.0043V80.3162Z" fill="#514911"/>
<path d="M49.0043 78.1753H46.8634V80.3162H49.0043V78.1753Z" fill="#514911"/>
<path d="M49.0043 76.0374H46.8634V78.1753H49.0043V76.0374Z" fill="#514911"/>
<path d="M49.0043 73.9137H46.8634V76.0347H49.0043V73.9137Z" fill="#514911"/>
<path d="M49.0043 71.7787H46.8634V73.9166H49.0043V71.7787Z" fill="#514911"/>
<path d="M49.0043 69.6576H46.8634V71.7758H49.0043V69.6576Z" fill="#514911"/>
<path d="M49.0043 67.5167H46.8634V69.6576H49.0043V67.5167Z" fill="#514911"/>
<path d="M49.0043 65.3986H46.8634V67.5167H49.0043V65.3986Z" fill="#514911"/>
<path d="M49.0043 63.2577H46.8634V65.3986H49.0043V63.2577Z" fill="#514911"/>
<path d="M49.0043 61.1198H46.8634V63.2577H49.0043V61.1198Z" fill="#514911"/>
<path d="M49.0043 58.9987H46.8634V61.1169H49.0043V58.9987Z" fill="#514911"/>
<path d="M49.0043 56.8582H46.8634V58.9987H49.0043V56.8582Z" fill="#514911"/>
<path d="M49.0043 54.7369H46.8634V56.8551H49.0043V54.7369Z" fill="black"/>
<path d="M49.0043 52.5962H46.8634V54.7369H49.0043V52.5962Z" fill="#60561B"/>
<path d="M49.0043 50.478H46.8634V52.5962H49.0043V50.478Z" fill="#352E07"/>
<path d="M49.0043 48.3372H46.8634V50.478H49.0043V48.3372Z" fill="black"/>
<path d="M49.0043 46.219H46.8634V48.3372H49.0043V46.219Z" fill="black"/>
<path d="M49.0043 44.0783H46.8634V46.219H49.0043V44.0783Z" fill="#514911"/>
<path d="M49.0043 41.9374H46.8634V44.0783H49.0043V41.9374Z" fill="#514911"/>
<path d="M49.0043 39.8195H46.8634V41.9374H49.0043V39.8195Z" fill="#514911"/>
<path d="M49.0043 37.6784H46.8634V39.8195H49.0043V37.6784Z" fill="#514911"/>
<path d="M49.0043 35.5602H46.8634V37.6784H49.0043V35.5602Z" fill="#212120"/>
<path d="M49.0043 33.4196H46.8634V35.5602H49.0043V33.4196Z" fill="#212120"/>
<path d="M49.0043 31.3012H46.8634V33.4196H49.0043V31.3012Z" fill="#A8A8A7"/>
<path d="M49.0043 29.1605H46.8634V31.3012H49.0043V29.1605Z" fill="#CCCCCA"/>
<path d="M49.0043 27.0198H46.8634V29.1605H49.0043V27.0198Z" fill="#CCCCCA"/>
<path d="M49.0043 24.8989H46.8634V27.0171H49.0043V24.8989Z" fill="#EA9E78"/>
<path d="M49.0043 22.7581H46.8634V24.8989H49.0043V22.7581Z" fill="#F9C6AA"/>
<path d="M49.0043 20.6399H46.8634V22.7581H49.0043V20.6399Z" fill="#F9C6AA"/>
<path d="M49.0043 18.499H46.8634V20.6399H49.0043V18.499Z" fill="#F9C6AA"/>
<path d="M49.0043 16.3809H46.8634V18.499H49.0043V16.3809Z" fill="black"/>
<path d="M46.8634 84.575H44.7453V86.6932H46.8634V84.575Z" fill="black"/>
<path d="M46.8634 82.4343H44.7453V84.575H46.8634V82.4343Z" fill="#2B2403"/>
<path d="M46.8634 80.3162H44.7453V82.4343H46.8634V80.3162Z" fill="#514911"/>
<path d="M46.8634 78.1753H44.7453V80.3162H46.8634V78.1753Z" fill="#514911"/>
<path d="M46.8634 76.0374H44.7453V78.1753H46.8634V76.0374Z" fill="black"/>
<path d="M46.8634 73.9137H44.7453V76.0347H46.8634V73.9137Z" fill="black"/>
<path d="M46.8634 71.7787H44.7453V73.9166H46.8634V71.7787Z" fill="black"/>
<path d="M46.8634 69.6576H44.7453V71.7758H46.8634V69.6576Z" fill="black"/>
<path d="M46.8634 67.5167H44.7453V69.6576H46.8634V67.5167Z" fill="black"/>
<path d="M46.8634 65.3986H44.7453V67.5167H46.8634V65.3986Z" fill="black"/>
<path d="M46.8634 63.2577H44.7453V65.3986H46.8634V63.2577Z" fill="black"/>
<path d="M46.8634 61.1198H44.7453V63.2577H46.8634V61.1198Z" fill="black"/>
<path d="M46.8634 58.9987H44.7453V61.1169H46.8634V58.9987Z" fill="black"/>
<path d="M46.8634 56.8582H44.7453V58.9987H46.8634V56.8582Z" fill="black"/>
<path d="M46.8634 54.7369H44.7453V56.8551H46.8634V54.7369Z" fill="black"/>
<path d="M46.8634 52.5962H44.7453V54.7369H46.8634V52.5962Z" fill="black"/>
<path d="M46.8634 50.478H44.7453V52.5962H46.8634V50.478Z" fill="black"/>
<path d="M46.8634 48.3372H44.7453V50.478H46.8634V48.3372Z" fill="black"/>
<path d="M46.8634 46.219H44.7453V48.3372H46.8634V46.219Z" fill="black"/>
<path d="M46.8634 44.0783H44.7453V46.219H46.8634V44.0783Z" fill="black"/>
<path d="M46.8634 41.9374H44.7453V44.0783H46.8634V41.9374Z" fill="black"/>
<path d="M46.8634 39.8195H44.7453V41.9374H46.8634V39.8195Z" fill="black"/>
<path d="M46.8634 37.6784H44.7453V39.8195H46.8634V37.6784Z" fill="#212120"/>
<path d="M46.8634 35.5602H44.7453V37.6784H46.8634V35.5602Z" fill="#212120"/>
<path d="M46.8634 33.4196H44.7453V35.5602H46.8634V33.4196Z" fill="#212120"/>
<path d="M46.8634 31.3012H44.7453V33.4196H46.8634V31.3012Z" fill="#A8A8A7"/>
<path d="M46.8634 29.1605H44.7453V31.3012H46.8634V29.1605Z" fill="#CCCCCA"/>
<path d="M46.8634 27.0198H44.7453V29.1605H46.8634V27.0198Z" fill="#CCCCCA"/>
<path d="M46.8634 24.8989H44.7453V27.0171H46.8634V24.8989Z" fill="#F9C6AA"/>
<path d="M46.8634 22.7581H44.7453V24.8989H46.8634V22.7581Z" fill="#2D2D2D"/>
<path d="M46.8634 20.6399H44.7453V22.7581H46.8634V20.6399Z" fill="#F9C6AA"/>
<path d="M46.8634 18.499H44.7453V20.6399H46.8634V18.499Z" fill="#F9C6AA"/>
<path d="M46.8634 16.3809H44.7453V18.499H46.8634V16.3809Z" fill="black"/>
<path d="M44.7453 84.575H42.6046V86.6932H44.7453V84.575Z" fill="black"/>
<path d="M44.7453 82.4343H42.6046V84.575H44.7453V82.4343Z" fill="#2B2403"/>
<path d="M44.7453 80.3162H42.6046V82.4343H44.7453V80.3162Z" fill="black"/>
<path d="M44.7453 78.1753H42.6046V80.3162H44.7453V78.1753Z" fill="black"/>
<path d="M44.7453 76.0374H42.6046V78.1753H44.7453V76.0374Z" fill="#FFEF56"/>
<path d="M44.7453 73.9137H42.6046V76.0347H44.7453V73.9137Z" fill="#FFEF56"/>
<path d="M44.7453 71.7787H42.6046V73.9166H44.7453V71.7787Z" fill="#FFEF56"/>
<path d="M44.7453 69.6576H42.6046V71.7758H44.7453V69.6576Z" fill="#FFEF56"/>
<path d="M44.7453 67.5167H42.6046V69.6576H44.7453V67.5167Z" fill="#FFEF56"/>
<path d="M44.7453 65.3986H42.6046V67.5167H44.7453V65.3986Z" fill="#FFEF56"/>
<path d="M44.7453 63.2577H42.6046V65.3986H44.7453V63.2577Z" fill="#FFEF56"/>
<path d="M44.7453 61.1198H42.6046V63.2577H44.7453V61.1198Z" fill="#FFEF56"/>
<path d="M44.7453 58.9987H42.6046V61.1169H44.7453V58.9987Z" fill="#FFEF56"/>
<path d="M44.7453 56.8582H42.6046V58.9987H44.7453V56.8582Z" fill="#FFEF56"/>
<path d="M44.7453 54.7369H42.6046V56.8551H44.7453V54.7369Z" fill="#FFEF56"/>
<path d="M44.7453 52.5962H42.6046V54.7369H44.7453V52.5962Z" fill="#FFEF56"/>
<path d="M44.7453 50.478H42.6046V52.5962H44.7453V50.478Z" fill="#FFEF56"/>
<path d="M44.7453 48.3372H42.6046V50.478H44.7453V48.3372Z" fill="#EAD32D"/>
<path d="M44.7453 46.219H42.6046V48.3372H44.7453V46.219Z" fill="#EAD32D"/>
<path d="M44.7453 44.0783H42.6046V46.219H44.7453V44.0783Z" fill="#EAD32D"/>
<path d="M44.7453 41.9374H42.6046V44.0783H44.7453V41.9374Z" fill="#EAD32D"/>
<path d="M44.7453 39.8195H42.6046V41.9374H44.7453V39.8195Z" fill="#EAD32D"/>
<path d="M44.7453 37.6784H42.6046V39.8195H44.7453V37.6784Z" fill="#212120"/>
<path d="M44.7453 35.5602H42.6046V37.6784H44.7453V35.5602Z" fill="#212120"/>
<path d="M44.7453 33.4196H42.6046V35.5602H44.7453V33.4196Z" fill="#EAD32D"/>
<path d="M44.7453 31.3012H42.6046V33.4196H44.7453V31.3012Z" fill="black"/>
<path d="M44.7453 29.1605H42.6046V31.3012H44.7453V29.1605Z" fill="black"/>
<path d="M44.7453 27.0198H42.6046V29.1605H44.7453V27.0198Z" fill="black"/>
<path d="M44.7453 24.8989H42.6046V27.0171H44.7453V24.8989Z" fill="black"/>
<path d="M44.7453 22.7581H42.6046V24.8989H44.7453V22.7581Z" fill="black"/>
<path d="M44.7453 20.6399H42.6046V22.7581H44.7453V20.6399Z" fill="black"/>
<path d="M44.7453 18.499H42.6046V20.6399H44.7453V18.499Z" fill="black"/>
<path d="M42.6046 84.575H40.4638V86.6932H42.6046V84.575Z" fill="black"/>
<path d="M42.6046 82.4343H40.4638V84.575H42.6046V82.4343Z" fill="black"/>
<path d="M42.6046 80.3162H40.4638V82.4343H42.6046V80.3162Z" fill="#EAD32D"/>
<path d="M42.6046 78.1753H40.4638V80.3162H42.6046V78.1753Z" fill="#FFEF56"/>
<path d="M42.6046 76.0374H40.4638V78.1753H42.6046V76.0374Z" fill="#FFEF56"/>
<path d="M42.6046 73.9137H40.4638V76.0347H42.6046V73.9137Z" fill="#FFEF56"/>
<path d="M42.6046 71.7787H40.4638V73.9166H42.6046V71.7787Z" fill="#FFEF56"/>
<path d="M42.6046 69.6576H40.4638V71.7758H42.6046V69.6576Z" fill="#FFEF56"/>
<path d="M42.6046 67.5167H40.4638V69.6576H42.6046V67.5167Z" fill="#FFEF56"/>
<path d="M42.6046 65.3986H40.4638V67.5167H42.6046V65.3986Z" fill="#FFEF56"/>
<path d="M42.6046 63.2577H40.4638V65.3986H42.6046V63.2577Z" fill="#FFEF56"/>
<path d="M42.6046 61.1198H40.4638V63.2577H42.6046V61.1198Z" fill="#FFEF56"/>
<path d="M42.6046 58.9987H40.4638V61.1169H42.6046V58.9987Z" fill="#FFEF56"/>
<path d="M42.6046 56.8582H40.4638V58.9987H42.6046V56.8582Z" fill="#FFEF56"/>
<path d="M42.6046 54.7369H40.4638V56.8551H42.6046V54.7369Z" fill="#FFEF56"/>
<path d="M42.6046 52.5962H40.4638V54.7369H42.6046V52.5962Z" fill="#FFEF56"/>
<path d="M42.6046 50.478H40.4638V52.5962H42.6046V50.478Z" fill="#FFEF56"/>
<path d="M42.6046 48.3372H40.4638V50.478H42.6046V48.3372Z" fill="#FFEF56"/>
<path d="M42.6046 46.219H40.4638V48.3372H42.6046V46.219Z" fill="#FFEF56"/>
<path d="M42.6046 44.0783H40.4638V46.219H42.6046V44.0783Z" fill="#EAD32D"/>
<path d="M42.6046 41.9374H40.4638V44.0783H42.6046V41.9374Z" fill="#EAD32D"/>
<path d="M42.6046 39.8195H40.4638V41.9374H42.6046V39.8195Z" fill="#EAD32D"/>
<path d="M42.6046 37.6784H40.4638V39.8195H42.6046V37.6784Z" fill="#EAD32D"/>
<path d="M42.6046 35.5602H40.4638V37.6784H42.6046V35.5602Z" fill="#EAD32D"/>
<path d="M42.6046 33.4196H40.4638V35.5602H42.6046V33.4196Z" fill="#EAD32D"/>
<path d="M42.6046 31.3012H40.4638V33.4196H42.6046V31.3012Z" fill="#EAD32D"/>
<path d="M42.6046 29.1605H40.4638V31.3012H42.6046V29.1605Z" fill="black"/>
<path d="M40.4638 84.575H38.3455V86.6932H40.4638V84.575Z" fill="black"/>
<path d="M40.4638 82.4343H38.3455V84.575H40.4638V82.4343Z" fill="#EAD32D"/>
<path d="M40.4638 80.3162H38.3455V82.4343H40.4638V80.3162Z" fill="#EAD32D"/>
<path d="M40.4638 78.1753H38.3455V80.3162H40.4638V78.1753Z" fill="#EAD32D"/>
<path d="M40.4638 76.0374H38.3455V78.1753H40.4638V76.0374Z" fill="#FFEF56"/>
<path d="M40.4638 73.9137H38.3455V76.0347H40.4638V73.9137Z" fill="#FFEF56"/>
<path d="M40.4638 71.7787H38.3455V73.9166H40.4638V71.7787Z" fill="#FFEF56"/>
<path d="M40.4638 69.6576H38.3455V71.7758H40.4638V69.6576Z" fill="#FFEF56"/>
<path d="M40.4638 67.5167H38.3455V69.6576H40.4638V67.5167Z" fill="#FFEF56"/>
<path d="M40.4638 65.3986H38.3455V67.5167H40.4638V65.3986Z" fill="#FFEF56"/>
<path d="M40.4638 63.2577H38.3455V65.3986H40.4638V63.2577Z" fill="#FFEF56"/>
<path d="M40.4638 61.1198H38.3455V63.2577H40.4638V61.1198Z" fill="#FFEF56"/>
<path d="M40.4638 58.9987H38.3455V61.1169H40.4638V58.9987Z" fill="#FFEF56"/>
<path d="M40.4638 56.8582H38.3455V58.9987H40.4638V56.8582Z" fill="#FFEF56"/>
<path d="M40.4638 54.7369H38.3455V56.8551H40.4638V54.7369Z" fill="#FFEF56"/>
<path d="M40.4638 52.5962H38.3455V54.7369H40.4638V52.5962Z" fill="#FFEF56"/>
<path d="M40.4638 50.478H38.3455V52.5962H40.4638V50.478Z" fill="#FFEF56"/>
<path d="M40.4638 48.3372H38.3455V50.478H40.4638V48.3372Z" fill="#FFEF56"/>
<path d="M40.4638 46.219H38.3455V48.3372H40.4638V46.219Z" fill="#FFEF56"/>
<path d="M40.4638 44.0783H38.3455V46.219H40.4638V44.0783Z" fill="#FFEF56"/>
<path d="M40.4638 41.9374H38.3455V44.0783H40.4638V41.9374Z" fill="#FFEF56"/>
<path d="M40.4638 39.8195H38.3455V41.9374H40.4638V39.8195Z" fill="#EAD32D"/>
<path d="M40.4638 37.6784H38.3455V39.8195H40.4638V37.6784Z" fill="#EAD32D"/>
<path d="M40.4638 35.5602H38.3455V37.6784H40.4638V35.5602Z" fill="#EAD32D"/>
<path d="M40.4638 33.4196H38.3455V35.5602H40.4638V33.4196Z" fill="black"/>
<path d="M40.4638 31.3012H38.3455V33.4196H40.4638V31.3012Z" fill="black"/>
<path d="M38.3455 84.575H36.2047V86.6932H38.3455V84.575Z" fill="black"/>
<path d="M38.3455 82.4343H36.2047V84.575H38.3455V82.4343Z" fill="#EAD32D"/>
<path d="M38.3455 80.3162H36.2047V82.4343H38.3455V80.3162Z" fill="#EAD32D"/>
<path d="M38.3455 78.1753H36.2047V80.3162H38.3455V78.1753Z" fill="#EAD32D"/>
<path d="M38.3455 76.0374H36.2047V78.1753H38.3455V76.0374Z" fill="#EAD32D"/>
<path d="M38.3455 73.9137H36.2047V76.0347H38.3455V73.9137Z" fill="#EAD32D"/>
<path d="M38.3455 71.7787H36.2047V73.9166H38.3455V71.7787Z" fill="#FFEF56"/>
<path d="M38.3455 69.6576H36.2047V71.7758H38.3455V69.6576Z" fill="#FFEF56"/>
<path d="M38.3455 67.5167H36.2047V69.6576H38.3455V67.5167Z" fill="#FFEF56"/>
<path d="M38.3455 65.3986H36.2047V67.5167H38.3455V65.3986Z" fill="#FFEF56"/>
<path d="M38.3455 63.2577H36.2047V65.3986H38.3455V63.2577Z" fill="#FFEF56"/>
<path d="M38.3455 61.1198H36.2047V63.2577H38.3455V61.1198Z" fill="#FFEF56"/>
<path d="M38.3455 58.9987H36.2047V61.1169H38.3455V58.9987Z" fill="#FFEF56"/>
<path d="M38.3455 56.8582H36.2047V58.9987H38.3455V56.8582Z" fill="#FFEF56"/>
<path d="M38.3455 54.7369H36.2047V56.8551H38.3455V54.7369Z" fill="#FFEF56"/>
<path d="M38.3455 52.5962H36.2047V54.7369H38.3455V52.5962Z" fill="#FFEF56"/>
<path d="M38.3455 50.478H36.2047V52.5962H38.3455V50.478Z" fill="#FFEF56"/>
<path d="M38.3455 48.3372H36.2047V50.478H38.3455V48.3372Z" fill="#FFEF56"/>
<path d="M38.3455 46.219H36.2047V48.3372H38.3455V46.219Z" fill="#FFEF56"/>
<path d="M38.3455 44.0783H36.2047V46.219H38.3455V44.0783Z" fill="#FFEF56"/>
<path d="M38.3455 41.9374H36.2047V44.0783H38.3455V41.9374Z" fill="#FFEF56"/>
<path d="M38.3455 39.8195H36.2047V41.9374H38.3455V39.8195Z" fill="#FFEF56"/>
<path d="M38.3455 37.6784H36.2047V39.8195H38.3455V37.6784Z" fill="#EAD32D"/>
<path d="M38.3455 35.5602H36.2047V37.6784H38.3455V35.5602Z" fill="black"/>
<path d="M36.2047 84.575H34.0866V86.6932H36.2047V84.575Z" fill="black"/>
<path d="M36.2047 82.4343H34.0866V84.575H36.2047V82.4343Z" fill="#EAD32D"/>
<path d="M36.2047 80.3162H34.0866V82.4343H36.2047V80.3162Z" fill="#EAD32D"/>
<path d="M36.2047 78.1753H34.0866V80.3162H36.2047V78.1753Z" fill="#EAD32D"/>
<path d="M36.2047 76.0374H34.0866V78.1753H36.2047V76.0374Z" fill="#EAD32D"/>
<path d="M36.2047 73.9137H34.0866V76.0347H36.2047V73.9137Z" fill="#EAD32D"/>
<path d="M36.2047 71.7787H34.0866V73.9166H36.2047V71.7787Z" fill="#EAD32D"/>
<path d="M36.2047 69.6576H34.0866V71.7758H36.2047V69.6576Z" fill="#FFEF56"/>
<path d="M36.2047 67.5167H34.0866V69.6576H36.2047V67.5167Z" fill="#FFEF56"/>
<path d="M36.2047 65.3986H34.0866V67.5167H36.2047V65.3986Z" fill="#FFEF56"/>
<path d="M36.2047 63.2577H34.0866V65.3986H36.2047V63.2577Z" fill="#FFEF56"/>
<path d="M36.2047 61.1198H34.0866V63.2577H36.2047V61.1198Z" fill="#FFEF56"/>
<path d="M36.2047 58.9987H34.0866V61.1169H36.2047V58.9987Z" fill="#FFEF56"/>
<path d="M36.2047 56.8582H34.0866V58.9987H36.2047V56.8582Z" fill="#FFEF56"/>
<path d="M36.2047 54.7369H34.0866V56.8551H36.2047V54.7369Z" fill="#FFEF56"/>
<path d="M36.2047 52.5962H34.0866V54.7369H36.2047V52.5962Z" fill="#FFEF56"/>
<path d="M36.2047 50.478H34.0866V52.5962H36.2047V50.478Z" fill="#FFEF56"/>
<path d="M36.2047 48.3372H34.0866V50.478H36.2047V48.3372Z" fill="#FFEF56"/>
<path d="M36.2047 46.219H34.0866V48.3372H36.2047V46.219Z" fill="#FFEF56"/>
<path d="M36.2047 44.0783H34.0866V46.219H36.2047V44.0783Z" fill="#FFEF56"/>
<path d="M36.2047 41.9374H34.0866V44.0783H36.2047V41.9374Z" fill="#FFEF56"/>
<path d="M36.2047 39.8195H34.0866V41.9374H36.2047V39.8195Z" fill="#EAD32D"/>
<path d="M36.2047 37.6784H34.0866V39.8195H36.2047V37.6784Z" fill="black"/>
<path d="M36.2047 35.5602H34.0866V37.6784H36.2047V35.5602Z" fill="black"/>
<path d="M34.0866 84.575H31.9458V86.6932H34.0866V84.575Z" fill="black"/>
<path d="M34.0866 82.4343H31.9458V84.575H34.0866V82.4343Z" fill="black"/>
<path d="M34.0866 80.3162H31.9458V82.4343H34.0866V80.3162Z" fill="black"/>
<path d="M34.0866 78.1753H31.9458V80.3162H34.0866V78.1753Z" fill="black"/>
<path d="M34.0866 76.0374H31.9458V78.1753H34.0866V76.0374Z" fill="black"/>
<path d="M34.0866 73.9137H31.9458V76.0347H34.0866V73.9137Z" fill="black"/>
<path d="M34.0866 71.7787H31.9458V73.9166H34.0866V71.7787Z" fill="black"/>
<path d="M34.0866 69.6576H31.9458V71.7758H34.0866V69.6576Z" fill="black"/>
<path d="M34.0866 67.5167H31.9458V69.6576H34.0866V67.5167Z" fill="black"/>
<path d="M34.0866 65.3986H31.9458V67.5167H34.0866V65.3986Z" fill="black"/>
<path d="M34.0866 63.2577H31.9458V65.3986H34.0866V63.2577Z" fill="black"/>
<path d="M34.0866 61.1198H31.9458V63.2577H34.0866V61.1198Z" fill="black"/>
<path d="M34.0866 58.9987H31.9458V61.1169H34.0866V58.9987Z" fill="black"/>
<path d="M34.0866 56.8582H31.9458V58.9987H34.0866V56.8582Z" fill="black"/>
<path d="M34.0866 54.7369H31.9458V56.8551H34.0866V54.7369Z" fill="black"/>
<path d="M34.0866 52.5962H31.9458V54.7369H34.0866V52.5962Z" fill="black"/>
<path d="M34.0866 50.478H31.9458V52.5962H34.0866V50.478Z" fill="black"/>
<path d="M34.0866 48.3372H31.9458V50.478H34.0866V48.3372Z" fill="black"/>
<path d="M34.0866 46.219H31.9458V48.3372H34.0866V46.219Z" fill="black"/>
<path d="M34.0866 44.0783H31.9458V46.219H34.0866V44.0783Z" fill="black"/>
<path d="M34.0866 41.9374H31.9458V44.0783H34.0866V41.9374Z" fill="black"/>
<path d="M34.0866 39.8195H31.9458V41.9374H34.0866V39.8195Z" fill="black"/>
</svg>
