<svg width="105" height="105" viewBox="0 0 105 105" fill="none" xmlns="http://www.w3.org/2000/svg">
<path d="M52.251 0.5625C80.7974 0.562694 103.938 23.7045 103.938 52.251C103.938 80.7973 80.7973 103.938 52.251 103.938C23.7045 103.938 0.56269 80.7974 0.5625 52.251C0.5625 23.7044 23.7044 0.5625 52.251 0.5625Z" fill="#F9F7E7" stroke="#211E07" stroke-width="1.125"/>
<path d="M72.433 87.2944H70.2701V89.4134H72.433V87.2944Z" fill="black"/>
<path d="M72.433 85.1543H70.2701V87.2945H72.433V85.1543Z" fill="black"/>
<path d="M72.433 83.0352H70.2701V85.1542H72.433V83.0352Z" fill="black"/>
<path d="M72.433 80.8948H70.2701V83.035H72.433V80.8948Z" fill="black"/>
<path d="M72.433 78.7546H70.2701V80.8919H72.433V78.7546Z" fill="black"/>
<path d="M72.433 76.6326H70.2701V78.7546H72.433V76.6326Z" fill="black"/>
<path d="M72.433 74.4956H70.2701V76.6328H72.433V74.4956Z" fill="black"/>
<path d="M72.433 63.8367H70.2701V65.9739H72.433V63.8367Z" fill="black"/>
<path d="M72.433 61.7148H70.2701V63.8338H72.433V61.7148Z" fill="black"/>
<path d="M72.433 59.5742H70.2701V61.7145H72.433V59.5742Z" fill="black"/>
<path d="M72.433 57.4556H70.2701V59.5746H72.433V57.4556Z" fill="black"/>
<path d="M72.433 55.3154H70.2701V57.4557H72.433V55.3154Z" fill="black"/>
<path d="M72.433 53.1963H70.2701V55.3153H72.433V53.1963Z" fill="black"/>
<path d="M72.433 51.0559H70.2701V53.1962H72.433V51.0559Z" fill="black"/>
<path d="M72.433 48.9368H70.2701V51.0558H72.433V48.9368Z" fill="black"/>
<path d="M72.433 46.7966H70.2701V48.9369H72.433V46.7966Z" fill="black"/>
<path d="M72.433 21.217H70.2701V23.3573H72.433V21.217Z" fill="#F20000"/>
<path d="M72.433 19.1011H70.2701V21.2201H72.433V19.1011Z" fill="#F20000"/>
<path d="M70.27 87.2944H68.1256V89.4134H70.27V87.2944Z" fill="black"/>
<path d="M70.27 85.1543H68.1256V87.2945H70.27V85.1543Z" fill="#3C4360"/>
<path d="M70.27 83.0352H68.1256V85.1542H70.27V83.0352Z" fill="#3C4360"/>
<path d="M70.27 80.8948H68.1256V83.035H70.27V80.8948Z" fill="#3C4360"/>
<path d="M70.27 78.7546H68.1256V80.8919H70.27V78.7546Z" fill="black"/>
<path d="M70.27 76.6326H68.1256V78.7546H70.27V76.6326Z" fill="#3C4360"/>
<path d="M70.27 74.4956H68.1256V76.6328H70.27V74.4956Z" fill="black"/>
<path d="M70.27 72.3767H68.1256V74.4957H70.27V72.3767Z" fill="black"/>
<path d="M70.27 70.2334H68.1256V72.3736H70.27V70.2334Z" fill="black"/>
<path d="M70.27 68.1172H68.1256V70.2362H70.27V68.1172Z" fill="black"/>
<path d="M70.27 65.9739H68.1256V68.1141H70.27V65.9739Z" fill="black"/>
<path d="M70.27 63.8367H68.1256V65.9739H70.27V63.8367Z" fill="#F49364"/>
<path d="M70.27 61.7148H68.1256V63.8338H70.27V61.7148Z" fill="#AD17AD"/>
<path d="M70.27 59.5742H68.1256V61.7145H70.27V59.5742Z" fill="#AD17AD"/>
<path d="M70.27 57.4556H68.1256V59.5746H70.27V57.4556Z" fill="#AD17AD"/>
<path d="M70.27 55.3154H68.1256V57.4557H70.27V55.3154Z" fill="#AD17AD"/>
<path d="M70.27 53.1963H68.1256V55.3153H70.27V53.1963Z" fill="#AD17AD"/>
<path d="M70.27 51.0559H68.1256V53.1962H70.27V51.0559Z" fill="#AD17AD"/>
<path d="M70.27 48.9368H68.1256V51.0558H70.27V48.9368Z" fill="#AD17AD"/>
<path d="M70.27 46.7966H68.1256V48.9369H70.27V46.7966Z" fill="#8A0391"/>
<path d="M70.27 44.6562H68.1256V46.7965H70.27V44.6562Z" fill="black"/>
<path d="M70.27 27.6196H68.1256V29.7386H70.27V27.6196Z" fill="black"/>
<path d="M70.27 25.4792H68.1256V27.6195H70.27V25.4792Z" fill="black"/>
<path d="M70.27 23.3601H68.1256V25.4791H70.27V23.3601Z" fill="#F20000"/>
<path d="M70.27 21.217H68.1256V23.3573H70.27V21.217Z" fill="#F20000"/>
<path d="M70.27 19.1011H68.1256V21.2201H70.27V19.1011Z" fill="#F20000"/>
<path d="M68.1227 87.2944H65.9568V89.4134H68.1227V87.2944Z" fill="black"/>
<path d="M68.1227 85.1543H65.9568V87.2945H68.1227V85.1543Z" fill="#3C4360"/>
<path d="M68.1227 83.0352H65.9568V85.1542H68.1227V83.0352Z" fill="#3C4360"/>
<path d="M68.1227 80.8948H65.9568V83.035H68.1227V80.8948Z" fill="#3C4360"/>
<path d="M68.1227 78.7546H65.9568V80.8919H68.1227V78.7546Z" fill="black"/>
<path d="M68.1227 76.6326H65.9568V78.7546H68.1227V76.6326Z" fill="#3C4360"/>
<path d="M68.1227 74.4956H65.9568V76.6328H68.1227V74.4956Z" fill="#8A0391"/>
<path d="M68.1227 72.3767H65.9568V74.4957H68.1227V72.3767Z" fill="#8A0391"/>
<path d="M68.1227 70.2334H65.9568V72.3736H68.1227V70.2334Z" fill="#8A0391"/>
<path d="M68.1227 68.1172H65.9568V70.2362H68.1227V68.1172Z" fill="#8A0391"/>
<path d="M68.1227 65.9739H65.9568V68.1141H68.1227V65.9739Z" fill="black"/>
<path d="M68.1227 63.8367H65.9568V65.9739H68.1227V63.8367Z" fill="#F49364"/>
<path d="M68.1227 61.7148H65.9568V63.8338H68.1227V61.7148Z" fill="#AD17AD"/>
<path d="M68.1227 59.5742H65.9568V61.7145H68.1227V59.5742Z" fill="#AD17AD"/>
<path d="M68.1227 57.4556H65.9568V59.5746H68.1227V57.4556Z" fill="#AD17AD"/>
<path d="M68.1227 55.3154H65.9568V57.4557H68.1227V55.3154Z" fill="#AD17AD"/>
<path d="M68.1227 53.1963H65.9568V55.3153H68.1227V53.1963Z" fill="#AD17AD"/>
<path d="M68.1227 51.0559H65.9568V53.1962H68.1227V51.0559Z" fill="#AD17AD"/>
<path d="M68.1227 48.9368H65.9568V51.0558H68.1227V48.9368Z" fill="#AD17AD"/>
<path d="M68.1227 46.7966H65.9568V48.9369H68.1227V46.7966Z" fill="#AD17AD"/>
<path d="M68.1227 44.6562H65.9568V46.7965H68.1227V44.6562Z" fill="#500256"/>
<path d="M68.1227 42.5376H65.9568V44.6566H68.1227V42.5376Z" fill="black"/>
<path d="M68.1227 38.2783H65.9568V40.3973H68.1227V38.2783Z" fill="black"/>
<path d="M68.1227 36.1379H65.9568V38.2782H68.1227V36.1379Z" fill="black"/>
<path d="M68.1227 34.019H65.9568V36.138H68.1227V34.019Z" fill="black"/>
<path d="M68.1227 31.8787H65.9568V34.0189H68.1227V31.8787Z" fill="black"/>
<path d="M68.1227 29.7385H65.9568V31.8788H68.1227V29.7385Z" fill="black"/>
<path d="M68.1227 27.6196H65.9568V29.7386H68.1227V27.6196Z" fill="#8A0391"/>
<path d="M68.1227 25.4792H65.9568V27.6195H68.1227V25.4792Z" fill="#F20000"/>
<path d="M68.1227 23.3601H65.9568V25.4791H68.1227V23.3601Z" fill="#F20000"/>
<path d="M68.1227 21.217H65.9568V23.3573H68.1227V21.217Z" fill="#F20000"/>
<path d="M65.9568 87.2944H63.8124V89.4134H65.9568V87.2944Z" fill="black"/>
<path d="M65.9568 85.1543H63.8124V87.2945H65.9568V85.1543Z" fill="#3C4360"/>
<path d="M65.9568 83.0352H63.8124V85.1542H65.9568V83.0352Z" fill="black"/>
<path d="M65.9568 80.8948H63.8124V83.035H65.9568V80.8948Z" fill="black"/>
<path d="M65.9568 78.7546H63.8124V80.8919H65.9568V78.7546Z" fill="black"/>
<path d="M65.9568 76.6326H63.8124V78.7546H65.9568V76.6326Z" fill="#3C4360"/>
<path d="M65.9568 74.4956H63.8124V76.6328H65.9568V74.4956Z" fill="#8A0391"/>
<path d="M65.9568 72.3767H63.8124V74.4957H65.9568V72.3767Z" fill="#8A0391"/>
<path d="M65.9568 70.2334H63.8124V72.3736H65.9568V70.2334Z" fill="#AD17AD"/>
<path d="M65.9568 68.1172H63.8124V70.2362H65.9568V68.1172Z" fill="#AD17AD"/>
<path d="M65.9568 65.9739H63.8124V68.1141H65.9568V65.9739Z" fill="#AD17AD"/>
<path d="M65.9568 63.8367H63.8124V65.9739H65.9568V63.8367Z" fill="#B8602D"/>
<path d="M65.9568 61.7148H63.8124V63.8338H65.9568V61.7148Z" fill="#AD17AD"/>
<path d="M65.9568 59.5742H63.8124V61.7145H65.9568V59.5742Z" fill="#AD17AD"/>
<path d="M65.9568 57.4556H63.8124V59.5746H65.9568V57.4556Z" fill="#AD17AD"/>
<path d="M65.9568 55.3154H63.8124V57.4557H65.9568V55.3154Z" fill="#AD17AD"/>
<path d="M65.9568 53.1963H63.8124V55.3153H65.9568V53.1963Z" fill="#AD17AD"/>
<path d="M65.9568 51.0559H63.8124V53.1962H65.9568V51.0559Z" fill="#AD17AD"/>
<path d="M65.9568 48.9368H63.8124V51.0558H65.9568V48.9368Z" fill="#AD17AD"/>
<path d="M65.9568 46.7966H63.8124V48.9369H65.9568V46.7966Z" fill="#500256"/>
<path d="M65.9568 44.6562H63.8124V46.7965H65.9568V44.6562Z" fill="#63036D"/>
<path d="M65.9568 42.5376H63.8124V44.6566H65.9568V42.5376Z" fill="black"/>
<path d="M65.9568 40.3972H63.8124V42.5375H65.9568V40.3972Z" fill="black"/>
<path d="M65.9568 38.2783H63.8124V40.3973H65.9568V38.2783Z" fill="#873810"/>
<path d="M65.9568 36.1379H63.8124V38.2782H65.9568V36.1379Z" fill="#873810"/>
<path d="M65.9568 34.019H63.8124V36.138H65.9568V34.019Z" fill="#873810"/>
<path d="M65.9568 31.8787H63.8124V34.0189H65.9568V31.8787Z" fill="black"/>
<path d="M65.9568 29.7385H63.8124V31.8788H65.9568V29.7385Z" fill="#AD17AD"/>
<path d="M65.9568 27.6196H63.8124V29.7386H65.9568V27.6196Z" fill="#AD17AD"/>
<path d="M65.9568 25.4792H63.8124V27.6195H65.9568V25.4792Z" fill="#F20000"/>
<path d="M65.9568 23.3601H63.8124V25.4791H65.9568V23.3601Z" fill="#F20000"/>
<path d="M65.9568 21.217H63.8124V23.3573H65.9568V21.217Z" fill="black"/>
<path d="M63.8123 87.2944H61.6464V89.4134H63.8123V87.2944Z" fill="black"/>
<path d="M63.8123 85.1543H61.6464V87.2945H63.8123V85.1543Z" fill="black"/>
<path d="M63.8123 76.6326H61.6464V78.7546H63.8123V76.6326Z" fill="black"/>
<path d="M63.8123 74.4956H61.6464V76.6328H63.8123V74.4956Z" fill="#8A0391"/>
<path d="M63.8123 72.3767H61.6464V74.4957H63.8123V72.3767Z" fill="#8A0391"/>
<path d="M63.8123 70.2334H61.6464V72.3736H63.8123V70.2334Z" fill="#AD17AD"/>
<path d="M63.8123 68.1172H61.6464V70.2362H63.8123V68.1172Z" fill="#AD17AD"/>
<path d="M63.8123 65.9739H61.6464V68.1141H63.8123V65.9739Z" fill="#AD17AD"/>
<path d="M63.8123 63.8367H61.6464V65.9739H63.8123V63.8367Z" fill="#AD17AD"/>
<path d="M63.8123 61.7148H61.6464V63.8338H63.8123V61.7148Z" fill="#AD17AD"/>
<path d="M63.8123 59.5742H61.6464V61.7145H63.8123V59.5742Z" fill="#500256"/>
<path d="M63.8123 57.4556H61.6464V59.5746H63.8123V57.4556Z" fill="#500256"/>
<path d="M63.8123 55.3154H61.6464V57.4557H63.8123V55.3154Z" fill="#500256"/>
<path d="M63.8123 53.1963H61.6464V55.3153H63.8123V53.1963Z" fill="#500256"/>
<path d="M63.8123 51.0559H61.6464V53.1962H63.8123V51.0559Z" fill="#500256"/>
<path d="M63.8123 48.9368H61.6464V51.0558H63.8123V48.9368Z" fill="#500256"/>
<path d="M63.8123 46.7966H61.6464V48.9369H63.8123V46.7966Z" fill="#63036D"/>
<path d="M63.8123 44.6562H61.6464V46.7965H63.8123V44.6562Z" fill="#63036D"/>
<path d="M63.8123 42.5376H61.6464V44.6566H63.8123V42.5376Z" fill="black"/>
<path d="M63.8123 40.3972H61.6464V42.5375H63.8123V40.3972Z" fill="#873810"/>
<path d="M63.8123 38.2783H61.6464V40.3973H63.8123V38.2783Z" fill="#F49364"/>
<path d="M63.8123 36.1379H61.6464V38.2782H63.8123V36.1379Z" fill="#F49364"/>
<path d="M63.8123 34.019H61.6464V36.138H63.8123V34.019Z" fill="#873810"/>
<path d="M63.8123 31.8787H61.6464V34.0189H63.8123V31.8787Z" fill="black"/>
<path d="M63.8123 29.7385H61.6464V31.8788H63.8123V29.7385Z" fill="#AD17AD"/>
<path d="M63.8123 27.6196H61.6464V29.7386H63.8123V27.6196Z" fill="#AD17AD"/>
<path d="M63.8123 25.4792H61.6464V27.6195H63.8123V25.4792Z" fill="#8A0391"/>
<path d="M63.8123 23.3601H61.6464V25.4791H63.8123V23.3601Z" fill="#AD17AD"/>
<path d="M63.8123 21.217H61.6464V23.3573H63.8123V21.217Z" fill="#AD17AD"/>
<path d="M63.8123 19.1011H61.6464V21.2201H63.8123V19.1011Z" fill="black"/>
<path d="M61.6464 74.4956H59.502V76.6328H61.6464V74.4956Z" fill="#570459"/>
<path d="M61.6464 72.3767H59.502V74.4957H61.6464V72.3767Z" fill="#8A0391"/>
<path d="M61.6464 70.2334H59.502V72.3736H61.6464V70.2334Z" fill="#AD17AD"/>
<path d="M61.6464 68.1172H59.502V70.2362H61.6464V68.1172Z" fill="#AD17AD"/>
<path d="M61.6464 65.9739H59.502V68.1141H61.6464V65.9739Z" fill="#AD17AD"/>
<path d="M61.6464 63.8367H59.502V65.9739H61.6464V63.8367Z" fill="#AD17AD"/>
<path d="M61.6464 61.7148H59.502V63.8338H61.6464V61.7148Z" fill="#AD17AD"/>
<path d="M61.6464 59.5742H59.502V61.7145H61.6464V59.5742Z" fill="#500256"/>
<path d="M61.6464 57.4556H59.502V59.5746H61.6464V57.4556Z" fill="#63036D"/>
<path d="M61.6464 55.3154H59.502V57.4557H61.6464V55.3154Z" fill="#500256"/>
<path d="M61.6464 53.1963H59.502V55.3153H61.6464V53.1963Z" fill="#63036D"/>
<path d="M61.6464 51.0559H59.502V53.1962H61.6464V51.0559Z" fill="#63036D"/>
<path d="M61.6464 48.9368H59.502V51.0558H61.6464V48.9368Z" fill="#63036D"/>
<path d="M61.6464 46.7966H59.502V48.9369H61.6464V46.7966Z" fill="#63036D"/>
<path d="M61.6464 44.6562H59.502V46.7965H61.6464V44.6562Z" fill="black"/>
<path d="M61.6464 42.5376H59.502V44.6566H61.6464V42.5376Z" fill="#873810"/>
<path d="M61.6464 40.3972H59.502V42.5375H61.6464V40.3972Z" fill="#F49364"/>
<path d="M61.6464 38.2783H59.502V40.3973H61.6464V38.2783Z" fill="#FFEFD3"/>
<path d="M61.6464 36.1379H59.502V38.2782H61.6464V36.1379Z" fill="#FFEFD3"/>
<path d="M61.6464 34.019H59.502V36.138H61.6464V34.019Z" fill="#F49364"/>
<path d="M61.6464 31.8787H59.502V34.0189H61.6464V31.8787Z" fill="black"/>
<path d="M61.6464 29.7385H59.502V31.8788H61.6464V29.7385Z" fill="#AD17AD"/>
<path d="M61.6464 27.6196H59.502V29.7386H61.6464V27.6196Z" fill="#AD17AD"/>
<path d="M61.6464 25.4792H59.502V27.6195H61.6464V25.4792Z" fill="#AD17AD"/>
<path d="M61.6464 23.3601H59.502V25.4791H61.6464V23.3601Z" fill="#AD17AD"/>
<path d="M61.6464 21.217H59.502V23.3573H61.6464V21.217Z" fill="#AD17AD"/>
<path d="M61.6464 19.1011H59.502V21.2201H61.6464V19.1011Z" fill="black"/>
<path d="M59.502 87.2944H57.3361V89.4134H59.502V87.2944Z" fill="black"/>
<path d="M59.502 85.1543H57.3361V87.2945H59.502V85.1543Z" fill="black"/>
<path d="M59.502 83.0352H57.3361V85.1542H59.502V83.0352Z" fill="black"/>
<path d="M59.502 80.8948H57.3361V83.035H59.502V80.8948Z" fill="black"/>
<path d="M59.502 78.7546H57.3361V80.8919H59.502V78.7546Z" fill="black"/>
<path d="M59.502 76.6326H57.3361V78.7546H59.502V76.6326Z" fill="black"/>
<path d="M59.502 74.4956H57.3361V76.6328H59.502V74.4956Z" fill="black"/>
<path d="M59.502 72.3767H57.3361V74.4957H59.502V72.3767Z" fill="#570459"/>
<path d="M59.502 70.2334H57.3361V72.3736H59.502V70.2334Z" fill="#8A0391"/>
<path d="M59.502 68.1172H57.3361V70.2362H59.502V68.1172Z" fill="#AD17AD"/>
<path d="M59.502 65.9739H57.3361V68.1141H59.502V65.9739Z" fill="#AD17AD"/>
<path d="M59.502 63.8367H57.3361V65.9739H59.502V63.8367Z" fill="#AD17AD"/>
<path d="M59.502 61.7148H57.3361V63.8338H59.502V61.7148Z" fill="#AD17AD"/>
<path d="M59.502 59.5742H57.3361V61.7145H59.502V59.5742Z" fill="#500256"/>
<path d="M59.502 57.4556H57.3361V59.5746H59.502V57.4556Z" fill="#63036D"/>
<path d="M59.502 55.3154H57.3361V57.4557H59.502V55.3154Z" fill="#500256"/>
<path d="M59.502 53.1963H57.3361V55.3153H59.502V53.1963Z" fill="#63036D"/>
<path d="M59.502 51.0559H57.3361V53.1962H59.502V51.0559Z" fill="#63036D"/>
<path d="M59.502 48.9368H57.3361V51.0558H59.502V48.9368Z" fill="#63036D"/>
<path d="M59.502 46.7966H57.3361V48.9369H59.502V46.7966Z" fill="black"/>
<path d="M59.502 44.6562H57.3361V46.7965H59.502V44.6562Z" fill="#F49364"/>
<path d="M59.502 42.5376H57.3361V44.6566H59.502V42.5376Z" fill="#873810"/>
<path d="M59.502 40.3972H57.3361V42.5375H59.502V40.3972Z" fill="#FFEFD3"/>
<path d="M59.502 38.2783H57.3361V40.3973H59.502V38.2783Z" fill="#FFEFD3"/>
<path d="M59.502 36.1379H57.3361V38.2782H59.502V36.1379Z" fill="#FFEFD3"/>
<path d="M59.502 34.019H57.3361V36.138H59.502V34.019Z" fill="black"/>
<path d="M59.502 31.8787H57.3361V34.0189H59.502V31.8787Z" fill="#AD17AD"/>
<path d="M59.502 29.7385H57.3361V31.8788H59.502V29.7385Z" fill="#AD17AD"/>
<path d="M59.502 27.6196H57.3361V29.7386H59.502V27.6196Z" fill="#AD17AD"/>
<path d="M59.502 25.4792H57.3361V27.6195H59.502V25.4792Z" fill="#AD17AD"/>
<path d="M59.502 23.3601H57.3361V25.4791H59.502V23.3601Z" fill="#AD17AD"/>
<path d="M59.502 21.217H57.3361V23.3573H59.502V21.217Z" fill="#AD17AD"/>
<path d="M59.502 19.1011H57.3361V21.2201H59.502V19.1011Z" fill="black"/>
<path d="M57.336 87.2944H55.1915V89.4134H57.336V87.2944Z" fill="black"/>
<path d="M57.336 85.1543H55.1915V87.2945H57.336V85.1543Z" fill="#3C4360"/>
<path d="M57.336 83.0352H55.1915V85.1542H57.336V83.0352Z" fill="#3C4360"/>
<path d="M57.336 80.8948H55.1915V83.035H57.336V80.8948Z" fill="#3C4360"/>
<path d="M57.336 78.7546H55.1915V80.8919H57.336V78.7546Z" fill="black"/>
<path d="M57.336 76.6326H55.1915V78.7546H57.336V76.6326Z" fill="#3C4360"/>
<path d="M57.336 74.4956H55.1915V76.6328H57.336V74.4956Z" fill="#570459"/>
<path d="M57.336 72.3767H55.1915V74.4957H57.336V72.3767Z" fill="#8A0391"/>
<path d="M57.336 70.2334H55.1915V72.3736H57.336V70.2334Z" fill="#570459"/>
<path d="M57.336 68.1172H55.1915V70.2362H57.336V68.1172Z" fill="#8A0391"/>
<path d="M57.336 65.9739H55.1915V68.1141H57.336V65.9739Z" fill="#AD17AD"/>
<path d="M57.336 63.8367H55.1915V65.9739H57.336V63.8367Z" fill="#AD17AD"/>
<path d="M57.336 61.7148H55.1915V63.8338H57.336V61.7148Z" fill="#AD17AD"/>
<path d="M57.336 59.5742H55.1915V61.7145H57.336V59.5742Z" fill="#500256"/>
<path d="M57.336 57.4556H55.1915V59.5746H57.336V57.4556Z" fill="#500256"/>
<path d="M57.336 55.3154H55.1915V57.4557H57.336V55.3154Z" fill="#500256"/>
<path d="M57.336 53.1963H55.1915V55.3153H57.336V53.1963Z" fill="#500256"/>
<path d="M57.336 51.0559H55.1915V53.1962H57.336V51.0559Z" fill="#500256"/>
<path d="M57.336 48.9368H55.1915V51.0558H57.336V48.9368Z" fill="#500256"/>
<path d="M57.336 46.7966H55.1915V48.9369H57.336V46.7966Z" fill="black"/>
<path d="M57.336 44.6562H55.1915V46.7965H57.336V44.6562Z" fill="#F49364"/>
<path d="M57.336 42.5376H55.1915V44.6566H57.336V42.5376Z" fill="#873810"/>
<path d="M57.336 40.3972H55.1915V42.5375H57.336V40.3972Z" fill="#FFEFD3"/>
<path d="M57.336 38.2783H55.1915V40.3973H57.336V38.2783Z" fill="#FFEFD3"/>
<path d="M57.336 36.1379H55.1915V38.2782H57.336V36.1379Z" fill="#FFEFD3"/>
<path d="M57.336 34.019H55.1915V36.138H57.336V34.019Z" fill="black"/>
<path d="M57.336 31.8787H55.1915V34.0189H57.336V31.8787Z" fill="#AD17AD"/>
<path d="M57.336 29.7385H55.1915V31.8788H57.336V29.7385Z" fill="#AD17AD"/>
<path d="M57.336 27.6196H55.1915V29.7386H57.336V27.6196Z" fill="#8A0391"/>
<path d="M57.336 25.4792H55.1915V27.6195H57.336V25.4792Z" fill="#AD17AD"/>
<path d="M57.336 23.3601H55.1915V25.4791H57.336V23.3601Z" fill="#AD17AD"/>
<path d="M57.336 21.217H55.1915V23.3573H57.336V21.217Z" fill="#AD17AD"/>
<path d="M57.336 19.1011H55.1915V21.2201H57.336V19.1011Z" fill="black"/>
<path d="M55.1916 87.2944H53.0256V89.4134H55.1916V87.2944Z" fill="black"/>
<path d="M55.1916 85.1543H53.0256V87.2945H55.1916V85.1543Z" fill="#3C4360"/>
<path d="M55.1916 83.0352H53.0256V85.1542H55.1916V83.0352Z" fill="#3C4360"/>
<path d="M55.1916 80.8948H53.0256V83.035H55.1916V80.8948Z" fill="#3C4360"/>
<path d="M55.1916 78.7546H53.0256V80.8919H55.1916V78.7546Z" fill="black"/>
<path d="M55.1916 76.6326H53.0256V78.7546H55.1916V76.6326Z" fill="#3C4360"/>
<path d="M55.1916 74.4956H53.0256V76.6328H55.1916V74.4956Z" fill="#570459"/>
<path d="M55.1916 72.3767H53.0256V74.4957H55.1916V72.3767Z" fill="#8A0391"/>
<path d="M55.1916 70.2334H53.0256V72.3736H55.1916V70.2334Z" fill="#AD17AD"/>
<path d="M55.1916 68.1172H53.0256V70.2362H55.1916V68.1172Z" fill="#570459"/>
<path d="M55.1916 65.9739H53.0256V68.1141H55.1916V65.9739Z" fill="#570459"/>
<path d="M55.1916 63.8367H53.0256V65.9739H55.1916V63.8367Z" fill="#AD17AD"/>
<path d="M55.1916 61.7148H53.0256V63.8338H55.1916V61.7148Z" fill="#AD17AD"/>
<path d="M55.1916 59.5742H53.0256V61.7145H55.1916V59.5742Z" fill="#500256"/>
<path d="M55.1916 57.4556H53.0256V59.5746H55.1916V57.4556Z" fill="#500256"/>
<path d="M55.1916 55.3154H53.0256V57.4557H55.1916V55.3154Z" fill="#500256"/>
<path d="M55.1916 53.1963H53.0256V55.3153H55.1916V53.1963Z" fill="#500256"/>
<path d="M55.1916 51.0559H53.0256V53.1962H55.1916V51.0559Z" fill="#500256"/>
<path d="M55.1916 48.9368H53.0256V51.0558H55.1916V48.9368Z" fill="#500256"/>
<path d="M55.1916 46.7966H53.0256V48.9369H55.1916V46.7966Z" fill="black"/>
<path d="M55.1916 44.6562H53.0256V46.7965H55.1916V44.6562Z" fill="#500256"/>
<path d="M55.1916 42.5376H53.0256V44.6566H55.1916V42.5376Z" fill="black"/>
<path d="M55.1916 40.3972H53.0256V42.5375H55.1916V40.3972Z" fill="#FFEFD3"/>
<path d="M55.1916 38.2783H53.0256V40.3973H55.1916V38.2783Z" fill="#FFEFD3"/>
<path d="M55.1916 36.1379H53.0256V38.2782H55.1916V36.1379Z" fill="#FFEFD3"/>
<path d="M55.1916 34.019H53.0256V36.138H55.1916V34.019Z" fill="black"/>
<path d="M55.1916 31.8787H53.0256V34.0189H55.1916V31.8787Z" fill="#AD17AD"/>
<path d="M55.1916 29.7385H53.0256V31.8788H55.1916V29.7385Z" fill="#AD17AD"/>
<path d="M55.1916 27.6196H53.0256V29.7386H55.1916V27.6196Z" fill="#8A0391"/>
<path d="M55.1916 25.4792H53.0256V27.6195H55.1916V25.4792Z" fill="#AD17AD"/>
<path d="M55.1916 23.3601H53.0256V25.4791H55.1916V23.3601Z" fill="#AD17AD"/>
<path d="M55.1916 21.217H53.0256V23.3573H55.1916V21.217Z" fill="black"/>
<path d="M53.0256 87.2944H50.8596V89.4134H53.0256V87.2944Z" fill="black"/>
<path d="M53.0256 85.1543H50.8596V87.2945H53.0256V85.1543Z" fill="#3C4360"/>
<path d="M53.0256 83.0352H50.8596V85.1542H53.0256V83.0352Z" fill="black"/>
<path d="M53.0256 80.8948H50.8596V83.035H53.0256V80.8948Z" fill="black"/>
<path d="M53.0256 78.7546H50.8596V80.8919H53.0256V78.7546Z" fill="black"/>
<path d="M53.0256 76.6326H50.8596V78.7546H53.0256V76.6326Z" fill="#3C4360"/>
<path d="M53.0256 74.4956H50.8596V76.6328H53.0256V74.4956Z" fill="#570459"/>
<path d="M53.0256 72.3767H50.8596V74.4957H53.0256V72.3767Z" fill="#8A0391"/>
<path d="M53.0256 70.2334H50.8596V72.3736H53.0256V70.2334Z" fill="#AD17AD"/>
<path d="M53.0256 68.1172H50.8596V70.2362H53.0256V68.1172Z" fill="#AD17AD"/>
<path d="M53.0256 65.9739H50.8596V68.1141H53.0256V65.9739Z" fill="#AD17AD"/>
<path d="M53.0256 63.8367H50.8596V65.9739H53.0256V63.8367Z" fill="#AD17AD"/>
<path d="M53.0256 61.7148H50.8596V63.8338H53.0256V61.7148Z" fill="#AD17AD"/>
<path d="M53.0256 59.5742H50.8596V61.7145H53.0256V59.5742Z" fill="#500256"/>
<path d="M53.0256 57.4556H50.8596V59.5746H53.0256V57.4556Z" fill="#500256"/>
<path d="M53.0256 55.3154H50.8596V57.4557H53.0256V55.3154Z" fill="#500256"/>
<path d="M53.0256 53.1963H50.8596V55.3153H53.0256V53.1963Z" fill="#500256"/>
<path d="M53.0256 51.0559H50.8596V53.1962H53.0256V51.0559Z" fill="#500256"/>
<path d="M53.0256 48.9368H50.8596V51.0558H53.0256V48.9368Z" fill="#500256"/>
<path d="M53.0256 46.7966H50.8596V48.9369H53.0256V46.7966Z" fill="#500256"/>
<path d="M53.0256 44.6562H50.8596V46.7965H53.0256V44.6562Z" fill="black"/>
<path d="M53.0256 42.5376H50.8596V44.6566H53.0256V42.5376Z" fill="black"/>
<path d="M53.0256 40.3972H50.8596V42.5375H53.0256V40.3972Z" fill="black"/>
<path d="M53.0256 38.2783H50.8596V40.3973H53.0256V38.2783Z" fill="black"/>
<path d="M53.0256 36.1379H50.8596V38.2782H53.0256V36.1379Z" fill="black"/>
<path d="M53.0256 34.019H50.8596V36.138H53.0256V34.019Z" fill="black"/>
<path d="M53.0256 31.8787H50.8596V34.0189H53.0256V31.8787Z" fill="#AD17AD"/>
<path d="M53.0256 29.7385H50.8596V31.8788H53.0256V29.7385Z" fill="#AD17AD"/>
<path d="M53.0256 27.6196H50.8596V29.7386H53.0256V27.6196Z" fill="#8A0391"/>
<path d="M53.0256 25.4792H50.8596V27.6195H53.0256V25.4792Z" fill="#AD17AD"/>
<path d="M53.0256 23.3601H50.8596V25.4791H53.0256V23.3601Z" fill="black"/>
<path d="M50.8598 87.2944H48.7153V89.4134H50.8598V87.2944Z" fill="black"/>
<path d="M50.8598 85.1543H48.7153V87.2945H50.8598V85.1543Z" fill="black"/>
<path d="M50.8598 76.6326H48.7153V78.7546H50.8598V76.6326Z" fill="black"/>
<path d="M50.8598 74.4956H48.7153V76.6328H50.8598V74.4956Z" fill="black"/>
<path d="M50.8598 72.3767H48.7153V74.4957H50.8598V72.3767Z" fill="#8A0391"/>
<path d="M50.8598 70.2334H48.7153V72.3736H50.8598V70.2334Z" fill="#AD17AD"/>
<path d="M50.8598 68.1172H48.7153V70.2362H50.8598V68.1172Z" fill="#AD17AD"/>
<path d="M50.8598 65.9739H48.7153V68.1141H50.8598V65.9739Z" fill="#AD17AD"/>
<path d="M50.8598 63.8367H48.7153V65.9739H50.8598V63.8367Z" fill="#AD17AD"/>
<path d="M50.8598 61.7148H48.7153V63.8338H50.8598V61.7148Z" fill="#AD17AD"/>
<path d="M50.8598 59.5742H48.7153V61.7145H50.8598V59.5742Z" fill="black"/>
<path d="M50.8598 57.4556H48.7153V59.5746H50.8598V57.4556Z" fill="black"/>
<path d="M50.8598 55.3154H48.7153V57.4557H50.8598V55.3154Z" fill="black"/>
<path d="M50.8598 53.1963H48.7153V55.3153H50.8598V53.1963Z" fill="black"/>
<path d="M50.8598 51.0559H48.7153V53.1962H50.8598V51.0559Z" fill="black"/>
<path d="M50.8598 48.9368H48.7153V51.0558H50.8598V48.9368Z" fill="black"/>
<path d="M50.8598 46.7966H48.7153V48.9369H50.8598V46.7966Z" fill="black"/>
<path d="M50.8598 44.6562H48.7153V46.7965H50.8598V44.6562Z" fill="black"/>
<path d="M50.8598 34.019H48.7153V36.138H50.8598V34.019Z" fill="black"/>
<path d="M50.8598 31.8787H48.7153V34.0189H50.8598V31.8787Z" fill="#AD17AD"/>
<path d="M50.8598 29.7385H48.7153V31.8788H50.8598V29.7385Z" fill="#AD17AD"/>
<path d="M50.8598 27.6196H48.7153V29.7386H50.8598V27.6196Z" fill="#8A0391"/>
<path d="M50.8598 25.4792H48.7153V27.6195H50.8598V25.4792Z" fill="black"/>
<path d="M48.7152 72.3767H46.5493V74.4957H48.7152V72.3767Z" fill="black"/>
<path d="M48.7152 70.2334H46.5493V72.3736H48.7152V70.2334Z" fill="black"/>
<path d="M48.7152 68.1172H46.5493V70.2362H48.7152V68.1172Z" fill="black"/>
<path d="M48.7152 65.9739H46.5493V68.1141H48.7152V65.9739Z" fill="black"/>
<path d="M48.7152 63.8367H46.5493V65.9739H48.7152V63.8367Z" fill="black"/>
<path d="M48.7152 61.7148H46.5493V63.8338H48.7152V61.7148Z" fill="black"/>
<path d="M48.7152 55.3154H46.5493V57.4557H48.7152V55.3154Z" fill="black"/>
<path d="M48.7152 53.1963H46.5493V55.3153H48.7152V53.1963Z" fill="#8A0391"/>
<path d="M48.7152 51.0559H46.5493V53.1962H48.7152V51.0559Z" fill="#8A0391"/>
<path d="M48.7152 48.9368H46.5493V51.0558H48.7152V48.9368Z" fill="#8A0391"/>
<path d="M48.7152 46.7966H46.5493V48.9369H48.7152V46.7966Z" fill="black"/>
<path d="M48.7152 34.019H46.5493V36.138H48.7152V34.019Z" fill="black"/>
<path d="M48.7152 31.8787H46.5493V34.0189H48.7152V31.8787Z" fill="#AD17AD"/>
<path d="M48.7152 29.7385H46.5493V31.8788H48.7152V29.7385Z" fill="#AD17AD"/>
<path d="M48.7152 27.6196H46.5493V29.7386H48.7152V27.6196Z" fill="black"/>
<path d="M46.5493 57.4556H44.4049V59.5746H46.5493V57.4556Z" fill="black"/>
<path d="M46.5493 55.3154H44.4049V57.4557H46.5493V55.3154Z" fill="#8A0391"/>
<path d="M46.5493 53.1963H44.4049V55.3153H46.5493V53.1963Z" fill="#8A0391"/>
<path d="M46.5493 51.0559H44.4049V53.1962H46.5493V51.0559Z" fill="#8A0391"/>
<path d="M46.5493 48.9368H44.4049V51.0558H46.5493V48.9368Z" fill="black"/>
<path d="M46.5493 31.8787H44.4049V34.0189H46.5493V31.8787Z" fill="black"/>
<path d="M46.5493 29.7385H44.4049V31.8788H46.5493V29.7385Z" fill="black"/>
<path d="M44.4049 78.7546H42.239V80.8919H44.4049V78.7546Z" fill="black"/>
<path d="M44.4049 76.6326H42.239V78.7546H44.4049V76.6326Z" fill="black"/>
<path d="M44.4049 57.4556H42.239V59.5746H44.4049V57.4556Z" fill="black"/>
<path d="M44.4049 55.3154H42.239V57.4557H44.4049V55.3154Z" fill="#8A0391"/>
<path d="M44.4049 53.1963H42.239V55.3153H44.4049V53.1963Z" fill="#8A0391"/>
<path d="M44.4049 51.0559H42.239V53.1962H44.4049V51.0559Z" fill="black"/>
<path d="M44.4049 25.4792H42.239V27.6195H44.4049V25.4792Z" fill="black"/>
<path d="M44.4049 23.3601H42.239V25.4791H44.4049V23.3601Z" fill="black"/>
<path d="M42.2389 80.8948H40.0945V83.035H42.2389V80.8948Z" fill="black"/>
<path d="M42.2389 78.7546H40.0945V80.8919H42.2389V78.7546Z" fill="#B8602D"/>
<path d="M42.2389 76.6326H40.0945V78.7546H42.2389V76.6326Z" fill="#FFEFD3"/>
<path d="M42.2389 74.4956H40.0945V76.6328H42.2389V74.4956Z" fill="#FFEFD3"/>
<path d="M42.2389 72.3767H40.0945V74.4957H42.2389V72.3767Z" fill="#FFEFD3"/>
<path d="M42.2389 70.2334H40.0945V72.3736H42.2389V70.2334Z" fill="#FFEFD3"/>
<path d="M42.2389 68.1172H40.0945V70.2362H42.2389V68.1172Z" fill="#FFEFD3"/>
<path d="M42.2389 65.9739H40.0945V68.1141H42.2389V65.9739Z" fill="#FFEFD3"/>
<path d="M42.2389 63.8367H40.0945V65.9739H42.2389V63.8367Z" fill="#FFEFD3"/>
<path d="M42.2389 61.7148H40.0945V63.8338H42.2389V61.7148Z" fill="#FFEFD3"/>
<path d="M42.2389 59.5742H40.0945V61.7145H42.2389V59.5742Z" fill="#FFEFD3"/>
<path d="M42.2389 57.4556H40.0945V59.5746H42.2389V57.4556Z" fill="#FFEFD3"/>
<path d="M42.2389 55.3154H40.0945V57.4557H42.2389V55.3154Z" fill="#FFEFD3"/>
<path d="M42.2389 53.1963H40.0945V55.3153H42.2389V53.1963Z" fill="#FFEFD3"/>
<path d="M42.2389 51.0559H40.0945V53.1962H42.2389V51.0559Z" fill="#FFEFD3"/>
<path d="M42.2389 48.9368H40.0945V51.0558H42.2389V48.9368Z" fill="#FFEFD3"/>
<path d="M42.2389 46.7966H40.0945V48.9369H42.2389V46.7966Z" fill="#FFEFD3"/>
<path d="M42.2389 44.6562H40.0945V46.7965H42.2389V44.6562Z" fill="#FFEFD3"/>
<path d="M42.2389 42.5376H40.0945V44.6566H42.2389V42.5376Z" fill="#FFEFD3"/>
<path d="M42.2389 40.3972H40.0945V42.5375H42.2389V40.3972Z" fill="#FFEFD3"/>
<path d="M42.2389 38.2783H40.0945V40.3973H42.2389V38.2783Z" fill="#FFEFD3"/>
<path d="M42.2389 36.1379H40.0945V38.2782H42.2389V36.1379Z" fill="#FFEFD3"/>
<path d="M42.2389 34.019H40.0945V36.138H42.2389V34.019Z" fill="#FFEFD3"/>
<path d="M42.2389 31.8787H40.0945V34.0189H42.2389V31.8787Z" fill="#FFEFD3"/>
<path d="M42.2389 29.7385H40.0945V31.8788H42.2389V29.7385Z" fill="#FFEFD3"/>
<path d="M42.2389 27.6196H40.0945V29.7386H42.2389V27.6196Z" fill="#FFEFD3"/>
<path d="M42.2389 25.4792H40.0945V27.6195H42.2389V25.4792Z" fill="#FFEFD3"/>
<path d="M42.2389 23.3601H40.0945V25.4791H42.2389V23.3601Z" fill="#B8602D"/>
<path d="M42.2389 21.217H40.0945V23.3573H42.2389V21.217Z" fill="black"/>
<path d="M40.0945 78.7546H37.9286V80.8919H40.0945V78.7546Z" fill="black"/>
<path d="M40.0945 76.6326H37.9286V78.7546H40.0945V76.6326Z" fill="black"/>
<path d="M40.0945 74.4956H37.9286V76.6328H40.0945V74.4956Z" fill="#B8602D"/>
<path d="M40.0945 72.3767H37.9286V74.4957H40.0945V72.3767Z" fill="#B8602D"/>
<path d="M40.0945 70.2334H37.9286V72.3736H40.0945V70.2334Z" fill="black"/>
<path d="M40.0945 57.4556H37.9286V59.5746H40.0945V57.4556Z" fill="black"/>
<path d="M40.0945 55.3154H37.9286V57.4557H40.0945V55.3154Z" fill="#8A0391"/>
<path d="M40.0945 53.1963H37.9286V55.3153H40.0945V53.1963Z" fill="#8A0391"/>
<path d="M40.0945 51.0559H37.9286V53.1962H40.0945V51.0559Z" fill="black"/>
<path d="M40.0945 31.8787H37.9286V34.0189H40.0945V31.8787Z" fill="black"/>
<path d="M40.0945 29.7385H37.9286V31.8788H40.0945V29.7385Z" fill="#B8602D"/>
<path d="M40.0945 27.6196H37.9286V29.7386H40.0945V27.6196Z" fill="#B8602D"/>
<path d="M40.0945 25.4792H37.9286V27.6195H40.0945V25.4792Z" fill="black"/>
<path d="M40.0945 23.3601H37.9286V25.4791H40.0945V23.3601Z" fill="black"/>
<path d="M37.9286 74.4956H35.7627V76.6328H37.9286V74.4956Z" fill="black"/>
<path d="M37.9286 72.3767H35.7627V74.4957H37.9286V72.3767Z" fill="#B8602D"/>
<path d="M37.9286 70.2334H35.7627V72.3736H37.9286V70.2334Z" fill="#B8602D"/>
<path d="M37.9286 68.1172H35.7627V70.2362H37.9286V68.1172Z" fill="black"/>
<path d="M37.9286 57.4556H35.7627V59.5746H37.9286V57.4556Z" fill="black"/>
<path d="M37.9286 55.3154H35.7627V57.4557H37.9286V55.3154Z" fill="#873810"/>
<path d="M37.9286 53.1963H35.7627V55.3153H37.9286V53.1963Z" fill="black"/>
<path d="M37.9286 51.0559H35.7627V53.1962H37.9286V51.0559Z" fill="#873810"/>
<path d="M37.9286 34.019H35.7627V36.138H37.9286V34.019Z" fill="black"/>
<path d="M37.9286 31.8787H35.7627V34.0189H37.9286V31.8787Z" fill="#B8602D"/>
<path d="M37.9286 29.7385H35.7627V31.8788H37.9286V29.7385Z" fill="#B8602D"/>
<path d="M37.9286 27.6196H35.7627V29.7386H37.9286V27.6196Z" fill="black"/>
<path d="M35.7627 72.3767H33.6183V74.4957H35.7627V72.3767Z" fill="black"/>
<path d="M35.7627 70.2334H33.6183V72.3736H35.7627V70.2334Z" fill="#B8602D"/>
<path d="M35.7627 68.1172H33.6183V70.2362H35.7627V68.1172Z" fill="#B8602D"/>
<path d="M35.7627 65.9739H33.6183V68.1141H35.7627V65.9739Z" fill="black"/>
<path d="M35.7627 63.8367H33.6183V65.9739H35.7627V63.8367Z" fill="black"/>
<path d="M35.7627 57.4556H33.6183V59.5746H35.7627V57.4556Z" fill="black"/>
<path d="M35.7627 55.3154H33.6183V57.4557H35.7627V55.3154Z" fill="#873810"/>
<path d="M35.7627 53.1963H33.6183V55.3153H35.7627V53.1963Z" fill="#F49364"/>
<path d="M35.7627 51.0559H33.6183V53.1962H35.7627V51.0559Z" fill="black"/>
<path d="M35.7627 38.2783H33.6183V40.3973H35.7627V38.2783Z" fill="black"/>
<path d="M35.7627 36.1379H33.6183V38.2782H35.7627V36.1379Z" fill="black"/>
<path d="M35.7627 34.019H33.6183V36.138H35.7627V34.019Z" fill="#B8602D"/>
<path d="M35.7627 31.8787H33.6183V34.0189H35.7627V31.8787Z" fill="#B8602D"/>
<path d="M35.7627 29.7385H33.6183V31.8788H35.7627V29.7385Z" fill="black"/>
<path d="M33.6182 70.2334H31.4523V72.3736H33.6182V70.2334Z" fill="black"/>
<path d="M33.6182 68.1172H31.4523V70.2362H33.6182V68.1172Z" fill="#B8602D"/>
<path d="M33.6182 65.9739H31.4523V68.1141H33.6182V65.9739Z" fill="#B8602D"/>
<path d="M33.6182 63.8367H31.4523V65.9739H33.6182V63.8367Z" fill="#B8602D"/>
<path d="M33.6182 61.7148H31.4523V63.8338H33.6182V61.7148Z" fill="black"/>
<path d="M33.6182 59.5742H31.4523V61.7145H33.6182V59.5742Z" fill="black"/>
<path d="M33.6182 57.4556H31.4523V59.5746H33.6182V57.4556Z" fill="black"/>
<path d="M33.6182 55.3154H31.4523V57.4557H33.6182V55.3154Z" fill="black"/>
<path d="M33.6182 53.1963H31.4523V55.3153H33.6182V53.1963Z" fill="#873810"/>
<path d="M33.6182 51.0559H31.4523V53.1962H33.6182V51.0559Z" fill="#F49364"/>
<path d="M33.6182 48.9368H31.4523V51.0558H33.6182V48.9368Z" fill="black"/>
<path d="M33.6182 46.7966H31.4523V48.9369H33.6182V46.7966Z" fill="black"/>
<path d="M33.6182 44.6562H31.4523V46.7965H33.6182V44.6562Z" fill="black"/>
<path d="M33.6182 42.5376H31.4523V44.6566H33.6182V42.5376Z" fill="black"/>
<path d="M33.6182 40.3972H31.4523V42.5375H33.6182V40.3972Z" fill="black"/>
<path d="M33.6182 38.2783H31.4523V40.3973H33.6182V38.2783Z" fill="#B8602D"/>
<path d="M33.6182 36.1379H31.4523V38.2782H33.6182V36.1379Z" fill="#B8602D"/>
<path d="M33.6182 34.019H31.4523V36.138H33.6182V34.019Z" fill="#B8602D"/>
<path d="M33.6182 31.8787H31.4523V34.0189H33.6182V31.8787Z" fill="black"/>
<path d="M31.4523 68.1172H29.3079V70.2362H31.4523V68.1172Z" fill="black"/>
<path d="M31.4523 65.9739H29.3079V68.1141H31.4523V65.9739Z" fill="black"/>
<path d="M31.4523 63.8367H29.3079V65.9739H31.4523V63.8367Z" fill="#B8602D"/>
<path d="M31.4523 61.7148H29.3079V63.8338H31.4523V61.7148Z" fill="#B8602D"/>
<path d="M31.4523 59.5742H29.3079V61.7145H31.4523V59.5742Z" fill="#B8602D"/>
<path d="M31.4523 57.4556H29.3079V59.5746H31.4523V57.4556Z" fill="#B8602D"/>
<path d="M31.4523 55.3154H29.3079V57.4557H31.4523V55.3154Z" fill="#B8602D"/>
<path d="M31.4523 53.1963H29.3079V55.3153H31.4523V53.1963Z" fill="#873810"/>
<path d="M31.4523 51.0559H29.3079V53.1962H31.4523V51.0559Z" fill="#873810"/>
<path d="M31.4523 48.9368H29.3079V51.0558H31.4523V48.9368Z" fill="#B8602D"/>
<path d="M31.4523 46.7966H29.3079V48.9369H31.4523V46.7966Z" fill="#B8602D"/>
<path d="M31.4523 44.6562H29.3079V46.7965H31.4523V44.6562Z" fill="#B8602D"/>
<path d="M31.4523 42.5376H29.3079V44.6566H31.4523V42.5376Z" fill="#B8602D"/>
<path d="M31.4523 40.3972H29.3079V42.5375H31.4523V40.3972Z" fill="#B8602D"/>
<path d="M31.4523 38.2783H29.3079V40.3973H31.4523V38.2783Z" fill="#B8602D"/>
<path d="M31.4523 36.1379H29.3079V38.2782H31.4523V36.1379Z" fill="black"/>
<path d="M31.4523 34.019H29.3079V36.138H31.4523V34.019Z" fill="black"/>
<path d="M29.3079 63.8367H27.142V65.9739H29.3079V63.8367Z" fill="black"/>
<path d="M29.3079 61.7148H27.142V63.8338H29.3079V61.7148Z" fill="black"/>
<path d="M29.3079 59.5742H27.142V61.7145H29.3079V59.5742Z" fill="black"/>
<path d="M29.3079 57.4556H27.142V59.5746H29.3079V57.4556Z" fill="black"/>
<path d="M29.3079 55.3154H27.142V57.4557H29.3079V55.3154Z" fill="#F49364"/>
<path d="M29.3079 53.1963H27.142V55.3153H29.3079V53.1963Z" fill="#F49364"/>
<path d="M29.3079 51.0559H27.142V53.1962H29.3079V51.0559Z" fill="#F49364"/>
<path d="M29.3079 48.9368H27.142V51.0558H29.3079V48.9368Z" fill="black"/>
<path d="M29.3079 46.7966H27.142V48.9369H29.3079V46.7966Z" fill="black"/>
<path d="M29.3079 44.6562H27.142V46.7965H29.3079V44.6562Z" fill="black"/>
<path d="M29.3079 42.5376H27.142V44.6566H29.3079V42.5376Z" fill="black"/>
<path d="M29.3079 40.3972H27.142V42.5375H29.3079V40.3972Z" fill="black"/>
<path d="M29.3079 38.2783H27.142V40.3973H29.3079V38.2783Z" fill="black"/>
<path d="M27.142 55.3154H24.9976V57.4557H27.142V55.3154Z" fill="black"/>
<path d="M27.142 53.1963H24.9976V55.3153H27.142V53.1963Z" fill="black"/>
<path d="M27.142 51.0559H24.9976V53.1962H27.142V51.0559Z" fill="black"/>
</svg>
