<?xml version="1.0" encoding="UTF-8"?>
<svg id="Layer_1" xmlns="http://www.w3.org/2000/svg" version="1.1" viewBox="0 0 1280 886">
  <!-- Generator: Adobe Illustrator 29.8.2, SVG Export Plug-In . SVG Version: 2.1.1 Build 3)  -->
  <defs>
    <style>
      .st0 {
        fill: #d5cecd;
      }
    </style>
  </defs>
  <path class="st0" d="M1216.651,592.05c-3.471-7.377-12.583,2.17-15.193,2.17h-135.885v-13.017l30.377-2.17c-7.812-3.038-23.866-22.13-28.637-23.432-7.812-1.735-14.323,10.414-23.435,7.811l19.094-16.923c5.202-1.301,3.471-5.64.87-9.112-2.61-3.471-53.812-45.561-57.283-46.863-6.072-1.735-39.919-2.17-43.821,0-3.91,2.169-6.081,18.658-18.224,16.489l62.915,76.803,21.695-16.055,6.511,6.509-93.291,97.63-15.193,8.678c-8.672-8.678,64.224-72.464,68.996-85.048l-59.883-74.199c-1.3-6.074,3.471-16.489,6.942-22.13,3.471-5.64,10.852-3.037,9.982-9.546h-60.744l34.708,52.07-30.367-15.621-143.193,160.983c-9.112,13.017-19.525,23.865-17.363,41.222-10.843-5.64-8.672-19.526-15.184-30.374-13.453-21.696-58.574-60.314-78.108-82.444-19.525-22.13-17.785-28.639-26.466-38.619-16.484-19.526-38.179-38.184-53.803-59.013-21.265,4.773-9.982,29.073-30.377,39.053l188.753,188.753,10.852-13.018,8.672,26.035c0-4.773,3.04-9.546,6.511-13.017,56.843-59.013,116.287-114.987,171.829-175.302,7.381-12.583-.43-26.469,27.336-22.563,24.735,3.037,10.852,19.96,12.153,26.469,1.3,6.509,27.336,15.187,23.426,24.299-3.901,9.112-32.538-21.262-41.22-17.356l13.023-21.696-16.493.867c-1.3,6.509-2.17,11.716-6.942,16.923-49.471,58.145-145.794,132.344-184.852,188.319-7.372,10.414-7.803,16.923-10.843,28.205l-10.412-28.638-187.023-190.923c-17.785-8.245-39.48,31.241-60.744,28.204,9.542-12.584,27.767-28.639,40.789-37.751,13.013-9.113,10.843-.868,11.283-1.302,1.3-1.301-6.942-16.489,4.771-36.015,11.713-19.526,24.735-26.035,34.278-37.317h-88.951c-14.753,0-50.771,57.277-67.256,62.918,9.112,22.129,44.26,11.716,39.049,32.544,25.166,3.905,19.525-32.978,43.39-17.357,9.112-24.3,20.825-46.429,17.354-73.766,17.794,10.848,6.942,41.657-.861,57.711-10.422,21.262-26.036,31.242-46.87,39.92,3.04,14.753,66.825,55.108,56.413,67.257-13.013-4.772-28.637-18.658-39.049-28.205-15.623-13.885-76.807-82.877-89.821-84.179l-36.018,32.11,26.036,2.17-4.341-13.018h13.023l-1.74,22.13c-6.072,8.678-29.076,1.301-38.619,3.905-9.542,2.604,1.3,19.961-17.794,0h-198.257l34.713,37.317-6.509,10.848H63.701v-8.679h91.122l-30.374-26.035,2.169,17.357-55.975-3.472c-8.244,1.302-27.337,35.581-35.147,20.829l70.294-59.447c16.795-.195,205.186-1.594,220.823-1.735l15.193-6.509,78.538-79.84h-75.937l-.87-.867c-3.04,0-10.413,8.244-10.843-8.679,32.978-14.319,91.982,6.075,119.318-13.017,4.78-3.472,54.242-48.599,55.982-52.07,1.731-3.472-3.471-9.546,2.17-15.187,5.641-5.64,13.883-6.074,19.955-10.847,10.413-8.678,11.713-20.828,16.493-24.734,4.771-3.905,10.412-2.169,13.883-5.206,61.614-62.05,114.987-138.42,173.57-203.941l180.942,211.751,20.825.868-3.901,12.15,90.681,89.387,130.179,6.509-36.888-21.696-17.354-21.696c13.453,2.604,22.135,17.791,33.848,22.564,11.713,4.773,32.538,3.905,42.52,9.98,9.982,6.074-.87,12.15,6.081,15.187,20.825-36.883,49.892-31.242,73.758,0l-2.161,10.414c-14.323,3.905-32.547,19.092-46.87,19.092s-49.901-23.431-36.009-37.751h-13.023l4.341,13.017h-32.547c-10.843,0-16.054-3.471-15.184,4.339,15.184,3.038,26.906,1.302,41.22,0,14.323-1.301,6.942.434,6.511,8.679-16.924.867-34.718-2.604-51.202,3.037-16.493,5.641-14.323,21.696-30.807,22.998l-4.341-21.696,10.852,8.678,19.525-26.035h-65.085c29.497,31.676,57.273,66.389,93.291,91.123h100.737l-6.072,17.79M896.784,476.629h104.134l-55.973-54.674c-16.493-5.641-16.054-9.98-24.735-22.997l-49.462,3.905,4.341,13.018h-13.022l5.211-20.828,42.52-7.377-164.888-193.092-8.682,2.17-4.332,15.187-6.511-17.356-160.547,182.244,6.502,26.035h-33.838c-13.892,29.507-45.13,31.676-31.247,69.427-16.484,5.207-1.731-22.564-15.184-17.357-13.453,5.207-29.507,20.828-23.866,26.035l121.498-2.169,147.524-162.718,145.363,160.549c9.982,1.735,6.081-4.339,6.511-10.848.87-13.452-.87-27.771,0-41.222,16.484,3.472,4.771,48.165,8.682,52.07ZM606.058,480.968h67.256c4.341,0,52.502-57.277,54.673-62.483,8.682-22.13-4.771-47.731,0-72.031l-121.498,134.514h-.431ZM862.067,472.29c-47.731-32.11-81.578-88.085-125.839-125.836v70.728c13.453,13.885,46,60.748,62.924,63.786,16.924,3.038,55.103,4.339,62.915-8.678ZM697.179,476.629h73.767l-23.865-30.374-2.171,21.696-17.794-1.736-3.901-19.96-26.036,30.374ZM1230.892,476.629l-17.354-13.018c10.413,25.168-13.013,7.811-20.825,23.865,3.04,10.848,10.413,19.092,22.565,14.753,12.143-4.339,0-28.639,15.614-25.601ZM806.094,490.514c-11.713,35.581-48.161,58.578-72.027,85.916-6.951,0-75.937-83.746-83.319-85.916-24.296-7.377-59.874,0-74.197,22.997l70.296,93.727,86.35,82.01,158.377-171.83c-6.511-40.354-55.973-25.168-85.919-26.469l.44-.434ZM741.439,494.853l-7.372,24.734-15.193-28.205-43.39-2.17c-2.17,7.376,3.04,8.678,6.511,13.017,5.641,7.377,45.561,47.731,52.072,47.731,15.184,0,40.35-40.788,54.233-49.9,3.91-16.923-38.179-10.414-46.861-5.641v.434Z"/>
  <path class="st0" d="M727.556,42.713c-62.054,58.578-114.556,135.816-180.081,190.923-65.516,55.108-6.942,10.414-15.184,8.679L734.067,8c119.318,136.683,229.973,280.743,361.013,407.013l9.92,12.848c-1.649.118-11.67-10.346-10.036-10.089l18.346,2.883c41.659-7.377,31.609.434,73.268-2.604,0,9.98-7.381,9.98-15.193,10.848-39.919,4.773-49.394,0-92.793,0-272.493,1.302,173.134-1.301-99.368,0,5.641-17.356,46.43-3.905,51.641-9.112v-12.583l11.273,4.339-2.161,8.678,39.049-2.169L738.398,38.374v78.105l158.386,195.262c-32.547-34.279-66.825-68.559-97.632-104.14-18.664-21.262-38.188-55.107-56.843-73.332-18.664-18.224-3.91-6.074-10.413-4.773l-190.924,221.298,186.583-236.484V42.713Z"/>
  <path class="st0" d="M280.623,467.95c2.17.867,10.843-1.736,12.583,0,3.471,3.905-5.211,20.394,6.942,16.922,19.525-14.318,44.69-34.279,54.233-56.409h-179.987c-8.245,0-28.204-9.112-41.222-4.339-2.17-18.658,31.242-4.339,40.788-4.773,274.669-7.377,195.614-3.905,195.614-3.905l6.511-2.169c37.309-39.486,71.157-82.444,108.475-121.497,37.318-39.052,23.865-18.658,29.507-25.167,5.641-6.509-.87-10.848,3.471-11.716,22.125-5.207,3.04,16.489-2.17,23.865-36.018,47.297-84.179,90.255-121.498,136.683h88.951l6.511,13.017h-130.17c4.771,21.696-18.224,47.297-34.717,58.579-16.484,11.282-18.655,6.943-27.336,11.716-16.054,9.112-26.466,29.94-50.332,18.658-23.865-11.282-23.435-24.3-31.677-30.808-8.245-6.509-14.753,3.905-12.15-9.98,29.074,13.885,39.486-15.187,59.011-17.357,19.525-2.169,15.193,6.509,19.094,8.679-18.655-2.604-28.637,6.943-26.036,26.035,17.794,4.773,25.166-9.546,26.036-26.035h-.431Z"/>
  <path class="st0" d="M436.963,637.177c4.341.434,19.094,4.339,15.193,13.018-7.812-1.302-15.193-4.339-23.435-4.339-23.732-1.103-33.721,2.763-44.976.433,0,0-14.746,2.33-36.246-4.339-33.3,8.245-66.822,2.604-97.197,0,3.038-12.15,8.245-4.339,10.848-4.339h176.252l-.44-.434Z"/>
  <path class="st0" d="M1180.122,637.178l-45.561,8.679c-38.562,5.504,73.116,1.301-41.431,0,0,0,77.887,0-37.97,0l-6.511-8.679h131.473Z"/>
  <path class="st0" d="M745.78,855.003c4.341-2.604,15.623-3.038,12.143,5.207l-17.354,17.79h-8.672l-169.229-174,10.843-2.17c24.735,15.187,153.175,165.322,164.888,164.888,11.722-.434,5.211-10.848,7.381-11.716Z"/>
  <path class="st0" d="M46.45,498.325v-8.678c4.339,1.301,9.112-4.339,10.848-4.339h121.497l6.509,6.509-6.509,6.509H46.45Z"/>
  <path class="st0" d="M901.116,702.265c1.74,8.244-4.771,10.413-8.672,15.187-13.453,16.489-42.09,45.127-58.583,58.578-16.484,13.452-6.942,10.414-15.184,8.679-1.74-8.245,4.771-10.414,8.682-15.187,13.444-16.489,42.09-45.127,58.574-58.578,16.493-13.451,6.942-10.414,15.184-8.678Z"/>
  <path class="st0" d="M757.923,849.796c-1.731-8.245,4.78-10.414,8.682-15.187,7.381-8.678,32.978-36.015,41.22-41.222,8.251-5.207,10.852-1.302,10.852,2.17s-56.843,58.144-60.753,54.239Z"/>
</svg>