<svg xmlns="http://www.w3.org/2000/svg" version="1.1" xmlns:xlink="http://www.w3.org/1999/xlink" width="180" height="167"><svg width="180" height="167" viewBox="0 0 180 167" fill="none" xmlns="http://www.w3.org/2000/svg">
<path d="M180 158.046L146.706 125.607C157.515 113.071 164.023 96.9061 164.023 79.2555V79.2262H151.029V79.2555C151.029 89.5956 148.318 99.3186 143.556 107.787L114.289 79.2701L160.594 34.1521L171.298 0L136.295 10.4688L89.9895 55.5867L43.684 10.4746L8.67762 0L19.3789 34.1492L65.6844 79.2672L36.4173 107.784C31.6525 99.3128 28.9413 89.5956 28.9413 79.2525V79.2233H15.9473V79.2525C15.9473 96.912 22.4638 113.086 33.2757 125.619L0 158.046L9.18877 167L42.4794 134.564C54.7739 144.589 70.4582 150.806 87.6131 151.335V138.673C77.8983 138.313 68.7663 135.734 60.7284 131.456L89.9836 102.951L119.239 131.456C111.204 135.734 102.072 138.313 92.357 138.673V151.335C109.521 150.809 125.208 144.586 137.503 134.553L170.802 167L179.994 158.046H179.997H180ZM139.32 15.3727L156.9 10.1149L100.108 65.4502L94.019 59.5169L139.323 15.3727H139.32ZM69.684 83.2207L75.755 89.1745L44.8498 119.285C42.9008 117.203 41.1073 114.987 39.4752 112.65L69.684 83.2178V83.2207ZM24.4097 31.2074L19.0202 14.01L131.094 123.21C128.942 125.119 126.652 126.88 124.237 128.479L24.4097 31.2074Z" fill="#BD482D"></path>
</svg><style>@media (prefers-color-scheme: light) { :root { filter: none; } }
@media (prefers-color-scheme: dark) { :root { filter: none; } }
</style></svg>