<svg width="24" height="24" viewBox="0 0 24 24" fill="none" xmlns="http://www.w3.org/2000/svg">
<path d="M19.8125 7.28899L9.57301 17.9549C9.51357 18.0168 9.44299 18.066 9.3653 18.0996C9.28761 18.1331 9.20433 18.1504 9.12023 18.1504C9.03612 18.1504 8.95285 18.1331 8.87515 18.0996C8.79746 18.066 8.72688 18.0168 8.66745 17.9549L4.18765 13.2885C4.06756 13.1635 4.0001 12.9938 4.0001 12.8169C4.0001 12.64 4.06756 12.4704 4.18765 12.3453C4.30773 12.2202 4.4706 12.1499 4.64043 12.1499C4.81025 12.1499 4.97312 12.2202 5.0932 12.3453L9.12023 16.5408L18.907 6.34572C19.0271 6.22064 19.1899 6.15037 19.3598 6.15037C19.5296 6.15037 19.6925 6.22064 19.8125 6.34572C19.9326 6.47081 20.0001 6.64046 20.0001 6.81735C20.0001 6.99425 19.9326 7.1639 19.8125 7.28899Z" fill="#E7FF53"/>
<path fill-rule="evenodd" clip-rule="evenodd" d="M5.20142 12.2414L9.12023 16.3242L18.7988 6.24185C18.9465 6.088 19.1481 6.00037 19.3598 6.00037C19.5714 6.00037 19.7731 6.08799 19.9208 6.24184C20.0683 6.39548 20.1501 6.6026 20.1501 6.81735C20.1501 7.0321 20.0683 7.23923 19.9208 7.39287L9.68127 18.0587C9.68125 18.0587 9.68129 18.0587 9.68127 18.0587C9.60821 18.1348 9.52106 18.1957 9.42476 18.2373C9.32841 18.2789 9.22491 18.3004 9.12023 18.3004C9.01554 18.3004 8.91204 18.2789 8.81569 18.2373C8.71939 18.1957 8.6323 18.1349 8.55924 18.0587C8.55922 18.0587 8.55926 18.0588 8.55924 18.0587L4.07944 13.3924C3.93194 13.2388 3.8501 13.0317 3.8501 12.8169C3.8501 12.6022 3.93194 12.395 4.07944 12.2414C4.22714 12.0875 4.4288 11.9999 4.64042 11.9999C4.85205 11.9999 5.05372 12.0876 5.20142 12.2414ZM8.66745 17.9549C8.72688 18.0168 8.79746 18.066 8.87515 18.0996C8.95285 18.1331 9.03612 18.1504 9.12023 18.1504C9.20433 18.1504 9.28761 18.1331 9.3653 18.0996C9.44299 18.066 9.51357 18.0168 9.57301 17.9549L19.8125 7.28899C19.9326 7.1639 20.0001 6.99425 20.0001 6.81735C20.0001 6.64046 19.9326 6.47081 19.8125 6.34572C19.6925 6.22064 19.5296 6.15037 19.3598 6.15037C19.1899 6.15037 19.0271 6.22064 18.907 6.34572L9.12023 16.5408L5.0932 12.3453C4.97312 12.2202 4.81025 12.1499 4.64043 12.1499C4.4706 12.1499 4.30773 12.2202 4.18765 12.3453C4.06756 12.4704 4.0001 12.64 4.0001 12.8169C4.0001 12.9938 4.06756 13.1635 4.18765 13.2885L8.66745 17.9549Z" fill="#E7FF53"/>
</svg>
