<svg width="106" height="148" viewBox="0 0 106 148" fill="none" xmlns="http://www.w3.org/2000/svg">
<path d="M101.325 24.782H3.62305V30.9486H101.325V24.782Z" stroke="black" stroke-width="2.1499" stroke-miterlimit="10" stroke-linecap="round" stroke-linejoin="round"/>
<path d="M100.708 120.16H4.23984V126.327H100.708V120.16Z" stroke="black" stroke-width="2.1499" stroke-miterlimit="10" stroke-linecap="round" stroke-linejoin="round"/>
<path d="M96.5799 126.245H8.36438V143.838H96.5799V126.245Z" stroke="black" stroke-width="2.1499" stroke-miterlimit="10" stroke-linecap="round" stroke-linejoin="round"/>
<path d="M15.0043 23.7546C15.0043 13.0838 31.6565 4.4332 52.1984 4.4332C72.7403 4.4332 89.3925 13.0838 89.3925 23.7546" stroke="black" stroke-width="2.1499" stroke-miterlimit="10" stroke-linecap="round" stroke-linejoin="round"/>
<path d="M18.3728 119.44V95.9539C18.3728 84.6609 30.8492 75.5059 46.2391 75.5059" stroke="black" stroke-width="2.1499" stroke-miterlimit="10" stroke-linecap="round" stroke-linejoin="round"/>
<path d="M58.6874 75.5059C73.784 75.5059 86.0232 84.4864 86.0232 95.5648V119.441" stroke="black" stroke-width="2.1499" stroke-miterlimit="10" stroke-linecap="round" stroke-linejoin="round"/>
<path d="M86.0232 31.1028V54.8364C86.0232 66.2485 73.5468 75.4997 58.157 75.4997" stroke="black" stroke-width="2.1499" stroke-miterlimit="10" stroke-linecap="round" stroke-linejoin="round"/>
<path d="M45.7086 75.5003C30.6119 75.5003 18.3728 66.4249 18.3728 55.2305V31.1034" stroke="black" stroke-width="2.1499" stroke-miterlimit="10" stroke-linecap="round" stroke-linejoin="round"/>
<path d="M23.5948 51.2986C23.5948 51.2986 30.3358 52.7373 38.8914 49.86C47.4469 46.982 49.2615 45.9546 61.7059 48.6266C74.1504 51.2986 79.8538 50.4766 79.8538 50.4766C79.8538 50.4766 82.4462 68.1546 57.0393 71.6486C57.0393 71.6486 54.7059 72.4707 54.7059 75.1433C54.7059 77.8153 61.1872 81.31 57.0393 83.16C52.8914 85.01 48.2247 83.5713 50.558 76.3766C50.558 76.3766 51.0768 73.0879 46.6691 71.8546C42.2615 70.6213 26.1872 68.5653 23.5948 51.2986Z" stroke="black" stroke-width="2.1499" stroke-miterlimit="10" stroke-linecap="round" stroke-linejoin="round"/>
<path d="M79.0761 115.227H25.4094C27.6066 112.407 29.1054 109.473 31.3018 106.654C31.6822 106.165 32.089 105.657 32.7182 105.373C33.6523 104.952 34.8337 105.128 35.8604 104.873C38.6954 104.171 39.0695 100.71 41.833 99.8463C42.5547 99.6206 43.3527 99.6095 44.101 99.4498C48.1322 98.5889 49.7414 93.8085 53.9142 93.6957C57.4577 93.5995 59.3392 96.8876 62.0746 98.6759C62.8508 99.1834 63.7321 99.5799 64.5332 100.062C65.5855 100.695 66.4885 101.469 67.3853 102.239C68.0713 102.827 68.7573 103.416 69.4433 104.005C71.0331 105.368 72.6244 106.733 74.0781 108.189C76.1026 110.215 77.6348 112.907 79.0761 115.227Z" stroke="black" stroke-width="2.1499" stroke-miterlimit="10" stroke-linecap="round" stroke-linejoin="round"/>
<path d="M63.9763 79.2546C67.4879 80.1568 70.9459 81.326 73.833 83.1495C76.7201 84.9729 79.0084 87.5148 79.6391 90.399" stroke="black" stroke-width="0.9627" stroke-miterlimit="10" stroke-linecap="round" stroke-linejoin="round"/>
<path d="M80.6316 97.3433V108.834" stroke="black" stroke-width="0.9627" stroke-miterlimit="10" stroke-linecap="round" stroke-linejoin="round"/>
<path d="M29.4834 54.4072C35.554 56.3035 41.9131 58.2349 48.406 57.7231C49.9281 57.6028 51.4292 57.3494 52.9482 57.21C56.015 56.9294 59.1191 57.1187 62.1991 56.9565C66.5927 56.7247 70.9234 55.7682 74.8341 54.1649" stroke="black" stroke-width="0.9627" stroke-miterlimit="10" stroke-linecap="round" stroke-linejoin="round"/>
<path d="M59.5725 103.561C59.767 102.777 60.7485 102.167 61.755 102.204C62.7614 102.241 63.6675 102.922 63.7686 103.716" stroke="black" stroke-width="0.9627" stroke-miterlimit="10" stroke-linecap="round" stroke-linejoin="round"/>
<path d="M44.6446 106.503C44.5489 106.168 44.0037 106.015 43.5954 106.13C43.187 106.244 42.9063 106.542 42.7056 106.846C42.5952 107.013 42.4909 107.197 42.2887 107.298C42.0142 107.433 41.6626 107.37 41.3398 107.355C39.7049 107.282 38.5188 108.522 37.6508 109.623" stroke="black" stroke-width="0.9627" stroke-miterlimit="10" stroke-linecap="round" stroke-linejoin="round"/>
<path d="M61.671 108.82C62.5078 108.406 63.7212 108.57 64.338 109.18C64.6374 109.477 64.8 109.852 65.122 110.134C65.6687 110.612 66.543 110.724 67.3176 110.921C68.0931 111.119 68.9253 111.552 68.937 112.198" stroke="black" stroke-width="0.9627" stroke-miterlimit="10" stroke-linecap="round" stroke-linejoin="round"/>
<path d="M60.0921 88.5989L58.1297 88.454L56.8658 89.6528L56.4342 88.1284L54.6048 87.5463L56.3004 86.7489L56.4334 85.19L57.9135 86.2223L59.8245 85.8412L59.0444 87.2756L60.0921 88.5989Z" stroke="black" stroke-width="0.9627" stroke-miterlimit="10" stroke-linecap="round" stroke-linejoin="round"/>
<path d="M57.9353 100.942L55.9729 100.796L54.7091 101.995L54.2774 100.47L52.4481 99.8883L54.1436 99.0915L54.2766 97.532L55.7567 98.5643L57.6677 98.1832L56.8868 99.6176L57.9353 100.942Z" stroke="black" stroke-width="0.9627" stroke-miterlimit="10" stroke-linecap="round" stroke-linejoin="round"/>
<path d="M44.7815 96.0939L43.0432 95.3564L41.2924 96.0735L41.6393 94.535L40.2385 93.4367L42.1907 93.2227L43.0758 91.8266L43.9353 93.2332L45.8836 93.4687L44.4626 94.5516L44.7815 96.0939Z" stroke="black" stroke-width="0.9627" stroke-miterlimit="10" stroke-linecap="round" stroke-linejoin="round"/>
<path d="M63.4816 46.1285L63.0507 45.1912L61.8327 44.9414L62.8236 44.3272L62.7474 43.3313L63.7904 43.8888L64.9601 43.5237L64.6148 44.482L65.4144 45.2516L64.1575 45.2874L63.4816 46.1285Z" stroke="black" stroke-width="0.6144" stroke-miterlimit="10" stroke-linecap="round" stroke-linejoin="round"/>
<path d="M47.6717 111.437L47.2408 110.5L46.0228 110.25L47.0137 109.635L46.9375 108.64L47.9805 109.197L49.1511 108.832L48.8049 109.791L49.6045 110.56L48.3476 110.595L47.6717 111.437Z" stroke="black" stroke-width="0.6144" stroke-miterlimit="10" stroke-linecap="round" stroke-linejoin="round"/>
<path d="M60.0648 61.6272L59.2738 60.852L58.0201 60.9285L58.7053 60.0929L58.2254 59.171L59.4403 59.4294L60.3977 58.7825L60.463 59.779L61.5348 60.3007L60.3604 60.6578L60.0648 61.6272Z" stroke="black" stroke-width="0.6144" stroke-miterlimit="10" stroke-linecap="round" stroke-linejoin="round"/>
<path d="M51.832 71.0542L50.9407 69.6605L48.9869 69.4521L50.3838 68.3495L50.0299 66.8121L51.7846 67.5244L53.519 66.7825L53.2064 68.3254L54.6328 69.4046L52.6853 69.6457L51.832 71.0542Z" stroke="black" stroke-width="0.9627" stroke-miterlimit="10" stroke-linecap="round" stroke-linejoin="round"/>
<path d="M51.1429 51.5872L49.5742 52.5332L49.6675 54.094L48.0482 53.2029L46.2041 53.7554L46.7726 52.2594L45.5398 51.0396L47.5107 51.0057L48.5926 49.6996L49.242 51.1753L51.1429 51.5872Z" stroke="black" stroke-width="0.9627" stroke-miterlimit="10" stroke-linecap="round" stroke-linejoin="round"/>
<path d="M32.9958 60.0991C33.0137 60.9088 33.9992 61.6216 35.0181 61.5618C35.2265 61.5495 35.463 61.5162 35.6232 61.6229C35.7243 61.6901 35.7647 61.7974 35.8021 61.8973C35.967 62.3339 36.24 62.8155 36.7898 62.9475C37.3397 63.0794 38.0032 62.4961 37.5878 62.181" stroke="black" stroke-width="0.9627" stroke-miterlimit="10" stroke-linecap="round" stroke-linejoin="round"/>
<path d="M69.1003 63.1429C68.9494 63.5795 68.702 64.0254 68.226 64.2752C67.75 64.5243 66.9987 64.4799 66.7203 64.0852C66.4543 64.7074 65.5209 65.0953 64.7245 64.9152" stroke="black" stroke-width="0.9627" stroke-miterlimit="10" stroke-linecap="round" stroke-linejoin="round"/>
<path d="M47.338 59.9881C47.5714 60.3994 47.8506 60.8471 48.3764 61.0185C48.9022 61.19 49.6683 60.8317 49.4933 60.4025" stroke="black" stroke-width="0.9627" stroke-miterlimit="10" stroke-linecap="round" stroke-linejoin="round"/>
<path d="M82.6297 50.0665V38.9665" stroke="black" stroke-width="0.9627" stroke-miterlimit="10" stroke-linecap="round" stroke-linejoin="round"/>
<path d="M82.6297 36.3457V33.879" stroke="black" stroke-width="0.9627" stroke-miterlimit="10" stroke-linecap="round" stroke-linejoin="round"/>
<path d="M22.7408 111.733V95.854C22.7408 95.854 22.7408 85.9874 33.0464 82.1332" stroke="black" stroke-width="0.9627" stroke-miterlimit="10" stroke-linecap="round" stroke-linejoin="round"/>
<path d="M21.3797 34.1874V43.4374" stroke="black" stroke-width="0.9627" stroke-miterlimit="10" stroke-linecap="round" stroke-linejoin="round"/>
<path d="M21.7686 57.7749C21.7686 57.7749 24.1019 66.5624 32.6575 69.954" stroke="black" stroke-width="0.9627" stroke-miterlimit="10" stroke-linecap="round" stroke-linejoin="round"/>
<path d="M93.5186 31.0825V56.9029C93.5186 56.9029 90.0186 61.1474 93.5186 66.8066C93.5186 66.8066 89.6297 71.0511 93.5186 75.2956" stroke="black" stroke-width="2.1499" stroke-miterlimit="10" stroke-linecap="round" stroke-linejoin="round"/>
<path d="M98.9848 31.0825V56.9029C98.9848 56.9029 102.485 61.1474 98.9848 66.8066C98.9848 66.8066 102.874 71.0511 98.9848 75.2956" stroke="black" stroke-width="2.1499" stroke-miterlimit="10" stroke-linecap="round" stroke-linejoin="round"/>
<path d="M99.0494 119.574V93.7537C99.0494 93.7537 102.549 89.5091 99.0494 83.85C99.0494 83.85 102.938 79.6055 99.0494 75.361" stroke="black" stroke-width="2.1499" stroke-miterlimit="10" stroke-linecap="round" stroke-linejoin="round"/>
<path d="M93.5832 119.574V93.7537C93.5832 93.7537 90.0832 89.5091 93.5832 83.85C93.5832 83.85 89.6943 79.6055 93.5832 75.361" stroke="black" stroke-width="2.1499" stroke-miterlimit="10" stroke-linecap="round" stroke-linejoin="round"/>
<path d="M6.12671 31.0825V56.9029C6.12671 56.9029 2.62671 61.1474 6.12671 66.8066C6.12671 66.8066 2.23782 71.0511 6.12671 75.2956" stroke="black" stroke-width="2.1499" stroke-miterlimit="10" stroke-linecap="round" stroke-linejoin="round"/>
<path d="M11.5929 31.0825V56.9029C11.5929 56.9029 15.0929 61.1474 11.5929 66.8066C11.5929 66.8066 15.4818 71.0511 11.5929 75.2956" stroke="black" stroke-width="2.1499" stroke-miterlimit="10" stroke-linecap="round" stroke-linejoin="round"/>
<path d="M11.6575 119.574V93.7537C11.6575 93.7537 15.1575 89.5091 11.6575 83.85C11.6575 83.85 15.5464 79.6055 11.6575 75.361" stroke="black" stroke-width="2.1499" stroke-miterlimit="10" stroke-linecap="round" stroke-linejoin="round"/>
<path d="M6.19126 119.574V93.7537C6.19126 93.7537 2.69126 89.5091 6.19126 83.85C6.19126 83.85 2.30237 79.6055 6.19126 75.361" stroke="black" stroke-width="2.1499" stroke-miterlimit="10" stroke-linecap="round" stroke-linejoin="round"/>
<path d="M32.3122 48.2165V34.4439" stroke="black" stroke-width="0.9627" stroke-miterlimit="10" stroke-linecap="round" stroke-linejoin="round"/>
<path d="M27.5156 41.3302H37.108" stroke="black" stroke-width="0.9627" stroke-miterlimit="10" stroke-linecap="round" stroke-linejoin="round"/>
<path d="M29.201 44.0022L35.4233 38.6582" stroke="black" stroke-width="0.9627" stroke-miterlimit="10" stroke-linecap="round" stroke-linejoin="round"/>
<path d="M29.5464 38.9666L35.3797 43.8999" stroke="black" stroke-width="0.9627" stroke-miterlimit="10" stroke-linecap="round" stroke-linejoin="round"/>
<path d="M72.7566 100.633V86.8606" stroke="black" stroke-width="0.9627" stroke-miterlimit="10" stroke-linecap="round" stroke-linejoin="round"/>
<path d="M67.9601 93.7469H77.5524" stroke="black" stroke-width="0.9627" stroke-miterlimit="10" stroke-linecap="round" stroke-linejoin="round"/>
<path d="M69.6455 96.4189L75.8677 91.0749" stroke="black" stroke-width="0.9627" stroke-miterlimit="10" stroke-linecap="round" stroke-linejoin="round"/>
<path d="M69.9908 91.3832L75.8241 96.3165" stroke="black" stroke-width="0.9627" stroke-miterlimit="10" stroke-linecap="round" stroke-linejoin="round"/>
<path d="M64.4165 8.74988C64.4165 8.74988 78.5464 11.4219 82.9533 19.3362" stroke="black" stroke-width="2.719" stroke-miterlimit="10" stroke-linecap="round" stroke-linejoin="round"/>
<path d="M84.3797 21.8022V24.4749" stroke="black" stroke-width="2.719" stroke-miterlimit="10" stroke-linecap="round" stroke-linejoin="round"/>
</svg>
