<svg width="108" height="154" viewBox="0 0 108 154" fill="none" xmlns="http://www.w3.org/2000/svg">
<path d="M38.8296 96.574C45.6883 96.574 51.2485 91.0002 51.2485 84.1245C51.2485 77.2489 45.6883 71.675 38.8296 71.675C31.9708 71.675 26.4107 77.2489 26.4107 84.1245C26.4107 91.0002 31.9708 96.574 38.8296 96.574Z" stroke="#A8452C" stroke-width="1.1802" stroke-miterlimit="10" stroke-linecap="round" stroke-linejoin="round"/>
<path d="M40.1564 92.4237C44.9468 92.4237 48.8302 88.5307 48.8302 83.7285C48.8302 78.9262 44.9468 75.0332 40.1564 75.0332C35.3659 75.0332 31.4825 78.9262 31.4825 83.7285C31.4825 88.5307 35.3659 92.4237 40.1564 92.4237Z" stroke="#A8452C" stroke-width="1.1802" stroke-miterlimit="10" stroke-linecap="round" stroke-linejoin="round"/>
<path d="M40.335 80.4312C42.1657 80.4312 43.6524 81.9195 43.6524 83.7583C43.6523 85.5971 42.1663 87.0854 40.335 87.0854C38.5038 87.0853 37.0177 85.597 37.0176 83.7583C37.0176 81.9196 38.5045 80.4313 40.335 80.4312Z" fill="black" stroke="#A8452C"/>
<path d="M45.8496 80.1338C45.8496 81.0463 45.112 81.7857 44.2018 81.7857C43.2915 81.7857 42.554 81.0463 42.554 80.1338C42.554 79.2213 43.2915 78.4819 44.2018 78.4819C45.112 78.4827 45.8496 79.2221 45.8496 80.1338Z" stroke="#A8452C" stroke-width="1.1802" stroke-miterlimit="10" stroke-linecap="round" stroke-linejoin="round"/>
<path d="M28.3046 84.8947C28.1151 82.774 28.631 80.5958 29.7522 78.7876" stroke="#A8452C" stroke-width="1.1802" stroke-miterlimit="10" stroke-linecap="round" stroke-linejoin="round"/>
<path d="M30.9651 77.0544C31.2655 76.5104 31.6881 76.0338 32.1918 75.6707" stroke="#A8452C" stroke-width="1.1802" stroke-miterlimit="10" stroke-linecap="round" stroke-linejoin="round"/>
<path d="M31.5452 91.7656C31.5452 91.7656 34.3486 94.7093 38.773 94.8341" stroke="#A8452C" stroke-width="1.1802" stroke-miterlimit="10" stroke-linecap="round" stroke-linejoin="round"/>
<path d="M86.6943 92.7262C88.3246 86.0479 84.2457 79.3091 77.5838 77.6748C70.9219 76.0404 64.1997 80.1294 62.5694 86.8077C60.9391 93.486 65.018 100.225 71.6799 101.859C78.3418 103.493 85.064 99.4045 86.6943 92.7262Z" stroke="#A8452C" stroke-width="1.1802" stroke-miterlimit="10" stroke-linecap="round" stroke-linejoin="round"/>
<path d="M75.0361 99.7919C79.8265 99.7919 83.7099 95.8989 83.7099 91.0966C83.7099 86.2944 79.8265 82.4014 75.0361 82.4014C70.2456 82.4014 66.3622 86.2944 66.3622 91.0966C66.3622 95.8989 70.2456 99.7919 75.0361 99.7919Z" stroke="#A8452C" stroke-width="1.1802" stroke-miterlimit="10" stroke-linecap="round" stroke-linejoin="round"/>
<path d="M75.006 87.9487C76.8374 87.9487 78.3234 89.437 78.3234 91.2759C78.3234 93.1146 76.8367 94.603 75.006 94.603C73.1748 94.6029 71.6887 93.1146 71.6887 91.2759C71.6887 89.4371 73.1755 87.9489 75.006 87.9487Z" fill="black" stroke="#A8452C"/>
<path d="M78.6213 96.8047C77.7111 96.8047 76.9735 96.0653 76.9735 95.1528C76.9735 94.2403 77.7111 93.501 78.6213 93.501C79.5316 93.501 80.2691 94.2403 80.2691 95.1528C80.2691 96.0653 79.5316 96.8047 78.6213 96.8047Z" stroke="#A8452C" stroke-width="1.1802" stroke-miterlimit="10" stroke-linecap="round" stroke-linejoin="round"/>
<path d="M73.8721 79.2158C75.9876 79.0258 78.1605 79.5429 79.9642 80.6669" stroke="#A8452C" stroke-width="1.1802" stroke-miterlimit="10" stroke-linecap="round" stroke-linejoin="round"/>
<path d="M81.693 81.8828C82.2356 82.1839 82.711 82.6076 83.0733 83.1125" stroke="#A8452C" stroke-width="1.1802" stroke-miterlimit="10" stroke-linecap="round" stroke-linejoin="round"/>
<path d="M67.0179 82.4648C67.0179 82.4648 64.0815 85.2752 63.957 89.7105" stroke="#A8452C" stroke-width="1.1802" stroke-miterlimit="10" stroke-linecap="round" stroke-linejoin="round"/>
<path d="M51.6566 130.285C58.5153 130.285 64.0754 124.711 64.0754 117.835C64.0754 110.96 58.5153 105.386 51.6566 105.386C44.7978 105.386 39.2377 110.96 39.2377 117.835C39.2377 124.711 44.7978 130.285 51.6566 130.285Z" stroke="#A8452C" stroke-width="1.1802" stroke-miterlimit="10" stroke-linecap="round" stroke-linejoin="round"/>
<path d="M51.2607 125.201C56.0511 125.201 59.9345 121.308 59.9345 116.506C59.9345 111.704 56.0511 107.811 51.2607 107.811C46.4702 107.811 42.5868 111.704 42.5868 116.506C42.5868 121.308 46.4702 125.201 51.2607 125.201Z" stroke="#A8452C" stroke-width="1.1802" stroke-miterlimit="10" stroke-linecap="round" stroke-linejoin="round"/>
<path d="M51.2902 113C53.1213 113 54.6076 114.488 54.6076 116.327C54.6075 118.165 53.1213 119.654 51.2902 119.654C49.4593 119.654 47.9729 118.165 47.9728 116.327C47.9728 114.488 49.4592 113 51.2902 113Z" fill="black" stroke="#A8452C"/>
<path d="M47.6746 114.102C48.5846 114.102 49.3224 113.362 49.3224 112.45C49.3224 111.537 48.5846 110.798 47.6746 110.798C46.7645 110.798 46.0268 111.537 46.0268 112.45C46.0268 113.362 46.7645 114.102 47.6746 114.102Z" stroke="#A8452C" stroke-width="1.1802" stroke-miterlimit="10" stroke-linecap="round" stroke-linejoin="round"/>
<path d="M52.4239 128.387C50.3084 128.577 48.1355 128.06 46.3318 126.937" stroke="#A8452C" stroke-width="1.1802" stroke-miterlimit="10" stroke-linecap="round" stroke-linejoin="round"/>
<path d="M44.603 125.72C44.0603 125.419 43.5849 124.995 43.2227 124.49" stroke="#A8452C" stroke-width="1.1802" stroke-miterlimit="10" stroke-linecap="round" stroke-linejoin="round"/>
<path d="M59.278 125.138C59.278 125.138 62.2144 122.327 62.3397 117.892" stroke="#A8452C" stroke-width="1.1802" stroke-miterlimit="10" stroke-linecap="round" stroke-linejoin="round"/>
<path d="M89.4039 10.8284V24.3635H19.8539V10.8284" stroke="#A8452C" stroke-width="2.8332" stroke-miterlimit="10" stroke-linecap="round" stroke-linejoin="round"/>
<path d="M82.6782 149.202H26.5788C15.9644 149.202 7.36011 140.576 7.36011 129.935V43.497C7.36011 32.8565 15.9644 24.231 26.5788 24.231H82.6782C93.2926 24.231 101.897 32.8573 101.897 43.497V129.935C101.898 140.576 93.2926 149.202 82.6782 149.202Z" stroke="#A8452C" stroke-width="2.8332" stroke-miterlimit="10" stroke-linecap="round" stroke-linejoin="round"/>
<path d="M25.7733 29.7266C25.7733 29.7266 13.7992 31.2589 13.2902 44.0286" stroke="#A8452C" stroke-width="0.9627" stroke-miterlimit="10" stroke-linecap="round" stroke-linejoin="round"/>
<path d="M92.7117 58.8411V123.933C92.7117 131.991 86.5088 138.523 78.8575 138.523H30.9016C23.2504 138.523 17.0474 131.991 17.0474 123.933V58.8411" stroke="#A8452C" stroke-width="2.7643" stroke-miterlimit="10" stroke-linecap="round" stroke-linejoin="round"/>
<path d="M92.7117 58.9691C92.7117 60.4256 83.6748 65.0349 73.9944 62.3862C68.5557 60.8983 61.7283 65.9926 54.755 65.9926C47.6746 65.9926 42.0228 59.6717 35.5065 62.3701C25.1993 66.6385 17.0474 60.4149 17.0474 58.9691C17.0474 57.4551 25.9728 50.8937 37.103 55.4738C43.1141 57.9478 47.9658 52.3931 54.3912 52.3931C61.2247 52.3931 68.3998 57.3808 73.6565 55.5321C82.5834 52.3931 92.7117 57.498 92.7117 58.9691Z" stroke="#A8452C" stroke-width="2.7643" stroke-miterlimit="10" stroke-linecap="round" stroke-linejoin="round"/>
<path d="M85.3241 29.9182C85.3241 29.9182 97.2982 31.4505 97.8072 44.2203" stroke="#A8452C" stroke-width="0.9627" stroke-miterlimit="10" stroke-linecap="round" stroke-linejoin="round"/>
<path d="M97.4885 52.3931V79.7836" stroke="#A8452C" stroke-width="0.9627" stroke-miterlimit="10" stroke-linecap="round" stroke-linejoin="round"/>
<path d="M12.6528 99.8955V127.286" stroke="#A8452C" stroke-width="0.9627" stroke-miterlimit="10" stroke-linecap="round" stroke-linejoin="round"/>
<path d="M96.3421 131.883C96.3421 131.883 94.8135 140.694 87.9349 143.758" stroke="#A8452C" stroke-width="0.9627" stroke-miterlimit="10" stroke-linecap="round" stroke-linejoin="round"/>
<path d="M13.0349 131.117C13.0349 131.117 14.5635 139.928 21.4421 142.992" stroke="#A8452C" stroke-width="0.9627" stroke-miterlimit="10" stroke-linecap="round" stroke-linejoin="round"/>
<path d="M21.9167 59.2869C24.4992 60.6415 27.6205 60.9249 30.4048 60.0592" stroke="#A8452C" stroke-width="0.9627" stroke-miterlimit="10" stroke-linecap="round" stroke-linejoin="round"/>
<path d="M65.5742 60.1052C59.6266 62.6535 52.6601 62.7041 46.6765 60.2439" stroke="#A8452C" stroke-width="0.9627" stroke-miterlimit="10" stroke-linecap="round" stroke-linejoin="round"/>
<path d="M68.6528 59.4012C70.1217 58.9185 71.7053 58.7936 73.2316 59.0388" stroke="#A8452C" stroke-width="0.9627" stroke-miterlimit="10" stroke-linecap="round" stroke-linejoin="round"/>
<path d="M28.07 120.669C28.07 121.22 27.7413 121.667 27.3355 121.667C26.9297 121.667 26.601 121.22 26.601 120.669C26.601 120.117 26.9297 119.67 27.3355 119.67C27.7413 119.67 28.07 120.117 28.07 120.669Z" stroke="#A8452C" stroke-width="0.5387" stroke-miterlimit="10" stroke-linecap="round" stroke-linejoin="round"/>
<path d="M85.4212 70.5894C85.4212 71.141 85.0925 71.5877 84.6867 71.5877C84.2809 71.5877 83.9522 71.141 83.9522 70.5894C83.9522 70.0377 84.2809 69.5911 84.6867 69.5911C85.0925 69.5911 85.4212 70.0377 85.4212 70.5894Z" stroke="#A8452C" stroke-width="0.5387" stroke-miterlimit="10" stroke-linecap="round" stroke-linejoin="round"/>
<path d="M28.6095 71.0996C28.6095 71.6513 28.2809 72.098 27.875 72.098C27.4692 72.098 27.1406 71.6513 27.1406 71.0996C27.1406 70.548 27.4692 70.1013 27.875 70.1013C28.2809 70.1013 28.6095 70.5488 28.6095 71.0996Z" stroke="#A8452C" stroke-width="0.5387" stroke-miterlimit="10" stroke-linecap="round" stroke-linejoin="round"/>
<path d="M59.7504 98.6587C60.156 98.6587 60.4848 98.2118 60.4848 97.6604C60.4848 97.1091 60.156 96.6621 59.7504 96.6621C59.3447 96.6621 59.0159 97.1091 59.0159 97.6604C59.0159 98.2118 59.3447 98.6587 59.7504 98.6587Z" stroke="#A8452C" stroke-width="0.5387" stroke-miterlimit="10" stroke-linecap="round" stroke-linejoin="round"/>
<path d="M80.8355 124.453C80.8355 125.005 80.5068 125.452 80.101 125.452C79.6952 125.452 79.3665 125.005 79.3665 124.453C79.3665 123.902 79.6952 123.455 80.101 123.455C80.5068 123.455 80.8355 123.902 80.8355 124.453Z" stroke="#A8452C" stroke-width="0.5387" stroke-miterlimit="10" stroke-linecap="round" stroke-linejoin="round"/>
<mask id="path-40-inside-1_3_545" fill="white">
<path d="M66.7122 76.3357C66.7122 76.6116 66.4875 76.8353 66.2093 76.8353C65.9319 76.8353 65.7064 76.6116 65.7064 76.3357C65.7064 76.0599 65.9311 75.8362 66.2093 75.8362C66.4875 75.8362 66.7122 76.0599 66.7122 76.3357Z"/>
</mask>
<path d="M66.7122 76.3357C66.7122 76.6116 66.4875 76.8353 66.2093 76.8353C65.9319 76.8353 65.7064 76.6116 65.7064 76.3357C65.7064 76.0599 65.9311 75.8362 66.2093 75.8362C66.4875 75.8362 66.7122 76.0599 66.7122 76.3357Z" fill="black"/>
<path d="M66.2093 75.8362L66.2093 76.8362L66.2093 75.8362ZM66.7122 76.3357H65.7122C65.7122 76.0536 65.9409 75.8353 66.2093 75.8353V76.8353V77.8353C67.0341 77.8353 67.7122 77.1695 67.7122 76.3357H66.7122ZM66.2093 76.8353V75.8353C66.4775 75.8353 66.7064 76.0526 66.7064 76.3357H65.7064H64.7064C64.7064 77.1705 65.3863 77.8353 66.2093 77.8353V76.8353ZM65.7064 76.3357H66.7064C66.7064 76.6178 66.4778 76.8362 66.2093 76.8362V75.8362V74.8362C65.3845 74.8362 64.7064 75.502 64.7064 76.3357H65.7064ZM66.2093 75.8362L66.2093 76.8362C65.9409 76.8362 65.7122 76.6178 65.7122 76.3357H66.7122H67.7122C67.7122 75.502 67.0342 74.8362 66.2093 74.8362L66.2093 75.8362Z" fill="#A8452C" mask="url(#path-40-inside-1_3_545)"/>
<mask id="path-42-inside-2_3_545" fill="white">
<path d="M85.6994 109.142C85.6994 109.417 85.4747 109.641 85.1965 109.641C84.9191 109.641 84.6936 109.417 84.6936 109.142C84.6936 108.866 84.9183 108.642 85.1965 108.642C85.4739 108.642 85.6994 108.866 85.6994 109.142Z"/>
</mask>
<path d="M85.6994 109.142C85.6994 109.417 85.4747 109.641 85.1965 109.641C84.9191 109.641 84.6936 109.417 84.6936 109.142C84.6936 108.866 84.9183 108.642 85.1965 108.642C85.4739 108.642 85.6994 108.866 85.6994 109.142Z" fill="black"/>
<path d="M85.6994 109.142H84.6994C84.6994 108.859 84.9281 108.641 85.1965 108.641V109.641V110.641C86.0213 110.641 86.6994 109.975 86.6994 109.142H85.6994ZM85.1965 109.641V108.641C85.4647 108.641 85.6936 108.859 85.6936 109.142H84.6936H83.6936C83.6936 109.976 84.3735 110.641 85.1965 110.641V109.641ZM84.6936 109.142H85.6936C85.6936 109.424 85.465 109.642 85.1965 109.642V108.642V107.642C84.3717 107.642 83.6936 108.308 83.6936 109.142H84.6936ZM85.1965 108.642V109.642C84.9283 109.642 84.6994 109.425 84.6994 109.142H85.6994H86.6994C86.6994 108.307 86.0196 107.642 85.1965 107.642V108.642Z" fill="#A8452C" mask="url(#path-42-inside-2_3_545)"/>
<mask id="path-44-inside-3_3_545" fill="white">
<path d="M39.7078 107.366C39.7078 107.642 39.4831 107.865 39.2049 107.865C38.9274 107.865 38.702 107.642 38.702 107.366C38.702 107.09 38.9267 106.866 39.2049 106.866C39.4823 106.866 39.7078 107.09 39.7078 107.366Z"/>
</mask>
<path d="M39.7078 107.366C39.7078 107.642 39.4831 107.865 39.2049 107.865C38.9274 107.865 38.702 107.642 38.702 107.366C38.702 107.09 38.9267 106.866 39.2049 106.866C39.4823 106.866 39.7078 107.09 39.7078 107.366Z" fill="black"/>
<path d="M39.7078 107.366H38.7078C38.7078 107.084 38.9364 106.865 39.2049 106.865V107.865V108.865C40.0297 108.865 40.7078 108.199 40.7078 107.366H39.7078ZM39.2049 107.865V106.865C39.4731 106.865 39.702 107.083 39.702 107.366H38.702H37.702C37.702 108.2 38.3818 108.865 39.2049 108.865V107.865ZM38.702 107.366H39.702C39.702 107.648 39.4733 107.866 39.2049 107.866V106.866V105.866C38.3801 105.866 37.702 106.532 37.702 107.366H38.702ZM39.2049 106.866V107.866C38.9367 107.866 38.7078 107.649 38.7078 107.366H39.7078H40.7078C40.7078 106.531 40.0279 105.866 39.2049 105.866V106.866Z" fill="#A8452C" mask="url(#path-44-inside-3_3_545)"/>
<mask id="path-46-inside-4_3_545" fill="white">
<path d="M21.8815 87.8169C21.8815 88.0928 21.6568 88.3165 21.3786 88.3165C21.1012 88.3165 20.8757 88.0928 20.8757 87.8169C20.8757 87.5411 21.1004 87.3174 21.3786 87.3174C21.6561 87.3174 21.8815 87.5411 21.8815 87.8169Z"/>
</mask>
<path d="M21.8815 87.8169C21.8815 88.0928 21.6568 88.3165 21.3786 88.3165C21.1012 88.3165 20.8757 88.0928 20.8757 87.8169C20.8757 87.5411 21.1004 87.3174 21.3786 87.3174C21.6561 87.3174 21.8815 87.5411 21.8815 87.8169Z" fill="black"/>
<path d="M21.8815 87.8169H20.8815C20.8815 87.5348 21.1102 87.3165 21.3786 87.3165V88.3165V89.3165C22.2035 89.3165 22.8815 88.6507 22.8815 87.8169H21.8815ZM21.3786 88.3165V87.3165C21.6468 87.3165 21.8757 87.5338 21.8757 87.8169H20.8757H19.8757C19.8757 88.6517 20.5556 89.3165 21.3786 89.3165V88.3165ZM20.8757 87.8169H21.8757C21.8757 88.099 21.6471 88.3174 21.3786 88.3174V87.3174V86.3174C20.5538 86.3174 19.8757 86.9832 19.8757 87.8169H20.8757ZM21.3786 87.3174V88.3174C21.1104 88.3174 20.8815 88.1 20.8815 87.8169H21.8815H22.8815C22.8815 86.9822 22.2017 86.3174 21.3786 86.3174V87.3174Z" fill="#A8452C" mask="url(#path-46-inside-4_3_545)"/>
<path d="M54.5632 15.2338C73.6469 15.2338 89.1173 13.2764 89.1173 10.862C89.1173 8.44753 73.6469 6.49023 54.5632 6.49023C35.4794 6.49023 20.009 8.44753 20.009 10.862C20.009 13.2764 35.4794 15.2338 54.5632 15.2338Z" stroke="#A8452C" stroke-width="3.4129" stroke-miterlimit="10" stroke-linecap="round" stroke-linejoin="round"/>
<path d="M20.2001 16.6704C20.2001 16.3831 37.3966 19.9266 54.0198 19.5435" stroke="#A8452C" stroke-width="0.9627" stroke-miterlimit="10" stroke-linecap="round" stroke-linejoin="round"/>
<path d="M58.5099 19.5435C58.5099 19.5435 77.0439 19.4477 89.1769 16.3831" stroke="#A8452C" stroke-width="0.9627" stroke-miterlimit="10" stroke-linecap="round" stroke-linejoin="round"/>
</svg>
