<svg width="120" height="159" viewBox="0 0 120 159" fill="none" xmlns="http://www.w3.org/2000/svg">
<path d="M71.7081 37.4824C72.2245 40.9434 79.1923 46.7842 85.1272 49.5969C91.063 52.409 91.8372 61.7114 90.8044 64.5234C89.7724 67.3355 89.7724 73.3931 89.7724 75.2777C89.7724 77.163 94.6754 95.4577 97.5143 100.866C100.353 106.274 112.482 122.663 112.482 122.663C111.611 123.008 110.72 123.072 109.827 122.921C103.579 121.863 97.2557 110.239 97.2557 110.239L99.5783 120.297C94.6754 117.446 88.7396 107.356 88.7396 107.356C88.7396 107.356 89.7716 129.421 104.74 129.421C104.74 129.421 111.514 128.691 108.094 122.688" stroke="#A8452C" stroke-width="2.1499" stroke-miterlimit="10" stroke-linecap="round" stroke-linejoin="round"/>
<path d="M63.192 48.2984L95.1917 3.37476L49.5143 35.7517C49.5143 35.7517 46.6761 50.2454 63.192 48.2984Z" stroke="#A8452C" stroke-width="2.1499" stroke-miterlimit="10" stroke-linecap="round" stroke-linejoin="round"/>
<path d="M17.1917 65.551C16.9982 65.0642 8.28849 58.0877 6.93365 51.2734C5.57882 44.4591 3.83688 40.2407 3.83688 40.2407C3.83688 40.2407 6.93365 38.6183 7.32075 32.7775C7.70785 26.9367 18.1595 15.7418 20.8691 16.2285C23.5788 16.7152 35.3853 15.0928 40.4175 29.2081C45.4498 43.3234 52.0304 45.2703 30.1595 58.2499C30.1595 58.2499 23.7724 62.4274 28.4175 69.1002" stroke="#A8452C" stroke-width="2.1499" stroke-miterlimit="10" stroke-linecap="round" stroke-linejoin="round"/>
<path d="M59.7267 28.5131C59.7267 28.5131 53.4015 20.9025 49.3293 16.213C45.257 11.5234 28.0312 7.30507 20.8699 16.2285" stroke="#A8452C" stroke-width="2.1499" stroke-miterlimit="10" stroke-linecap="round" stroke-linejoin="round"/>
<path d="M109.057 126.356C109.057 126.356 112.548 134.667 112.483 135.154C112.418 135.641 110.87 138.326 110.289 140.228C109.709 142.13 115.515 146.998 96.5473 146.511C96.5473 146.511 82.4183 140.67 78.9344 135.316C75.4506 129.962 59.7731 108.546 58.0312 108.546C56.2893 108.546 49.128 108.221 46.8054 105.95C44.4828 103.678 40.2983 97.8376 40.2983 97.8376" stroke="#A8452C" stroke-width="2.1499" stroke-miterlimit="10" stroke-linecap="round" stroke-linejoin="round"/>
<path d="M38.095 106.112C38.095 106.112 40.9982 87.7245 46.4175 83.4517C46.4175 83.4517 34.4175 83.8845 29.7724 99.2978" stroke="#A8452C" stroke-width="2.1499" stroke-miterlimit="10" stroke-linecap="round" stroke-linejoin="round"/>
<path d="M10.4524 58.2927C10.4524 58.2927 8.09571 61.3325 12.5473 65.3887C16.9989 69.4448 22.4183 72.6897 25.7086 80.9642C28.9989 89.2387 33.401 91.5795 33.401 91.5795" stroke="#A8452C" stroke-width="2.1499" stroke-miterlimit="10" stroke-linecap="round" stroke-linejoin="round"/>
<path d="M86.4124 52.7849C85.2758 51.6466 83.2498 51.3312 81.5466 51.7387C79.8433 52.1463 78.4327 53.162 77.3063 54.3081C76.6056 55.0206 75.9886 55.7994 75.5783 56.6567C75.0844 57.6899 74.904 58.8061 74.7275 59.9094C74.5827 60.8141 74.4387 61.7188 74.2939 62.6234" stroke="#A8452C" stroke-width="2.1499" stroke-miterlimit="10" stroke-linecap="round" stroke-linejoin="round"/>
<path d="M85.656 62.9574C85.7187 62.067 85.7814 61.1767 85.8433 60.2863C85.8758 59.8222 85.9068 59.3446 85.7295 58.9039C85.2023 57.593 82.9904 57.2432 81.5589 57.9317C80.1275 58.6203 79.3556 59.9715 78.8392 61.285C77.2033 65.4404 77.3071 70.0612 79.1272 74.1621" stroke="#A8452C" stroke-miterlimit="10" stroke-linecap="round" stroke-linejoin="round"/>
<path d="M59.4333 65.2856C56.6903 63.9694 54.0821 62.4567 51.6449 60.77C50.3063 59.8432 49.0041 58.8555 47.4697 58.1753C45.9352 57.4952 44.0996 57.148 42.4483 57.5958C38.9806 58.5362 37.8379 62.3496 34.6599 63.8448" stroke="#A8452C" stroke-width="2.1499" stroke-miterlimit="10" stroke-linecap="round" stroke-linejoin="round"/>
<path d="M57.0093 66.279C53.6315 65.6963 50.4093 64.4917 47.6346 62.7752C46.8093 62.2644 45.7246 61.6869 44.8513 62.1379" stroke="#A8452C" stroke-width="2.1499" stroke-miterlimit="10" stroke-linecap="round" stroke-linejoin="round"/>
<path d="M40.2805 37.1366C39.5203 35.3007 38.76 33.4647 37.9997 31.6287C37.2968 29.9323 36.5435 28.1671 34.9928 26.9282C33.905 26.0585 32.5068 25.5186 31.1164 25.039C28.2364 24.0454 25.2635 23.2407 22.2341 22.6352C21.679 22.5242 21.0782 22.4223 20.5525 22.6079C20.0981 22.7682 19.7822 23.1141 19.4926 23.449C15.8601 27.6447 12.9182 32.4283 12.2903 37.5857C11.6625 42.7432 13.663 48.314 18.463 51.5836" stroke="#A8452C" stroke-miterlimit="10" stroke-linecap="round" stroke-linejoin="round"/>
<path d="M20.2049 47.4282C17.1414 44.1314 14.7623 40.3888 13.2062 36.4183C12.9499 35.7641 12.7146 35.0567 12.9499 34.3967" stroke="#A8452C" stroke-miterlimit="10" stroke-linecap="round" stroke-linejoin="round"/>
<path d="M50.5092 29.0431C49.1706 26.8736 47.832 24.7041 46.4934 22.5345C45.8663 21.5182 45.2261 20.4863 44.2769 19.6654C43.327 18.8438 42.0062 18.2487 40.6452 18.335" stroke="#A8452C" stroke-miterlimit="10" stroke-linecap="round" stroke-linejoin="round"/>
<path d="M43.3285 24.1519C42.336 23.2602 41.592 22.1758 41.1716 21.0083C40.7915 19.953 40.6235 18.7589 39.6751 17.9944C39.1184 17.5466 38.3659 17.3156 37.6227 17.1417C34.8704 16.4992 31.9115 16.4914 29.1538 17.1196" stroke="#A8452C" stroke-miterlimit="10" stroke-linecap="round" stroke-linejoin="round"/>
<path d="M47.328 106.5C44.568 107.722 42.8671 110.109 41.3868 112.413C39.7308 114.991 38.1739 117.613 36.6178 120.234C37.0637 113.81 39.0496 107.465 42.4204 101.684" stroke="#A8452C" stroke-width="2.1499" stroke-miterlimit="10" stroke-linecap="round" stroke-linejoin="round"/>
<path d="M72.7029 127.479C70.8766 128.454 68.9411 129.285 66.9313 129.96C66.5574 130.085 66.0735 130.188 65.7979 129.941C65.6493 129.808 65.6168 129.614 65.5974 129.432C65.3264 126.956 66.7115 123.975 68.3125 121.882C66.5125 122.729 64.6583 123.494 62.7592 124.172C62.4666 124.276 62.1228 124.378 61.8433 124.25C61.4477 124.07 61.4795 123.591 61.584 123.224C62.1693 121.166 63.7045 118.36 65.3373 116.746C62.345 117.685 59.4162 118.765 56.568 119.979C57.5435 116.974 58.1109 112.806 59.5207 109.924C56.9837 111.22 54.5396 112.642 52.2054 114.182C52.474 112.274 52.8975 110.38 53.4704 108.519" stroke="#A8452C" stroke-width="2.1499" stroke-miterlimit="10" stroke-linecap="round" stroke-linejoin="round"/>
<path d="M79.1194 136.889C73.0629 140.296 68.2204 144.891 63.4498 149.432C65.9009 142.757 69.9135 136.499 74.7274 130.716" stroke="#A8452C" stroke-width="2.5808" stroke-miterlimit="10" stroke-linecap="round" stroke-linejoin="round"/>
<path d="M100.931 146.875C98.7198 147.944 96.5087 149.014 94.2976 150.084C94.0057 150.225 93.6147 150.361 93.36 150.175C93.1425 150.017 93.1819 149.73 93.2462 149.495C93.5899 148.237 93.0635 147.132 93.7665 145.984C93.0999 146.682 92.4132 147.396 91.495 147.852C90.5776 148.308 89.3652 148.457 88.4547 147.992C87.4939 147.501 87.1154 146.446 87.2625 145.511C87.4096 144.576 87.3639 143.518 87.9484 142.712C87.1355 143.501 86.3226 144.291 85.5097 145.08C84.8702 145.701 84.137 146.366 83.1639 146.459C82.1675 146.555 81.2036 145.976 80.7499 145.227C80.2963 144.477 80.2699 143.594 80.393 142.76C80.5928 141.411 81.1564 140.118 81.833 138.883" stroke="#A8452C" stroke-width="2.1499" stroke-miterlimit="10" stroke-linecap="round" stroke-linejoin="round"/>
<path d="M25.7078 80.9641C27.1355 85.5861 25.992 93.945 28.5964 98.1913C30.1502 100.724 32.7484 102.676 35.29 104.567C36.5148 105.478 37.7396 106.389 38.9644 107.3" stroke="#A8452C" stroke-width="2.1499" stroke-miterlimit="10" stroke-linecap="round" stroke-linejoin="round"/>
<path d="M43.7752 110.206C45.4196 111.942 47.9528 112.874 50.119 114.146C52.7636 115.7 54.9228 117.828 56.3288 120.265C56.9822 121.398 57.4738 122.594 58.1458 123.72C60.9043 128.345 66.3554 131.338 71.5634 134.11" stroke="#A8452C" stroke-width="2.1499" stroke-miterlimit="10" stroke-linecap="round" stroke-linejoin="round"/>
<path d="M12.1385 65.22C11.6941 69.9296 7.82626 74.0805 7.57542 78.7999C7.43839 81.3867 8.41001 83.9262 9.60846 86.3131C13.7651 94.5908 20.6817 101.679 25.5553 109.677C28.923 115.204 31.323 121.176 35.4983 126.302C37.9114 129.265 40.8704 131.883 43.8843 134.43C47.9287 137.849 52.1256 141.184 56.9218 143.833C62.8033 147.082 69.4397 149.22 76.0172 151.332C77.3264 151.753 78.6596 152.178 80.0578 152.261C81.0704 152.321 82.0861 152.2 83.0856 152.048C86.6098 151.51 90.048 150.58 93.2825 149.291C93.154 148.905 93.0263 148.519 92.8978 148.133" stroke="#A8452C" stroke-width="2.1499" stroke-miterlimit="10" stroke-linecap="round" stroke-linejoin="round"/>
<path d="M48.1277 128.686C46.2728 128.131 44.5719 127.214 43.1985 126.031C42.6317 125.542 42.1208 125.011 41.6106 124.479C40.0723 122.877 38.5332 121.274 36.9948 119.671C35.5471 118.163 33.5535 115.512 32.9435 113.645C31.8077 110.17 30.3546 106.768 28.6003 103.479C27.9499 102.259 27.2462 101.039 26.2095 100.024C24.4885 98.3394 21.9662 97.3296 20.2846 95.6176C18.7742 94.0801 18.0705 92.1118 17.4023 90.2012C16.3425 87.1724 15.2834 84.1443 14.2235 81.1155" stroke="#A8452C" stroke-miterlimit="10" stroke-linecap="round" stroke-linejoin="round"/>
<path d="M84.7231 102.953C81.0689 97.0148 78.7061 90.5198 77.784 83.8833" stroke="#A8452C" stroke-miterlimit="10" stroke-linecap="round" stroke-linejoin="round"/>
<path d="M101.816 140.979C99.9003 141.132 98.0678 140.341 96.4389 139.483C90.514 136.362 85.5313 131.996 82.0745 126.896C79.9726 123.794 78.4366 120.447 76.4593 117.288C74.4828 114.13 71.9767 111.09 68.4371 109.11" stroke="#A8452C" stroke-miterlimit="10" stroke-linecap="round" stroke-linejoin="round"/>
<path d="M51.1541 103.396C51.5427 102.959 51.0519 102.37 50.6152 101.967C48.672 100.17 47.3172 97.9299 46.7373 95.554" stroke="#A8452C" stroke-miterlimit="10" stroke-linecap="round" stroke-linejoin="round"/>
<path d="M86.7027 14.8948C85.3719 14.19 84.4335 12.9855 84.199 11.6804" stroke="#A8452C" stroke-miterlimit="10" stroke-linecap="round" stroke-linejoin="round"/>
<path d="M78.1711 26.6017C76.7497 25.2564 75.2291 23.6515 75.559 21.8759C75.624 21.5274 75.7602 21.1873 75.7765 20.8349C75.8245 19.816 74.8947 18.9717 74.0291 18.2559" stroke="#A8452C" stroke-miterlimit="10" stroke-linecap="round" stroke-linejoin="round"/>
<path d="M70.1992 38.295C68.5633 36.9374 67.536 35.0761 67.3618 33.1519C67.2271 31.6689 67.5778 30.1464 67.135 28.7064C66.7332 27.3987 65.7151 26.2909 64.6653 25.2661" stroke="#A8452C" stroke-miterlimit="10" stroke-linecap="round" stroke-linejoin="round"/>
<path d="M63.1053 47.4821C62.2498 47.5729 61.5391 46.9506 61.0637 46.3477C59.7995 44.7427 59.0702 42.8451 58.9781 40.9235C58.913 39.5639 59.1577 38.1861 58.8534 36.8498C58.4934 35.2735 57.4026 33.8931 56.335 32.5607C56.0841 32.2473 55.7706 31.902 55.3208 31.8767" stroke="#A8452C" stroke-miterlimit="10" stroke-linecap="round" stroke-linejoin="round"/>
<path d="M66.8763 42.9113C65.4131 42.0027 65.3938 40.2264 65.1243 38.7169C64.745 36.5902 63.5821 34.566 61.8356 32.991" stroke="#A8452C" stroke-miterlimit="10" stroke-linecap="round" stroke-linejoin="round"/>
<path d="M70.0924 21.6428C70.5964 22.273 70.9014 23.0135 70.9688 23.7702C71.0865 25.0999 70.4865 26.3934 70.279 27.7153C70.0715 29.0373 70.4191 30.6065 71.8142 31.2471" stroke="#A8452C" stroke-miterlimit="10" stroke-linecap="round" stroke-linejoin="round"/>
<path d="M80.8606 22.2497C81.4606 21.4242 80.7693 20.4008 80.4286 19.4773C79.951 18.1832 80.2041 16.7892 80.4604 15.4517" stroke="#A8452C" stroke-miterlimit="10" stroke-linecap="round" stroke-linejoin="round"/>
<path d="M87.6302 9.40308C87.0643 9.91317 87.4096 10.897 88.2147 11.069" stroke="#A8452C" stroke-miterlimit="10" stroke-linecap="round" stroke-linejoin="round"/>
<path d="M52.2279 33.7451C52.5817 34.5823 52.9347 35.4195 53.2885 36.2573C53.4983 36.7544 53.7112 37.2645 53.7081 37.7922C53.7042 38.3483 53.4611 38.8857 53.4077 39.4399C53.2761 40.8138 54.4916 42.1896 56.0973 42.4856" stroke="#A8452C" stroke-miterlimit="10" stroke-linecap="round" stroke-linejoin="round"/>
<path d="M51.5357 69.3591C53.2297 69.5934 55.0854 69.9036 56.1492 71.0335C57.0418 71.981 57.1494 73.2751 57.175 74.4822C57.2361 77.3507 57.0449 80.2237 56.6036 83.0688C53.2947 81.8611 49.8557 80.9032 46.3425 80.2107C44.9288 79.9317 43.4981 79.6948 42.1293 79.2872C38.7167 78.2703 35.7825 76.1669 34.0545 73.499C33.8145 73.1278 33.5907 72.7189 33.6558 72.3003C33.775 71.5358 34.7512 71.1153 35.6021 70.8239C37.9665 70.014 40.9943 68.4032 43.5383 68.2461C46.0359 68.091 49.0374 69.0976 51.5357 69.3591Z" stroke="#A8452C" stroke-width="2.1499" stroke-miterlimit="10" stroke-linecap="round" stroke-linejoin="round"/>
<path d="M51.4165 69.5967C49.7218 73.9371 51.4986 79.077 55.7001 81.9857C55.8821 81.8721 55.9626 81.656 55.8898 81.4763" stroke="#A8452C" stroke-width="2.1499" stroke-miterlimit="10" stroke-linecap="round" stroke-linejoin="round"/>
<path d="M46.666 68.8225C44.1971 72.3517 44.5316 77.1171 47.4781 80.3789" stroke="#A8452C" stroke-width="2.1499" stroke-miterlimit="10" stroke-linecap="round" stroke-linejoin="round"/>
<path d="M41.4325 68.9834C39.8044 69.9439 38.9512 71.6552 38.9272 73.3238C38.9032 74.9929 39.6232 76.6186 40.6304 78.0587" stroke="#A8452C" stroke-width="2.1499" stroke-miterlimit="10" stroke-linecap="round" stroke-linejoin="round"/>
<path d="M107.583 145.898C107.807 145.909 107.708 146.207 107.546 146.337C103.55 149.561 99.0472 152.344 94.1922 154.592C96.3863 152.217 98.5804 149.841 100.774 147.466" stroke="#A8452C" stroke-width="2.1499" stroke-miterlimit="10" stroke-linecap="round" stroke-linejoin="round"/>
<path d="M105.431 121.659C105.948 122.485 106.188 123.431 106.117 124.361C106.078 124.874 105.908 125.432 105.403 125.722C105.101 125.895 104.725 125.946 104.361 125.965C100.914 126.15 97.865 123.942 96.1788 121.414C94.4926 118.887 93.7688 115.994 92.3922 113.338" stroke="#A8452C" stroke-miterlimit="10" stroke-linecap="round" stroke-linejoin="round"/>
<path d="M37.5847 70.4448C36.915 70.8037 36.5434 71.4637 36.4335 72.1237C36.3236 72.7837 36.442 73.4535 36.5605 74.1122" stroke="#A8452C" stroke-miterlimit="10" stroke-linecap="round" stroke-linejoin="round"/>
<path d="M43.7311 79.1198C42.4668 78.1301 41.7778 76.6459 41.9117 75.2" stroke="#A8452C" stroke-miterlimit="10" stroke-linecap="round" stroke-linejoin="round"/>
<path d="M44.2552 69.0085C43.0947 70.0683 42.2942 71.4039 41.9736 72.8174" stroke="#A8452C" stroke-miterlimit="10" stroke-linecap="round" stroke-linejoin="round"/>
<path d="M51.3104 80.8817C50.8931 80.5429 50.4859 80.1951 50.0895 79.8394C49.7822 79.5636 49.4802 79.2819 49.2294 78.9685C48.5899 78.1689 48.3151 77.2091 48.0526 76.272" stroke="#A8452C" stroke-miterlimit="10" stroke-linecap="round" stroke-linejoin="round"/>
<path d="M49.0459 69.3474C47.7375 70.9095 47.098 72.8571 47.2691 74.7606" stroke="#A8452C" stroke-miterlimit="10" stroke-linecap="round" stroke-linejoin="round"/>
<path d="M56.1198 80.9855C54.6449 78.9983 53.8305 76.6698 53.7933 74.3296" stroke="#A8452C" stroke-miterlimit="10" stroke-linecap="round" stroke-linejoin="round"/>
<path d="M54.2896 70.6648C54.1053 71.3839 53.921 72.1023 53.736 72.8214" stroke="#A8452C" stroke-miterlimit="10" stroke-linecap="round" stroke-linejoin="round"/>
<path d="M79.5019 81.0349C79.3773 83.2551 79.6978 85.4921 80.4457 87.6247" stroke="#A8452C" stroke-miterlimit="10" stroke-linecap="round" stroke-linejoin="round"/>
<path d="M36.1571 91.4211C34.9571 92.8671 33.9615 94.4324 33.1989 96.0743" stroke="#A8452C" stroke-miterlimit="10" stroke-linecap="round" stroke-linejoin="round"/>
<path d="M44.6562 105.958C43.2472 106.535 42.4606 107.796 41.7685 108.976" stroke="#A8452C" stroke-miterlimit="10" stroke-linecap="round" stroke-linejoin="round"/>
<path d="M52.7628 108.596C52.9533 108.559 52.8689 108.846 52.704 108.934C50.7189 109.995 48.7347 111.055 46.7497 112.116C46.9951 110.49 47.1166 108.851 47.1143 107.211" stroke="#A8452C" stroke-width="2.1499" stroke-miterlimit="10" stroke-linecap="round" stroke-linejoin="round"/>
<path d="M33.4003 91.5795C31.6676 91.8709 29.321 93.1695 27.5621 93.3084C28.289 91.8028 29.016 90.2971 29.7437 88.7915" stroke="#A8452C" stroke-width="2.1499" stroke-miterlimit="10" stroke-linecap="round" stroke-linejoin="round"/>
<path d="M74.7708 133.84C73.8441 134.98 72.9182 136.121 71.9915 137.261" stroke="#A8452C" stroke-miterlimit="10" stroke-linecap="round" stroke-linejoin="round"/>
<path d="M103.654 140.966C105.161 141.141 106.736 140.881 108.051 140.24" stroke="#A8452C" stroke-miterlimit="10" stroke-linecap="round" stroke-linejoin="round"/>
<path d="M7.55686 41.1147C7.59325 41.6093 7.63042 42.1044 7.66681 42.599C7.91145 45.901 8.18861 49.3075 9.95996 52.2636" stroke="#A8452C" stroke-miterlimit="10" stroke-linecap="round" stroke-linejoin="round"/>
<path d="M12.0921 55.9707C12.9693 57.2583 13.9935 58.4764 15.1448 59.6017" stroke="#A8452C" stroke-miterlimit="10" stroke-linecap="round" stroke-linejoin="round"/>
<path d="M13.4973 78.9906C13.1272 77.0858 13.2464 75.1148 13.8441 73.251" stroke="#A8452C" stroke-miterlimit="10" stroke-linecap="round" stroke-linejoin="round"/>
<path d="M52.0242 130.358C53.5649 131.238 54.8903 131.93 56.0392 133.16C58.7659 136.081 62.2072 138.53 66.0867 140.312C66.353 140.435 66.6309 140.683 66.8469 140.863" stroke="#A8452C" stroke-miterlimit="10" stroke-linecap="round" stroke-linejoin="round"/>
</svg>
