<svg width="128" height="133" viewBox="0 0 128 133" fill="none" xmlns="http://www.w3.org/2000/svg">
<path d="M26.6653 81.784C26.6653 81.784 15.4962 84.518 15.4962 89.3029C15.4962 94.0872 40.4707 95.4544 66.2021 95.4544C66.2021 95.4544 112.746 95.7963 116.53 87.9362C116.53 87.9362 116.739 82.4683 99.7113 80.418" stroke="#A8452C" stroke-width="2.1499" stroke-miterlimit="10" stroke-linecap="round" stroke-linejoin="round"/>
<path d="M22.1536 83.2842C22.1536 83.2842 9.72592 86.9958 10.8607 96.5649C11.9962 106.133 31.2946 125.955 31.2946 125.955C31.2946 125.955 62.8438 136.805 102.624 125.955C102.624 125.955 121.922 106.134 123.058 96.5649C124.193 86.9964 111.837 83.3681 111.837 83.3681" stroke="#A8452C" stroke-width="2.1499" stroke-miterlimit="10" stroke-linecap="round" stroke-linejoin="round"/>
<path d="M11.3342 95.4546C11.3342 95.4546 17.3887 102.973 53.9045 103.827" stroke="#A8452C" stroke-miterlimit="10" stroke-linecap="round" stroke-linejoin="round"/>
<path d="M122.585 95.6245C122.585 95.6245 116.53 103.143 80.0144 103.997" stroke="#A8452C" stroke-miterlimit="10" stroke-linecap="round" stroke-linejoin="round"/>
<path d="M16.2532 107.415C16.2532 107.415 59.7698 118.009 117.666 107.415" stroke="#A8452C" stroke-miterlimit="10" stroke-linecap="round" stroke-linejoin="round"/>
<path d="M24.2332 118.361C37.7008 120.649 69.3395 124.434 108.942 118.582" stroke="#A8452C" stroke-miterlimit="10" stroke-linecap="round" stroke-linejoin="round"/>
<path d="M58.445 103.998C58.445 103.998 67.5268 104.681 75.8517 103.827" stroke="#A8452C" stroke-miterlimit="10" stroke-linecap="round" stroke-linejoin="round"/>
<path d="M30.6326 110.32L41.7011 120.315" stroke="#A8452C" stroke-miterlimit="10" stroke-linecap="round" stroke-linejoin="round"/>
<path d="M40.9442 111.003L31.7681 119.461" stroke="#A8452C" stroke-miterlimit="10" stroke-linecap="round" stroke-linejoin="round"/>
<path d="M51.0898 112.028L62.0166 121.576" stroke="#A8452C" stroke-miterlimit="10" stroke-linecap="round" stroke-linejoin="round"/>
<path d="M61.7565 112.456L52.1545 121.192" stroke="#A8452C" stroke-miterlimit="10" stroke-linecap="round" stroke-linejoin="round"/>
<path d="M72.5849 112.032L82.6632 120.871" stroke="#A8452C" stroke-miterlimit="10" stroke-linecap="round" stroke-linejoin="round"/>
<path d="M82.7079 112.03L72.9655 121.171" stroke="#A8452C" stroke-miterlimit="10" stroke-linecap="round" stroke-linejoin="round"/>
<path d="M88.245 111.26L97.8938 119.974" stroke="#A8452C" stroke-miterlimit="10" stroke-linecap="round" stroke-linejoin="round"/>
<path d="M98.84 110.662L87.7715 120.657" stroke="#A8452C" stroke-miterlimit="10" stroke-linecap="round" stroke-linejoin="round"/>
<path d="M52.9644 95.319C53.7132 92.8001 51.7581 89.531 49.0494 88.6261C46.3415 87.7212 43.352 88.0177 40.47 88.1731C36.4882 88.3881 32.0695 88.165 29.1846 85.6765C26.2351 83.1327 25.9702 78.4684 28.6169 75.6655C31.2636 72.8625 36.4049 72.3616 39.6524 74.5897" stroke="#A8452C" stroke-width="2.1499" stroke-miterlimit="10" stroke-linecap="round" stroke-linejoin="round"/>
<path d="M57.4211 57.7736C61.9024 56.4274 67.3307 58.7208 69.058 62.6909C70.0414 64.9506 70.2761 67.9537 72.7604 68.8816C75.0974 69.7548 77.5659 68.0376 80.0598 67.6585C83.1312 67.1917 86.3353 69.0127 87.5224 71.6131C88.7088 74.2134 87.9972 77.3501 86.0504 79.5452C84.1035 81.7403 81.0659 83.0256 77.9706 83.3326C75.8448 83.5433 73.0763 82.8174 72.9228 80.8914C72.8031 79.3861 74.4272 78.2649 75.9576 77.659" stroke="#A8452C" stroke-width="2.1499" stroke-miterlimit="10" stroke-linecap="round" stroke-linejoin="round"/>
<path d="M87.8699 94.5641C88.2979 93.7052 89.0825 92.0339 89.1733 91.0955C89.2641 90.157 88.9476 89.1322 88.1169 88.5617C85.8267 86.9899 82.3645 89.9662 79.7963 88.796C79.159 88.5057 78.68 87.9868 78.3311 87.4243C77.6554 86.3348 77.4131 85.0316 77.6588 83.8022" stroke="#A8452C" stroke-width="2.1499" stroke-miterlimit="10" stroke-linecap="round" stroke-linejoin="round"/>
<path d="M30.4502 73.8991C26.6708 72.5834 25.1424 67.4628 26.6233 64.0583C28.1042 60.6531 31.5375 58.2803 35.0149 56.4046C38.4922 54.5289 42.2386 52.9223 45.0629 50.2996C49.1685 46.4868 50.7602 41.0885 53.3092 36.2942C54.4303 34.1855 55.7571 32.1669 57.2683 30.2676C57.9826 29.3702 58.7568 28.4839 59.7732 27.8674C62.4922 26.2186 66.4733 27.0259 68.641 29.2427C70.8088 31.4596 71.3208 34.72 70.583 37.6019C69.8453 40.4831 68.0045 43.0393 65.9193 45.3196C64.2209 47.1772 62.3016 48.9516 61.3168 51.1909C60.332 53.4301 60.5268 55.1287 61.8515 57.5208" stroke="#A8452C" stroke-width="2.1499" stroke-miterlimit="10" stroke-linecap="round" stroke-linejoin="round"/>
<path d="M85.1393 27.318C83.6666 26.7879 82.5256 25.6046 82.0507 24.2385C81.7239 23.2994 81.7211 22.2062 82.3515 21.4033C82.7086 20.9489 83.2337 20.627 83.6487 20.2143C84.8468 19.0217 84.97 17.2722 85.142 15.67C85.6361 11.0653 87.3813 6.12006 91.7368 3.68504C92.4869 3.26553 93.3877 2.92557 94.2355 3.14683C94.9829 3.34197 95.5169 3.93177 95.9174 4.534C97.4465 6.83043 97.6819 9.78999 96.5319 12.2598C95.8259 13.7769 94.6429 15.0951 94.0415 16.6488C93.3643 18.4002 93.4765 20.3094 93.1771 22.1441C92.6445 25.4125 89.0976 28.7425 85.1393 27.318Z" stroke="#A8452C" stroke-width="2.1499" stroke-miterlimit="10" stroke-linecap="round" stroke-linejoin="round"/>
<path d="M53.9967 65.124C52.8082 67.2974 53.3835 70.1463 55.3448 71.8007C53.665 71.7038 51.9521 71.6516 50.3253 72.0413C48.6985 72.4309 47.1459 73.3265 46.4089 74.6926C45.6726 76.0592 45.963 77.9144 47.3235 78.8093C48.1486 79.3525 49.2194 79.4855 50.2406 79.488C51.9907 79.493 53.7414 79.1624 55.3421 78.5241" stroke="#A8452C" stroke-width="2.1499" stroke-miterlimit="10" stroke-linecap="round" stroke-linejoin="round"/>
<path d="M64.6297 81.0581C63.7873 82.5783 64.3523 84.6187 65.8876 85.6019C66.7885 86.1786 67.9074 86.3918 68.9053 86.8194C69.9031 87.247 70.8638 88.0412 70.848 89.0387C70.8287 90.2426 69.4434 91.0344 68.1662 91.378C66.8889 91.7217 65.4479 91.9051 64.5519 92.7957C64.0021 93.342 63.8114 94.7273 63.9339 95.4569" stroke="#A8452C" stroke-width="2.1499" stroke-miterlimit="10" stroke-linecap="round" stroke-linejoin="round"/>
<path d="M60.0671 41.8008C60.0237 45.1556 58.5056 48.4464 56.0454 50.9604C53.5852 53.4743 50.2214 55.2189 46.6229 56.0529C45.557 56.2996 44.449 56.4768 43.4925 56.9684C42.1622 57.652 41.2394 58.9435 41.0983 60.3195C40.9572 61.6955 41.6014 63.1187 42.7699 64.0112" stroke="#A8452C" stroke-width="2.1499" stroke-miterlimit="10" stroke-linecap="round" stroke-linejoin="round"/>
<path d="M72.7604 68.8819C72.7604 68.8819 99.9749 30.5238 114.449 25.9099C128.923 21.2965 93.164 94.3433 93.164 94.3433" stroke="#A8452C" stroke-width="2.1499" stroke-miterlimit="10" stroke-linecap="round" stroke-linejoin="round"/>
<path d="M7.73163 87.0684C7.90112 87.7193 8.12217 88.4296 8.41132 89.1514C9.24831 91.2406 10.685 93.4978 13.1203 94.6279C12.5782 94.8029 11.9786 95.0621 11.3762 95.4463C9.80937 96.4457 8.28943 98.2468 7.65643 101.434C7.46403 100.83 7.22269 100.173 6.9201 99.5059C5.99508 97.4653 4.46887 95.2471 2.00507 94.1631C2.58554 93.9463 3.2514 93.6245 3.92694 93.1416C5.44293 92.0578 6.96422 90.2041 7.73163 87.0684Z" fill="black" stroke="#A8452C"/>
<path d="M89.0887 38.1997C89.2582 38.8506 89.4793 39.5609 89.7684 40.2827C90.6054 42.372 92.0421 44.6292 94.4774 45.7593C93.9353 45.9343 93.3357 46.1934 92.7332 46.5776C91.1664 47.5771 89.6465 49.3781 89.0135 52.5649C88.8211 51.9611 88.5798 51.3047 88.2772 50.6372C87.3521 48.5967 85.8257 46.3785 83.3622 45.2944C83.9426 45.0777 84.6085 44.7559 85.284 44.2729C86.8 43.1891 88.3213 41.3354 89.0887 38.1997Z" fill="black" stroke="#A8452C"/>
<path d="M117.847 115.433C118.017 116.084 118.238 116.794 118.527 117.516C119.364 119.605 120.801 121.863 123.236 122.993C122.694 123.168 122.094 123.427 121.492 123.811C119.925 124.81 118.405 126.611 117.772 129.798C117.58 129.194 117.338 128.538 117.036 127.871C116.111 125.83 114.584 123.612 112.121 122.528C112.701 122.311 113.367 121.989 114.043 121.506C115.559 120.423 117.08 118.569 117.847 115.433Z" fill="black" stroke="#A8452C"/>
<path d="M34.6033 77.5469C32.7714 78.6482 33.1823 81.4045 34.8731 82.6767C36.5639 83.9489 38.9443 84.1061 41.1444 84.0577C43.4636 84.0067 45.7868 83.7929 48.0984 83.9663C50.41 84.1397 52.7635 84.7407 54.5135 86.116C57.0185 88.0849 57.6654 92.4031 57.7232 95.4018" stroke="#A8452C" stroke-miterlimit="10" stroke-linecap="round" stroke-linejoin="round"/>
<path d="M34.3859 72.8893C32.9593 71.934 32.1211 69.7625 31.9236 68.169C31.5857 65.4494 33.463 62.6284 36.2804 61.6216" stroke="#A8452C" stroke-miterlimit="10" stroke-linecap="round" stroke-linejoin="round"/>
<path d="M56.7907 61.9572C59.4147 61.7273 62.1247 63.038 63.3669 65.138C63.9903 66.1927 64.2608 67.3965 64.9111 68.4375C65.9165 70.046 67.7684 71.1261 69.7366 71.6271C71.7054 72.128 73.7926 72.1037 75.8269 71.9148C77.1117 71.7955 78.4337 71.614 79.6765 71.931C81.9303 72.5059 83.4009 74.8818 82.763 76.9166C82.1257 78.9514 79.4948 80.2789 77.2418 79.7028" stroke="#A8452C" stroke-miterlimit="10" stroke-linecap="round" stroke-linejoin="round"/>
<path d="M68.5419 81.2788C68.663 82.6604 69.8646 83.7524 71.0861 84.5908C72.3076 85.4292 73.675 86.2004 74.4072 87.4179C75.2963 88.8971 74.977 90.8896 73.6592 92.0804C72.9228 92.7454 72.0247 94.5191 72.3867 95.4017" stroke="#A8452C" stroke-miterlimit="10" stroke-linecap="round" stroke-linejoin="round"/>
<path d="M47.5719 64.3503C47.274 63.4448 46.3264 62.7431 46.2706 61.7997C46.2114 60.7966 47.2203 59.9793 48.2739 59.6567C49.3275 59.3342 50.4719 59.3441 51.5468 59.0868C52.6224 58.8295 53.7166 58.1714 53.8818 57.1782" stroke="#A8452C" stroke-miterlimit="10" stroke-linecap="round" stroke-linejoin="round"/>
<path d="M121.261 25.1411C121.261 25.1411 124.95 31.4207 113.456 56.6665" stroke="#A8452C" stroke-width="1.6496" stroke-miterlimit="10" stroke-linecap="round" stroke-linejoin="round"/>
<path d="M85.0353 23.6023C85.2769 24.2232 86.1343 24.5159 86.8425 24.3618C87.5506 24.2076 88.1101 23.7117 88.5147 23.1642C90.6247 20.3071 89.2387 16.158 91.3528 13.3041C91.893 12.5745 92.6307 11.9828 93.2404 11.2992C93.8501 10.6155 94.3477 9.77839 94.2678 8.90332" stroke="#A8452C" stroke-miterlimit="10" stroke-linecap="round" stroke-linejoin="round"/>
<path d="M105.503 31.4268C105.95 33.3845 107.278 35.1657 109.117 36.2769C110.957 37.3881 113.286 37.8163 115.46 37.4428C115.617 37.4155 116.635 37.1482 116.531 37.0389" stroke="#A8452C" stroke-width="1.6496" stroke-miterlimit="10" stroke-linecap="round" stroke-linejoin="round"/>
<path d="M101.216 35.1021C102.196 37.5259 104.142 39.6209 106.616 40.913C109.089 42.2051 112.07 42.6849 114.886 42.2437" stroke="#A8452C" stroke-width="1.6496" stroke-miterlimit="10" stroke-linecap="round" stroke-linejoin="round"/>
<path d="M28.6658 85.8628C27.2234 86.2009 24.2856 86.9081 22.9505 87.506C21.6154 88.1039 20.3919 88.9852 19.6906 90.1722C19.3975 90.6682 19.2075 91.2915 19.5207 91.7769" stroke="#A8452C" stroke-miterlimit="10" stroke-linecap="round" stroke-linejoin="round"/>
<path d="M97.644 84.9053C100.315 85.4168 104.837 86.8823 107.221 88.0836C107.58 88.2645 107.938 88.4553 108.232 88.7157C109.099 89.4869 109.199 90.8561 108.452 91.7237" stroke="#A8452C" stroke-width="1.6496" stroke-miterlimit="10" stroke-linecap="round" stroke-linejoin="round"/>
</svg>
