<svg width="216" height="149" viewBox="0 0 216 149" fill="none" xmlns="http://www.w3.org/2000/svg">
<path d="M108.233 117.294C130.403 117.294 148.376 99.0506 148.376 76.5457C148.376 54.0407 130.403 35.7969 108.233 35.7969C86.0622 35.7969 68.0894 54.0407 68.0894 76.5457C68.0894 99.0506 86.0622 117.294 108.233 117.294Z" stroke="#A8452C" stroke-width="2.8992" stroke-miterlimit="10" stroke-linecap="round" stroke-linejoin="round"/>
<path d="M98.9483 125.182C76.5242 120.783 59.5889 100.751 59.5889 76.7041C59.5889 54.6122 73.8821 35.9093 93.5936 29.6025" stroke="#A8452C" stroke-width="2.1499" stroke-miterlimit="10" stroke-linecap="round" stroke-linejoin="round"/>
<path d="M121.228 29.1094C141.783 34.8797 156.876 54.0025 156.876 76.704C156.876 101.04 139.533 121.263 116.708 125.334" stroke="#A8452C" stroke-width="2.1499" stroke-miterlimit="10" stroke-linecap="round" stroke-linejoin="round"/>
<path d="M93.6024 29.5231C91.4614 28.921 91.4045 26.8445 93.4758 24.8851C95.5471 22.9258 100.631 21.473 102.772 22.0751" stroke="#A8452C" stroke-width="2.1499" stroke-miterlimit="10" stroke-linecap="round" stroke-linejoin="round"/>
<path d="M121.971 29.0933C124.078 28.46 124.022 26.3842 121.844 24.4553C119.667 22.5271 113.632 21.6453 111.525 22.2779" stroke="#A8452C" stroke-width="2.1499" stroke-miterlimit="10" stroke-linecap="round" stroke-linejoin="round"/>
<path d="M102.682 23.427C102.682 19.7264 104.658 16.7261 107.097 16.7261C109.536 16.7261 111.513 19.7264 111.513 23.427" stroke="#A8452C" stroke-width="2.1499" stroke-miterlimit="10" stroke-linecap="round" stroke-linejoin="round"/>
<path d="M123.424 123.625C125.565 124.435 124.513 127.669 122.442 130.304C120.371 132.94 115.993 134.327 113.852 133.517" stroke="#A8452C" stroke-width="2.1499" stroke-miterlimit="10" stroke-linecap="round" stroke-linejoin="round"/>
<path d="M94.1942 123.992C92.087 124.844 91.8967 128.289 94.0737 130.882C96.2506 133.476 102.286 134.661 104.393 133.811" stroke="#A8452C" stroke-width="2.1499" stroke-miterlimit="10" stroke-linecap="round" stroke-linejoin="round"/>
<path d="M113.237 132.267C113.237 137.244 111.26 141.279 108.821 141.279C106.383 141.279 104.406 137.244 104.406 132.267" stroke="#A8452C" stroke-width="2.1499" stroke-miterlimit="10" stroke-linecap="round" stroke-linejoin="round"/>
<path d="M79.2502 104.523C79.4602 104.072 89.535 97.0151 89.535 97.0151" stroke="#A8452C" stroke-miterlimit="10" stroke-linecap="round" stroke-linejoin="round"/>
<path d="M82.6088 108.427C82.776 108.048 90.7944 102.12 90.7944 102.12" stroke="#A8452C" stroke-miterlimit="10" stroke-linecap="round" stroke-linejoin="round"/>
<path d="M77.3611 100.618C77.5026 100.312 84.2873 95.5132 84.2873 95.5132" stroke="#A8452C" stroke-miterlimit="10" stroke-linecap="round" stroke-linejoin="round"/>
<path d="M145.438 60.3862C145.229 60.8366 135.154 67.8938 135.154 67.8938" stroke="#A8452C" stroke-miterlimit="10" stroke-linecap="round" stroke-linejoin="round"/>
<path d="M142.08 56.4819C141.913 56.8605 133.894 62.7887 133.894 62.7887" stroke="#A8452C" stroke-miterlimit="10" stroke-linecap="round" stroke-linejoin="round"/>
<path d="M146.679 64.7231C146.537 65.0293 139.753 69.8284 139.753 69.8284" stroke="#A8452C" stroke-miterlimit="10" stroke-linecap="round" stroke-linejoin="round"/>
<path d="M72.8909 104.943C72.8909 104.943 81.4963 116.805 96.8181 120.559" stroke="#A8452C" stroke-miterlimit="10" stroke-linecap="round" stroke-linejoin="round"/>
<path d="M126.832 35.5703C126.832 35.5703 140.055 42.0274 145.302 52.0876" stroke="#A8452C" stroke-miterlimit="10" stroke-linecap="round" stroke-linejoin="round"/>
<path d="M62.1917 125.634C62.1917 125.634 67.3811 126.004 68.8633 118.219C68.8633 118.219 70.7165 125.634 74.4231 126.005C74.4231 126.005 68.4929 126.375 68.4929 135.644C68.4929 135.644 68.8633 126.746 62.1917 125.634Z" stroke="#A8452C" stroke-width="1.581" stroke-miterlimit="10" stroke-linecap="round" stroke-linejoin="round"/>
<path d="M78.7357 136.58C78.7357 136.58 82.51 136.85 83.5879 131.188C83.5879 131.188 84.9361 136.58 87.6317 136.85C87.6317 136.85 83.3184 137.12 83.3184 143.86C83.3184 143.86 83.5879 137.39 78.7357 136.58Z" stroke="#A8452C" stroke-width="1.581" stroke-miterlimit="10" stroke-linecap="round" stroke-linejoin="round"/>
<path d="M128.256 11.7629C128.256 11.7629 133.445 12.1334 134.927 4.34814C134.927 4.34814 136.781 11.7629 140.487 12.1334C140.487 12.1334 134.557 12.5039 134.557 21.7723C134.557 21.7723 134.927 12.875 128.256 11.7629Z" stroke="#A8452C" stroke-width="1.581" stroke-miterlimit="10" stroke-linecap="round" stroke-linejoin="round"/>
<path d="M140.487 29.7599C140.487 29.7599 144.419 30.0409 145.542 24.1426C145.542 24.1426 146.946 29.7599 149.754 30.0409C149.754 30.0409 145.261 30.322 145.261 37.3433C145.261 37.3433 145.542 30.6024 140.487 29.7599Z" stroke="#A8452C" stroke-width="1.581" stroke-miterlimit="10" stroke-linecap="round" stroke-linejoin="round"/>
<path d="M93.2585 74.3791C96.1545 71.4234 99.7249 68.8844 103.819 68.2856C109.367 67.4743 114.791 70.3324 119.275 73.7004C123.759 77.0692 127.877 81.0983 133.051 83.2608C131.001 85.5392 128.926 87.8399 126.405 89.5825C123.612 91.5134 120.371 92.6878 117.13 93.7037C114.41 94.5564 111.642 95.3163 108.806 95.6041C102.035 96.2915 95.0901 94.0024 89.8499 89.7071C87.8415 88.0613 79.9247 82.6106 85.5001 82.7651C86.6783 82.7976 88.1273 80.3242 88.9439 79.3428C90.3455 77.6557 91.7214 75.9483 93.2585 74.3791Z" stroke="#A8452C" stroke-width="2.1499" stroke-miterlimit="10" stroke-linecap="round" stroke-linejoin="round"/>
<path d="M119.009 82.4506C120.063 75.9931 115.684 69.9038 109.228 68.8497C102.772 67.7956 96.684 72.1759 95.6301 78.6334C94.5763 85.0909 98.9555 91.1802 105.412 92.2343C111.868 93.2884 117.956 88.9081 119.009 82.4506Z" stroke="#A8452C" stroke-width="2.1499" stroke-miterlimit="10" stroke-linecap="round" stroke-linejoin="round"/>
<path d="M107.127 76.6362C109.283 76.6364 111.031 78.3848 111.031 80.5415C111.031 82.698 109.283 84.4456 107.127 84.4458C104.972 84.4458 103.223 82.6981 103.223 80.5415C103.223 78.3847 104.971 76.6362 107.127 76.6362Z" fill="black" stroke="#A8452C"/>
<path d="M107.718 62.1719C112.481 62.2572 117.146 63.7438 121.364 65.9578C125.582 68.1718 129.385 71.099 132.999 74.203" stroke="#A8452C" stroke-width="2.1499" stroke-miterlimit="10" stroke-linecap="round" stroke-linejoin="round"/>
<path d="M85.8989 72.4941C90.8649 63.6828 100.309 58.2984 109.888 55.0557" stroke="#A8452C" stroke-width="2.1499" stroke-miterlimit="10" stroke-linecap="round" stroke-linejoin="round"/>
<path d="M92.5752 46.4893C97.1458 46.1409 101.759 46.134 106.331 46.4658C106.107 46.6372 105.879 46.8129 105.655 46.9873C105.013 47.4889 104.402 47.9656 103.927 48.2637L104.312 49.1719C116.579 46.1317 126.76 49.8014 137.167 55.8174C125.315 53.9097 114.906 52.3676 102.366 52.6953L101.057 52.7354C98.7434 52.819 96.0353 52.8086 93.4209 52.9541C91.4273 53.065 89.435 53.2682 87.6094 53.6816C89.5534 51.4029 91.0438 48.8605 92.5752 46.4893Z" fill="black" stroke="#A8452C"/>
<path d="M99.6221 82.6421C99.6221 82.6421 101.027 88.4809 108.054 88.8046" stroke="#A8452C" stroke-miterlimit="10" stroke-linecap="round" stroke-linejoin="round"/>
<path d="M106 72.6949C106 72.6949 115.08 71.5056 114.972 80.9123" stroke="#A8452C" stroke-miterlimit="10" stroke-linecap="round" stroke-linejoin="round"/>
<path d="M108.018 24.1321C108.018 26.0129 107.582 27.5381 107.045 27.5381C106.508 27.5381 106.072 26.0135 106.072 24.1321C106.072 22.2513 106.507 20.7261 107.045 20.7261C107.581 20.7261 108.018 22.2513 108.018 24.1321Z" stroke="#A8452C" stroke-width="1.2771" stroke-miterlimit="10"/>
<path d="M97.9211 27.6078C98.423 27.6078 98.8298 27.2009 98.8298 26.6989C98.8298 26.197 98.423 25.79 97.9211 25.79C97.4193 25.79 97.0125 26.197 97.0125 26.6989C97.0125 27.2009 97.4193 27.6078 97.9211 27.6078Z" stroke="#A8452C" stroke-width="1.2771" stroke-miterlimit="10"/>
<path d="M116.513 27.6078C117.015 27.6078 117.422 27.2009 117.422 26.6989C117.422 26.197 117.015 25.79 116.513 25.79C116.012 25.79 115.605 26.197 115.605 26.6989C115.605 27.2009 116.012 27.6078 116.513 27.6078Z" stroke="#A8452C" stroke-width="1.2771" stroke-miterlimit="10"/>
<path d="M99.7819 128.521C99.7819 129.023 99.3749 129.43 98.8732 129.43C98.3714 129.43 97.9645 129.023 97.9645 128.521C97.9645 128.019 98.3714 127.612 98.8732 127.612C99.3749 127.612 99.7819 128.019 99.7819 128.521Z" stroke="#A8452C" stroke-width="1.2771" stroke-miterlimit="10"/>
<path d="M118.373 128.521C118.373 129.023 117.966 129.43 117.465 129.43C116.963 129.43 116.556 129.023 116.556 128.521C116.556 128.019 116.963 127.612 117.465 127.612C117.967 127.612 118.373 128.019 118.373 128.521Z" stroke="#A8452C" stroke-width="1.2771" stroke-miterlimit="10"/>
<path d="M108.018 131.494C108.018 129.613 108.453 128.088 108.991 128.088C109.528 128.088 109.964 129.612 109.964 131.494C109.964 133.375 109.528 134.9 108.991 134.9C108.453 134.9 108.018 133.375 108.018 131.494Z" stroke="#A8452C" stroke-width="1.2771" stroke-miterlimit="10"/>
<path d="M111.692 98.464C111.45 98.1057 101.603 112.735 111.692 114.322C111.692 114.322 121.637 113.168 111.692 98.464Z" stroke="#A8452C" stroke-width="2.1499" stroke-miterlimit="10" stroke-linecap="round" stroke-linejoin="round"/>
<path d="M155.99 67.2754C155.99 67.2754 174.243 62.1356 180.585 46.5664C180.585 46.5664 197.88 66.7485 211.716 66.8927C211.716 66.8927 199.033 69.1995 198.457 86.2099C198.457 86.2099 178.567 73.5239 173.235 92.8411C173.235 92.8411 162.232 83.3613 155.603 87.9742" stroke="#A8452C" stroke-width="2.1499" stroke-miterlimit="10" stroke-linecap="round" stroke-linejoin="round"/>
<path d="M169.343 74.1011L173.234 92.8412" stroke="#A8452C" stroke-miterlimit="10" stroke-linecap="round" stroke-linejoin="round"/>
<path d="M182.89 63.4336C183.322 63.8664 198.456 86.211 198.456 86.211" stroke="#A8452C" stroke-miterlimit="10" stroke-linecap="round" stroke-linejoin="round"/>
<path d="M180.008 71.7944L183.179 79.1469" stroke="#A8452C" stroke-miterlimit="10" stroke-linecap="round" stroke-linejoin="round"/>
<path d="M191.25 65.8838L197.735 73.5241" stroke="#A8452C" stroke-miterlimit="10" stroke-linecap="round" stroke-linejoin="round"/>
<path d="M156.804 74.0084C156.804 74.0084 178.567 65.3075 181.881 55.6489C181.881 55.6489 196.302 66.8084 207.399 68.6824" stroke="#A8452C" stroke-width="2.1499" stroke-miterlimit="10" stroke-linecap="round" stroke-linejoin="round"/>
<path d="M60.8199 65.6194C60.8199 65.6194 42.296 60.3333 35.9548 44.7642C35.9548 44.7642 18.6599 64.9462 4.82373 65.0905C4.82373 65.0905 17.5068 67.3973 18.083 84.4076C18.083 84.4076 37.9726 71.7216 43.3049 91.0388C43.3049 91.0388 53.9112 81.857 60.5409 86.4706" stroke="#A8452C" stroke-width="2.1499" stroke-miterlimit="10" stroke-linecap="round" stroke-linejoin="round"/>
<path d="M47.1963 72.2988L43.3049 91.0396" stroke="#A8452C" stroke-miterlimit="10" stroke-linecap="round" stroke-linejoin="round"/>
<path d="M33.6485 61.6313C33.2159 62.0641 18.083 84.4087 18.083 84.4087" stroke="#A8452C" stroke-miterlimit="10" stroke-linecap="round" stroke-linejoin="round"/>
<path d="M36.531 69.9922L33.3601 77.3447" stroke="#A8452C" stroke-miterlimit="10" stroke-linecap="round" stroke-linejoin="round"/>
<path d="M25.2896 64.082L18.8035 71.7223" stroke="#A8452C" stroke-miterlimit="10" stroke-linecap="round" stroke-linejoin="round"/>
<path d="M59.8198 71.8743C59.8198 71.8743 37.972 63.5053 34.6575 53.8467C34.6575 53.8467 21.7585 65.5953 10.6605 67.47" stroke="#A8452C" stroke-width="2.1499" stroke-miterlimit="10" stroke-linecap="round" stroke-linejoin="round"/>
<path d="M70.3286 101.059C70.3286 101.059 67.0135 96.0129 66.4373 92.4092" stroke="#A8452C" stroke-miterlimit="10" stroke-linecap="round" stroke-linejoin="round"/>
<path d="M147.466 55.5317C147.466 55.5317 151.749 62.1013 151.729 68.1629" stroke="#A8452C" stroke-miterlimit="10" stroke-linecap="round" stroke-linejoin="round"/>
<path d="M44.7566 52.9478C46.7189 54.5651 48.6893 56.1885 50.8601 57.5119C53.0309 58.8353 55.4252 59.858 57.9495 60.1668" stroke="#A8452C" stroke-miterlimit="10" stroke-linecap="round" stroke-linejoin="round"/>
<path d="M3.31445 68.0454C4.58879 68.4003 5.83129 68.8724 7.01963 69.4535C7.64326 69.7582 8.25401 70.0948 8.81467 70.5032C11.2509 72.2797 12.5029 75.2164 13.6439 78.0074" stroke="#A8452C" stroke-miterlimit="10" stroke-linecap="round" stroke-linejoin="round"/>
<path d="M22.3346 86.0657C22.3346 86.0657 27.9553 82.3176 33.1441 84.0474C38.3328 85.7771 40.2064 89.5252 40.6384 91.1113" stroke="#A8452C" stroke-miterlimit="10" stroke-linecap="round" stroke-linejoin="round"/>
<path d="M157.236 63.0006C157.236 63.0006 163.146 61.1266 167.037 56.9458" stroke="#A8452C" stroke-miterlimit="10" stroke-linecap="round" stroke-linejoin="round"/>
<path d="M176.693 93.7066C176.693 93.7066 177.126 86.9311 182.314 85.3456C187.503 83.7602 194.709 87.796 194.709 87.796" stroke="#A8452C" stroke-miterlimit="10" stroke-linecap="round" stroke-linejoin="round"/>
<path d="M202.78 82.0298C202.78 82.0298 202.059 76.4077 207.969 71.6506C207.969 71.6506 210.418 69.7766 213.013 69.2002" stroke="#A8452C" stroke-miterlimit="10" stroke-linecap="round" stroke-linejoin="round"/>
</svg>
