<svg width="159" height="146" viewBox="0 0 159 146" fill="none" xmlns="http://www.w3.org/2000/svg">
<path d="M49.6797 103.783L106.056 44.0028C106.056 44.0028 111.228 17.6343 136.055 17.1187C136.055 17.1187 154.674 27.5118 115.884 51.2174C115.884 51.2174 105.022 55.8552 98.2986 66.6779L64.1627 102.752C64.1627 102.752 55.8869 108.421 56.922 115.12C56.922 115.12 61.7496 124.912 40.0259 136.25C40.0259 136.25 14.6825 149.305 4.8557 135.219C4.8557 135.219 -1.00626 126.459 11.7519 118.213" stroke="#A8452C" stroke-width="2.1499" stroke-miterlimit="10" stroke-linecap="round" stroke-linejoin="round"/>
<path d="M40.1007 95.8555C41.9105 99.4348 45.9541 101.334 48.3094 104.583C51.3546 108.784 50.8815 115.145 47.2494 118.854C46.0133 120.116 44.4981 121.065 43.1341 122.189C41.9081 123.199 40.7905 124.363 39.414 125.159C36.8669 126.633 33.7609 126.679 30.8171 126.601C29.0993 126.555 27.3503 126.474 25.7377 125.883C24.1251 125.292 22.645 124.105 22.122 122.474C21.599 120.843 22.2981 118.795 23.8889 118.148" stroke="#A8452C" stroke-width="2.1499" stroke-miterlimit="10" stroke-linecap="round" stroke-linejoin="round"/>
<path d="M52.5284 11.5513C50.8379 16.2124 49.0273 21.0599 45.3882 24.4389C43.6844 26.0208 41.6517 27.2067 39.8676 28.6985C35.1943 32.6063 32.4188 38.6723 32.5225 44.75C32.577 47.9573 33.3845 51.1025 33.7165 54.2928C34.0486 57.4838 33.8498 60.8993 32.0961 63.5894C29.4906 67.5865 24.0557 69.1234 21.6629 73.251C17.6014 80.2559 24.4922 90.3338 19.6591 96.8339C18.1751 98.8298 15.8454 100.009 14.0543 101.737C11.0068 104.675 9.6974 109.286 10.748 113.379C11.7987 117.473 17.3536 122.593 22.1212 122.474" stroke="#A8452C" stroke-width="2.1499" stroke-miterlimit="10" stroke-linecap="round" stroke-linejoin="round"/>
<path d="M52.4583 11.2529C50.3523 19.3854 49.1754 27.7564 48.9556 36.1522C48.8839 38.9122 48.9182 41.7048 49.5729 44.3879C50.3437 47.544 51.9415 50.4275 53.1364 53.4493C56.0264 60.7578 56.3421 69.5962 51.809 76.0233C50.41 78.0075 48.6111 79.685 47.2043 81.6638C45.7982 83.6425 44.7795 86.0896 45.2674 88.4652C45.721 90.6754 47.382 92.4375 48.2043 94.5389C49.2604 97.2376 48.7896 100.474 47.0079 102.763" stroke="#A8452C" stroke-width="2.1499" stroke-miterlimit="10" stroke-linecap="round" stroke-linejoin="round"/>
<path d="M32.4009 89.0352C33.026 91.0271 32.8256 93.1931 32.312 95.2169C31.8997 96.8423 31.2676 98.456 30.1445 99.7048C27.6987 102.424 23.2872 103.06 21.4517 106.221C20.6949 107.524 20.5055 109.106 20.7331 110.595C20.9607 112.084 21.5811 113.489 22.3519 114.785C22.9583 115.805 23.6792 116.786 24.6504 117.473C25.9403 118.383 27.5927 118.7 29.1671 118.55C30.7415 118.4 32.2465 117.813 33.6339 117.058C35.4725 116.056 37.2893 114.483 37.4226 112.399" stroke="#A8452C" stroke-width="2.1499" stroke-miterlimit="10" stroke-linecap="round" stroke-linejoin="round"/>
<path d="M38.6908 108.745C38.9581 108.33 39.022 107.818 39.0384 107.324C39.1039 105.38 38.5248 103.419 37.4133 101.819" stroke="#A8452C" stroke-width="2.1499" stroke-miterlimit="10" stroke-linecap="round" stroke-linejoin="round"/>
<path d="M37.4336 77.5656C37.3666 75.8974 38.2995 74.3598 39.3174 73.0333C40.4764 71.5244 41.792 70.1343 43.2363 68.8933C45.0718 67.316 47.2253 65.8242 47.9572 63.5224C48.7499 61.0295 47.608 58.33 46.1162 56.1781C44.6244 54.0262 42.7421 52.0948 41.7679 49.6664C40.8443 47.3645 40.8201 44.7823 41.2722 42.3446C41.7242 39.9069 42.6299 37.5794 43.5301 35.269" stroke="#A8452C" stroke-width="2.1499" stroke-miterlimit="10" stroke-linecap="round" stroke-linejoin="round"/>
<path d="M59.5985 62.9253C60.3935 69.2903 57.5213 75.6809 53.2798 80.5067C52.1878 81.7492 50.9704 82.9669 50.4435 84.5333C49.6384 86.926 50.6384 89.554 51.9867 91.6904" stroke="#A8452C" stroke-miterlimit="10" stroke-linecap="round" stroke-linejoin="round"/>
<path d="M6.27965 116.786C5.00142 113.38 4.35685 109.554 5.56104 106.121C6.87279 102.382 10.1175 99.7166 13.0668 97.0598C14.4533 95.8111 15.8275 94.4924 16.7051 92.8476C17.5827 91.2035 17.8991 89.1611 17.1065 87.4751" stroke="#A8452C" stroke-miterlimit="10" stroke-linecap="round" stroke-linejoin="round"/>
<path d="M36.5473 51.1172C38.0227 54.5831 38.216 58.5741 37.0828 62.165C35.9487 65.756 33.4975 68.9183 30.2957 70.9181C29.2286 71.5844 28.0751 72.1311 27.1266 72.9558C26.1773 73.7806 25.436 74.9711 25.5459 76.2206" stroke="#A8452C" stroke-miterlimit="10" stroke-linecap="round" stroke-linejoin="round"/>
<path d="M45.3399 106.773C46.0406 108.869 46.2962 111.167 45.686 113.291C44.9712 115.778 43.1474 117.8 41.1615 119.466C39.2605 121.062 36.8459 122.486 34.4196 121.95" stroke="#A8452C" stroke-miterlimit="10" stroke-linecap="round" stroke-linejoin="round"/>
<path d="M19.5811 118.381C17.062 117.547 15.0099 115.428 14.2647 112.889C13.5196 110.35 14.1011 107.463 15.7714 105.408" stroke="#A8452C" stroke-miterlimit="10" stroke-linecap="round" stroke-linejoin="round"/>
<path d="M24.8484 106.483C23.8944 107.82 24.235 109.696 24.9817 111.159C25.4938 112.161 26.1921 113.091 27.1243 113.725C28.0565 114.358 29.2419 114.67 30.3401 114.41C31.4757 114.141 32.3838 113.319 33.2388 112.528" stroke="#A8452C" stroke-miterlimit="10" stroke-linecap="round" stroke-linejoin="round"/>
<path d="M11.8852 126.511C10.8026 126.367 9.82832 127.464 9.85949 128.552C9.89067 129.639 10.7028 130.588 11.6786 131.076C12.6545 131.563 13.7737 131.67 14.8649 131.717C21.2974 131.994 27.8405 130.424 33.2902 127.009" stroke="#A8452C" stroke-miterlimit="10" stroke-linecap="round" stroke-linejoin="round"/>
<path d="M5.97498 135.477C6.10436 135.863 19.5515 142.305 39.0766 133.029C58.6016 123.752 56.4037 113.703 56.4037 113.703" stroke="#A8452C" stroke-miterlimit="10" stroke-linecap="round" stroke-linejoin="round"/>
<path d="M113.298 40.0086L114.591 33.9535L126.099 23.2598L133.339 22.873L133.081 28.1554C133.081 28.1554 127.133 39.7508 119.116 42.7143L112.78 43.2299L113.298 40.0086Z" stroke="#A8452C" stroke-miterlimit="10" stroke-linecap="round" stroke-linejoin="round"/>
<path d="M114.59 33.9536L119.375 35.628L119.116 42.7144" stroke="#A8452C" stroke-miterlimit="10" stroke-linecap="round" stroke-linejoin="round"/>
<path d="M126.098 23.2598L127.52 27.6405L133.081 28.1554" stroke="#A8452C" stroke-miterlimit="10" stroke-linecap="round" stroke-linejoin="round"/>
<path d="M119.375 35.6279L127.52 27.6406" stroke="#A8452C" stroke-miterlimit="10" stroke-linecap="round" stroke-linejoin="round"/>
<path d="M123.9 31.377L127.908 35.4999" stroke="#A8452C" stroke-miterlimit="10" stroke-linecap="round" stroke-linejoin="round"/>
<path d="M107.349 46.9663L85.4968 71.0586" stroke="#A8452C" stroke-miterlimit="10" stroke-linecap="round" stroke-linejoin="round"/>
<path d="M61.5758 100.433C61.964 100.047 75.2818 86.1323 75.2818 86.1323" stroke="#A8452C" stroke-miterlimit="10" stroke-linecap="round" stroke-linejoin="round"/>
<path d="M94.0765 27.8184L107.311 29.3327" stroke="#A8452C" stroke-miterlimit="10" stroke-linecap="round" stroke-linejoin="round"/>
<path d="M105.527 22.1753L109.388 25.2591" stroke="#A8452C" stroke-miterlimit="10" stroke-linecap="round" stroke-linejoin="round"/>
<path d="M105.974 13.4165L112.319 21.7835" stroke="#A8452C" stroke-miterlimit="10" stroke-linecap="round" stroke-linejoin="round"/>
<path d="M114.305 14.5957L115.726 18.7427" stroke="#A8452C" stroke-miterlimit="10" stroke-linecap="round" stroke-linejoin="round"/>
<path d="M119.012 16.9835L117.595 5.97754" stroke="#A8452C" stroke-miterlimit="10" stroke-linecap="round" stroke-linejoin="round"/>
<path d="M123.572 15.4747L123.406 10.4121" stroke="#A8452C" stroke-miterlimit="10" stroke-linecap="round" stroke-linejoin="round"/>
<path d="M127.979 14.2103L130.603 3.0708" stroke="#A8452C" stroke-miterlimit="10" stroke-linecap="round" stroke-linejoin="round"/>
<path d="M154.545 33.9536L141.227 33.6958" stroke="#A8452C" stroke-miterlimit="10" stroke-linecap="round" stroke-linejoin="round"/>
<path d="M143.684 40.6526L139.546 37.9478" stroke="#A8452C" stroke-miterlimit="10" stroke-linecap="round" stroke-linejoin="round"/>
<path d="M144.071 49.4143L136.96 41.6841" stroke="#A8452C" stroke-miterlimit="10" stroke-linecap="round" stroke-linejoin="round"/>
<path d="M135.667 49.0272L133.856 45.0332" stroke="#A8452C" stroke-miterlimit="10" stroke-linecap="round" stroke-linejoin="round"/>
<path d="M130.753 47.0942L133.21 57.9169" stroke="#A8452C" stroke-miterlimit="10" stroke-linecap="round" stroke-linejoin="round"/>
<path d="M126.357 49.0273L127.004 54.0519" stroke="#A8452C" stroke-miterlimit="10" stroke-linecap="round" stroke-linejoin="round"/>
<path d="M122.09 50.7026L120.538 62.0402" stroke="#A8452C" stroke-miterlimit="10" stroke-linecap="round" stroke-linejoin="round"/>
<path d="M127.973 23.0021C127.973 23.0021 129.331 21.5848 131.529 21.0699C133.727 20.5543 135.214 22.036 135.214 22.036C137.154 24.226 135.149 28.2845 135.149 28.2845C125.452 48.2539 111.81 45.6127 111.81 45.6127C111.81 45.6127 107.478 44.5177 113.749 37.818" stroke="#A8452C" stroke-miterlimit="10" stroke-linecap="round" stroke-linejoin="round"/>
</svg>
