<svg width="116" height="150" viewBox="0 0 116 150" fill="none" xmlns="http://www.w3.org/2000/svg">
<path d="M58.1982 101.772C83.2063 101.772 103.479 81.431 103.479 56.3392C103.479 31.2474 83.2063 10.9065 58.1982 10.9065C33.19 10.9065 12.9169 31.2474 12.9169 56.3392C12.9169 81.431 33.19 101.772 58.1982 101.772Z" stroke="#A8452C" stroke-width="2" stroke-miterlimit="10" stroke-linecap="round" stroke-linejoin="round"/>
<path d="M67.3647 88.0699C84.8307 88.0699 98.9897 73.8636 98.9897 56.3392C98.9897 38.8147 84.8307 24.6084 67.3647 24.6084C49.8986 24.6084 35.7397 38.8147 35.7397 56.3392C35.7397 73.8636 49.8986 88.0699 67.3647 88.0699Z" stroke="#A8452C" stroke-width="2" stroke-miterlimit="10" stroke-linecap="round" stroke-linejoin="round"/>
<path d="M78.2115 60.6649C79.18 54.6545 75.1093 48.9943 69.1194 48.0227C63.1294 47.0511 57.4886 51.1359 56.5201 57.1464C55.5516 63.1568 59.6223 68.817 65.6122 69.7886C71.6021 70.7602 77.243 66.6754 78.2115 60.6649Z" stroke="#A8452C" stroke-width="2" stroke-miterlimit="10" stroke-linecap="round" stroke-linejoin="round"/>
<path d="M85.9352 46.9969C85.9352 50.0411 83.4762 52.5084 80.4421 52.5084C77.408 52.5084 74.9489 50.0411 74.9489 46.9969C74.9489 43.9527 77.408 41.4854 80.4421 41.4854C83.4752 41.4844 85.9352 43.9527 85.9352 46.9969Z" stroke="#A8452C" stroke-width="2" stroke-miterlimit="10" stroke-linecap="round" stroke-linejoin="round"/>
<path d="M33.7406 101.788C34.8992 104.065 36.1872 106.275 37.5979 108.404C39.0171 110.545 40.6022 112.648 42.7345 114.076C45.783 116.117 49.6661 116.595 52.7184 118.631C55.9116 120.761 57.812 124.322 59.5446 127.755C61.192 131.018 63.2553 134.666 66.8232 135.422C67.6416 135.595 68.4888 135.597 69.3034 135.789C72.7016 136.591 74.4372 140.237 76.4487 143.101C76.9614 143.831 77.7012 144.607 78.5791 144.461C79.1263 144.371 79.546 143.936 79.892 143.503C84.9347 137.169 82.5792 126.75 88.3675 121.095C89.9027 119.595 91.8941 118.587 93.2531 116.926C95.9517 113.625 95.4659 108.723 97.3969 104.919C98.2067 103.324 99.4267 101.957 100.163 100.327C100.98 98.5171 101.155 96.4921 101.318 94.5123C101.727 89.5671 103.716 84.3767 105.301 79.6767C112.888 57.1806 107.917 43.3921 107.917 43.3921" stroke="#A8452C" stroke-width="2" stroke-miterlimit="10" stroke-linecap="round" stroke-linejoin="round"/>
<path d="M60.019 112.509C62.0287 114.141 63.5946 116.318 64.504 118.745C65.172 120.528 65.7345 122.712 67.5238 123.351C68.5645 123.722 69.7567 123.426 70.7907 123.817C71.9158 124.243 72.601 125.38 73.0715 126.49C73.5421 127.601 73.9091 128.801 74.7352 129.678C75.5613 130.555 77.0486 130.966 77.9638 130.184C78.7976 129.473 78.7679 128.201 79.1273 127.163C79.7559 125.351 81.6716 124.113 81.9553 122.215C82.0866 121.338 81.846 120.398 82.1958 119.583C82.5581 118.739 83.4407 118.275 84.2103 117.777C86.655 116.192 88.4547 113.635 89.1255 110.793" stroke="#A8452C" stroke-width="2" stroke-miterlimit="10" stroke-linecap="round" stroke-linejoin="round"/>
<path d="M77.4856 104.706C78.7276 105.894 79.775 107.287 80.5714 108.812C80.8848 109.411 81.1752 110.052 81.6946 110.483C82.8724 111.46 84.768 110.911 85.7704 109.753C86.7718 108.594 87.1264 107.027 87.5059 105.54C87.8864 104.054 88.3809 102.493 89.552 101.507C90.2678 100.904 91.1696 100.576 91.9583 100.072C92.747 99.5681 93.4677 98.7729 93.4457 97.8354" stroke="#A8452C" stroke-width="2" stroke-miterlimit="10" stroke-linecap="round" stroke-linejoin="round"/>
<path d="M44.0896 106.757C44.8543 107.328 45.5472 107.995 46.1462 108.739C46.8515 109.615 47.4649 110.63 48.451 111.168C49.4371 111.707 50.9589 111.47 51.2896 110.394" stroke="#A8452C" stroke-width="2" stroke-miterlimit="10" stroke-linecap="round" stroke-linejoin="round"/>
<path d="M88.1557 80.2497L75.6648 66.1237L76.7908 86.6372L67.3646 69.9343L60.019 87.2084L59.9778 67.0564L44.0896 77.8209L56.3783 58.9103L36.8618 57.7487L57.351 52.2526C57.351 52.2526 42.0091 37.4834 42.2582 37.0507C42.2582 37.0507 63.3138 48.6026 62.9678 47.8872C62.6218 47.1718 55.7563 26.8247 55.7563 26.8247" stroke="#A8452C" stroke-width="2" stroke-miterlimit="10" stroke-linecap="round" stroke-linejoin="round"/>
<path d="M34.4085 101.772C18.0517 93.1671 6.89285 75.9671 6.89285 56.1507C6.89285 27.7209 29.8631 4.67285 58.1991 4.67285C86.5351 4.67285 109.505 27.72 109.505 56.1507" stroke="#A8452C" stroke-width="2" stroke-miterlimit="10" stroke-linecap="round" stroke-linejoin="round"/>
<path d="M17.2381 58.2306C16.5462 50.4912 18.4274 42.5431 22.5147 35.9431" stroke="#A8452C" stroke-miterlimit="10" stroke-linecap="round" stroke-linejoin="round"/>
<path d="M24.6929 32.8728C25.658 30.8199 27.0811 28.9843 28.8281 27.542" stroke="#A8452C" stroke-miterlimit="10" stroke-linecap="round" stroke-linejoin="round"/>
<path d="M30.6768 86.6362C30.6768 86.6362 40.8993 97.3785 57.0309 97.8353" stroke="#A8452C" stroke-miterlimit="10" stroke-linecap="round" stroke-linejoin="round"/>
</svg>
