<svg width="128" height="128" viewBox="0 0 128 128" fill="none" xmlns="http://www.w3.org/2000/svg">
<path d="M13.8114 33.6796L75.0997 4.56494C75.0997 4.56494 86.7144 6.62682 82.3943 15.718L21.6934 44.5539C21.6934 44.5539 8.24156 44.627 13.8114 33.6796Z" stroke="#A8452C" stroke-width="2.8332" stroke-miterlimit="10" stroke-linecap="round" stroke-linejoin="round"/>
<path d="M13.8247 33.7391C15.7003 33.0631 17.8919 32.9332 19.7726 33.5978C21.6534 34.2624 23.1495 35.7827 23.3411 37.511" stroke="#A8452C" stroke-width="2.8332" stroke-miterlimit="10" stroke-linecap="round" stroke-linejoin="round"/>
<path d="M22.3171 44.112C23.5749 43.0092 24.2763 41.46 24.2127 39.9233" stroke="#A8452C" stroke-width="2.8332" stroke-miterlimit="10" stroke-linecap="round" stroke-linejoin="round"/>
<path d="M17.8985 39.3179L4.16553 45.8415" stroke="#A8452C" stroke-width="2.6386" stroke-miterlimit="10" stroke-linecap="round" stroke-linejoin="round"/>
<mask id="path-5-inside-1_3_596" fill="white">
<path d="M3.54254 45.9756C3.80371 46.6894 4.92686 46.7821 5.80288 46.7386C7.44247 46.6572 9.08205 46.5759 10.7209 46.4952C10.0949 45.5361 9.46827 44.5777 8.84233 43.6187C6.96302 44.4213 5.06522 45.1912 3.14966 45.929"/>
</mask>
<path d="M3.54254 45.9756C3.80371 46.6894 4.92686 46.7821 5.80288 46.7386C7.44247 46.6572 9.08205 46.5759 10.7209 46.4952C10.0949 45.5361 9.46827 44.5777 8.84233 43.6187C6.96302 44.4213 5.06522 45.1912 3.14966 45.929" fill="black"/>
<path d="M5.80288 46.7386L5.75333 45.7398L5.75328 45.7398L5.80288 46.7386ZM10.7209 46.4952L10.7701 47.494L12.511 47.4082L11.5583 45.9486L10.7209 46.4952ZM8.84233 43.6187L9.67975 43.0721L9.22116 42.3695L8.44954 42.699L8.84233 43.6187ZM3.54254 45.9756L2.60343 46.3193C2.9049 47.1431 3.65875 47.4744 4.19698 47.6106C4.76155 47.7533 5.37651 47.761 5.85249 47.7373L5.80288 46.7386L5.75328 45.7398C5.35324 45.7597 4.96861 45.7427 4.68731 45.6716C4.37966 45.5938 4.44135 45.5219 4.48164 45.632L3.54254 45.9756ZM5.80288 46.7386L5.85243 47.7373C7.49205 47.656 9.13145 47.5747 10.7701 47.494L10.7209 46.4952L10.6717 45.4964C9.03265 45.5771 7.39289 45.6585 5.75333 45.7398L5.80288 46.7386ZM10.7209 46.4952L11.5583 45.9486C11.2452 45.4689 10.9319 44.9893 10.6188 44.51C10.3056 44.0306 9.99259 43.5514 9.67975 43.0721L8.84233 43.6187L8.00491 44.1652C8.31801 44.6449 8.63128 45.1245 8.94442 45.6038C9.25759 46.0832 9.57063 46.5624 9.88347 47.0417L10.7209 46.4952ZM8.84233 43.6187L8.44954 42.699C6.58146 43.4969 4.69479 44.2623 2.79026 44.9958L3.14966 45.929L3.50905 46.8621C5.43564 46.1202 7.34458 45.3458 9.23512 44.5383L8.84233 43.6187Z" fill="#A8452C" mask="url(#path-5-inside-1_3_596)"/>
<path d="M82.4949 8.27028L89.4535 4.96436" stroke="#A8452C" stroke-width="2.5633" stroke-miterlimit="10" stroke-linecap="round" stroke-linejoin="round"/>
<mask id="path-8-inside-2_3_596" fill="white">
<path d="M90.4102 5.05159C90.6381 5.84545 90.297 6.49806 89.8316 7.0914C88.9615 8.20241 88.0906 9.31342 87.2198 10.4251C86.5924 9.46664 85.9642 8.50885 85.3368 7.55043C87.023 6.65947 88.687 5.73762 90.3273 4.78613"/>
</mask>
<path d="M90.4102 5.05159C90.6381 5.84545 90.297 6.49806 89.8316 7.0914C88.9615 8.20241 88.0906 9.31342 87.2198 10.4251C86.5924 9.46664 85.9642 8.50885 85.3368 7.55043C87.023 6.65947 88.687 5.73762 90.3273 4.78613" fill="black"/>
<path d="M89.8316 7.0914L89.0447 6.47424L89.0443 6.47482L89.8316 7.0914ZM87.2198 10.4251L86.3831 10.9728L87.147 12.1396L88.007 11.0418L87.2198 10.4251ZM85.3368 7.55043L84.8696 6.66627L83.8986 7.17932L84.5001 8.09814L85.3368 7.55043ZM90.4102 5.05159L89.449 5.32751C89.5397 5.64345 89.4545 5.95182 89.0447 6.47424L89.8316 7.0914L90.6184 7.70856C91.1394 7.0443 91.7364 6.04744 91.3714 4.77568L90.4102 5.05159ZM89.8316 7.0914L89.0443 6.47482C88.1742 7.58585 87.3037 8.69636 86.4326 9.80838L87.2198 10.4251L88.007 11.0418C88.8776 9.93048 89.7488 8.81898 90.6189 7.70798L89.8316 7.0914ZM87.2198 10.4251L88.0565 9.87735C87.7426 9.39793 87.4286 8.9187 87.1147 8.43968C86.8008 7.9606 86.487 7.48172 86.1735 7.00272L85.3368 7.55043L84.5001 8.09814C84.814 8.57756 85.128 9.05679 85.4419 9.53581C85.7558 10.0149 86.0696 10.4938 86.3831 10.9728L87.2198 10.4251ZM85.3368 7.55043L85.804 8.43459C87.5018 7.53748 89.1773 6.60924 90.8291 5.65114L90.3273 4.78613L89.8256 3.92112C88.1966 4.866 86.5442 5.78146 84.8696 6.66627L85.3368 7.55043Z" fill="#A8452C" mask="url(#path-8-inside-2_3_596)"/>
<path d="M21.902 30.438C21.902 30.438 28.1955 33.5844 28.6269 40.719" stroke="#A8452C" stroke-width="0.9627" stroke-miterlimit="10" stroke-linecap="round" stroke-linejoin="round"/>
<path d="M24.7625 29.1987C24.7625 29.1987 31.0559 32.3451 31.4873 39.4797" stroke="#A8452C" stroke-width="0.9627" stroke-miterlimit="10" stroke-linecap="round" stroke-linejoin="round"/>
<path d="M69.5698 7.91357C69.5698 7.91357 75.8633 11.06 76.2946 18.1946" stroke="#A8452C" stroke-width="0.9627" stroke-miterlimit="10" stroke-linecap="round" stroke-linejoin="round"/>
<path d="M72.431 6.6748C72.431 6.6748 78.7244 9.82121 79.1558 16.9558" stroke="#A8452C" stroke-width="0.9627" stroke-miterlimit="10" stroke-linecap="round" stroke-linejoin="round"/>
<path d="M46.7363 110.29L108.025 81.1758C108.025 81.1758 119.639 83.2383 115.319 92.3288L54.6183 121.165C54.6183 121.165 41.1664 121.238 46.7363 110.29Z" stroke="#A8452C" stroke-width="2.8332" stroke-miterlimit="10" stroke-linecap="round" stroke-linejoin="round"/>
<path d="M46.7496 110.35C48.6252 109.674 50.8167 109.544 52.6975 110.209C54.5783 110.873 56.0743 112.393 56.266 114.122" stroke="#A8452C" stroke-width="2.8332" stroke-miterlimit="10" stroke-linecap="round" stroke-linejoin="round"/>
<path d="M55.2419 120.723C56.4997 119.62 57.2012 118.071 57.1375 116.534" stroke="#A8452C" stroke-width="2.8332" stroke-miterlimit="10" stroke-linecap="round" stroke-linejoin="round"/>
<path d="M50.8234 115.929L37.0904 122.452" stroke="#A8452C" stroke-width="2.6386" stroke-miterlimit="10" stroke-linecap="round" stroke-linejoin="round"/>
<mask id="path-18-inside-3_3_596" fill="white">
<path d="M36.4674 122.586C36.7286 123.3 37.8517 123.393 38.7278 123.349C40.3673 123.268 42.0069 123.187 43.6458 123.106C43.0198 122.147 42.3931 121.189 41.7672 120.229C39.8879 121.032 37.9901 121.802 36.0745 122.54"/>
</mask>
<path d="M36.4674 122.586C36.7286 123.3 37.8517 123.393 38.7278 123.349C40.3673 123.268 42.0069 123.187 43.6458 123.106C43.0198 122.147 42.3931 121.189 41.7672 120.229C39.8879 121.032 37.9901 121.802 36.0745 122.54" fill="black"/>
<path d="M38.7278 123.349L38.6782 122.351L38.6782 122.351L38.7278 123.349ZM43.6458 123.106L43.6953 124.105L45.4354 124.018L44.4832 122.559L43.6458 123.106ZM41.7672 120.229L42.6046 119.683L42.146 118.98L41.3744 119.31L41.7672 120.229ZM36.4674 122.586L35.5283 122.93C35.8298 123.754 36.5836 124.085 37.1218 124.221C37.6864 124.364 38.3014 124.372 38.7774 124.348L38.7278 123.349L38.6782 122.351C38.2781 122.371 37.8935 122.354 37.6122 122.282C37.3045 122.205 37.3662 122.133 37.4065 122.243L36.4674 122.586ZM38.7278 123.349L38.7773 124.348C40.4144 124.267 42.0585 124.186 43.6953 124.105L43.6458 123.106L43.5962 122.107C41.9554 122.189 40.3203 122.269 38.6782 122.351L38.7278 123.349ZM43.6458 123.106L44.4832 122.559C44.1701 122.08 43.8568 121.6 43.5437 121.121C43.2305 120.641 42.9175 120.162 42.6046 119.683L41.7672 120.229L40.9298 120.776C41.2429 121.256 41.5562 121.735 41.8693 122.215C42.1825 122.694 42.4955 123.173 42.8083 123.653L43.6458 123.106ZM41.7672 120.229L41.3744 119.31C39.5063 120.108 37.6197 120.873 35.7151 121.607L36.0745 122.54L36.4339 123.473C38.3605 122.731 40.2694 121.957 42.16 121.149L41.7672 120.229Z" fill="#A8452C" mask="url(#path-18-inside-3_3_596)"/>
<path d="M115.42 84.8811L122.378 81.5752" stroke="#A8452C" stroke-width="2.5633" stroke-miterlimit="10" stroke-linecap="round" stroke-linejoin="round"/>
<mask id="path-21-inside-4_3_596" fill="white">
<path d="M123.335 81.6624C123.563 82.4563 123.222 83.1089 122.756 83.7022C121.886 84.8132 121.016 85.9249 120.145 87.0359C119.517 86.0775 118.889 85.1197 118.262 84.1613C119.948 83.2703 121.612 82.3485 123.252 81.397"/>
</mask>
<path d="M123.335 81.6624C123.563 82.4563 123.222 83.1089 122.756 83.7022C121.886 84.8132 121.016 85.9249 120.145 87.0359C119.517 86.0775 118.889 85.1197 118.262 84.1613C119.948 83.2703 121.612 82.3485 123.252 81.397" fill="black"/>
<path d="M122.756 83.7022L121.97 83.0851L121.969 83.0856L122.756 83.7022ZM120.145 87.0359L119.308 87.5836L120.072 88.7501L120.932 87.6528L120.145 87.0359ZM118.262 84.1613L117.794 83.2771L116.823 83.7901L117.425 84.709L118.262 84.1613ZM123.335 81.6624L122.374 81.9383C122.465 82.2543 122.379 82.5626 121.97 83.0851L122.756 83.7022L123.543 84.3194C124.064 83.6551 124.661 82.6583 124.296 81.3865L123.335 81.6624ZM122.756 83.7022L121.969 83.0856C121.099 84.1966 120.228 85.3081 119.358 86.419L120.145 87.0359L120.932 87.6528C121.803 86.5416 122.674 85.4299 123.544 84.3188L122.756 83.7022ZM120.145 87.0359L120.981 86.4882C120.667 86.0088 120.353 85.5295 120.04 85.0505C119.726 84.5714 119.412 84.0925 119.098 83.6135L118.262 84.1613L117.425 84.709C117.739 85.1884 118.053 85.6676 118.367 86.1466C118.681 86.6257 118.994 87.1046 119.308 87.5836L120.145 87.0359ZM118.262 84.1613L118.729 85.0454C120.427 84.1483 122.102 83.2201 123.754 82.262L123.252 81.397L122.75 80.532C121.122 81.4768 119.469 82.3923 117.794 83.2771L118.262 84.1613Z" fill="#A8452C" mask="url(#path-21-inside-4_3_596)"/>
<path d="M54.8269 107.049C54.8269 107.049 61.1204 110.195 61.5517 117.33" stroke="#A8452C" stroke-width="0.9627" stroke-miterlimit="10" stroke-linecap="round" stroke-linejoin="round"/>
<path d="M57.6873 105.81C57.6873 105.81 63.9808 108.956 64.4121 116.091" stroke="#A8452C" stroke-width="0.9627" stroke-miterlimit="10" stroke-linecap="round" stroke-linejoin="round"/>
<path d="M102.495 84.5244C102.495 84.5244 108.788 87.6708 109.219 94.8054" stroke="#A8452C" stroke-width="0.9627" stroke-miterlimit="10" stroke-linecap="round" stroke-linejoin="round"/>
<path d="M105.356 83.2856C105.356 83.2856 111.649 86.432 112.081 93.5666" stroke="#A8452C" stroke-width="0.9627" stroke-miterlimit="10" stroke-linecap="round" stroke-linejoin="round"/>
<path d="M28.6298 41.8853C29.6161 46.9296 36.6087 50.0943 41.1664 53.2766C48.8205 58.6205 52.7234 67.6013 51.0002 75.9049C49.7765 81.803 46.0075 87.1014 44.2673 92.9043C42.5271 98.7072 43.5526 105.943 49.5767 109.029" stroke="#A8452C" stroke-width="2.8332" stroke-miterlimit="10" stroke-linecap="round" stroke-linejoin="round"/>
<path d="M78.8339 18.1797C80.8686 22.8917 86.9201 25.1882 91.4778 28.3699C99.1319 33.7137 103.035 42.6945 101.312 50.9981C100.088 56.8962 96.3189 62.1947 94.5787 67.9975C92.8385 73.8004 93.8639 81.0359 99.8881 84.1218" stroke="#A8452C" stroke-width="2.8332" stroke-miterlimit="10" stroke-linecap="round" stroke-linejoin="round"/>
<path d="M33.9385 43.2715C37.0763 46.7262 41.9869 48.6059 45.9461 51.3809C54.1477 57.1308 57.8626 67.1362 55.0355 75.8604C54.1077 78.7231 52.554 81.413 51.5522 84.258C50.5504 87.103 50.1345 90.2519 51.4856 92.9897" stroke="#A8452C" stroke-width="0.9627" stroke-miterlimit="10" stroke-linecap="round" stroke-linejoin="round"/>
<path d="M76.0128 20.7915C77.2876 23.7387 79.9748 26.2211 83.3184 27.5421" stroke="#A8452C" stroke-width="0.9627" stroke-miterlimit="10" stroke-linecap="round" stroke-linejoin="round"/>
<path d="M87.2864 30.3867C94.2731 34.0067 98.5274 41.1387 97.8416 48.0822C97.354 53.0143 94.6327 57.558 93.0723 62.3256" stroke="#A8452C" stroke-width="0.9627" stroke-miterlimit="10" stroke-linecap="round" stroke-linejoin="round"/>
<path d="M91.6886 65.3901C90.8015 67.056 90.3961 68.9067 90.5181 70.7327" stroke="#A8452C" stroke-width="0.9627" stroke-miterlimit="10" stroke-linecap="round" stroke-linejoin="round"/>
<path d="M51.1186 106.37C48.2426 103.572 46.6652 99.8314 46.7947 96.1138" stroke="#A8452C" stroke-width="0.9627" stroke-miterlimit="10" stroke-linecap="round" stroke-linejoin="round"/>
<path d="M41.7236 45.5651L42.8001 39.4136L38.7122 41.9931L46.9116 43.0354" stroke="#A8452C" stroke-width="0.9627" stroke-miterlimit="10" stroke-linecap="round" stroke-linejoin="round"/>
<path d="M49.2615 36.6885C49.4738 37.1595 48.7213 37.6778 48.9781 38.1324C49.0713 38.2964 49.274 38.3935 49.4738 38.4584C50.469 38.7819 51.6853 38.5234 52.3853 37.8392C53.0852 37.1557 53.2206 36.0932 52.7093 35.2969C53.2746 37.0561 54.2431 38.7207 55.5453 40.1684" stroke="#A8452C" stroke-width="0.9627" stroke-miterlimit="10" stroke-linecap="round" stroke-linejoin="round"/>
<path d="M60.4863 34.5653C60.6424 32.9808 60.7992 31.3956 60.9554 29.811C62.4314 30.7606 63.9608 31.6465 65.5352 32.4644" stroke="#A8452C" stroke-width="0.867" stroke-miterlimit="10" stroke-linecap="round" stroke-linejoin="round"/>
<path d="M61.5065 37.8264C61.6538 36.6663 62.4602 35.5874 63.6122 35.0092C64.7642 34.431 66.2344 34.3667 67.4508 34.8427" stroke="#A8452C" stroke-width="0.867" stroke-miterlimit="10" stroke-linecap="round" stroke-linejoin="round"/>
<path d="M62.4617 34.1284C62.2738 33.9978 62.2405 33.728 62.3915 33.5659C62.5705 33.7481 62.2834 33.9455 62.4617 34.1284Z" stroke="#A8452C" stroke-width="0.867" stroke-miterlimit="10" stroke-linecap="round" stroke-linejoin="round"/>
<path d="M63.7743 33.373C63.5864 33.2425 63.5531 32.9726 63.704 32.8105C63.8831 32.9928 63.5953 33.1901 63.7743 33.373Z" stroke="#A8452C" stroke-width="0.867" stroke-miterlimit="10" stroke-linecap="round" stroke-linejoin="round"/>
<path d="M73.7087 27.4982C73.7864 28.0184 73.4786 28.5468 73.0066 28.8804C72.5345 29.2139 71.9189 29.3715 71.3078 29.4106C70.7366 29.4472 70.1299 29.3772 69.6712 29.084C69.0837 28.7089 68.8492 28.0134 68.9868 27.3973C69.1251 26.7813 69.589 26.2447 70.1588 25.8506C70.9423 25.3083 72.1158 25.0189 72.9466 25.5057C73.4364 25.7926 73.7065 26.297 73.7842 26.8015C73.8767 27.4024 73.7043 28.0562 73.2034 28.4844C72.7025 28.9125 71.8442 29.0449 71.2649 28.6969C71.0059 28.5411 70.8113 28.282 70.8387 28.0127C70.8579 27.8217 70.9837 27.6495 71.1317 27.5052C71.7628 26.8923 72.8882 26.7006 73.7442 27.0612" stroke="#A8452C" stroke-width="0.8648" stroke-miterlimit="10" stroke-linecap="round" stroke-linejoin="round"/>
<path d="M71.8279 30.3965C72.1683 30.6777 72.448 31.0119 72.6492 31.3776" stroke="#A8452C" stroke-width="0.867" stroke-miterlimit="10" stroke-linecap="round" stroke-linejoin="round"/>
<path d="M74.2348 29.498C74.5707 29.8789 74.9066 30.2597 75.2425 30.6406" stroke="#A8452C" stroke-width="0.867" stroke-miterlimit="10" stroke-linecap="round" stroke-linejoin="round"/>
<path d="M75.2758 28.1006C75.5104 28.4222 75.7449 28.7437 75.9795 29.0659" stroke="#A8452C" stroke-width="0.867" stroke-miterlimit="10" stroke-linecap="round" stroke-linejoin="round"/>
<path d="M69.4137 89.9084C69.4907 90.4286 69.1836 90.957 68.7116 91.2905C68.2395 91.6241 67.6239 91.7817 67.0128 91.8208C66.4416 91.8574 65.8349 91.7874 65.3762 91.4942C64.7887 91.119 64.5542 90.4235 64.6918 89.8075C64.8302 89.1914 65.2941 88.6548 65.8638 88.2608C66.6473 87.7185 67.82 87.4291 68.6517 87.9159C69.1422 88.2028 69.4115 88.7072 69.4892 89.2116C69.5817 89.8125 69.4093 90.4664 68.9084 90.8945C68.4075 91.3227 67.5492 91.4551 66.9699 91.107C66.7109 90.9513 66.5164 90.6921 66.5437 90.4229C66.563 90.2318 66.6887 90.0597 66.8367 89.9153C67.4678 89.3024 68.5932 89.1107 69.4492 89.4714" stroke="#A8452C" stroke-width="0.8648" stroke-miterlimit="10" stroke-linecap="round" stroke-linejoin="round"/>
<path d="M67.5329 92.8066C67.8732 93.0879 68.1529 93.422 68.3542 93.7878" stroke="#A8452C" stroke-width="0.867" stroke-miterlimit="10" stroke-linecap="round" stroke-linejoin="round"/>
<path d="M69.9398 91.9082C70.2757 92.2891 70.6116 92.6699 70.9475 93.0508" stroke="#A8452C" stroke-width="0.867" stroke-miterlimit="10" stroke-linecap="round" stroke-linejoin="round"/>
<path d="M70.9808 90.5107C71.2153 90.8323 71.4499 91.1539 71.6844 91.4755" stroke="#A8452C" stroke-width="0.867" stroke-miterlimit="10" stroke-linecap="round" stroke-linejoin="round"/>
<path d="M51.5662 48.5684C50.7176 48.8017 50.1686 49.5558 50.0887 50.3124C50.0088 51.0691 50.3254 51.8201 50.7612 52.4828C51.2932 53.2924 52.1966 54.0843 53.2813 53.998C54.2564 53.9198 55.0119 53.0036 54.7684 52.1952" stroke="#A8452C" stroke-width="0.8648" stroke-miterlimit="10" stroke-linecap="round" stroke-linejoin="round"/>
<path d="M52.6893 54.9194C52.9195 54.0858 52.8936 53.2018 52.6154 52.3789" stroke="#A8452C" stroke-width="0.8648" stroke-miterlimit="10" stroke-linecap="round" stroke-linejoin="round"/>
<path d="M77.1573 83.5801C76.3094 83.8134 75.7597 84.5675 75.6798 85.3242C75.5999 86.0808 75.9166 86.8318 76.3523 87.4945C76.8843 88.3041 77.7877 89.0961 78.8724 89.0097C79.8476 88.9315 80.603 88.0153 80.3596 87.207" stroke="#A8452C" stroke-width="0.8648" stroke-miterlimit="10" stroke-linecap="round" stroke-linejoin="round"/>
<path d="M78.2805 89.9301C78.5106 89.0965 78.4847 88.2125 78.2065 87.3896" stroke="#A8452C" stroke-width="0.8648" stroke-miterlimit="10" stroke-linecap="round" stroke-linejoin="round"/>
<path d="M61.9646 49.1183C63.5013 48.4991 64.6067 46.9826 64.1687 45.5828C64.1487 45.5198 64.1228 45.4529 64.0614 45.4138C64.0059 45.3785 63.9327 45.3735 63.8631 45.3691C62.2376 45.277 60.4537 45.3199 59.1989 46.2064C58.4871 46.709 57.1191 48.2393 57.711 49.0773C58.385 50.0313 61.0567 49.484 61.9646 49.1183Z" stroke="#A8452C" stroke-width="0.8648" stroke-miterlimit="10" stroke-linecap="round" stroke-linejoin="round"/>
<path d="M58.9118 44.8365C58.8651 45.1095 58.4197 45.2602 58.1659 45.0893C57.9122 44.9185 57.9817 44.5143 58.2821 44.4128C58.5833 44.3106 58.9591 44.5641 58.9118 44.8365Z" stroke="#A8452C" stroke-width="0.8648" stroke-miterlimit="10" stroke-linecap="round" stroke-linejoin="round"/>
<path d="M63.2867 50.67C63.2401 50.943 62.7947 51.0937 62.5409 50.9228C62.2871 50.752 62.3567 50.3478 62.6571 50.2463C62.9582 50.1441 63.334 50.3976 63.2867 50.67Z" stroke="#A8452C" stroke-width="0.8648" stroke-miterlimit="10" stroke-linecap="round" stroke-linejoin="round"/>
<path d="M68.5769 42.526C67.9606 42.2454 67.4323 41.6748 66.7338 41.6748H70.9933C70.8283 41.0928 70.7211 40.4988 70.6648 39.9023C70.5465 39.8947 70.4281 39.8872 70.3097 39.8796C69.7311 39.8424 69.0378 39.7339 68.4615 39.7913" stroke="#A8452C" stroke-width="0.8648" stroke-miterlimit="10" stroke-linecap="round" stroke-linejoin="round"/>
<path d="M68.3986 44.0976C68.8617 44.1077 69.009 44.6273 69.3219 44.918C69.7037 45.2723 70.36 45.273 70.9097 45.1633C71.4831 45.0485 72.0728 44.8108 72.3399 44.3637C72.607 43.916 72.3606 43.2445 71.7806 43.1606" stroke="#A8452C" stroke-width="0.8648" stroke-miterlimit="10" stroke-linecap="round" stroke-linejoin="round"/>
<path d="M77.272 40.6458C76.8887 39.8803 76.6875 39.0492 76.6853 38.2175C76.6845 37.9836 76.7038 37.7371 76.8525 37.5403C76.9627 37.394 77.1344 37.2906 77.306 37.1967C78.0637 36.7831 78.9153 36.4943 79.7994 36.3511C79.8993 35.3769 79.9999 34.4028 80.0998 33.4292" stroke="#A8452C" stroke-width="0.8648" stroke-miterlimit="10" stroke-linecap="round" stroke-linejoin="round"/>
<path d="M79.0588 39.4054C79.0122 39.6784 78.5668 39.8291 78.313 39.6582C78.0593 39.4873 78.1288 39.0832 78.4292 38.9817C78.7303 38.8795 79.1062 39.1324 79.0588 39.4054Z" stroke="#A8452C" stroke-width="0.8648" stroke-miterlimit="10" stroke-linecap="round" stroke-linejoin="round"/>
<path d="M81.5929 38.4661C81.5056 38.7316 81.0417 38.8325 80.8153 38.6357C80.5889 38.4384 80.7184 38.0455 81.0321 37.9768C81.3458 37.9087 81.6802 38.2007 81.5929 38.4661Z" stroke="#A8452C" stroke-width="0.8648" stroke-miterlimit="10" stroke-linecap="round" stroke-linejoin="round"/>
<path d="M55.1924 87.4836C54.8091 86.7182 54.6079 85.8871 54.6057 85.0554C54.6049 84.8215 54.6242 84.575 54.7729 84.3782C54.8831 84.2319 55.0548 84.1285 55.2264 84.0346C55.9841 83.6209 56.8357 83.3322 57.7198 83.189C57.8197 82.2148 57.9204 81.2406 58.0202 80.2671" stroke="#A8452C" stroke-width="0.8648" stroke-miterlimit="10" stroke-linecap="round" stroke-linejoin="round"/>
<path d="M56.9799 86.2435C56.9333 86.5165 56.4879 86.6672 56.2341 86.4963C55.9803 86.3254 56.0499 85.9213 56.3503 85.8198C56.6507 85.717 57.0265 85.9705 56.9799 86.2435Z" stroke="#A8452C" stroke-width="0.8648" stroke-miterlimit="10" stroke-linecap="round" stroke-linejoin="round"/>
<path d="M59.5133 85.3034C59.426 85.5688 58.9621 85.6704 58.7357 85.473C58.5093 85.2757 58.6388 84.8828 58.9525 84.8147C59.2662 84.7466 59.6006 85.0379 59.5133 85.3034Z" stroke="#A8452C" stroke-width="0.8648" stroke-miterlimit="10" stroke-linecap="round" stroke-linejoin="round"/>
<path d="M60.2206 62.59L61.2972 56.4385L57.2093 59.018L65.4087 60.0603" stroke="#A8452C" stroke-width="0.9627" stroke-miterlimit="10" stroke-linecap="round" stroke-linejoin="round"/>
<path d="M67.7586 53.7134C67.9709 54.1844 67.2185 54.7027 67.4752 55.1573C67.5684 55.3213 67.7712 55.4184 67.9709 55.4833C68.9661 55.8068 70.1825 55.5483 70.8824 54.8641C71.5823 54.1806 71.7177 53.1182 71.2065 52.3218C71.7717 54.081 72.7402 55.7456 74.0424 57.1933" stroke="#A8452C" stroke-width="0.9627" stroke-miterlimit="10" stroke-linecap="round" stroke-linejoin="round"/>
<path d="M67.8659 82.7673L68.9432 76.6157L64.8546 79.1953L73.054 80.2375" stroke="#A8452C" stroke-width="0.9627" stroke-miterlimit="10" stroke-linecap="round" stroke-linejoin="round"/>
<path d="M75.4045 73.8906C75.6169 74.3616 74.8644 74.8799 75.1212 75.3346C75.2136 75.4985 75.4171 75.5956 75.6169 75.6606C76.612 75.984 77.8284 75.7255 78.5283 75.0414C79.2283 74.3579 79.3637 73.2954 78.8524 72.499C79.4177 74.2582 80.3862 75.9229 81.6884 77.3706" stroke="#A8452C" stroke-width="0.9627" stroke-miterlimit="10" stroke-linecap="round" stroke-linejoin="round"/>
<path d="M78.9834 51.5902C79.1395 50.0057 79.2964 48.4205 79.4525 46.8359C80.9286 47.7855 82.4579 48.6714 84.0324 49.4893" stroke="#A8452C" stroke-width="0.867" stroke-miterlimit="10" stroke-linecap="round" stroke-linejoin="round"/>
<path d="M80.0037 54.8513C80.1509 53.6912 80.9574 52.6123 82.1094 52.0341C83.2614 51.4559 84.7315 51.3916 85.9479 51.8676" stroke="#A8452C" stroke-width="0.867" stroke-miterlimit="10" stroke-linecap="round" stroke-linejoin="round"/>
<path d="M80.9589 51.1533C80.7709 51.0227 80.7377 50.7529 80.8886 50.5908C81.0676 50.773 80.7806 50.9704 80.9589 51.1533Z" stroke="#A8452C" stroke-width="0.867" stroke-miterlimit="10" stroke-linecap="round" stroke-linejoin="round"/>
<path d="M82.2714 50.3979C82.0834 50.2674 82.0502 49.9975 82.2011 49.8354C82.3801 50.0177 82.0923 50.215 82.2714 50.3979Z" stroke="#A8452C" stroke-width="0.867" stroke-miterlimit="10" stroke-linecap="round" stroke-linejoin="round"/>
<path d="M56.3725 96.3393C56.5294 94.7547 56.6855 93.1701 56.8416 91.585C58.3177 92.5346 59.847 93.4205 61.4215 94.2383" stroke="#A8452C" stroke-width="0.867" stroke-miterlimit="10" stroke-linecap="round" stroke-linejoin="round"/>
<path d="M57.3928 99.6004C57.5401 98.4402 58.3465 97.3613 59.4985 96.7831C60.6505 96.2049 62.1207 96.1406 63.3371 96.6167" stroke="#A8452C" stroke-width="0.867" stroke-miterlimit="10" stroke-linecap="round" stroke-linejoin="round"/>
<path d="M58.348 95.9013C58.1601 95.7708 58.126 95.5009 58.2777 95.3389C58.4567 95.5217 58.1697 95.7191 58.348 95.9013Z" stroke="#A8452C" stroke-width="0.867" stroke-miterlimit="10" stroke-linecap="round" stroke-linejoin="round"/>
<path d="M59.6605 95.1459C59.4726 95.0154 59.4386 94.7455 59.5903 94.5835C59.7686 94.7664 59.4815 94.9637 59.6605 95.1459Z" stroke="#A8452C" stroke-width="0.867" stroke-miterlimit="10" stroke-linecap="round" stroke-linejoin="round"/>
<path d="M92.2059 44.5231C92.2835 45.0433 91.9757 45.5717 91.5037 45.9053C91.0317 46.2388 90.4161 46.3965 89.8049 46.4355C89.2337 46.4721 88.627 46.4021 88.1683 46.1089C87.5808 45.7338 87.3463 45.0383 87.4839 44.4222C87.6223 43.8062 88.0862 43.2696 88.6559 42.8755C89.4394 42.3332 90.6129 42.0438 91.4438 42.5306C91.9336 42.8175 92.2036 43.3219 92.2813 43.8264C92.3738 44.4273 92.2014 45.0811 91.7005 45.5093C91.1996 45.9374 90.3413 46.0698 89.762 45.7218C89.5031 45.566 89.3085 45.3069 89.3358 45.0376C89.3551 44.8466 89.4809 44.6744 89.6288 44.5301C90.26 43.9172 91.3853 43.7255 92.2414 44.0861" stroke="#A8452C" stroke-width="0.8648" stroke-miterlimit="10" stroke-linecap="round" stroke-linejoin="round"/>
<path d="M90.3251 47.4209C90.6654 47.7021 90.9451 48.0363 91.1463 48.402" stroke="#A8452C" stroke-width="0.867" stroke-miterlimit="10" stroke-linecap="round" stroke-linejoin="round"/>
<path d="M92.7319 46.5225C93.0678 46.9033 93.4037 47.2842 93.7396 47.665" stroke="#A8452C" stroke-width="0.867" stroke-miterlimit="10" stroke-linecap="round" stroke-linejoin="round"/>
<path d="M93.7729 45.125C94.0074 45.4466 94.242 45.7681 94.4765 46.0904" stroke="#A8452C" stroke-width="0.867" stroke-miterlimit="10" stroke-linecap="round" stroke-linejoin="round"/>
<path d="M61.4178 67.2725C60.5691 67.5058 60.0201 68.2599 59.9402 69.0165C59.8603 69.7732 60.177 70.5242 60.6128 71.1869C61.1448 71.9965 62.0482 72.7884 63.1328 72.7021C64.108 72.6239 64.8634 71.7077 64.62 70.8993" stroke="#A8452C" stroke-width="0.8648" stroke-miterlimit="10" stroke-linecap="round" stroke-linejoin="round"/>
<path d="M62.5409 73.6225C62.771 72.7889 62.7451 71.9049 62.4669 71.082" stroke="#A8452C" stroke-width="0.8648" stroke-miterlimit="10" stroke-linecap="round" stroke-linejoin="round"/>
<path d="M74.3791 67.317C75.9158 66.6978 77.022 65.1814 76.5832 63.7816C76.5632 63.7185 76.5373 63.6517 76.4759 63.6126C76.4204 63.5773 76.3472 63.5722 76.2784 63.5678C74.6529 63.4757 72.869 63.5186 71.6142 64.4052C70.9024 64.9077 69.5343 66.438 70.1262 67.276C70.8003 68.23 73.4713 67.6827 74.3791 67.317Z" stroke="#A8452C" stroke-width="0.8648" stroke-miterlimit="10" stroke-linecap="round" stroke-linejoin="round"/>
<path d="M71.327 63.0351C71.2804 63.3081 70.835 63.4588 70.5812 63.2873C70.3275 63.1158 70.397 62.7123 70.6974 62.6108C70.9978 62.5092 71.3737 62.7627 71.327 63.0351Z" stroke="#A8452C" stroke-width="0.8648" stroke-miterlimit="10" stroke-linecap="round" stroke-linejoin="round"/>
<path d="M75.7013 68.8687C75.6546 69.1417 75.2092 69.2924 74.9554 69.1216C74.7017 68.9507 74.7712 68.5465 75.0716 68.445C75.3727 68.3428 75.7486 68.5963 75.7013 68.8687Z" stroke="#A8452C" stroke-width="0.8648" stroke-miterlimit="10" stroke-linecap="round" stroke-linejoin="round"/>
<path d="M82.5681 61.2325C81.9518 60.9519 81.4235 60.3813 80.725 60.3813H84.9846C84.8196 59.7993 84.7123 59.2053 84.656 58.6088C84.5377 58.6013 84.4193 58.5937 84.3009 58.5861C83.7223 58.5489 83.029 58.4405 82.4527 58.4979" stroke="#A8452C" stroke-width="0.8648" stroke-miterlimit="10" stroke-linecap="round" stroke-linejoin="round"/>
<path d="M82.3898 62.8037C82.8529 62.8138 83.0002 63.3333 83.3131 63.624C83.6949 63.9784 84.3512 63.979 84.9009 63.8693C85.4743 63.7545 86.064 63.5168 86.3311 63.0698C86.5982 62.6221 86.3526 61.9506 85.7718 61.8667" stroke="#A8452C" stroke-width="0.8648" stroke-miterlimit="10" stroke-linecap="round" stroke-linejoin="round"/>
<path d="M100.09 55.4905C100.003 55.756 99.5388 55.8569 99.3124 55.6601C99.086 55.4628 99.2155 55.07 99.5292 55.0012C99.8429 54.9331 100.177 55.2251 100.09 55.4905Z" stroke="#A8452C" stroke-width="0.8648" stroke-miterlimit="10" stroke-linecap="round" stroke-linejoin="round"/>
</svg>
