<svg width="70" height="175" viewBox="0 0 70 175" fill="none" xmlns="http://www.w3.org/2000/svg">
<path d="M41.0749 135.937H29.3951C16.9108 135.937 6.79059 125.807 6.79059 113.312V78.9973H63.6787V113.312C63.6787 125.807 53.5585 135.937 41.0749 135.937Z" stroke="#A8452C" stroke-width="2" stroke-miterlimit="10" stroke-linecap="round" stroke-linejoin="round"/>
<path d="M34.1454 98.9473V117.275" stroke="#A8452C" stroke-width="2" stroke-miterlimit="10" stroke-linecap="round" stroke-linejoin="round"/>
<path d="M25.2129 108.111H43.3003" stroke="#A8452C" stroke-width="2" stroke-miterlimit="10" stroke-linecap="round" stroke-linejoin="round"/>
<path d="M29.6791 112.804L38.834 103.641" stroke="#A8452C" stroke-width="2" stroke-miterlimit="10" stroke-linecap="round" stroke-linejoin="round"/>
<path d="M29.6791 103.641L39.9508 112.804" stroke="#A8452C" stroke-width="2" stroke-miterlimit="10" stroke-linecap="round" stroke-linejoin="round"/>
<path d="M6.79059 86.6853H63.6787" stroke="#A8452C" stroke-width="2" stroke-miterlimit="10" stroke-linecap="round" stroke-linejoin="round"/>
<path d="M27.7471 136.648V150.505C27.7471 150.505 27.2494 159.445 20.7741 161.01C14.2982 162.574 6.48309 164.586 6.48309 164.586V169.502H62.0314V164.586L49.3864 161.877C49.3864 161.877 42.769 161.009 42.211 150.281V136.648" stroke="#A8452C" stroke-width="2" stroke-miterlimit="10" stroke-linecap="round" stroke-linejoin="round"/>
<path d="M6.96744 93.8052L14.2064 94.5092" stroke="#A8452C" stroke-width="2" stroke-miterlimit="10" stroke-linecap="round" stroke-linejoin="round"/>
<path d="M6.79059 108.782L14.3833 108.111" stroke="#A8452C" stroke-width="2" stroke-miterlimit="10" stroke-linecap="round" stroke-linejoin="round"/>
<path d="M10.5869 125.866L17.3978 122.303" stroke="#A8452C" stroke-width="2" stroke-miterlimit="10" stroke-linecap="round" stroke-linejoin="round"/>
<path d="M6.48242 167.338H62.0308" stroke="#A8452C" stroke-width="2" stroke-miterlimit="10" stroke-linecap="round" stroke-linejoin="round"/>
<path d="M29.3951 135.937L34.2566 128.561L39.8389 135.937" stroke="#A8452C" stroke-width="2" stroke-miterlimit="10" stroke-linecap="round" stroke-linejoin="round"/>
<path d="M7.31711 118.176L12.1498 116.716" stroke="#A8452C" stroke-width="2" stroke-miterlimit="10" stroke-linecap="round" stroke-linejoin="round"/>
<path d="M6.79059 101.629H11.2568" stroke="#A8452C" stroke-width="2" stroke-miterlimit="10" stroke-linecap="round" stroke-linejoin="round"/>
<path d="M63.0001 92.8633L55.7605 93.5673" stroke="#A8452C" stroke-width="2" stroke-miterlimit="10" stroke-linecap="round" stroke-linejoin="round"/>
<path d="M63.1763 107.839L55.5843 107.169" stroke="#A8452C" stroke-width="2" stroke-miterlimit="10" stroke-linecap="round" stroke-linejoin="round"/>
<path d="M59.3806 124.924L52.5697 121.361" stroke="#A8452C" stroke-width="2" stroke-miterlimit="10" stroke-linecap="round" stroke-linejoin="round"/>
<path d="M62.6498 117.234L57.8171 115.774" stroke="#A8452C" stroke-width="2" stroke-miterlimit="10" stroke-linecap="round" stroke-linejoin="round"/>
<path d="M63.1763 100.688H58.7107" stroke="#A8452C" stroke-width="2" stroke-miterlimit="10" stroke-linecap="round" stroke-linejoin="round"/>
<path d="M39.7565 138.094C39.8858 143.088 40.0157 148.081 40.1457 153.075" stroke="#A8452C" stroke-miterlimit="10" stroke-linecap="round" stroke-linejoin="round"/>
<path d="M42.0777 158.351C42.7027 161.138 45.2021 163.4 48.0351 163.742" stroke="#A8452C" stroke-miterlimit="10" stroke-linecap="round" stroke-linejoin="round"/>
<path d="M28.3079 133.794C29.8319 131.485 31.3559 129.175 32.8806 126.866C33.1894 126.399 33.5954 125.877 34.1548 125.891C34.5855 125.901 34.9325 126.233 35.2239 126.551C35.8536 127.238 36.4445 127.961 36.9932 128.715" stroke="#A8452C" stroke-miterlimit="10" stroke-linecap="round" stroke-linejoin="round"/>
<path d="M38.3296 130.316C39.0042 131.397 39.7612 132.426 40.5925 133.391" stroke="#A8452C" stroke-miterlimit="10" stroke-linecap="round" stroke-linejoin="round"/>
<path d="M7.10141 83.1819H15.4116" stroke="#A8452C" stroke-miterlimit="10" stroke-linecap="round" stroke-linejoin="round"/>
<path d="M54.0187 83.1819H63.3987" stroke="#A8452C" stroke-miterlimit="10" stroke-linecap="round" stroke-linejoin="round"/>
<path d="M17.1741 83.1819H51.3539" stroke="#A8452C" stroke-miterlimit="10" stroke-linecap="round" stroke-linejoin="round"/>
<path d="M31.8865 70.3204C32.0888 65.0959 36.8417 61.4249 40.7848 57.9946C44.3433 54.8989 47.5609 51.4103 50.3597 47.6126C51.5012 46.0645 52.5885 44.4318 53.1378 42.5879C54.4401 38.2143 52.1095 33.0568 47.9682 31.1472" stroke="#A8452C" stroke-width="1.8593" stroke-miterlimit="10" stroke-linecap="round" stroke-linejoin="round"/>
<path d="M38.6605 74.9658C39.6573 69.7923 45.3743 67.292 49.2503 63.7256C50.621 62.4644 51.8549 60.882 52.0418 59.0281C52.2287 57.1742 50.9867 55.0936 49.1304 54.9441" stroke="#A8452C" stroke-width="1.8593" stroke-miterlimit="10" stroke-linecap="round" stroke-linejoin="round"/>
<path d="M42.0596 49.2843C43.2969 47.4391 41.2825 45.2191 39.6955 43.6649C36.5657 40.6007 34.4709 36.4959 33.8258 32.1625C33.4694 29.7695 33.5773 27.1968 34.8052 25.1128C36.0332 23.0289 38.6049 21.6149 40.9228 22.3035" stroke="#A8452C" stroke-width="1.8593" stroke-miterlimit="10" stroke-linecap="round" stroke-linejoin="round"/>
<path d="M28.6462 59.3832C27.9006 53.1825 25.1861 47.2338 20.9925 42.6094C19.2809 40.7226 17.3395 39.0591 15.5576 37.238C12.1511 33.7561 9.27324 29.5394 8.39298 24.7466C7.24879 18.5144 9.87347 11.739 14.9172 7.90842C16.2014 6.93351 17.6557 6.12824 19.2441 5.85401C23.4705 5.12518 27.6581 8.59031 28.6803 12.7588C29.5572 16.3352 28.4271 20.3361 25.8091 22.9236C24.5437 24.1747 22.8649 25.1275 21.0863 25.0859C19.3077 25.0443 17.5043 23.7791 17.2598 22.0157C17.0488 20.4963 17.9565 19.0662 18.8736 17.8378" stroke="#A8452C" stroke-width="1.8593" stroke-miterlimit="10" stroke-linecap="round" stroke-linejoin="round"/>
<path d="M47.2339 71.9014C49.0092 68.6079 51.8784 65.9172 55.2775 64.3576C57.2215 63.4659 59.4396 62.9375 61.5049 63.4954C63.5695 64.0532 65.3716 65.9367 65.2986 68.0756C65.2135 70.5658 62.6786 72.4023 60.1986 72.6168C59.0048 72.7201 57.5605 72.3681 57.1646 71.2363C56.8765 70.4116 57.2992 69.4702 57.9665 68.9063C58.6337 68.3431 59.4985 68.0816 60.3433 67.8623" stroke="#A8452C" stroke-width="1.8593" stroke-miterlimit="10" stroke-linecap="round" stroke-linejoin="round"/>
<path d="M26.4569 75.6556C25.3121 72.6899 23.7994 69.8678 21.9645 67.273C20.6268 65.3815 19.0572 63.5618 16.9838 62.5306C14.9105 61.4993 12.2335 61.4122 10.4034 62.8309C9.00192 63.9178 8.29518 65.708 8.10761 67.4721C7.95554 68.9016 8.11832 70.4049 8.83646 71.6493C9.72341 73.1848 11.4571 74.1925 13.2297 74.2013C14.0021 74.2053 14.7892 74.0242 15.4317 73.5951C16.5216 72.8663 17.0689 71.412 16.7299 70.1447C16.391 68.8775 15.1905 67.8912 13.8828 67.806" stroke="#A8452C" stroke-width="1.8593" stroke-miterlimit="10" stroke-linecap="round" stroke-linejoin="round"/>
<path d="M34.8133 58.5222C34.7416 53.5665 32.9342 48.6525 29.7769 44.8333C27.5147 42.0963 24.5102 39.7771 23.4015 36.4031C22.0067 32.1582 24.6616 26.9337 28.9918 25.8455" stroke="#A8452C" stroke-width="1.8593" stroke-miterlimit="10" stroke-linecap="round" stroke-linejoin="round"/>
<path d="M42.4716 16.4773C41.0099 16.1715 39.7371 15.0779 39.2139 13.6779C38.6907 12.2779 38.9332 10.6171 39.8349 9.42564C40.4271 8.64317 41.2638 8.0766 42.1434 7.64145C43.7062 6.86836 45.5217 6.47277 47.2112 6.90323C50.1346 7.64815 52.007 10.8028 51.9688 13.8214C51.9306 16.8407 50.3289 19.6528 48.281 21.8694C46.3972 23.9077 44.066 25.6289 42.838 28.1185C41.0802 31.6808 42.2305 36.4266 45.4232 38.7874" stroke="#A8452C" stroke-width="1.8593" stroke-miterlimit="10" stroke-linecap="round" stroke-linejoin="round"/>
<path d="M22.7081 61.0768C21.6182 59.8706 20.2375 58.9755 18.9178 58.0274C17.2524 56.8312 15.6447 55.5137 14.4134 53.873C13.1821 52.2323 12.3461 50.2335 12.3856 48.1818C12.4104 46.9199 12.813 45.5971 13.7783 44.7857C14.2794 44.3647 14.9024 44.1065 15.5428 43.9704C17.637 43.5259 20.0339 44.5484 20.9255 46.4962C21.8165 48.444 20.8431 51.1072 18.8146 51.7925" stroke="#A8452C" stroke-width="1.8593" stroke-miterlimit="10" stroke-linecap="round" stroke-linejoin="round"/>
</svg>
