<svg width="135" height="169" viewBox="0 0 135 169" fill="none" xmlns="http://www.w3.org/2000/svg">
<path d="M60.4999 167.076L30.4183 107.559C30.4183 107.559 32.6194 67.8807 30.4183 62.7373L53.8966 28.9373H72.239L100.853 106.089C100.853 106.089 70.7716 153.85 60.4999 167.076Z" stroke="black" stroke-width="2" stroke-miterlimit="10" stroke-linecap="round" stroke-linejoin="round"/>
<path d="M30.4183 107.559L49.8613 119.316L79.2091 117.479L100.853 106.09" stroke="black" stroke-width="2" stroke-miterlimit="10" stroke-linecap="round" stroke-linejoin="round"/>
<path d="M63.4346 28.9373L49.8612 119.316L60.4998 167.076L79.209 117.479L65.6357 61.8349" stroke="black" stroke-width="2" stroke-miterlimit="10" stroke-linecap="round" stroke-linejoin="round"/>
<path d="M44.8867 41.9084L57.8254 66.2849" stroke="black" stroke-width="2" stroke-miterlimit="10" stroke-linecap="round" stroke-linejoin="round"/>
<path d="M56.9281 72.2625L70.4046 56.1244V46.5723L76.8362 41.3333" stroke="black" stroke-width="2" stroke-miterlimit="10" stroke-linecap="round" stroke-linejoin="round"/>
<path d="M2.53784 93.5981L22.7145 101.681" stroke="black" stroke-width="2" stroke-miterlimit="10" stroke-linecap="round" stroke-linejoin="round"/>
<path d="M14.6438 84.0461L25.6492 88.0874" stroke="black" stroke-width="2" stroke-miterlimit="10" stroke-linecap="round" stroke-linejoin="round"/>
<path d="M4.73889 66.2847L25.6492 74.4937" stroke="black" stroke-width="2" stroke-miterlimit="10" stroke-linecap="round" stroke-linejoin="round"/>
<path d="M14.6438 56.5474L25.6492 63.1046" stroke="black" stroke-width="2" stroke-miterlimit="10" stroke-linecap="round" stroke-linejoin="round"/>
<path d="M15.1941 32.9788L32.2525 52.4505" stroke="black" stroke-width="2" stroke-miterlimit="10" stroke-linecap="round" stroke-linejoin="round"/>
<path d="M32.2526 32.9788L39.2227 41.9086" stroke="black" stroke-width="2" stroke-miterlimit="10" stroke-linecap="round" stroke-linejoin="round"/>
<path d="M39.2227 5.79175L49.8612 27.8352" stroke="black" stroke-width="2" stroke-miterlimit="10" stroke-linecap="round" stroke-linejoin="round"/>
<path d="M60.8667 23.7938V13.5068" stroke="black" stroke-width="2" stroke-miterlimit="10" stroke-linecap="round" stroke-linejoin="round"/>
<path d="M79.209 1.93408L72.2389 25.0797" stroke="black" stroke-width="2" stroke-miterlimit="10" stroke-linecap="round" stroke-linejoin="round"/>
<path d="M79.209 31.1418L89.1139 23.7939" stroke="black" stroke-width="2" stroke-miterlimit="10" stroke-linecap="round" stroke-linejoin="round"/>
<path d="M84.1615 42.7146L107.456 27.8352" stroke="black" stroke-width="2" stroke-miterlimit="10" stroke-linecap="round" stroke-linejoin="round"/>
<path d="M87.2797 52.4504C88.7471 52.083 98.2851 47.3069 98.2851 47.3069" stroke="black" stroke-width="2" stroke-miterlimit="10" stroke-linecap="round" stroke-linejoin="round"/>
<path d="M91.3151 66.2849L116.628 52.4504" stroke="black" stroke-width="2" stroke-miterlimit="10" stroke-linecap="round" stroke-linejoin="round"/>
<path d="M95.809 77.4331L107.456 72.657" stroke="black" stroke-width="2" stroke-miterlimit="10" stroke-linecap="round" stroke-linejoin="round"/>
<path d="M100.853 88.0873L126.532 75.0449" stroke="black" stroke-width="2" stroke-miterlimit="10" stroke-linecap="round" stroke-linejoin="round"/>
<path d="M103.971 95.4066L116.628 90.7444" stroke="black" stroke-width="1.5862" stroke-miterlimit="10" stroke-linecap="round" stroke-linejoin="round"/>
<path d="M107.474 105.829C107.274 105.122 132.386 96.8474 132.386 96.8474" stroke="black" stroke-width="2" stroke-miterlimit="10" stroke-linecap="round" stroke-linejoin="round"/>
<path d="M78.4753 56.5474L85.4455 75.0448" stroke="black" stroke-miterlimit="10" stroke-linecap="round" stroke-linejoin="round"/>
<path d="M34.2644 95.5078L33.7758 104.232" stroke="black" stroke-miterlimit="10" stroke-linecap="round" stroke-linejoin="round"/>
<path d="M53.8379 122.917L56.9282 136.737" stroke="black" stroke-miterlimit="10" stroke-linecap="round" stroke-linejoin="round"/>
<path d="M70.0378 31.8765L72.4833 38.178" stroke="black" stroke-miterlimit="10" stroke-linecap="round" stroke-linejoin="round"/>
<path d="M92.0487 114.417L82.2664 129.827" stroke="black" stroke-miterlimit="10" stroke-linecap="round" stroke-linejoin="round"/>
<path d="M48.7606 41.9084L53.8378 51.4709" stroke="black" stroke-miterlimit="10" stroke-linecap="round" stroke-linejoin="round"/>
<path d="M74.9528 114.417L68.0811 84.0461" stroke="black" stroke-miterlimit="10" stroke-linecap="round" stroke-linejoin="round"/>
<path d="M45.3212 131.139L52.2003 144.613" stroke="black" stroke-width="0.9178" stroke-miterlimit="10" stroke-linecap="round" stroke-linejoin="round"/>
</svg>
