<svg width="168" height="195" viewBox="0 0 168 195" fill="none" xmlns="http://www.w3.org/2000/svg">
<path d="M18.9627 116.49L82.7621 139.04C82.7621 139.04 72.8999 127.89 83.6489 120.121L19.6667 98.5906C19.6667 98.5906 7.63778 105.344 18.9627 116.49Z" stroke="black" stroke-width="2" stroke-miterlimit="10" stroke-linecap="round" stroke-linejoin="round"/>
<path d="M119.528 93.8174L157.027 106.286L83.6489 120.121L82.7621 139.04" stroke="black" stroke-width="2" stroke-miterlimit="10" stroke-linecap="round" stroke-linejoin="round"/>
<path d="M82.7621 139.039L153.783 125.481L153.134 127.738L83.6489 140.839L82.7621 139.039Z" stroke="black" stroke-width="2" stroke-miterlimit="10" stroke-linecap="round" stroke-linejoin="round"/>
<path d="M151.326 107.361C151.326 107.361 144.528 117.724 151.326 125.95" stroke="black" stroke-width="2" stroke-miterlimit="10" stroke-linecap="round" stroke-linejoin="round"/>
<path d="M83.6489 165.518C83.6489 165.518 67.0133 154.956 83.6489 140.839V165.518ZM83.6489 165.518L18.9627 139.163C4.56665 125.605 18.9627 116.49 18.9627 116.49" stroke="black" stroke-width="1.9902" stroke-miterlimit="10" stroke-linecap="round" stroke-linejoin="round"/>
<path d="M83.6489 162.324L155.821 148.456L155.906 151.227L83.6489 165.518V162.324Z" stroke="black" stroke-width="2" stroke-miterlimit="10" stroke-linecap="round" stroke-linejoin="round"/>
<path d="M154.534 148.703C154.534 148.703 144.154 144.898 151.193 128.104" stroke="black" stroke-width="1.9902" stroke-miterlimit="10" stroke-linecap="round" stroke-linejoin="round"/>
<path d="M119.497 101.443C120.095 98.3801 121.236 94.9433 118.442 92.5461C117.524 91.7582 116.907 90.7723 116.311 89.8089C115.469 88.45 115.262 86.9071 115.067 85.4008C114.662 82.2669 114.258 79.133 113.853 75.999C113.563 73.7554 113.261 71.4734 112.154 69.3967C110.457 66.2146 107.033 63.8101 104.973 60.7657C101.543 55.6935 101.774 48.7931 95.9842 45.3265C91.7805 42.8098 85.1522 43.3826 81.7294 46.5586C76.6896 51.236 78.7342 59.6037 72.2863 63.0222C70.4529 63.9941 68.1449 64.392 66.5609 65.6089C62.4778 68.7465 65.6488 75.0155 61.6694 78.2354C60.5538 79.1378 59.0335 79.6393 57.7314 80.3675C54.2018 82.3412 52.5112 85.8968 52.3545 89.3214C52.1979 92.746 53.3634 96.1121 54.5182 99.4142" stroke="black" stroke-width="1.888" stroke-miterlimit="10" stroke-linecap="round" stroke-linejoin="round"/>
<path d="M67.4731 105.182C65.5191 102.376 66.5564 98.4876 69.7757 96.5504C70.9904 95.8198 72.4484 95.3506 73.554 94.5182C75.6608 92.9321 76.0386 90.4337 76.93 88.24C77.8214 86.0463 80.0434 83.7155 82.921 84.0263C85.328 84.2865 86.7961 86.2852 87.375 88.1577C87.9539 90.0303 88.0537 92.0625 89.3682 93.684C90.6703 95.2897 92.966 96.2281 94.4325 97.7417C96.7742 100.158 96.5869 103.489 96.9984 106.519" stroke="black" stroke-width="1.888" stroke-miterlimit="10" stroke-linecap="round" stroke-linejoin="round"/>
<path d="M85.4048 73.1693C85.2305 70.9951 85.4217 68.8027 85.9722 66.6681C86.3492 65.205 87.0372 63.6219 88.6894 62.9084C89.9425 62.3673 91.531 62.4678 92.7994 62.9857C95.5043 64.0905 96.59 66.6602 97.4284 68.9812C98.6154 72.2669 99.8024 75.5531 100.989 78.8388C101.803 81.0909 102.609 83.5369 101.548 85.7233" stroke="black" stroke-width="1.888" stroke-miterlimit="10" stroke-linecap="round" stroke-linejoin="round"/>
<path d="M77.9365 74.3428C76.6712 73.7182 76.8662 72.1509 75.8781 71.2661C74.6427 70.1596 72.1536 70.7494 71.1332 71.9864C70.112 73.2234 70.0959 74.7955 69.9853 76.272C69.6329 80.986 67.9568 85.6354 65.1152 89.7845" stroke="black" stroke-width="1.888" stroke-miterlimit="10" stroke-linecap="round" stroke-linejoin="round"/>
<path d="M93.5549 29.1383C92.8939 26.8642 94.5247 24.5785 94.7174 22.2087C94.9423 19.4459 93.2171 16.9725 92.4639 14.3151C92.1345 13.1531 91.9902 11.9417 91.9003 10.7333C91.7821 9.13925 91.8428 7.31423 92.9837 6.257C94.3465 4.9938 96.6453 5.59828 97.8093 7.06501C98.9725 8.53173 99.2542 10.5511 99.3118 12.4602C99.3686 14.3419 99.2519 16.2297 98.964 18.0883C98.8051 19.1132 98.5939 20.154 98.746 21.1801C98.9164 22.3312 99.526 23.3488 99.9637 24.4195C100.506 25.7485 100.789 27.1939 100.79 28.6399C100.79 29.2035 100.743 29.7861 100.49 30.2833C99.2066 32.8097 94.2682 31.5904 93.5549 29.1383Z" stroke="black" stroke-width="2" stroke-miterlimit="10" stroke-linecap="round" stroke-linejoin="round"/>
<path d="M110.158 57.7977C108.604 56.6813 108.204 54.8539 108.371 53.1952C108.538 51.5365 109.173 49.9229 109.305 48.2624C109.517 45.5843 108.415 42.9373 108.452 40.2543C108.464 39.3725 108.615 38.4561 109.227 37.72C109.838 36.9839 111.013 36.4848 112.079 36.734C112.991 36.9473 113.596 37.6231 114.053 38.2855C115.386 40.2196 116.074 42.4309 116.028 44.6349C116.004 45.7696 115.791 46.9024 115.884 48.0345C116.017 49.6329 116.755 51.1605 117.044 52.7461C117.548 55.5065 114.39 60.8359 110.158 57.7977Z" stroke="black" stroke-width="2" stroke-miterlimit="10" stroke-linecap="round" stroke-linejoin="round"/>
<path d="M68.1311 39.6987C68.2225 37.6933 68.4298 35.6562 69.3473 33.7867C69.5807 33.3102 69.8625 32.841 69.9615 32.3358C70.0774 31.7447 69.9377 31.1421 69.9469 30.5437C69.9569 29.9453 70.1627 29.2933 70.7761 28.9454C71.6576 28.4463 72.9743 28.8497 73.5847 29.559C74.1943 30.2689 74.2872 31.1713 74.3602 32.0281C74.5022 33.6874 74.6443 35.3467 74.7863 37.0065C74.9552 38.9796 75.4919 43.4938 72.2272 44.2993C68.8091 45.1433 68.0482 41.5207 68.1311 39.6987Z" stroke="black" stroke-width="2" stroke-miterlimit="10" stroke-linecap="round" stroke-linejoin="round"/>
<path d="M54.7716 66.2214C54.9781 64.9119 54.8706 63.5714 54.4568 62.2929C54.2495 61.6525 53.9638 61.0133 53.99 60.3527C54.0153 59.6922 54.4476 58.9841 55.2384 58.7782C56.0952 58.5551 57.0434 59.014 57.4865 59.6374C57.9295 60.2607 57.9894 61.0035 58.04 61.7183C58.1406 63.1539 59.5357 68.3213 58.1199 69.3206C55.3781 71.2566 54.5405 67.6876 54.7716 66.2214Z" stroke="black" stroke-width="2" stroke-miterlimit="10" stroke-linecap="round" stroke-linejoin="round"/>
<path d="M19.6667 98.5905L51.9046 90.7786" stroke="black" stroke-width="2" stroke-miterlimit="10" stroke-linecap="round" stroke-linejoin="round"/>
<path d="M53.4226 96.136L43.3661 98.5265L88.972 114.11L134.427 104.967L119.985 99.8262" stroke="black" stroke-miterlimit="10" stroke-linecap="round" stroke-linejoin="round"/>
<path d="M83.6489 124.183L149.234 111.937" stroke="black" stroke-miterlimit="10" stroke-linecap="round" stroke-linejoin="round"/>
<path d="M83.6489 127.637L148.445 115.423" stroke="black" stroke-miterlimit="10" stroke-linecap="round" stroke-linejoin="round"/>
<path d="M82.7659 131.68L148.445 119.485" stroke="black" stroke-miterlimit="10" stroke-linecap="round" stroke-linejoin="round"/>
<path d="M82.7659 135.152L149.317 122.654" stroke="black" stroke-miterlimit="10" stroke-linecap="round" stroke-linejoin="round"/>
<path d="M83.6489 145.593L149.435 133.309" stroke="black" stroke-miterlimit="10" stroke-linecap="round" stroke-linejoin="round"/>
<path d="M83.6489 148.964L148.746 136.777" stroke="black" stroke-miterlimit="10" stroke-linecap="round" stroke-linejoin="round"/>
<path d="M83.6489 152.926L148.915 140.808" stroke="black" stroke-miterlimit="10" stroke-linecap="round" stroke-linejoin="round"/>
<path d="M83.6489 156.397L149.848 143.965" stroke="black" stroke-miterlimit="10" stroke-linecap="round" stroke-linejoin="round"/>
<path d="M83.0631 190C83.0631 190 67.0132 179.635 83.6489 165.518L83.0631 190ZM83.0631 190L18.3768 163.645C3.98078 150.087 18.9627 139.163 18.9627 139.163" stroke="black" stroke-width="1.9902" stroke-miterlimit="10" stroke-linecap="round" stroke-linejoin="round"/>
<path d="M83.1475 186.79L155.32 172.922V175.709L83.063 190L83.1475 186.79Z" stroke="black" stroke-width="2" stroke-miterlimit="10" stroke-linecap="round" stroke-linejoin="round"/>
<path d="M153.948 173.186C153.948 173.186 143.692 169.045 150.731 152.25" stroke="black" stroke-width="1.9902" stroke-miterlimit="10" stroke-linecap="round" stroke-linejoin="round"/>
<path d="M83.5422 169.986L148.892 157.783" stroke="black" stroke-miterlimit="10" stroke-linecap="round" stroke-linejoin="round"/>
<path d="M83.4592 173.455L148.33 161.227" stroke="black" stroke-miterlimit="10" stroke-linecap="round" stroke-linejoin="round"/>
<path d="M83.3663 177.352L148.456 165.266" stroke="black" stroke-miterlimit="10" stroke-linecap="round" stroke-linejoin="round"/>
<path d="M83.2827 180.837L149.404 168.42" stroke="black" stroke-miterlimit="10" stroke-linecap="round" stroke-linejoin="round"/>
<path d="M73.739 135.85C73.739 135.85 65.7341 124.793 76.371 117.885" stroke="black" stroke-miterlimit="10" stroke-linecap="round" stroke-linejoin="round"/>
<path d="M77.7155 137.256C77.7155 137.256 69.2629 125.723 79.8998 118.815" stroke="black" stroke-miterlimit="10" stroke-linecap="round" stroke-linejoin="round"/>
<path d="M26.1476 100.771C26.1476 100.771 15.5536 106.329 25.0957 118.658" stroke="black" stroke-miterlimit="10" stroke-linecap="round" stroke-linejoin="round"/>
<path d="M29.6388 101.946C29.6388 101.946 19.8233 107.993 29.3662 120.323" stroke="black" stroke-miterlimit="10" stroke-linecap="round" stroke-linejoin="round"/>
<path d="M25.0965 118.658C25.0965 118.658 14.1064 126.417 24.3878 141.373" stroke="black" stroke-miterlimit="10" stroke-linecap="round" stroke-linejoin="round"/>
<path d="M29.3662 120.322C29.3662 120.322 18.376 128.082 28.6575 143.038" stroke="black" stroke-miterlimit="10" stroke-linecap="round" stroke-linejoin="round"/>
<path d="M71.6076 160.612C59.7399 148.441 74.9913 136.293 74.9913 136.293" stroke="black" stroke-miterlimit="10" stroke-linecap="round" stroke-linejoin="round"/>
<path d="M76.0462 162.34C64.1785 150.169 79.4299 138.021 79.4299 138.021" stroke="black" stroke-miterlimit="10" stroke-linecap="round" stroke-linejoin="round"/>
<path d="M52.806 93.8174L35.2805 98.181L88.3516 117.074L143.92 105.446L120.242 97.27" stroke="black" stroke-miterlimit="10" stroke-linecap="round" stroke-linejoin="round"/>
<path d="M23.9088 141.178C23.9088 141.178 13.7317 149.979 23.9088 165.899" stroke="black" stroke-miterlimit="10" stroke-linecap="round" stroke-linejoin="round"/>
<path d="M28.074 142.764C28.074 142.764 17.897 151.565 28.074 167.485" stroke="black" stroke-miterlimit="10" stroke-linecap="round" stroke-linejoin="round"/>
<path d="M109.25 96.1358C109.755 96.1358 110.165 95.8109 110.165 95.4101C110.165 95.0092 109.755 94.6843 109.25 94.6843C108.745 94.6843 108.336 95.0092 108.336 95.4101C108.336 95.8109 108.745 96.1358 109.25 96.1358Z" stroke="black" stroke-miterlimit="10" stroke-linecap="round" stroke-linejoin="round"/>
<path d="M71.0395 103.863C71.5445 103.863 71.9539 103.538 71.9539 103.137C71.9539 102.737 71.5445 102.412 71.0395 102.412C70.5345 102.412 70.1251 102.737 70.1251 103.137C70.1251 103.538 70.5345 103.863 71.0395 103.863Z" stroke="black" stroke-miterlimit="10" stroke-linecap="round" stroke-linejoin="round"/>
<path d="M96.3236 53.5487C96.8286 53.5487 97.238 53.2237 97.238 52.8229C97.238 52.4221 96.8286 52.0972 96.3236 52.0972C95.8185 52.0972 95.4091 52.4221 95.4091 52.8229C95.4091 53.2237 95.8185 53.5487 96.3236 53.5487Z" stroke="black" stroke-miterlimit="10" stroke-linecap="round" stroke-linejoin="round"/>
<path d="M76.371 66.648C76.8761 66.648 77.2855 66.3231 77.2855 65.9223C77.2855 65.5215 76.8761 65.1965 76.371 65.1965C75.866 65.1965 75.4566 65.5215 75.4566 65.9223C75.4566 66.3231 75.866 66.648 76.371 66.648Z" stroke="black" stroke-miterlimit="10" stroke-linecap="round" stroke-linejoin="round"/>
<path d="M97.238 80.9581C97.743 80.9581 98.1524 80.6332 98.1524 80.2323C98.1524 79.8315 97.743 79.5066 97.238 79.5066C96.733 79.5066 96.3235 79.8315 96.3235 80.2323C96.3235 80.6332 96.733 80.9581 97.238 80.9581Z" stroke="black" stroke-miterlimit="10" stroke-linecap="round" stroke-linejoin="round"/>
<path d="M57.0404 87.1746C57.5454 87.1746 57.9548 86.8497 57.9548 86.4489C57.9548 86.0481 57.5454 85.7231 57.0404 85.7231C56.5354 85.7231 56.126 86.0481 56.126 86.4489C56.126 86.8497 56.5354 87.1746 57.0404 87.1746Z" stroke="black" stroke-miterlimit="10" stroke-linecap="round" stroke-linejoin="round"/>
<path d="M109.25 73.3248C109.755 73.3248 110.165 72.9999 110.165 72.599C110.165 72.1982 109.755 71.8733 109.25 71.8733C108.745 71.8733 108.336 72.1982 108.336 72.599C108.336 72.9999 108.745 73.3248 109.25 73.3248Z" stroke="black" stroke-miterlimit="10" stroke-linecap="round" stroke-linejoin="round"/>
<path d="M77.2156 162.896C77.2156 162.896 62.3158 173.161 75.4781 186.909" stroke="black" stroke-miterlimit="10" stroke-linecap="round" stroke-linejoin="round"/>
<path d="M72.9328 161.179C72.9328 161.179 58.0331 171.444 71.1953 185.192" stroke="black" stroke-miterlimit="10" stroke-linecap="round" stroke-linejoin="round"/>
<path d="M71.4848 26.3903C72.8484 26.3172 74.2427 26.751 75.1794 27.5414C76.1169 28.3311 76.5783 29.4614 76.4048 30.5376" stroke="black" stroke-miterlimit="10" stroke-linecap="round" stroke-linejoin="round"/>
<path d="M109.489 35.0942C107.97 35.714 106.87 36.9406 106.629 38.2824C106.491 39.0477 106.617 39.8277 106.549 40.5992" stroke="black" stroke-miterlimit="10" stroke-linecap="round" stroke-linejoin="round"/>
<path d="M83.2435 42.7034C82.022 43.1695 80.8227 43.7009 79.8192 44.4236C78.9554 45.0457 78.2483 45.8044 77.7515 46.6416C76.2689 49.1406 76.6728 52.2447 74.6765 54.5072" stroke="black" stroke-miterlimit="10" stroke-linecap="round" stroke-linejoin="round"/>
<path d="M53.8909 57.2815C53.6429 57.5746 53.1914 57.7074 52.8482 57.9323C52.0897 58.4289 51.9499 59.2966 51.9161 60.0766C51.8601 61.3733 51.9445 62.6737 52.168 63.9588" stroke="black" stroke-miterlimit="10" stroke-linecap="round" stroke-linejoin="round"/>
<path d="M98.1041 4.75806C99.9613 6.04075 101.238 7.8414 101.657 9.76636C102.332 12.871 100.831 16.1213 101.787 19.1797" stroke="black" stroke-miterlimit="10" stroke-linecap="round" stroke-linejoin="round"/>
<path d="M50.0934 86.9779C50.5065 84.7172 51.0025 82.3115 52.9373 80.6199C54.0614 79.6376 55.567 78.996 56.9529 78.2538C58.3387 77.5116 59.6877 76.5853 60.2121 75.3252" stroke="black" stroke-miterlimit="10" stroke-linecap="round" stroke-linejoin="round"/>
<path d="M115.245 59.7829C116.858 58.7757 118.021 57.3242 118.486 55.738" stroke="black" stroke-miterlimit="10" stroke-linecap="round" stroke-linejoin="round"/>
<path d="M111.583 65.3066C113.04 66.6856 114.389 68.1804 115.104 69.889C116.193 72.491 115.736 75.3964 116.971 77.9569" stroke="black" stroke-miterlimit="10" stroke-linecap="round" stroke-linejoin="round"/>
<path d="M97.3724 43.3022C99.7218 44.3516 101.55 46.1156 102.393 48.1478C103.404 50.5847 103.099 53.4419 105.075 55.4729" stroke="black" stroke-miterlimit="10" stroke-linecap="round" stroke-linejoin="round"/>
<path d="M72.7916 58.1565C72.6833 59.0961 71.686 59.8085 70.6763 60.3063C69.6667 60.8041 68.5349 61.2155 67.824 61.9717" stroke="black" stroke-miterlimit="10" stroke-linecap="round" stroke-linejoin="round"/>
<path d="M92.7733 61.1406C94.4279 61.466 95.9466 62.2119 97.0522 63.2417C99.44 65.4652 99.6773 68.6247 100.897 71.3809" stroke="black" stroke-miterlimit="10" stroke-linecap="round" stroke-linejoin="round"/>
<path d="M83.8846 82.3809C85.2052 82.8988 86.5627 83.4387 87.527 84.3223C88.8292 85.5154 89.2246 87.1472 89.7268 88.6749C90.2289 90.2026 91.0028 91.8222 92.7073 92.6369" stroke="black" stroke-miterlimit="10" stroke-linecap="round" stroke-linejoin="round"/>
<path d="M73.0542 69.3146C71.3228 69.2579 69.745 70.2414 68.9265 71.4534C68.1081 72.6654 67.9069 74.0737 67.7818 75.4459C67.6566 76.8176 67.5844 78.2179 66.9863 79.5085" stroke="black" stroke-miterlimit="10" stroke-linecap="round" stroke-linejoin="round"/>
</svg>
