<svg width="120" height="137" viewBox="0 0 120 137" fill="none" xmlns="http://www.w3.org/2000/svg">
<path d="M83.9197 130.149H18.823C12.8442 130.149 7.99774 125.872 7.99774 120.595V33.7574C7.99774 28.4803 12.8442 24.2026 18.823 24.2026H83.9197C89.8986 24.2026 94.745 28.4803 94.745 33.7574V120.595C94.745 125.872 89.8986 130.149 83.9197 130.149Z" stroke="black" stroke-width="2.1499" stroke-miterlimit="10" stroke-linecap="round" stroke-linejoin="round"/>
<path d="M11.2521 26.9309L29.4325 12.8303H101.374C101.374 12.8303 112.461 11.397 112.461 23.6324V103.806C112.461 103.806 113.2 113.283 103.838 119.807L89.5327 128.766" stroke="black" stroke-width="2.1499" stroke-miterlimit="10" stroke-linecap="round" stroke-linejoin="round"/>
<path d="M14.817 44.6241L26.7997 32.51H14.817V44.6241Z" stroke="black" stroke-width="2.1499" stroke-miterlimit="10" stroke-linecap="round" stroke-linejoin="round"/>
<path d="M87.9258 44.6241L75.9431 32.51H87.9258V44.6241Z" stroke="black" stroke-width="2.1499" stroke-miterlimit="10" stroke-linecap="round" stroke-linejoin="round"/>
<path d="M87.9258 111.202L75.9431 123.316H87.9258V111.202Z" stroke="black" stroke-width="2.1499" stroke-miterlimit="10" stroke-linecap="round" stroke-linejoin="round"/>
<path d="M14.817 111.202L26.7997 123.316H14.817V111.202Z" stroke="black" stroke-width="2.1499" stroke-miterlimit="10" stroke-linecap="round" stroke-linejoin="round"/>
<path d="M39.2874 55.059L51.3714 42.0322L64.5604 55.059V82.8393L51.3714 95.2346L39.2874 83.7089V55.059Z" stroke="black" stroke-width="2.1499" stroke-miterlimit="10" stroke-linecap="round" stroke-linejoin="round"/>
<path d="M51.3714 43.5131L48.0342 57.1367V84.5243L51.3714 95.2345" stroke="black" stroke-miterlimit="10" stroke-linecap="round" stroke-linejoin="round"/>
<path d="M51.3714 43.5131L54.7086 57.1367V84.5243L51.3714 95.2345V104.494" stroke="black" stroke-miterlimit="10" stroke-linecap="round" stroke-linejoin="round"/>
<path d="M39.2874 55.059L48.0342 57.1368H54.7086L64.5604 55.059" stroke="black" stroke-miterlimit="10" stroke-linecap="round" stroke-linejoin="round"/>
<path d="M39.2874 83.7089L48.0342 84.5243H54.7086L64.5604 82.8392" stroke="black" stroke-miterlimit="10" stroke-linecap="round" stroke-linejoin="round"/>
<path d="M23.3702 104.494L29.3615 93.2408L35.3529 104.494L22.9562 95.6873H36.2606L23.3702 104.494Z" stroke="black" stroke-miterlimit="10" stroke-linecap="round" stroke-linejoin="round"/>
<path d="M71.3818 97.2536C71.3818 96.0852 71.9702 95.0473 72.886 94.3264C71.9746 94.5169 71.1069 94.911 70.3966 95.5385C68.3566 97.3391 68.3566 100.259 70.3966 102.059C72.4366 103.86 75.7434 103.86 77.7842 102.059C78.4952 101.432 78.9417 100.666 79.1575 99.8619C78.3407 100.67 77.1648 101.189 75.841 101.189C73.3782 101.189 71.3818 99.4267 71.3818 97.2536Z" stroke="black" stroke-miterlimit="10" stroke-linecap="round" stroke-linejoin="round"/>
<path d="M14.817 44.8896V111.202" stroke="black" stroke-width="2.1499" stroke-miterlimit="10" stroke-linecap="round" stroke-linejoin="round"/>
<path d="M87.9258 42.772V111.854" stroke="black" stroke-width="2.1499" stroke-miterlimit="10" stroke-linecap="round" stroke-linejoin="round"/>
<path d="M26.7997 123.316H75.943" stroke="black" stroke-width="2.1499" stroke-miterlimit="10" stroke-linecap="round" stroke-linejoin="round"/>
<path d="M26.7997 32.51H75.943" stroke="black" stroke-width="2.1499" stroke-miterlimit="10" stroke-linecap="round" stroke-linejoin="round"/>
<path d="M25.4856 20.5911H87.9259" stroke="black" stroke-miterlimit="10" stroke-linecap="round" stroke-linejoin="round"/>
<path d="M28.6269 16.1875H91.0672" stroke="black" stroke-miterlimit="10" stroke-linecap="round" stroke-linejoin="round"/>
<path d="M100.697 27.1149V111.202" stroke="black" stroke-miterlimit="10" stroke-linecap="round" stroke-linejoin="round"/>
<path d="M106.056 22.8411V106.928" stroke="black" stroke-miterlimit="10" stroke-linecap="round" stroke-linejoin="round"/>
<path d="M92.7516 24.2366L105.317 14.7588" stroke="black" stroke-miterlimit="10" stroke-linecap="round" stroke-linejoin="round"/>
<path d="M29.6084 35.2599L18.0994 47.0654" stroke="black" stroke-miterlimit="10" stroke-linecap="round" stroke-linejoin="round"/>
<path d="M72.6561 35.2599L84.1659 47.0654" stroke="black" stroke-miterlimit="10" stroke-linecap="round" stroke-linejoin="round"/>
<path d="M73.4478 119.808L84.9575 108.003" stroke="black" stroke-miterlimit="10" stroke-linecap="round" stroke-linejoin="round"/>
<path d="M18.8903 108.003L30.4001 119.808" stroke="black" stroke-miterlimit="10" stroke-linecap="round" stroke-linejoin="round"/>
<path d="M26.7997 69.3735V55.059" stroke="black" stroke-width="2.1499" stroke-miterlimit="10" stroke-linecap="round" stroke-linejoin="round"/>
<path d="M31.6655 65.0789H21.9348" stroke="black" stroke-width="2.1499" stroke-miterlimit="10" stroke-linecap="round" stroke-linejoin="round"/>
<path d="M76.2432 69.3735V55.059" stroke="black" stroke-width="2.1499" stroke-miterlimit="10" stroke-linecap="round" stroke-linejoin="round"/>
<path d="M81.1088 65.0789H71.3774" stroke="black" stroke-width="2.1499" stroke-miterlimit="10" stroke-linecap="round" stroke-linejoin="round"/>
<path d="M51.9243 113.896C54.8156 113.896 57.1595 111.827 57.1595 109.275C57.1595 106.723 54.8156 104.654 51.9243 104.654C49.0329 104.654 46.689 106.723 46.689 109.275C46.689 111.827 49.0329 113.896 51.9243 113.896Z" stroke="black" stroke-width="2.1499" stroke-miterlimit="10" stroke-linecap="round" stroke-linejoin="round"/>
<path d="M4.7951 35.2598V57.4949" stroke="black" stroke-miterlimit="10" stroke-linecap="round" stroke-linejoin="round"/>
<path d="M64.5604 133.725H86.3456C86.3456 133.725 92.7516 132.506 97.4325 128.766" stroke="black" stroke-miterlimit="10" stroke-linecap="round" stroke-linejoin="round"/>
<path d="M115.665 27.942V47.214" stroke="black" stroke-miterlimit="10" stroke-linecap="round" stroke-linejoin="round"/>
<path d="M31.6655 20.591V3.16138L36.2606 7.16308L40.5195 3.16138V20.591H31.6655Z" fill="black"/>
</svg>
