<svg width="90" height="136" viewBox="0 0 90 136" fill="none" xmlns="http://www.w3.org/2000/svg">
<path d="M35.6338 40.8919C32.3551 40.4417 28.7773 40.3566 25.5519 40.9664C22.3266 41.5762 19.3815 43.5889 19.6174 45.9152C19.7162 46.8889 20.3757 47.8298 21.417 48.4824C23.6642 49.8902 27.3755 49.8989 29.2054 51.575C31.2185 53.4188 29.8497 56.2735 31.6475 58.2223C32.679 59.3407 34.5587 59.9344 35.7976 60.9454C38.7355 63.3437 37.2252 67.1517 39.249 69.9729C39.6584 70.5436 40.4336 71.1298 41.3272 70.9938C41.8256 70.9181 42.1976 70.6318 42.4931 70.3412C44.7394 68.131 44.3398 65.1738 44.5988 62.4706C44.6549 61.8812 44.7635 61.2627 45.2645 60.787C46.3227 59.7804 48.6002 59.8443 49.8836 58.9743C51.9333 57.5845 50.2717 54.798 52.2893 53.3853C53.1419 52.7878 54.4155 52.6264 55.5609 52.3581C56.7073 52.0892 57.9221 51.5595 58.0672 50.7218C58.1544 50.2156 57.8198 49.7015 57.9595 49.2015C58.311 47.944 61.1101 47.8223 61.8879 46.661C62.3374 45.9897 61.9235 45.1588 61.1697 44.6365C60.4168 44.1143 59.3924 43.8354 58.3911 43.5883C54.1538 42.5438 47.7165 41.8315 43.2558 41.4495" stroke="black" stroke-width="2.1499" stroke-miterlimit="10" stroke-linecap="round" stroke-linejoin="round"/>
<path d="M36.1207 41.2962C31.9857 37.3963 27.6701 33.138 27.6105 28.2867C27.5589 24.0794 30.7299 20.2373 33.3278 16.4398C35.9258 12.643 38.0368 8.22457 35.8412 4.30603C41.7481 7.63275 46.1554 12.2369 48.2985 17.3179C49.5695 16.1424 50.3233 14.6979 50.4345 13.2274C53.295 17.3105 55.4025 21.7482 55.3892 26.2933C55.3758 30.8385 53.0316 35.5115 48.1552 38.5252C46.0593 39.82 43.4881 40.8261 41.7223 42.3668C41.2551 42.7748 40.3108 44.4267 39.5356 44.408C38.7479 44.3894 36.6111 41.7588 36.1207 41.2962Z" stroke="black" stroke-width="2.1499" stroke-miterlimit="10" stroke-linecap="round" stroke-linejoin="round"/>
<path d="M22.4244 48.9948C26.2497 57.1796 24.2338 65.5464 21.6991 73.9722C21.4623 74.7602 21.2265 75.6104 21.6937 76.3469C22.161 77.0834 23.6553 77.5405 24.5079 76.9977C25.1434 82.8848 24.8702 88.8198 23.6945 94.6659C23.342 96.4209 22.9068 98.2001 23.2682 99.9538C23.5093 101.126 24.0985 102.248 24.5257 103.394C27.5784 111.58 21.1767 120.978 10.1513 124.495C11.8228 125.45 10.8251 127.421 9.15988 128.381C7.49469 129.341 5.29194 129.884 4.04149 131.113C3.85726 131.294 3.69172 131.503 3.7113 131.725C3.75402 132.205 4.57726 132.434 5.26256 132.485C9.06998 132.766 12.6736 131.025 16.5015 131.086C20.1176 131.143 23.6046 132.806 27.1281 132.234C28.8476 131.955 30.3018 131.173 31.9332 130.703C35.6205 129.643 39.7937 130.256 43.7319 130.692C54.3737 131.87 65.3358 131.616 75.8422 129.95C77.7557 129.646 79.8205 129.219 80.9259 128.087C82.0313 126.956 81.3006 124.973 79.3426 124.888" stroke="black" stroke-width="2.1499" stroke-miterlimit="10" stroke-linecap="round" stroke-linejoin="round"/>
<path d="M61.3272 47.2224C62.2101 52.953 62.9354 57.8279 63.8183 63.5586C64.2713 66.5027 64.727 69.4556 65.682 72.3408C66.3673 74.4119 67.3151 76.4916 67.1086 78.6117C67.0366 79.3532 66.3085 80.3133 65.3117 80.0512C64.5828 79.8593 64.1031 79.0508 63.4 79.2836C62.3836 82.8395 62.2136 86.4836 62.0472 90.1077C61.8835 93.6704 61.7197 97.2338 61.5559 100.796C61.4358 103.405 61.3245 106.064 62.3614 108.571C63.1757 110.539 64.5917 112.861 62.7121 114.434C61.8897 115.123 60.4274 115.777 60.8626 116.62C61.0415 116.967 61.5141 117.193 61.8221 117.493C63.2532 118.886 60.7594 121.177 62.4326 122.432C61.6966 123.174 60.293 123.56 59.0292 123.369" stroke="black" stroke-width="2.1499" stroke-miterlimit="10" stroke-linecap="round" stroke-linejoin="round"/>
<path d="M63.5878 114.357C64.5891 117.118 68.0903 119.026 71.3744 120.717C72.7744 121.437 74.1886 122.163 75.7808 122.652C76.5427 122.885 77.3873 123.086 77.8794 123.554C78.7303 124.363 78.0308 125.593 76.8212 126.134C75.6108 126.676 74.0925 126.719 72.6552 126.745" stroke="black" stroke-width="2.1499" stroke-miterlimit="10" stroke-linecap="round" stroke-linejoin="round"/>
<path d="M31.6867 102.859C31.8949 105.888 31.8727 108.921 31.8504 111.953C31.8353 113.954 31.7178 115.088 30.8305 116.189C28.2789 119.357 22.242 120.651 20.1612 123.982C19.475 125.08 19.6975 126.722 21.3582 127.024C23.1053 127.341 24.4519 125.898 26.19 125.559C27.8766 125.23 29.8862 125.965 31.3405 125.285C32.1032 124.929 32.4521 124.285 32.9505 123.748C33.4489 123.211 34.3522 122.719 35.2146 122.937" stroke="black" stroke-miterlimit="10" stroke-linecap="round" stroke-linejoin="round"/>
<path d="M59.1485 64.9987C58.7622 66.7816 59.3487 68.5868 59.719 70.3716C60.0892 72.1564 60.2147 74.0715 59.0088 75.6663C58.7916 75.9544 58.4934 76.2482 58.044 76.3339C57.1362 76.5077 56.4349 75.7569 56.2435 75.1136C56.0513 74.4702 55.9196 73.6927 55.0759 73.4021C54.8 73.3071 54.4715 73.2791 54.2393 73.1388C54.0194 73.0065 53.9278 72.8003 53.8503 72.6047C53.4409 71.5801 53.1134 70.5393 52.8704 69.4898" stroke="black" stroke-miterlimit="10" stroke-linecap="round" stroke-linejoin="round"/>
<path d="M30.5875 80.2058V97.2834" stroke="black" stroke-miterlimit="10" stroke-linecap="round" stroke-linejoin="round"/>
<path d="M29.03 60.4889V67.3212" stroke="black" stroke-miterlimit="10" stroke-linecap="round" stroke-linejoin="round"/>
<path d="M54.2268 78.5012C54.2455 87.5275 54.2642 96.5545 54.2829 105.581C54.2838 106.178 54.2855 106.779 54.4537 107.364C54.6531 108.059 55.0865 108.773 54.7937 109.453C54.6131 109.873 54.1698 110.223 54.0176 110.649C53.8654 111.075 54.2339 111.652 54.8587 111.603" stroke="black" stroke-miterlimit="10" stroke-linecap="round" stroke-linejoin="round"/>
<path d="M40.633 28.8177C40.4808 33.9982 40.058 39.1755 39.3656 44.3342" stroke="black" stroke-miterlimit="10" stroke-linecap="round" stroke-linejoin="round"/>
<path d="M57.2172 45.8021C56.839 46.7796 55.3607 47.3192 53.9883 47.6484C51.4322 48.2619 48.716 48.5488 46.0139 48.4917" stroke="black" stroke-miterlimit="10" stroke-linecap="round" stroke-linejoin="round"/>
<path d="M23.5912 44.531C23.1444 44.6863 23.0777 45.1439 23.3304 45.4445C23.5832 45.7451 24.0487 45.9214 24.4981 46.0742C27.3719 47.0517 30.5092 47.6497 33.6954 47.8273" stroke="black" stroke-miterlimit="10" stroke-linecap="round" stroke-linejoin="round"/>
<path d="M33.5833 52.191C34.3273 52.6208 34.4448 53.3697 34.5391 54.0404C34.6334 54.7111 34.8355 55.4675 35.6534 55.8264C36.1972 56.0655 36.9252 56.0773 37.3942 56.3834C37.7191 56.5952 37.8561 56.9076 37.9807 57.205C38.181 57.6851 38.3821 58.1651 38.5824 58.6445C38.7399 59.0215 38.9072 59.4108 39.2739 59.7077C39.6415 60.0051 40.2689 60.1834 40.7807 60.0219C41.2702 59.8673 41.4927 59.4692 41.5933 59.101C41.7401 58.5638 41.7321 58.0105 41.8611 57.4708C41.9902 56.9312 42.2866 56.3797 42.9015 56.04" stroke="black" stroke-miterlimit="10" stroke-linecap="round" stroke-linejoin="round"/>
<path d="M49.7554 51.5272C48.925 51.7564 48.8441 52.5395 48.8761 53.1617C48.9081 53.7846 48.7444 54.5776 47.8829 54.7409C47.0587 54.8974 46.3334 54.3149 46.0183 53.761" stroke="black" stroke-miterlimit="10" stroke-linecap="round" stroke-linejoin="round"/>
<path d="M33.5539 79.0154V87.094" stroke="black" stroke-miterlimit="10" stroke-linecap="round" stroke-linejoin="round"/>
<path d="M32.5179 30.0902C31.7534 26.4064 32.8463 22.4636 36.085 19.5051C38.3501 17.4353 39.7714 13.3628 39.0434 10.8086C41.2844 13.6286 44.8729 18.7363 45.6356 21.9159C46.8024 21.2297 47.7859 20.3919 48.5219 19.4592C51.6182 26.5778 48.6839 36.1766 39.945 40.8938C35.891 38.6693 33.2317 33.5274 32.5179 30.0902Z" stroke="black" stroke-miterlimit="10" stroke-linecap="round" stroke-linejoin="round"/>
</svg>
