<svg width="101" height="169" viewBox="0 0 101 169" fill="none" xmlns="http://www.w3.org/2000/svg">
<path d="M50.4757 27.2881C56.4125 27.2881 61.2252 26.05 61.2252 24.5227C61.2252 22.9954 56.4125 21.7573 50.4757 21.7573C44.5388 21.7573 39.7261 22.9954 39.7261 24.5227C39.7261 26.05 44.5388 27.2881 50.4757 27.2881Z" stroke="black" stroke-width="2.3495" stroke-miterlimit="10" stroke-linecap="round" stroke-linejoin="round"/>
<path d="M61.2244 24.5227L57.3631 40.7543C57.3631 40.7543 52.0378 45.4913 44.5933 40.914C44.4286 40.8123 39.7261 24.5227 39.7261 24.5227" stroke="black" stroke-width="2.3495" stroke-miterlimit="10" stroke-linecap="round" stroke-linejoin="round"/>
<path d="M58.2068 37.2078C64.4496 37.006 66.8412 39.203 67.6925 40.4541C68.0883 41.0359 68.0715 41.8296 67.6118 42.3627C65.9101 44.3377 60.6992 44.6505 60.6992 44.6505V57.2624L60.7001 75.6271C80.6454 80.6197 95.2572 99.0777 94.3261 120.788C93.3412 143.759 74.653 162.401 51.6916 163.32C26.279 164.338 5.35803 144.027 5.35803 118.827C5.35803 96.8933 21.2076 78.664 42.0723 74.978V56.562V43.9501C42.0723 43.9501 36.4765 43.6138 34.9891 41.4403C34.6555 40.9527 34.6253 40.3027 34.8723 39.7663C35.4059 38.606 37.2177 36.6453 43.369 36.8437" stroke="black" stroke-width="2.3495" stroke-miterlimit="10" stroke-linecap="round" stroke-linejoin="round"/>
<path d="M76.0555 97.6055C80.9396 103.527 83.874 111.119 83.874 119.396C83.874 138.317 68.5446 153.655 49.6345 153.655C30.7244 153.655 15.395 138.317 15.395 119.396C15.395 111.469 18.0866 104.17 22.6051 98.3639" stroke="black" stroke-width="1.9901" stroke-miterlimit="10" stroke-linecap="round" stroke-linejoin="round"/>
<path d="M29.0689 95.2025C32.9286 93.7244 39.5597 96.4099 43.7563 95.8634C50.9 94.9326 55.2269 92.3035 61.8975 93.4427C67.7076 94.4349 71.6412 94.3029 76.0555 97.6047C72.5664 99.7504 69.1941 101.926 64.8588 101.928C59.9933 101.931 55.4454 99.2787 50.6042 99.6764C47.4101 99.9387 44.5571 101.507 41.3874 101.927C38.1605 102.356 34.8992 101.566 31.7681 100.785C29.984 100.339 21.6857 99.7723 22.605 98.3639C23.7613 96.5949 27.6311 95.802 29.0689 95.2025Z" stroke="black" stroke-width="1.9648" stroke-miterlimit="10" stroke-linecap="round" stroke-linejoin="round"/>
<path d="M11.9824 129.15C11.9824 129.15 14.2236 142.705 27.1085 150.922" stroke="black" stroke-miterlimit="10" stroke-linecap="round" stroke-linejoin="round"/>
<path d="M85.6514 100.982C85.6514 100.982 91.2539 110.653 89.853 121.583" stroke="black" stroke-miterlimit="10" stroke-linecap="round" stroke-linejoin="round"/>
<path d="M69.3429 26.0201C69.3429 26.0201 71.8723 25.0162 72.679 20.3977C72.679 20.3977 73.7715 25.2171 76.058 26.0201C76.058 26.0201 73.158 28.0279 72.679 32.0444C72.679 32.0444 72.7715 28.4298 69.3429 26.0201Z" stroke="black" stroke-width="0.81" stroke-miterlimit="10" stroke-linecap="round" stroke-linejoin="round"/>
<path d="M61.0975 10.1434C61.0975 10.1434 64.2984 8.87292 65.3194 3.02771C65.3194 3.02771 66.7026 9.12684 69.5958 10.1434C69.5958 10.1434 65.9261 12.6843 65.3194 17.7669C65.3194 17.7669 65.437 13.1929 61.0975 10.1434Z" stroke="black" stroke-width="0.81" stroke-miterlimit="10" stroke-linecap="round" stroke-linejoin="round"/>
<path d="M30.1127 65.5316C30.1127 65.5316 32.6421 64.5277 33.4488 59.9092C33.4488 59.9092 34.5412 64.7286 36.8278 65.5316C36.8278 65.5316 33.9278 67.5394 33.4488 71.5559C33.4488 71.5559 33.5421 67.9413 30.1127 65.5316Z" stroke="black" stroke-width="0.81" stroke-miterlimit="10" stroke-linecap="round" stroke-linejoin="round"/>
<path d="M21.8682 49.6548C21.8682 49.6548 25.069 48.3844 26.09 42.5392C26.09 42.5392 27.4732 48.6383 30.3665 49.6548C30.3665 49.6548 26.6967 52.1957 26.09 57.2792C26.09 57.2792 26.2077 52.7044 21.8682 49.6548Z" stroke="black" stroke-width="0.81" stroke-miterlimit="10" stroke-linecap="round" stroke-linejoin="round"/>
<path d="M32.5697 136.415C32.5697 137.305 31.8487 138.027 30.9588 138.027C30.0689 138.027 29.3479 137.305 29.3479 136.415C29.3479 135.525 30.0689 134.803 30.9588 134.803C31.8487 134.804 32.5697 135.525 32.5697 136.415Z" stroke="black" stroke-width="0.81" stroke-miterlimit="10" stroke-linecap="round" stroke-linejoin="round"/>
<path d="M74.09 105.333C74.5188 105.333 74.8664 104.985 74.8664 104.556C74.8664 104.127 74.5188 103.779 74.09 103.779C73.6611 103.779 73.3135 104.127 73.3135 104.556C73.3135 104.985 73.6611 105.333 74.09 105.333Z" stroke="black" stroke-width="0.81" stroke-miterlimit="10" stroke-linecap="round" stroke-linejoin="round"/>
<path d="M74.237 131.322C74.237 132.213 73.516 132.934 72.6261 132.934C71.7362 132.934 71.0151 132.213 71.0151 131.322C71.0151 130.432 71.7362 129.71 72.6261 129.71C73.516 129.71 74.237 130.432 74.237 131.322Z" stroke="black" stroke-width="0.81" stroke-miterlimit="10" stroke-linecap="round" stroke-linejoin="round"/>
<path d="M41.2824 135.582C41.7117 135.582 42.0597 135.234 42.0597 134.804C42.0597 134.374 41.7117 134.026 41.2824 134.026C40.8531 134.026 40.5051 134.374 40.5051 134.804C40.5051 135.234 40.8531 135.582 41.2824 135.582Z" stroke="black" stroke-width="0.81" stroke-miterlimit="10" stroke-linecap="round" stroke-linejoin="round"/>
<path d="M26.863 106.254L27.3983 106.666C27.4798 106.728 27.5866 106.747 27.684 106.716L28.3269 106.508C28.5723 106.429 28.8017 106.665 28.716 106.908L28.4899 107.545C28.4555 107.642 28.4714 107.749 28.5311 107.832L28.9269 108.379C29.0782 108.588 28.9244 108.881 28.6664 108.873L27.9908 108.854C27.8882 108.852 27.7916 108.9 27.7311 108.982L27.3336 109.529C27.1815 109.737 26.8571 109.681 26.784 109.434L26.5924 108.786C26.5639 108.687 26.4882 108.61 26.3908 108.578L25.7487 108.368C25.5034 108.288 25.4563 107.961 25.6689 107.815L26.2261 107.433C26.3109 107.375 26.3614 107.279 26.3614 107.176L26.3622 106.5C26.363 106.242 26.6588 106.097 26.863 106.254Z" stroke="black" stroke-width="0.81" stroke-miterlimit="10" stroke-linecap="round" stroke-linejoin="round"/>
<path d="M56.9235 140.6L57.4588 141.012C57.5404 141.074 57.6471 141.092 57.7446 141.061L58.3874 140.854C58.6328 140.775 58.863 141.011 58.7765 141.254L58.5504 141.89C58.516 141.987 58.5319 142.094 58.5916 142.177L58.9883 142.724C59.1395 142.934 58.9857 143.225 58.7277 143.218L58.0521 143.199C57.9496 143.197 57.853 143.244 57.7925 143.327L57.3941 143.874C57.242 144.082 56.9177 144.026 56.8446 143.779L56.653 143.13C56.6236 143.032 56.5488 142.955 56.4513 142.923L55.8093 142.713C55.5639 142.633 55.5168 142.306 55.7303 142.16L56.2874 141.778C56.3723 141.72 56.4227 141.624 56.4227 141.521L56.4235 140.845C56.4227 140.588 56.7185 140.442 56.9235 140.6Z" stroke="black" stroke-width="0.81" stroke-miterlimit="10" stroke-linecap="round" stroke-linejoin="round"/>
<path d="M72.6261 109.534C72.6261 110.424 71.9051 111.146 71.0152 111.146C70.1253 111.146 69.4043 110.424 69.4043 109.534C69.4043 108.644 70.1253 107.922 71.0152 107.922C71.9051 107.923 72.6261 108.644 72.6261 109.534Z" stroke="black" stroke-width="0.81" stroke-miterlimit="10" stroke-linecap="round" stroke-linejoin="round"/>
<path d="M52.2202 117.093L52.7555 117.505C52.837 117.567 52.9437 117.585 53.0412 117.554L53.6841 117.346C53.9294 117.267 54.1588 117.504 54.0731 117.747L53.8471 118.383C53.8126 118.48 53.8286 118.587 53.8883 118.67L54.2841 119.217C54.4353 119.426 54.2815 119.718 54.0236 119.711L53.3479 119.692C53.2454 119.69 53.1488 119.738 53.0883 119.82L52.6908 120.367C52.5387 120.575 52.2143 120.519 52.1412 120.272L51.9496 119.623C51.9202 119.525 51.8454 119.448 51.7479 119.416L51.1059 119.205C50.8605 119.126 50.8143 118.799 51.0269 118.653L51.5841 118.271C51.6681 118.212 51.7194 118.117 51.7194 118.014L51.7202 117.338C51.7202 117.081 52.016 116.935 52.2202 117.093Z" stroke="black" stroke-width="0.81" stroke-miterlimit="10" stroke-linecap="round" stroke-linejoin="round"/>
<path d="M68.4244 57.0471V72.6019" stroke="black" stroke-width="0.8919" stroke-miterlimit="10" stroke-linecap="round" stroke-linejoin="round"/>
<path d="M64.0127 62.3021H72.6261" stroke="black" stroke-width="0.81" stroke-miterlimit="10" stroke-linecap="round" stroke-linejoin="round"/>
<path d="M65.9034 59.1492L70.8404 65.0347" stroke="black" stroke-width="0.81" stroke-miterlimit="10" stroke-linecap="round" stroke-linejoin="round"/>
<path d="M70.8404 59.1492L66.3236 65.0347" stroke="black" stroke-width="0.81" stroke-miterlimit="10" stroke-linecap="round" stroke-linejoin="round"/>
<path d="M30.2185 9.99036V25.5451" stroke="black" stroke-width="0.8919" stroke-miterlimit="10" stroke-linecap="round" stroke-linejoin="round"/>
<path d="M25.8068 15.2454H34.4202" stroke="black" stroke-width="0.81" stroke-miterlimit="10" stroke-linecap="round" stroke-linejoin="round"/>
<path d="M27.6975 12.0924L32.6336 17.978" stroke="black" stroke-width="0.81" stroke-miterlimit="10" stroke-linecap="round" stroke-linejoin="round"/>
<path d="M32.6336 12.0924L28.1177 17.978" stroke="black" stroke-width="0.81" stroke-miterlimit="10" stroke-linecap="round" stroke-linejoin="round"/>
<path d="M41.6101 29.3059C43.1546 31.0472 45.2563 32.738 47.5521 32.3555C48.1731 32.2521 48.7681 31.9973 49.3975 31.9695C50.5639 31.9183 51.6236 32.6531 52.4261 33.5006C53.2286 34.349 53.8824 35.3445 54.7916 36.0768C55.7009 36.8092 56.9925 37.2388 58.0437 36.731" stroke="black" stroke-width="0.81" stroke-miterlimit="10" stroke-linecap="round" stroke-linejoin="round"/>
<path d="M84.1252 97.972C84.1252 97.972 82.2471 94.4558 79.421 92.2084" stroke="black" stroke-width="0.81" stroke-miterlimit="10" stroke-linecap="round" stroke-linejoin="round"/>
</svg>
