<svg width="99" height="193" viewBox="0 0 99 193" fill="none" xmlns="http://www.w3.org/2000/svg">
<path d="M77.2447 74.7801C77.2447 74.7801 86.4322 75.6266 86.815 64.0579C86.815 64.0579 84.5181 74.4979 93.7056 75.3444C93.7056 75.3444 84.5181 74.4979 85.6666 85.2201C85.6666 85.2201 85.6666 75.3444 77.2447 74.7801Z" stroke="#A8452C" stroke-width="2.3511" stroke-miterlimit="10" stroke-linecap="round" stroke-linejoin="round"/>
<path d="M11.7876 57.0049C11.7876 57.0049 20.9751 57.8514 21.3579 46.2827C21.3579 46.2827 19.061 56.7228 28.2485 57.5693C28.2485 57.5693 19.061 56.7228 20.2094 67.445C20.2094 67.445 20.2094 57.5693 11.7876 57.0049Z" stroke="#A8452C" stroke-width="2.3511" stroke-miterlimit="10" stroke-linecap="round" stroke-linejoin="round"/>
<path d="M44.7171 15.4C44.7171 15.4 53.9046 16.2464 54.2874 4.67773C54.2874 4.67773 51.9905 15.1178 61.178 15.9643C61.178 15.9643 51.9905 15.1178 53.139 25.84C53.139 25.84 53.139 15.9643 44.7171 15.4Z" stroke="#A8452C" stroke-width="2.3511" stroke-miterlimit="10" stroke-linecap="round" stroke-linejoin="round"/>
<path d="M60.427 29.9596C61.4315 29.4376 62.8877 29.9105 63.6296 30.6323C64.3715 31.3541 64.6792 32.2672 65.3048 33.0471C66.0803 34.0138 67.3145 34.7372 68.6268 35.3078C72.6724 37.0668 77.7278 37.5109 82.2212 36.5019C86.7139 35.4929 90.5757 33.0465 92.6039 29.9241C94.7201 26.6651 94.8295 22.9202 94.8648 19.3074C94.8747 18.295 94.8801 17.269 94.5394 16.2877C93.8526 14.3086 91.8436 12.7313 89.7136 11.4243C79.8991 5.40292 65.7672 3.45712 53.665 6.46047C54.0769 6.5011 50.1752 7.36396 50.5871 7.40459C39.7865 10.0332 30.9267 16.6522 27.5066 24.6482C24.0866 32.6441 26.1936 41.8116 32.9954 48.5311C35.8879 51.3883 39.533 53.7912 42.4922 56.6111C45.4513 59.4311 47.762 62.8802 47.3064 66.4293C46.8363 70.0901 43.5648 73.1741 41.5865 76.5494C39.6081 79.9252 38.9749 86.0989 43.1713 88.0865" stroke="#A8452C" stroke-width="2.3511" stroke-miterlimit="10" stroke-linecap="round" stroke-linejoin="round"/>
<path d="M79.22 36.968C79.7674 39.81 79.8409 42.9668 77.4751 45.2467C75.6323 47.0226 72.6724 47.9115 70.0891 49.0836C67.5059 50.2557 65.0069 52.1106 65.1968 54.342C65.4479 57.2878 70.2078 59.2217 70.3885 62.1703C70.5814 65.3243 65.7243 67.133 61.717 68.2476C57.7098 69.3621 52.9835 71.5805 53.8311 74.6753C54.4199 76.8259 57.6079 78.1831 58.2281 80.3287C58.5619 81.4844 58.0872 82.674 57.6171 83.8033C57.1922 84.8252 56.7068 86.6192 56.2819 87.6412" stroke="#A8452C" stroke-width="2.3511" stroke-miterlimit="10" stroke-linecap="round" stroke-linejoin="round"/>
<path d="M55.971 96.6562C57.0682 97.9175 56.7313 99.5936 55.9381 100.973C55.1449 102.352 53.9429 103.601 53.3281 105.029C52.4254 107.125 52.9246 109.523 54.6396 111.323C56.3538 113.123 59.2441 114.285 62.2254 114.371C63.5362 114.409 64.9082 114.259 66.1186 114.632C67.473 115.049 68.3359 116.037 68.9285 117.027C70.635 119.876 70.7629 123.218 69.2768 126.133C68.6276 127.407 67.6369 128.636 66.1148 129.406C64.5437 130.202 62.5807 130.429 60.685 130.572C58.9332 130.704 57.0597 130.764 55.5231 130.131C53.9858 129.498 53.0456 127.918 54.0478 126.851" stroke="#A8452C" stroke-width="2.3511" stroke-miterlimit="10" stroke-linecap="round" stroke-linejoin="round"/>
<path d="M43.3773 136.974C45.9926 136.262 47.2942 133.853 46.5462 131.873C45.7982 129.893 43.3956 128.415 40.7397 127.79C38.0837 127.164 35.205 127.284 32.4633 127.655C30.0087 127.988 27.5411 128.54 25.5681 129.667C23.5958 130.795 22.1894 132.587 22.4137 134.419C22.6717 136.53 24.9441 138.257 25.3897 140.351C25.9333 142.908 23.6969 145.266 22.1151 147.576C20.2944 150.234 19.2455 153.233 19.6123 156.198C19.979 159.164 22.4359 163.637 26.8719 165.27" stroke="#A8452C" stroke-width="2.3511" stroke-miterlimit="10" stroke-linecap="round" stroke-linejoin="round"/>
<path d="M61.9605 130.624C63.8623 131.514 66.0719 132.743 66.1339 134.403C66.1883 135.854 65.5896 137.65 67.1913 138.495C67.7854 138.808 68.548 138.884 69.2041 139.119C71.0049 139.765 71.6212 141.418 71.8126 142.887C72.1594 145.543 71.5798 148.524 68.8343 150.264C66.9371 151.466 64.3271 151.86 61.8273 151.932C59.9308 151.988 57.9173 151.857 56.3676 151.049C53.5685 149.588 53.6887 145.98 56.582 144.622" stroke="#A8452C" stroke-width="2.3511" stroke-miterlimit="10" stroke-linecap="round" stroke-linejoin="round"/>
<path d="M39.8087 172.398C42.006 173.272 44.91 171.873 45.4628 170.079C46.0164 168.285 44.8296 166.427 43.2272 165.016C40.0123 162.186 33.9126 160.637 29.9535 162.897C28.7775 163.569 27.9239 164.496 26.8704 165.27C25.4448 166.32 23.6716 167.078 22.1993 168.092C19.8312 169.723 18.3053 172.07 18.4049 174.457C18.5044 176.845 20.3518 179.209 23.2605 180.264C25.4402 181.054 27.9713 181.084 30.3011 181.589C34.7288 182.549 38.5998 185.238 43.2012 184.972C48.3408 184.674 51.6116 180.914 55.9029 178.809C59.0151 177.282 62.7667 176.612 65.9808 175.203C72.6188 172.295 76.2302 165.757 73.2925 160.495C70.3548 155.231 60.5541 152.536 54.1006 155.661C50.5404 157.385 48.4817 160.368 47.164 163.353C47.0124 163.697 46.7583 163.838 46.2361 164.08" stroke="#A8452C" stroke-width="2.3511" stroke-miterlimit="10" stroke-linecap="round" stroke-linejoin="round"/>
<path d="M71.795 147.947C74.0758 148.887 75.6376 150.712 75.8068 152.633C75.976 154.555 73.4992 156.986 71.4022 158.135" stroke="#A8452C" stroke-width="2.3511" stroke-miterlimit="10" stroke-linecap="round" stroke-linejoin="round"/>
<path d="M40.9211 127.725C38.3793 126.678 36.0089 125.295 34.5297 123.446C33.0505 121.598 32.5758 119.229 33.7916 117.278C35.0335 115.285 37.73 114.05 39.8072 112.481C41.8851 110.912 43.3842 108.382 41.676 106.587C40.4342 105.282 37.8694 104.825 36.9537 103.381C36.3772 102.473 36.6214 101.394 37.0991 100.455C37.7048 99.2644 41.0077 96.5314 42.725 96.4106" stroke="#A8452C" stroke-width="2.3511" stroke-miterlimit="10" stroke-linecap="round" stroke-linejoin="round"/>
<path d="M30.3387 95.0096C32.3224 109.035 25.2243 110.461 25.2243 110.461C22.4818 111.148 19.9614 112.086 17.7464 113.228C11.8251 116.281 8.07965 120.787 8.07965 125.813V181.161C8.07965 185.702 14.2697 189.384 21.9053 189.384H68.8902C77.9069 189.384 85.2171 185.036 85.2171 179.673V125.812C85.2171 121.148 81.9916 116.931 76.7953 113.91C74.6607 112.668 72.1931 111.628 69.4797 110.841C69.4797 110.841 63.6189 107.461 65.3821 94.6157" stroke="#A8452C" stroke-width="2.4318" stroke-miterlimit="10" stroke-linecap="round" stroke-linejoin="round"/>
<path d="M57.6539 79.247C65.8935 79.8909 69.3434 81.4124 69.3434 83.4716C69.3434 86.0777 59.8818 88.1905 48.2107 88.1905C36.5395 88.1905 27.0786 86.0777 27.0786 83.4716C27.0786 81.5292 32.9824 79.8294 40.4909 79.106" stroke="#A8452C" stroke-width="2.2662" stroke-miterlimit="10" stroke-linecap="round" stroke-linejoin="round"/>
<path d="M69.3434 91.8604C69.3434 94.4664 59.8818 96.5793 48.2107 96.5793C36.5395 96.5793 27.0786 94.4664 27.0786 91.8604" stroke="#A8452C" stroke-width="2.2662" stroke-miterlimit="10" stroke-linecap="round" stroke-linejoin="round"/>
<path d="M27.0786 91.8599V83.4712" stroke="#A8452C" stroke-width="2.2662" stroke-miterlimit="10" stroke-linecap="round" stroke-linejoin="round"/>
<path d="M69.3434 91.8599V83.4712" stroke="#A8452C" stroke-width="2.2662" stroke-miterlimit="10" stroke-linecap="round" stroke-linejoin="round"/>
<path d="M47.004 74.5527C46.3479 75.5877 45.4613 76.5375 44.8151 77.5758C43.244 80.1001 43.2073 83.1181 44.7163 85.6626" stroke="#A8452C" stroke-width="0.9627" stroke-miterlimit="10" stroke-linecap="round" stroke-linejoin="round"/>
<path d="M66.1056 119.255C67.2808 120.849 67.1798 122.913 65.8514 124.44C64.5231 125.968 62.021 126.898 59.5649 126.776" stroke="#A8452C" stroke-width="0.9627" stroke-miterlimit="10" stroke-linecap="round" stroke-linejoin="round"/>
<path d="M60.0181 146.633C60.1613 147.571 61.3289 148.32 62.5968 148.455C63.8646 148.591 65.1639 148.194 66.1125 147.558C68.4132 146.018 68.5166 143.036 66.3261 141.41C65.2964 140.645 63.8371 140.132 63.2575 139.143C62.6526 138.11 63.2177 136.908 62.9459 135.801C62.6695 134.675 61.4498 133.706 59.9477 133.418" stroke="#A8452C" stroke-width="0.9627" stroke-miterlimit="10" stroke-linecap="round" stroke-linejoin="round"/>
<path d="M37.0103 161.854C33.3277 159.759 30.442 156.666 30.1901 153.242C29.9382 149.819 32.8683 146.193 37.3901 145.388C38.3287 145.221 39.3018 145.174 40.2658 145.211C42.4271 145.296 44.6298 145.848 46.1151 147.009C47.6005 148.17 48.2053 150.001 47.2314 151.426C46.2575 152.851 43.5511 153.563 41.7404 152.69" stroke="#A8452C" stroke-width="2.3511" stroke-miterlimit="10" stroke-linecap="round" stroke-linejoin="round"/>
<path d="M41.5359 124.553C39.3585 123.807 37.9153 122.079 37.8303 120.311C37.7461 118.542 38.9535 116.794 40.8453 115.704C41.9019 115.095 43.1499 114.679 44.1651 114.033C46.8823 112.304 47.2643 108.929 44.9728 106.892" stroke="#A8452C" stroke-width="0.9627" stroke-miterlimit="10" stroke-linecap="round" stroke-linejoin="round"/>
<path d="M26.7203 162.347C23.6869 158.749 22.0454 154.086 24.5827 150.286C25.3682 149.108 26.5121 148.078 27.3252 146.911C28.7645 144.845 29.0892 142.372 28.2148 140.141" stroke="#A8452C" stroke-width="0.9627" stroke-miterlimit="10" stroke-linecap="round" stroke-linejoin="round"/>
<path d="M40.1379 147.751C38.6373 147.764 37.2255 148.327 36.1145 149.07C34.9041 149.88 33.9501 150.988 33.9325 152.193C33.9203 153.083 34.4103 153.929 34.8918 154.744" stroke="#A8452C" stroke-width="0.9627" stroke-miterlimit="10" stroke-linecap="round" stroke-linejoin="round"/>
<path d="M28.2332 135.914C27.5357 135.217 27.5174 134.238 27.9614 133.436C28.4062 132.634 29.2523 131.987 30.1748 131.451C30.7399 131.121 31.3485 130.823 32.0269 130.646C33.3461 130.301 34.8888 130.463 36.0242 131.066C37.1596 131.669 37.8579 132.696 37.8326 133.728" stroke="#A8452C" stroke-width="0.9627" stroke-miterlimit="10" stroke-linecap="round" stroke-linejoin="round"/>
<path d="M47.0101 134.307C47.4121 134.97 48.5559 135.128 49.4885 135.364C50.7303 135.679 51.8451 136.291 52.5318 137.116C53.2178 137.941 53.4513 138.979 53.0754 139.907C52.8212 140.535 52.3044 141.094 51.6759 141.559C50.6384 142.325 49.2396 142.856 47.7719 142.883C46.305 142.911 44.7944 142.385 44.0487 141.453" stroke="#A8452C" stroke-width="2.3511" stroke-miterlimit="10" stroke-linecap="round" stroke-linejoin="round"/>
<path d="M50.6308 164.356C52.2953 164.065 52.7049 162.514 53.3403 161.343C54.6771 158.879 58.4846 157.329 62.0532 157.681C65.6217 158.032 68.6873 160.172 69.5356 162.751C70.3832 165.33 69.064 168.195 66.3835 169.967" stroke="#A8452C" stroke-width="0.9627" stroke-miterlimit="10" stroke-linecap="round" stroke-linejoin="round"/>
<path d="M35.9515 164.985C35.1391 164.33 33.5811 164.631 32.7711 165.288C31.961 165.945 31.6165 166.836 31.0132 167.605C30.3417 168.461 29.3303 169.17 28.1367 169.621C26.8941 170.092 25.4525 170.295 24.3576 170.935C22.3685 172.098 22.2315 174.441 23.566 176.034" stroke="#A8452C" stroke-width="0.9627" stroke-miterlimit="10" stroke-linecap="round" stroke-linejoin="round"/>
<path d="M34.1607 179.817C37.6573 181.114 41.7427 182.222 45.4016 181.197C49.418 180.072 51.5396 176.759 55.2758 175.195C57.9486 174.077 61.4567 173.835 63.3065 172.025" stroke="#A8452C" stroke-width="0.9627" stroke-miterlimit="10" stroke-linecap="round" stroke-linejoin="round"/>
<path d="M63.1717 27.3621C64.6693 27.4501 65.9785 28.1544 66.993 28.9715C68.0067 29.7887 68.8113 30.739 69.8411 31.5449C72.3263 33.4901 76.1307 34.4703 79.7184 34.0905C83.3069 33.7102 86.5822 31.98 88.2237 29.5979" stroke="#A8452C" stroke-width="0.9627" stroke-miterlimit="10" stroke-linecap="round" stroke-linejoin="round"/>
<path d="M73.5084 9.1189C78.1274 10.0331 82.97 11.0387 86.3663 13.5207C89.5796 15.8688 91.0673 19.4297 90.2029 22.7034" stroke="#A8452C" stroke-width="0.9627" stroke-miterlimit="10" stroke-linecap="round" stroke-linejoin="round"/>
<path d="M38.5423 45.5897C30.7177 37.2253 30.733 25.2864 38.5791 16.9326" stroke="#A8452C" stroke-width="0.9627" stroke-miterlimit="10" stroke-linecap="round" stroke-linejoin="round"/>
<path d="M58.5711 33.9302C59.9025 35.8365 59.006 38.1982 57.4931 40.03C55.9802 41.8612 53.8893 43.4239 52.5862 45.3409C49.4494 49.9543 51.6215 55.7781 56.1471 59.716" stroke="#A8452C" stroke-width="0.9627" stroke-miterlimit="10" stroke-linecap="round" stroke-linejoin="round"/>
<path d="M75.5817 38.9861C75.8903 40.9116 74.9501 42.8777 73.3476 44.4155C71.7452 45.9533 69.5249 47.0938 67.1553 47.9369C66.4846 48.1756 65.7932 48.3951 65.1991 48.7258C63.1212 49.881 62.7361 52.0283 62.5186 53.9396" stroke="#A8452C" stroke-width="0.9627" stroke-miterlimit="10" stroke-linecap="round" stroke-linejoin="round"/>
<path d="M51.0794 73.4067C51.437 70.0828 54.8739 67.0603 59.251 66.2194C60.819 65.9181 62.5125 65.8633 63.9151 65.2651C65.3568 64.6506 66.3223 63.4689 66.385 62.242C66.4478 61.0152 65.6056 59.7833 64.2306 59.0908" stroke="#A8452C" stroke-width="0.9627" stroke-miterlimit="10" stroke-linecap="round" stroke-linejoin="round"/>
<path d="M53.5187 78.8247C55.1901 81.0002 55.0676 83.8596 53.2125 85.9533" stroke="#A8452C" stroke-width="0.9627" stroke-miterlimit="10" stroke-linecap="round" stroke-linejoin="round"/>
<path d="M41.5574 50.1003C44.3894 52.2877 46.7851 54.782 48.6432 57.4778" stroke="#A8452C" stroke-width="0.9627" stroke-miterlimit="10" stroke-linecap="round" stroke-linejoin="round"/>
<path d="M53.1826 97.8589C53.9345 98.8149 53.6535 100.044 53.0042 101.039C52.355 102.035 51.3765 102.897 50.6867 103.877C49.539 105.51 49.2443 107.459 49.8774 109.237" stroke="#A8452C" stroke-width="0.9627" stroke-miterlimit="10" stroke-linecap="round" stroke-linejoin="round"/>
<path d="M64.8929 118.11C64.3163 117.394 63.1694 117.031 62.0539 116.9C60.9384 116.769 59.7953 116.824 58.6768 116.711C56.1801 116.459 53.8748 115.323 52.6038 113.718" stroke="#A8452C" stroke-width="0.9627" stroke-miterlimit="10" stroke-linecap="round" stroke-linejoin="round"/>
<path d="M73.2979 116.635C75.9898 117.992 78.7897 119.437 80.2658 121.58C81.7565 123.745 81.6715 126.291 81.5521 128.716C81.3155 133.513 81.0797 138.309 80.8431 143.105" stroke="#A8452C" stroke-width="0.9627" stroke-miterlimit="10" stroke-linecap="round" stroke-linejoin="round"/>
<path d="M12.1765 176.559C12.0525 178.105 11.93 179.668 12.2753 181.197C12.6213 182.726 13.4811 184.24 15.043 185.277C17.3851 186.832 20.8219 187.055 23.971 186.947" stroke="#A8452C" stroke-width="0.9627" stroke-miterlimit="10" stroke-linecap="round" stroke-linejoin="round"/>
<path d="M33.5443 103.638C33.3147 105.616 33.0635 107.65 31.8401 109.419C28.2072 114.669 17.519 115.731 14.4106 121.161C13.413 122.904 13.377 124.855 13.4429 126.747" stroke="#A8452C" stroke-width="0.9627" stroke-miterlimit="10" stroke-linecap="round" stroke-linejoin="round"/>
<path d="M81.0054 149.458V172.314" stroke="#A8452C" stroke-width="0.9627" stroke-miterlimit="10" stroke-linecap="round" stroke-linejoin="round"/>
<path d="M60.5885 9.45812C61.2228 9.45812 61.7369 9.07913 61.7369 8.61163C61.7369 8.14412 61.2228 7.76514 60.5885 7.76514C59.9542 7.76514 59.4401 8.14412 59.4401 8.61163C59.4401 9.07913 59.9542 9.45812 60.5885 9.45812Z" stroke="#A8452C" stroke-width="0.9627" stroke-miterlimit="10" stroke-linecap="round" stroke-linejoin="round"/>
<path d="M52.2945 64.8092C52.9288 64.8092 53.4429 64.4302 53.4429 63.9627C53.4429 63.4952 52.9288 63.1162 52.2945 63.1162C51.6602 63.1162 51.1461 63.4952 51.1461 63.9627C51.1461 64.4302 51.6602 64.8092 52.2945 64.8092Z" stroke="#A8452C" stroke-width="0.9627" stroke-miterlimit="10" stroke-linecap="round" stroke-linejoin="round"/>
<path d="M86.1091 26.2938C86.7433 26.2938 87.2575 25.9148 87.2575 25.4473C87.2575 24.9798 86.7433 24.6008 86.1091 24.6008C85.4748 24.6008 84.9606 24.9798 84.9606 25.4473C84.9606 25.9148 85.4748 26.2938 86.1091 26.2938Z" stroke="#A8452C" stroke-width="0.9627" stroke-miterlimit="10" stroke-linecap="round" stroke-linejoin="round"/>
<path d="M60.1422 123.076C60.7764 123.076 61.2906 122.697 61.2906 122.229C61.2906 121.762 60.7764 121.383 60.1422 121.383C59.5079 121.383 58.9937 121.762 58.9937 122.229C58.9937 122.697 59.5079 123.076 60.1422 123.076Z" stroke="#A8452C" stroke-width="0.9627" stroke-miterlimit="10" stroke-linecap="round" stroke-linejoin="round"/>
<path d="M33.5367 137.184C34.1709 137.184 34.6851 136.805 34.6851 136.338C34.6851 135.87 34.1709 135.491 33.5367 135.491C32.9024 135.491 32.3882 135.87 32.3882 136.338C32.3882 136.805 32.9024 137.184 33.5367 137.184Z" stroke="#A8452C" stroke-width="0.9627" stroke-miterlimit="10" stroke-linecap="round" stroke-linejoin="round"/>
<path d="M30.4742 174.994C31.1084 174.994 31.6226 174.615 31.6226 174.148C31.6226 173.68 31.1084 173.301 30.4742 173.301C29.8399 173.301 29.3257 173.68 29.3257 174.148C29.3257 174.615 29.8399 174.994 30.4742 174.994Z" stroke="#A8452C" stroke-width="0.9627" stroke-miterlimit="10" stroke-linecap="round" stroke-linejoin="round"/>
<path d="M63.0132 143.674C63.6475 143.674 64.1617 143.295 64.1617 142.827C64.1617 142.36 63.6475 141.981 63.0132 141.981C62.379 141.981 61.8648 142.36 61.8648 142.827C61.8648 143.295 62.379 143.674 63.0132 143.674Z" stroke="#A8452C" stroke-width="0.9627" stroke-miterlimit="10" stroke-linecap="round" stroke-linejoin="round"/>
<mask id="path-50-inside-1_3_466" fill="white">
<path d="M42.4685 100.221C42.4685 100.428 42.2403 100.597 41.9578 100.597C41.676 100.597 41.4471 100.429 41.4471 100.221C41.4471 100.013 41.676 99.8442 41.9578 99.8442C42.2403 99.8448 42.4685 100.013 42.4685 100.221Z"/>
</mask>
<path d="M42.4685 100.221C42.4685 100.428 42.2403 100.597 41.9578 100.597C41.676 100.597 41.4471 100.429 41.4471 100.221C41.4471 100.013 41.676 99.8442 41.9578 99.8442C42.2403 99.8448 42.4685 100.013 42.4685 100.221Z" fill="black"/>
<path d="M41.9578 99.8442L41.9598 98.8442H41.9578V99.8442ZM42.4685 100.221H41.4685C41.4685 99.9322 41.629 99.7531 41.7253 99.6821C41.822 99.6107 41.9076 99.5971 41.9578 99.5971V100.597V101.597C42.2905 101.597 42.6314 101.499 42.9128 101.291C43.1938 101.084 43.4685 100.717 43.4685 100.221H42.4685ZM41.9578 100.597V99.5971C42.008 99.5971 42.0933 99.6107 42.1897 99.6817C42.286 99.7526 42.4471 99.9317 42.4471 100.221H41.4471H40.4471C40.4471 100.718 40.7227 101.085 41.0039 101.292C41.2852 101.499 41.6258 101.597 41.9578 101.597V100.597ZM41.4471 100.221H42.4471C42.4471 100.51 42.2855 100.689 42.1901 100.76C42.094 100.83 42.0088 100.844 41.9578 100.844V99.8442V98.8442C41.625 98.8442 41.2844 98.9425 41.0035 99.1496C40.7232 99.3562 40.4471 99.7233 40.4471 100.221H41.4471ZM41.9578 99.8442L41.9558 100.844C41.907 100.844 41.8222 100.831 41.7257 100.76C41.6295 100.689 41.4685 100.51 41.4685 100.221H42.4685H43.4685C43.4685 99.7241 43.1934 99.3569 42.9124 99.1498C42.6312 98.9426 42.2911 98.8449 41.9598 98.8442L41.9578 99.8442Z" fill="#A8452C" mask="url(#path-50-inside-1_3_466)"/>
<mask id="path-52-inside-2_3_466" fill="white">
<path d="M65.4372 161.921C65.4372 162.129 65.2091 162.297 64.9265 162.297C64.6448 162.297 64.4159 162.129 64.4159 161.921C64.4159 161.713 64.644 161.544 64.9265 161.544C65.2091 161.544 65.4372 161.713 65.4372 161.921Z"/>
</mask>
<path d="M65.4372 161.921C65.4372 162.129 65.2091 162.297 64.9265 162.297C64.6448 162.297 64.4159 162.129 64.4159 161.921C64.4159 161.713 64.644 161.544 64.9265 161.544C65.2091 161.544 65.4372 161.713 65.4372 161.921Z" fill="black"/>
<path d="M65.4372 161.921H64.4372C64.4372 161.632 64.5978 161.453 64.6941 161.382C64.7908 161.311 64.8764 161.297 64.9265 161.297V162.297V163.297C65.2592 163.297 65.6001 163.199 65.8815 162.992C66.1626 162.784 66.4372 162.417 66.4372 161.921H65.4372ZM64.9265 162.297V161.297C64.9768 161.297 65.062 161.311 65.1585 161.382C65.2547 161.453 65.4159 161.632 65.4159 161.921H64.4159H63.4159C63.4159 162.418 63.6915 162.785 63.9726 162.992C64.254 163.2 64.5946 163.297 64.9265 163.297V162.297ZM64.4159 161.921H65.4159C65.4159 162.209 65.2557 162.388 65.1586 162.46C65.0616 162.531 64.976 162.544 64.9265 162.544V161.544V160.544C64.5946 160.544 64.2537 160.642 63.9719 160.85C63.6901 161.057 63.4159 161.425 63.4159 161.921H64.4159ZM64.9265 161.544V162.544C64.8763 162.544 64.7908 162.531 64.6941 162.459C64.5978 162.388 64.4372 162.209 64.4372 161.921H65.4372H66.4372C66.4372 161.425 66.1626 161.057 65.8816 160.85C65.6002 160.642 65.2593 160.544 64.9265 160.544V161.544Z" fill="#A8452C" mask="url(#path-52-inside-2_3_466)"/>
<mask id="path-54-inside-3_3_466" fill="white">
<path d="M69.776 40.7783C69.776 40.9859 69.5471 41.1547 69.2653 41.1547C68.9836 41.1547 68.7547 40.9859 68.7547 40.7783C68.7547 40.5706 68.9828 40.4019 69.2653 40.4019C69.5479 40.4019 69.776 40.5706 69.776 40.7783Z"/>
</mask>
<path d="M69.776 40.7783C69.776 40.9859 69.5471 41.1547 69.2653 41.1547C68.9836 41.1547 68.7547 40.9859 68.7547 40.7783C68.7547 40.5706 68.9828 40.4019 69.2653 40.4019C69.5479 40.4019 69.776 40.5706 69.776 40.7783Z" fill="black"/>
<path d="M69.776 40.7783H68.776C68.776 40.4886 68.9376 40.3097 69.033 40.2394C69.1291 40.1686 69.2143 40.1547 69.2653 40.1547V41.1547V42.1547C69.5981 42.1547 69.9387 42.0564 70.2196 41.8493C70.5 41.6427 70.776 41.2756 70.776 40.7783H69.776ZM69.2653 41.1547V40.1547C69.3163 40.1547 69.4016 40.1686 69.4977 40.2394C69.5931 40.3097 69.7547 40.4886 69.7547 40.7783H68.7547H67.7547C67.7547 41.2756 68.0307 41.6427 68.311 41.8493C68.592 42.0564 68.9326 42.1547 69.2653 42.1547V41.1547ZM68.7547 40.7783H69.7547C69.7547 41.0667 69.5941 41.2458 69.4978 41.3168C69.4011 41.3882 69.3155 41.4019 69.2653 41.4019V40.4019V39.4019C68.9326 39.4019 68.5917 39.4999 68.3103 39.7075C68.0293 39.9149 67.7547 40.2821 67.7547 40.7783H68.7547ZM69.2653 40.4019V41.4019C69.2151 41.4019 69.1296 41.3882 69.0329 41.3169C68.9366 41.2458 68.776 41.0667 68.776 40.7783H69.776H70.776C70.776 40.2821 70.5013 39.9148 70.2203 39.7075C69.9389 39.4999 69.598 39.4019 69.2653 39.4019V40.4019Z" fill="#A8452C" mask="url(#path-54-inside-3_3_466)"/>
<mask id="path-56-inside-4_3_466" fill="white">
<path d="M38.3854 142.546C38.6674 142.546 38.8961 142.377 38.8961 142.169C38.8961 141.962 38.6674 141.793 38.3854 141.793C38.1034 141.793 37.8747 141.962 37.8747 142.169C37.8747 142.377 38.1034 142.546 38.3854 142.546Z"/>
</mask>
<path d="M38.3854 142.546C38.6674 142.546 38.8961 142.377 38.8961 142.169C38.8961 141.962 38.6674 141.793 38.3854 141.793C38.1034 141.793 37.8747 141.962 37.8747 142.169C37.8747 142.377 38.1034 142.546 38.3854 142.546Z" fill="black"/>
<path d="M38.8961 142.169H37.8961C37.8961 141.88 38.0571 141.701 38.1532 141.631C38.2496 141.559 38.335 141.546 38.3854 141.546V142.546V143.546C38.7178 143.546 39.0585 143.448 39.3398 143.241C39.6207 143.033 39.8961 142.666 39.8961 142.169H38.8961ZM38.3854 142.546V141.546C38.4358 141.546 38.5212 141.559 38.6176 141.631C38.7137 141.701 38.8747 141.88 38.8747 142.169H37.8747H36.8747C36.8747 142.666 37.1501 143.033 37.431 143.241C37.7122 143.448 38.053 143.546 38.3854 143.546V142.546ZM37.8747 142.169H38.8747C38.8747 142.458 38.7137 142.637 38.6176 142.708C38.5212 142.779 38.4358 142.793 38.3854 142.793V141.793V140.793C38.0529 140.793 37.7122 140.891 37.431 141.098C37.1501 141.305 36.8747 141.673 36.8747 142.169H37.8747ZM38.3854 141.793V142.793C38.335 142.793 38.2496 142.779 38.1532 142.708C38.0571 142.637 37.8961 142.458 37.8961 142.169H38.8961H39.8961C39.8961 141.673 39.6207 141.305 39.3398 141.098C39.0586 140.891 38.7179 140.793 38.3854 140.793V141.793Z" fill="#A8452C" mask="url(#path-56-inside-4_3_466)"/>
<mask id="path-58-inside-5_3_466" fill="white">
<path d="M40.9372 156.653C40.9372 156.861 40.7091 157.03 40.4265 157.03C40.1448 157.03 39.9159 156.861 39.9159 156.653C39.9159 156.445 40.1448 156.277 40.4265 156.277C40.7091 156.277 40.9372 156.446 40.9372 156.653Z"/>
</mask>
<path d="M40.9372 156.653C40.9372 156.861 40.7091 157.03 40.4265 157.03C40.1448 157.03 39.9159 156.861 39.9159 156.653C39.9159 156.445 40.1448 156.277 40.4265 156.277C40.7091 156.277 40.9372 156.446 40.9372 156.653Z" fill="black"/>
<path d="M40.4265 156.277L40.4285 155.277H40.4265V156.277ZM40.9372 156.653H39.9372C39.9372 156.365 40.0978 156.186 40.1941 156.115C40.2908 156.043 40.3764 156.03 40.4265 156.03V157.03V158.03C40.7592 158.03 41.1001 157.932 41.3815 157.724C41.6625 157.517 41.9372 157.149 41.9372 156.653H40.9372ZM40.4265 157.03V156.03C40.4768 156.03 40.562 156.043 40.6585 156.114C40.7547 156.185 40.9159 156.364 40.9159 156.653H39.9159H38.9159C38.9159 157.15 39.1914 157.518 39.4726 157.725C39.754 157.932 40.0946 158.03 40.4265 158.03V157.03ZM39.9159 156.653H40.9159C40.9159 156.942 40.7547 157.121 40.6585 157.192C40.562 157.263 40.4768 157.277 40.4265 157.277V156.277V155.277C40.0946 155.277 39.754 155.375 39.4726 155.582C39.1914 155.789 38.9159 156.156 38.9159 156.653H39.9159ZM40.4265 156.277L40.4245 157.277C40.3757 157.277 40.2909 157.263 40.1945 157.192C40.0982 157.121 39.9372 156.942 39.9372 156.653H40.9372H41.9372C41.9372 156.157 41.6621 155.79 41.3811 155.582C41.1 155.375 40.7599 155.278 40.4285 155.277L40.4265 156.277Z" fill="#A8452C" mask="url(#path-58-inside-5_3_466)"/>
<mask id="path-60-inside-6_3_466" fill="white">
<path d="M70.2867 13.3142C70.2867 13.5218 70.0577 13.6906 69.776 13.6906C69.4942 13.6906 69.2653 13.5224 69.2653 13.3142C69.2653 13.1059 69.4942 12.9377 69.776 12.9377C70.0577 12.9377 70.2867 13.1065 70.2867 13.3142Z"/>
</mask>
<path d="M70.2867 13.3142C70.2867 13.5218 70.0577 13.6906 69.776 13.6906C69.4942 13.6906 69.2653 13.5224 69.2653 13.3142C69.2653 13.1059 69.4942 12.9377 69.776 12.9377C70.0577 12.9377 70.2867 13.1065 70.2867 13.3142Z" fill="black"/>
<path d="M70.2867 13.3142H69.2867C69.2867 13.0245 69.4482 12.8456 69.5437 12.7753C69.6397 12.7045 69.725 12.6906 69.776 12.6906V13.6906V14.6906C70.1088 14.6906 70.4493 14.5923 70.7303 14.3852C71.0106 14.1786 71.2867 13.8115 71.2867 13.3142H70.2867ZM69.776 13.6906V12.6906C69.8262 12.6906 69.9115 12.7042 70.0079 12.7752C70.1042 12.8461 70.2653 13.0252 70.2653 13.3142H69.2653H68.2653C68.2653 13.8113 68.5409 14.1787 68.8221 14.3857C69.1034 14.5929 69.444 14.6906 69.776 14.6906V13.6906ZM69.2653 13.3142H70.2653C70.2653 13.6031 70.1042 13.7822 70.0079 13.8531C69.9115 13.9241 69.8262 13.9377 69.776 13.9377V12.9377V11.9377C69.444 11.9377 69.1034 12.0354 68.8221 12.2426C68.5409 12.4496 68.2653 12.817 68.2653 13.3142H69.2653ZM69.776 12.9377V13.9377C69.725 13.9377 69.6397 13.9238 69.5437 13.853C69.4482 13.7827 69.2867 13.6038 69.2867 13.3142H70.2867H71.2867C71.2867 12.8168 71.0106 12.4497 70.7303 12.2431C70.4493 12.036 70.1088 11.9377 69.776 11.9377V12.9377Z" fill="#A8452C" mask="url(#path-60-inside-6_3_466)"/>
<mask id="path-62-inside-7_3_466" fill="white">
<path d="M40.6823 36.4516C40.6823 36.6593 40.4533 36.828 40.1716 36.828C39.8898 36.828 39.6609 36.6598 39.6609 36.4516C39.6609 36.2439 39.8898 36.0752 40.1716 36.0752C40.4541 36.0758 40.6823 36.2439 40.6823 36.4516Z"/>
</mask>
<path d="M40.6823 36.4516C40.6823 36.6593 40.4533 36.828 40.1716 36.828C39.8898 36.828 39.6609 36.6598 39.6609 36.4516C39.6609 36.2439 39.8898 36.0752 40.1716 36.0752C40.4541 36.0758 40.6823 36.2439 40.6823 36.4516Z" fill="black"/>
<path d="M40.1716 36.0752L40.1736 35.0752H40.1716V36.0752ZM40.6823 36.4516H39.6823C39.6823 36.1619 39.8439 35.983 39.9393 35.9127C40.0353 35.8419 40.1206 35.828 40.1716 35.828V36.828V37.828C40.5044 37.828 40.8449 37.7297 41.1259 37.5226C41.4062 37.316 41.6823 36.9489 41.6823 36.4516H40.6823ZM40.1716 36.828V35.828C40.2218 35.828 40.3071 35.8416 40.4035 35.9126C40.4998 35.9835 40.6609 36.1627 40.6609 36.4516H39.6609H38.6609C38.6609 36.9487 38.9365 37.3161 39.2177 37.5232C39.499 37.7303 39.8396 37.828 40.1716 37.828V36.828ZM39.6609 36.4516H40.6609C40.6609 36.7413 40.4993 36.9202 40.4039 36.9905C40.3079 37.0613 40.2226 37.0752 40.1716 37.0752V36.0752V35.0752C39.8388 35.0752 39.4982 35.1735 39.2173 35.3806C38.937 35.5872 38.6609 35.9543 38.6609 36.4516H39.6609ZM40.1716 36.0752L40.1696 37.0752C40.1208 37.0751 40.036 37.0618 39.9395 36.9907C39.8433 36.9197 39.6823 36.7405 39.6823 36.4516H40.6823H41.6823C41.6823 35.955 41.4072 35.5879 41.1262 35.3808C40.845 35.1735 40.5049 35.0759 40.1736 35.0752L40.1716 36.0752Z" fill="#A8452C" mask="url(#path-62-inside-7_3_466)"/>
<mask id="path-64-inside-8_3_466" fill="white">
<path d="M46.8073 21.0268C46.8073 21.2345 46.5783 21.4032 46.2966 21.4032C46.0148 21.4032 45.7859 21.2345 45.7859 21.0268C45.7859 20.8191 46.0148 20.6504 46.2966 20.6504C46.5791 20.6504 46.8073 20.8191 46.8073 21.0268Z"/>
</mask>
<path d="M46.8073 21.0268C46.8073 21.2345 46.5783 21.4032 46.2966 21.4032C46.0148 21.4032 45.7859 21.2345 45.7859 21.0268C45.7859 20.8191 46.0148 20.6504 46.2966 20.6504C46.5791 20.6504 46.8073 20.8191 46.8073 21.0268Z" fill="black"/>
<path d="M46.8073 21.0268H45.8073C45.8073 20.7371 45.9689 20.5582 46.0643 20.4879C46.1603 20.4171 46.2456 20.4032 46.2966 20.4032V21.4032V22.4032C46.6294 22.4032 46.9699 22.3049 47.2509 22.0978C47.5312 21.8912 47.8073 21.5241 47.8073 21.0268H46.8073ZM46.2966 21.4032V20.4032C46.3476 20.4032 46.4329 20.4171 46.5289 20.4879C46.6243 20.5582 46.7859 20.7371 46.7859 21.0268H45.7859H44.7859C44.7859 21.5241 45.062 21.8912 45.3423 22.0978C45.6232 22.3049 45.9638 22.4032 46.2966 22.4032V21.4032ZM45.7859 21.0268H46.7859C46.7859 21.3165 46.6243 21.4954 46.5289 21.5657C46.4329 21.6365 46.3476 21.6504 46.2966 21.6504V20.6504V19.6504C45.9638 19.6504 45.6232 19.7487 45.3423 19.9558C45.062 20.1624 44.7859 20.5295 44.7859 21.0268H45.7859ZM46.2966 20.6504V21.6504C46.2464 21.6504 46.1608 21.6367 46.0641 21.5654C45.9678 21.4943 45.8073 21.3153 45.8073 21.0268H46.8073H47.8073C47.8073 20.5307 47.5326 20.1634 47.2516 19.956C46.9702 19.7484 46.6293 19.6504 46.2966 19.6504V20.6504Z" fill="#A8452C" mask="url(#path-64-inside-8_3_466)"/>
<path d="M48.6792 27.2305C49.0291 31.9923 43.7693 36.2766 44.2608 41.0311C44.4798 43.1558 45.9168 45.1975 48.1456 46.5536" stroke="#A8452C" stroke-width="0.9627" stroke-miterlimit="10" stroke-linecap="round" stroke-linejoin="round"/>
<path d="M29.7086 94.2013V85.9243" stroke="#A8452C" stroke-width="0.9627" stroke-miterlimit="10" stroke-linecap="round" stroke-linejoin="round"/>
<path d="M32.0054 86.8652V94.9622" stroke="#A8452C" stroke-width="0.9627" stroke-miterlimit="10" stroke-linecap="round" stroke-linejoin="round"/>
<path d="M34.5573 87.6177V94.9562" stroke="#A8452C" stroke-width="0.9627" stroke-miterlimit="10" stroke-linecap="round" stroke-linejoin="round"/>
<path d="M61.0992 86.8652V94.9622" stroke="#A8452C" stroke-width="0.9627" stroke-miterlimit="10" stroke-linecap="round" stroke-linejoin="round"/>
<path d="M63.651 87.6177V94.9562" stroke="#A8452C" stroke-width="0.9627" stroke-miterlimit="10" stroke-linecap="round" stroke-linejoin="round"/>
<path d="M66.4586 94.0225V86.3008" stroke="#A8452C" stroke-width="0.9627" stroke-miterlimit="10" stroke-linecap="round" stroke-linejoin="round"/>
<path d="M39.6617 88.5581V95.7285" stroke="#A8452C" stroke-width="0.9627" stroke-miterlimit="10" stroke-linecap="round" stroke-linejoin="round"/>
<path d="M56.2497 88.5581V95.8261" stroke="#A8452C" stroke-width="0.9627" stroke-miterlimit="10" stroke-linecap="round" stroke-linejoin="round"/>
<path d="M45.7867 88.5581V96.6816" stroke="#A8452C" stroke-width="0.9627" stroke-miterlimit="10" stroke-linecap="round" stroke-linejoin="round"/>
<path d="M75.0795 172.455V184.373" stroke="#A8452C" stroke-width="0.9627" stroke-miterlimit="10" stroke-linecap="round" stroke-linejoin="round"/>
<path d="M70.6695 177.06H79.857" stroke="#A8452C" stroke-width="0.9627" stroke-miterlimit="10" stroke-linecap="round" stroke-linejoin="round"/>
<path d="M72.7826 179.023C72.8745 178.82 78.0195 174.554 78.0195 174.554" stroke="#A8452C" stroke-width="0.9627" stroke-miterlimit="10" stroke-linecap="round" stroke-linejoin="round"/>
<path d="M72.4151 174.418L77.4683 179.091" stroke="#A8452C" stroke-width="0.9627" stroke-miterlimit="10" stroke-linecap="round" stroke-linejoin="round"/>
<path d="M15.8132 134.166V146.599" stroke="#A8452C" stroke-width="0.9627" stroke-miterlimit="10" stroke-linecap="round" stroke-linejoin="round"/>
<path d="M11.2126 138.97H20.7974" stroke="#A8452C" stroke-width="0.9627" stroke-miterlimit="10" stroke-linecap="round" stroke-linejoin="round"/>
<path d="M13.4168 141.018C13.5125 140.806 18.8803 136.355 18.8803 136.355" stroke="#A8452C" stroke-width="0.9627" stroke-miterlimit="10" stroke-linecap="round" stroke-linejoin="round"/>
<path d="M13.034 136.215L18.3053 141.089" stroke="#A8452C" stroke-width="0.9627" stroke-miterlimit="10" stroke-linecap="round" stroke-linejoin="round"/>
</svg>
