<svg width="122" height="149" viewBox="0 0 122 149" fill="none" xmlns="http://www.w3.org/2000/svg">
<path d="M62.4117 13.6765C83.511 13.6765 100.615 11.7318 100.615 9.3329C100.615 6.93398 83.511 4.98926 62.4117 4.98926C41.3125 4.98926 24.2081 6.93398 24.2081 9.3329C24.2081 11.7318 41.3125 13.6765 62.4117 13.6765Z" stroke="#A8452C" stroke-width="2.1499" stroke-miterlimit="10" stroke-linecap="round" stroke-linejoin="round"/>
<path d="M24.2081 9.33301L27.038 22.8904C27.038 22.8904 62.569 30.2615 96.8422 22.8904L100.615 9.33301" stroke="#A8452C" stroke-width="2.1499" stroke-miterlimit="10" stroke-linecap="round" stroke-linejoin="round"/>
<path d="M25.7117 16.5361C25.7117 16.5361 8.48645 20.2285 19.4916 26.1659L25.7117 28.4182" stroke="#A8452C" stroke-width="2.1499" stroke-miterlimit="10" stroke-linecap="round" stroke-linejoin="round"/>
<path d="M19.4916 26.166C19.4916 26.166 7.22876 29.2081 7.22876 41.3177V137.141C7.22876 137.141 64.1411 154.252 117.28 137.141V41.3177C117.28 29.2081 105.017 26.166 105.017 26.166" stroke="#A8452C" stroke-width="2.1499" stroke-miterlimit="10" stroke-linecap="round" stroke-linejoin="round"/>
<path d="M98.7974 16.5361C98.7974 16.5361 116.023 20.2285 105.017 26.1659L98.7974 28.4182" stroke="#A8452C" stroke-width="2.1499" stroke-miterlimit="10" stroke-linecap="round" stroke-linejoin="round"/>
<path d="M29.4906 11.5371L31.7463 23.7156" stroke="#A8452C" stroke-miterlimit="10" stroke-linecap="round" stroke-linejoin="round"/>
<path d="M36.527 12.5264V23.7156" stroke="#A8452C" stroke-miterlimit="10" stroke-linecap="round" stroke-linejoin="round"/>
<path d="M93.0884 11.9219L92.6677 23.7155" stroke="#A8452C" stroke-miterlimit="10" stroke-linecap="round" stroke-linejoin="round"/>
<path d="M88.2971 12.5264V24.4327" stroke="#A8452C" stroke-miterlimit="10" stroke-linecap="round" stroke-linejoin="round"/>
<path d="M44.6658 13.1792V25.2982" stroke="#A8452C" stroke-miterlimit="10" stroke-linecap="round" stroke-linejoin="round"/>
<path d="M80.1671 13.1792V25.2982" stroke="#A8452C" stroke-miterlimit="10" stroke-linecap="round" stroke-linejoin="round"/>
<path d="M64.2021 100.019C64.2021 100.019 59.1712 82.6446 60.1145 82.6446C61.0578 82.6446 44.3928 55.5298 44.3928 55.5298L18.6244 53.687C18.6244 53.687 33.0569 66.5863 29.6063 74.7471C29.6063 74.7471 44.7072 76.3266 47.8516 88.1729C47.8516 88.1729 60.7433 91.3319 64.2021 100.019Z" stroke="#A8452C" stroke-width="2.1499" stroke-miterlimit="10" stroke-linecap="round" stroke-linejoin="round"/>
<path d="M23.5717 55.3979C23.6402 55.3979 38.3003 58.2532 42.5257 58.8202L57.599 81.9863L60.1144 91.9898" stroke="#A8452C" stroke-miterlimit="10" stroke-linecap="round" stroke-linejoin="round"/>
<path d="M31.6582 73.6939L45.8077 65.7964" stroke="#A8452C" stroke-miterlimit="10" stroke-linecap="round" stroke-linejoin="round"/>
<path d="M49.1093 86.5931L55.2407 80.4067" stroke="#A8452C" stroke-miterlimit="10" stroke-linecap="round" stroke-linejoin="round"/>
<path d="M68.1048 130.078C68.1048 130.078 61.5785 113.056 62.5192 112.998C63.46 112.941 44.4846 86.9121 44.4846 86.9121L18.6244 86.6431C18.6244 86.6431 34.1385 98.6299 31.4061 106.979C31.4061 106.979 46.6039 107.635 50.7689 119.258C50.7689 119.258 63.9008 121.624 68.1048 130.078Z" stroke="#A8452C" stroke-width="2.1499" stroke-miterlimit="10" stroke-linecap="round" stroke-linejoin="round"/>
<path d="M23.7069 88.0483C23.7755 88.0441 38.6444 89.9996 42.9081 90.3081L59.9535 112.495L63.3311 122.319" stroke="#A8452C" stroke-miterlimit="10" stroke-linecap="round" stroke-linejoin="round"/>
<path d="M33.3612 105.804L46.7875 97.0659" stroke="#A8452C" stroke-miterlimit="10" stroke-linecap="round" stroke-linejoin="round"/>
<path d="M51.8864 117.607L57.4644 111.063" stroke="#A8452C" stroke-miterlimit="10" stroke-linecap="round" stroke-linejoin="round"/>
<path d="M68.8482 94.4182C68.8482 94.4182 65.7492 76.7299 64.8744 77.0252C63.9997 77.3206 67.3371 46.9551 67.3371 46.9551L90.4102 37.1743C90.4102 37.1743 82.7902 53.6575 89.6373 60.1445C89.6373 60.1445 76.3393 66.3394 78.717 78.3104C78.717 78.3104 68.1735 85.2787 68.8482 94.4182Z" stroke="#A8452C" stroke-width="2.1499" stroke-miterlimit="10" stroke-linecap="round" stroke-linejoin="round"/>
<path d="M86.5873 40.3105C86.5238 40.3321 74.2043 47.5721 70.5392 49.4217L66.9132 75.6267L69.0507 85.6918" stroke="#A8452C" stroke-miterlimit="10" stroke-linecap="round" stroke-linejoin="round"/>
<path d="M87.2639 59.811L70.6128 56.9189" stroke="#A8452C" stroke-miterlimit="10" stroke-linecap="round" stroke-linejoin="round"/>
<path d="M76.8449 77.24L68.3942 73.4233" stroke="#A8452C" stroke-miterlimit="10" stroke-linecap="round" stroke-linejoin="round"/>
<path d="M65.8541 118.224C65.8541 118.224 70.6266 100.799 69.6833 100.809C68.74 100.819 85.0012 73.5321 85.0012 73.5321L110.74 71.4214C110.74 71.4214 96.5 84.4697 100.072 92.5941C100.072 92.5941 84.9955 94.3305 82.0273 106.209C82.0273 106.209 69.1833 109.502 65.8541 118.224Z" stroke="#A8452C" stroke-width="2.1499" stroke-miterlimit="10" stroke-linecap="round" stroke-linejoin="round"/>
<path d="M105.819 73.1841C105.75 73.1846 91.1333 76.1925 86.9167 76.8033L72.1887 100.125L69.8217 110.153" stroke="#A8452C" stroke-miterlimit="10" stroke-linecap="round" stroke-linejoin="round"/>
<path d="M98.0042 91.5626L83.7384 83.813" stroke="#A8452C" stroke-miterlimit="10" stroke-linecap="round" stroke-linejoin="round"/>
<path d="M80.7463 104.643L74.5237 98.5205" stroke="#A8452C" stroke-miterlimit="10" stroke-linecap="round" stroke-linejoin="round"/>
<path d="M12.4697 133.017V89.1421" stroke="#A8452C" stroke-miterlimit="10" stroke-linecap="round" stroke-linejoin="round"/>
<path d="M12.4697 58.3648V43.5116C12.4697 43.5116 11.8717 31.0509 20.7651 30.5244" stroke="#A8452C" stroke-miterlimit="10" stroke-linecap="round" stroke-linejoin="round"/>
<path d="M112.04 59.8111V44.9574C112.04 44.9574 112.638 32.4967 103.745 31.9702" stroke="#A8452C" stroke-miterlimit="10" stroke-linecap="round" stroke-linejoin="round"/>
<path d="M90.8717 139.554C90.8717 139.554 108.703 137.053 112.049 133.017V107.394" stroke="#A8452C" stroke-miterlimit="10" stroke-linecap="round" stroke-linejoin="round"/>
<path d="M90.8717 3.49756C90.8717 3.49756 104.913 5.86682 104.703 9.33278L102.607 15.0806" stroke="#A8452C" stroke-miterlimit="10" stroke-linecap="round" stroke-linejoin="round"/>
<path d="M68.7765 42.669L72.4491 39.5942" stroke="#A8452C" stroke-miterlimit="10" stroke-linecap="round" stroke-linejoin="round"/>
<path d="M56.8683 101.144L61.881 102.283" stroke="#A8452C" stroke-miterlimit="10" stroke-linecap="round" stroke-linejoin="round"/>
<path d="M93.3972 97.5161L98.0043 99.5247" stroke="#A8452C" stroke-miterlimit="10" stroke-linecap="round" stroke-linejoin="round"/>
<path d="M80.1671 115.873L83.8403 112.798" stroke="#A8452C" stroke-miterlimit="10" stroke-linecap="round" stroke-linejoin="round"/>
<path d="M54.6754 58.4566L58.348 55.3818" stroke="#A8452C" stroke-miterlimit="10" stroke-linecap="round" stroke-linejoin="round"/>
<path d="M33.3613 46.7344L37.2106 49.6544" stroke="#A8452C" stroke-miterlimit="10" stroke-linecap="round" stroke-linejoin="round"/>
<path d="M57.7085 68.9263L62.5206 70.5632" stroke="#A8452C" stroke-miterlimit="10" stroke-linecap="round" stroke-linejoin="round"/>
<path d="M41.6825 119.762L45.3557 116.687" stroke="#A8452C" stroke-miterlimit="10" stroke-linecap="round" stroke-linejoin="round"/>
<path d="M29.822 83.1724L33.4946 80.0977" stroke="#A8452C" stroke-miterlimit="10" stroke-linecap="round" stroke-linejoin="round"/>
<path d="M90.2504 65.0005L95.0845 66.5921" stroke="#A8452C" stroke-miterlimit="10" stroke-linecap="round" stroke-linejoin="round"/>
<path d="M96.168 52.7291L99.8406 49.6543" stroke="#A8452C" stroke-miterlimit="10" stroke-linecap="round" stroke-linejoin="round"/>
<path d="M93.8645 115.683L98.4716 117.691" stroke="#A8452C" stroke-miterlimit="10" stroke-linecap="round" stroke-linejoin="round"/>
<path d="M3.03674 58.3647V98.5205" stroke="#A8452C" stroke-miterlimit="10" stroke-linecap="round" stroke-linejoin="round"/>
</svg>
