<svg width="123" height="149" viewBox="0 0 123 149" fill="none" xmlns="http://www.w3.org/2000/svg">
<path d="M62.5947 13.6764C83.694 13.6764 100.798 11.7317 100.798 9.33278C100.798 6.93385 83.694 4.98914 62.5947 4.98914C41.4955 4.98914 24.3911 6.93385 24.3911 9.33278C24.3911 11.7317 41.4955 13.6764 62.5947 13.6764Z" stroke="black" stroke-width="2.1499" stroke-miterlimit="10" stroke-linecap="round" stroke-linejoin="round"/>
<path d="M24.3911 9.33276L27.221 22.8902C27.221 22.8902 62.7519 30.2612 97.0251 22.8902L100.798 9.33276" stroke="black" stroke-width="2.1499" stroke-miterlimit="10" stroke-linecap="round" stroke-linejoin="round"/>
<path d="M25.8947 16.5364C25.8947 16.5364 8.66944 20.2287 19.6746 26.1661L25.8947 28.4185" stroke="black" stroke-width="2.1499" stroke-miterlimit="10" stroke-linecap="round" stroke-linejoin="round"/>
<path d="M19.6746 26.1661C19.6746 26.1661 7.41174 29.2083 7.41174 41.3178V137.141C7.41174 137.141 64.3241 154.252 117.463 137.141V41.3178C117.463 29.2083 105.2 26.1661 105.2 26.1661" stroke="black" stroke-width="2.1499" stroke-miterlimit="10" stroke-linecap="round" stroke-linejoin="round"/>
<path d="M98.9803 16.5364C98.9803 16.5364 116.206 20.2287 105.2 26.1661L98.9803 28.4185" stroke="black" stroke-width="2.1499" stroke-miterlimit="10" stroke-linecap="round" stroke-linejoin="round"/>
<path d="M29.6736 11.5372L31.9293 23.7157" stroke="black" stroke-miterlimit="10" stroke-linecap="round" stroke-linejoin="round"/>
<path d="M36.71 12.5265V23.7157" stroke="black" stroke-miterlimit="10" stroke-linecap="round" stroke-linejoin="round"/>
<path d="M93.2714 11.9221L92.8507 23.7158" stroke="black" stroke-miterlimit="10" stroke-linecap="round" stroke-linejoin="round"/>
<path d="M88.4801 12.5265V24.4328" stroke="black" stroke-miterlimit="10" stroke-linecap="round" stroke-linejoin="round"/>
<path d="M44.8488 13.1794V25.2985" stroke="black" stroke-miterlimit="10" stroke-linecap="round" stroke-linejoin="round"/>
<path d="M80.3501 13.1794V25.2985" stroke="black" stroke-miterlimit="10" stroke-linecap="round" stroke-linejoin="round"/>
<path d="M64.3851 100.019C64.3851 100.019 59.3541 82.6445 60.2974 82.6445C61.2407 82.6445 44.5758 55.5296 44.5758 55.5296L18.8074 53.6869C18.8074 53.6869 33.2398 66.5862 29.7893 74.747C29.7893 74.747 44.8902 76.3265 48.0345 88.1727C48.0345 88.1727 60.9263 91.3318 64.3851 100.019Z" stroke="black" stroke-width="2.1499" stroke-miterlimit="10" stroke-linecap="round" stroke-linejoin="round"/>
<path d="M23.7546 55.3981C23.8232 55.3981 38.4833 58.2533 42.7087 58.8203L57.7819 81.9864L60.2974 91.9899" stroke="black" stroke-miterlimit="10" stroke-linecap="round" stroke-linejoin="round"/>
<path d="M31.8413 73.6939L45.9908 65.7964" stroke="black" stroke-miterlimit="10" stroke-linecap="round" stroke-linejoin="round"/>
<path d="M49.2922 86.5933L55.4237 80.4069" stroke="black" stroke-miterlimit="10" stroke-linecap="round" stroke-linejoin="round"/>
<path d="M68.2878 130.078C68.2878 130.078 61.7614 113.056 62.7022 112.998C63.643 112.941 44.6676 86.9122 44.6676 86.9122L18.8074 86.6432C18.8074 86.6432 34.3215 98.6301 31.5891 106.979C31.5891 106.979 46.7869 107.635 50.9519 119.258C50.9519 119.258 64.0838 121.624 68.2878 130.078Z" stroke="black" stroke-width="2.1499" stroke-miterlimit="10" stroke-linecap="round" stroke-linejoin="round"/>
<path d="M23.8899 88.0485C23.9584 88.0443 38.8273 89.9997 43.0911 90.3082L60.1365 112.496L63.5141 122.32" stroke="black" stroke-miterlimit="10" stroke-linecap="round" stroke-linejoin="round"/>
<path d="M33.5442 105.804L46.9705 97.0659" stroke="black" stroke-miterlimit="10" stroke-linecap="round" stroke-linejoin="round"/>
<path d="M52.0693 117.607L57.6474 111.063" stroke="black" stroke-miterlimit="10" stroke-linecap="round" stroke-linejoin="round"/>
<path d="M69.0312 94.4181C69.0312 94.4181 65.9322 76.7298 65.0574 77.0251C64.1827 77.3205 67.5201 46.955 67.5201 46.955L90.5931 37.1742C90.5931 37.1742 82.9732 53.6574 89.8203 60.1444C89.8203 60.1444 76.5223 66.3392 78.9 78.3103C78.9 78.3103 68.3564 85.2785 69.0312 94.4181Z" stroke="black" stroke-width="2.1499" stroke-miterlimit="10" stroke-linecap="round" stroke-linejoin="round"/>
<path d="M86.7703 40.3105C86.7067 40.3321 74.3873 47.5721 70.7222 49.4217L67.0962 75.6267L69.2337 85.6918" stroke="black" stroke-miterlimit="10" stroke-linecap="round" stroke-linejoin="round"/>
<path d="M87.4469 59.8111L70.7958 56.9191" stroke="black" stroke-miterlimit="10" stroke-linecap="round" stroke-linejoin="round"/>
<path d="M77.0279 77.24L68.5771 73.4233" stroke="black" stroke-miterlimit="10" stroke-linecap="round" stroke-linejoin="round"/>
<path d="M66.0371 118.224C66.0371 118.224 70.8096 100.799 69.8663 100.809C68.923 100.819 85.1842 73.5323 85.1842 73.5323L110.923 71.4215C110.923 71.4215 96.683 84.4698 100.255 92.5943C100.255 92.5943 85.1785 94.3307 82.2103 106.209C82.2103 106.209 69.3663 109.502 66.0371 118.224Z" stroke="black" stroke-width="2.1499" stroke-miterlimit="10" stroke-linecap="round" stroke-linejoin="round"/>
<path d="M106.002 73.1842C105.933 73.1847 91.3163 76.1926 87.0997 76.8034L72.3717 100.125L70.0046 110.154" stroke="black" stroke-miterlimit="10" stroke-linecap="round" stroke-linejoin="round"/>
<path d="M98.1872 91.5628L83.9214 83.8132" stroke="black" stroke-miterlimit="10" stroke-linecap="round" stroke-linejoin="round"/>
<path d="M80.9293 104.643L74.7067 98.5205" stroke="black" stroke-miterlimit="10" stroke-linecap="round" stroke-linejoin="round"/>
<path d="M12.6527 133.017V89.142" stroke="black" stroke-miterlimit="10" stroke-linecap="round" stroke-linejoin="round"/>
<path d="M12.6527 58.3649V43.5118C12.6527 43.5118 12.0546 31.051 20.9481 30.5245" stroke="black" stroke-miterlimit="10" stroke-linecap="round" stroke-linejoin="round"/>
<path d="M112.223 59.8111V44.9574C112.223 44.9574 112.821 32.4967 103.928 31.9702" stroke="black" stroke-miterlimit="10" stroke-linecap="round" stroke-linejoin="round"/>
<path d="M91.0547 139.555C91.0547 139.555 108.886 137.054 112.232 133.017V107.394" stroke="black" stroke-miterlimit="10" stroke-linecap="round" stroke-linejoin="round"/>
<path d="M91.0547 3.49756C91.0547 3.49756 105.096 5.86682 104.886 9.33278L102.79 15.0806" stroke="black" stroke-miterlimit="10" stroke-linecap="round" stroke-linejoin="round"/>
<path d="M68.9595 42.6688L72.632 39.594" stroke="black" stroke-miterlimit="10" stroke-linecap="round" stroke-linejoin="round"/>
<path d="M57.0513 101.144L62.064 102.283" stroke="black" stroke-miterlimit="10" stroke-linecap="round" stroke-linejoin="round"/>
<path d="M93.5802 97.5161L98.1873 99.5247" stroke="black" stroke-miterlimit="10" stroke-linecap="round" stroke-linejoin="round"/>
<path d="M80.3501 115.873L84.0233 112.798" stroke="black" stroke-miterlimit="10" stroke-linecap="round" stroke-linejoin="round"/>
<path d="M54.8584 58.4565L58.531 55.3817" stroke="black" stroke-miterlimit="10" stroke-linecap="round" stroke-linejoin="round"/>
<path d="M33.5443 46.7344L37.3936 49.6544" stroke="black" stroke-miterlimit="10" stroke-linecap="round" stroke-linejoin="round"/>
<path d="M57.8915 68.9265L62.7036 70.5634" stroke="black" stroke-miterlimit="10" stroke-linecap="round" stroke-linejoin="round"/>
<path d="M41.8655 119.762L45.5387 116.687" stroke="black" stroke-miterlimit="10" stroke-linecap="round" stroke-linejoin="round"/>
<path d="M30.005 83.1725L33.6776 80.0978" stroke="black" stroke-miterlimit="10" stroke-linecap="round" stroke-linejoin="round"/>
<path d="M90.4333 65.0004L95.2674 66.592" stroke="black" stroke-miterlimit="10" stroke-linecap="round" stroke-linejoin="round"/>
<path d="M96.351 52.7292L100.024 49.6544" stroke="black" stroke-miterlimit="10" stroke-linecap="round" stroke-linejoin="round"/>
<path d="M94.0475 115.682L98.6546 117.691" stroke="black" stroke-miterlimit="10" stroke-linecap="round" stroke-linejoin="round"/>
<path d="M3.21973 58.3649V98.5206" stroke="black" stroke-miterlimit="10" stroke-linecap="round" stroke-linejoin="round"/>
</svg>
