<svg width="119" height="137" viewBox="0 0 119 137" fill="none" xmlns="http://www.w3.org/2000/svg">
<path d="M83.7368 130.149H18.6401C12.6612 130.149 7.81476 125.872 7.81476 120.595V33.7574C7.81476 28.4803 12.6612 24.2026 18.6401 24.2026H83.7368C89.7156 24.2026 94.5621 28.4803 94.5621 33.7574V120.595C94.5621 125.872 89.7156 130.149 83.7368 130.149Z" stroke="#A8452C" stroke-width="2.1499" stroke-miterlimit="10" stroke-linecap="round" stroke-linejoin="round"/>
<path d="M11.0692 26.931L29.2495 12.8304H101.191C101.191 12.8304 112.278 11.3972 112.278 23.6326V103.806C112.278 103.806 113.017 113.283 103.655 119.807L89.3497 128.766" stroke="#A8452C" stroke-width="2.1499" stroke-miterlimit="10" stroke-linecap="round" stroke-linejoin="round"/>
<path d="M14.634 44.6243L26.6168 32.5103H14.634V44.6243Z" stroke="#A8452C" stroke-width="2.1499" stroke-miterlimit="10" stroke-linecap="round" stroke-linejoin="round"/>
<path d="M87.7429 44.6243L75.7601 32.5103H87.7429V44.6243Z" stroke="#A8452C" stroke-width="2.1499" stroke-miterlimit="10" stroke-linecap="round" stroke-linejoin="round"/>
<path d="M87.7429 111.202L75.7601 123.316H87.7429V111.202Z" stroke="#A8452C" stroke-width="2.1499" stroke-miterlimit="10" stroke-linecap="round" stroke-linejoin="round"/>
<path d="M14.634 111.202L26.6168 123.316H14.634V111.202Z" stroke="#A8452C" stroke-width="2.1499" stroke-miterlimit="10" stroke-linecap="round" stroke-linejoin="round"/>
<path d="M39.1044 55.059L51.1884 42.0322L64.3775 55.059V82.8393L51.1884 95.2346L39.1044 83.7089V55.059Z" stroke="#A8452C" stroke-width="2.1499" stroke-miterlimit="10" stroke-linecap="round" stroke-linejoin="round"/>
<path d="M51.1884 43.5132L47.8513 57.1369V84.5245L51.1884 95.2346" stroke="#A8452C" stroke-miterlimit="10" stroke-linecap="round" stroke-linejoin="round"/>
<path d="M51.1884 43.5132L54.5256 57.1369V84.5245L51.1884 95.2346V104.495" stroke="#A8452C" stroke-miterlimit="10" stroke-linecap="round" stroke-linejoin="round"/>
<path d="M39.1044 55.0591L47.8512 57.1369H54.5256L64.3775 55.0591" stroke="#A8452C" stroke-miterlimit="10" stroke-linecap="round" stroke-linejoin="round"/>
<path d="M39.1044 83.709L47.8512 84.5245H54.5256L64.3775 82.8394" stroke="#A8452C" stroke-miterlimit="10" stroke-linecap="round" stroke-linejoin="round"/>
<path d="M23.1872 104.495L29.1786 93.2412L35.17 104.495L22.7733 95.6876H36.0776L23.1872 104.495Z" stroke="#A8452C" stroke-miterlimit="10" stroke-linecap="round" stroke-linejoin="round"/>
<path d="M71.1989 97.2539C71.1989 96.0855 71.7872 95.0475 72.703 94.3267C71.7916 94.5172 70.9239 94.9112 70.2136 95.5388C68.1736 97.3394 68.1736 100.259 70.2136 102.059C72.2536 103.86 75.5605 103.86 77.6012 102.059C78.3122 101.432 78.7587 100.666 78.9745 99.8621C78.1578 100.67 76.9818 101.19 75.658 101.19C73.1952 101.189 71.1989 99.427 71.1989 97.2539Z" stroke="#A8452C" stroke-miterlimit="10" stroke-linecap="round" stroke-linejoin="round"/>
<path d="M14.634 44.8896V111.202" stroke="#A8452C" stroke-width="2.1499" stroke-miterlimit="10" stroke-linecap="round" stroke-linejoin="round"/>
<path d="M87.7429 42.772V111.854" stroke="#A8452C" stroke-width="2.1499" stroke-miterlimit="10" stroke-linecap="round" stroke-linejoin="round"/>
<path d="M26.6168 123.316H75.7601" stroke="#A8452C" stroke-width="2.1499" stroke-miterlimit="10" stroke-linecap="round" stroke-linejoin="round"/>
<path d="M26.6168 32.5103H75.7601" stroke="#A8452C" stroke-width="2.1499" stroke-miterlimit="10" stroke-linecap="round" stroke-linejoin="round"/>
<path d="M25.3026 20.5913H87.7429" stroke="#A8452C" stroke-miterlimit="10" stroke-linecap="round" stroke-linejoin="round"/>
<path d="M28.4439 16.1875H90.8842" stroke="#A8452C" stroke-miterlimit="10" stroke-linecap="round" stroke-linejoin="round"/>
<path d="M100.514 27.1147V111.201" stroke="#A8452C" stroke-miterlimit="10" stroke-linecap="round" stroke-linejoin="round"/>
<path d="M105.873 22.8413V106.928" stroke="#A8452C" stroke-miterlimit="10" stroke-linecap="round" stroke-linejoin="round"/>
<path d="M92.5686 24.2366L105.134 14.7588" stroke="#A8452C" stroke-miterlimit="10" stroke-linecap="round" stroke-linejoin="round"/>
<path d="M29.4254 35.2598L17.9164 47.0653" stroke="#A8452C" stroke-miterlimit="10" stroke-linecap="round" stroke-linejoin="round"/>
<path d="M72.4731 35.2598L83.9829 47.0653" stroke="#A8452C" stroke-miterlimit="10" stroke-linecap="round" stroke-linejoin="round"/>
<path d="M73.2648 119.808L84.7745 108.003" stroke="#A8452C" stroke-miterlimit="10" stroke-linecap="round" stroke-linejoin="round"/>
<path d="M18.7073 108.003L30.2171 119.808" stroke="#A8452C" stroke-miterlimit="10" stroke-linecap="round" stroke-linejoin="round"/>
<path d="M26.6168 69.3736V55.0591" stroke="#A8452C" stroke-width="2.1499" stroke-miterlimit="10" stroke-linecap="round" stroke-linejoin="round"/>
<path d="M31.4825 65.0791H21.7518" stroke="#A8452C" stroke-width="2.1499" stroke-miterlimit="10" stroke-linecap="round" stroke-linejoin="round"/>
<path d="M76.0602 69.3736V55.0591" stroke="#A8452C" stroke-width="2.1499" stroke-miterlimit="10" stroke-linecap="round" stroke-linejoin="round"/>
<path d="M80.9258 65.0791H71.1945" stroke="#A8452C" stroke-width="2.1499" stroke-miterlimit="10" stroke-linecap="round" stroke-linejoin="round"/>
<path d="M51.7413 113.896C54.6327 113.896 56.9766 111.827 56.9766 109.275C56.9766 106.723 54.6327 104.654 51.7413 104.654C48.8499 104.654 46.506 106.723 46.506 109.275C46.506 111.827 48.8499 113.896 51.7413 113.896Z" stroke="#A8452C" stroke-width="2.1499" stroke-miterlimit="10" stroke-linecap="round" stroke-linejoin="round"/>
<path d="M4.61212 35.2603V57.4954" stroke="#A8452C" stroke-miterlimit="10" stroke-linecap="round" stroke-linejoin="round"/>
<path d="M64.3774 133.725H86.1626C86.1626 133.725 92.5686 132.506 97.2495 128.767" stroke="#A8452C" stroke-miterlimit="10" stroke-linecap="round" stroke-linejoin="round"/>
<path d="M115.482 27.9424V47.2144" stroke="#A8452C" stroke-miterlimit="10" stroke-linecap="round" stroke-linejoin="round"/>
<path d="M35.7491 7.54053L36.0909 7.8374L36.42 7.52783L39.837 4.31689V20.0913H31.9825V4.25928L35.7491 7.54053Z" fill="black" stroke="#A8452C"/>
</svg>
