<svg width="98" height="152" viewBox="0 0 98 152" fill="none" xmlns="http://www.w3.org/2000/svg">
<path d="M15.7749 13.0945C15.7749 13.0945 70.1681 -14.8203 92.214 56.7348C92.214 56.7348 56.0036 17.5156 22.6976 30.0009L15.7749 13.0945Z" stroke="black" stroke-width="2.5736" stroke-miterlimit="10" stroke-linecap="round" stroke-linejoin="round"/>
<path d="M14.5675 10.1792L6.75269 13.2464L16.2995 37.5475L24.1143 34.4802L14.5675 10.1792Z" stroke="black" stroke-width="2.5736" stroke-miterlimit="10" stroke-linecap="round" stroke-linejoin="round"/>
<path d="M22.9074 35.1451L17.9387 37.0952L55.2883 132.167L60.2571 130.217L22.9074 35.1451Z" stroke="black" stroke-width="2.5736" stroke-miterlimit="10" stroke-linecap="round" stroke-linejoin="round"/>
<path d="M65.0941 148.841C65.0941 148.841 56.3716 142.838 52.797 142.41C52.797 142.41 55.7859 134.073 55.2927 132.167L60.2616 130.216C60.2616 130.216 66.6674 134.835 68.812 135.549C68.812 135.549 65.0941 144.553 65.0941 148.841Z" stroke="black" stroke-width="2.5736" stroke-miterlimit="10" stroke-linecap="round" stroke-linejoin="round"/>
<path d="M20.1299 20.8334C20.1299 20.8334 60.8787 1.64446 90.8517 54.6305" stroke="black" stroke-width="1.1432" stroke-miterlimit="10" stroke-linecap="round" stroke-linejoin="round"/>
<path d="M42.4524 20.5006L40.167 27.0466" stroke="black" stroke-width="1.1432" stroke-miterlimit="10" stroke-linecap="round" stroke-linejoin="round"/>
<path d="M46.9369 23.4505L44.7698 28.581" stroke="black" stroke-width="1.0045" stroke-miterlimit="10" stroke-linecap="round" stroke-linejoin="round"/>
<path d="M65.2105 15.3939L62.9257 21.9399" stroke="black" stroke-width="1.1432" stroke-miterlimit="10" stroke-linecap="round" stroke-linejoin="round"/>
<path d="M69.695 18.3438L67.5285 23.4743" stroke="black" stroke-width="1.0045" stroke-miterlimit="10" stroke-linecap="round" stroke-linejoin="round"/>
<path d="M8.63074 17.6814C9.84355 18.1018 11.1909 17.9097 12.4075 17.4988C13.119 17.2586 13.8055 16.9464 14.4664 16.5899C15.1097 16.2427 15.815 15.696 15.7418 14.9685" stroke="black" stroke-width="1.0045" stroke-miterlimit="10" stroke-linecap="round" stroke-linejoin="round"/>
<path d="M10.4888 22.2314C11.7016 22.6517 13.0489 22.4591 14.2655 22.0487C14.9771 21.8085 15.6636 21.4964 16.3244 21.1399C16.9677 20.7927 17.673 20.246 17.5998 19.5185" stroke="black" stroke-width="1.0045" stroke-miterlimit="10" stroke-linecap="round" stroke-linejoin="round"/>
<path d="M12.1609 27.3381C13.3737 27.7584 14.7211 27.5658 15.9376 27.1554C16.6492 26.9152 17.3357 26.6031 17.9965 26.2466C18.6399 25.8994 19.3451 25.3527 19.2719 24.6252" stroke="black" stroke-width="1.0045" stroke-miterlimit="10" stroke-linecap="round" stroke-linejoin="round"/>
<path d="M14.0183 31.98C15.2311 32.4004 16.5785 32.2083 17.795 31.7974C18.5066 31.5572 19.1931 31.2451 19.854 30.8885C20.4973 30.5414 21.2026 29.9947 21.1293 29.2672" stroke="black" stroke-width="1.0045" stroke-miterlimit="10" stroke-linecap="round" stroke-linejoin="round"/>
<path d="M25.0844 53.6404L27.0663 46.9549" stroke="black" stroke-width="1.0045" stroke-miterlimit="10" stroke-linecap="round" stroke-linejoin="round"/>
<path d="M28.7999 63.0487L30.7818 56.3638" stroke="black" stroke-width="1.0045" stroke-miterlimit="10" stroke-linecap="round" stroke-linejoin="round"/>
<path d="M32.392 72.0861L34.3733 65.4013" stroke="black" stroke-width="1.0045" stroke-miterlimit="10" stroke-linecap="round" stroke-linejoin="round"/>
<path d="M36.1074 81.4945L38.0893 74.8096" stroke="black" stroke-width="1.0045" stroke-miterlimit="10" stroke-linecap="round" stroke-linejoin="round"/>
<path d="M39.8234 91.1512L41.8047 84.4657" stroke="black" stroke-width="1.0045" stroke-miterlimit="10" stroke-linecap="round" stroke-linejoin="round"/>
<path d="M43.5388 100.56L45.5207 93.8747" stroke="black" stroke-width="1.0045" stroke-miterlimit="10" stroke-linecap="round" stroke-linejoin="round"/>
<path d="M47.131 109.845L49.1123 103.159" stroke="black" stroke-width="1.0045" stroke-miterlimit="10" stroke-linecap="round" stroke-linejoin="round"/>
<path d="M50.8464 119.253L52.8283 112.568" stroke="black" stroke-width="1.0045" stroke-miterlimit="10" stroke-linecap="round" stroke-linejoin="round"/>
<path d="M28.2116 31.9444C28.2116 31.9444 35.6431 29.159 45.6754 32.1302" stroke="black" stroke-width="1.0045" stroke-miterlimit="10" stroke-linecap="round" stroke-linejoin="round"/>
<path d="M81.9965 28.3233C81.9965 28.3233 88.0343 35.7513 91.1001 45.129" stroke="black" stroke-width="1.0045" stroke-miterlimit="10" stroke-linecap="round" stroke-linejoin="round"/>
<path d="M7.49676 9.93941L3.22375 11.6108L6.66069 21.0811" stroke="black" stroke-width="1.0045" stroke-miterlimit="10" stroke-linecap="round" stroke-linejoin="round"/>
<path d="M18.3007 45.3391L25.1176 62.8385" stroke="black" stroke-width="1.0045" stroke-miterlimit="10" stroke-linecap="round" stroke-linejoin="round"/>
<path d="M43.9393 111.912L50.7556 129.411" stroke="black" stroke-width="1.0045" stroke-miterlimit="10" stroke-linecap="round" stroke-linejoin="round"/>
<path d="M44.189 81.4326L49.9483 96.1028" stroke="black" stroke-width="1.0045" stroke-miterlimit="10" stroke-linecap="round" stroke-linejoin="round"/>
<path d="M41.8667 4.83271C41.8667 4.83271 56.9155 4.83271 65.8326 12.1675" stroke="black" stroke-width="1.0045" stroke-miterlimit="10" stroke-linecap="round" stroke-linejoin="round"/>
<path d="M68.5267 149.769C68.5267 149.769 68.7125 141.784 72.2427 137.606" stroke="black" stroke-width="1.0045" stroke-miterlimit="10" stroke-linecap="round" stroke-linejoin="round"/>
<path d="M72.707 50.9863C72.707 50.9863 74.699 50.1331 74.5094 46.1504C74.5094 46.1504 75.1733 50.7968 77.1659 50.8918C77.1659 50.8918 74.6045 51.8401 75.0788 55.4437C75.0788 55.4437 74.699 51.5555 72.707 50.9863Z" stroke="black" stroke-width="1.1432" stroke-miterlimit="10" stroke-linecap="round" stroke-linejoin="round"/>
<path d="M79.9526 16.4466C79.9526 16.4466 81.9452 15.5934 81.755 11.6108C81.755 11.6108 82.4189 16.2571 84.4115 16.3522C84.4115 16.3522 81.8501 17.3005 82.3244 20.9041C82.3244 20.9041 81.9446 17.0159 79.9526 16.4466Z" stroke="black" stroke-width="1.1432" stroke-miterlimit="10" stroke-linecap="round" stroke-linejoin="round"/>
</svg>
