<svg width="135" height="141" viewBox="0 0 135 141" fill="none" xmlns="http://www.w3.org/2000/svg">
<path d="M68.691 16.6018C82.5846 16.6018 93.8475 13.5598 93.8475 9.80724C93.8475 6.0547 82.5846 3.01266 68.691 3.01266C54.7975 3.01266 43.5345 6.0547 43.5345 9.80724C43.5345 13.5598 54.7975 16.6018 68.691 16.6018Z" stroke="black" stroke-width="2.1499" stroke-miterlimit="10" stroke-linecap="round" stroke-linejoin="round"/>
<path d="M43.5338 9.80722L43.5101 22.9202C43.5101 22.9202 52.9086 29.3789 70.6144 29.2386C87.7923 29.1021 93.8119 23.6223 93.8119 23.6223L93.8475 9.80722" stroke="black" stroke-width="2.1499" stroke-miterlimit="10" stroke-linecap="round" stroke-linejoin="round"/>
<path d="M93.8127 23.6223C116.106 32.5488 130.781 53.6708 130.781 77.6644C130.781 109.838 102.719 135.919 68.1024 135.919C33.486 135.919 5.42377 109.838 5.42377 77.6644C5.42377 53.5349 21.2084 32.8316 43.7048 23.9877" stroke="black" stroke-width="2.1499" stroke-miterlimit="10" stroke-linecap="round" stroke-linejoin="round"/>
<path d="M99.6205 34.012C99.6205 34.012 114.405 43.9802 119.755 55.774" stroke="black" stroke-miterlimit="10" stroke-linecap="round" stroke-linejoin="round"/>
<path d="M63.9595 111.002C61.8066 110.528 59.676 109.928 57.6437 109.076C53.2632 107.238 49.3469 104.173 46.8423 100.145C44.3385 96.1177 43.3287 91.1103 44.4518 86.5061C45.5749 81.9018 48.9256 77.8098 53.3691 76.1289C53.9695 75.9015 54.6003 75.7096 55.1015 75.3095C55.6456 74.8754 55.9824 74.2391 56.2749 73.6086C57.1884 71.6361 57.8237 69.5071 59.1029 67.7479C60.3822 65.9887 62.5573 64.6334 64.6791 65.1272C66.2627 65.4963 67.5294 66.8155 69.1418 67.0296C70.6492 67.2297 72.9753 62.9207 74.4774 63.1599C76.1417 63.4249 76.534 68.4153 77.1848 69.9655C77.8356 71.5158 80.1943 69.8998 80.9079 71.422C82.5011 74.8171 87.1808 74.0324 88.9465 77.3411C89.9726 79.2649 89.6113 84.8052 89.9355 86.9601C90.3131 89.4663 92.3572 94.2965 92.5326 96.8256C92.7007 99.2485 89.709 102.631 88.6992 104.841C87.4214 107.638 83.5176 109.255 80.6185 110.3C75.1792 112.26 69.5157 112.223 63.9595 111.002Z" stroke="black" stroke-width="2.1499" stroke-miterlimit="10" stroke-linecap="round" stroke-linejoin="round"/>
<path d="M51.5657 117.906C46.2605 116.424 40.9508 114.475 36.7109 110.968C33.9576 108.69 31.7411 105.818 29.9347 102.739C25.3306 94.8908 23.345 85.5442 24.3607 76.5091C24.7042 73.4558 25.3876 70.4188 26.6609 67.6202C28.229 64.1764 30.6424 61.1903 33.1366 58.3408C36.6532 54.3241 40.3859 50.4957 44.3119 46.8755C45.4676 45.8102 46.9971 44.6859 48.4696 45.2388C49.3091 45.5541 49.8592 46.3403 50.5455 46.9168C53.1604 49.1138 57.2307 47.9274 59.9936 45.9195C62.7565 43.9115 65.093 41.1513 68.3357 40.0706C71.6694 38.9595 75.6168 39.9901 77.977 42.5879C79.568 44.3389 80.6688 46.843 82.9557 47.4616C85.8371 48.2412 88.7881 45.4662 91.6791 46.2089C93.3692 46.6437 94.519 48.1585 95.531 49.5766C97.3678 52.1478 99.2038 54.7198 101.04 57.291C102.799 59.7545 104.561 62.2223 106.089 64.8349C109.853 71.2729 112.157 78.6462 112.091 86.0986C112.026 93.5509 109.493 101.062 104.552 106.653C103.935 107.352 103.264 108.049 102.963 108.931C102.762 109.522 102.74 110.166 102.5 110.743C102.029 111.88 100.835 112.519 99.7176 113.042C88.6459 118.22 75.4525 121.553 63.1637 120.241C59.2363 119.823 55.3658 118.967 51.5657 117.906Z" stroke="black" stroke-width="2.1499" stroke-miterlimit="10" stroke-linecap="round" stroke-linejoin="round"/>
<path d="M84.7318 114.02C86.576 113.092 88.4201 112.164 90.2636 111.236C94.1873 109.262 98.2902 107.133 100.71 103.474C104.317 98.0171 103.162 90.6733 100.553 84.6782C97.9445 78.6824 94.0348 73.2329 92.2217 66.9521C91.5562 64.6466 91.0602 62.0547 89.1619 60.5798C88.0663 59.7286 86.6648 59.3964 85.4085 58.8051C81.9815 57.1921 79.8375 53.7881 77.7579 50.6293C76.5363 48.7742 74.821 46.7234 72.6081 46.9626C70.2502 47.2172 69.0716 49.8269 67.9366 51.9042C66.5352 54.4703 64.5459 56.7159 62.165 58.4197C60.5119 59.6031 58.2679 60.5296 56.5037 59.5167C55.0897 58.7047 54.1709 56.7506 52.5444 56.8857C50.6173 57.0452 50.293 59.8334 48.7598 61.0087C47.6612 61.2301 47.1437 59.6695 46.1909 59.0827C45.4224 58.6095 44.3778 58.8457 43.6686 59.403C42.9593 59.9604 42.5107 60.7754 42.0806 61.5675C40.1513 65.122 38.2227 68.6766 36.2934 72.2318C34.7091 75.1508 33.1114 78.1029 32.2438 81.3075C30.3619 88.2593 32.2031 95.9516 36.457 101.77C40.7109 107.589 47.1881 111.593 54.1346 113.558C56.942 114.352 59.2392 115.166 62.1087 115.695C63.4909 115.949 65.7741 116.499 67.1793 116.557C73.1167 116.803 79.2881 116.758 84.7318 114.02Z" stroke="black" stroke-width="2.1499" stroke-miterlimit="10" stroke-linecap="round" stroke-linejoin="round"/>
<path d="M59.7611 80.3013V93.8661" stroke="black" stroke-width="2.1499" stroke-miterlimit="10" stroke-linecap="round" stroke-linejoin="round"/>
<path d="M78.0636 80.3013V93.8661" stroke="black" stroke-width="2.1499" stroke-miterlimit="10" stroke-linecap="round" stroke-linejoin="round"/>
<path d="M56.1743 83.816H63.1001" stroke="black" stroke-width="2.1499" stroke-miterlimit="10" stroke-linecap="round" stroke-linejoin="round"/>
<path d="M74.6011 83.816H81.5269" stroke="black" stroke-width="2.1499" stroke-miterlimit="10" stroke-linecap="round" stroke-linejoin="round"/>
<path d="M15.1391 94.3843C15.1391 94.3843 24.5731 116.848 44.1445 124.43" stroke="black" stroke-miterlimit="10" stroke-linecap="round" stroke-linejoin="round"/>
<path d="M28.6361 75.5708C29.0692 72.3027 30.0398 69.0819 31.7077 66.2353C34.9178 60.7584 40.4296 57.0496 44.437 52.1227C45.1151 51.2893 46.0272 50.3178 47.0659 50.6013C47.6856 50.7703 48.0898 51.3432 48.5784 51.7588C49.067 52.1744 49.8844 52.4106 50.3012 51.9234" stroke="black" stroke-miterlimit="10" stroke-linecap="round" stroke-linejoin="round"/>
<path d="M84.6497 51.4244C85.2419 52.0496 86.2391 52.0364 87.0839 51.8614C87.9286 51.6864 88.7992 51.3941 89.6321 51.6163C90.3295 51.8023 90.8825 52.3213 91.3911 52.8314C97.2116 58.6671 101.605 65.909 104.085 73.7592" stroke="black" stroke-miterlimit="10" stroke-linecap="round" stroke-linejoin="round"/>
<path d="M35.9921 88.94C36.089 91.6567 37.1026 94.2773 38.501 96.6109C39.8995 98.9436 41.6785 101.024 43.4487 103.091" stroke="black" stroke-miterlimit="10" stroke-linecap="round" stroke-linejoin="round"/>
<path d="M68.7088 58.3983C69.5898 58.0839 70.0725 57.1382 70.3072 56.2346C70.5419 55.331 70.6263 54.3669 71.0971 53.5608C71.568 52.7547 72.617 52.1663 73.4477 52.5959C73.7719 52.7643 74.0103 53.0581 74.2221 53.3548C75.4132 55.0225 76.0677 57.0053 77.0642 58.7955C78.0607 60.5857 79.5717 62.2843 81.5898 62.6616C82.7662 62.8816 84.0374 62.6357 85.1331 63.1163C86.8632 63.8752 87.3763 66.0064 88.0559 67.7649C88.4246 68.7179 88.8984 69.6267 89.3707 70.5332C90.3872 72.4828 91.4037 74.4325 92.4209 76.3814" stroke="black" stroke-miterlimit="10" stroke-linecap="round" stroke-linejoin="round"/>
<path d="M86.4819 87.282C85.6069 90.3626 87.9508 93.5111 87.7124 96.7039C87.6109 98.0629 87.0461 99.3393 86.4894 100.584C86.1221 101.405 85.7387 102.249 85.0849 102.868C84.5904 103.337 83.9693 103.648 83.3533 103.941C81.4055 104.866 79.4022 105.677 77.3581 106.366C75.5376 106.981 73.5335 107.496 71.7249 106.847" stroke="black" stroke-miterlimit="10" stroke-linecap="round" stroke-linejoin="round"/>
<path d="M36.4148 83.2187C37.7385 79.1999 40.9693 76.1134 42.9193 72.3566C43.8514 70.5605 44.4911 68.6108 45.5875 66.91C45.8037 66.5748 46.0658 66.2286 46.45 66.1179C47.0082 65.957 47.5575 66.3467 48.1165 66.5047C49.5927 66.9211 51.0511 65.6366 51.6471 64.2266C51.8181 63.8213 51.9832 63.3569 52.3815 63.1672C53.0626 62.8424 53.7489 63.5385 54.3589 63.9822C55.4717 64.792 57.1056 64.8016 58.2279 64.0051" stroke="black" stroke-miterlimit="10" stroke-linecap="round" stroke-linejoin="round"/>
<path d="M107.08 83.0652C108.322 87.7537 107.131 92.702 105.941 97.4044" stroke="black" stroke-miterlimit="10" stroke-linecap="round" stroke-linejoin="round"/>
<path d="M95.5154 83.5406C96.7029 85.7538 97.9023 87.9965 98.5049 90.4341C100.038 96.6374 97.1042 103.673 91.6124 106.964" stroke="black" stroke-miterlimit="10" stroke-linecap="round" stroke-linejoin="round"/>
<path d="M33.7955 40.2595L35.1333 34.6432L37.104 40.1894L42.3137 41.6636L37.5267 43.2781L35.8366 48.3327L33.8658 43.7698L29.2195 41.3122L33.7955 40.2595Z" stroke="black" stroke-width="2.1499" stroke-miterlimit="10" stroke-linecap="round" stroke-linejoin="round"/>
<path d="M118.676 87.0325L119.801 82.3093L121.459 86.9741L125.84 88.2136L121.814 89.5719L120.393 93.8226L118.735 89.9846L114.827 87.9183L118.676 87.0325Z" stroke="black" stroke-width="2.1499" stroke-miterlimit="10" stroke-linecap="round" stroke-linejoin="round"/>
<path d="M48.2275 13.7936V25.0257" stroke="black" stroke-miterlimit="10" stroke-linecap="round" stroke-linejoin="round"/>
<path d="M51.3251 14.9172V26.1492" stroke="black" stroke-miterlimit="10" stroke-linecap="round" stroke-linejoin="round"/>
<path d="M89.9053 14.0749V25.3069" stroke="black" stroke-miterlimit="10" stroke-linecap="round" stroke-linejoin="round"/>
<path d="M86.6196 15.3852V26.6172" stroke="black" stroke-miterlimit="10" stroke-linecap="round" stroke-linejoin="round"/>
<path d="M56.6755 15.7595V26.9915" stroke="black" stroke-miterlimit="10" stroke-linecap="round" stroke-linejoin="round"/>
<path d="M81.2692 16.415V27.6471" stroke="black" stroke-miterlimit="10" stroke-linecap="round" stroke-linejoin="round"/>
</svg>
