<svg width="105" height="148" viewBox="0 0 105 148" fill="none" xmlns="http://www.w3.org/2000/svg">
<path d="M101.142 24.7817H3.44006V30.9484H101.142V24.7817Z" stroke="#A8452C" stroke-width="2.1499" stroke-miterlimit="10" stroke-linecap="round" stroke-linejoin="round"/>
<path d="M100.525 120.16H4.05685V126.326H100.525V120.16Z" stroke="#A8452C" stroke-width="2.1499" stroke-miterlimit="10" stroke-linecap="round" stroke-linejoin="round"/>
<path d="M96.3969 126.245H8.1814V143.838H96.3969V126.245Z" stroke="#A8452C" stroke-width="2.1499" stroke-miterlimit="10" stroke-linecap="round" stroke-linejoin="round"/>
<path d="M14.8213 23.7545C14.8213 13.0837 31.4735 4.43311 52.0154 4.43311C72.5573 4.43311 89.2095 13.0837 89.2095 23.7545" stroke="#A8452C" stroke-width="2.1499" stroke-miterlimit="10" stroke-linecap="round" stroke-linejoin="round"/>
<path d="M18.1898 119.44V95.9539C18.1898 84.6609 30.6662 75.5059 46.0561 75.5059" stroke="#A8452C" stroke-width="2.1499" stroke-miterlimit="10" stroke-linecap="round" stroke-linejoin="round"/>
<path d="M58.5044 75.5059C73.6011 75.5059 85.8402 84.4864 85.8402 95.5648V119.441" stroke="#A8452C" stroke-width="2.1499" stroke-miterlimit="10" stroke-linecap="round" stroke-linejoin="round"/>
<path d="M85.8402 31.1025V54.8362C85.8402 66.2482 73.3639 75.4995 57.974 75.4995" stroke="#A8452C" stroke-width="2.1499" stroke-miterlimit="10" stroke-linecap="round" stroke-linejoin="round"/>
<path d="M45.5256 75.5004C30.429 75.5004 18.1898 66.4249 18.1898 55.2306V31.1035" stroke="#A8452C" stroke-width="2.1499" stroke-miterlimit="10" stroke-linecap="round" stroke-linejoin="round"/>
<path d="M23.4118 51.2987C23.4118 51.2987 30.1528 52.7374 38.7084 49.86C47.2639 46.982 49.0785 45.9547 61.5229 48.6267C73.9674 51.2987 79.6708 50.4767 79.6708 50.4767C79.6708 50.4767 82.2632 68.1547 56.8563 71.6487C56.8563 71.6487 54.5229 72.4707 54.5229 75.1434C54.5229 77.8154 61.0042 81.31 56.8563 83.16C52.7084 85.01 48.0417 83.5713 50.3751 76.3767C50.3751 76.3767 50.8938 73.088 46.4862 71.8547C42.0785 70.6213 26.0042 68.5654 23.4118 51.2987Z" stroke="#A8452C" stroke-width="2.1499" stroke-miterlimit="10" stroke-linecap="round" stroke-linejoin="round"/>
<path d="M78.8931 115.226H25.2264C27.4236 112.407 28.9224 109.472 31.1189 106.653C31.4992 106.165 31.906 105.656 32.5352 105.373C33.4693 104.951 34.6508 105.128 35.6774 104.873C38.5124 104.171 38.8865 100.709 41.65 99.8461C42.3718 99.6204 43.1698 99.6093 43.918 99.4495C47.9492 98.5887 49.5584 93.8083 53.7312 93.6954C57.2747 93.5992 59.1562 96.8873 61.8916 98.6756C62.6679 99.1831 63.5491 99.5797 64.3502 100.062C65.4025 100.695 66.3055 101.469 67.2023 102.239C67.8883 102.827 68.5743 103.416 69.2603 104.004C70.8501 105.368 72.4414 106.733 73.8951 108.188C75.9196 110.215 77.4519 112.906 78.8931 115.226Z" stroke="#A8452C" stroke-width="2.1499" stroke-miterlimit="10" stroke-linecap="round" stroke-linejoin="round"/>
<path d="M63.7933 79.2544C67.3049 80.1566 70.7629 81.3258 73.6501 83.1493C76.5372 84.9728 78.8254 87.5146 79.4562 90.3988" stroke="#A8452C" stroke-width="0.9627" stroke-miterlimit="10" stroke-linecap="round" stroke-linejoin="round"/>
<path d="M80.4486 97.3433V108.834" stroke="#A8452C" stroke-width="0.9627" stroke-miterlimit="10" stroke-linecap="round" stroke-linejoin="round"/>
<path d="M29.3004 54.4074C35.371 56.3036 41.7301 58.235 48.223 57.7232C49.7451 57.603 51.2462 57.3495 52.7652 57.2101C55.832 56.9296 58.9361 57.1189 62.0161 56.9567C66.4098 56.7248 70.7404 55.7684 74.6511 54.165" stroke="#A8452C" stroke-width="0.9627" stroke-miterlimit="10" stroke-linecap="round" stroke-linejoin="round"/>
<path d="M59.3895 103.561C59.584 102.777 60.5655 102.167 61.572 102.204C62.5784 102.241 63.4845 102.922 63.5856 103.716" stroke="#A8452C" stroke-width="0.9627" stroke-miterlimit="10" stroke-linecap="round" stroke-linejoin="round"/>
<path d="M44.4616 106.502C44.3659 106.168 43.8207 106.015 43.4124 106.129C43.0041 106.243 42.7233 106.542 42.5226 106.846C42.4122 107.013 42.308 107.197 42.1057 107.297C41.8312 107.433 41.4796 107.369 41.1568 107.355C39.522 107.282 38.3358 108.522 37.4678 109.623" stroke="#A8452C" stroke-width="0.9627" stroke-miterlimit="10" stroke-linecap="round" stroke-linejoin="round"/>
<path d="M61.488 108.82C62.3249 108.406 63.5382 108.57 64.155 109.18C64.4544 109.477 64.617 109.852 64.939 110.134C65.4858 110.612 66.36 110.724 67.1346 110.921C67.9101 111.119 68.7423 111.552 68.754 112.198" stroke="#A8452C" stroke-width="0.9627" stroke-miterlimit="10" stroke-linecap="round" stroke-linejoin="round"/>
<path d="M59.9091 88.5989L57.9467 88.454L56.6828 89.6528L56.2512 88.1284L54.4218 87.5462L56.1174 86.7489L56.2504 85.1899L57.7305 86.2222L59.6415 85.8412L58.8614 87.2755L59.9091 88.5989Z" stroke="#A8452C" stroke-width="0.9627" stroke-miterlimit="10" stroke-linecap="round" stroke-linejoin="round"/>
<path d="M57.7523 100.941L55.79 100.796L54.5261 101.995L54.0944 100.47L52.2651 99.888L53.9606 99.0913L54.0936 97.5317L55.5737 98.564L57.4847 98.183L56.7039 99.6173L57.7523 100.941Z" stroke="#A8452C" stroke-width="0.9627" stroke-miterlimit="10" stroke-linecap="round" stroke-linejoin="round"/>
<path d="M44.5985 96.094L42.8602 95.3565L41.1094 96.0736L41.4563 94.5351L40.0555 93.4368L42.0077 93.2228L42.8928 91.8267L43.7523 93.2333L45.7006 93.4688L44.2796 94.5517L44.5985 96.094Z" stroke="#A8452C" stroke-width="0.9627" stroke-miterlimit="10" stroke-linecap="round" stroke-linejoin="round"/>
<path d="M63.2986 46.1283L62.8677 45.1909L61.6497 44.9412L62.6406 44.327L62.5644 43.3311L63.6074 43.8885L64.7772 43.5235L64.4318 44.4818L65.2314 45.2514L63.9745 45.2871L63.2986 46.1283Z" stroke="#A8452C" stroke-width="0.6144" stroke-miterlimit="10" stroke-linecap="round" stroke-linejoin="round"/>
<path d="M47.4887 111.436L47.0578 110.5L45.8398 110.25L46.8307 109.635L46.7545 108.64L47.7975 109.197L48.9681 108.831L48.622 109.79L49.4215 110.56L48.1646 110.595L47.4887 111.436Z" stroke="#A8452C" stroke-width="0.6144" stroke-miterlimit="10" stroke-linecap="round" stroke-linejoin="round"/>
<path d="M59.8818 61.6269L59.0908 60.8518L57.8371 60.9282L58.5223 60.0926L58.0424 59.1707L59.2573 59.4291L60.2147 58.7822L60.2801 59.7788L61.3518 60.3005L60.1774 60.6575L59.8818 61.6269Z" stroke="#A8452C" stroke-width="0.6144" stroke-miterlimit="10" stroke-linecap="round" stroke-linejoin="round"/>
<path d="M51.6491 71.0539L50.7577 69.6602L48.804 69.4518L50.2008 68.3492L49.8469 66.8118L51.6016 67.5241L53.3361 66.7822L53.0234 68.3251L54.4498 69.4043L52.5023 69.6454L51.6491 71.0539Z" stroke="#A8452C" stroke-width="0.9627" stroke-miterlimit="10" stroke-linecap="round" stroke-linejoin="round"/>
<path d="M50.9599 51.5873L49.3912 52.5333L49.4845 54.0941L47.8652 53.203L46.0211 53.7555L46.5896 52.2595L45.3568 51.0397L47.3277 51.0058L48.4096 49.6997L49.0591 51.1754L50.9599 51.5873Z" stroke="#A8452C" stroke-width="0.9627" stroke-miterlimit="10" stroke-linecap="round" stroke-linejoin="round"/>
<path d="M32.8129 60.0991C32.8308 60.9088 33.8162 61.6217 34.8351 61.5619C35.0435 61.5495 35.28 61.5162 35.4402 61.6229C35.5413 61.6901 35.5817 61.7974 35.6191 61.8973C35.784 62.3339 36.057 62.8155 36.6069 62.9475C37.1567 63.0795 37.8202 62.4961 37.4049 62.181" stroke="#A8452C" stroke-width="0.9627" stroke-miterlimit="10" stroke-linecap="round" stroke-linejoin="round"/>
<path d="M68.9173 63.1431C68.7664 63.5797 68.5191 64.0255 68.0431 64.2753C67.5671 64.5244 66.8157 64.48 66.5373 64.0853C66.2713 64.7075 65.3379 65.0954 64.5415 64.9154" stroke="#A8452C" stroke-width="0.9627" stroke-miterlimit="10" stroke-linecap="round" stroke-linejoin="round"/>
<path d="M47.1551 59.9878C47.3884 60.3991 47.6676 60.8468 48.1934 61.0182C48.7192 61.1897 49.4853 60.8314 49.3103 60.4022" stroke="#A8452C" stroke-width="0.9627" stroke-miterlimit="10" stroke-linecap="round" stroke-linejoin="round"/>
<path d="M82.4467 50.0663V38.9663" stroke="#A8452C" stroke-width="0.9627" stroke-miterlimit="10" stroke-linecap="round" stroke-linejoin="round"/>
<path d="M82.4467 36.3456V33.8789" stroke="#A8452C" stroke-width="0.9627" stroke-miterlimit="10" stroke-linecap="round" stroke-linejoin="round"/>
<path d="M22.5578 111.733V95.8541C22.5578 95.8541 22.5578 85.9875 32.8634 82.1333" stroke="#A8452C" stroke-width="0.9627" stroke-miterlimit="10" stroke-linecap="round" stroke-linejoin="round"/>
<path d="M21.1967 34.1875V43.4375" stroke="#A8452C" stroke-width="0.9627" stroke-miterlimit="10" stroke-linecap="round" stroke-linejoin="round"/>
<path d="M21.5856 57.7749C21.5856 57.7749 23.919 66.5624 32.4745 69.9541" stroke="#A8452C" stroke-width="0.9627" stroke-miterlimit="10" stroke-linecap="round" stroke-linejoin="round"/>
<path d="M93.3356 31.0825V56.903C93.3356 56.903 89.8356 61.1475 93.3356 66.8066C93.3356 66.8066 89.4467 71.0511 93.3356 75.2957" stroke="#A8452C" stroke-width="2.1499" stroke-miterlimit="10" stroke-linecap="round" stroke-linejoin="round"/>
<path d="M98.8018 31.0825V56.903C98.8018 56.903 102.302 61.1475 98.8018 66.8066C98.8018 66.8066 102.691 71.0511 98.8018 75.2957" stroke="#A8452C" stroke-width="2.1499" stroke-miterlimit="10" stroke-linecap="round" stroke-linejoin="round"/>
<path d="M98.8664 119.574V93.7535C98.8664 93.7535 102.366 89.509 98.8664 83.8499C98.8664 83.8499 102.755 79.6054 98.8664 75.3608" stroke="#A8452C" stroke-width="2.1499" stroke-miterlimit="10" stroke-linecap="round" stroke-linejoin="round"/>
<path d="M93.4002 119.574V93.7535C93.4002 93.7535 89.9002 89.509 93.4002 83.8499C93.4002 83.8499 89.5113 79.6054 93.4002 75.3608" stroke="#A8452C" stroke-width="2.1499" stroke-miterlimit="10" stroke-linecap="round" stroke-linejoin="round"/>
<path d="M5.94373 31.0825V56.903C5.94373 56.903 2.44373 61.1475 5.94373 66.8066C5.94373 66.8066 2.05484 71.0511 5.94373 75.2957" stroke="#A8452C" stroke-width="2.1499" stroke-miterlimit="10" stroke-linecap="round" stroke-linejoin="round"/>
<path d="M11.4099 31.0825V56.903C11.4099 56.903 14.9099 61.1475 11.4099 66.8066C11.4099 66.8066 15.2988 71.0511 11.4099 75.2957" stroke="#A8452C" stroke-width="2.1499" stroke-miterlimit="10" stroke-linecap="round" stroke-linejoin="round"/>
<path d="M11.4745 119.574V93.7535C11.4745 93.7535 14.9745 89.509 11.4745 83.8499C11.4745 83.8499 15.3634 79.6054 11.4745 75.3608" stroke="#A8452C" stroke-width="2.1499" stroke-miterlimit="10" stroke-linecap="round" stroke-linejoin="round"/>
<path d="M6.00827 119.574V93.7535C6.00827 93.7535 2.50827 89.509 6.00827 83.8499C6.00827 83.8499 2.11938 79.6054 6.00827 75.3608" stroke="#A8452C" stroke-width="2.1499" stroke-miterlimit="10" stroke-linecap="round" stroke-linejoin="round"/>
<path d="M32.1292 48.2165V34.4438" stroke="#A8452C" stroke-width="0.9627" stroke-miterlimit="10" stroke-linecap="round" stroke-linejoin="round"/>
<path d="M27.3326 41.3301H36.925" stroke="#A8452C" stroke-width="0.9627" stroke-miterlimit="10" stroke-linecap="round" stroke-linejoin="round"/>
<path d="M29.0181 44.0022L35.2403 38.6582" stroke="#A8452C" stroke-width="0.9627" stroke-miterlimit="10" stroke-linecap="round" stroke-linejoin="round"/>
<path d="M29.3634 38.9663L35.1967 43.8996" stroke="#A8452C" stroke-width="0.9627" stroke-miterlimit="10" stroke-linecap="round" stroke-linejoin="round"/>
<path d="M72.5736 100.633V86.8604" stroke="#A8452C" stroke-width="0.9627" stroke-miterlimit="10" stroke-linecap="round" stroke-linejoin="round"/>
<path d="M67.7771 93.7466H77.3694" stroke="#A8452C" stroke-width="0.9627" stroke-miterlimit="10" stroke-linecap="round" stroke-linejoin="round"/>
<path d="M69.4625 96.4187L75.6847 91.0747" stroke="#A8452C" stroke-width="0.9627" stroke-miterlimit="10" stroke-linecap="round" stroke-linejoin="round"/>
<path d="M69.8078 91.3828L75.6412 96.3161" stroke="#A8452C" stroke-width="0.9627" stroke-miterlimit="10" stroke-linecap="round" stroke-linejoin="round"/>
<path d="M64.2335 8.75C64.2335 8.75 78.3634 11.422 82.7703 19.3363" stroke="#A8452C" stroke-width="2.719" stroke-miterlimit="10" stroke-linecap="round" stroke-linejoin="round"/>
<path d="M84.1967 21.8022V24.4749" stroke="#A8452C" stroke-width="2.719" stroke-miterlimit="10" stroke-linecap="round" stroke-linejoin="round"/>
</svg>
