<svg width="93" height="158" viewBox="0 0 93 158" fill="none" xmlns="http://www.w3.org/2000/svg">
<path d="M56.2536 8.85531C56.2536 10.096 51.7722 11.1022 46.2445 11.1022C40.7168 11.1022 36.2354 10.096 36.2354 8.85531C36.2354 7.61458 40.7168 6.6084 46.2445 6.6084C51.7722 6.6084 56.2536 7.61397 56.2536 8.85531Z" stroke="#A8452C" stroke-width="2.1499" stroke-miterlimit="10" stroke-linecap="round" stroke-linejoin="round"/>
<path d="M36.2354 8.85498V22.2286C36.2354 22.2286 36.3931 25.6054 41.4575 25.4382L52.5245 25.4762C52.5245 25.4762 56.7327 24.4419 56.2536 22.4424V8.85498" stroke="#A8452C" stroke-width="2.1499" stroke-miterlimit="10" stroke-linecap="round" stroke-linejoin="round"/>
<path d="M35.2199 18.5904C35.2199 18.5904 24.5573 18.4299 25.2107 23.726C25.8634 29.022 38.2665 28.7011 38.2665 28.7011" stroke="#A8452C" stroke-width="2.1499" stroke-miterlimit="10" stroke-linecap="round" stroke-linejoin="round"/>
<path d="M56.7326 18.7515C56.7326 18.7515 67.3952 18.591 66.7417 23.8871C66.0891 29.1832 53.686 28.8623 53.686 28.8623" stroke="#A8452C" stroke-width="2.1499" stroke-miterlimit="10" stroke-linecap="round" stroke-linejoin="round"/>
<path d="M33.5873 28.5801L31.9199 133.561C31.9199 133.561 31.8336 149.755 49.193 151.048C49.193 151.048 64.6235 152.213 64.8776 134.204L59.6123 28.6762" stroke="#A8452C" stroke-width="2.1499" stroke-miterlimit="10" stroke-linecap="round" stroke-linejoin="round"/>
<path d="M48.8253 64.9488C47.5282 65.2654 46.3383 65.9231 44.9724 65.9121C44.0507 65.9048 43.134 65.5857 42.233 65.7302C41.5156 65.8447 40.9443 66.233 40.4121 66.6054C39.0378 67.5668 37.5698 68.6704 37.4685 70.0648C37.4568 70.2228 37.4718 70.3961 37.6146 70.5137C37.7375 70.6141 37.9285 70.6515 38.1087 70.6766C40.5507 71.0232 43.0103 70.2124 45.4947 70.1469C46.7884 70.1126 48.092 70.2841 49.2894 70.6466C49.9305 70.8407 50.5682 71.093 51.2607 71.0967C52.3784 71.1022 53.2909 70.4727 54.0748 69.8848C54.7822 69.3538 55.4897 68.8235 56.1972 68.2925C56.7219 67.8987 57.2883 67.4174 57.177 66.8717C56.8 65.0241 50.5923 64.5177 48.8253 64.9488Z" stroke="#A8452C" stroke-width="2.1499" stroke-miterlimit="10" stroke-linecap="round" stroke-linejoin="round"/>
<path d="M37.4685 70.0647L37.3099 131.829C37.3099 131.829 36.7436 144.841 49.5435 145.617C49.5435 145.617 61.1013 146.597 59.928 131.6L57.177 66.8716" stroke="#A8452C" stroke-width="2.1499" stroke-miterlimit="10" stroke-linecap="round" stroke-linejoin="round"/>
<path d="M28.8818 45.3916V56.2366" stroke="#A8452C" stroke-miterlimit="10" stroke-linecap="round" stroke-linejoin="round"/>
<path d="M29.5618 22.5186C29.316 23.2957 29.9562 24.1071 30.8414 24.567C31.7265 25.0263 32.8135 25.2088 33.8697 25.3815" stroke="#A8452C" stroke-miterlimit="10" stroke-linecap="round" stroke-linejoin="round"/>
<path d="M58.6367 26.0937C59.6929 25.6773 60.8039 25.2229 61.3993 24.4568C61.9955 23.69 61.8012 22.5204 60.7043 22.1646" stroke="#A8452C" stroke-miterlimit="10" stroke-linecap="round" stroke-linejoin="round"/>
<path d="M50.4204 11.6812V24.7872" stroke="#A8452C" stroke-miterlimit="10" stroke-linecap="round" stroke-linejoin="round"/>
<path d="M46.9138 11.6812V24.7872" stroke="#A8452C" stroke-miterlimit="10" stroke-linecap="round" stroke-linejoin="round"/>
<path d="M27.5083 138.59C27.5083 138.59 29.8466 149.281 40.1331 152.557" stroke="#A8452C" stroke-miterlimit="10" stroke-linecap="round" stroke-linejoin="round"/>
<path d="M66.3184 67.3765L67.2542 87.5509" stroke="#A8452C" stroke-miterlimit="10" stroke-linecap="round" stroke-linejoin="round"/>
<path d="M50.5682 57.8361C50.2187 57.4129 50.4254 56.8293 50.902 56.4796C51.3778 56.13 52.0579 55.975 52.7238 55.9064C53.2221 55.855 53.7419 55.8464 54.2143 55.9726C55.009 56.1851 55.5603 56.7717 55.6733 57.3897C55.7522 57.822 55.5944 58.3193 55.092 58.5496C54.4061 58.8643 53.511 58.5367 52.7097 58.6151C52.0654 58.6776 50.9128 58.2532 50.5682 57.8361Z" stroke="#A8452C" stroke-width="2.1499" stroke-miterlimit="10" stroke-linecap="round" stroke-linejoin="round"/>
<path d="M41.8105 47.0391C41.2367 47.1138 40.6995 47.3973 40.5002 47.8015C40.3009 48.2051 40.5035 48.7146 41.0109 48.9253C41.2301 49.0165 41.4834 49.0496 41.7333 49.0698C42.298 49.1151 42.8809 49.0992 43.4148 48.9559C43.9479 48.8126 44.4286 48.5303 44.6578 48.1475C44.8264 47.8677 44.853 47.5517 44.8239 47.2461C44.8081 47.0844 44.7741 46.9166 44.6462 46.7849C44.4693 46.6024 44.1413 46.5271 43.8374 46.5394C43.5335 46.5516 43.2454 46.638 42.9639 46.7231C42.5313 46.8541 42.0987 46.9846 41.6669 47.1156" stroke="#A8452C" stroke-width="2.1499" stroke-miterlimit="10" stroke-linecap="round" stroke-linejoin="round"/>
<path d="M49.4232 39.4805C48.729 39.1027 48.5006 38.3292 48.9191 37.7726C49.3376 37.2165 50.349 36.9501 51.1511 37.1853C51.382 37.2532 51.5912 37.3549 51.7947 37.4602C52.537 37.8424 53.2353 38.2723 53.878 38.7426C54.2276 38.9986 54.568 39.2736 54.7615 39.6079C54.9542 39.9423 54.9783 40.3495 54.7109 40.6545C54.3704 41.0428 53.6879 41.1622 53.0726 41.2492C52.7786 41.2908 52.478 41.3325 52.1824 41.2975C51.8868 41.2626 51.5937 41.1353 51.4866 40.9295C51.2524 40.4812 51.7606 40.134 51.2433 39.8327C50.858 39.6079 49.9288 39.7555 49.4232 39.4805Z" stroke="#A8452C" stroke-width="2.1499" stroke-miterlimit="10" stroke-linecap="round" stroke-linejoin="round"/>
<path d="M49.684 78.9675L51.6727 79.6718L53.5875 78.8628L53.2935 80.4758L54.9293 81.5684L52.7588 81.8611L51.8545 83.3456L50.8066 81.9132L48.6128 81.7386L50.1357 80.5604L49.684 78.9675Z" stroke="#A8452C" stroke-width="2.1499" stroke-miterlimit="10" stroke-linecap="round" stroke-linejoin="round"/>
<path d="M41.5006 103.28L43.4901 103.984L45.4041 103.175L45.111 104.788L46.746 105.88L44.5754 106.173L43.672 107.658L42.6232 106.226L40.4294 106.051L41.9523 104.873L41.5006 103.28Z" stroke="#A8452C" stroke-width="2.1499" stroke-miterlimit="10" stroke-linecap="round" stroke-linejoin="round"/>
<path d="M50.7001 131.161L52.6896 131.866L54.6036 131.057L54.3105 132.669L55.9454 133.762L53.7749 134.054L52.8714 135.539L51.8227 134.107L49.6289 133.932L51.1518 132.754L50.7001 131.161Z" stroke="#A8452C" stroke-width="2.1499" stroke-miterlimit="10" stroke-linecap="round" stroke-linejoin="round"/>
<path d="M53.6345 114.254H53.6355C53.6373 114.253 53.6401 114.253 53.6423 114.251C53.6622 114.237 53.7253 114.175 53.7253 114.062C53.7253 113.949 53.6625 113.889 53.6423 113.874C53.6396 113.872 53.6367 113.87 53.6345 113.869M53.6345 114.254V113.869M53.6345 114.254C53.6326 114.253 53.63 114.252 53.6277 114.25C53.6118 114.239 53.5729 114.201 53.5544 114.136L53.5437 114.062C53.5438 113.949 53.6079 113.888 53.6277 113.874C53.6303 113.872 53.6325 113.87 53.6345 113.869M53.6345 114.254V113.869" fill="black" stroke="#A8452C"/>
<path d="M45.5684 138.438H45.5693C45.5711 138.436 45.574 138.436 45.5762 138.435C45.596 138.42 45.6592 138.358 45.6592 138.245C45.6591 138.132 45.5963 138.072 45.5762 138.057C45.5734 138.055 45.5705 138.053 45.5684 138.052M45.5684 138.438V138.052M45.5684 138.438C45.5664 138.436 45.5639 138.435 45.5615 138.434C45.5462 138.422 45.5069 138.386 45.4883 138.32L45.4775 138.245C45.4776 138.132 45.5417 138.071 45.5615 138.057C45.5641 138.055 45.5663 138.053 45.5684 138.052M45.5684 138.438V138.052" fill="black" stroke="#A8452C"/>
<path d="M45.2761 121.108H45.2771C45.2789 121.107 45.2817 121.107 45.2839 121.105C45.3038 121.091 45.3669 121.029 45.3669 120.916C45.3669 120.803 45.3041 120.743 45.2839 120.728C45.2812 120.726 45.2783 120.724 45.2761 120.723M45.2761 121.108V120.723M45.2761 121.108C45.2742 121.107 45.2717 121.106 45.2693 121.104C45.2539 121.093 45.2147 121.056 45.196 120.991L45.1853 120.916C45.1854 120.803 45.2495 120.742 45.2693 120.728C45.2719 120.726 45.2741 120.724 45.2761 120.723M45.2761 121.108V120.723" fill="black" stroke="#A8452C"/>
<path d="M46.5625 85.5469V85.9336C46.5646 85.9323 46.5676 85.9317 46.5703 85.9297C46.5901 85.9151 46.6533 85.8536 46.6533 85.7402C46.6533 85.6276 46.5905 85.5668 46.5703 85.5518C46.5676 85.5497 46.5646 85.5482 46.5625 85.5469ZM46.5625 85.5469C46.5605 85.5482 46.5583 85.5499 46.5557 85.5518C46.5358 85.5664 46.4717 85.627 46.4717 85.7402L46.4824 85.8154C46.5012 85.8812 46.5408 85.9187 46.5557 85.9297C46.5579 85.9313 46.5607 85.9315 46.5625 85.9326V85.5469Z" fill="black" stroke="#A8452C"/>
<path d="M53.4011 94.082V94.4688C53.4032 94.4674 53.4063 94.4668 53.4089 94.4648C53.4288 94.4502 53.4919 94.3887 53.4919 94.2754C53.4919 94.1628 53.4291 94.102 53.4089 94.0869C53.4062 94.0849 53.4033 94.0834 53.4011 94.082ZM53.4011 94.082C53.3991 94.0833 53.3969 94.085 53.3943 94.0869C53.3745 94.1015 53.3104 94.1621 53.3103 94.2754L53.321 94.3506C53.3398 94.4164 53.3794 94.4539 53.3943 94.4648C53.3965 94.4665 53.3993 94.4666 53.4011 94.4678V94.082Z" fill="black" stroke="#A8452C"/>
<path d="M37.7375 83.8428C39.2604 81.5683 41.5555 79.3667 44.8429 78.6221C45.3503 78.5069 45.8834 78.4261 46.3284 78.213C47.51 77.649 47.6429 76.4217 48.4259 75.5588C50.3133 73.4785 55.3079 74.0394 57.0309 71.8838" stroke="#A8452C" stroke-width="2.1499" stroke-miterlimit="10" stroke-linecap="round" stroke-linejoin="round"/>
<path d="M37.7515 95.3424C40.0034 94.5157 41.542 93.7067 43.7931 92.8794C44.6783 92.5542 45.5851 92.2174 46.2502 91.6785C47.3014 90.8266 47.6211 89.5755 48.728 88.7634C49.6007 88.1234 50.8362 87.8479 51.88 87.3665C53.818 86.4724 55.3235 84.7969 57.6095 84.7632" stroke="#A8452C" stroke-width="2.1499" stroke-miterlimit="10" stroke-linecap="round" stroke-linejoin="round"/>
<path d="M47.1687 103.817C48.3428 103.29 49.5859 102.705 50.1331 101.774C50.3266 101.445 50.4229 101.085 50.657 100.77C51.4625 99.6861 53.5309 99.5104 54.6486 98.5887C54.9076 98.375 55.1086 98.1257 55.3793 97.92C56.0585 97.4025 57.0707 97.2255 58.0248 97.0718" stroke="#A8452C" stroke-width="2.1499" stroke-miterlimit="10" stroke-linecap="round" stroke-linejoin="round"/>
<path d="M38.0215 118.325C38.7489 118.23 39.4613 118.074 40.1406 117.86C41.5048 117.43 42.7138 116.776 43.9087 116.128C44.7357 115.679 45.5935 115.203 46.0436 114.523C46.2005 114.285 46.3068 114.024 46.531 113.817C46.7776 113.589 47.1413 113.45 47.4992 113.327C48.9515 112.825 50.5682 112.413 51.5372 111.47C51.92 111.097 52.1782 110.659 52.5884 110.302C52.9804 109.96 53.4952 109.707 54.0233 109.486C55.3818 108.918 56.8797 108.531 58.4217 108.349" stroke="#A8452C" stroke-width="2.1499" stroke-miterlimit="10" stroke-linecap="round" stroke-linejoin="round"/>
<path d="M37.656 131.414C40.1753 130.72 42.8017 129.913 44.4226 128.33C44.9739 127.792 45.3891 127.179 45.9911 126.672C47.5871 125.326 50.2575 124.898 51.8684 123.562C52.174 123.308 52.4389 123.024 52.7959 122.81C53.7458 122.239 55.0968 122.286 56.2942 122.096C56.545 122.057 56.7999 122.003 56.9975 121.883C57.176 121.774 57.2915 121.621 57.4368 121.488C57.8005 121.157 58.3734 120.956 58.9513 120.956" stroke="#A8452C" stroke-width="2.1499" stroke-miterlimit="10" stroke-linecap="round" stroke-linejoin="round"/>
<path d="M44.0132 144.056C45.2313 143.786 46.4162 143.435 47.548 143.006C47.984 142.842 48.4232 142.658 48.7238 142.373C49.2693 141.856 49.2536 141.107 49.7858 140.583C50.1064 140.267 50.5904 140.068 51.0588 139.878C52.144 139.438 53.2302 138.998 54.3154 138.559" stroke="#A8452C" stroke-width="2.1499" stroke-miterlimit="10" stroke-linecap="round" stroke-linejoin="round"/>
<path d="M64.4485 30.6489L74.6187 39.7015" stroke="#A8452C" stroke-width="2.1499" stroke-miterlimit="10" stroke-linecap="round" stroke-linejoin="round"/>
<path d="M29.3782 30.6489L19.208 39.7015" stroke="#A8452C" stroke-width="2.1499" stroke-miterlimit="10" stroke-linecap="round" stroke-linejoin="round"/>
<path d="M30.3141 14.5266L19.0918 4.18066" stroke="#A8452C" stroke-width="2.1499" stroke-miterlimit="10" stroke-linecap="round" stroke-linejoin="round"/>
<path d="M61.4092 14.5266L72.6315 4.18066" stroke="#A8452C" stroke-width="2.1499" stroke-miterlimit="10" stroke-linecap="round" stroke-linejoin="round"/>
<path d="M4.82959 23.5791H20.4943" stroke="#A8452C" stroke-width="2.1499" stroke-miterlimit="10" stroke-linecap="round" stroke-linejoin="round"/>
<path d="M71.6958 23.2344H87.3605" stroke="#A8452C" stroke-width="2.1499" stroke-miterlimit="10" stroke-linecap="round" stroke-linejoin="round"/>
</svg>
