<svg width="131" height="148" viewBox="0 0 131 148" fill="none" xmlns="http://www.w3.org/2000/svg">
<path d="M55.3422 17.7531V3.94727L76.8742 10.0617V18.6543L55.3422 17.7531Z" stroke="#A8452C" stroke-width="2.1499" stroke-miterlimit="10" stroke-linecap="round" stroke-linejoin="round"/>
<path d="M55.3422 14.7485C55.3422 14.7485 42.9007 14.7711 40.03 18.9138C37.1594 23.0564 55.3422 22.9861 55.3422 22.9861" stroke="#A8452C" stroke-width="2.1499" stroke-miterlimit="10" stroke-linecap="round" stroke-linejoin="round"/>
<path d="M51.3388 22.8818V35.2853L41.1461 40.6239L5.0993 141.965H66.1078" stroke="#A8452C" stroke-width="2.1499" stroke-miterlimit="10" stroke-linecap="round" stroke-linejoin="round"/>
<path d="M80.8767 22.8818V35.2853L91.0703 40.6239L127.117 141.965H66.1078" stroke="#A8452C" stroke-width="2.1499" stroke-miterlimit="10" stroke-linecap="round" stroke-linejoin="round"/>
<path d="M76.8742 14.5356C76.8742 14.5356 89.3148 14.5582 92.1864 18.7009C95.0579 22.8436 76.8742 22.7732 76.8742 22.7732" stroke="#A8452C" stroke-width="2.1499" stroke-miterlimit="10" stroke-linecap="round" stroke-linejoin="round"/>
<path d="M76.1659 51.2093C76.0987 50.3744 76.1686 49.5109 76.6201 48.7477C77.8419 46.6823 81.6147 46.0591 84.3211 47.0062C87.0276 47.9533 88.7612 50.0286 89.7943 52.153C90.4196 53.4386 90.8467 54.8369 90.4615 56.1762C89.7122 58.7832 85.5691 60.4629 82.3736 59.407C78.682 58.1872 76.3921 54.0279 76.1659 51.2093Z" stroke="#A8452C" stroke-width="2.1499" stroke-miterlimit="10" stroke-linecap="round" stroke-linejoin="round"/>
<path d="M79.337 85.3547C78.4217 85.3746 77.4707 85.293 76.6856 84.9366C75.8734 84.5676 75.3205 83.9417 74.9188 83.2907C73.5529 81.0733 73.7188 78.4438 74.7572 76.1263C75.7947 73.8087 77.634 71.7507 79.5702 69.7935C81.185 68.1608 82.8827 66.5753 84.6573 65.0415C86.259 63.6578 88.1821 62.2202 90.6047 62.1346C92.8597 62.055 94.9478 63.2456 96.0247 64.7535C97.1015 66.2614 97.332 68.0327 97.3268 69.7483C97.3067 76.2358 88.6485 85.1556 79.337 85.3547Z" stroke="#A8452C" stroke-width="2.1499" stroke-miterlimit="10" stroke-linecap="round" stroke-linejoin="round"/>
<path d="M59.3377 65.77C58.7883 63.1897 58.6399 60.4327 60.121 58.074C61.6022 55.7147 65.1401 53.9367 68.4649 54.605C70.629 55.0397 72.3032 56.4062 73.2603 57.944C74.2166 59.4824 74.5572 61.1933 74.8646 62.8784C75.2533 65.0154 75.607 67.1644 75.5747 69.3214C75.5537 70.6932 75.3677 72.0916 74.6341 73.3452C73.9005 74.5989 72.5486 75.6986 70.8115 76.073C63.4022 77.6718 60.1568 69.6207 59.3377 65.77Z" stroke="#A8452C" stroke-width="2.1499" stroke-miterlimit="10" stroke-linecap="round" stroke-linejoin="round"/>
<path d="M86.2215 102.826C84.2443 100.202 85.2958 96.8937 86.7018 94.0652C88.6747 90.0964 91.2537 86.3015 94.3706 82.7813C94.6728 82.4402 94.9889 82.0944 95.4299 81.8575C96.5679 81.2456 98.2421 81.5608 99.2368 82.3035C100.232 83.0461 100.691 84.102 101.028 85.1301C102.781 90.4627 102.067 96.1989 99.1792 101.228C97.9058 103.444 97.1146 105.251 93.6352 105.535C90.7934 105.768 87.6634 104.74 86.2215 102.826Z" stroke="#A8452C" stroke-width="2.1499" stroke-miterlimit="10" stroke-linecap="round" stroke-linejoin="round"/>
<path d="M54.7684 57.346C53.3964 58.2467 51.9117 59.1406 50.1371 59.4227C48.3634 59.7047 46.2342 59.1751 45.5442 57.9009C45.0464 56.9823 45.3888 55.9337 45.8159 54.9946C46.8935 52.6213 48.4795 50.3814 50.4926 48.391C51.4139 47.4798 52.4602 46.5991 53.8147 46.0868C56.7465 44.9771 60.7673 46.1252 62.0109 48.4275C63.7139 51.578 57.5272 55.5335 54.7684 57.346Z" stroke="#A8452C" stroke-width="2.1499" stroke-miterlimit="10" stroke-linecap="round" stroke-linejoin="round"/>
<path d="M46.1486 88.5533C43.5225 88.0111 41.361 86.3307 40.7069 84.3231C40.3479 83.2194 40.4195 82.0632 40.5235 80.929C40.885 76.9602 41.5968 73.0093 42.6535 69.1129C43.1845 67.1557 43.9827 65.0127 46.2158 63.9568C48.4865 62.883 51.6148 63.3721 53.6567 64.6855C55.6976 65.9989 56.819 67.9634 57.4897 69.9312C59.3132 75.2771 57.9351 90.9857 46.1486 88.5533Z" stroke="#A8452C" stroke-width="2.1499" stroke-miterlimit="10" stroke-linecap="round" stroke-linejoin="round"/>
<path d="M59.6259 83.9895C57.9307 85.7682 57.6093 88.1508 58.2303 90.2958C58.8512 92.4408 60.3219 94.388 61.962 96.1965C64.003 98.4477 66.437 100.607 69.6727 101.802C72.9084 102.997 77.0978 103.026 79.8514 101.266C80.4025 100.914 80.8898 100.495 81.2138 100.007C82.5613 97.9778 80.8059 95.5946 79.0418 93.7589C75.531 90.1053 66.1209 77.1722 59.6259 83.9895Z" stroke="#A8452C" stroke-width="2.1499" stroke-miterlimit="10" stroke-linecap="round" stroke-linejoin="round"/>
<path d="M41.5837 93.4912C39.2423 94.3918 37.2625 95.7636 35.5629 97.2828C34.4407 98.2856 33.3735 99.4995 33.5726 100.807C33.8739 102.788 36.8773 103.853 39.4982 103.948C43.1094 104.079 46.8779 102.996 49.0804 100.816C50.8917 99.0243 51.8655 95.6614 49.9223 93.683C47.9381 91.6621 44.2945 92.4486 41.5837 93.4912Z" stroke="#A8452C" stroke-width="2.1499" stroke-miterlimit="10" stroke-linecap="round" stroke-linejoin="round"/>
<path d="M62.0747 124.198C56.8967 124.495 51.3004 123.963 47.3521 121.4C45.0124 119.881 43.3828 117.411 44.3679 115.195C45.0342 113.696 46.7294 112.618 48.3643 111.638C54.0366 108.241 60.4241 104.916 67.6448 104.807C69.9661 104.772 72.2796 105.079 74.5197 105.543C76.9249 106.043 79.3091 106.745 81.2287 107.955C83.1474 109.164 84.5561 110.945 84.5613 112.839C84.584 121.017 70.2666 123.728 62.0747 124.198Z" stroke="#A8452C" stroke-width="2.1499" stroke-miterlimit="10" stroke-linecap="round" stroke-linejoin="round"/>
<path d="M87.6904 120.392C89.0327 124.582 92.547 128.176 96.3949 131.345C98.6053 133.165 101.622 135.036 104.764 134.381C106.547 134.008 107.914 132.846 108.583 131.536C109.252 130.226 109.309 128.781 109.168 127.379C108.619 121.889 105.198 116.751 100.735 112.412C92.1802 104.095 85.3385 113.051 87.6904 120.392Z" stroke="#A8452C" stroke-width="2.1499" stroke-miterlimit="10" stroke-linecap="round" stroke-linejoin="round"/>
<path d="M63.6484 126.947C58.7796 126.89 53.5702 126.905 49.5249 128.964C48.3013 129.587 47.1721 130.463 46.9398 131.568C46.6682 132.855 47.7232 134.143 49.1563 134.858C50.5895 135.573 52.3361 135.817 54.0409 135.957C61.3192 136.556 68.643 135.552 75.8445 134.551C78.2768 134.213 80.7728 133.857 82.8766 132.871C83.439 132.608 83.9805 132.291 84.3211 131.859C89.293 125.557 66.0614 126.976 63.6484 126.947Z" stroke="#A8452C" stroke-width="2.1499" stroke-miterlimit="10" stroke-linecap="round" stroke-linejoin="round"/>
<path d="M38.2729 129.109C36.4712 131.066 33.3411 132.444 30.2295 132.106C25.8191 131.626 23.0638 127.903 23.2236 124.519C23.3834 121.135 25.6733 118.05 27.902 115.118C28.4845 114.352 29.0671 113.586 29.6496 112.82C30.4827 111.725 31.3473 110.601 32.6582 109.821C33.9699 109.042 35.852 108.679 37.3244 109.27C38.6152 109.788 39.2929 110.883 39.782 111.928C42.1784 117.056 42.5924 124.416 38.2729 129.109Z" stroke="#A8452C" stroke-width="2.1499" stroke-miterlimit="10" stroke-linecap="round" stroke-linejoin="round"/>
<path d="M12.4362 136.137L28.3858 88.8076" stroke="#A8452C" stroke-miterlimit="10" stroke-linecap="round" stroke-linejoin="round"/>
<path d="M104.309 65.3726L115.155 95.4192" stroke="#A8452C" stroke-miterlimit="10" stroke-linecap="round" stroke-linejoin="round"/>
<path d="M76.8742 25.8076V35.2856" stroke="#A8452C" stroke-miterlimit="10" stroke-linecap="round" stroke-linejoin="round"/>
<path d="M107.818 137.375H120.259L111.646 109.167" stroke="#A8452C" stroke-miterlimit="10" stroke-linecap="round" stroke-linejoin="round"/>
<path d="M47.532 32.2729L35.604 38.3078L25.5153 70.9348" stroke="#A8452C" stroke-miterlimit="10" stroke-linecap="round" stroke-linejoin="round"/>
<path d="M58.9901 48.3765C59.6259 49.7456 58.7744 51.2621 57.6347 52.4276C55.5265 54.5845 52.3519 56.1242 48.89 56.6698" stroke="#A8452C" stroke-miterlimit="10" stroke-linecap="round" stroke-linejoin="round"/>
<path d="M68.5426 73.7215C66.2606 73.2457 64.7261 71.6097 63.817 69.9492C62.5742 67.6788 62.1489 65.2066 61.7341 62.7682C61.5105 61.4495 61.4319 59.8553 62.8502 59.0762" stroke="#A8452C" stroke-miterlimit="10" stroke-linecap="round" stroke-linejoin="round"/>
<path d="M43.4666 79.1917C43.0317 80.6949 43.3574 82.317 44.3626 83.6536C45.1853 84.748 46.6036 85.6944 48.2612 85.7256C49.6131 85.7508 50.8882 85.1548 51.7344 84.3531C52.5807 83.5514 53.0567 82.5632 53.4348 81.577C54.9081 77.7349 55.0872 73.6109 53.9501 69.7031" stroke="#A8452C" stroke-miterlimit="10" stroke-linecap="round" stroke-linejoin="round"/>
<path d="M37.0118 100.022C37.8388 100.882 39.4004 101.19 40.7846 101.024C42.1688 100.859 43.4133 100.297 44.5696 99.6962C46.2682 98.8128 48.0516 97.4125 47.4603 95.9146" stroke="#A8452C" stroke-miterlimit="10" stroke-linecap="round" stroke-linejoin="round"/>
<path d="M60.6285 89.0938C62.7123 91.9794 65.3515 94.6335 68.4343 96.9451C69.7504 97.9319 71.2211 98.8876 73.0132 99.2341C74.8053 99.5805 76.986 99.1352 77.8375 97.8875" stroke="#A8452C" stroke-miterlimit="10" stroke-linecap="round" stroke-linejoin="round"/>
<path d="M35.6345 127.366C34.735 128.282 33.2084 128.821 31.7063 128.754C30.2042 128.685 28.7728 128.012 28.0234 127.021C27.5606 126.409 27.3545 125.706 27.2243 125.007C26.6776 122.078 27.5274 118.836 30.3649 116.81" stroke="#A8452C" stroke-miterlimit="10" stroke-linecap="round" stroke-linejoin="round"/>
<path d="M47.2734 115.978C50.2559 119.059 55.626 120.382 60.6538 120.22C65.6816 120.058 70.4744 118.625 75.0926 117.105C76.2786 116.715 77.4873 116.305 78.4209 115.626C80.5204 114.098 80.6164 111.262 78.6217 109.654" stroke="#A8452C" stroke-miterlimit="10" stroke-linecap="round" stroke-linejoin="round"/>
<path d="M92.9025 65.5605C94.34 67.3259 93.7418 69.6302 92.7147 71.5542C90.9602 74.8421 88.0764 77.7769 84.4259 79.9889C82.9369 80.8915 81.1867 81.7058 79.2828 81.6607C78.8392 81.6501 78.2497 81.3713 78.4968 81.0913" stroke="#A8452C" stroke-miterlimit="10" stroke-linecap="round" stroke-linejoin="round"/>
<path d="M79.4008 49.8433C79.6139 51.6982 80.3073 53.52 81.4295 55.1752C82.2941 56.4508 84.0006 57.7875 85.777 57.3003" stroke="#A8452C" stroke-miterlimit="10" stroke-linecap="round" stroke-linejoin="round"/>
<path d="M97.981 114.797C100.174 116.356 101.649 118.395 103.086 120.398C104.331 122.132 105.602 123.928 105.845 125.894C106.089 127.861 105.036 130.06 102.694 130.917" stroke="#A8452C" stroke-miterlimit="10" stroke-linecap="round" stroke-linejoin="round"/>
<path d="M51.2838 131.497C52.1956 133.166 55.0531 133.532 57.4312 133.565C63.6624 133.652 69.9076 133.124 75.9616 131.998" stroke="#A8452C" stroke-miterlimit="10" stroke-linecap="round" stroke-linejoin="round"/>
<path d="M5.0993 145.254H60.6285" stroke="#A8452C" stroke-miterlimit="10" stroke-linecap="round" stroke-linejoin="round"/>
<path d="M85.6311 12.6467C87.0826 12.0268 101.358 16.6327 96.6124 20.9964C91.8676 25.3601 86.0966 25.4371 86.0966 25.4371" stroke="#A8452C" stroke-miterlimit="10" stroke-linecap="round" stroke-linejoin="round"/>
<path d="M58.9482 4.97119V17.753" stroke="#A8452C" stroke-miterlimit="10" stroke-linecap="round" stroke-linejoin="round"/>
<path d="M62.3026 5.92383V18.0154" stroke="#A8452C" stroke-miterlimit="10" stroke-linecap="round" stroke-linejoin="round"/>
<path d="M69.4727 7.95996V18.0153" stroke="#A8452C" stroke-miterlimit="10" stroke-linecap="round" stroke-linejoin="round"/>
<path d="M88.7943 100.813C89.431 102.033 91.6903 102.353 93.2212 101.745C94.7513 101.136 95.664 99.9064 96.3181 98.6919C98.4813 94.6786 98.7154 90.0827 96.9661 85.9546" stroke="#A8452C" stroke-miterlimit="10" stroke-linecap="round" stroke-linejoin="round"/>
</svg>
