<svg width="112" height="145" viewBox="0 0 112 145" fill="none" xmlns="http://www.w3.org/2000/svg">
<g clip-path="url(#clip0_1_1019)">
<path d="M82.5143 94.5637C88.1053 95.8168 91.5254 97.4984 91.5254 99.3458C91.5254 103.221 76.4806 106.363 57.922 106.363C39.3634 106.363 24.3185 103.221 24.3185 99.3458C24.3185 97.5936 27.3955 95.9906 32.4821 94.7614" stroke="black" stroke-width="2.4318" stroke-miterlimit="10" stroke-linecap="round" stroke-linejoin="round"/>
<path d="M24.3185 111.821C24.3185 115.696 39.3634 118.838 57.922 118.838C76.4806 118.838 91.5254 115.696 91.5254 111.821V99.3458" stroke="black" stroke-width="2.4318" stroke-miterlimit="10" stroke-linecap="round" stroke-linejoin="round"/>
<path d="M24.3185 111.821V99.3458" stroke="black" stroke-width="2.4318" stroke-miterlimit="10" stroke-linecap="round" stroke-linejoin="round"/>
<path d="M91.9226 108.919C100.522 110.652 103.974 112.709 103.974 115.391C103.974 120.662 83.3562 124.934 57.922 124.934C32.4879 124.934 11.87 120.662 11.87 115.391C11.87 113.04 17.0488 110.714 23.8522 109.051" stroke="black" stroke-width="2.4318" stroke-miterlimit="10" stroke-linecap="round" stroke-linejoin="round"/>
<path d="M11.87 132.358C11.87 137.628 32.4879 141.901 57.922 141.901C83.3562 141.901 103.974 137.628 103.974 132.358V115.392" stroke="black" stroke-width="2.4318" stroke-miterlimit="10" stroke-linecap="round" stroke-linejoin="round"/>
<path d="M11.87 132.358V115.392" stroke="black" stroke-width="2.4318" stroke-miterlimit="10" stroke-linecap="round" stroke-linejoin="round"/>
<path d="M90.7148 87.6511C109.071 69.2797 109.071 39.4937 90.7148 21.1222C72.359 2.75077 42.5984 2.75077 24.2426 21.1222C5.88673 39.4937 5.88674 69.2797 24.2426 87.6511C42.5984 106.023 72.359 106.023 90.7148 87.6511Z" stroke="black" stroke-width="2.4318" stroke-miterlimit="10" stroke-linecap="round" stroke-linejoin="round"/>
<path d="M37.6702 47.741C34.0101 44.4038 28.2194 45.4022 24.4684 48.6182C21.5435 51.1258 19.4266 55.2788 20.3643 59.2039C21.4686 63.8252 28.832 64.9253 31.5775 68.647C33.311 70.9973 31.5299 75.164 32.9304 77.7647C34.8693 81.3659 37.7301 84.4758 41.2813 86.0434C44.8326 87.611 49.0982 87.4775 52.3114 85.203C55.5239 82.9277 57.3987 78.3865 56.368 74.3647C55.8959 72.5223 54.5977 70.6936 52.8434 70.6258" stroke="black" stroke-width="2.4318" stroke-miterlimit="10" stroke-linecap="round" stroke-linejoin="round"/>
<path d="M29.3856 44.9579C26.7735 37.3955 34.5147 24.2871 42.1722 26.5862C45.7041 27.6466 53.7227 17.7715 61.5958 19.1637C66.5865 20.0467 72.104 24.8779 75.8146 28.3334C79.5252 31.7888 81.3834 37.6668 78.9291 42.1048C77.1272 45.3626 73.1333 47.2454 69.4761 46.5601C68.2126 46.3235 66.7876 45.504 66.8294 44.2184" stroke="black" stroke-width="2.4318" stroke-miterlimit="10" stroke-linecap="round" stroke-linejoin="round"/>
<path d="M82.8473 64.1454C81.8072 65.0804 80.6993 66.1422 80.5386 67.5309C80.3 69.5927 82.4689 71.3428 84.5418 71.2807C86.6148 71.2187 88.4311 69.8365 89.748 68.2336C92.6225 64.7348 93.7563 59.9585 93.1458 55.47C92.1842 48.4003 86.8108 42.1271 79.9778 40.0949" stroke="black" stroke-width="2.4318" stroke-miterlimit="10" stroke-linecap="round" stroke-linejoin="round"/>
<path d="M61.5216 77.2222C59.3362 77.5569 57.3475 78.9932 56.3413 80.9633C56.0076 81.6169 55.7741 82.3527 55.8771 83.0792C55.96 83.6657 56.2563 84.2024 56.6044 84.6814C58.0308 86.645 60.3878 87.8151 62.7966 88.1008C65.2055 88.3864 67.6583 87.8519 69.8927 86.9083C74.3781 85.0147 78.1233 81.4214 80.2034 77.0166C81.1224 75.0702 82.4256 71.6718 84.5411 71.2815" stroke="black" stroke-width="2.4318" stroke-miterlimit="10" stroke-linecap="round" stroke-linejoin="round"/>
<path d="M43.7515 67.1205C42.635 67.8621 41.1675 67.9443 39.8859 67.5519C38.6051 67.1595 37.4922 66.3385 36.543 65.392C35.686 64.5379 34.9147 63.5121 34.7425 62.3146C34.6329 61.5542 34.7742 60.7773 35.0077 60.0458C35.673 57.9631 37.1145 56.1387 38.9871 55.0119C40.859 53.8851 43.1446 53.4645 45.2947 53.8519C48.9807 54.5163 51.9107 57.3911 53.8806 60.5789C54.6028 61.7468 55.2385 62.9862 56.1755 63.9897C57.6315 65.55 59.7888 66.428 61.9194 66.3284" stroke="black" stroke-width="2.4318" stroke-miterlimit="10" stroke-linecap="round" stroke-linejoin="round"/>
<path d="M66.3544 35.3244C67.1162 34.8172 67.5019 33.8585 67.4651 32.943C67.4283 32.0283 67.0168 31.1605 66.4632 30.4319C65.2775 28.8737 63.3912 27.8717 61.4372 27.7627C59.5913 27.6596 57.7872 28.3117 56.1143 29.0995C53.9426 30.1217 51.7939 31.4858 50.6464 33.5945C49.7303 35.2789 49.5516 37.306 49.9314 39.186C50.1599 40.3179 50.5909 41.423 51.298 42.3356C52.0419 43.2965 53.0553 44.0034 53.9959 44.7732C55.4411 45.9548 56.7673 47.3457 57.5407 49.0453C58.3141 50.7449 58.4734 52.7936 57.6344 54.4615C56.6498 56.4186 54.4831 57.5325 52.3302 57.9278" stroke="black" stroke-width="2.4318" stroke-miterlimit="10" stroke-linecap="round" stroke-linejoin="round"/>
<path d="M69.5971 73.6715C70.1896 71.4106 69.533 69.0156 68.6846 66.8377C67.8363 64.6598 66.7796 62.5137 66.5353 60.1886C66.2131 57.1148 67.4449 53.9176 69.7449 51.8558C72.0456 49.7941 75.3562 48.9205 78.3734 49.5791C79.6989 49.8684 81.0042 50.4686 81.8677 51.516C82.9943 52.8831 83.1824 54.9513 82.3211 56.5002C81.4597 58.0483 79.6037 58.9774 77.8493 58.7393" stroke="black" stroke-width="2.4318" stroke-miterlimit="10" stroke-linecap="round" stroke-linejoin="round"/>
<path d="M33.3593 42.3969C33.1351 40.6295 33.249 38.8203 33.693 37.0954C34.3085 34.7018 35.8582 32.2534 38.2836 31.7881C39.0924 31.633 39.9241 31.7138 40.7473 31.7088C42.1535 31.6994 43.5576 31.4325 44.8687 30.9246" stroke="black" stroke-width="0.9627" stroke-miterlimit="10" stroke-linecap="round" stroke-linejoin="round"/>
<path d="M50.1599 27.7844C50.8821 27.0587 51.6051 26.3336 52.3273 25.6086C53.0185 24.9147 53.8337 24.1702 54.8111 24.2178" stroke="black" stroke-width="0.9627" stroke-miterlimit="10" stroke-linecap="round" stroke-linejoin="round"/>
<path d="M54.3484 34.5042C53.6067 35.447 53.5786 36.8126 54.0255 37.9264C54.4723 39.0403 55.3272 39.9406 56.239 40.7197C57.1515 41.4988 58.1425 42.1891 58.9859 43.0426C60.2299 44.3014 61.123 45.905 61.5389 47.6263" stroke="black" stroke-width="0.9627" stroke-miterlimit="10" stroke-linecap="round" stroke-linejoin="round"/>
<path d="M61.9728 52.2526C62.0607 54.9066 60.6379 57.5598 58.379 58.9536" stroke="black" stroke-width="0.9627" stroke-miterlimit="10" stroke-linecap="round" stroke-linejoin="round"/>
<path d="M42.1614 63.8973C41.5697 63.9752 40.9728 63.6946 40.5483 63.2747C39.6293 62.3658 39.4765 60.8292 40.0762 59.6836C40.6759 58.5381 41.9279 57.8066 43.2152 57.6919C44.5018 57.5772 45.8013 58.0338 46.8407 58.8021C48.2275 59.8272 49.2085 61.3904 50.7524 62.1594" stroke="black" stroke-width="1.4151" stroke-miterlimit="10" stroke-linecap="round" stroke-linejoin="round"/>
<path d="M51.1907 74.6302C52.1133 76.4871 51.7968 78.8604 50.5088 80.4843C49.2208 82.1089 47.0556 82.9522 44.9934 82.7466C42.7741 82.5251 40.7091 81.1083 39.7036 79.1158" stroke="black" stroke-width="0.9627" stroke-miterlimit="10" stroke-linecap="round" stroke-linejoin="round"/>
<path d="M35.0531 51.467C33.5164 50.7586 31.7051 50.6677 30.1057 51.2188C29.2955 51.498 28.5437 51.9337 27.8698 52.4632C25.9821 53.9464 24.6933 56.5405 25.5691 58.7761C26.5255 61.218 29.4678 62.145 31.2639 64.0538" stroke="black" stroke-width="0.9627" stroke-miterlimit="10" stroke-linecap="round" stroke-linejoin="round"/>
<path d="M60.8102 81.9401C61.0949 82.8613 62.1602 83.2717 63.1109 83.429C67.3217 84.1259 71.8576 82.0872 74.1345 78.4738" stroke="black" stroke-width="0.9627" stroke-miterlimit="10" stroke-linecap="round" stroke-linejoin="round"/>
<path d="M87.0681 63.5568C87.8732 61.1394 88.522 58.6246 88.4297 56.0781C88.3382 53.5316 87.4249 50.9281 85.5242 49.2335" stroke="black" stroke-width="0.9627" stroke-miterlimit="10" stroke-linecap="round" stroke-linejoin="round"/>
<path d="M71.4308 42.8204C74.1374 42.0124 76.0172 39.054 75.6006 36.2578C75.3822 34.7905 74.6239 33.4596 73.7647 32.2512" stroke="black" stroke-width="0.9627" stroke-miterlimit="10" stroke-linecap="round" stroke-linejoin="round"/>
<path d="M53.1764 54.7068C54.0946 53.1933 53.6233 51.1633 52.576 49.7371C51.5287 48.3102 50.0078 47.3226 48.6038 46.2463C47.1997 45.17 45.8266 43.8917 45.2968 42.2021" stroke="black" stroke-width="0.9627" stroke-miterlimit="10" stroke-linecap="round" stroke-linejoin="round"/>
<path d="M84.056 21.1353C92.3695 27.3977 97.8784 37.2569 98.8565 47.6248" stroke="black" stroke-width="0.9627" stroke-miterlimit="10" stroke-linecap="round" stroke-linejoin="round"/>
<path d="M18.2222 71.1827C22.0243 80.2261 29.16 87.8209 37.9448 92.1738" stroke="black" stroke-width="0.9627" stroke-miterlimit="10" stroke-linecap="round" stroke-linejoin="round"/>
<path d="M41.316 94.4375C43.825 95.7901 46.6951 96.4639 49.5437 96.3701" stroke="black" stroke-width="0.9627" stroke-miterlimit="10" stroke-linecap="round" stroke-linejoin="round"/>
<path d="M81.5629 19.2928C79.1122 17.48 76.441 15.9651 73.6271 14.7935" stroke="black" stroke-width="0.9627" stroke-miterlimit="10" stroke-linecap="round" stroke-linejoin="round"/>
<path d="M73.103 71.609C73.3243 70.5305 72.9351 69.4311 72.5523 68.3988C72.161 67.3434 71.7696 66.288 71.3775 65.2333C70.661 63.3014 69.9323 61.283 70.1514 59.2342C70.3713 57.1855 71.8539 55.1136 73.9067 54.9564" stroke="black" stroke-width="0.9627" stroke-miterlimit="10" stroke-linecap="round" stroke-linejoin="round"/>
<path d="M98.3865 9.24391V5.49121" stroke="black" stroke-width="1.0273" stroke-miterlimit="10" stroke-linecap="round" stroke-linejoin="round"/>
<path d="M98.3865 13.3811V16.8452" stroke="black" stroke-width="1.0273" stroke-miterlimit="10" stroke-linecap="round" stroke-linejoin="round"/>
<path d="M96.0793 11.1678H92.3298" stroke="black" stroke-width="1.0273" stroke-miterlimit="10" stroke-linecap="round" stroke-linejoin="round"/>
<path d="M100.214 11.1678H103.675" stroke="black" stroke-width="1.0273" stroke-miterlimit="10" stroke-linecap="round" stroke-linejoin="round"/>
<path d="M97.2643 9.65942L95.0486 7.44257" stroke="black" stroke-width="0.8584" stroke-miterlimit="10" stroke-linecap="round" stroke-linejoin="round"/>
<path d="M99.707 12.1042L101.752 14.1516" stroke="black" stroke-width="0.8584" stroke-miterlimit="10" stroke-linecap="round" stroke-linejoin="round"/>
<path d="M97.2643 12.0948L95.0486 14.3124" stroke="black" stroke-width="0.8584" stroke-miterlimit="10" stroke-linecap="round" stroke-linejoin="round"/>
<path d="M99.707 9.65005L101.752 7.60345" stroke="black" stroke-width="0.8584" stroke-miterlimit="10" stroke-linecap="round" stroke-linejoin="round"/>
<path d="M9.03876 85.2361V81.4834" stroke="black" stroke-width="1.0273" stroke-miterlimit="10" stroke-linecap="round" stroke-linejoin="round"/>
<path d="M9.03876 89.374V92.8382" stroke="black" stroke-width="1.0273" stroke-miterlimit="10" stroke-linecap="round" stroke-linejoin="round"/>
<path d="M6.73155 87.1608H2.98206" stroke="black" stroke-width="1.0273" stroke-miterlimit="10" stroke-linecap="round" stroke-linejoin="round"/>
<path d="M10.866 87.1608H14.3272" stroke="black" stroke-width="1.0273" stroke-miterlimit="10" stroke-linecap="round" stroke-linejoin="round"/>
<path d="M7.91648 85.6523L5.70081 83.4348" stroke="black" stroke-width="0.8584" stroke-miterlimit="10" stroke-linecap="round" stroke-linejoin="round"/>
<path d="M10.3593 88.0971L12.4041 90.1437" stroke="black" stroke-width="0.8584" stroke-miterlimit="10" stroke-linecap="round" stroke-linejoin="round"/>
<path d="M7.91648 88.087L5.70081 90.3046" stroke="black" stroke-width="0.8584" stroke-miterlimit="10" stroke-linecap="round" stroke-linejoin="round"/>
<path d="M10.3593 85.6422L12.4041 83.5956" stroke="black" stroke-width="0.8584" stroke-miterlimit="10" stroke-linecap="round" stroke-linejoin="round"/>
<path d="M12.6837 133.506L21.5125 122.196L25.9273 138.808L36.1689 124.846L41.6425 140.399L50.2947 125.73L55.769 141.459L63.7149 125.907L70.9544 140.752L78.3705 124.316L86.3164 139.162L90.9077 122.725L98.1472 135.804L102.561 118.838" stroke="black" stroke-width="0.9627" stroke-miterlimit="10" stroke-linecap="round" stroke-linejoin="round"/>
<path d="M6.85693 12.7245C6.85693 12.7245 11.524 10.639 11.7763 3.25842C11.7763 3.25842 11.9024 12.0832 15.6865 12.4035C15.6865 12.4035 11.7763 15.9333 11.9024 22.9928C11.9024 22.9928 11.2717 12.8854 6.85693 12.7245Z" stroke="black" stroke-width="0.9627" stroke-miterlimit="10" stroke-linecap="round" stroke-linejoin="round"/>
<path d="M99.7366 95.5997C99.7366 95.5997 102.819 93.2515 103.001 87.3801C103.001 87.3801 104.089 94.7189 106.446 95.3061C106.446 95.3061 102.638 98.535 102.819 104.699C102.819 104.699 103.001 97.0677 99.7366 95.5997Z" stroke="black" stroke-width="0.9627" stroke-miterlimit="10" stroke-linecap="round" stroke-linejoin="round"/>
</g>
<defs>
<clipPath id="clip0_1_1019">
<rect width="111" height="145" fill="white" transform="translate(0.0650024)"/>
</clipPath>
</defs>
</svg>
