<svg width="135" height="176" viewBox="0 0 135 176" fill="none" xmlns="http://www.w3.org/2000/svg">
<g clip-path="url(#clip0_3_1259)">
<path d="M77.3156 62.7902C86.5428 49.0766 82.8926 30.4884 69.1626 21.2722C55.4326 12.056 36.8221 15.7019 27.5949 29.4154C18.3677 43.129 22.0179 61.7173 35.7479 70.9335C49.4779 80.1497 68.0884 76.5038 77.3156 62.7902Z" stroke="#A8452C" stroke-width="2.1499" stroke-miterlimit="10" stroke-linecap="round" stroke-linejoin="round"/>
<path d="M77.356 70.9857C91.1108 57.2474 91.1108 34.9733 77.356 21.235C63.6013 7.4967 41.3005 7.4967 27.5458 21.235C13.7911 34.9733 13.7911 57.2474 27.5458 70.9857C41.3005 84.724 63.6013 84.724 77.356 70.9857Z" stroke="#A8452C" stroke-width="2.1499" stroke-miterlimit="10" stroke-linecap="round" stroke-linejoin="round"/>
<path d="M75.1339 73.1792L82.718 82.202L70.762 89.2931L66.0533 78.5649" stroke="#A8452C" stroke-width="2.1499" stroke-miterlimit="10" stroke-linecap="round" stroke-linejoin="round"/>
<path d="M82.0507 82.5908L71.424 88.894L108.367 151.028L118.993 144.724L82.0507 82.5908Z" stroke="#A8452C" stroke-width="2.1499" stroke-miterlimit="10" stroke-linecap="round" stroke-linejoin="round"/>
<path d="M119.657 144.329L107.702 151.421L109.437 154.34L121.393 147.249L119.657 144.329Z" stroke="#A8452C" stroke-width="1.4024" stroke-miterlimit="10" stroke-linecap="round" stroke-linejoin="round"/>
<path d="M109.439 154.347L107.927 163.137L127.25 170.704L130.483 150.301L121.396 147.256" stroke="#A8452C" stroke-width="2.1499" stroke-miterlimit="10" stroke-linecap="round" stroke-linejoin="round"/>
<path d="M107.927 163.137L115.547 160.237L123.783 155.352L130.483 150.301" stroke="#A8452C" stroke-miterlimit="10" stroke-linecap="round" stroke-linejoin="round"/>
<path d="M118.273 149.107L123.783 155.352L127.25 170.704L115.547 160.237L112.827 152.338" stroke="#A8452C" stroke-miterlimit="10" stroke-linecap="round" stroke-linejoin="round"/>
<path d="M106.284 133.022C106.665 133.664 106.454 134.492 105.812 134.872C105.17 135.253 104.341 135.042 103.96 134.401C103.579 133.76 103.79 132.931 104.432 132.551C105.075 132.17 105.903 132.38 106.284 133.022Z" stroke="#A8452C" stroke-width="0.6523" stroke-miterlimit="10" stroke-linecap="round" stroke-linejoin="round"/>
<path d="M110.86 140.718C111.241 141.359 111.03 142.187 110.387 142.568C109.746 142.948 108.916 142.737 108.535 142.097C108.154 141.455 108.365 140.627 109.007 140.246C109.649 139.865 110.478 140.076 110.86 140.718Z" stroke="#A8452C" stroke-width="0.6523" stroke-miterlimit="10" stroke-linecap="round" stroke-linejoin="round"/>
<path d="M56.4534 56.8682L64.6053 33.0195" stroke="#A8452C" stroke-miterlimit="10" stroke-linecap="round" stroke-linejoin="round"/>
<path d="M44.6288 62.6056L52.78 38.7568" stroke="#A8452C" stroke-miterlimit="10" stroke-linecap="round" stroke-linejoin="round"/>
<path d="M38.9503 48.5797L47.1022 24.731" stroke="#A8452C" stroke-miterlimit="10" stroke-linecap="round" stroke-linejoin="round"/>
<path d="M86.8128 87.1396L103.438 115.102" stroke="#A8452C" stroke-miterlimit="10" stroke-linecap="round" stroke-linejoin="round"/>
<path d="M88.5244 121.525L105.149 149.488" stroke="#A8452C" stroke-miterlimit="10" stroke-linecap="round" stroke-linejoin="round"/>
<path d="M107.319 165.117L122.688 170.813" stroke="#A8452C" stroke-miterlimit="10" stroke-linecap="round" stroke-linejoin="round"/>
<path d="M122.518 145.74L130.671 148.333" stroke="#A8452C" stroke-miterlimit="10" stroke-linecap="round" stroke-linejoin="round"/>
<path d="M47.7225 3.63379L49.3084 10.9988C49.3084 10.9988 66.8356 9.32115 77.5987 21.3984L83.8051 16.4868" stroke="#A8452C" stroke-miterlimit="10" stroke-linecap="round" stroke-linejoin="round"/>
<path d="M53.3662 10.9617L53.4969 5.69873" stroke="#A8452C" stroke-miterlimit="10" stroke-linecap="round" stroke-linejoin="round"/>
<path d="M59.2167 11.6175L60.5923 3.14893" stroke="#A8452C" stroke-miterlimit="10" stroke-linecap="round" stroke-linejoin="round"/>
<path d="M65.0558 12.8078L66.4633 7.73926" stroke="#A8452C" stroke-miterlimit="10" stroke-linecap="round" stroke-linejoin="round"/>
<path d="M69.8106 15.198L73.6681 8.57031" stroke="#A8452C" stroke-miterlimit="10" stroke-linecap="round" stroke-linejoin="round"/>
<path d="M74.6116 18.0068L77.3386 14.4727" stroke="#A8452C" stroke-miterlimit="10" stroke-linecap="round" stroke-linejoin="round"/>
<path d="M49.8732 88.5805L49.567 81.0537C49.567 81.0537 32.0099 79.7244 23.4644 65.9922L16.5112 69.7762" stroke="#A8452C" stroke-miterlimit="10" stroke-linecap="round" stroke-linejoin="round"/>
<path d="M45.5617 80.3984L44.5343 85.5621" stroke="#A8452C" stroke-miterlimit="10" stroke-linecap="round" stroke-linejoin="round"/>
<path d="M39.9081 78.7573L37.1086 86.8682" stroke="#A8452C" stroke-miterlimit="10" stroke-linecap="round" stroke-linejoin="round"/>
<path d="M34.3574 76.5913L32.1058 81.3462" stroke="#A8452C" stroke-miterlimit="10" stroke-linecap="round" stroke-linejoin="round"/>
<path d="M30.0801 73.4268L25.1483 79.3008" stroke="#A8452C" stroke-miterlimit="10" stroke-linecap="round" stroke-linejoin="round"/>
<path d="M25.8283 69.8413L22.5378 72.8603" stroke="#A8452C" stroke-miterlimit="10" stroke-linecap="round" stroke-linejoin="round"/>
<path d="M90.8855 67.5725L89.9988 63.1846L93.4313 66.0623L97.7869 65.3214L94.9064 68.7499L95.8301 72.9923L92.3975 70.1153L87.9134 71.0549L90.8855 67.5725Z" stroke="#A8452C" stroke-width="1.4024" stroke-miterlimit="10" stroke-linecap="round" stroke-linejoin="round"/>
<path d="M6.77767 30.5671L5.89094 26.1792L9.32349 29.0569L13.6797 28.316L10.7985 31.7445L11.7222 35.9876L8.28967 33.1099L3.80554 34.0495L6.77767 30.5671Z" stroke="#A8452C" stroke-width="1.4024" stroke-miterlimit="10" stroke-linecap="round" stroke-linejoin="round"/>
<path d="M30.473 18.2322L29.1245 6.87305L37.9435 13.8016" stroke="#A8452C" stroke-width="1.4024" stroke-miterlimit="10" stroke-linecap="round" stroke-linejoin="round"/>
</g>
<defs>
<clipPath id="clip0_3_1259">
<rect width="135" height="176" fill="white"/>
</clipPath>
</defs>
</svg>
