<svg width="120" height="160" viewBox="0 0 120 160" fill="none" xmlns="http://www.w3.org/2000/svg">
<path d="M12.1127 144.568V45.5203L51.7127 2.41821L104.912 44.2141V144.568L86.1131 153.928H35.7131L12.1127 144.568Z" stroke="black" stroke-width="2" stroke-miterlimit="10" stroke-linecap="round" stroke-linejoin="round"/>
<path d="M12.1127 45.5203L35.7131 54.4457V153.928" stroke="black" stroke-width="2" stroke-miterlimit="10" stroke-linecap="round" stroke-linejoin="round"/>
<path d="M104.912 44.2141L85.7122 54.4457L51.7126 2.41821L35.713 54.4457H85.7122V153.928" stroke="black" stroke-width="2" stroke-miterlimit="10" stroke-linecap="round" stroke-linejoin="round"/>
<path d="M36.2878 99.7727C42.5746 101.29 49.5874 103.255 51.2914 106.881C51.6346 107.612 51.7498 108.398 52.4926 109.035C53.1874 109.63 54.3382 110.014 55.4482 110.377C58.7758 111.464 62.1046 112.552 65.4322 113.64C68.0278 114.488 71.0038 115.771 70.3954 117.385C69.4966 119.769 73.6906 121.727 77.3986 123.086C79.6942 123.927 81.9898 124.769 84.2854 125.611C84.4138 125.658 84.5495 125.699 84.6899 125.733" stroke="black" stroke-miterlimit="10" stroke-linecap="round" stroke-linejoin="round"/>
<path d="M85.957 64.9881C89.0038 64.7106 92.2834 65.3983 94.201 66.7168C97.5034 68.9875 96.967 72.8151 101.636 74.2028C102.589 74.4863 103.661 74.6241 104.683 74.8219C104.945 74.8729 105.242 74.9512 105.289 75.1001C105.337 75.249 104.863 75.3659 104.791 75.2196" stroke="black" stroke-miterlimit="10" stroke-linecap="round" stroke-linejoin="round"/>
<path d="M12.4055 59.0342C14.8283 59.9596 17.2511 60.8849 19.6739 61.8103C20.3015 62.05 20.9507 62.3034 21.3119 62.6711C21.6575 63.0231 21.6971 63.4378 21.7283 63.8368C21.8051 64.804 21.8807 65.7712 21.9575 66.7383C22.0835 68.3429 22.2959 70.0735 24.1823 71.3085C27.2903 73.3441 34.2107 73.572 35.1863 76.1653" stroke="black" stroke-miterlimit="10" stroke-linecap="round" stroke-linejoin="round"/>
<path d="M42.7462 32.0273C47.7346 31.5944 53.0746 33.2237 55.0006 35.7648C55.4998 36.4237 56.0806 37.2629 57.3886 37.3093C58.2454 37.34 58.9654 36.9893 59.6074 36.6791C62.9626 35.0588 67.1494 33.9545 71.5654 33.5255" stroke="black" stroke-miterlimit="10" stroke-linecap="round" stroke-linejoin="round"/>
<path d="M42.7462 51.0712L45.7126 40.2957" stroke="black" stroke-miterlimit="10" stroke-linecap="round" stroke-linejoin="round"/>
<path d="M80.5127 70.1074V99.7244" stroke="black" stroke-miterlimit="10" stroke-linecap="round" stroke-linejoin="round"/>
<path d="M99.7126 108.214V140.214" stroke="black" stroke-miterlimit="10" stroke-linecap="round" stroke-linejoin="round"/>
<path d="M16.3126 72.9487V112.753" stroke="black" stroke-miterlimit="10" stroke-linecap="round" stroke-linejoin="round"/>
<path d="M70.3126 21.3569L95.6254 42.2549" stroke="black" stroke-miterlimit="10" stroke-linecap="round" stroke-linejoin="round"/>
<path d="M40.3126 148.051V130.418" stroke="black" stroke-miterlimit="10" stroke-linecap="round" stroke-linejoin="round"/>
<path d="M19.3126 43.8875L35.185 25.6018" stroke="black" stroke-miterlimit="10" stroke-linecap="round" stroke-linejoin="round"/>
<path d="M91.0234 27.4043L108.402 41.0481" stroke="black" stroke-miterlimit="10" stroke-linecap="round" stroke-linejoin="round"/>
<path d="M5.71301 47.3044V68.7542" stroke="black" stroke-miterlimit="10" stroke-linecap="round" stroke-linejoin="round"/>
<path d="M110.513 63.6008V88.5569" stroke="black" stroke-miterlimit="10" stroke-linecap="round" stroke-linejoin="round"/>
<path d="M67.1566 156.693H85.957" stroke="black" stroke-miterlimit="10" stroke-linecap="round" stroke-linejoin="round"/>
<path d="M5.71301 115.55V137.754" stroke="black" stroke-miterlimit="10" stroke-linecap="round" stroke-linejoin="round"/>
</svg>
