<svg width="129" height="128" viewBox="0 0 129 128" fill="none" xmlns="http://www.w3.org/2000/svg">
<path d="M13.9944 33.6798L75.2827 4.56512C75.2827 4.56512 86.8974 6.627 82.5772 15.7182L21.8764 44.5541C21.8764 44.5541 8.42455 44.6272 13.9944 33.6798Z" stroke="black" stroke-width="2.8332" stroke-miterlimit="10" stroke-linecap="round" stroke-linejoin="round"/>
<path d="M14.0077 33.739C15.8833 33.0631 18.0748 32.9332 19.9556 33.5978C21.8364 34.2624 23.3325 35.7826 23.5241 37.5109" stroke="black" stroke-width="2.8332" stroke-miterlimit="10" stroke-linecap="round" stroke-linejoin="round"/>
<path d="M22.5001 44.1121C23.7579 43.0093 24.4593 41.46 24.3956 39.9234" stroke="black" stroke-width="2.8332" stroke-miterlimit="10" stroke-linecap="round" stroke-linejoin="round"/>
<path d="M18.0815 39.3181L4.34851 45.8416" stroke="black" stroke-width="2.6386" stroke-miterlimit="10" stroke-linecap="round" stroke-linejoin="round"/>
<path d="M3.72552 45.976C3.9867 46.6897 5.10984 46.7824 5.98587 46.7389C7.62545 46.6576 9.26503 46.5762 10.9039 46.4955C10.2779 45.5365 9.65125 44.578 9.02531 43.619C7.14601 44.4217 5.2482 45.1916 3.33264 45.9293" fill="black"/>
<path d="M82.6779 8.27083L89.6365 4.9649" stroke="black" stroke-width="2.5633" stroke-miterlimit="10" stroke-linecap="round" stroke-linejoin="round"/>
<path d="M90.5932 5.0519C90.821 5.84575 90.48 6.49836 90.0146 7.0917C89.1445 8.20272 88.2736 9.31372 87.4028 10.4254C86.7754 9.46695 86.1472 8.50916 85.5198 7.55074C87.206 6.65978 88.87 5.73793 90.5103 4.78644" fill="black"/>
<path d="M22.085 30.4381C22.085 30.4381 28.3785 33.5845 28.8098 40.7191" stroke="black" stroke-width="0.9627" stroke-miterlimit="10" stroke-linecap="round" stroke-linejoin="round"/>
<path d="M24.9454 29.1991C24.9454 29.1991 31.2389 32.3455 31.6702 39.4801" stroke="black" stroke-width="0.9627" stroke-miterlimit="10" stroke-linecap="round" stroke-linejoin="round"/>
<path d="M69.7528 7.91394C69.7528 7.91394 76.0463 11.0603 76.4776 18.1949" stroke="black" stroke-width="0.9627" stroke-miterlimit="10" stroke-linecap="round" stroke-linejoin="round"/>
<path d="M72.614 6.67493C72.614 6.67493 78.9074 9.82134 79.3388 16.9559" stroke="black" stroke-width="0.9627" stroke-miterlimit="10" stroke-linecap="round" stroke-linejoin="round"/>
<path d="M46.9193 110.291L108.208 81.176C108.208 81.176 119.822 83.2385 115.502 92.329L54.8013 121.165C54.8013 121.165 41.3494 121.238 46.9193 110.291Z" stroke="black" stroke-width="2.8332" stroke-miterlimit="10" stroke-linecap="round" stroke-linejoin="round"/>
<path d="M46.9326 110.35C48.8082 109.674 50.9997 109.544 52.8805 110.209C54.7613 110.873 56.2573 112.393 56.4489 114.122" stroke="black" stroke-width="2.8332" stroke-miterlimit="10" stroke-linecap="round" stroke-linejoin="round"/>
<path d="M55.4249 120.723C56.6827 119.62 57.3841 118.071 57.3205 116.534" stroke="black" stroke-width="2.8332" stroke-miterlimit="10" stroke-linecap="round" stroke-linejoin="round"/>
<path d="M51.0064 115.929L37.2734 122.452" stroke="black" stroke-width="2.6386" stroke-miterlimit="10" stroke-linecap="round" stroke-linejoin="round"/>
<path d="M36.6504 122.587C36.9116 123.301 38.0347 123.393 38.9107 123.35C40.5503 123.268 42.1899 123.188 43.8287 123.106C43.2028 122.147 42.5761 121.189 41.9502 120.23C40.0709 121.033 38.1731 121.802 36.2575 122.54" fill="black"/>
<path d="M115.603 84.8816L122.561 81.5757" stroke="black" stroke-width="2.5633" stroke-miterlimit="10" stroke-linecap="round" stroke-linejoin="round"/>
<path d="M123.518 81.6627C123.746 82.4566 123.405 83.1092 122.939 83.7025C122.069 84.8135 121.199 85.9252 120.328 87.0362C119.7 86.0778 119.072 85.12 118.445 84.1616C120.131 83.2706 121.795 82.3488 123.435 81.3973" fill="black"/>
<path d="M55.0099 107.049C55.0099 107.049 61.3033 110.195 61.7347 117.33" stroke="black" stroke-width="0.9627" stroke-miterlimit="10" stroke-linecap="round" stroke-linejoin="round"/>
<path d="M57.8703 105.81C57.8703 105.81 64.1637 108.956 64.5951 116.091" stroke="black" stroke-width="0.9627" stroke-miterlimit="10" stroke-linecap="round" stroke-linejoin="round"/>
<path d="M102.678 84.5248C102.678 84.5248 108.971 87.6712 109.402 94.8058" stroke="black" stroke-width="0.9627" stroke-miterlimit="10" stroke-linecap="round" stroke-linejoin="round"/>
<path d="M105.539 83.2858C105.539 83.2858 111.832 86.4322 112.264 93.5667" stroke="black" stroke-width="0.9627" stroke-miterlimit="10" stroke-linecap="round" stroke-linejoin="round"/>
<path d="M28.8128 41.8857C29.7991 46.93 36.7917 50.0947 41.3494 53.277C49.0035 58.6209 52.9064 67.6017 51.1832 75.9053C49.9594 81.8034 46.1905 87.1018 44.4503 92.9047C42.7101 98.7076 43.7355 105.943 49.7597 109.029" stroke="black" stroke-width="2.8332" stroke-miterlimit="10" stroke-linecap="round" stroke-linejoin="round"/>
<path d="M79.0169 18.1798C81.0516 22.8918 87.1031 25.1883 91.6608 28.37C99.3149 33.7138 103.218 42.6946 101.495 50.9983C100.271 56.8963 96.5019 62.1948 94.7616 67.9977C93.0214 73.8005 94.0469 81.036 100.071 84.1219" stroke="black" stroke-width="2.8332" stroke-miterlimit="10" stroke-linecap="round" stroke-linejoin="round"/>
<path d="M34.1215 43.2716C37.2593 46.7263 42.1699 48.606 46.129 51.381C54.3307 57.1309 58.0456 67.1363 55.2185 75.8605C54.2907 78.7232 52.737 81.4131 51.7351 84.2581C50.7333 87.1031 50.3175 90.252 51.6686 92.9898" stroke="black" stroke-width="0.9627" stroke-miterlimit="10" stroke-linecap="round" stroke-linejoin="round"/>
<path d="M76.1957 20.7915C77.4706 23.7387 80.1578 26.2211 83.5014 27.5421" stroke="black" stroke-width="0.9627" stroke-miterlimit="10" stroke-linecap="round" stroke-linejoin="round"/>
<path d="M87.4694 30.3871C94.4561 34.007 98.7104 41.1391 98.0246 48.0826C97.537 53.0147 94.8157 57.5584 93.2553 62.3259" stroke="black" stroke-width="0.9627" stroke-miterlimit="10" stroke-linecap="round" stroke-linejoin="round"/>
<path d="M91.8716 65.3904C90.9845 67.0562 90.5791 68.9069 90.7011 70.7329" stroke="black" stroke-width="0.9627" stroke-miterlimit="10" stroke-linecap="round" stroke-linejoin="round"/>
<path d="M51.3015 106.37C48.4256 103.573 46.8482 99.8318 46.9777 96.1141" stroke="black" stroke-width="0.9627" stroke-miterlimit="10" stroke-linecap="round" stroke-linejoin="round"/>
<path d="M41.9065 45.5655L42.9831 39.4139L38.8952 41.9934L47.0946 43.0357" stroke="black" stroke-width="0.9627" stroke-miterlimit="10" stroke-linecap="round" stroke-linejoin="round"/>
<path d="M49.4445 36.6887C49.6568 37.1597 48.9043 37.678 49.1611 38.1327C49.2543 38.2966 49.457 38.3937 49.6568 38.4587C50.6519 38.7821 51.8683 38.5236 52.5682 37.8395C53.2682 37.156 53.4036 36.0935 52.8923 35.2971C53.4576 37.0563 54.4261 38.721 55.7283 40.1687" stroke="black" stroke-width="0.9627" stroke-miterlimit="10" stroke-linecap="round" stroke-linejoin="round"/>
<path d="M60.6693 34.5657C60.8254 32.9811 60.9822 31.396 61.1383 29.8114C62.6144 30.761 64.1438 31.6469 65.7182 32.4647" stroke="black" stroke-width="0.867" stroke-miterlimit="10" stroke-linecap="round" stroke-linejoin="round"/>
<path d="M61.6895 37.8268C61.8368 36.6666 62.6432 35.5878 63.7952 35.0096C64.9472 34.4314 66.4174 34.3671 67.6338 34.8431" stroke="black" stroke-width="0.867" stroke-miterlimit="10" stroke-linecap="round" stroke-linejoin="round"/>
<path d="M62.6447 34.1287C62.4568 33.9982 62.4235 33.7283 62.5744 33.5663C62.7535 33.7485 62.4664 33.9459 62.6447 34.1287Z" stroke="black" stroke-width="0.867" stroke-miterlimit="10" stroke-linecap="round" stroke-linejoin="round"/>
<path d="M63.9573 33.3733C63.7694 33.2428 63.7361 32.9729 63.887 32.8109C64.0661 32.9931 63.7782 33.1905 63.9573 33.3733Z" stroke="black" stroke-width="0.867" stroke-miterlimit="10" stroke-linecap="round" stroke-linejoin="round"/>
<path d="M73.8917 27.4986C73.9694 28.0188 73.6616 28.5472 73.1895 28.8807C72.7175 29.2143 72.1019 29.3719 71.4908 29.411C70.9196 29.4476 70.3129 29.3776 69.8542 29.0844C69.2667 28.7092 69.0321 28.0137 69.1698 27.3977C69.3081 26.7817 69.772 26.2451 70.3417 25.851C71.1253 25.3087 72.2987 25.0193 73.1296 25.5061C73.6194 25.793 73.8895 26.2974 73.9672 26.8018C74.0597 27.4027 73.8873 28.0566 73.3864 28.4847C72.8855 28.9129 72.0272 29.0453 71.4479 28.6972C71.1889 28.5415 70.9943 28.2823 71.0217 28.0131C71.0409 27.822 71.1667 27.6499 71.3147 27.5055C71.9458 26.8926 73.0712 26.7009 73.9272 27.0616" stroke="black" stroke-width="0.8648" stroke-miterlimit="10" stroke-linecap="round" stroke-linejoin="round"/>
<path d="M72.0109 30.3965C72.3513 30.6778 72.6309 31.012 72.8322 31.3777" stroke="black" stroke-width="0.867" stroke-miterlimit="10" stroke-linecap="round" stroke-linejoin="round"/>
<path d="M74.4178 29.498C74.7537 29.8789 75.0896 30.2597 75.4255 30.6406" stroke="black" stroke-width="0.867" stroke-miterlimit="10" stroke-linecap="round" stroke-linejoin="round"/>
<path d="M75.4588 28.1007C75.6933 28.4223 75.9279 28.7439 76.1624 29.0661" stroke="black" stroke-width="0.867" stroke-miterlimit="10" stroke-linecap="round" stroke-linejoin="round"/>
<path d="M69.5967 89.9083C69.6737 90.4285 69.3666 90.9569 68.8946 91.2904C68.4225 91.624 67.8069 91.7816 67.1958 91.8207C66.6246 91.8573 66.0179 91.7873 65.5592 91.4941C64.9717 91.1189 64.7372 90.4235 64.8748 89.8074C65.0131 89.1914 65.477 88.6548 66.0468 88.2607C66.8303 87.7184 68.003 87.429 68.8346 87.9158C69.3252 88.2027 69.5945 88.7071 69.6722 89.2116C69.7647 89.8125 69.5923 90.4663 69.0914 90.8945C68.5905 91.3226 67.7322 91.455 67.1529 91.107C66.8939 90.9512 66.6993 90.6921 66.7267 90.4228C66.7459 90.2318 66.8717 90.0596 67.0197 89.9152C67.6508 89.3024 68.7762 89.1107 69.6322 89.4713" stroke="black" stroke-width="0.8648" stroke-miterlimit="10" stroke-linecap="round" stroke-linejoin="round"/>
<path d="M67.7159 92.8069C68.0562 93.0882 68.3359 93.4224 68.5372 93.7881" stroke="black" stroke-width="0.867" stroke-miterlimit="10" stroke-linecap="round" stroke-linejoin="round"/>
<path d="M70.1227 91.9084C70.4586 92.2893 70.7946 92.6701 71.1305 93.051" stroke="black" stroke-width="0.867" stroke-miterlimit="10" stroke-linecap="round" stroke-linejoin="round"/>
<path d="M71.1638 90.5111C71.3983 90.8327 71.6328 91.1543 71.8674 91.4759" stroke="black" stroke-width="0.867" stroke-miterlimit="10" stroke-linecap="round" stroke-linejoin="round"/>
<path d="M51.7492 48.5688C50.9006 48.8021 50.3516 49.5562 50.2717 50.3128C50.1917 51.0695 50.5084 51.8205 50.9442 52.4832C51.4762 53.2928 52.3796 54.0847 53.4643 53.9983C54.4394 53.9202 55.1948 53.004 54.9514 52.1956" stroke="black" stroke-width="0.8648" stroke-miterlimit="10" stroke-linecap="round" stroke-linejoin="round"/>
<path d="M52.8723 54.9196C53.1024 54.086 53.0765 53.202 52.7983 52.3791" stroke="black" stroke-width="0.8648" stroke-miterlimit="10" stroke-linecap="round" stroke-linejoin="round"/>
<path d="M77.3403 83.5802C76.4924 83.8135 75.9427 84.5676 75.8628 85.3243C75.7829 86.0809 76.0995 86.8319 76.5353 87.4946C77.0673 88.3042 77.9707 89.0962 79.0554 89.0098C80.0305 88.9316 80.786 88.0154 80.5425 87.2071" stroke="black" stroke-width="0.8648" stroke-miterlimit="10" stroke-linecap="round" stroke-linejoin="round"/>
<path d="M78.4635 89.9304C78.6936 89.0968 78.6677 88.2128 78.3895 87.39" stroke="black" stroke-width="0.8648" stroke-miterlimit="10" stroke-linecap="round" stroke-linejoin="round"/>
<path d="M62.1475 49.1186C63.6843 48.4994 64.7897 46.9829 64.3517 45.5831C64.3317 45.5201 64.3058 45.4532 64.2444 45.4141C64.1889 45.3788 64.1156 45.3738 64.0461 45.3694C62.4206 45.2773 60.6367 45.3202 59.3819 46.2067C58.6701 46.7093 57.302 48.2396 57.8939 49.0776C58.568 50.0316 61.2397 49.4843 62.1475 49.1186Z" stroke="black" stroke-width="0.8648" stroke-miterlimit="10" stroke-linecap="round" stroke-linejoin="round"/>
<path d="M59.0947 44.8366C59.0481 45.1096 58.6027 45.2603 58.3489 45.0894C58.0952 44.9186 58.1647 44.5144 58.4651 44.4129C58.7662 44.3107 59.1421 44.5642 59.0947 44.8366Z" stroke="black" stroke-width="0.8648" stroke-miterlimit="10" stroke-linecap="round" stroke-linejoin="round"/>
<path d="M63.4697 50.6704C63.4231 50.9434 62.9777 51.0941 62.7239 50.9232C62.4701 50.7523 62.5396 50.3481 62.84 50.2466C63.1412 50.1445 63.517 50.398 63.4697 50.6704Z" stroke="black" stroke-width="0.8648" stroke-miterlimit="10" stroke-linecap="round" stroke-linejoin="round"/>
<path d="M68.7599 42.5263C68.1435 42.2457 67.6153 41.675 66.9168 41.675H71.1763C71.0113 41.093 70.904 40.4991 70.8478 39.9026C70.7294 39.895 70.6111 39.8874 70.4927 39.8799C69.9141 39.8427 69.2208 39.7342 68.6444 39.7916" stroke="black" stroke-width="0.8648" stroke-miterlimit="10" stroke-linecap="round" stroke-linejoin="round"/>
<path d="M68.5815 44.0976C69.0447 44.1077 69.1919 44.6272 69.5049 44.9179C69.8867 45.2723 70.543 45.2729 71.0927 45.1632C71.6661 45.0484 72.2558 44.8107 72.5229 44.3637C72.79 43.916 72.5436 43.2444 71.9636 43.1606" stroke="black" stroke-width="0.8648" stroke-miterlimit="10" stroke-linecap="round" stroke-linejoin="round"/>
<path d="M77.455 40.646C77.0717 39.8805 76.8705 39.0495 76.8682 38.2178C76.8675 37.9839 76.8868 37.7373 77.0355 37.5406C77.1457 37.3943 77.3174 37.2909 77.489 37.1969C78.2467 36.7833 79.0983 36.4945 79.9824 36.3514C80.0823 35.3772 80.1829 34.403 80.2828 33.4294" stroke="black" stroke-width="0.8648" stroke-miterlimit="10" stroke-linecap="round" stroke-linejoin="round"/>
<path d="M79.2418 39.4057C79.1952 39.6787 78.7498 39.8294 78.496 39.6586C78.2423 39.4877 78.3118 39.0835 78.6122 38.982C78.9133 38.8798 79.2892 39.1327 79.2418 39.4057Z" stroke="black" stroke-width="0.8648" stroke-miterlimit="10" stroke-linecap="round" stroke-linejoin="round"/>
<path d="M81.7759 38.4662C81.6886 38.7317 81.2247 38.8325 80.9983 38.6358C80.7719 38.4385 80.9014 38.0456 81.2151 37.9769C81.5288 37.9088 81.8632 38.2007 81.7759 38.4662Z" stroke="black" stroke-width="0.8648" stroke-miterlimit="10" stroke-linecap="round" stroke-linejoin="round"/>
<path d="M55.3754 87.4839C54.9921 86.7184 54.7909 85.8873 54.7887 85.0557C54.7879 84.8217 54.8072 84.5752 54.9559 84.3785C55.0661 84.2322 55.2378 84.1288 55.4094 84.0348C56.1671 83.6212 57.0187 83.3324 57.9028 83.1893C58.0027 82.2151 58.1033 81.2409 58.2032 80.2673" stroke="black" stroke-width="0.8648" stroke-miterlimit="10" stroke-linecap="round" stroke-linejoin="round"/>
<path d="M57.1629 86.2436C57.1163 86.5167 56.6709 86.6674 56.4171 86.4965C56.1633 86.3256 56.2329 85.9214 56.5333 85.8199C56.8337 85.7171 57.2095 85.9706 57.1629 86.2436Z" stroke="black" stroke-width="0.8648" stroke-miterlimit="10" stroke-linecap="round" stroke-linejoin="round"/>
<path d="M59.6963 85.3035C59.609 85.5689 59.1451 85.6705 58.9187 85.4731C58.6923 85.2757 58.8218 84.8829 59.1355 84.8148C59.4492 84.7467 59.7836 85.038 59.6963 85.3035Z" stroke="black" stroke-width="0.8648" stroke-miterlimit="10" stroke-linecap="round" stroke-linejoin="round"/>
<path d="M60.4036 62.5901L61.4801 56.4385L57.3923 59.0181L65.5917 60.0604" stroke="black" stroke-width="0.9627" stroke-miterlimit="10" stroke-linecap="round" stroke-linejoin="round"/>
<path d="M67.9416 53.7134C68.1539 54.1844 67.4015 54.7027 67.6582 55.1573C67.7514 55.3212 67.9542 55.4183 68.1539 55.4833C69.1491 55.8067 70.3654 55.5482 71.0654 54.8641C71.7653 54.1806 71.9007 53.1181 71.3894 52.3217C71.9547 54.081 72.9232 55.7456 74.2254 57.1933" stroke="black" stroke-width="0.9627" stroke-miterlimit="10" stroke-linecap="round" stroke-linejoin="round"/>
<path d="M68.0489 82.7675L69.1261 76.6159L65.0375 79.1954L73.2369 80.2377" stroke="black" stroke-width="0.9627" stroke-miterlimit="10" stroke-linecap="round" stroke-linejoin="round"/>
<path d="M75.5875 73.8907C75.7999 74.3617 75.0474 74.88 75.3041 75.3346C75.3966 75.4986 75.6001 75.5957 75.7999 75.6606C76.795 75.9841 78.0114 75.7256 78.7113 75.0414C79.4112 74.3579 79.5466 73.2955 79.0354 72.4991C79.6006 74.2583 80.5692 75.9229 81.8714 77.3706" stroke="black" stroke-width="0.9627" stroke-miterlimit="10" stroke-linecap="round" stroke-linejoin="round"/>
<path d="M79.1664 51.5903C79.3225 50.0058 79.4794 48.4206 79.6355 46.836C81.1115 47.7856 82.6409 48.6715 84.2154 49.4893" stroke="black" stroke-width="0.867" stroke-miterlimit="10" stroke-linecap="round" stroke-linejoin="round"/>
<path d="M80.1866 54.8515C80.3339 53.6913 81.1404 52.6124 82.2924 52.0342C83.4444 51.456 84.9145 51.3917 86.1309 51.8678" stroke="black" stroke-width="0.867" stroke-miterlimit="10" stroke-linecap="round" stroke-linejoin="round"/>
<path d="M81.1419 51.1534C80.9539 51.0228 80.9206 50.753 81.0716 50.5909C81.2506 50.7731 80.9635 50.9705 81.1419 51.1534Z" stroke="black" stroke-width="0.867" stroke-miterlimit="10" stroke-linecap="round" stroke-linejoin="round"/>
<path d="M82.4544 50.398C82.2664 50.2674 82.2331 49.9976 82.3841 49.8355C82.5631 50.0177 82.2753 50.2151 82.4544 50.398Z" stroke="black" stroke-width="0.867" stroke-miterlimit="10" stroke-linecap="round" stroke-linejoin="round"/>
<path d="M56.5555 96.3393C56.7123 94.7547 56.8685 93.1701 57.0246 91.585C58.5006 92.5346 60.03 93.4205 61.6045 94.2383" stroke="black" stroke-width="0.867" stroke-miterlimit="10" stroke-linecap="round" stroke-linejoin="round"/>
<path d="M57.5758 99.6004C57.723 98.4402 58.5295 97.3613 59.6815 96.7831C60.8335 96.2049 62.3037 96.1406 63.52 96.6167" stroke="black" stroke-width="0.867" stroke-miterlimit="10" stroke-linecap="round" stroke-linejoin="round"/>
<path d="M58.531 95.9016C58.343 95.7711 58.309 95.5013 58.4607 95.3392C58.6397 95.5221 58.3527 95.7194 58.531 95.9016Z" stroke="black" stroke-width="0.867" stroke-miterlimit="10" stroke-linecap="round" stroke-linejoin="round"/>
<path d="M59.8435 95.1462C59.6556 95.0157 59.6216 94.7459 59.7732 94.5838C59.9515 94.7667 59.6645 94.964 59.8435 95.1462Z" stroke="black" stroke-width="0.867" stroke-miterlimit="10" stroke-linecap="round" stroke-linejoin="round"/>
<path d="M92.3888 44.5232C92.4665 45.0434 92.1587 45.5718 91.6867 45.9054C91.2146 46.2389 90.5991 46.3965 89.9879 46.4356C89.4167 46.4722 88.81 46.4022 88.3513 46.109C87.7638 45.7338 87.5293 45.0384 87.6669 44.4223C87.8052 43.8063 88.2692 43.2697 88.8389 42.8756C89.6224 42.3333 90.7959 42.0439 91.6268 42.5307C92.1166 42.8176 92.3866 43.322 92.4643 43.8265C92.5568 44.4274 92.3844 45.0812 91.8835 45.5094C91.3826 45.9375 90.5243 46.0699 89.945 45.7219C89.686 45.5661 89.4914 45.307 89.5188 45.0377C89.5381 44.8467 89.6638 44.6745 89.8118 44.5301C90.4429 43.9173 91.5683 43.7256 92.4244 44.0862" stroke="black" stroke-width="0.8648" stroke-miterlimit="10" stroke-linecap="round" stroke-linejoin="round"/>
<path d="M90.5081 47.4212C90.8484 47.7024 91.1281 48.0366 91.3293 48.4023" stroke="black" stroke-width="0.867" stroke-miterlimit="10" stroke-linecap="round" stroke-linejoin="round"/>
<path d="M92.9149 46.5226C93.2508 46.9035 93.5867 47.2843 93.9226 47.6652" stroke="black" stroke-width="0.867" stroke-miterlimit="10" stroke-linecap="round" stroke-linejoin="round"/>
<path d="M93.9559 45.1254C94.1904 45.4469 94.425 45.7685 94.6595 46.0907" stroke="black" stroke-width="0.867" stroke-miterlimit="10" stroke-linecap="round" stroke-linejoin="round"/>
<path d="M61.6008 67.2725C60.7521 67.5058 60.2031 68.26 60.1232 69.0166C60.0433 69.7733 60.36 70.5242 60.7958 71.1869C61.3277 71.9965 62.2311 72.7885 63.3158 72.7021C64.291 72.6239 65.0464 71.7078 64.803 70.8994" stroke="black" stroke-width="0.8648" stroke-miterlimit="10" stroke-linecap="round" stroke-linejoin="round"/>
<path d="M62.7239 73.6227C62.954 72.7891 62.9281 71.9051 62.6499 71.0822" stroke="black" stroke-width="0.8648" stroke-miterlimit="10" stroke-linecap="round" stroke-linejoin="round"/>
<path d="M74.5621 67.3173C76.0988 66.6981 77.2049 65.1816 76.7662 63.7818C76.7462 63.7188 76.7203 63.6519 76.6589 63.6128C76.6034 63.5775 76.5302 63.5725 76.4614 63.5681C74.8358 63.476 73.052 63.5189 71.7971 64.4054C71.0854 64.908 69.7173 66.4383 70.3092 67.2763C70.9833 68.2303 73.6542 67.683 74.5621 67.3173Z" stroke="black" stroke-width="0.8648" stroke-miterlimit="10" stroke-linecap="round" stroke-linejoin="round"/>
<path d="M71.51 63.0353C71.4634 63.3083 71.018 63.459 70.7642 63.2875C70.5104 63.116 70.58 62.7124 70.8804 62.6109C71.1808 62.5094 71.5566 62.7629 71.51 63.0353Z" stroke="black" stroke-width="0.8648" stroke-miterlimit="10" stroke-linecap="round" stroke-linejoin="round"/>
<path d="M75.8842 68.8691C75.8376 69.1421 75.3922 69.2928 75.1384 69.1219C74.8846 68.951 74.9542 68.5468 75.2546 68.4453C75.5557 68.3432 75.9316 68.5967 75.8842 68.8691Z" stroke="black" stroke-width="0.8648" stroke-miterlimit="10" stroke-linecap="round" stroke-linejoin="round"/>
<path d="M82.7511 61.2326C82.1347 60.952 81.6065 60.3813 80.908 60.3813H85.1675C85.0025 59.7993 84.8953 59.2054 84.839 58.6089C84.7206 58.6013 84.6023 58.5937 84.4839 58.5862C83.9053 58.549 83.212 58.4405 82.6357 58.4979" stroke="black" stroke-width="0.8648" stroke-miterlimit="10" stroke-linecap="round" stroke-linejoin="round"/>
<path d="M82.5728 62.8039C83.0359 62.814 83.1832 63.3335 83.4961 63.6242C83.8779 63.9786 84.5342 63.9792 85.0839 63.8695C85.6573 63.7547 86.247 63.517 86.5141 63.07C86.7812 62.6223 86.5356 61.9507 85.9548 61.8669" stroke="black" stroke-width="0.8648" stroke-miterlimit="10" stroke-linecap="round" stroke-linejoin="round"/>
<path d="M100.273 55.4908C100.186 55.7563 99.7218 55.8572 99.4954 55.6604C99.269 55.4631 99.3985 55.0703 99.7122 55.0015C100.026 54.9334 100.36 55.2254 100.273 55.4908Z" stroke="black" stroke-width="0.8648" stroke-miterlimit="10" stroke-linecap="round" stroke-linejoin="round"/>
</svg>
