<svg width="131" height="145" viewBox="0 0 131 145" fill="none" xmlns="http://www.w3.org/2000/svg">
<path d="M74.5246 82.5253C68.7525 77.8056 67.9085 69.3122 72.6388 63.5539C74.6999 61.0454 77.4789 59.4703 80.4364 58.8816C74.4154 57.4459 67.8261 59.4224 63.6385 64.5198C57.7965 71.6304 58.8389 82.1196 65.9672 87.9476C73.0948 93.7756 83.6091 92.7357 89.4511 85.6251C90.1916 84.7239 90.8204 83.7687 91.3406 82.7755C86.4712 86.5255 79.4857 86.5816 74.5246 82.5253Z" stroke="#A8452C" stroke-width="2.1499" stroke-miterlimit="10" stroke-linecap="round" stroke-linejoin="round"/>
<path d="M74.9338 140.754C102.92 140.754 125.606 118.121 125.606 90.2024C125.606 62.2835 102.92 39.6509 74.9338 39.6509C46.948 39.6509 24.2611 62.2835 24.2611 90.2024C24.2611 118.121 46.948 140.754 74.9338 140.754Z" stroke="#A8452C" stroke-width="2.1499" stroke-miterlimit="10" stroke-linecap="round" stroke-linejoin="round"/>
<path d="M115.009 84.02C116.605 87.8666 117.748 92.8837 117.748 97.1945C117.748 117.613 98.3111 132.368 74.2719 132.368C50.2328 132.368 30.3788 115.423 31.1068 88.4329" stroke="#A8452C" stroke-width="2.1499" stroke-miterlimit="10" stroke-linecap="round" stroke-linejoin="round"/>
<path d="M60.5269 79.7358C60.5269 79.7358 36.0973 81.7713 31.1068 88.4333C31.1068 88.4333 43.0534 99.0674 80.4352 95.9919C117.816 92.9171 115.009 84.0204 115.009 84.0204C115.009 84.0204 94.255 76.7947 71.4673 78.9809" stroke="#A8452C" stroke-width="2.1499" stroke-miterlimit="10" stroke-linecap="round" stroke-linejoin="round"/>
<path d="M25.366 79.6655C25.4564 79.2523 17.8509 50.1328 17.8509 50.1328L11.9248 54.489L7.87 47.0212L35.9414 25.5513L40.9319 31.6189L36.2533 36.2862L49.6241 46.3989" stroke="#A8452C" stroke-width="2.1499" stroke-miterlimit="10" stroke-linecap="round" stroke-linejoin="round"/>
<path d="M22.2169 49.5098C22.8407 49.9765 28.7463 69.3779 28.7463 69.3779" stroke="#A8452C" stroke-width="2.1499" stroke-miterlimit="10" stroke-linecap="round" stroke-linejoin="round"/>
<path d="M35.9408 41.5752L45.3716 49.1432" stroke="#A8452C" stroke-width="2.1499" stroke-miterlimit="10" stroke-linecap="round" stroke-linejoin="round"/>
<path d="M14.9888 41.5755L3.03479 26.4843L20.5015 8.12598L29.6322 30.3763" stroke="#A8452C" stroke-width="2.1499" stroke-miterlimit="10" stroke-linecap="round" stroke-linejoin="round"/>
<path d="M7.08264 22.23L18.9849 38.5198" stroke="#A8452C" stroke-width="2.1499" stroke-miterlimit="10" stroke-linecap="round" stroke-linejoin="round"/>
<path d="M10.3827 18.5986L22.2843 34.8884" stroke="#A8452C" stroke-width="2.1499" stroke-miterlimit="10" stroke-linecap="round" stroke-linejoin="round"/>
<path d="M84.7838 43.8237C84.7838 43.8237 110.552 50.93 116.43 69.9107" stroke="#A8452C" stroke-miterlimit="10" stroke-linecap="round" stroke-linejoin="round"/>
<path d="M38.9038 119.954C38.9038 119.954 49.6234 136.79 74.9338 136.79" stroke="#A8452C" stroke-miterlimit="10" stroke-linecap="round" stroke-linejoin="round"/>
<path d="M74.272 132.369C78.0454 131.317 79.847 125.787 82.8144 123.235C87.5654 119.15 95.3698 121.258 100.549 117.728C103.457 115.748 105 112.345 107.349 109.729C109.748 107.055 113.052 105.204 116.588 104.55" stroke="#A8452C" stroke-miterlimit="10" stroke-linecap="round" stroke-linejoin="round"/>
<path d="M35.4604 109.857C38.6475 109.346 42.0204 108.75 44.4371 106.615C46.971 104.375 48.0483 100.771 50.7569 98.746C52.7868 97.2288 55.4186 96.8336 57.9307 96.4863" stroke="#A8452C" stroke-miterlimit="10" stroke-linecap="round" stroke-linejoin="round"/>
<path d="M50.309 125.243C53.1829 121.593 56.4497 118.011 60.7546 116.251C64.4857 114.725 68.6321 114.713 72.6351 114.225C76.6381 113.736 80.8706 112.573 83.4189 109.455C84.2305 108.462 84.83 107.316 85.5935 106.286C86.9297 104.484 88.7712 103.059 90.8528 102.216C93.1909 101.269 95.8121 101.043 98.0098 99.8058C100.661 98.3141 102.41 95.345 102.426 92.3081" stroke="#A8452C" stroke-miterlimit="10" stroke-linecap="round" stroke-linejoin="round"/>
<path d="M35.9408 88.249C35.9408 88.249 43.0628 93.1236 60.945 93.746" stroke="#A8452C" stroke-miterlimit="10" stroke-linecap="round" stroke-linejoin="round"/>
<path d="M101.389 82.7524C101.701 82.5451 120.207 85.5173 102.844 90.2028C102.844 90.2028 94.527 92.3983 88.2889 92.9173" stroke="#A8452C" stroke-miterlimit="10" stroke-linecap="round" stroke-linejoin="round"/>
<path d="M39.9235 95.6655C39.9233 95.7988 39.8148 95.9058 39.6832 95.9058L39.6354 95.9009C39.5422 95.8817 39.4683 95.8083 39.4489 95.7144L39.444 95.6655C39.444 95.5323 39.5517 95.4245 39.6832 95.4243L39.7321 95.4292C39.8408 95.4515 39.9235 95.5483 39.9235 95.6655Z" fill="black" stroke="#A8452C"/>
<path d="M99.7767 106.349C99.7766 106.483 99.668 106.589 99.5365 106.589C99.4216 106.589 99.3247 106.508 99.3021 106.398L99.2972 106.349C99.2972 106.215 99.4051 106.108 99.5365 106.108L99.5844 106.113C99.693 106.135 99.7767 106.231 99.7767 106.349Z" fill="black" stroke="#A8452C"/>
<path d="M45.8708 118.459C45.8707 118.593 45.7613 118.699 45.6306 118.699C45.5158 118.699 45.4189 118.618 45.3962 118.508L45.3914 118.459C45.3914 118.325 45.4992 118.218 45.6306 118.218L45.6785 118.223C45.7871 118.245 45.8708 118.341 45.8708 118.459Z" fill="black" stroke="#A8452C"/>
<path d="M86.1896 128.113C86.1894 128.247 86.0808 128.354 85.9493 128.354C85.8345 128.353 85.7376 128.272 85.715 128.162L85.7101 128.113C85.7101 127.979 85.818 127.872 85.9493 127.872L85.9982 127.877C86.1069 127.899 86.1896 127.996 86.1896 128.113Z" fill="black" stroke="#A8452C"/>
<path d="M71.0297 101.855V102.336C71.1613 102.336 71.2698 102.229 71.2699 102.096C71.2699 101.979 71.1872 101.882 71.0785 101.86L71.0297 101.855ZM71.0297 101.855C70.8982 101.855 70.7904 101.963 70.7904 102.096L70.7953 102.145C70.818 102.256 70.9158 102.336 71.0277 102.336L71.0297 101.855Z" fill="black" stroke="#A8452C"/>
<path d="M61.7771 75.4917C61.7771 75.4917 61.7771 84.3081 71.0301 88.6643" stroke="#A8452C" stroke-miterlimit="10" stroke-linecap="round" stroke-linejoin="round"/>
<path d="M61.7771 73.4173C61.7771 73.4173 62.089 69.5795 63.5443 67.9204" stroke="#A8452C" stroke-miterlimit="10" stroke-linecap="round" stroke-linejoin="round"/>
<path d="M44.3016 69.2411V58.4707" stroke="#A8452C" stroke-width="0.8257" stroke-miterlimit="10" stroke-linecap="round" stroke-linejoin="round"/>
<path d="M47.8181 67.9417L40.7853 59.77" stroke="#A8452C" stroke-width="0.8257" stroke-miterlimit="10" stroke-linecap="round" stroke-linejoin="round"/>
<path d="M38.9038 63.8184L49.7001 63.8937" stroke="#A8452C" stroke-width="0.8257" stroke-miterlimit="10" stroke-linecap="round" stroke-linejoin="round"/>
<path d="M40.2488 67.4136L48.3546 60.2993" stroke="#A8452C" stroke-width="0.8257" stroke-miterlimit="10" stroke-linecap="round" stroke-linejoin="round"/>
<path d="M44.3016 69.2411V58.4707" stroke="#A8452C" stroke-width="0.8257" stroke-miterlimit="10" stroke-linecap="round" stroke-linejoin="round"/>
<path d="M102.844 74.1121V68.0327" stroke="#A8452C" stroke-miterlimit="10" stroke-linecap="round" stroke-linejoin="round"/>
<path d="M104.829 73.3782L100.859 68.7656" stroke="#A8452C" stroke-miterlimit="10" stroke-linecap="round" stroke-linejoin="round"/>
<path d="M99.797 71.0508L105.891 71.0931" stroke="#A8452C" stroke-miterlimit="10" stroke-linecap="round" stroke-linejoin="round"/>
<path d="M100.556 73.0796L105.132 69.0645" stroke="#A8452C" stroke-miterlimit="10" stroke-linecap="round" stroke-linejoin="round"/>
<path d="M102.844 74.1121V68.0327" stroke="#A8452C" stroke-miterlimit="10" stroke-linecap="round" stroke-linejoin="round"/>
<path d="M103.728 43.8236V30.7798" stroke="#A8452C" stroke-miterlimit="10" stroke-linecap="round" stroke-linejoin="round"/>
<path d="M107.987 42.2496L99.4695 32.3535" stroke="#A8452C" stroke-miterlimit="10" stroke-linecap="round" stroke-linejoin="round"/>
<path d="M97.1907 37.2563L110.265 37.3472" stroke="#A8452C" stroke-miterlimit="10" stroke-linecap="round" stroke-linejoin="round"/>
<path d="M98.8201 41.6095L108.636 32.9941" stroke="#A8452C" stroke-miterlimit="10" stroke-linecap="round" stroke-linejoin="round"/>
<path d="M103.728 43.8236V30.7798" stroke="#A8452C" stroke-miterlimit="10" stroke-linecap="round" stroke-linejoin="round"/>
<path d="M27.908 134.894V121.85" stroke="#A8452C" stroke-miterlimit="10" stroke-linecap="round" stroke-linejoin="round"/>
<path d="M32.1668 133.321L23.6499 123.424" stroke="#A8452C" stroke-miterlimit="10" stroke-linecap="round" stroke-linejoin="round"/>
<path d="M21.3711 128.327L34.4455 128.418" stroke="#A8452C" stroke-miterlimit="10" stroke-linecap="round" stroke-linejoin="round"/>
<path d="M22.9999 132.68L32.8168 124.064" stroke="#A8452C" stroke-miterlimit="10" stroke-linecap="round" stroke-linejoin="round"/>
<path d="M27.908 134.894V121.85" stroke="#A8452C" stroke-miterlimit="10" stroke-linecap="round" stroke-linejoin="round"/>
<path d="M16.6588 56.5347C18.0331 62.4417 19.4073 68.3481 20.7822 74.2552" stroke="#A8452C" stroke-miterlimit="10" stroke-linecap="round" stroke-linejoin="round"/>
<path d="M115.889 127.716C122.48 120.457 126.65 111.047 127.596 101.298" stroke="#A8452C" stroke-miterlimit="10" stroke-linecap="round" stroke-linejoin="round"/>
<path d="M13.5148 11.3282L21.8514 2.84912L29.2273 20.9791" stroke="#A8452C" stroke-miterlimit="10" stroke-linecap="round" stroke-linejoin="round"/>
</svg>
