<svg width="129" height="207" viewBox="0 0 129 207" fill="none" xmlns="http://www.w3.org/2000/svg">
<path d="M4.8335 120.365C8.21011 119.866 11.9193 120.064 15.0521 120.911" stroke="#A8452C" stroke-miterlimit="10" stroke-linecap="round" stroke-linejoin="round"/>
<path d="M26.3623 111.296C26.3623 111.296 -5.11618 124.791 36.7669 126.493C36.7669 126.493 61.8968 126.663 75.9276 119.088C89.9585 111.513 90.3773 103.172 65.8757 103.342" stroke="#A8452C" stroke-width="2.1499" stroke-miterlimit="10" stroke-linecap="round" stroke-linejoin="round"/>
<path d="M25.8773 105.214C25.8773 105.214 7.44872 111.002 4.30748 118.833C1.16625 126.663 27.762 131.43 37.3951 130.408C37.3951 130.408 78.2312 131.089 90.7961 113.726C103.361 96.3623 63.1533 99.5967 63.1533 99.5967" stroke="#A8452C" stroke-width="2.1499" stroke-miterlimit="10" stroke-linecap="round" stroke-linejoin="round"/>
<path d="M93.2288 107.598C93.929 110.002 96.0316 114.577 91.0056 122.266C85.9796 129.955 93.728 143.516 85.5801 150.666C77.4321 157.816 70.4829 159.518 55.9327 162.071C41.3825 164.625 22.1079 157.475 20.0137 151.177C17.9196 144.878 5.22898 122.742 4.83276 122.266" stroke="#A8452C" stroke-width="2.1499" stroke-miterlimit="10" stroke-linecap="round" stroke-linejoin="round"/>
<path d="M89.2087 144.013C89.2087 144.013 98.9633 145.048 106.921 127.344C106.921 127.344 113.622 105.555 112.156 102.32C110.691 99.0861 105.665 95.5113 102.733 97.3838C102.733 97.3838 97.6097 105.513 92.5276 105.193" stroke="#A8452C" stroke-width="2.1499" stroke-miterlimit="10" stroke-linecap="round" stroke-linejoin="round"/>
<path d="M86.9882 101.416C86.9882 101.416 94.5657 100.448 97.0787 95.6816C99.5916 90.9152 102.523 89.2129 109.015 91.0854C115.507 92.9579 121.79 94.0134 122.209 99.3586C122.627 104.704 116.135 132.451 110.062 137.729C103.989 143.006 95.4419 149.815 85.5801 150.666" stroke="#A8452C" stroke-width="2.1499" stroke-miterlimit="10" stroke-linecap="round" stroke-linejoin="round"/>
<path d="M61.0592 161.139V190.84H54.1636V162.327" stroke="#A8452C" stroke-width="2.1499" stroke-miterlimit="10" stroke-linecap="round" stroke-linejoin="round"/>
<path d="M32.8182 117.91C27.54 115.6 24.6442 110.189 26.1629 105.476C27.3172 101.895 30.6896 98.76 30.5757 95.0592C30.4333 90.4242 24.96 87.0782 23.2814 82.6467C21.2626 77.3165 25.889 71.1072 32.5258 69.6929C36.2584 68.8976 40.3646 69.3953 43.8971 68.1329C47.0525 67.0053 49.3142 64.5642 50.3605 61.8936C51.4067 59.2237 51.3506 56.34 50.8245 53.57C50.2474 50.5318 49.2079 47.1394 51.3372 44.5989C53.629 41.8643 58.3216 41.5824 62.1849 40.5406C68.6106 38.8077 73.9089 33.5898 73.0461 28.1308C72.778 26.436 71.9621 24.8243 71.6639 23.1329C71.1387 20.1538 72.3365 17.0032 74.8378 14.7841C78.0368 11.9467 86.2593 11.1282 86.2593 4.48926" stroke="#A8452C" stroke-width="2.1499" stroke-miterlimit="10" stroke-linecap="round" stroke-linejoin="round"/>
<path d="M61.1001 117.257C64.181 116.025 66.5147 113.621 67.2737 110.899C68.0326 108.177 67.2016 105.19 65.0756 102.998C64.3846 102.286 63.5653 101.653 62.9631 100.889C61.1713 98.6186 61.7878 95.2998 64.3251 93.5607C67.3022 91.5193 71.7837 91.8339 75.2223 90.3468C77.9112 89.1838 79.78 86.9197 80.3001 84.48C80.8195 82.0402 80.043 79.4691 78.3777 77.3964C76.9411 75.6089 74.8872 74.1797 73.5587 72.3371C71.8205 69.9253 71.4896 66.8754 72.6816 64.2532C74.9567 59.2498 81.7702 56.7413 85.8681 52.5748C88.7538 49.6407 90.275 42.8995 89.9852 39.1504" stroke="#A8452C" stroke-width="2.1499" stroke-miterlimit="10" stroke-linecap="round" stroke-linejoin="round"/>
<path d="M86.261 4.49072C88.2589 4.86114 88.7941 8.83363 88.6082 10.4924C88.4222 12.1511 87.3743 13.6484 86.602 15.1907C84.1485 20.0899 84.507 25.8662 87.5544 30.54C88.191 31.5165 88.9432 32.4568 89.3336 33.5157" stroke="#A8452C" stroke-width="1.4024" stroke-miterlimit="10" stroke-linecap="round" stroke-linejoin="round"/>
<path d="M77.4321 36.1118C77.1221 41.5796 71.7385 46.5823 65.1134 47.5601C63.8544 47.746 62.4915 47.825 61.488 48.4705C60.0799 49.3762 59.8989 51.0648 60.1913 52.505C60.8229 55.6202 63.0812 58.4664 63.2002 61.6218C63.3091 64.5117 61.5542 67.296 59.073 69.3673C56.5918 71.438 53.4322 72.8815 50.2239 74.1297C47.5175 75.1824 44.372 76.485 43.8845 78.8914C43.5997 80.2954 44.3787 81.7383 45.5808 82.7726C46.2618 83.3589 47.0819 83.8457 47.6439 84.5096C49.2606 86.4189 48.2027 89.1215 46.3481 90.8824C44.4935 92.6432 41.9663 93.8641 40.0782 95.6012C35.8011 99.5342 35.7341 106.049 39.9299 110.039" stroke="#A8452C" stroke-width="2.1499" stroke-miterlimit="10" stroke-linecap="round" stroke-linejoin="round"/>
<path d="M64.3311 71.2998C58.7933 74.2516 56.2167 80.4105 58.3937 85.4943C59.6125 88.3412 62.1699 91.1187 61.3113 94.0507C60.6646 96.259 58.2564 97.774 56.1044 99.2203C53.9516 100.667 51.7469 102.509 51.7829 104.779C51.8156 106.846 53.6903 108.535 55.2567 110.163C56.8231 111.791 58.2279 113.944 57.2118 115.839C56.4378 117.282 54.4215 118.169 53.9424 119.695" stroke="#A8452C" stroke-width="2.1499" stroke-miterlimit="10" stroke-linecap="round" stroke-linejoin="round"/>
<path d="M27.5753 113.625C28.0695 114.631 29.2958 116.574 28.7882 117.575C28.5344 118.076 28.0527 118.479 27.5434 118.829C25.719 120.082 23.4473 120.808 21.2208 121.513C20.5372 121.729 19.842 121.947 19.1115 121.994C17.7344 122.081 16.4243 121.552 15.1963 121.037" stroke="#A8452C" stroke-width="1.4024" stroke-miterlimit="10" stroke-linecap="round" stroke-linejoin="round"/>
<path d="M67.3416 107.097C68.65 109.404 72.3776 111.511 75.2977 110.607C75.7927 110.454 76.2635 110.25 76.7661 110.112C78.2203 109.711 79.8026 109.892 81.3364 109.952C82.8701 110.011 83.8058 108.78 84.945 107.943" stroke="#A8452C" stroke-width="1.4024" stroke-miterlimit="10" stroke-linecap="round" stroke-linejoin="round"/>
<path d="M84.9861 43.2839L91.8432 29.9726L96.6597 33.5154L105.874 20.0298L98.1256 40.8673L93.2287 36.4686L84.9861 43.2839Z" stroke="#A8452C" stroke-width="2.1499" stroke-miterlimit="10" stroke-linecap="round" stroke-linejoin="round"/>
<path d="M12.4597 73.0752L19.3168 59.7639L24.1334 63.3067L33.3477 49.8218L25.5993 70.6586L20.7015 66.2599L12.4597 73.0752Z" stroke="#A8452C" stroke-width="2.1499" stroke-miterlimit="10" stroke-linecap="round" stroke-linejoin="round"/>
<path d="M83.8208 91.7659L90.6779 78.4545L95.4945 81.9974L104.709 68.5117L96.9604 89.3493L92.0626 84.9505L83.8208 91.7659Z" stroke="#A8452C" stroke-width="2.1499" stroke-miterlimit="10" stroke-linecap="round" stroke-linejoin="round"/>
<path d="M44.7146 62.3299C47.0441 60.4629 47.5124 57.5179 47.0852 54.8813C46.658 52.2448 45.4836 49.7179 45.0371 47.0834C44.5906 44.4489 45.0137 41.506 47.303 39.6062C48.9021 38.2791 51.1596 37.6568 53.2981 37.001C58.1725 35.5071 63.3384 33.1852 64.8344 29.1289" stroke="#A8452C" stroke-miterlimit="10" stroke-linecap="round" stroke-linejoin="round"/>
<path d="M19.1443 71.3271C17.2997 73.1663 15.7501 75.2533 15.0816 77.563C14.4131 79.8727 14.7038 82.4282 16.2929 84.4185C18.2563 86.8773 21.9437 88.2474 23.5671 90.8655C25.379 93.788 23.9633 97.514 21.132 99.84" stroke="#A8452C" stroke-miterlimit="10" stroke-linecap="round" stroke-linejoin="round"/>
<path d="M88.0151 57.4229C88.5395 59.4459 86.1731 61.1652 83.9231 62.1294C81.6731 63.0936 79.0194 64.0251 78.2086 65.9848C77.1414 68.5634 79.8856 71.0127 81.7242 73.2856C85.7819 78.3019 85.6537 85.3284 81.416 90.2446" stroke="#A8452C" stroke-miterlimit="10" stroke-linecap="round" stroke-linejoin="round"/>
<path d="M16.0081 108.966C16.7754 110.927 18.4942 112.63 20.7098 113.625" stroke="#A8452C" stroke-miterlimit="10" stroke-linecap="round" stroke-linejoin="round"/>
<path d="M31.7812 130.249C32.381 128.751 33.4373 127.374 34.8295 126.279" stroke="#A8452C" stroke-miterlimit="10" stroke-linecap="round" stroke-linejoin="round"/>
<path d="M58.5175 128.547C57.7494 127.275 57.6355 125.752 58.2076 124.414" stroke="#A8452C" stroke-miterlimit="10" stroke-linecap="round" stroke-linejoin="round"/>
<path d="M73.397 120.2C74.0386 121.591 75.3328 122.775 76.9562 123.458" stroke="#A8452C" stroke-miterlimit="10" stroke-linecap="round" stroke-linejoin="round"/>
<path d="M83.6819 114.043C86.117 114.419 88.6995 114.138 90.9277 113.255" stroke="#A8452C" stroke-miterlimit="10" stroke-linecap="round" stroke-linejoin="round"/>
<path d="M84.9451 107.097C86.6179 105.733 88.7296 104.729 91.0114 104.21" stroke="#A8452C" stroke-miterlimit="10" stroke-linecap="round" stroke-linejoin="round"/>
<path d="M78.0016 104.169C77.7092 102.654 78.0527 101.062 78.9616 99.7188" stroke="#A8452C" stroke-miterlimit="10" stroke-linecap="round" stroke-linejoin="round"/>
<path d="M68.9239 103.274C67.8969 102.116 67.3541 100.679 67.4035 99.2529" stroke="#A8452C" stroke-miterlimit="10" stroke-linecap="round" stroke-linejoin="round"/>
<path d="M98.2396 102.63C99.0697 101.694 98.8812 100.396 98.4239 99.303C97.9665 98.2101 97.2721 97.156 97.1858 96.0039" stroke="#A8452C" stroke-miterlimit="10" stroke-linecap="round" stroke-linejoin="round"/>
<path d="M109.759 99.3098C111.482 96.8585 114.162 94.8579 117.313 93.6704" stroke="#A8452C" stroke-miterlimit="10" stroke-linecap="round" stroke-linejoin="round"/>
<path d="M111.725 109.672C114.946 110.524 118.707 109.834 121.168 107.943" stroke="#A8452C" stroke-miterlimit="10" stroke-linecap="round" stroke-linejoin="round"/>
<path d="M108.204 123.041C111.119 124.126 114.683 123.973 117.442 122.646" stroke="#A8452C" stroke-miterlimit="10" stroke-linecap="round" stroke-linejoin="round"/>
<path d="M104.55 131.472C106.401 133.438 109.563 134.532 112.59 134.254" stroke="#A8452C" stroke-miterlimit="10" stroke-linecap="round" stroke-linejoin="round"/>
<path d="M100.776 137.157C101.918 138.844 103.841 140.172 106.074 140.815" stroke="#A8452C" stroke-miterlimit="10" stroke-linecap="round" stroke-linejoin="round"/>
<path d="M95.2676 142.317C95.4996 143.925 96.5199 145.448 98.0545 146.48" stroke="#A8452C" stroke-miterlimit="10" stroke-linecap="round" stroke-linejoin="round"/>
<path d="M110.087 116.071C112.979 117.334 116.716 117.2 119.459 115.735" stroke="#A8452C" stroke-miterlimit="10" stroke-linecap="round" stroke-linejoin="round"/>
<path d="M112.574 103.646C116.029 103.97 119.644 102.696 121.717 100.425C122.02 100.093 122.239 99.5375 121.793 99.3394" stroke="#A8452C" stroke-miterlimit="10" stroke-linecap="round" stroke-linejoin="round"/>
<path d="M104.045 96.6704C102.516 94.9102 102.397 92.4132 103.755 90.5625" stroke="#A8452C" stroke-miterlimit="10" stroke-linecap="round" stroke-linejoin="round"/>
<path d="M28.2303 144.023L29.9073 146.785L33.6567 147.229L30.9435 149.378L31.5843 152.414L28.2303 150.98L24.8763 152.414L25.5171 149.378L22.804 147.229L26.5533 146.785L28.2303 144.023Z" stroke="#A8452C" stroke-miterlimit="10" stroke-linecap="round" stroke-linejoin="round"/>
<path d="M73.3971 128.689L75.0741 131.451L78.8235 131.895L76.1103 134.044L76.7511 137.08L73.3971 135.646L70.0439 137.08L70.6839 134.044L67.9707 131.895L71.7201 131.451L73.3971 128.689Z" stroke="#A8452C" stroke-miterlimit="10" stroke-linecap="round" stroke-linejoin="round"/>
<path d="M63.0377 149.567L64.7139 152.329L68.4641 152.771L65.7509 154.922L66.3909 157.957L63.0377 156.524L59.6837 157.957L60.3245 154.922L57.6113 152.771L61.3607 152.329L63.0377 149.567Z" stroke="#A8452C" stroke-miterlimit="10" stroke-linecap="round" stroke-linejoin="round"/>
<path d="M57.6114 199.011C73.7506 199.011 86.8341 197.182 86.8341 194.926C86.8341 192.669 73.7506 190.84 57.6114 190.84C41.4721 190.84 28.3887 192.669 28.3887 194.926C28.3887 197.182 41.4721 199.011 57.6114 199.011Z" stroke="#A8452C" stroke-width="2.1499" stroke-miterlimit="10" stroke-linecap="round" stroke-linejoin="round"/>
<path d="M28.3887 194.926C28.7262 194.952 28.0905 201.557 58.5177 201.905" stroke="#A8452C" stroke-width="1.4024" stroke-miterlimit="10" stroke-linecap="round" stroke-linejoin="round"/>
<path d="M87.1422 194.926C86.8046 194.952 87.4404 201.557 57.0132 201.905" stroke="#A8452C" stroke-width="2.1499" stroke-miterlimit="10" stroke-linecap="round" stroke-linejoin="round"/>
<path d="M51.7827 168.074V183.905" stroke="#A8452C" stroke-miterlimit="10" stroke-linecap="round" stroke-linejoin="round"/>
<path d="M76.5491 202.756C76.5491 202.756 87.9882 200.714 90.0204 194.926" stroke="#A8452C" stroke-miterlimit="10" stroke-linecap="round" stroke-linejoin="round"/>
<path d="M120.154 91.7656C120.742 92.1068 124.832 92.7877 124.358 98.4053C123.884 104.023 122.228 114.952 122.228 114.952" stroke="#A8452C" stroke-miterlimit="10" stroke-linecap="round" stroke-linejoin="round"/>
<path d="M91.0115 140.815C92.0527 140.962 102.353 134.972 103.904 128.689" stroke="#A8452C" stroke-width="0.6523" stroke-miterlimit="10" stroke-linecap="round" stroke-linejoin="round"/>
<path d="M91.0115 151.687C92.4715 151.858 109.641 145.959 114.773 136.736C119.905 127.515 121.167 122.646 121.167 122.646" stroke="#A8452C" stroke-miterlimit="10" stroke-linecap="round" stroke-linejoin="round"/>
<path d="M8.70532 134.297C9.33357 134.323 15.2391 146.754 18.3594 154.242C18.3594 154.242 23.0076 161.09 33.6568 162.602" stroke="#A8452C" stroke-miterlimit="10" stroke-linecap="round" stroke-linejoin="round"/>
<path d="M32.7195 78.0825C32.8706 78.0826 32.9921 78.1329 33.0671 78.1938C33.1407 78.2538 33.1569 78.3097 33.157 78.3442C33.157 78.3788 33.1411 78.4355 33.0671 78.4956C32.9921 78.5566 32.8706 78.6059 32.7195 78.606C32.5683 78.606 32.4469 78.5565 32.3718 78.4956C32.2978 78.4354 32.282 78.3788 32.282 78.3442C32.2821 78.3097 32.2981 78.2538 32.3718 78.1938C32.4468 78.1329 32.5683 78.0825 32.7195 78.0825Z" fill="black" stroke="#A8452C"/>
<path d="M89.209 20.5308C89.3604 20.5308 89.4818 20.5813 89.5566 20.6421C89.6299 20.7018 89.6464 20.7575 89.6465 20.7925C89.6465 20.827 89.6306 20.8837 89.5566 20.9438C89.4817 21.0048 89.3601 21.0542 89.209 21.0542C89.0578 21.0542 88.9363 21.0048 88.8613 20.9438C88.7873 20.8837 88.7715 20.827 88.7715 20.7925C88.7716 20.7579 88.7876 20.7021 88.8613 20.6421C88.9363 20.5811 89.0578 20.5308 89.209 20.5308Z" fill="black" stroke="#A8452C"/>
<path d="M63.0378 109.777C63.1892 109.777 63.3106 109.827 63.3855 109.888C63.4588 109.948 63.4753 110.004 63.4753 110.039C63.4753 110.073 63.4595 110.13 63.3855 110.19C63.3105 110.251 63.189 110.3 63.0378 110.3C62.8867 110.3 62.7652 110.251 62.6902 110.19C62.6162 110.13 62.6003 110.073 62.6003 110.039C62.6004 110.004 62.6164 109.948 62.6902 109.888C62.7652 109.827 62.8866 109.777 63.0378 109.777Z" fill="black" stroke="#A8452C"/>
<path d="M70.905 52.4653C71.0562 52.4654 71.1777 52.5157 71.2527 52.5767C71.3263 52.6366 71.3425 52.6925 71.3425 52.7271C71.3425 52.7616 71.3266 52.8183 71.2527 52.8784C71.1777 52.9394 71.0562 52.9887 70.905 52.9888C70.7539 52.9888 70.6324 52.9393 70.5574 52.8784C70.4834 52.8183 70.4675 52.7616 70.4675 52.7271C70.4676 52.6925 70.4836 52.6366 70.5574 52.5767C70.6324 52.5157 70.7538 52.4653 70.905 52.4653Z" fill="black" stroke="#A8452C"/>
<path d="M42.5577 109.085C40.239 106.715 39.9291 103.311 41.1806 100.459C41.4495 99.8455 41.787 99.2476 42.2511 98.7172C42.9857 97.879 44.0068 97.241 44.9936 96.5968C46.978 95.3017 48.9147 93.9011 50.2591 92.145C51.6036 90.3889 52.303 88.2147 51.6396 86.2175C51.2275 84.9769 50.3295 83.8881 49.6376 82.7333C48.9448 81.5784 48.449 80.2465 48.9105 79.0175C49.2866 78.0145 50.3169 77.1912 51.5567 76.9019" stroke="#A8452C" stroke-miterlimit="10" stroke-linecap="round" stroke-linejoin="round"/>
<path d="M86.4143 10.2793C86.0365 11.7269 84.8344 12.9213 83.8234 14.1517C81.3581 17.1532 79.8688 20.8526 80.7073 24.3968C81.5919 28.1371 84.9014 31.2394 86.0197 34.9382" stroke="#A8452C" stroke-width="0.6523" stroke-miterlimit="10" stroke-linecap="round" stroke-linejoin="round"/>
<path d="M67.762 89.4003C70.7365 89.3697 73.7621 88.2979 75.4827 86.3253C77.2033 84.3526 77.375 81.4703 75.5698 79.5487C74.6098 78.526 73.2076 77.8362 72.1588 76.8734C71.1352 75.9331 70.4827 74.7632 69.9885 73.5737C68.5728 70.167 68.3919 66.3021 70.2942 63.0562" stroke="#A8452C" stroke-miterlimit="10" stroke-linecap="round" stroke-linejoin="round"/>
<path d="M34.5018 116.201C30.3127 113.472 28.5695 108.514 30.3504 104.398C30.7608 103.448 31.3355 102.552 31.8824 101.649C33.2026 99.469 34.3946 97.1573 34.4482 94.7278C34.5052 92.1675 33.2227 89.6059 30.9828 87.8055C29.6032 86.697 27.798 85.7607 27.2837 84.2402" stroke="#A8452C" stroke-miterlimit="10" stroke-linecap="round" stroke-linejoin="round"/>
<path d="M60.5004 100.567C60.4284 100.767 60.4912 100.981 60.5691 101.179C61.0826 102.478 62.2302 103.533 63.2111 104.641C64.192 105.749 65.0573 107.052 64.863 108.408" stroke="#A8452C" stroke-width="0.6523" stroke-miterlimit="10" stroke-linecap="round" stroke-linejoin="round"/>
<path d="M69.4199 112.388C71.2745 113.42 73.6292 114.199 75.7376 113.568C76.2661 113.41 76.7511 113.17 77.2713 112.995C77.7404 112.837 78.2338 112.733 78.7314 112.651C80.3405 112.385 82.005 112.345 83.63 112.532" stroke="#A8452C" stroke-width="0.6523" stroke-miterlimit="10" stroke-linecap="round" stroke-linejoin="round"/>
<path d="M30.254 118.716C30.207 119.694 29.2739 120.471 28.4019 121.146C27.8365 121.583 27.266 122.024 26.6059 122.363C25.651 122.854 24.5444 123.113 23.4371 123.298C21.6905 123.589 19.9005 123.71 18.1179 123.655C17.8859 123.648 17.5718 123.559 17.6178 123.374" stroke="#A8452C" stroke-width="0.6523" stroke-miterlimit="10" stroke-linecap="round" stroke-linejoin="round"/>
<path d="M49.5488 137.767V143.868" stroke="#A8452C" stroke-width="0.6523" stroke-miterlimit="10" stroke-linecap="round" stroke-linejoin="round"/>
<path d="M45.7961 140.817H53.3016" stroke="#A8452C" stroke-width="0.6523" stroke-miterlimit="10" stroke-linecap="round" stroke-linejoin="round"/>
<path d="M46.8953 142.974L52.2027 138.66" stroke="#A8452C" stroke-width="0.6523" stroke-miterlimit="10" stroke-linecap="round" stroke-linejoin="round"/>
<path d="M46.8953 138.66L52.2027 142.974" stroke="#A8452C" stroke-width="0.6523" stroke-miterlimit="10" stroke-linecap="round" stroke-linejoin="round"/>
<path d="M78.9617 145.399V151.5" stroke="#A8452C" stroke-width="0.6523" stroke-miterlimit="10" stroke-linecap="round" stroke-linejoin="round"/>
<path d="M75.209 148.449H82.7136" stroke="#A8452C" stroke-width="0.6523" stroke-miterlimit="10" stroke-linecap="round" stroke-linejoin="round"/>
<path d="M76.3081 150.607L81.6147 146.292" stroke="#A8452C" stroke-width="0.6523" stroke-miterlimit="10" stroke-linecap="round" stroke-linejoin="round"/>
<path d="M76.3081 146.292L81.6147 150.607" stroke="#A8452C" stroke-width="0.6523" stroke-miterlimit="10" stroke-linecap="round" stroke-linejoin="round"/>
<path d="M19.5605 132.976V136.531" stroke="#A8452C" stroke-width="0.6523" stroke-miterlimit="10" stroke-linecap="round" stroke-linejoin="round"/>
<path d="M17.3733 134.753H21.7467" stroke="#A8452C" stroke-width="0.6523" stroke-miterlimit="10" stroke-linecap="round" stroke-linejoin="round"/>
<path d="M18.0142 136.01L21.1068 133.497" stroke="#A8452C" stroke-width="0.6523" stroke-miterlimit="10" stroke-linecap="round" stroke-linejoin="round"/>
<path d="M18.0142 133.497L21.1068 136.01" stroke="#A8452C" stroke-width="0.6523" stroke-miterlimit="10" stroke-linecap="round" stroke-linejoin="round"/>
</svg>
