<svg width="175" height="70" viewBox="0 0 175 70" fill="none" xmlns="http://www.w3.org/2000/svg">
<g clip-path="url(#clip0_3_1494)">
<path d="M97.4949 64.3216C113.087 57.6352 120.297 39.597 113.599 24.0321C106.901 8.46724 88.8311 1.26981 73.2391 7.9562C57.6471 14.6426 50.4372 32.6808 57.1352 48.2457C63.8332 63.8106 81.9029 71.008 97.4949 64.3216Z" stroke="#A8452C" stroke-width="2.1499" stroke-miterlimit="10" stroke-linecap="round" stroke-linejoin="round"/>
<path d="M145.697 53.2574C135.857 43.595 135.726 27.7993 145.405 17.9762C150.632 12.672 157.651 10.1995 164.551 10.5635C152.534 2.60237 136.174 3.98168 125.683 14.629C113.783 26.7061 113.943 46.1272 126.041 58.0065C137.224 68.9867 154.687 69.6727 166.664 60.1777C159.246 61.2015 151.449 58.9055 145.697 53.2574Z" stroke="#A8452C" stroke-width="2.1499" stroke-miterlimit="10" stroke-linecap="round" stroke-linejoin="round"/>
<path d="M24.9866 53.2574C34.8268 43.595 34.9573 27.7993 25.2781 17.9762C20.0512 12.672 13.0329 10.1995 6.13234 10.5635C18.1494 2.60237 34.5092 3.98168 45.0006 14.629C56.9006 26.7061 56.7403 46.1272 44.6421 58.0065C33.4592 68.9867 15.997 69.6727 4.01892 60.1777C11.4378 61.2015 19.2342 58.9055 24.9866 53.2574Z" stroke="#A8452C" stroke-width="2.1499" stroke-miterlimit="10" stroke-linecap="round" stroke-linejoin="round"/>
<path d="M3.36218 57.6741C3.36218 57.6741 19.4475 60.5149 28.475 43.0654" stroke="#A8452C" stroke-miterlimit="10" stroke-linecap="round" stroke-linejoin="round"/>
<path d="M166.876 57.6741C166.876 57.6741 150.791 60.5149 141.763 43.0654" stroke="#A8452C" stroke-miterlimit="10" stroke-linecap="round" stroke-linejoin="round"/>
<path d="M58.4768 43.0654C58.4768 43.0654 63.5579 63.9376 85.3701 63.9376" stroke="#A8452C" stroke-miterlimit="10" stroke-linecap="round" stroke-linejoin="round"/>
<path d="M112.263 28.505C112.263 28.505 106.851 8.45699 85.3695 7.63281" stroke="#A8452C" stroke-miterlimit="10" stroke-linecap="round" stroke-linejoin="round"/>
<path d="M23.3628 3.27127C23.3628 3.27127 42.8262 2.63518 50.9561 18.0693" stroke="#A8452C" stroke-miterlimit="10" stroke-linecap="round" stroke-linejoin="round"/>
<path d="M147.091 3.56326C147.091 3.56326 127.627 2.92717 119.498 18.3613" stroke="#A8452C" stroke-miterlimit="10" stroke-linecap="round" stroke-linejoin="round"/>
<path d="M47.4231 60.2324V66.11" stroke="#A8452C" stroke-miterlimit="10" stroke-linecap="round" stroke-linejoin="round"/>
<path d="M44.4786 63.1714H50.367" stroke="#A8452C" stroke-miterlimit="10" stroke-linecap="round" stroke-linejoin="round"/>
<path d="M8.70435 13.7959V24.12" stroke="#A8452C" stroke-miterlimit="10" stroke-linecap="round" stroke-linejoin="round"/>
<path d="M3.53296 18.958H13.875" stroke="#A8452C" stroke-miterlimit="10" stroke-linecap="round" stroke-linejoin="round"/>
<path d="M5.04761 15.3081L12.3604 22.6082" stroke="#A8452C" stroke-miterlimit="10" stroke-linecap="round" stroke-linejoin="round"/>
<path d="M5.04761 22.6082L12.3604 15.3081" stroke="#A8452C" stroke-miterlimit="10" stroke-linecap="round" stroke-linejoin="round"/>
<path d="M166.837 41.6479L166.915 52.938" stroke="#A8452C" stroke-miterlimit="10" stroke-linecap="round" stroke-linejoin="round"/>
<path d="M161.221 47.3318L172.53 47.2539" stroke="#A8452C" stroke-miterlimit="10" stroke-linecap="round" stroke-linejoin="round"/>
<path d="M162.85 43.3291L170.902 51.2568" stroke="#A8452C" stroke-miterlimit="10" stroke-linecap="round" stroke-linejoin="round"/>
<path d="M162.905 51.3116L170.847 43.2744" stroke="#A8452C" stroke-miterlimit="10" stroke-linecap="round" stroke-linejoin="round"/>
<path d="M119.498 2.52979V8.40735" stroke="#A8452C" stroke-miterlimit="10" stroke-linecap="round" stroke-linejoin="round"/>
<path d="M116.554 5.46875H122.442" stroke="#A8452C" stroke-miterlimit="10" stroke-linecap="round" stroke-linejoin="round"/>
<path d="M78.9415 33.0887L85.575 12.9805L91.5433 33.6597L109.023 36.4591L92.3561 43.5674L85.575 60.2323L78.9415 43.2746L60.8945 37.044L78.9415 33.0887Z" stroke="#A8452C" stroke-width="2.1499" stroke-miterlimit="10" stroke-linecap="round" stroke-linejoin="round"/>
<path d="M77.9085 38.7361L67.3237 20.3913L86.7396 29.7433L100.487 18.6084L94.6768 35.7462L102.593 51.9047L85.5115 45.5292L68.825 54.7978L77.9085 38.7361Z" stroke="#A8452C" stroke-width="2.1499" stroke-miterlimit="10" stroke-linecap="round" stroke-linejoin="round"/>
</g>
<defs>
<clipPath id="clip0_3_1494">
<rect width="175" height="70" fill="white"/>
</clipPath>
</defs>
</svg>
