<svg width="198" height="181" viewBox="0 0 198 181" fill="none" xmlns="http://www.w3.org/2000/svg">
<path d="M134.859 76.3764H145.326L156.903 27.9879L140.684 6.01855H45.1288C45.1288 6.01855 31.9607 27.2854 31.6227 27.9879L44.6224 76.3764H54.9204" stroke="#A8452C" stroke-width="2.1499" stroke-miterlimit="10" stroke-linecap="round" stroke-linejoin="round"/>
<path d="M73.3228 76.3765H116.879" stroke="#A8452C" stroke-width="2.1499" stroke-miterlimit="10" stroke-linecap="round" stroke-linejoin="round"/>
<path d="M65.7256 6.01855L55.4276 27.9879V89.4222L63.5311 97.9507L73.3227 90.1739V27.9879L82.7771 6.01855" stroke="#A8452C" stroke-width="2.1499" stroke-miterlimit="10" stroke-linecap="round" stroke-linejoin="round"/>
<path d="M124.476 6.01855L134.774 27.9879V89.4222L125.715 98.9572L116.879 90.1739V27.9879L107.425 6.01855" stroke="#A8452C" stroke-width="2.1499" stroke-miterlimit="10" stroke-linecap="round" stroke-linejoin="round"/>
<path d="M33.9863 28.0029H55.4275" stroke="#A8452C" stroke-width="2.1499" stroke-miterlimit="10" stroke-linecap="round" stroke-linejoin="round"/>
<path d="M74.9688 28.0029H115.233" stroke="#A8452C" stroke-width="2.1499" stroke-miterlimit="10" stroke-linecap="round" stroke-linejoin="round"/>
<path d="M31.6227 27.9878V117.391H156.903V28.003H135.462" stroke="#A8452C" stroke-width="2.1499" stroke-miterlimit="10" stroke-linecap="round" stroke-linejoin="round"/>
<path d="M66.7115 88.3306C66.7115 89.8242 65.5021 91.0353 64.0105 91.0353C62.519 91.0353 61.3096 89.8242 61.3096 88.3306C61.3096 86.837 62.519 85.626 64.0105 85.626C65.5021 85.626 66.7115 86.8363 66.7115 88.3306Z" stroke="#A8452C" stroke-width="2.1499" stroke-miterlimit="10" stroke-linecap="round" stroke-linejoin="round"/>
<path d="M128.866 88.3306C128.866 89.8242 127.657 91.0353 126.165 91.0353C124.674 91.0353 123.464 89.8242 123.464 88.3306C123.464 86.837 124.674 85.626 126.165 85.626C127.657 85.626 128.866 86.8363 128.866 88.3306Z" stroke="#A8452C" stroke-width="2.1499" stroke-miterlimit="10" stroke-linecap="round" stroke-linejoin="round"/>
<path d="M102.015 60.5165C106.297 56.2285 106.297 49.2763 102.015 44.9883C97.7324 40.7003 90.7897 40.7003 86.5076 44.9883C82.2255 49.2763 82.2254 56.2285 86.5076 60.5165C90.7897 64.8045 97.7324 64.8045 102.015 60.5165Z" stroke="#A8452C" stroke-width="2.1499" stroke-miterlimit="10" stroke-linecap="round" stroke-linejoin="round"/>
<path d="M103.434 62.9134C109.04 57.8425 109.48 49.1805 104.416 43.5664C99.3518 37.9523 90.7017 37.512 85.0952 42.5829C79.4888 47.6538 79.049 56.3158 84.113 61.9299C89.1771 67.544 97.8272 67.9844 103.434 62.9134Z" stroke="#A8452C" stroke-width="2.1499" stroke-miterlimit="10" stroke-linecap="round" stroke-linejoin="round"/>
<path d="M87.3138 61.2465L94.2631 41.7725L101.212 61.2465L84.428 47.8954H104.093L87.3138 61.2465Z" stroke="#A8452C" stroke-width="2.1499" stroke-miterlimit="10" stroke-linecap="round" stroke-linejoin="round"/>
<path d="M50.5314 76.3765V117.392" stroke="#A8452C" stroke-width="2.1499" stroke-miterlimit="10" stroke-linecap="round" stroke-linejoin="round"/>
<path d="M140.346 76.3765V117.392" stroke="#A8452C" stroke-width="2.1499" stroke-miterlimit="10" stroke-linecap="round" stroke-linejoin="round"/>
<path d="M156.903 28.0029C156.903 28.0029 162.293 52.4745 185.591 74.4515C208.889 96.4285 178.5 140.816 178.5 140.816C178.5 140.816 196.058 110.324 178.162 85.6252C160.267 60.927 161.641 62.6658 156.902 50.8076" stroke="#A8452C" stroke-width="1.4024" stroke-miterlimit="10" stroke-linecap="round" stroke-linejoin="round"/>
<path d="M178.5 140.816C178.5 140.816 172.085 191.1 90.3735 172.165C90.3735 172.165 47.1543 161.683 22.1683 139.199C22.1683 139.199 67.0757 157.668 116.879 156.295C166.683 154.922 178.5 140.816 178.5 140.816Z" stroke="#A8452C" stroke-width="2.1499" stroke-miterlimit="10" stroke-linecap="round" stroke-linejoin="round"/>
<path d="M31.6227 64.8019C29.5972 85.2445 23.8565 78.8467 18.1166 101.838C12.3767 124.83 22.1684 139.198 22.1684 139.198C22.1684 139.198 -7.38953 120.015 7.54878 83.4988C7.54878 83.4988 20.496 63.3401 26.5582 49.3582C26.5582 49.3582 31.3412 35.2872 31.6227 30.4409" stroke="#A8452C" stroke-width="2.1499" stroke-miterlimit="10" stroke-linecap="round" stroke-linejoin="round"/>
<path d="M164.715 52.4878C164.715 52.4878 173.758 66.5471 180.488 73.0278C187.218 79.5086 188.269 79.3939 189.32 85.6253" stroke="#A8452C" stroke-miterlimit="10" stroke-linecap="round" stroke-linejoin="round"/>
<path d="M161.725 163.715C161.725 163.715 146.822 175.375 119.871 174.057" stroke="#A8452C" stroke-miterlimit="10" stroke-linecap="round" stroke-linejoin="round"/>
<path d="M15.9276 74.7046C16.3877 73.8852 27.3681 58.4581 29.4957 48.7856" stroke="#A8452C" stroke-miterlimit="10" stroke-linecap="round" stroke-linejoin="round"/>
<path d="M33.9863 113.727V86.5503" stroke="#A8452C" stroke-miterlimit="10" stroke-linecap="round" stroke-linejoin="round"/>
<path d="M154.597 93.4589V63.6001" stroke="#A8452C" stroke-miterlimit="10" stroke-linecap="round" stroke-linejoin="round"/>
<path d="M34.8997 33.2402L40.5333 53.62" stroke="#A8452C" stroke-miterlimit="10" stroke-linecap="round" stroke-linejoin="round"/>
<path d="M133.095 36.6948V54.3112" stroke="#A8452C" stroke-miterlimit="10" stroke-linecap="round" stroke-linejoin="round"/>
<path d="M57.0909 29.3262V46.9426" stroke="#A8452C" stroke-miterlimit="10" stroke-linecap="round" stroke-linejoin="round"/>
<path d="M122.516 6.01855L127.23 15.7394" stroke="#A8452C" stroke-miterlimit="10" stroke-linecap="round" stroke-linejoin="round"/>
<path d="M76.2934 15.7394L80.7777 6.01855" stroke="#A8452C" stroke-miterlimit="10" stroke-linecap="round" stroke-linejoin="round"/>
<path d="M44.7072 78.2734H54.1015" stroke="#A8452C" stroke-miterlimit="10" stroke-linecap="round" stroke-linejoin="round"/>
<path d="M136.774 78.2734H145.044" stroke="#A8452C" stroke-miterlimit="10" stroke-linecap="round" stroke-linejoin="round"/>
<path d="M65.1399 99.561L74.9688 91.0353V78.2734H115.233" stroke="#A8452C" stroke-miterlimit="10" stroke-linecap="round" stroke-linejoin="round"/>
<path d="M127.346 100.139C127.575 99.5619 136.775 89.8901 136.775 89.8901V81.8301" stroke="#A8452C" stroke-miterlimit="10" stroke-linecap="round" stroke-linejoin="round"/>
<path d="M142.178 113.727V103.821" stroke="#A8452C" stroke-miterlimit="10" stroke-linecap="round" stroke-linejoin="round"/>
<path d="M48.9274 115.109V105.203" stroke="#A8452C" stroke-miterlimit="10" stroke-linecap="round" stroke-linejoin="round"/>
<path d="M18.8024 91.8472C18.8024 91.8472 10.0634 112.342 16.5029 130.073" stroke="#A8452C" stroke-miterlimit="10" stroke-linecap="round" stroke-linejoin="round"/>
<path d="M60.0809 152.525C60.0809 152.525 97.7954 162.773 134.774 157.131" stroke="#A8452C" stroke-miterlimit="10" stroke-linecap="round" stroke-linejoin="round"/>
<path d="M179.318 84.4102C179.318 84.4102 191.851 96.3375 186.561 121.323" stroke="#A8452C" stroke-miterlimit="10" stroke-linecap="round" stroke-linejoin="round"/>
</svg>
