<svg width="98" height="266" viewBox="0 0 98 266" fill="none" xmlns="http://www.w3.org/2000/svg">
<path d="M38.7659 37.7452L34.3816 36.655L34.2401 33.8518L48.5702 36.9665L61.535 32.7616V35.8764L48.3995 40.237L38.7659 37.7452Z" stroke="black" stroke-width="1.9835" stroke-miterlimit="10" stroke-linecap="round" stroke-linejoin="round"/>
<path d="M42.9495 35.046V24.411H51.6768H52.9797V34.6399" stroke="black" stroke-width="1.9571" stroke-miterlimit="10" stroke-linecap="round" stroke-linejoin="round"/>
<path d="M58.5811 32.8464V18.6549L53.274 24.2621L47.4361 3.53528L43.0578 24.2621L37.0876 20.2565V33.8506" stroke="black" stroke-width="1.9571" stroke-miterlimit="10" stroke-linecap="round" stroke-linejoin="round"/>
<path d="M58.5811 18.6549L47.4361 3.53528L37.0876 20.2565" stroke="black" stroke-width="1.9571" stroke-miterlimit="10" stroke-linecap="round" stroke-linejoin="round"/>
<path d="M73.7935 94.6033H26.8468V99.4698H73.7935V94.6033Z" stroke="black" stroke-width="1.9505" stroke-miterlimit="10" stroke-linecap="round" stroke-linejoin="round"/>
<path d="M36.5029 37.7976L36.4823 85.064" stroke="black" stroke-width="2.2405" stroke-miterlimit="10" stroke-linecap="round" stroke-linejoin="round"/>
<path d="M59.5079 37.2781L59.5418 85.3232" stroke="black" stroke-width="2.2405" stroke-miterlimit="10" stroke-linecap="round" stroke-linejoin="round"/>
<path d="M38.2264 85.1419C38.2264 85.1419 33.2435 85.7648 24.2743 80.0543C15.3051 74.3437 8.77224 82.2346 8.77224 82.2346C8.77224 82.2346 2.57155 82.0271 4.89689 86.8027C4.89689 86.8027 7.00099 91.0593 13.8661 87.4256C20.7311 83.792 31.4722 91.3577 32.801 94.265" stroke="black" stroke-width="2.2405" stroke-miterlimit="10" stroke-linecap="round" stroke-linejoin="round"/>
<path d="M57.8523 86.3335C59.4754 85.0098 61.6944 84.5743 63.8145 84.2317C67.6586 83.6112 71.5944 83.1409 75.4492 83.6972C79.3046 84.2535 83.1161 85.9573 85.3684 88.9431C87.0918 91.2274 87.7755 94.0494 89.1534 96.5312C89.3374 96.8627 89.5421 97.1972 89.8563 97.427C90.2702 97.7298 90.8177 97.8108 91.2927 98.0207C92.8188 98.6935 93.2912 100.751 92.3903 102.088C91.4894 103.425 89.5494 103.954 87.9269 103.523C86.3045 103.092 85.0236 101.844 84.3326 100.402C83.9034 99.5058 83.6762 98.5353 83.2636 97.6326C82.1176 95.1246 79.5305 93.3012 76.6836 92.7369C73.8367 92.1725 70.6151 92.5263 68.2619 94.4213" stroke="black" stroke-width="2.2405" stroke-miterlimit="10" stroke-linecap="round" stroke-linejoin="round"/>
<path d="M49.964 99.7289V185.956C49.964 185.956 49.853 188.552 48.414 190.212C46.9743 191.874 45.5352 196.338 48.414 201.218C51.2928 206.098 50.7393 209.939 49.6318 212.743C48.5243 215.546 47.5277 218.349 50.8496 222.503C54.1715 226.656 50.2962 231.951 50.2962 231.951C50.2962 231.951 48.1921 234.547 49.7428 238.18C51.2928 241.814 53.3969 244.929 52.8434 249.497C52.29 254.066 53.6188 259.672 55.501 261.126" stroke="black" stroke-width="1.9505" stroke-miterlimit="10" stroke-linecap="round" stroke-linejoin="round"/>
<path d="M34.1291 99.6771V150.448L36.0113 153.562L29.2565 156.262L36.1215 158.338L32.2462 161.037L37.1181 163.944L31.8031 166.229L35.4572 168.825C35.4572 168.825 35.2359 184.294 35.014 185.852" stroke="black" stroke-width="1.9505" stroke-miterlimit="10" stroke-linecap="round" stroke-linejoin="round"/>
<path d="M64.5805 99.6771V150.448L62.6983 153.562L69.4531 156.262L62.588 158.338L66.4634 161.037L61.5914 163.944L66.9065 166.229L63.2524 168.825C63.2524 168.825 63.4736 184.294 63.6955 185.852" stroke="black" stroke-width="1.9505" stroke-miterlimit="10" stroke-linecap="round" stroke-linejoin="round"/>
<path d="M35.0154 185.852C32.4177 189.229 31.853 193.892 33.5764 197.729C34.7098 200.252 36.7953 202.667 36.3535 205.373C36.0698 207.111 34.7649 208.565 34.3331 210.275C33.5232 213.483 35.901 216.577 38.2609 219.021C40.6215 221.465 43.2817 224.183 43.1754 227.479C43.1056 229.652 41.8134 231.613 41.2719 233.727C40.2381 237.765 42.0047 241.934 43.9361 245.67C46.2448 250.136 48.8439 254.47 51.7134 258.641C52.7365 260.128 53.662 260.727 55.501 261.125" stroke="black" stroke-width="1.9505" stroke-miterlimit="10" stroke-linecap="round" stroke-linejoin="round"/>
<path d="M63.6942 185.852C65.5418 190.265 62.2844 195.055 61.8186 199.776C61.5396 202.606 60.0999 205.868 60.7603 208.642C62.2372 214.847 65.7996 220.283 62.4764 225.825C61.6226 227.249 60.2095 229.533 59.5896 231.059C58.2927 234.253 59.4295 237.793 59.9304 241.177C60.927 247.913 54.0055 249.03 55.5003 261.125" stroke="black" stroke-width="1.9505" stroke-miterlimit="10" stroke-linecap="round" stroke-linejoin="round"/>
<path d="M36.9209 55.1411C36.9209 55.1411 41.5164 56.7371 46.6561 55.8768" stroke="black" stroke-width="0.9227" stroke-miterlimit="10" stroke-linecap="round" stroke-linejoin="round"/>
<path d="M36.5834 58.4329C36.5834 58.4329 39.8495 60.0407 43.6205 59.1991" stroke="black" stroke-width="0.9227" stroke-miterlimit="10" stroke-linecap="round" stroke-linejoin="round"/>
<path d="M43.2916 39.3026V55.4993" stroke="black" stroke-width="0.9227" stroke-miterlimit="10" stroke-linecap="round" stroke-linejoin="round"/>
<path d="M43.1501 60.1715V82.9092" stroke="black" stroke-width="0.9227" stroke-miterlimit="10" stroke-linecap="round" stroke-linejoin="round"/>
<path d="M52.7671 39.3026V83.8436" stroke="black" stroke-width="0.9227" stroke-miterlimit="10" stroke-linecap="round" stroke-linejoin="round"/>
<path d="M34.1292 126.776L44.9254 114.161" stroke="black" stroke-miterlimit="10" stroke-linecap="round" stroke-linejoin="round"/>
<path d="M34.7935 131.136L45.5897 118.521" stroke="black" stroke-miterlimit="10" stroke-linecap="round" stroke-linejoin="round"/>
<path d="M37.7832 137.521L43.9288 131.292" stroke="black" stroke-miterlimit="10" stroke-linecap="round" stroke-linejoin="round"/>
<path d="M34.4613 102.48H39.6103" stroke="black" stroke-miterlimit="10" stroke-linecap="round" stroke-linejoin="round"/>
<path d="M55.0571 102.325H64.3585" stroke="black" stroke-miterlimit="10" stroke-linecap="round" stroke-linejoin="round"/>
<path d="M57.0503 104.505H64.1924" stroke="black" stroke-miterlimit="10" stroke-linecap="round" stroke-linejoin="round"/>
<path d="M38.2629 185.704C37.0817 188.844 35.8911 192.253 36.9435 195.433C37.3959 196.799 38.2377 198.02 38.8416 199.334C39.7166 201.237 40.0833 203.344 39.9006 205.409C39.7193 207.455 39.0097 209.486 39.2974 211.522C39.9073 215.832 44.7566 218.851 45.1958 223.181" stroke="black" stroke-miterlimit="10" stroke-linecap="round" stroke-linejoin="round"/>
<path d="M61.8671 121.169V148.116" stroke="black" stroke-miterlimit="10" stroke-linecap="round" stroke-linejoin="round"/>
<path d="M34.2952 148.735C34.9595 148.423 39.4441 143.284 39.4441 143.284" stroke="black" stroke-miterlimit="10" stroke-linecap="round" stroke-linejoin="round"/>
<path d="M52.8979 148.423V182.374C53.7038 184.707 53.543 187.058 52.6687 189.37C52.1398 190.768 51.31 192.088 51.0994 193.558C50.7287 196.142 52.3046 198.564 53.4407 200.942C54.5821 203.331 55.3249 206.014 54.7004 208.565C54.3263 210.093 53.4839 211.484 52.9796 212.979C52.4747 214.474 52.3571 216.228 53.3357 217.5" stroke="black" stroke-miterlimit="10" stroke-linecap="round" stroke-linejoin="round"/>
<path d="M55.0479 228.645C54.7589 231.252 52.1718 233.349 52.2322 235.969C52.2714 237.682 53.4401 239.161 54.1503 240.739C54.8592 242.314 55.1216 244.065 54.9024 245.762" stroke="black" stroke-miterlimit="10" stroke-linecap="round" stroke-linejoin="round"/>
<path d="M8.88258 85.4533C8.88258 85.8545 8.53577 86.1803 8.10724 86.1803C7.67872 86.1803 7.33191 85.8551 7.33191 85.4533C7.33191 85.0521 7.67872 84.7263 8.10724 84.7263C8.53577 84.7263 8.88258 85.0515 8.88258 85.4533Z" fill="black"/>
<path d="M89.6051 100.508C89.6051 100.909 89.2583 101.234 88.8298 101.234C88.4019 101.234 88.0544 100.909 88.0544 100.508C88.0544 100.106 88.4013 99.7805 88.8298 99.7805C89.2583 99.7811 89.6051 100.106 89.6051 100.508Z" fill="black"/>
<path d="M67.8193 91.3564C68.5183 90.916 69.2172 90.4749 69.9161 90.0345C70.1354 89.8962 70.3546 89.7585 70.5845 89.6371C71.4455 89.1836 72.4534 88.9805 73.4367 89.0621" stroke="black" stroke-miterlimit="10" stroke-linecap="round" stroke-linejoin="round"/>
<path d="M76.4297 89.4434C77.3911 89.6053 78.3106 89.9828 79.0905 90.5348" stroke="black" stroke-miterlimit="10" stroke-linecap="round" stroke-linejoin="round"/>
<path d="M12.5181 85.3761C13.1359 84.968 13.8136 84.6404 14.5272 84.4061" stroke="black" stroke-miterlimit="10" stroke-linecap="round" stroke-linejoin="round"/>
<path d="M16.1754 83.6336C19.1439 82.888 22.4764 83.5576 24.8582 85.3785" stroke="black" stroke-miterlimit="10" stroke-linecap="round" stroke-linejoin="round"/>
</svg>
