<svg width="97" height="152" viewBox="0 0 97 152" fill="none" xmlns="http://www.w3.org/2000/svg">
<path d="M15.5919 13.0945C15.5919 13.0945 69.9851 -14.8204 92.0311 56.7347C92.0311 56.7347 55.8206 17.5156 22.5146 30.0009L15.5919 13.0945Z" stroke="#A8452C" stroke-width="2.5736" stroke-miterlimit="10" stroke-linecap="round" stroke-linejoin="round"/>
<path d="M14.3845 10.1789L6.5697 13.2461L16.1165 37.5472L23.9314 34.4799L14.3845 10.1789Z" stroke="#A8452C" stroke-width="2.5736" stroke-miterlimit="10" stroke-linecap="round" stroke-linejoin="round"/>
<path d="M22.7244 35.145L17.7557 37.0952L55.1054 132.167L60.0741 130.217L22.7244 35.145Z" stroke="#A8452C" stroke-width="2.5736" stroke-miterlimit="10" stroke-linecap="round" stroke-linejoin="round"/>
<path d="M64.9111 148.841C64.9111 148.841 56.1886 142.838 52.614 142.409C52.614 142.409 55.6029 134.073 55.1097 132.167L60.0786 130.216C60.0786 130.216 66.4844 134.834 68.629 135.549C68.629 135.549 64.9111 144.553 64.9111 148.841Z" stroke="#A8452C" stroke-width="2.5736" stroke-miterlimit="10" stroke-linecap="round" stroke-linejoin="round"/>
<path d="M19.947 20.8331C19.947 20.8331 60.6957 1.64417 90.6687 54.6302" stroke="#A8452C" stroke-width="1.1432" stroke-miterlimit="10" stroke-linecap="round" stroke-linejoin="round"/>
<path d="M42.2694 20.5005L39.984 27.0465" stroke="#A8452C" stroke-width="1.1432" stroke-miterlimit="10" stroke-linecap="round" stroke-linejoin="round"/>
<path d="M46.754 23.4502L44.5868 28.5807" stroke="#A8452C" stroke-width="1.0045" stroke-miterlimit="10" stroke-linecap="round" stroke-linejoin="round"/>
<path d="M65.0275 15.3936L62.7427 21.9396" stroke="#A8452C" stroke-width="1.1432" stroke-miterlimit="10" stroke-linecap="round" stroke-linejoin="round"/>
<path d="M69.5121 18.3438L67.3455 23.4742" stroke="#A8452C" stroke-width="1.0045" stroke-miterlimit="10" stroke-linecap="round" stroke-linejoin="round"/>
<path d="M8.44775 17.6811C9.66057 18.1015 11.0079 17.9094 12.2245 17.4985C12.936 17.2583 13.6225 16.9461 14.2834 16.5896C14.9267 16.2424 15.632 15.6957 15.5588 14.9683" stroke="#A8452C" stroke-width="1.0045" stroke-miterlimit="10" stroke-linecap="round" stroke-linejoin="round"/>
<path d="M10.3058 22.2314C11.5186 22.6518 12.866 22.4591 14.0825 22.0488C14.7941 21.8086 15.4806 21.4964 16.1414 21.1399C16.7848 20.7927 17.49 20.246 17.4168 19.5186" stroke="#A8452C" stroke-width="1.0045" stroke-miterlimit="10" stroke-linecap="round" stroke-linejoin="round"/>
<path d="M11.9779 27.3378C13.1907 27.7582 14.5381 27.5655 15.7546 27.1552C16.4662 26.915 17.1527 26.6029 17.8135 26.2463C18.4569 25.8992 19.1622 25.3525 19.0889 24.625" stroke="#A8452C" stroke-width="1.0045" stroke-miterlimit="10" stroke-linecap="round" stroke-linejoin="round"/>
<path d="M13.8353 31.9799C15.0481 32.4003 16.3955 32.2083 17.6121 31.7973C18.3236 31.5571 19.0101 31.245 19.671 30.8884C20.3143 30.5413 21.0196 29.9946 20.9464 29.2671" stroke="#A8452C" stroke-width="1.0045" stroke-miterlimit="10" stroke-linecap="round" stroke-linejoin="round"/>
<path d="M24.9014 53.6401L26.8834 46.9546" stroke="#A8452C" stroke-width="1.0045" stroke-miterlimit="10" stroke-linecap="round" stroke-linejoin="round"/>
<path d="M28.6169 63.0486L30.5988 56.3638" stroke="#A8452C" stroke-width="1.0045" stroke-miterlimit="10" stroke-linecap="round" stroke-linejoin="round"/>
<path d="M32.209 72.0858L34.1903 65.4009" stroke="#A8452C" stroke-width="1.0045" stroke-miterlimit="10" stroke-linecap="round" stroke-linejoin="round"/>
<path d="M35.9244 81.4944L37.9063 74.8096" stroke="#A8452C" stroke-width="1.0045" stroke-miterlimit="10" stroke-linecap="round" stroke-linejoin="round"/>
<path d="M39.6404 91.1508L41.6217 84.4653" stroke="#A8452C" stroke-width="1.0045" stroke-miterlimit="10" stroke-linecap="round" stroke-linejoin="round"/>
<path d="M43.3558 100.559L45.3378 93.8745" stroke="#A8452C" stroke-width="1.0045" stroke-miterlimit="10" stroke-linecap="round" stroke-linejoin="round"/>
<path d="M46.948 109.845L48.9293 103.159" stroke="#A8452C" stroke-width="1.0045" stroke-miterlimit="10" stroke-linecap="round" stroke-linejoin="round"/>
<path d="M50.6634 119.253L52.6453 112.568" stroke="#A8452C" stroke-width="1.0045" stroke-miterlimit="10" stroke-linecap="round" stroke-linejoin="round"/>
<path d="M28.0286 31.944C28.0286 31.944 35.4601 29.1586 45.4924 32.1298" stroke="#A8452C" stroke-width="1.0045" stroke-miterlimit="10" stroke-linecap="round" stroke-linejoin="round"/>
<path d="M81.8135 28.3232C81.8135 28.3232 87.8513 35.7512 90.9171 45.1289" stroke="#A8452C" stroke-width="1.0045" stroke-miterlimit="10" stroke-linecap="round" stroke-linejoin="round"/>
<path d="M7.31378 9.93945L3.04077 11.6108L6.4777 21.0811" stroke="#A8452C" stroke-width="1.0045" stroke-miterlimit="10" stroke-linecap="round" stroke-linejoin="round"/>
<path d="M18.1177 45.3389L24.9346 62.8383" stroke="#A8452C" stroke-width="1.0045" stroke-miterlimit="10" stroke-linecap="round" stroke-linejoin="round"/>
<path d="M43.7563 111.912L50.5726 129.41" stroke="#A8452C" stroke-width="1.0045" stroke-miterlimit="10" stroke-linecap="round" stroke-linejoin="round"/>
<path d="M44.006 81.4326L49.7653 96.1028" stroke="#A8452C" stroke-width="1.0045" stroke-miterlimit="10" stroke-linecap="round" stroke-linejoin="round"/>
<path d="M41.6837 4.83252C41.6837 4.83252 56.7325 4.83252 65.6496 12.1673" stroke="#A8452C" stroke-width="1.0045" stroke-miterlimit="10" stroke-linecap="round" stroke-linejoin="round"/>
<path d="M68.3437 149.769C68.3437 149.769 68.5296 141.784 72.0597 137.606" stroke="#A8452C" stroke-width="1.0045" stroke-miterlimit="10" stroke-linecap="round" stroke-linejoin="round"/>
<path d="M72.524 50.9862C72.524 50.9862 74.516 50.133 74.3264 46.1504C74.3264 46.1504 74.9904 50.7967 76.9829 50.8918C76.9829 50.8918 74.4215 51.8401 74.8959 55.4437C74.8959 55.4437 74.516 51.5555 72.524 50.9862Z" stroke="#A8452C" stroke-width="1.1432" stroke-miterlimit="10" stroke-linecap="round" stroke-linejoin="round"/>
<path d="M79.7697 16.4467C79.7697 16.4467 81.7622 15.5935 81.572 11.6108C81.572 11.6108 82.236 16.2572 84.2285 16.3522C84.2285 16.3522 81.6671 17.3005 82.1415 20.9041C82.1415 20.9041 81.7616 17.0159 79.7697 16.4467Z" stroke="#A8452C" stroke-width="1.1432" stroke-miterlimit="10" stroke-linecap="round" stroke-linejoin="round"/>
</svg>
