<svg width="94" height="142" viewBox="0 0 94 142" fill="none" xmlns="http://www.w3.org/2000/svg">
<g clip-path="url(#clip0_1_725)">
<path d="M19.0881 49.1133C19.0881 49.1133 13.2 73.1619 45.4158 120.223C45.4158 120.223 79.2784 73.7451 72.1775 49.238L19.0881 49.1133Z" stroke="black" stroke-width="2" stroke-miterlimit="10" stroke-linecap="round" stroke-linejoin="round"/>
<path d="M19.5637 60.7191C19.5637 60.7191 35.8436 50.7327 44.448 65.4418C44.448 65.4418 58.5733 49.3065 72.7326 62.5014" stroke="black" stroke-width="2" stroke-miterlimit="10" stroke-linecap="round" stroke-linejoin="round"/>
<path d="M44.4479 65.4419L45.3392 120.223" stroke="black" stroke-width="2" stroke-miterlimit="10" stroke-linecap="round" stroke-linejoin="round"/>
<path d="M72.1775 49.2372C79.8054 44.8206 80.656 40.5731 80.656 40.5731C38.8525 46.0176 10.0438 40.6375 10.0438 40.6375C10.0438 40.6375 9.88005 46.0232 19.0871 49.1125" stroke="black" stroke-width="2" stroke-miterlimit="10" stroke-linecap="round" stroke-linejoin="round"/>
<path d="M10.0438 40.6383L31.489 34.1728C31.489 34.1728 44.0712 39.6803 60.0982 33.6671L80.7665 40.4561" stroke="black" stroke-width="2" stroke-miterlimit="10" stroke-linecap="round" stroke-linejoin="round"/>
<path d="M31.954 34.1049L35.2865 8.39526" stroke="black" stroke-width="2" stroke-miterlimit="10" stroke-linecap="round" stroke-linejoin="round"/>
<path d="M60.0981 33.6664L54.0676 8.53174" stroke="black" stroke-width="2" stroke-miterlimit="10" stroke-linecap="round" stroke-linejoin="round"/>
<path d="M54.0637 8.17083C53.9921 6.65455 49.7325 5.52547 44.5477 5.65016C39.363 5.77484 35.2177 7.10479 35.2894 8.62177C35.3601 10.138 39.6206 11.2671 44.8054 11.1424C49.9901 11.0178 54.1354 9.68711 54.0637 8.17083Z" stroke="black" stroke-width="1.9571" stroke-miterlimit="10" stroke-linecap="round" stroke-linejoin="round"/>
<path d="M34.0756 17.6149C41.1097 19.2101 48.8287 19.2233 55.8734 17.6516" stroke="black" stroke-miterlimit="10" stroke-linecap="round" stroke-linejoin="round"/>
<path d="M33.6997 19.7518C41.13 21.9511 49.7354 22.0425 57.2539 20.0019" stroke="black" stroke-miterlimit="10" stroke-linecap="round" stroke-linejoin="round"/>
<path d="M32.9576 26.7659C40.9275 28.2774 49.6172 28.1984 57.498 26.5436" stroke="black" stroke-width="1.0611" stroke-miterlimit="10" stroke-linecap="round" stroke-linejoin="round"/>
<path d="M32.603 28.9069C41.0379 31.0176 50.7283 31.0065 59.1274 28.8765" stroke="black" stroke-width="1.0611" stroke-miterlimit="10" stroke-linecap="round" stroke-linejoin="round"/>
<path d="M48.2745 67.4458V83.8146" stroke="black" stroke-miterlimit="10" stroke-linecap="round" stroke-linejoin="round"/>
<path d="M22.1183 62.4238C22.1183 62.4238 25.7511 59.8263 30.5948 60.3458" stroke="black" stroke-miterlimit="10" stroke-linecap="round" stroke-linejoin="round"/>
<path d="M50.6964 56.8852C50.6964 56.8852 60.6261 51.6159 69.3448 56.8464" stroke="black" stroke-width="1.0611" stroke-miterlimit="10" stroke-linecap="round" stroke-linejoin="round"/>
<path d="M45.4012 123.395V138.251" stroke="black" stroke-width="2" stroke-miterlimit="10" stroke-linecap="round" stroke-linejoin="round"/>
<path d="M48.3259 122.658L57.3934 130.627" stroke="black" stroke-width="2" stroke-miterlimit="10" stroke-linecap="round" stroke-linejoin="round"/>
<path d="M42.1762 122.608L33.286 130.677" stroke="black" stroke-width="2" stroke-miterlimit="10" stroke-linecap="round" stroke-linejoin="round"/>
<path d="M49.9854 120.39H56.7879" stroke="black" stroke-width="2" stroke-miterlimit="10" stroke-linecap="round" stroke-linejoin="round"/>
<path d="M34.3303 120.39H41.1319" stroke="black" stroke-width="2" stroke-miterlimit="10" stroke-linecap="round" stroke-linejoin="round"/>
<path d="M83.8761 68.9178C83.8761 68.9178 87.8722 68.1385 88.2355 63.9824C88.2355 63.9824 89.3253 68.4849 92.837 68.9178C92.837 68.9178 88.3566 70.3897 88.3566 74.719C88.3566 74.719 87.8722 69.6105 83.8761 68.9178Z" stroke="black" stroke-width="1.0611" stroke-miterlimit="10" stroke-linecap="round" stroke-linejoin="round"/>
<path d="M13.6476 91.4313C13.6476 91.4313 17.6437 90.6521 18.007 86.496C18.007 86.496 19.0968 90.9984 22.6085 91.4313C22.6085 91.4313 18.1281 92.9033 18.1281 97.2326C18.1281 97.2326 17.6437 92.124 13.6476 91.4313Z" stroke="black" stroke-width="1.0611" stroke-miterlimit="10" stroke-linecap="round" stroke-linejoin="round"/>
<path d="M57.499 11.5983L59.1274 19.6687" stroke="black" stroke-miterlimit="10" stroke-linecap="round" stroke-linejoin="round"/>
<path d="M60.0206 103.767C60.0206 103.767 64.5011 96.7463 66.1964 92.8326" stroke="black" stroke-miterlimit="10" stroke-linecap="round" stroke-linejoin="round"/>
<path d="M52.6387 38.1002C55.5014 38.0247 58.3253 37.321 60.6338 36.1088" stroke="black" stroke-miterlimit="10" stroke-linecap="round" stroke-linejoin="round"/>
<path d="M13.8035 43.0862C13.8035 43.0862 16.6061 46.2032 19.5637 46.8384H26.0737" stroke="black" stroke-miterlimit="10" stroke-linecap="round" stroke-linejoin="round"/>
<path d="M26.9436 79.6169C26.9436 79.6169 30.2964 89.1081 31.3398 90.6798" stroke="black" stroke-miterlimit="10" stroke-linecap="round" stroke-linejoin="round"/>
<path d="M32.048 92.5555L33.3393 95.4994" stroke="black" stroke-miterlimit="10" stroke-linecap="round" stroke-linejoin="round"/>
</g>
<defs>
<clipPath id="clip0_1_725">
<rect width="93" height="142" fill="white" transform="translate(0.0649414)"/>
</clipPath>
</defs>
</svg>
