<svg width="167" height="191" viewBox="0 0 167 191" fill="none" xmlns="http://www.w3.org/2000/svg">
<path d="M75.9992 116.528H18.9657V123.288H75.9992V116.528Z" stroke="#A8452C" stroke-width="2.1499" stroke-miterlimit="10" stroke-linecap="round" stroke-linejoin="round"/>
<path d="M18.9657 123.288L4.42773 138.714V173.629L18.9657 186.06H77.4902L93.18 172.706V138.714L75.528 123.689" stroke="#A8452C" stroke-width="2.1499" stroke-miterlimit="10" stroke-linecap="round" stroke-linejoin="round"/>
<path d="M4.42773 138.713L18.9657 145.497H75.9992L93.18 138.713" stroke="#A8452C" stroke-width="2.1499" stroke-miterlimit="10" stroke-linecap="round" stroke-linejoin="round"/>
<path d="M18.9657 186.06V145.497L34.6219 123.288" stroke="#A8452C" stroke-width="2.1499" stroke-miterlimit="10" stroke-linecap="round" stroke-linejoin="round"/>
<path d="M77.1174 186.06V145.497L61.4612 123.288" stroke="#A8452C" stroke-width="2.1499" stroke-miterlimit="10" stroke-linecap="round" stroke-linejoin="round"/>
<path d="M25.1753 155.066C24.1144 154.519 22.8038 154.483 21.5602 154.452C16.3497 154.326 10.9878 153.992 6.3125 152.051C5.38133 151.664 4.33832 150.87 4.78266 150.079C4.96904 149.747 5.37462 149.547 5.76677 149.384C11.4194 147.037 18.2798 148.395 24.3343 146.92C26.3413 146.432 28.2223 145.639 30.1696 145.002C38.6986 142.212 48.2593 142.494 57.2125 144.084C59.2522 144.446 61.298 144.876 63.3825 144.869C68.0697 144.852 72.2917 142.668 76.6396 141.193C81.168 139.657 86.0468 138.86 90.9278 138.856C91.311 138.856 91.7062 138.863 92.0551 138.997C92.647 139.223 92.9795 139.77 93.1063 140.307C93.4283 141.673 92.6769 143.093 91.5325 144.098C90.3881 145.103 88.8925 145.764 87.4119 146.382C79.7202 149.591 71.6654 152.131 63.6263 154.666C60.504 155.65 57.3541 156.642 54.0588 157.069C49.2076 157.698 44.2118 157.083 39.3718 157.779C36.9518 158.128 32.4435 159.762 30.2606 158.522C29.767 158.242 29.3264 157.328 28.683 156.936C27.655 156.31 26.2802 155.635 25.1753 155.066Z" stroke="#A8452C" stroke-miterlimit="10" stroke-linecap="round" stroke-linejoin="round"/>
<path d="M11.2307 135.159L18.1269 127.941" stroke="#A8452C" stroke-width="1.4024" stroke-miterlimit="10" stroke-linecap="round" stroke-linejoin="round"/>
<path d="M59.9701 125.482C60.0633 125.72 69.2893 139.363 69.2893 139.363" stroke="#A8452C" stroke-width="2.1499" stroke-miterlimit="10" stroke-linecap="round" stroke-linejoin="round"/>
<path d="M82.8021 132.423C83.0817 132.701 87.9277 136.667 87.9277 136.667" stroke="#A8452C" stroke-width="1.4024" stroke-miterlimit="10" stroke-linecap="round" stroke-linejoin="round"/>
<path d="M6.85071 159.352V169.266" stroke="#A8452C" stroke-width="1.4024" stroke-miterlimit="10" stroke-linecap="round" stroke-linejoin="round"/>
<path d="M22.2274 171.677V180.799C22.2274 180.799 23.0661 183.734 26.7938 183.892H35.4607" stroke="#A8452C" stroke-width="1.4024" stroke-miterlimit="10" stroke-linecap="round" stroke-linejoin="round"/>
<path d="M74.4149 153.006V165.459" stroke="#A8452C" stroke-width="1.4024" stroke-miterlimit="10" stroke-linecap="round" stroke-linejoin="round"/>
<path d="M90.8167 157.607V167.125C90.8167 167.125 91.2827 170.377 89.4188 172.36L85.2483 175.91" stroke="#A8452C" stroke-width="1.4024" stroke-miterlimit="10" stroke-linecap="round" stroke-linejoin="round"/>
<path d="M75.9992 60.1496L51.7692 92.1945L43.4438 99.4918L47.4824 89.6563L105.821 21.7593" stroke="#A8452C" stroke-width="2.1499" stroke-miterlimit="10" stroke-linecap="round" stroke-linejoin="round"/>
<path d="M65.1226 74.5345C65.1226 74.5345 80.0996 77.6001 86.0639 69.1396C92.0282 60.6791 92.0282 54.0163 100.105 52.7472C108.181 51.4781 122.595 44.8153 126.074 37.8352C129.553 30.8552 131.541 27.9997 139.493 25.5675C147.446 23.1352 149.061 19.9625 150.925 17.5296C152.789 15.0974 155.522 17.7409 157.883 15.6259C160.244 13.511 162.108 11.8193 162.108 11.8193C162.108 11.8193 125.556 -1.20998 105.82 21.7602" stroke="#A8452C" stroke-width="2.1499" stroke-miterlimit="10" stroke-linecap="round" stroke-linejoin="round"/>
<path d="M75.5258 60.9377C77.5536 61.6548 79.8625 61.5983 82 61.1706C84.1374 60.7429 86.1519 59.9662 88.185 59.2587C89.2578 58.8856 90.4148 58.5239 91.5503 58.7232" stroke="#A8452C" stroke-miterlimit="10" stroke-linecap="round" stroke-linejoin="round"/>
<path d="M86.7058 44.0951C92.7804 44.6122 98.4786 41.6216 104.527 40.9172C110.108 40.2674 115.729 41.5898 121.079 43.0887" stroke="#A8452C" stroke-miterlimit="10" stroke-linecap="round" stroke-linejoin="round"/>
<path d="M97.8933 31.0588C100.79 28.796 104.812 27.8232 108.739 27.6583C112.665 27.4933 116.576 28.058 120.473 28.4965C124.371 28.935 128.358 29.2459 132.211 28.5803" stroke="#A8452C" stroke-miterlimit="10" stroke-linecap="round" stroke-linejoin="round"/>
<path d="M109.59 17.8901C110.341 17.2352 111.194 16.6654 112.118 16.1984C113.342 15.581 114.683 15.1495 116.041 14.7871C118.905 14.0238 121.891 13.558 124.893 13.5466C134.274 13.5123 143.477 17.8774 152.671 16.2948" stroke="#A8452C" stroke-miterlimit="10" stroke-linecap="round" stroke-linejoin="round"/>
<path d="M82.8409 58.7327C83.7102 58.602 84.5661 58.4078 85.3966 58.1521C86.4307 57.8336 87.4245 57.4205 88.4757 57.1438C89.8587 56.7802 91.3296 56.6596 92.7692 56.7929" stroke="#A8452C" stroke-miterlimit="10" stroke-linecap="round" stroke-linejoin="round"/>
<path d="M107.432 38.4635C110.087 38.0104 112.853 38.0307 115.498 38.5238C118.524 39.0872 121.564 40.2662 124.592 39.7129" stroke="#A8452C" stroke-miterlimit="10" stroke-linecap="round" stroke-linejoin="round"/>
<path d="M112.771 26.1836C117.649 26.5592 122.527 26.9349 127.406 27.3106C128.487 27.3937 129.572 27.4768 130.656 27.433C132.435 27.3601 134.168 26.9457 135.883 26.5339" stroke="#A8452C" stroke-miterlimit="10" stroke-linecap="round" stroke-linejoin="round"/>
<path d="M118.809 11.7029C124.859 10.4687 131.218 11.2885 137.278 12.484" stroke="#A8452C" stroke-miterlimit="10" stroke-linecap="round" stroke-linejoin="round"/>
<path d="M110.418 52.8836C110.791 52.8836 122.968 47.9214 127.317 42.0474" stroke="#A8452C" stroke-miterlimit="10" stroke-linecap="round" stroke-linejoin="round"/>
<path d="M145.582 26.2459C145.955 26.1399 150.304 24.3422 152.044 21.4867C153.783 18.6312 154.156 19.0355 157.138 19.0976C160.12 19.1598 163.848 13.6919 163.848 13.6919" stroke="#A8452C" stroke-miterlimit="10" stroke-linecap="round" stroke-linejoin="round"/>
<path d="M77.1174 77.4475C77.1174 77.4475 88.5487 76.615 92.1527 65.0737" stroke="#A8452C" stroke-miterlimit="10" stroke-linecap="round" stroke-linejoin="round"/>
<path d="M86.7058 40.1699L105.821 17.8901" stroke="#A8452C" stroke-miterlimit="10" stroke-linecap="round" stroke-linejoin="round"/>
<path d="M113.615 11.302C113.74 10.8477 126.662 2.38655 146.543 5.77124" stroke="#A8452C" stroke-miterlimit="10" stroke-linecap="round" stroke-linejoin="round"/>
<path d="M44.9349 100.656C44.9349 100.656 39.0952 109.645 44.9349 110.174C44.9349 110.174 50.5265 109.857 44.9349 100.656Z" stroke="#A8452C" stroke-miterlimit="10" stroke-linecap="round" stroke-linejoin="round"/>
<path d="M45.6499 178.379C47.9797 175.714 51.7506 174.232 55.5283 173.396C59.3059 172.559 63.2274 172.26 66.9931 171.386C73.0133 169.987 78.5437 167.096 82.7299 163.156C85.9461 160.129 88.5711 156.377 92.9295 154.674" stroke="#A8452C" stroke-miterlimit="10" stroke-linecap="round" stroke-linejoin="round"/>
<path d="M7.31299 175.917C9.96486 174.235 11.8309 171.781 14.4768 170.093C18.9478 167.24 25.1097 166.968 30.5215 168.153C31.7092 168.413 32.8938 168.739 34.1195 168.769C37.0122 168.841 39.5567 167.296 42.131 166.172C44.7799 165.016 47.6688 164.262 50.6234 163.954" stroke="#A8452C" stroke-miterlimit="10" stroke-linecap="round" stroke-linejoin="round"/>
<path d="M11.2308 156.642C11.2308 156.956 10.9318 157.21 10.5628 157.21C10.1937 157.21 9.89478 156.956 9.89478 156.642C9.89478 156.328 10.1937 156.073 10.5628 156.073C10.9318 156.073 11.2308 156.328 11.2308 156.642Z" stroke="#A8452C" stroke-width="0.6077" stroke-miterlimit="10" stroke-linecap="round" stroke-linejoin="round"/>
<path d="M39.0951 171.677C39.0951 171.992 38.7962 172.246 38.4272 172.246C38.0581 172.246 37.7592 171.992 37.7592 171.677C37.7592 171.363 38.0581 171.109 38.4272 171.109C38.7962 171.109 39.0951 171.363 39.0951 171.677Z" stroke="#A8452C" stroke-width="0.6077" stroke-miterlimit="10" stroke-linecap="round" stroke-linejoin="round"/>
<path d="M69.2894 182.367C69.2894 182.681 68.9904 182.936 68.6214 182.936C68.2523 182.936 67.9534 182.681 67.9534 182.367C67.9534 182.053 68.2523 181.799 68.6214 181.799C68.9904 181.799 69.2894 182.053 69.2894 182.367Z" stroke="#A8452C" stroke-width="0.6077" stroke-miterlimit="10" stroke-linecap="round" stroke-linejoin="round"/>
<path d="M90.5372 150.085C90.5372 150.399 90.2382 150.654 89.8692 150.654C89.5001 150.654 89.2012 150.399 89.2012 150.085C89.2012 149.771 89.5001 149.517 89.8692 149.517C90.2382 149.517 90.5372 149.772 90.5372 150.085Z" stroke="#A8452C" stroke-width="0.6077" stroke-miterlimit="10" stroke-linecap="round" stroke-linejoin="round"/>
<path d="M81.8509 168.236C81.8509 168.55 81.5519 168.804 81.1829 168.804C80.8138 168.804 80.5149 168.55 80.5149 168.236C80.5149 167.921 80.8138 167.667 81.1829 167.667C81.5519 167.667 81.8509 167.921 81.8509 168.236Z" stroke="#A8452C" stroke-width="0.6077" stroke-miterlimit="10" stroke-linecap="round" stroke-linejoin="round"/>
<path d="M56.5377 152.438C56.5377 152.752 56.2387 153.006 55.8697 153.006C55.5006 153.006 55.2017 152.752 55.2017 152.438C55.2017 152.124 55.5006 151.869 55.8697 151.869C56.2387 151.869 56.5377 152.124 56.5377 152.438Z" stroke="#A8452C" stroke-width="0.6077" stroke-miterlimit="10" stroke-linecap="round" stroke-linejoin="round"/>
<path d="M18.9657 119.411H75.9992" stroke="#A8452C" stroke-miterlimit="10" stroke-linecap="round" stroke-linejoin="round"/>
</svg>
