<svg width="79" height="100" viewBox="0 0 79 100" fill="none" xmlns="http://www.w3.org/2000/svg">
<g clip-path="url(#clip0_1_289)">
<path d="M27.6024 22.2254C24.9019 20.752 21.4646 22.2254 21.4646 22.2254C15.3268 25.6633 21.4646 31.3125 21.4646 31.3125C10.1716 39.4173 21.4646 48.2585 21.4646 48.2585C21.4646 48.2585 10.9084 49.2407 8.20789 60.0472V88.2907C8.20789 88.2907 19.7459 96.6746 43.5596 95.9214" stroke="black" stroke-width="2.1499" stroke-miterlimit="10" stroke-linecap="round" stroke-linejoin="round"/>
<path d="M53.8707 22.2254C56.5712 20.752 60.0085 22.2254 60.0085 22.2254C66.1463 25.6633 60.0085 31.3125 60.0085 31.3125C71.3014 39.4173 60.0085 48.2585 60.0085 48.2585C60.0085 48.2585 70.5646 49.2407 73.2651 60.0472V88.2907C73.2651 88.2907 61.7271 96.6746 37.9135 95.9214" stroke="black" stroke-width="2.1499" stroke-miterlimit="10" stroke-linecap="round" stroke-linejoin="round"/>
<path d="M14.5916 83.8707C14.5916 83.8707 41.8417 97.1328 67.6191 83.8707V58.7707C67.6191 58.7707 61.7272 56.3642 58.7808 53.9078C55.8344 51.4521 48.7155 56.1183 43.5596 56.8554C38.4044 57.5925 31.7757 50.7739 26.8656 53.2005C21.9555 55.6271 17.2913 53.5634 14.5908 58.7707L14.5916 83.8707Z" stroke="black" stroke-width="1.2182" stroke-miterlimit="10" stroke-linecap="round" stroke-linejoin="round"/>
<path d="M15.9418 59.311C20.7592 58.5223 23.8966 61.2618 28.7737 61.0618C31.4678 60.9513 34.0361 59.657 36.7309 59.7352C39.8514 59.8247 42.6108 61.7207 45.6345 62.4965C50.8751 63.8408 59.9174 61.2328 64.9186 59.1683" stroke="black" stroke-width="1.2182" stroke-miterlimit="10" stroke-linecap="round" stroke-linejoin="round"/>
<path d="M55.5894 7.92712C55.5894 9.70534 49.0114 11.1465 40.897 11.1465C32.7826 11.1465 26.2046 9.70534 26.2046 7.92712C26.2046 6.14889 32.7826 4.70776 40.897 4.70776C49.0114 4.70776 55.5894 6.14889 55.5894 7.92712Z" stroke="black" stroke-width="2.1499" stroke-miterlimit="10" stroke-linecap="round" stroke-linejoin="round"/>
<path d="M26.2053 7.927L29.853 29.6754H51.7908L55.5893 7.927" stroke="black" stroke-width="2.1499" stroke-miterlimit="10" stroke-linecap="round" stroke-linejoin="round"/>
<path d="M31.4976 11.0054C32.0304 17.1981 32.7325 23.3763 33.6015 29.5312" stroke="black" stroke-width="2.1499" stroke-miterlimit="10" stroke-linecap="round" stroke-linejoin="round"/>
<path d="M35.6136 11.6619C35.8265 17.6409 36.3561 23.6086 37.2001 29.5312" stroke="black" stroke-width="2.1499" stroke-miterlimit="10" stroke-linecap="round" stroke-linejoin="round"/>
<path d="M42.4141 11.8286V29.6762" stroke="black" stroke-width="2.1499" stroke-miterlimit="10" stroke-linecap="round" stroke-linejoin="round"/>
<path d="M23.2823 45.8674C21.9345 44.5795 21.0889 42.7795 20.9575 40.9206C20.8261 39.0609 21.4097 37.1601 22.5625 35.6948" stroke="black" stroke-width="1.2182" stroke-miterlimit="10" stroke-linecap="round" stroke-linejoin="round"/>
<path d="M70.0737 61.4392V78.9618" stroke="black" stroke-width="1.2182" stroke-miterlimit="10" stroke-linecap="round" stroke-linejoin="round"/>
<path d="M61.0702 37.698C60.8549 41.198 58.7437 44.5238 55.6683 46.2069" stroke="black" stroke-width="1.2182" stroke-miterlimit="10" stroke-linecap="round" stroke-linejoin="round"/>
<path d="M8.13452 9.69971V32.4586" stroke="black" stroke-width="1.5974" stroke-miterlimit="10" stroke-linecap="round" stroke-linejoin="round"/>
<path d="M3.27441 17.7512H12.9954" stroke="black" stroke-width="1.5974" stroke-miterlimit="10" stroke-linecap="round" stroke-linejoin="round"/>
<path d="M5.76532 20.6135L11.6758 13.9441" stroke="black" stroke-width="1.5974" stroke-miterlimit="10" stroke-linecap="round" stroke-linejoin="round"/>
<path d="M5.34454 13.9441L11.6758 21.0796" stroke="black" stroke-width="1.5514" stroke-miterlimit="10" stroke-linecap="round" stroke-linejoin="round"/>
<path d="M47.9385 37.7917V60.5506" stroke="black" stroke-width="1.5974" stroke-miterlimit="10" stroke-linecap="round" stroke-linejoin="round"/>
<path d="M43.0784 45.8433H52.7994" stroke="black" stroke-width="1.5974" stroke-miterlimit="10" stroke-linecap="round" stroke-linejoin="round"/>
<path d="M45.5693 48.7055L51.4798 42.0361" stroke="black" stroke-width="1.5974" stroke-miterlimit="10" stroke-linecap="round" stroke-linejoin="round"/>
<path d="M45.1484 42.0361L51.4797 49.1716" stroke="black" stroke-width="1.5514" stroke-miterlimit="10" stroke-linecap="round" stroke-linejoin="round"/>
<path d="M22.8406 71.2199C23.8909 71.2199 24.7423 70.3681 24.7423 69.3175C24.7423 68.2668 23.8909 67.415 22.8406 67.415C21.7904 67.415 20.939 68.2668 20.939 69.3175C20.939 70.3681 21.7904 71.2199 22.8406 71.2199Z" stroke="black" stroke-width="1.1831" stroke-miterlimit="10" stroke-linecap="round" stroke-linejoin="round"/>
<path d="M61.0701 80.8642C62.1204 80.8642 62.9717 80.0124 62.9717 78.9617C62.9717 77.9111 62.1204 77.0593 61.0701 77.0593C60.0199 77.0593 59.1685 77.9111 59.1685 78.9617C59.1685 80.0124 60.0199 80.8642 61.0701 80.8642Z" stroke="black" stroke-width="1.1831" stroke-miterlimit="10" stroke-linecap="round" stroke-linejoin="round"/>
<path d="M38.5076 82.1723C39.2297 82.1723 39.8151 81.5866 39.8151 80.8642C39.8151 80.1418 39.2297 79.5562 38.5076 79.5562C37.7855 79.5562 37.2001 80.1418 37.2001 80.8642C37.2001 81.5866 37.7855 82.1723 38.5076 82.1723Z" stroke="black" stroke-width="0.8136" stroke-miterlimit="10" stroke-linecap="round" stroke-linejoin="round"/>
<path d="M42.9872 68.5618C43.3038 68.5618 43.5604 68.3051 43.5604 67.9884C43.5604 67.6718 43.3038 67.415 42.9872 67.415C42.6707 67.415 42.4141 67.6718 42.4141 67.9884C42.4141 68.3051 42.6707 68.5618 42.9872 68.5618Z" stroke="black" stroke-width="0.3564" stroke-miterlimit="10" stroke-linecap="round" stroke-linejoin="round"/>
<path d="M30.9243 85.4263C31.2409 85.4263 31.4975 85.1696 31.4975 84.8529C31.4975 84.5363 31.2409 84.2795 30.9243 84.2795C30.6078 84.2795 30.3512 84.5363 30.3512 84.8529C30.3512 85.1696 30.6078 85.4263 30.9243 85.4263Z" stroke="black" stroke-width="0.3564" stroke-miterlimit="10" stroke-linecap="round" stroke-linejoin="round"/>
<path d="M62.9718 11.5327C62.9718 11.5327 66.4736 10.4085 67.6191 5.60693C67.6191 5.60693 68.4373 9.74484 71.3837 11.5327C71.3837 11.5327 67.2918 15.1424 67.6191 18.8013C67.6191 18.8013 66.5075 12.3271 62.9718 11.5327Z" stroke="black" stroke-width="0.8962" stroke-miterlimit="10" stroke-linecap="round" stroke-linejoin="round"/>
<path d="M0.171631 43.2344C0.171631 43.2344 2.75445 42.3884 3.60007 38.7739C3.60007 38.7739 4.20386 41.8884 6.37717 43.2344C6.37717 43.2344 3.35904 45.9522 3.60007 48.7054C3.60007 48.7054 2.78024 43.832 0.171631 43.2344Z" stroke="black" stroke-width="0.6678" stroke-miterlimit="10" stroke-linecap="round" stroke-linejoin="round"/>
<path d="M23.2823 25.4182C23.2823 25.4182 24.207 35.4061 40.4302 34.7513C56.6534 34.0964 58.3696 25.4182 58.3696 25.4182" stroke="black" stroke-width="0.6678" stroke-miterlimit="10" stroke-linecap="round" stroke-linejoin="round"/>
</g>
<defs>
<clipPath id="clip0_1_289">
<rect width="79" height="100" fill="white"/>
</clipPath>
</defs>
</svg>
