<svg width="162" height="169" viewBox="0 0 162 169" fill="none" xmlns="http://www.w3.org/2000/svg">
<path d="M86.6396 93.7695C88.8671 94.8896 91.2901 95.6955 93.7925 96.1494C88.9364 90.7289 83.5787 85.67 77.7919 81.0421C76.1353 85.7818 72.9366 90.0787 68.6895 93.2681C63.2088 97.3834 54.9328 99.4952 48.8998 96.0565C48.5353 98.116 47.3795 99.9876 46.1715 101.769C44.5329 104.186 42.7244 106.566 40.2897 108.366C37.8558 110.165 34.6991 111.34 31.5658 111.01C28.4325 110.679 25.4519 108.6 24.8989 105.815C23.8934 107.841 21.3069 108.49 19.1347 109.55C13.6594 112.222 7.60308 113.932 1.40814 114.556C6.11705 106.896 7.08904 97.8995 7.96758 89.189C16.9516 83.1525 26.7144 77.7466 37.126 73.9818C37.8877 73.706 38.6837 73.4175 39.2188 72.8589C39.7897 72.2625 39.9766 71.4468 40.4314 70.775C41.7376 68.8462 44.6855 68.636 47.1825 68.3545C51.6858 67.8468 55.9912 66.4327 60.2515 65.0283C63.1854 64.0611 64.8584 61.8739 66.508 59.4939C67.5166 58.0392 68.1895 56.3842 69.4481 55.0957C70.4334 54.0873 71.7232 53.3624 73.0168 52.6899C79.5365 49.3008 88.6467 46.2295 96.0341 44.8936" stroke="#A8452C" stroke-width="2.1499" stroke-miterlimit="10" stroke-linecap="round" stroke-linejoin="round"/>
<path d="M95.7802 77.0879C97.1782 79.1382 98.5762 81.1886 99.975 83.2382C100.681 84.2725 101.438 85.3535 102.626 85.9339C103.775 86.4953 105.146 86.5016 106.454 86.5268C111.946 86.6322 117.423 87.3166 122.738 88.5603" stroke="#A8452C" stroke-width="2.1499" stroke-miterlimit="10" stroke-linecap="round" stroke-linejoin="round"/>
<path d="M90.4139 95.8442C88.8967 100.541 85.2167 104.49 80.9034 107.482C76.5894 110.475 71.6336 112.617 66.7183 114.737C61.4229 117.022 56.1268 119.305 50.8314 121.59C48.3866 122.644 45.9379 123.7 43.3918 124.54C37.3994 126.518 30.8002 127.258 24.5663 126.014C26.6653 131.405 32.4911 135.465 38.8356 135.958C42.4471 136.239 46.0477 135.458 49.5439 134.599C58.6783 132.354 67.6358 129.528 76.3254 126.149C84.5889 122.936 92.8104 119.087 98.8091 113.063C100.687 111.176 102.323 109.097 103.675 106.877" stroke="#A8452C" stroke-width="2.1499" stroke-miterlimit="10" stroke-linecap="round" stroke-linejoin="round"/>
<path d="M117.569 51.0186C121.687 52.6185 128.849 54.6381 133.335 54.738C132.125 59.4288 126.865 62.9987 121.502 62.7682C124.547 65.9115 127.593 69.0548 130.638 72.198C133.837 75.4991 137.161 78.8882 141.552 80.7905C138.279 82.0426 134.485 82.1641 131.12 81.1236C134.064 89.0715 138.095 96.6947 143.095 103.768C139.137 104.515 134.978 104.388 131.086 103.4C133.072 105.481 133.981 108.433 135.004 111.014C137.324 116.864 140.608 122.405 144.717 127.402C140.019 128.997 134.415 128.22 130.474 125.427C132.396 135.312 128.16 145.426 122.046 153.831C120.454 150.15 119.658 146.196 119.713 142.249C116.905 149.675 111.342 156.241 104.116 160.658C103.616 157.725 103.241 154.776 102.992 151.818C103.055 154.494 99.8045 156.112 97.0365 157.114C92.3174 158.822 87.5976 160.531 82.8786 162.239C84.2743 157.486 85.307 152.649 85.9667 147.77C86.4496 144.2 86.73 140.557 85.9807 137.024C84.9682 132.25 83.342 128.777 79.1425 125.707" stroke="#A8452C" stroke-width="2.1499" stroke-miterlimit="10" stroke-linecap="round" stroke-linejoin="round"/>
<path d="M93.4553 129.4C93.8182 133.448 93.5254 137.542 92.5884 141.515C98.0645 139.572 102.083 134.679 102.527 129.414C103.692 131.363 104.224 133.611 104.042 135.815C109.044 132.659 111.943 127.01 111.362 121.551C112.775 122.776 113.669 124.473 113.828 126.23C117.494 121.582 119.783 116.069 120.397 110.402C121.814 111.176 122.888 112.44 123.344 113.87C124.138 108.772 123.85 103.54 122.498 98.5361" stroke="#A8452C" stroke-width="2.1499" stroke-miterlimit="10" stroke-linecap="round" stroke-linejoin="round"/>
<path d="M108.211 144.902C108.336 146.335 108.282 147.781 108.051 149.204C110.424 147.925 112.166 145.839 113.265 143.56C114.364 141.281 114.863 138.806 115.16 136.337" stroke="#A8452C" stroke-width="2.1499" stroke-miterlimit="10" stroke-linecap="round" stroke-linejoin="round"/>
<path d="M121.544 133.762C121.977 134.711 122.41 135.661 122.843 136.61C124.276 135.749 124.84 134.125 125.181 132.61C125.947 129.203 126.084 125.682 125.587 122.235" stroke="#A8452C" stroke-width="2.1499" stroke-miterlimit="10" stroke-linecap="round" stroke-linejoin="round"/>
<path d="M128.08 89.3315C129.75 92.1619 131.559 94.9267 133.497 97.616C131.022 98.3367 128.096 97.5685 126.445 95.7647" stroke="#A8452C" stroke-width="2.1499" stroke-miterlimit="10" stroke-linecap="round" stroke-linejoin="round"/>
<path d="M105.709 80.9527C108.475 76.1341 109.918 70.7114 109.876 65.2922C109.874 64.9605 109.883 64.5897 110.144 64.355C110.356 64.1637 110.679 64.119 110.978 64.089C112.566 63.9305 114.172 63.9123 115.764 64.0366" stroke="#A8452C" stroke-width="2.1499" stroke-miterlimit="10" stroke-linecap="round" stroke-linejoin="round"/>
<path d="M96.3362 52.7631C97.8885 54.9454 100.329 56.5174 102.928 57.6452C103.484 57.8861 104.093 58.1152 104.701 58.0195C105.251 57.9329 105.703 57.597 106.133 57.2765C111.369 53.3706 117.198 50.1045 123.409 47.5981C123.826 47.4298 124.256 47.258 124.571 46.9612C124.972 46.5834 125.133 46.0561 125.289 45.554C128.13 36.391 133.771 27.9396 141.434 21.3633C134.962 23.2111 128.467 25.1714 122.623 28.2748C115.963 31.812 110.368 36.6948 103.868 40.44C98.2756 43.6629 91.1771 45.5128 96.3362 52.7631Z" stroke="#A8452C" stroke-width="2.1499" stroke-miterlimit="10" stroke-linecap="round" stroke-linejoin="round"/>
<path d="M12.3494 112.528C12.3494 112.528 19.8286 124.552 36.591 125.477L19.1362 109.548" stroke="#A8452C" stroke-miterlimit="10" stroke-linecap="round" stroke-linejoin="round"/>
<path d="M40.2905 108.364C40.2905 108.364 46.3912 117.152 53.0962 119.233L46.1723 101.768" stroke="#A8452C" stroke-miterlimit="10" stroke-linecap="round" stroke-linejoin="round"/>
<path d="M53.3541 98.1915C53.3541 98.1915 60.5747 109.291 68.5696 112.066L63.6699 96.5728" stroke="#A8452C" stroke-miterlimit="10" stroke-linecap="round" stroke-linejoin="round"/>
<path d="M71.4062 91.7164L83.7852 104.435C83.7852 104.435 83.6629 88.1716 77.792 81.0415" stroke="#A8452C" stroke-miterlimit="10" stroke-linecap="round" stroke-linejoin="round"/>
<path d="M39.9439 125.477L31.5666 111.008C31.5666 111.008 41.8614 114.464 50.8314 121.589" stroke="#A8452C" stroke-miterlimit="10" stroke-linecap="round" stroke-linejoin="round"/>
<path d="M56.3627 118.925L48.6257 98.5762C48.6257 98.5762 59.1128 107.671 65.6466 115.071" stroke="#A8452C" stroke-miterlimit="10" stroke-linecap="round" stroke-linejoin="round"/>
<path d="M71.8361 112.297L67.3663 94.4141C67.3663 94.4141 76.6501 100.118 81.9798 106.438" stroke="#A8452C" stroke-miterlimit="10" stroke-linecap="round" stroke-linejoin="round"/>
<path d="M34.3557 131.72C34.3557 131.72 49.3134 132.645 69.945 121.083" stroke="#A8452C" stroke-miterlimit="10" stroke-linecap="round" stroke-linejoin="round"/>
<path d="M28.5424 98.7033C28.5977 100.022 30.0183 101.043 31.4763 101.224C32.9343 101.405 34.3915 100.938 35.728 100.385C37.8215 99.5183 39.8255 98.3968 41.3443 96.8408C42.863 95.2849 43.8623 93.252 43.7532 91.187" stroke="#A8452C" stroke-miterlimit="10" stroke-linecap="round" stroke-linejoin="round"/>
<path d="M54.2217 90.7714C55.2934 91.7533 56.9874 91.9348 58.5116 91.8007C61.6223 91.527 64.5944 90.1394 66.6279 88.0101C68.6615 85.8816 69.734 83.0351 69.5572 80.2368" stroke="#A8452C" stroke-miterlimit="10" stroke-linecap="round" stroke-linejoin="round"/>
<path d="M63.8763 72.6758C63.909 74.2226 64.9963 75.5711 66.036 76.8058C66.5734 77.4441 67.1163 78.0866 67.7814 78.6194C69.1919 79.75 71.139 80.3234 73.0231 80.1635C74.9063 80.0035 76.6984 79.1117 77.8472 77.7632" stroke="#A8452C" stroke-miterlimit="10" stroke-linecap="round" stroke-linejoin="round"/>
<path d="M75.95 74.6284C74.0636 75.0384 72.1663 73.9357 70.7714 72.5809C69.7644 71.6025 68.8897 70.4467 68.431 69.1087C67.8438 67.3957 67.9824 65.4885 68.5291 63.7608C69.0759 62.0337 70.0089 60.4611 71.0082 58.9575" stroke="#A8452C" stroke-miterlimit="10" stroke-linecap="round" stroke-linejoin="round"/>
<path d="M77.3542 55.1181C79.8255 52.7583 83.7882 51.7492 87.2744 52.5935C90.7597 53.4371 93.618 56.0978 94.4288 59.2523" stroke="#A8452C" stroke-miterlimit="10" stroke-linecap="round" stroke-linejoin="round"/>
<path d="M82.6379 75.1606C85.0056 75.0461 87.3156 74.1487 89.0291 72.6787C90.7425 71.2094 91.8438 69.1793 92.0767 67.0633C92.1733 66.1834 92.125 65.2965 92.0767 64.4131" stroke="#A8452C" stroke-miterlimit="10" stroke-linecap="round" stroke-linejoin="round"/>
<path d="M91.6024 74.9676C93.9576 74.5318 96.0668 73.1247 97.2086 71.2273C98.3511 69.3299 98.5053 66.9764 97.6182 64.9722" stroke="#A8452C" stroke-miterlimit="10" stroke-linecap="round" stroke-linejoin="round"/>
<path d="M81.4644 60.8457C84.5642 60.8458 86.982 63.0875 86.982 65.7412C86.9819 68.3949 84.5641 70.6366 81.4644 70.6367C78.3646 70.6367 75.9469 68.3949 75.9468 65.7412C75.9468 63.0874 78.3646 60.8457 81.4644 60.8457Z" fill="black" stroke="#A8452C"/>
<path d="M72.1538 67.791C72.8057 70.8121 75.8448 73.287 79.26 73.5789" stroke="#A8452C" stroke-miterlimit="10" stroke-linecap="round" stroke-linejoin="round"/>
<path d="M76.3105 58.9601C77.2631 57.6828 79.0326 57.1269 80.7103 56.8147C81.3925 56.6876 82.0834 56.5871 82.7796 56.5661C86.1357 56.4663 89.4466 58.4349 90.6499 61.2458" stroke="#A8452C" stroke-miterlimit="10" stroke-linecap="round" stroke-linejoin="round"/>
<path d="M100.486 42.1475C100.108 44.8347 100.943 47.6435 102.762 49.8062C104.58 51.969 107.362 53.4614 110.348 53.8755" stroke="#A8452C" stroke-miterlimit="10" stroke-linecap="round" stroke-linejoin="round"/>
<path d="M107.571 38.292C107.298 38.9261 107.439 39.6384 107.628 40.2969C108.26 42.5072 109.39 44.626 111.088 46.3258C112.785 48.0263 115.07 49.2889 117.574 49.6946" stroke="#A8452C" stroke-miterlimit="10" stroke-linecap="round" stroke-linejoin="round"/>
<path d="M113.511 33.981C113.681 36.6947 114.944 39.3436 117.015 41.3283C119.086 43.3137 121.949 44.6203 124.958 44.9527" stroke="#A8452C" stroke-miterlimit="10" stroke-linecap="round" stroke-linejoin="round"/>
<path d="M119.661 30.4341C120.434 34.1374 123.646 37.3456 127.668 38.4323" stroke="#A8452C" stroke-miterlimit="10" stroke-linecap="round" stroke-linejoin="round"/>
<path d="M126.96 26.2754C126.908 28.9235 128.699 31.5319 131.36 32.6813" stroke="#A8452C" stroke-miterlimit="10" stroke-linecap="round" stroke-linejoin="round"/>
<path d="M17.5007 96.7876C17.1697 96.3141 16.4212 96.1926 15.8316 96.3735C15.242 96.5543 14.7817 96.9671 14.3689 97.3861C12.4062 99.3805 11.0253 101.832 10.3992 104.432C10.2301 105.135 10.1491 105.959 10.6951 106.486C11.4522 107.218 12.8284 106.856 13.7349 106.277C15.1665 105.363 16.2273 104.064 17.2164 102.761C18.0716 101.636 18.8932 100.49 19.6799 99.324C19.5233 100.12 20.3723 100.941 21.2687 100.861C22.6987 100.734 23.0873 99.0425 24.0624 98.0956C24.7696 98.6976 25.9473 98.6298 26.7822 98.1787C27.6179 97.7275 28.1903 96.981 28.7371 96.2568" stroke="#A8452C" stroke-miterlimit="10" stroke-linecap="round" stroke-linejoin="round"/>
<path d="M59.1915 77.2324C58.6666 76.659 58.3473 75.9565 58.1113 75.2456C57.6759 73.9355 57.4999 72.5116 57.9586 71.2078C58.4174 69.9039 59.6074 68.7531 61.1098 68.5205" stroke="#A8452C" stroke-miterlimit="10" stroke-linecap="round" stroke-linejoin="round"/>
<path d="M121.4 68.0376C122.947 71.6858 126.453 74.3283 129.821 76.8018C128.601 77.0414 127.313 76.85 126.144 76.4541C124.975 76.0581 123.904 75.4645 122.841 74.8751" stroke="#A8452C" stroke-miterlimit="10" stroke-linecap="round" stroke-linejoin="round"/>
<path d="M131.831 111.297C132.363 115.544 134.284 119.644 137.295 122.957C134.887 122.412 132.598 121.448 130.594 120.134" stroke="#A8452C" stroke-miterlimit="10" stroke-linecap="round" stroke-linejoin="round"/>
<path d="M91.1445 145.604C90.3921 148.736 89.3399 151.809 88.0042 154.78C90.8314 153.606 93.6664 152.347 95.9858 150.482C98.3052 148.618 100.083 146.051 100.222 143.26C100.878 143.926 101.224 144.83 101.163 145.717C103.477 143.844 105.09 141.286 105.691 138.542" stroke="#A8452C" stroke-miterlimit="10" stroke-linecap="round" stroke-linejoin="round"/>
<path d="M96.5637 127.399C96.7397 128.917 96.7412 130.452 96.5691 131.971C99.3574 129.396 100.966 125.823 100.955 122.234C101.934 123.096 102.625 124.217 102.921 125.418C104.872 124.237 106.182 122.338 106.897 120.326C107.612 118.314 107.781 116.181 107.828 114.07C108.792 114.987 109.532 116.091 109.984 117.285C111.064 117.149 111.936 116.371 112.395 115.484C112.854 114.597 112.972 113.603 113.082 112.63C113.303 110.694 113.524 108.759 113.745 106.823C114.814 107.295 115.542 107.982 115.929 108.993C116.43 108.652 116.694 108.104 116.909 107.574C118.366 103.965 118.47 99.9288 117.201 96.2632C117.174 96.1877 117.098 96.326 117.152 96.3881" stroke="#A8452C" stroke-miterlimit="10" stroke-linecap="round" stroke-linejoin="round"/>
<path d="M119.438 128.23C119.685 128.764 119.931 129.296 120.178 129.829C122.36 127.5 122.475 124.172 122.34 121.131C122.569 121.248 122.798 121.364 123.027 121.481C124.034 120.075 124.471 118.351 124.24 116.693" stroke="#A8452C" stroke-miterlimit="10" stroke-linecap="round" stroke-linejoin="round"/>
<path d="M118.139 54.2124C119.868 55.9352 122.693 56.35 125.278 56.3228C123.14 57.8738 120.506 58.869 117.776 59.1581C117.263 59.2126 116.565 58.9584 115.765 58.4667" stroke="#A8452C" stroke-width="2.1499" stroke-miterlimit="10" stroke-linecap="round" stroke-linejoin="round"/>
<path d="M59.817 64.908C60.7788 64.2341 61.1239 63.0868 61.3894 62.019C62.3303 58.2402 63.0001 54.407 63.395 50.5514C63.4526 49.9844 63.5118 49.3964 63.8296 48.904C64.0718 48.5276 64.4464 48.2371 64.8132 47.9543C66.9527 46.3055 69.0914 44.6574 71.2302 43.0093" stroke="#A8452C" stroke-width="2.1499" stroke-miterlimit="10" stroke-linecap="round" stroke-linejoin="round"/>
<path d="M79.6323 49.4754C76.0785 48.0116 73.136 45.3873 71.4856 42.2077C73.273 41.2237 75.1103 40.3124 76.9897 39.4778C79.0645 38.556 81.1955 37.7257 83.1769 36.6502C84.3 36.0406 85.3693 35.3555 86.4379 34.6711C96.1485 28.4495 105.907 22.1916 114.364 14.6411C113.745 19.2795 112.361 23.8349 110.272 28.1143C109.351 30.0013 108.295 31.8316 107.239 33.6606C105.582 36.5336 103.277 40.098 100.486 42.1476" stroke="#A8452C" stroke-width="2.1499" stroke-miterlimit="10" stroke-linecap="round" stroke-linejoin="round"/>
<path d="M78.7243 38.5156C78.1798 39.4786 78.2928 40.6428 78.6565 41.6715C79.6028 44.3482 82.2477 46.4831 85.3156 47.0466" stroke="#A8452C" stroke-miterlimit="10" stroke-linecap="round" stroke-linejoin="round"/>
<path d="M86.6154 35.0605C86.3304 35.6178 86.5243 36.2708 86.7517 36.849C87.4543 38.634 88.4746 40.3505 89.9855 41.6725C91.4965 42.9945 95.5153 43.8918 97.626 43.8716" stroke="#A8452C" stroke-miterlimit="10" stroke-linecap="round" stroke-linejoin="round"/>
<path d="M93.8977 30.3292C93.9109 30.2517 93.7739 30.2154 93.7084 30.2678C93.643 30.3201 93.6376 30.4088 93.6391 30.487C93.6617 31.8991 94.4188 33.2413 95.4624 34.2993C96.5061 35.3566 97.8239 36.1639 99.1565 36.9174C100.517 37.6863 102.72 38.6186 104.287 38.2918" stroke="#A8452C" stroke-miterlimit="10" stroke-linecap="round" stroke-linejoin="round"/>
<path d="M102.069 24.2825C102.078 24.198 101.938 24.307 101.965 24.388C102.766 26.8769 106.53 29.3407 109.346 29.9189" stroke="#A8452C" stroke-miterlimit="10" stroke-linecap="round" stroke-linejoin="round"/>
<path d="M150.973 14.2646L151.158 14.8086L151.671 14.5488L152.99 13.8818L152.555 15.2559L152.404 15.7354L152.883 15.8848L156.297 16.9473L153.016 17.7285L152.552 17.8389L152.64 18.3076L152.854 19.4463L152.057 19.0674L151.492 18.7988L151.355 19.4092L150.45 23.415L149.043 19.3555L148.843 18.7754L148.316 19.0889L147.443 19.6074L147.484 18.9473L147.508 18.5596L147.137 18.4404L142.853 17.0674L146.315 16.1924L146.841 16.0596L146.664 15.5459L146.182 14.1416L147.74 14.584L148.212 14.7178L148.356 14.249L149.589 10.2119L150.973 14.2646Z" fill="black" stroke="#A8452C"/>
<path d="M119.966 6.22266L120.152 6.7666L120.665 6.50684L121.982 5.83984L121.548 7.21387L121.397 7.69336L121.877 7.84277L125.291 8.90527L122.008 9.6875L121.546 9.79785L121.633 10.2666L121.847 11.4053L121.05 11.0264L120.486 10.7568L120.348 11.3672L119.444 15.373L118.037 11.3135L117.836 10.7344L117.309 11.0479L116.436 11.5664L116.477 10.9062L116.501 10.5186L116.13 10.3994L111.844 9.02539L115.307 8.15039L115.835 8.01758L115.658 7.50391L115.175 6.10059L116.734 6.54199L117.206 6.67578L117.348 6.20703L118.582 2.16992L119.966 6.22266Z" fill="black" stroke="#A8452C"/>
<path d="M17.1541 87.3139C16.3012 87.5374 15.3931 87.6093 14.5917 87.9522C13.2778 88.5151 12.4156 89.8321 12.5083 91.1353C12.5418 91.6038 12.6944 92.0752 13.0137 92.4475C13.5223 93.0403 14.3962 93.3085 15.2303 93.3015C16.0645 93.2946 16.8706 93.048 17.6463 92.7743C19.3356 92.1772 20.9611 91.4341 22.4931 90.5598C23.113 90.2058 23.7252 89.8245 24.2089 89.3272C25.1785 88.3307 25.5321 86.9794 25.8203 85.6826C25.9029 85.3117 25.9792 84.9123 25.8086 84.5659C25.5867 84.1155 25.0134 83.8948 24.4737 83.804C20.8458 83.193 20.095 86.5429 17.1541 87.3139Z" stroke="#A8452C" stroke-width="2.1499" stroke-miterlimit="10" stroke-linecap="round" stroke-linejoin="round"/>
<path d="M24.934 91.8396C26.554 90.4115 28.2223 88.917 29.0073 87.0056C29.7916 85.0936 29.4193 82.6375 27.5447 81.4873" stroke="#A8452C" stroke-miterlimit="10" stroke-linecap="round" stroke-linejoin="round"/>
<path d="M19.475 116.7C22.3225 119.314 25.8366 121.341 29.6701 122.58" stroke="#A8452C" stroke-miterlimit="10" stroke-linecap="round" stroke-linejoin="round"/>
<path d="M36.5793 115.849C38.4579 118.54 40.0623 121.384 41.3684 124.334" stroke="#A8452C" stroke-miterlimit="10" stroke-linecap="round" stroke-linejoin="round"/>
<path d="M42.1932 107.326C43.627 110.396 46.0298 113.097 49.0494 115.033" stroke="#A8452C" stroke-miterlimit="10" stroke-linecap="round" stroke-linejoin="round"/>
<path d="M53.4655 105.814C54.8814 109.776 56.2973 113.737 57.7133 117.699" stroke="#A8452C" stroke-miterlimit="10" stroke-linecap="round" stroke-linejoin="round"/>
<path d="M56.2413 99.0078C58.5412 101.974 61.1503 104.746 64.0251 107.278" stroke="#A8452C" stroke-miterlimit="10" stroke-linecap="round" stroke-linejoin="round"/>
<path d="M74.0309 111.009C72.8463 108.085 72.2497 103.731 71.2115 100.763" stroke="#A8452C" stroke-miterlimit="10" stroke-linecap="round" stroke-linejoin="round"/>
<path d="M72.8447 90.27C75.2296 92.7533 77.6658 95.1969 80.1526 97.5992" stroke="#A8452C" stroke-miterlimit="10" stroke-linecap="round" stroke-linejoin="round"/>
</svg>
