<svg width="168" height="163" viewBox="0 0 168 163" fill="none" xmlns="http://www.w3.org/2000/svg">
<path d="M155.906 6.25684H7.00043V10.3101H155.906V6.25684Z" stroke="#A8452C" stroke-width="2.1499" stroke-miterlimit="10" stroke-linecap="round" stroke-linejoin="round"/>
<path d="M61.7942 77.2832H2.74158V80.0384H61.7942V77.2832Z" stroke="#A8452C" stroke-width="2.1499" stroke-miterlimit="10" stroke-linecap="round" stroke-linejoin="round"/>
<path d="M5.29065 80.4621C5.29065 80.4621 9.96357 95.5096 33.3301 97.523C33.3301 97.523 57.0148 97.4168 59.5639 80.144" stroke="#A8452C" stroke-width="2.1499" stroke-miterlimit="10" stroke-linecap="round" stroke-linejoin="round"/>
<path d="M37.4719 83.4824H58.0771" stroke="#A8452C" stroke-miterlimit="10" stroke-linecap="round" stroke-linejoin="round"/>
<path d="M6.77753 83.4824H27.382" stroke="#A8452C" stroke-miterlimit="10" stroke-linecap="round" stroke-linejoin="round"/>
<path d="M8.68903 86.4761H56.909" stroke="#A8452C" stroke-miterlimit="10" stroke-linecap="round" stroke-linejoin="round"/>
<path d="M31.8433 10.9463L2.74158 77.2833" stroke="#A8452C" stroke-miterlimit="10" stroke-linecap="round" stroke-linejoin="round"/>
<path d="M32.0556 10.7344L61.1573 77.0714" stroke="#A8452C" stroke-miterlimit="10" stroke-linecap="round" stroke-linejoin="round"/>
<path d="M4.8006 77.1585C6.36948 74.8758 8.09049 72.6981 9.94907 70.6431C10.3373 70.2142 10.7573 69.7733 11.3103 69.6018C11.7144 69.4757 12.1575 69.5061 12.5551 69.3615C13.0882 69.1682 13.4599 68.6957 13.8005 68.2436C16.0176 65.3004 18.1361 62.2826 20.1508 59.1968C21.3929 57.2943 22.5974 55.3633 23.9777 53.5585C25.1266 52.0565 25.7933 51.2448 27.0573 49.8385C28.5428 48.1854 30.0284 46.5317 31.5133 44.8786C31.8777 44.4727 32.9108 43.4373 33.4565 43.4419C33.8672 43.4452 34.2271 43.7039 34.5432 43.9652C33.813 43.3621 40.8664 53.8719 40.369 52.6821C41.7289 55.9381 42.7798 59.3347 44.4585 62.4397C44.7013 62.8891 44.9784 63.353 45.4262 63.5991C45.8303 63.8215 46.3118 63.8327 46.7636 63.9258C48.8106 64.3475 50.0574 66.3517 51.1785 68.1117C53.2415 71.3512 55.6722 74.3571 58.4098 77.0542" stroke="#A8452C" stroke-miterlimit="10" stroke-linecap="round" stroke-linejoin="round"/>
<path d="M19.8624 60.3108C21.5946 59.9063 23.3586 58.1436 25.0915 57.7391C26.6961 57.3643 27.7597 57.5603 29.0521 56.54C30.6977 55.2413 31.5767 53.0649 33.4274 52.0796C34.9003 51.295 36.7087 51.427 38.2425 50.769" stroke="#A8452C" stroke-miterlimit="10" stroke-linecap="round" stroke-linejoin="round"/>
<path d="M13.8005 68.2435C15.8271 67.8693 18.9747 67.5341 21.0271 67.7268C22.5451 67.8693 23.4327 68.9179 24.9566 68.9278C29.4146 68.9569 33.1086 65.2923 37.5222 64.6654C38.7379 64.4925 40.7109 63.9052 41.582 63.0414C42.1296 62.4989 43.0761 61.4536 43.8295 61.6179" stroke="#A8452C" stroke-miterlimit="10" stroke-linecap="round" stroke-linejoin="round"/>
<path d="M27.972 77.129C28.4588 77.0267 28.8676 76.7119 29.3008 76.4678C30.5661 75.7537 32.0682 75.6343 33.5121 75.4627C35.9276 75.1757 38.4 74.6682 40.3941 73.2784C41.1561 72.7471 41.8459 72.0899 42.7025 71.7302C44.9275 70.7958 47.7035 72.0826 49.8114 70.9093C50.5852 70.479 51.336 69.7148 52.1951 69.9293" stroke="#A8452C" stroke-miterlimit="10" stroke-linecap="round" stroke-linejoin="round"/>
<path d="M5.67303 76.9402C7.14403 75.8065 8.87628 75.0133 10.6972 74.6404C12.8653 74.1963 15.2391 74.3078 17.1089 73.1266C17.7016 72.7524 17.6401 72.8474 18.3193 72.6732C19.4596 72.3809 21.4829 72.4323 22.3321 71.6187" stroke="#A8452C" stroke-miterlimit="10" stroke-linecap="round" stroke-linejoin="round"/>
<path d="M25.5962 64.1652C26.2404 63.3159 27.1492 62.6699 28.1631 62.3392C29.8306 61.7955 31.7487 62.0838 33.2752 61.22C34.0088 60.8049 34.5954 60.1496 35.3673 59.8117C36.4507 59.3379 37.8079 59.53 38.7333 58.7948C39.1652 58.4516 40.0369 57.3529 40.4133 56.9497C40.7896 56.5465 41.3492 56.6521 41.8651 56.8494" stroke="#A8452C" stroke-miterlimit="10" stroke-linecap="round" stroke-linejoin="round"/>
<path d="M25.1022 52.2569C25.7034 51.9448 25.9283 52.639 26.5275 52.3229C27.0123 52.0668 27.5792 52.0338 28.1196 51.9401C29.5237 51.6953 30.8439 50.9931 31.8301 49.9663" stroke="#A8452C" stroke-miterlimit="10" stroke-linecap="round" stroke-linejoin="round"/>
<path d="M47.677 76.3012C47.6029 75.9409 47.9832 75.6617 48.3192 75.5093C49.4469 74.9965 50.0865 75.3252 51.3253 75.3245C51.871 75.3245 53.0391 74.7735 53.5365 74.5498C54.0338 74.326 55.6146 74.5471 55.354 74.0693" stroke="#A8452C" stroke-miterlimit="10" stroke-linecap="round" stroke-linejoin="round"/>
<path d="M34.071 71.3794C35.0175 70.4865 36.1353 69.7752 37.345 69.2941C38.6348 68.7813 40.627 67.93 41.8545 67.284C42.4346 66.9784 42.9743 66.5871 43.5927 66.3693C44.1391 66.1773 44.7238 66.1284 45.2979 66.0519C46.2589 65.9239 47.7914 65.3544 48.7161 65.062" stroke="#A8452C" stroke-miterlimit="10" stroke-linecap="round" stroke-linejoin="round"/>
<path d="M24.1133 74.21C24.5955 73.5666 24.8455 73.917 25.6445 73.8187C26.4435 73.7203 27.2729 73.7256 28.0177 73.4207C28.6262 73.1726 29.1633 72.7232 29.8148 72.6348" stroke="#A8452C" stroke-miterlimit="10" stroke-linecap="round" stroke-linejoin="round"/>
<path d="M18.5428 65.7187C19.0475 65.1934 19.7069 64.8185 20.4173 64.6516C20.8261 64.5559 20.6508 65.1247 21.0536 65.0086C21.7891 64.7967 23.0068 63.7112 23.6047 63.2334" stroke="#A8452C" stroke-miterlimit="10" stroke-linecap="round" stroke-linejoin="round"/>
<path d="M46.4857 59.557C46.4857 59.557 47.4931 58.9921 47.6816 57.4849C47.6816 57.4849 48.0592 59.1175 49.1294 59.2435C49.1294 59.2435 48.3099 60.0566 47.9964 62.0066C47.9964 62.0066 47.3667 59.557 46.4857 59.557Z" stroke="#A8452C" stroke-width="0.571" stroke-miterlimit="10" stroke-linecap="round" stroke-linejoin="round"/>
<path d="M13.4896 59.2748C13.4896 59.2748 14.4963 58.7092 14.6855 57.2026C14.6855 57.2026 15.0631 58.8353 16.1333 58.9613C16.1333 58.9613 15.3138 59.7737 15.0003 61.7244C15.0003 61.7244 14.3706 59.2748 13.4896 59.2748Z" stroke="#A8452C" stroke-width="0.571" stroke-miterlimit="10" stroke-linecap="round" stroke-linejoin="round"/>
<path d="M38.6969 43.3085C38.6969 43.3085 39.7036 42.7436 39.8927 41.2363C39.8927 41.2363 40.2704 42.869 41.3406 42.9944C41.3406 42.9944 40.5211 43.8074 40.2076 45.7574C40.6163 47.3505 37.5725 43.3085 38.6969 43.3085Z" stroke="#A8452C" stroke-miterlimit="10" stroke-linecap="round" stroke-linejoin="round"/>
<path d="M163.119 77.4951H104.066V80.2503H163.119V77.4951Z" stroke="#A8452C" stroke-width="2.1499" stroke-miterlimit="10" stroke-linecap="round" stroke-linejoin="round"/>
<path d="M106.615 80.674C106.615 80.674 111.289 95.7215 134.655 97.7349C134.655 97.7349 158.339 97.6287 160.888 80.356" stroke="#A8452C" stroke-width="2.1499" stroke-miterlimit="10" stroke-linecap="round" stroke-linejoin="round"/>
<path d="M139.612 82.8813H160.217" stroke="#A8452C" stroke-miterlimit="10" stroke-linecap="round" stroke-linejoin="round"/>
<path d="M108.917 82.8813H129.522" stroke="#A8452C" stroke-miterlimit="10" stroke-linecap="round" stroke-linejoin="round"/>
<path d="M110.829 85.875H159.048" stroke="#A8452C" stroke-miterlimit="10" stroke-linecap="round" stroke-linejoin="round"/>
<path d="M133.168 11.1582L104.066 77.4952" stroke="#A8452C" stroke-miterlimit="10" stroke-linecap="round" stroke-linejoin="round"/>
<path d="M133.38 10.9463L162.482 77.2833" stroke="#A8452C" stroke-miterlimit="10" stroke-linecap="round" stroke-linejoin="round"/>
<path d="M107.966 76.7918C109.654 74.7012 110.961 72.305 111.805 69.7564C112.075 68.9408 112.312 68.0842 112.863 67.4243C113.414 66.7644 114.392 66.3631 115.156 66.7591C115.379 66.8746 115.583 67.0541 115.833 67.0725C116.288 67.1055 116.585 66.6159 116.753 66.1929C118.599 61.5259 118.393 56.046 121.239 51.9089C121.628 51.344 122.122 50.7798 122.795 50.6392C123.142 50.5666 123.512 50.6142 123.848 50.502C124.378 50.3251 124.701 49.8005 124.952 49.3022C126.72 45.7783 127.097 41.6881 128.855 38.1582C129.283 37.2977 129.959 36.3751 130.921 36.3639C131.811 36.3533 132.507 37.1564 132.836 37.982C133.317 39.187 133.298 40.522 133.469 41.8082C133.641 43.0937 134.087 44.4604 135.172 45.1738C135.729 45.54 136.406 45.6978 136.95 46.0838C138.867 47.4452 138.134 50.6597 139.697 52.4138C140.344 53.139 141.297 53.5066 142.064 54.1038C144.063 55.6606 144.491 58.4355 145.143 60.8805C145.335 61.5965 145.579 62.3396 146.126 62.8405C146.551 63.2292 147.11 63.4265 147.626 63.6845C149.205 64.4764 150.439 65.9289 150.962 67.6137C151.169 68.2802 151.278 68.9995 151.683 69.569C152.269 70.3939 153.329 70.714 154.132 71.331C154.768 71.8193 155.236 72.4898 155.692 73.1491C156.557 74.3963 157.422 75.6442 158.286 76.8915" stroke="#A8452C" stroke-miterlimit="10" stroke-linecap="round" stroke-linejoin="round"/>
<path d="M115.716 76.6091C116.635 75.8917 116.72 74.5646 116.776 73.4018C116.831 72.2391 117.048 70.8895 118.069 70.3273C118.565 70.0541 119.165 70.029 119.676 69.7848C120.504 69.3889 120.967 68.4881 121.214 67.6058C121.461 66.7235 121.557 65.7917 121.94 64.9582C122.411 63.9313 123.275 63.1408 123.874 62.1819C125.313 59.8755 125.216 56.6287 127.312 54.8931C127.908 54.4001 128.65 54.0669 129.117 53.4512C129.861 52.4725 129.776 50.9534 130.743 50.1925C131.891 49.2904 133.674 50.2077 134.338 51.5057C135.001 52.8044 134.975 54.3335 135.319 55.7497C136.058 58.786 138.457 61.1689 139.456 64.13C139.865 65.3423 140.04 66.6515 140.697 67.7496C141.723 69.4615 143.758 70.3873 144.76 72.1124C145.157 72.7954 145.385 73.5939 145.945 74.1515C146.394 74.5983 147.009 74.8391 147.507 75.2305C147.991 75.6106 148.361 76.1346 148.554 76.7173" stroke="#A8452C" stroke-miterlimit="10" stroke-linecap="round" stroke-linejoin="round"/>
<path d="M125.95 76.5435C127.078 74.9439 127.692 72.9892 127.681 71.0339C127.675 69.8856 127.465 68.6951 127.857 67.6155C128.382 66.1729 129.874 65.2391 130.369 63.7866C130.615 63.0667 130.591 62.2794 130.814 61.5521C131.037 60.8249 131.651 60.1076 132.411 60.1742C133.068 60.2323 133.53 60.8434 133.807 61.4406C134.909 63.8203 134.443 66.6883 135.5 69.0884C135.904 70.0057 136.514 70.8148 137.118 71.6146C137.946 72.7087 138.773 73.8029 139.601 74.897C140.118 75.5807 140.635 76.265 141.152 76.9487" stroke="#A8452C" stroke-miterlimit="10" stroke-linecap="round" stroke-linejoin="round"/>
<path d="M121.364 59.6807C121.499 59.6807 121.608 59.7909 121.608 59.9229C121.608 60.0552 121.499 60.1641 121.364 60.1641C121.229 60.1639 121.121 60.0552 121.121 59.9229C121.121 59.7903 121.228 59.6808 121.364 59.6807Z" fill="black" stroke="#A8452C"/>
<path d="M150.571 72.8208C150.707 72.8208 150.816 72.9308 150.816 73.063C150.815 73.1954 150.707 73.3042 150.571 73.3042C150.436 73.304 150.328 73.1953 150.328 73.063C150.328 72.9305 150.436 72.821 150.571 72.8208Z" fill="black" stroke="#A8452C"/>
<path d="M121.045 74.5166C121.181 74.5166 121.289 74.6262 121.289 74.7588C121.289 74.8912 121.181 75 121.045 75C120.91 74.9999 120.802 74.8911 120.802 74.7588C120.802 74.6263 120.91 74.5167 121.045 74.5166Z" fill="black" stroke="#A8452C"/>
<path d="M140.375 55.5479C140.511 55.5479 140.619 55.6574 140.619 55.79C140.619 55.9224 140.511 56.0312 140.375 56.0312C140.24 56.0311 140.132 55.9224 140.132 55.79C140.132 55.6575 140.239 55.548 140.375 55.5479Z" fill="black" stroke="#A8452C"/>
<path d="M131.56 67.022C131.56 67.4318 131.227 67.7638 130.816 67.7638C130.406 67.7638 130.073 67.4318 130.073 67.022C130.073 66.6122 130.406 66.2803 130.816 66.2803C131.227 66.2803 131.56 66.6122 131.56 67.022Z" stroke="#A8452C" stroke-miterlimit="10" stroke-linecap="round" stroke-linejoin="round"/>
<path d="M127.63 54.6773C127.578 54.3592 126.675 51.127 126.675 51.127L129.064 53.1404" stroke="#A8452C" stroke-miterlimit="10" stroke-linecap="round" stroke-linejoin="round"/>
<path d="M134.109 43.8151C134.321 43.6032 138.038 40.9009 138.038 40.9009L136.339 45.7222" stroke="#A8452C" stroke-miterlimit="10" stroke-linecap="round" stroke-linejoin="round"/>
<path d="M135.065 67.6586L138.145 65.3799L136.074 69.7776" stroke="#A8452C" stroke-miterlimit="10" stroke-linecap="round" stroke-linejoin="round"/>
<path d="M117.222 64.3734L115.044 57.8032L118.018 60.2931" stroke="#A8452C" stroke-miterlimit="10" stroke-linecap="round" stroke-linejoin="round"/>
<path d="M145.686 61.8827L149.935 58.6504L147.624 63.6829" stroke="#A8452C" stroke-miterlimit="10" stroke-linecap="round" stroke-linejoin="round"/>
<path d="M124.444 49.6961L121.47 44.5039L125.453 46.5701" stroke="#A8452C" stroke-miterlimit="10" stroke-linecap="round" stroke-linejoin="round"/>
<path d="M84.4683 151.586V10.2935H78.8039V151.586C64.3889 156.248 50.3398 151.975 50.3398 151.975V158.056H112.933V151.975C112.933 151.975 96.9353 156.673 84.4683 151.586Z" stroke="#A8452C" stroke-width="2.1499" stroke-miterlimit="10" stroke-linecap="round" stroke-linejoin="round"/>
<path d="M30.4596 95.2812L33.2646 88.1455L35.8409 94.9942L29.1381 90.4011H37.3515L30.4596 95.2812Z" stroke="#A8452C" stroke-width="1.2815" stroke-miterlimit="10" stroke-linecap="round" stroke-linejoin="round"/>
<path d="M135.657 92.6496C134.266 92.4081 133.336 91.0876 133.578 89.6998C133.638 89.3547 133.765 89.0386 133.944 88.7607C132.944 89.1343 132.163 90.008 131.967 91.1325C131.672 92.8206 132.805 94.4268 134.497 94.7205C136.188 95.0141 137.798 93.8843 138.093 92.1963C138.124 92.0194 138.135 91.8439 138.136 91.6697C137.577 92.4101 136.635 92.8199 135.657 92.6496Z" stroke="#A8452C" stroke-width="1.2846" stroke-miterlimit="10" stroke-linecap="round" stroke-linejoin="round"/>
<path d="M88.5102 141.66V104.994" stroke="#A8452C" stroke-miterlimit="10" stroke-linecap="round" stroke-linejoin="round"/>
<path d="M75.7997 54.0945V17.4287" stroke="#A8452C" stroke-miterlimit="10" stroke-linecap="round" stroke-linejoin="round"/>
<path d="M3.78925 85.4609C3.78925 85.4609 11.0113 96.6934 22.4822 99.6611" stroke="#A8452C" stroke-miterlimit="10" stroke-linecap="round" stroke-linejoin="round"/>
<path d="M143.35 100.297C144.89 100.058 159.065 96.035 162.255 86.3091" stroke="#A8452C" stroke-miterlimit="10" stroke-linecap="round" stroke-linejoin="round"/>
<path d="M130.392 3.65283H156.307" stroke="#A8452C" stroke-miterlimit="10" stroke-linecap="round" stroke-linejoin="round"/>
</svg>
