<svg width="154" height="160" viewBox="0 0 154 160" fill="none" xmlns="http://www.w3.org/2000/svg">
<path d="M50.5558 71.6792L63.0619 81.959" stroke="#A8452C" stroke-width="1.4024" stroke-miterlimit="10" stroke-linecap="round" stroke-linejoin="round"/>
<path d="M79.264 53.9062L85.589 70.2566" stroke="#A8452C" stroke-width="1.4024" stroke-miterlimit="10" stroke-linecap="round" stroke-linejoin="round"/>
<path d="M99.7001 63.053C99.7001 63.053 80.2369 87.265 51.0426 92.8819M99.7001 63.053L90.6068 36.9467C90.6068 36.9467 84.8606 36.7266 81.8996 39.4271C78.9385 42.1275 79.7516 49.7784 69.7766 48.9535C59.8016 48.1278 53.7197 51.8038 51.0433 55.8544C48.367 59.905 52.0163 65.981 41.7982 66.6561C31.5802 67.3312 26.7143 74.4778 26.7143 74.4778L51.0426 92.8819M99.7001 63.053C99.7001 63.053 122.326 61.0304 149.695 103.787C149.695 103.787 145.924 140.467 86.8056 154.42C86.8056 154.42 53.6205 125.788 51.0426 92.8819" stroke="#A8452C" stroke-width="2.1499" stroke-miterlimit="10" stroke-linecap="round" stroke-linejoin="round"/>
<path d="M34.8186 92.3143C31.1737 93.252 27.6083 94.9877 25.456 97.865C24.6232 98.9782 24.0153 100.423 24.5875 101.669C25.0947 102.774 26.4238 103.402 27.7171 103.492C29.0104 103.581 30.2869 103.227 31.5204 102.856C35.0923 101.782 38.6146 100.518 41.9223 98.8607C43.5784 98.031 45.1797 97.1034 46.6846 96.0543C47.7539 95.3083 50.3303 93.8123 50.5835 92.5721C46.1088 90.561 39.4452 91.1234 34.8186 92.3143Z" stroke="#A8452C" stroke-width="1.4024" stroke-miterlimit="10" stroke-linecap="round" stroke-linejoin="round"/>
<path d="M44.5162 93.7462C40.729 95.1052 36.7805 96.6599 34.3362 99.6608C32.7838 101.567 31.9773 103.907 31.4737 106.247C31.0927 108.017 30.8759 109.885 31.4788 111.601C32.0816 113.318 33.6895 114.841 35.6375 114.938C37.5519 115.033 39.2299 113.803 40.5597 112.526C43.5331 109.67 45.8249 106.21 47.2255 102.462C48.1794 99.9092 48.718 97.2243 49.8675 94.7332C50.3989 93.5814 51.1988 92.5971 49.315 92.5155C47.7473 92.4466 45.9416 93.2344 44.5162 93.7462Z" stroke="#A8452C" stroke-width="1.4024" stroke-miterlimit="10" stroke-linecap="round" stroke-linejoin="round"/>
<path d="M100.089 62.5032C100.336 60.9916 102.259 60.3118 103.893 60.0829C107.003 59.6475 110.204 59.7757 113.262 60.4583C116.249 61.1253 119.123 62.3182 122.188 62.5214C125.479 62.7401 128.791 61.774 131.565 60.1194" stroke="#A8452C" stroke-width="1.4024" stroke-miterlimit="10" stroke-linecap="round" stroke-linejoin="round"/>
<path d="M56.1516 102.099C56.1516 102.099 59.1929 115.939 66.2477 124.94" stroke="#A8452C" stroke-width="0.6523" stroke-miterlimit="10" stroke-linecap="round" stroke-linejoin="round"/>
<path d="M118.919 73.2944C118.919 73.2944 133.881 83.6742 143.552 99.7923" stroke="#A8452C" stroke-width="0.6523" stroke-miterlimit="10" stroke-linecap="round" stroke-linejoin="round"/>
<path d="M88.2048 156.88C88.2048 156.88 113.719 152.07 127.678 139.665" stroke="#A8452C" stroke-width="0.6523" stroke-miterlimit="10" stroke-linecap="round" stroke-linejoin="round"/>
<path d="M26.2274 56.0802L24.3627 43.3652H29.1469L36.6885 48.5413V54.842L32.918 57.9928L26.2274 56.0802Z" stroke="#A8452C" stroke-width="2.1499" stroke-miterlimit="10" stroke-linecap="round" stroke-linejoin="round"/>
<path d="M41.4326 30.0878L44.109 12.5351C44.109 12.5351 55.2999 7.247 55.5436 7.47181C55.7867 7.69662 62.4299 14.7852 63.0619 15.0107C63.694 15.2355 61.8693 30.0878 61.8693 30.0878L56.1523 38.3019L46.4212 36.9429L41.4326 30.0878Z" stroke="#A8452C" stroke-width="2.1499" stroke-miterlimit="10" stroke-linecap="round" stroke-linejoin="round"/>
<path d="M6.15636 12.3102L10.9004 22.0992L21.8483 26.7122L28.6601 25.1372L32.3094 17.1487L29.8767 12.8726L11.9952 6.68457L6.15636 12.3102Z" stroke="#A8452C" stroke-width="2.1499" stroke-miterlimit="10" stroke-linecap="round" stroke-linejoin="round"/>
<path d="M14.5497 14.4485L16.1313 18.4992L20.8754 20.9741H24.3627L26.7143 16.6987L23.8342 14.4485L17.3473 13.7734L14.5497 14.4485Z" stroke="#A8452C" stroke-miterlimit="10" stroke-linecap="round" stroke-linejoin="round"/>
<path d="M14.5497 14.4481L6.15636 12.3101" stroke="#A8452C" stroke-miterlimit="10" stroke-linecap="round" stroke-linejoin="round"/>
<path d="M17.3473 13.7732L11.9952 6.68457" stroke="#A8452C" stroke-miterlimit="10" stroke-linecap="round" stroke-linejoin="round"/>
<path d="M32.3094 17.1485L26.7143 16.6982" stroke="#A8452C" stroke-miterlimit="10" stroke-linecap="round" stroke-linejoin="round"/>
<path d="M24.3627 20.9741L28.6601 25.1375" stroke="#A8452C" stroke-miterlimit="10" stroke-linecap="round" stroke-linejoin="round"/>
<path d="M20.8754 20.9741L21.8483 26.7125" stroke="#A8452C" stroke-miterlimit="10" stroke-linecap="round" stroke-linejoin="round"/>
<path d="M16.1313 18.499L10.9004 22.0994" stroke="#A8452C" stroke-miterlimit="10" stroke-linecap="round" stroke-linejoin="round"/>
<path d="M23.8342 14.4483L29.8767 12.8726" stroke="#A8452C" stroke-miterlimit="10" stroke-linecap="round" stroke-linejoin="round"/>
<path d="M48.2451 27.2753L50.4996 19.2861L55.4218 15.4609L58.9492 22.0992L57.7332 28.8503L55.1787 30.9884L49.461 30.2005L48.2451 27.2753Z" stroke="#A8452C" stroke-miterlimit="10" stroke-linecap="round" stroke-linejoin="round"/>
<path d="M55.4218 15.4609L55.5436 7.47168" stroke="#A8452C" stroke-miterlimit="10" stroke-linecap="round" stroke-linejoin="round"/>
<path d="M50.4996 19.2862L44.109 12.5352" stroke="#A8452C" stroke-miterlimit="10" stroke-linecap="round" stroke-linejoin="round"/>
<path d="M58.9492 22.0994C59.679 21.0867 63.0612 15.0107 63.0612 15.0107" stroke="#A8452C" stroke-miterlimit="10" stroke-linecap="round" stroke-linejoin="round"/>
<path d="M57.7332 28.8506L61.8686 30.0881" stroke="#A8452C" stroke-miterlimit="10" stroke-linecap="round" stroke-linejoin="round"/>
<path d="M55.1787 30.9883L56.1516 38.3017" stroke="#A8452C" stroke-miterlimit="10" stroke-linecap="round" stroke-linejoin="round"/>
<path d="M49.461 30.2007L46.4204 36.943" stroke="#A8452C" stroke-miterlimit="10" stroke-linecap="round" stroke-linejoin="round"/>
<path d="M48.2451 27.2754L41.4326 30.0879" stroke="#A8452C" stroke-miterlimit="10" stroke-linecap="round" stroke-linejoin="round"/>
<path d="M29.8767 52.2541L29.5118 47.978L34.3778 50.1161V52.8165L32.9181 53.9061L29.8767 52.2541Z" stroke="#A8452C" stroke-miterlimit="10" stroke-linecap="round" stroke-linejoin="round"/>
<path d="M29.5118 47.9782L24.3627 43.3652" stroke="#A8452C" stroke-miterlimit="10" stroke-linecap="round" stroke-linejoin="round"/>
<path d="M29.8767 52.2544L26.2274 56.0802" stroke="#A8452C" stroke-miterlimit="10" stroke-linecap="round" stroke-linejoin="round"/>
<path d="M32.9181 53.9062V57.9927" stroke="#A8452C" stroke-miterlimit="10" stroke-linecap="round" stroke-linejoin="round"/>
<path d="M34.3778 50.116L36.6885 48.541" stroke="#A8452C" stroke-miterlimit="10" stroke-linecap="round" stroke-linejoin="round"/>
<path d="M34.3778 52.8164L36.6885 54.8417" stroke="#A8452C" stroke-miterlimit="10" stroke-linecap="round" stroke-linejoin="round"/>
<path d="M39.3649 30.9883L44.8388 38.6392L55.1787 40.2143" stroke="#A8452C" stroke-width="0.6523" stroke-miterlimit="10" stroke-linecap="round" stroke-linejoin="round"/>
<path d="M64.0582 28.8504L65.5179 15.9106" stroke="#A8452C" stroke-width="0.6523" stroke-miterlimit="10" stroke-linecap="round" stroke-linejoin="round"/>
<path d="M43.4754 10.5085L54.3014 5.78271" stroke="#A8452C" stroke-width="0.6523" stroke-miterlimit="10" stroke-linecap="round" stroke-linejoin="round"/>
<path d="M58.9492 39.0897L63.1947 32.4507" stroke="#A8452C" stroke-width="0.6523" stroke-miterlimit="10" stroke-linecap="round" stroke-linejoin="round"/>
<path d="M6.46071 8.14551L3.54128 11.4684L9.74507 23.8451L14.5497 26.1519" stroke="#A8452C" stroke-width="0.6523" stroke-miterlimit="10" stroke-linecap="round" stroke-linejoin="round"/>
<path d="M16.1313 5.78076L28.6601 10.229" stroke="#A8452C" stroke-width="0.6523" stroke-miterlimit="10" stroke-linecap="round" stroke-linejoin="round"/>
<path d="M21.8483 28.1194L29.5527 26.5437L32.6743 19.5679" stroke="#A8452C" stroke-width="0.6523" stroke-miterlimit="10" stroke-linecap="round" stroke-linejoin="round"/>
<path d="M22.3957 42.2397L23.308 52.2543" stroke="#A8452C" stroke-width="0.6523" stroke-miterlimit="10" stroke-linecap="round" stroke-linejoin="round"/>
<path d="M36.6885 57.9925L38.635 56.0799V48.541" stroke="#A8452C" stroke-width="0.6523" stroke-miterlimit="10" stroke-linecap="round" stroke-linejoin="round"/>
<path d="M30.5256 41.79L35.5331 44.9401" stroke="#A8452C" stroke-width="0.6523" stroke-miterlimit="10" stroke-linecap="round" stroke-linejoin="round"/>
<path d="M10.0976 36.6802C10.8435 37.1527 11.5901 37.626 12.3361 38.0986C12.4098 38.1452 12.493 38.21 12.4806 38.2916C12.4689 38.374 12.2923 38.3713 12.3193 38.293" stroke="#A8452C" stroke-miterlimit="10" stroke-linecap="round" stroke-linejoin="round"/>
<path d="M42.5274 57.3175L43.8878 56.0591" stroke="#A8452C" stroke-miterlimit="10" stroke-linecap="round" stroke-linejoin="round"/>
<path d="M37.2972 13.6605L39 12.0854" stroke="#A8452C" stroke-miterlimit="10" stroke-linecap="round" stroke-linejoin="round"/>
<path d="M28.5389 4.32178V6.45916" stroke="#A8452C" stroke-miterlimit="10" stroke-linecap="round" stroke-linejoin="round"/>
<path d="M65.3967 11.973V9.7998" stroke="#A8452C" stroke-miterlimit="10" stroke-linecap="round" stroke-linejoin="round"/>
<path d="M75.1279 32.1133L76.8227 30.5464" stroke="#A8452C" stroke-miterlimit="10" stroke-linecap="round" stroke-linejoin="round"/>
<path d="M66.6127 44.3777L65.0741 42.9546" stroke="#A8452C" stroke-miterlimit="10" stroke-linecap="round" stroke-linejoin="round"/>
<path d="M32.1882 32.1133L33.9085 33.7052" stroke="#A8452C" stroke-miterlimit="10" stroke-linecap="round" stroke-linejoin="round"/>
<path d="M14.4278 56.98V54.2397" stroke="#A8452C" stroke-miterlimit="10" stroke-linecap="round" stroke-linejoin="round"/>
<path d="M88.0223 34.4085C89.1062 34.021 90.4002 33.6504 91.3629 34.2526C91.9774 34.6367 92.2738 35.3186 92.5358 35.9606C94.313 40.3049 96.0902 44.6485 97.8681 48.9928" stroke="#A8452C" stroke-miterlimit="10" stroke-linecap="round" stroke-linejoin="round"/>
<path d="M26.5208 70.167C25.1122 71.0703 24.1561 72.5521 23.9642 74.1272C23.9277 74.4276 23.9211 74.7462 24.0678 75.0163C24.2006 75.26 24.4422 75.4348 24.6765 75.6016C28.6024 78.3925 32.5283 81.1827 36.4535 83.9736" stroke="#A8452C" stroke-miterlimit="10" stroke-linecap="round" stroke-linejoin="round"/>
<path d="M116.239 126.112C126.024 117.06 126.024 102.384 116.239 93.3327C106.453 84.2811 90.5871 84.2811 80.8014 93.3327C71.0156 102.384 71.0156 117.06 80.8014 126.112C90.5871 135.163 106.453 135.163 116.239 126.112Z" stroke="#A8452C" stroke-width="2.1499" stroke-miterlimit="10" stroke-linecap="round" stroke-linejoin="round"/>
<path d="M81.1741 126.443L98.5228 86.5435L115.826 126.483L75.876 99.7924H120.916L81.1741 126.443Z" stroke="#A8452C" stroke-width="2.1499" stroke-miterlimit="10" stroke-linecap="round" stroke-linejoin="round"/>
<path d="M74.155 123.578C73.912 123.24 63.2072 103.433 79.264 90.6646" stroke="#A8452C" stroke-width="2.1499" stroke-miterlimit="10" stroke-linecap="round" stroke-linejoin="round"/>
<path d="M121.02 93.7769C121.299 94.0894 134.134 112.782 119.57 127" stroke="#A8452C" stroke-width="2.1499" stroke-miterlimit="10" stroke-linecap="round" stroke-linejoin="round"/>
<path d="M99.6687 62.8167C98.9322 58.8329 101.934 54.9133 105.737 52.9231C109.539 50.9322 114.008 50.4292 118.334 49.8588C121.507 49.4402 125.093 48.7097 126.686 46.1362" stroke="#A8452C" stroke-width="1.4024" stroke-miterlimit="10" stroke-linecap="round" stroke-linejoin="round"/>
</svg>
