<svg width="121" height="159" viewBox="0 0 121 159" fill="none" xmlns="http://www.w3.org/2000/svg">
<path d="M49.1089 37.4824C48.5925 40.9434 41.6248 46.7842 35.6898 49.5969C29.754 52.409 28.9798 61.7114 30.0126 64.5234C31.0446 67.3355 31.0446 73.3931 31.0446 75.2777C31.0446 77.163 26.1417 95.4577 23.3027 100.866C20.4637 106.274 8.33521 122.663 8.33521 122.663C9.20617 123.008 10.0973 123.072 10.9899 122.921C17.2384 121.863 23.5613 110.239 23.5613 110.239L21.2387 120.297C26.1417 117.446 32.0774 107.356 32.0774 107.356C32.0774 107.356 31.0454 129.421 16.0771 129.421C16.0771 129.421 9.30295 128.691 12.7226 122.688" stroke="#A8452C" stroke-width="2.1499" stroke-miterlimit="10" stroke-linecap="round" stroke-linejoin="round"/>
<path d="M57.625 48.2984L25.6253 3.37476L71.3027 35.7517C71.3027 35.7517 74.1409 50.2454 57.625 48.2984Z" stroke="#A8452C" stroke-width="2.1499" stroke-miterlimit="10" stroke-linecap="round" stroke-linejoin="round"/>
<path d="M103.625 65.551C103.819 65.0642 112.529 58.0877 113.883 51.2734C115.238 44.4591 116.98 40.2407 116.98 40.2407C116.98 40.2407 113.883 38.6183 113.496 32.7775C113.109 26.9367 102.658 15.7418 99.9479 16.2285C97.2382 16.7152 85.4318 15.0928 80.3995 29.2081C75.3672 43.3234 68.7866 45.2703 90.6576 58.2499C90.6576 58.2499 97.0447 62.4274 92.3995 69.1002" stroke="#A8452C" stroke-width="2.1499" stroke-miterlimit="10" stroke-linecap="round" stroke-linejoin="round"/>
<path d="M61.0903 28.5131C61.0903 28.5131 67.4155 20.9025 71.4878 16.213C75.56 11.5234 92.7858 7.30507 99.9471 16.2285" stroke="#A8452C" stroke-width="2.1499" stroke-miterlimit="10" stroke-linecap="round" stroke-linejoin="round"/>
<path d="M11.7603 126.356C11.7603 126.356 8.26942 134.667 8.33445 135.154C8.39871 135.641 9.9471 138.326 10.5277 140.228C11.1084 142.13 5.30194 146.998 24.2697 146.511C24.2697 146.511 38.3987 140.67 41.8826 135.316C45.3665 129.962 61.0439 108.546 62.7858 108.546C64.5277 108.546 71.689 108.221 74.0116 105.95C76.3342 103.678 80.5187 97.8376 80.5187 97.8376" stroke="#A8452C" stroke-width="2.1499" stroke-miterlimit="10" stroke-linecap="round" stroke-linejoin="round"/>
<path d="M82.7221 106.112C82.7221 106.112 79.8188 87.7245 74.3995 83.4517C74.3995 83.4517 86.3995 83.8845 91.0446 99.2978" stroke="#A8452C" stroke-width="2.1499" stroke-miterlimit="10" stroke-linecap="round" stroke-linejoin="round"/>
<path d="M110.365 58.2927C110.365 58.2927 112.721 61.3325 108.27 65.3887C103.818 69.4448 98.3987 72.6897 95.1084 80.9642C91.8181 89.2387 87.416 91.5795 87.416 91.5795" stroke="#A8452C" stroke-width="2.1499" stroke-miterlimit="10" stroke-linecap="round" stroke-linejoin="round"/>
<path d="M34.4047 52.7849C35.5412 51.6466 37.5672 51.3312 39.2705 51.7387C40.9737 52.1463 42.3843 53.162 43.5107 54.3081C44.2114 55.0206 44.8284 55.7994 45.2387 56.6567C45.7327 57.6899 45.913 58.8061 46.0896 59.9094C46.2343 60.8141 46.3783 61.7188 46.5231 62.6234" stroke="#A8452C" stroke-width="2.1499" stroke-miterlimit="10" stroke-linecap="round" stroke-linejoin="round"/>
<path d="M35.161 62.9574C35.0983 62.067 35.0356 61.1767 34.9737 60.2863C34.9412 59.8222 34.9102 59.3446 35.0875 58.9039C35.6147 57.593 37.8266 57.2432 39.2581 57.9317C40.6896 58.6203 41.4614 59.9715 41.9778 61.285C43.6137 65.4404 43.5099 70.0612 41.6898 74.1621" stroke="#A8452C" stroke-miterlimit="10" stroke-linecap="round" stroke-linejoin="round"/>
<path d="M61.3837 65.2856C64.1267 63.9694 66.735 62.4567 69.1721 60.77C70.5107 59.8432 71.8129 58.8555 73.3473 58.1753C74.8818 57.4952 76.7174 57.148 78.3688 57.5958C81.8364 58.5362 82.9791 62.3496 86.1571 63.8448" stroke="#A8452C" stroke-width="2.1499" stroke-miterlimit="10" stroke-linecap="round" stroke-linejoin="round"/>
<path d="M63.8077 66.279C67.1855 65.6963 70.4077 64.4917 73.1824 62.7752C74.0077 62.2644 75.0924 61.6869 75.9657 62.1379" stroke="#A8452C" stroke-width="2.1499" stroke-miterlimit="10" stroke-linecap="round" stroke-linejoin="round"/>
<path d="M80.5365 37.1366C81.2968 35.3007 82.057 33.4647 82.8173 31.6287C83.5202 29.9323 84.2735 28.1671 85.8242 26.9282C86.912 26.0585 88.3102 25.5186 89.7006 25.039C92.5806 24.0454 95.5535 23.2407 98.5829 22.6352C99.138 22.5242 99.7388 22.4223 100.264 22.6079C100.719 22.7682 101.035 23.1141 101.324 23.449C104.957 27.6447 107.899 32.4283 108.527 37.5857C109.155 42.7432 107.154 48.314 102.354 51.5836" stroke="#A8452C" stroke-miterlimit="10" stroke-linecap="round" stroke-linejoin="round"/>
<path d="M100.612 47.4282C103.676 44.1314 106.055 40.3888 107.611 36.4183C107.867 35.7641 108.102 35.0567 107.867 34.3967" stroke="#A8452C" stroke-miterlimit="10" stroke-linecap="round" stroke-linejoin="round"/>
<path d="M70.3079 29.0431C71.6464 26.8736 72.985 24.7041 74.3236 22.5345C74.9507 21.5182 75.591 20.4863 76.5401 19.6654C77.4901 18.8438 78.8108 18.2487 80.1719 18.335" stroke="#A8452C" stroke-miterlimit="10" stroke-linecap="round" stroke-linejoin="round"/>
<path d="M77.4885 24.1519C78.481 23.2602 79.225 22.1758 79.6454 21.0083C80.0256 19.953 80.1936 18.7589 81.1419 17.9944C81.6986 17.5466 82.4511 17.3156 83.1943 17.1417C85.9466 16.4992 88.9056 16.4914 91.6632 17.1196" stroke="#A8452C" stroke-miterlimit="10" stroke-linecap="round" stroke-linejoin="round"/>
<path d="M73.489 106.5C76.249 107.722 77.9499 110.109 79.4302 112.413C81.0862 114.991 82.6431 117.613 84.1992 120.234C83.7533 113.81 81.7675 107.465 78.3966 101.684" stroke="#A8452C" stroke-width="2.1499" stroke-miterlimit="10" stroke-linecap="round" stroke-linejoin="round"/>
<path d="M48.1141 127.479C49.9404 128.454 51.8759 129.285 53.8857 129.96C54.2596 130.085 54.7435 130.188 55.0191 129.941C55.1678 129.808 55.2003 129.614 55.2196 129.432C55.4906 126.956 54.1056 123.975 52.5045 121.882C54.3045 122.729 56.1587 123.494 58.0578 124.172C58.3505 124.276 58.6942 124.378 58.9737 124.25C59.3693 124.07 59.3376 123.591 59.233 123.224C58.6478 121.166 57.1125 118.36 55.4798 116.746C58.472 117.685 61.4008 118.765 64.249 119.979C63.2736 116.974 62.7061 112.806 61.2963 109.924C63.8333 111.22 66.2774 112.642 68.6116 114.182C68.343 112.274 67.9195 110.38 67.3466 108.519" stroke="#A8452C" stroke-width="2.1499" stroke-miterlimit="10" stroke-linecap="round" stroke-linejoin="round"/>
<path d="M41.6976 136.889C47.7541 140.296 52.5967 144.891 57.3672 149.432C54.9161 142.757 50.9035 136.499 46.0896 130.716" stroke="#A8452C" stroke-width="2.5808" stroke-miterlimit="10" stroke-linecap="round" stroke-linejoin="round"/>
<path d="M19.8862 146.875C22.0973 147.944 24.3084 149.014 26.5195 150.084C26.8113 150.225 27.2023 150.361 27.457 150.175C27.6746 150.017 27.6351 149.73 27.5708 149.495C27.2271 148.237 27.7535 147.132 27.0506 145.984C27.7171 146.682 28.4038 147.396 29.322 147.852C30.2395 148.308 31.4518 148.457 32.3623 147.992C33.3231 147.501 33.7017 146.446 33.5546 145.511C33.4075 144.576 33.4531 143.518 32.8686 142.712C33.6815 143.501 34.4944 144.291 35.3073 145.08C35.9468 145.701 36.68 146.366 37.6531 146.459C38.6495 146.555 39.6134 145.976 40.0671 145.227C40.5207 144.477 40.5471 143.594 40.424 142.76C40.2242 141.411 39.6606 140.118 38.984 138.883" stroke="#A8452C" stroke-width="2.1499" stroke-miterlimit="10" stroke-linecap="round" stroke-linejoin="round"/>
<path d="M95.1092 80.9641C93.6816 85.5861 94.825 93.945 92.2207 98.1913C90.6669 100.724 88.0687 102.676 85.527 104.567C84.3022 105.478 83.0774 106.389 81.8527 107.3" stroke="#A8452C" stroke-width="2.1499" stroke-miterlimit="10" stroke-linecap="round" stroke-linejoin="round"/>
<path d="M77.0418 110.206C75.3974 111.942 72.8642 112.874 70.698 114.146C68.0534 115.7 65.8942 117.828 64.4882 120.265C63.8348 121.398 63.3432 122.594 62.6712 123.72C59.9128 128.345 54.4617 131.338 49.2537 134.11" stroke="#A8452C" stroke-width="2.1499" stroke-miterlimit="10" stroke-linecap="round" stroke-linejoin="round"/>
<path d="M108.678 65.22C109.123 69.9296 112.991 74.0805 113.242 78.7999C113.379 81.3867 112.407 83.9262 111.209 86.3131C107.052 94.5908 100.135 101.679 95.2617 109.677C91.894 115.204 89.494 121.176 85.3188 126.302C82.9056 129.265 79.9466 131.883 76.9327 134.43C72.8883 137.849 68.6914 141.184 63.8953 143.833C58.0137 147.082 51.3773 149.22 44.7998 151.332C43.4906 151.753 42.1575 152.178 40.7593 152.261C39.7466 152.321 38.7309 152.2 37.7314 152.048C34.2073 151.51 30.7691 150.58 27.5345 149.291C27.663 148.905 27.7907 148.519 27.9193 148.133" stroke="#A8452C" stroke-width="2.1499" stroke-miterlimit="10" stroke-linecap="round" stroke-linejoin="round"/>
<path d="M72.6893 128.686C74.5442 128.131 76.2451 127.214 77.6186 126.031C78.1853 125.542 78.6962 125.011 79.2064 124.479C80.7448 122.877 82.2839 121.274 83.8222 119.671C85.2699 118.163 87.2635 115.512 87.8735 113.645C89.0093 110.17 90.4624 106.768 92.2168 103.479C92.8671 102.259 93.5708 101.039 94.6075 100.024C96.3285 98.3394 98.8508 97.3296 100.532 95.6176C102.043 94.0801 102.747 92.1118 103.415 90.2012C104.475 87.1724 105.534 84.1443 106.594 81.1155" stroke="#A8452C" stroke-miterlimit="10" stroke-linecap="round" stroke-linejoin="round"/>
<path d="M36.0939 102.953C39.7481 97.0148 42.111 90.5198 43.033 83.8833" stroke="#A8452C" stroke-miterlimit="10" stroke-linecap="round" stroke-linejoin="round"/>
<path d="M19.0005 140.979C20.9167 141.132 22.7492 140.341 24.3781 139.483C30.303 136.362 35.2857 131.996 38.7425 126.896C40.8444 123.794 42.3804 120.447 44.3577 117.288C46.3342 114.13 48.8403 111.09 52.3799 109.11" stroke="#A8452C" stroke-miterlimit="10" stroke-linecap="round" stroke-linejoin="round"/>
<path d="M69.663 103.396C69.2743 102.959 69.7652 102.37 70.2018 101.967C72.145 100.17 73.4999 97.9299 74.0797 95.554" stroke="#A8452C" stroke-miterlimit="10" stroke-linecap="round" stroke-linejoin="round"/>
<path d="M34.1143 14.8948C35.4452 14.19 36.3835 12.9855 36.6181 11.6804" stroke="#A8452C" stroke-miterlimit="10" stroke-linecap="round" stroke-linejoin="round"/>
<path d="M42.6459 26.6017C44.0674 25.2564 45.5879 23.6515 45.2581 21.8759C45.193 21.5274 45.0568 21.1873 45.0405 20.8349C44.9925 19.816 45.9223 18.9717 46.7879 18.2559" stroke="#A8452C" stroke-miterlimit="10" stroke-linecap="round" stroke-linejoin="round"/>
<path d="M50.6178 38.295C52.2537 36.9374 53.281 35.0761 53.4552 33.1519C53.5899 31.6689 53.2392 30.1464 53.6821 28.7064C54.0839 27.3987 55.1019 26.2909 56.1517 25.2661" stroke="#A8452C" stroke-miterlimit="10" stroke-linecap="round" stroke-linejoin="round"/>
<path d="M57.7117 47.4821C58.5672 47.5729 59.2779 46.9506 59.7533 46.3477C61.0175 44.7427 61.7468 42.8451 61.839 40.9235C61.904 39.5639 61.6593 38.1861 61.9636 36.8498C62.3236 35.2735 63.4144 33.8931 64.4821 32.5607C64.7329 32.2473 65.0464 31.902 65.4962 31.8767" stroke="#A8452C" stroke-miterlimit="10" stroke-linecap="round" stroke-linejoin="round"/>
<path d="M53.9407 42.9113C55.4039 42.0027 55.4233 40.2264 55.6927 38.7169C56.072 36.5902 57.2349 34.566 58.9814 32.991" stroke="#A8452C" stroke-miterlimit="10" stroke-linecap="round" stroke-linejoin="round"/>
<path d="M50.7246 21.6428C50.2206 22.273 49.9156 23.0135 49.8482 23.7702C49.7306 25.0999 50.3306 26.3934 50.538 27.7153C50.7455 29.0373 50.3979 30.6065 49.0028 31.2471" stroke="#A8452C" stroke-miterlimit="10" stroke-linecap="round" stroke-linejoin="round"/>
<path d="M39.9564 22.2497C39.3564 21.4242 40.0477 20.4008 40.3884 19.4773C40.8661 18.1832 40.6129 16.7892 40.3566 15.4517" stroke="#A8452C" stroke-miterlimit="10" stroke-linecap="round" stroke-linejoin="round"/>
<path d="M33.1868 9.40308C33.7527 9.91317 33.4075 10.897 32.6023 11.069" stroke="#A8452C" stroke-miterlimit="10" stroke-linecap="round" stroke-linejoin="round"/>
<path d="M68.5891 33.7451C68.2353 34.5823 67.8823 35.4195 67.5285 36.2573C67.3187 36.7544 67.1058 37.2645 67.1089 37.7922C67.1128 38.3483 67.3559 38.8857 67.4093 39.4399C67.5409 40.8138 66.3254 42.1896 64.7197 42.4856" stroke="#A8452C" stroke-miterlimit="10" stroke-linecap="round" stroke-linejoin="round"/>
<path d="M69.2813 69.3591C67.5873 69.5934 65.7316 69.9036 64.6679 71.0335C63.7752 71.981 63.6676 73.2751 63.642 74.4822C63.5809 77.3507 63.7721 80.2237 64.2134 83.0688C67.5223 81.8611 70.9613 80.9032 74.4746 80.2107C75.8882 79.9317 77.3189 79.6948 78.6877 79.2872C82.1004 78.2703 85.0346 76.1669 86.7626 73.499C87.0026 73.1278 87.2263 72.7189 87.1613 72.3003C87.042 71.5358 86.0658 71.1153 85.2149 70.8239C82.8506 70.014 79.8227 68.4032 77.2787 68.2461C74.7811 68.091 71.7796 69.0976 69.2813 69.3591Z" stroke="#A8452C" stroke-width="2.1499" stroke-miterlimit="10" stroke-linecap="round" stroke-linejoin="round"/>
<path d="M69.4005 69.5967C71.0952 73.9371 69.3184 79.077 65.1169 81.9857C64.935 81.8721 64.8545 81.656 64.9272 81.4763" stroke="#A8452C" stroke-width="2.1499" stroke-miterlimit="10" stroke-linecap="round" stroke-linejoin="round"/>
<path d="M74.151 68.8225C76.6199 72.3517 76.2854 77.1171 73.3389 80.3789" stroke="#A8452C" stroke-width="2.1499" stroke-miterlimit="10" stroke-linecap="round" stroke-linejoin="round"/>
<path d="M79.3845 68.9834C81.0127 69.9439 81.8658 71.6552 81.8898 73.3238C81.9138 74.9929 81.1938 76.6186 80.1866 78.0587" stroke="#A8452C" stroke-width="2.1499" stroke-miterlimit="10" stroke-linecap="round" stroke-linejoin="round"/>
<path d="M13.2336 145.898C13.0098 145.909 13.1089 146.207 13.2707 146.337C17.2671 149.561 21.7698 152.344 26.6248 154.592C24.4307 152.217 22.2367 149.841 20.0426 147.466" stroke="#A8452C" stroke-width="2.1499" stroke-miterlimit="10" stroke-linecap="round" stroke-linejoin="round"/>
<path d="M15.3858 121.659C14.8694 122.485 14.6286 123.431 14.6999 124.361C14.7386 124.874 14.9089 125.432 15.4145 125.722C15.7156 125.895 16.0919 125.946 16.4557 125.965C19.9032 126.15 22.952 123.942 24.6382 121.414C26.3244 118.887 27.0483 115.994 28.4248 113.338" stroke="#A8452C" stroke-miterlimit="10" stroke-linecap="round" stroke-linejoin="round"/>
<path d="M83.2323 70.4448C83.902 70.8037 84.2736 71.4637 84.3835 72.1237C84.4935 72.7837 84.375 73.4535 84.2566 74.1122" stroke="#A8452C" stroke-miterlimit="10" stroke-linecap="round" stroke-linejoin="round"/>
<path d="M77.0859 79.1198C78.3502 78.1301 79.0392 76.6459 78.9053 75.2" stroke="#A8452C" stroke-miterlimit="10" stroke-linecap="round" stroke-linejoin="round"/>
<path d="M76.5618 69.0085C77.7223 70.0683 78.5229 71.4039 78.8434 72.8174" stroke="#A8452C" stroke-miterlimit="10" stroke-linecap="round" stroke-linejoin="round"/>
<path d="M69.5066 80.8817C69.9239 80.5429 70.3311 80.1951 70.7275 79.8394C71.0348 79.5636 71.3368 79.2819 71.5876 78.9685C72.2271 78.1689 72.5019 77.2091 72.7644 76.272" stroke="#A8452C" stroke-miterlimit="10" stroke-linecap="round" stroke-linejoin="round"/>
<path d="M71.7711 69.3474C73.0795 70.9095 73.719 72.8571 73.5479 74.7606" stroke="#A8452C" stroke-miterlimit="10" stroke-linecap="round" stroke-linejoin="round"/>
<path d="M64.6973 80.9855C66.1721 78.9983 66.9866 76.6698 67.0237 74.3296" stroke="#A8452C" stroke-miterlimit="10" stroke-linecap="round" stroke-linejoin="round"/>
<path d="M66.5275 70.6648C66.7117 71.3839 66.896 72.1023 67.081 72.8214" stroke="#A8452C" stroke-miterlimit="10" stroke-linecap="round" stroke-linejoin="round"/>
<path d="M41.3151 81.0349C41.4397 83.2551 41.1192 85.4921 40.3713 87.6247" stroke="#A8452C" stroke-miterlimit="10" stroke-linecap="round" stroke-linejoin="round"/>
<path d="M84.6599 91.4211C85.8599 92.8671 86.8555 94.4324 87.6181 96.0743" stroke="#A8452C" stroke-miterlimit="10" stroke-linecap="round" stroke-linejoin="round"/>
<path d="M76.1608 105.958C77.5698 106.535 78.3564 107.796 79.0485 108.976" stroke="#A8452C" stroke-miterlimit="10" stroke-linecap="round" stroke-linejoin="round"/>
<path d="M68.0542 108.596C67.8637 108.559 67.9481 108.846 68.113 108.934C70.0981 109.995 72.0823 111.055 74.0674 112.116C73.8219 110.49 73.7004 108.851 73.7027 107.211" stroke="#A8452C" stroke-width="2.1499" stroke-miterlimit="10" stroke-linecap="round" stroke-linejoin="round"/>
<path d="M87.4167 91.5795C89.1494 91.8709 91.496 93.1695 93.2549 93.3084C92.528 91.8028 91.801 90.2971 91.0733 88.7915" stroke="#A8452C" stroke-width="2.1499" stroke-miterlimit="10" stroke-linecap="round" stroke-linejoin="round"/>
<path d="M46.0462 133.84C46.9729 134.98 47.8989 136.121 48.8256 137.261" stroke="#A8452C" stroke-miterlimit="10" stroke-linecap="round" stroke-linejoin="round"/>
<path d="M17.1633 140.966C15.656 141.141 14.0813 140.881 12.7659 140.24" stroke="#A8452C" stroke-miterlimit="10" stroke-linecap="round" stroke-linejoin="round"/>
<path d="M113.26 41.1147C113.224 41.6093 113.187 42.1044 113.15 42.599C112.906 45.901 112.628 49.3075 110.857 52.2636" stroke="#A8452C" stroke-miterlimit="10" stroke-linecap="round" stroke-linejoin="round"/>
<path d="M108.725 55.9707C107.848 57.2583 106.823 58.4764 105.672 59.6017" stroke="#A8452C" stroke-miterlimit="10" stroke-linecap="round" stroke-linejoin="round"/>
<path d="M107.32 78.9906C107.69 77.0858 107.571 75.1148 106.973 73.251" stroke="#A8452C" stroke-miterlimit="10" stroke-linecap="round" stroke-linejoin="round"/>
<path d="M68.7928 130.358C67.2522 131.238 65.9267 131.93 64.7778 133.16C62.0511 136.081 58.6098 138.53 54.7304 140.312C54.464 140.435 54.1861 140.683 53.9701 140.863" stroke="#A8452C" stroke-miterlimit="10" stroke-linecap="round" stroke-linejoin="round"/>
</svg>
