<svg width="134" height="141" viewBox="0 0 134 141" fill="none" xmlns="http://www.w3.org/2000/svg">
<path d="M68.508 16.6018C82.4016 16.6018 93.6645 13.5598 93.6645 9.80727C93.6645 6.05473 82.4016 3.0127 68.508 3.0127C54.6145 3.0127 43.3516 6.05473 43.3516 9.80727C43.3516 13.5598 54.6145 16.6018 68.508 16.6018Z" stroke="#A8452C" stroke-width="2.1499" stroke-miterlimit="10" stroke-linecap="round" stroke-linejoin="round"/>
<path d="M43.3508 9.80713L43.3271 22.9201C43.3271 22.9201 52.7257 29.3788 70.4314 29.2386C87.6093 29.102 93.629 23.6222 93.629 23.6222L93.6645 9.80713" stroke="#A8452C" stroke-width="2.1499" stroke-miterlimit="10" stroke-linecap="round" stroke-linejoin="round"/>
<path d="M93.6297 23.6226C115.923 32.5491 130.598 53.6711 130.598 77.6647C130.598 109.838 102.536 135.919 67.9195 135.919C33.303 135.919 5.24078 109.838 5.24078 77.6647C5.24078 53.5352 21.0254 32.8318 43.5218 23.988" stroke="#A8452C" stroke-width="2.1499" stroke-miterlimit="10" stroke-linecap="round" stroke-linejoin="round"/>
<path d="M99.4376 34.0122C99.4376 34.0122 114.222 43.9804 119.572 55.7742" stroke="#A8452C" stroke-miterlimit="10" stroke-linecap="round" stroke-linejoin="round"/>
<path d="M63.7765 111.002C61.6237 110.529 59.493 109.928 57.4608 109.076C53.0802 107.238 49.1639 104.173 46.6593 100.146C44.1555 96.1178 43.1457 91.1105 44.2688 86.5062C45.3919 81.9019 48.7426 77.81 53.1861 76.129C53.7865 75.9017 54.4173 75.7097 54.9185 75.3096C55.4626 74.8755 55.7995 74.2392 56.0919 73.6088C57.0055 71.6362 57.6407 69.5072 58.92 67.748C60.1993 65.9889 62.3743 64.6335 64.4961 65.1273C66.0797 65.4965 67.3464 66.8157 68.9589 67.0297C70.4662 67.2298 72.7923 62.9208 74.2944 63.16C75.9587 63.425 76.3511 68.4154 77.0018 69.9656C77.6526 71.5159 80.0113 69.8999 80.7249 71.4222C82.3181 74.8172 86.9978 74.0325 88.7635 77.3412C89.7896 79.265 89.4283 84.8053 89.7526 86.9602C90.1301 89.4665 92.1742 94.2966 92.3496 96.8258C92.5177 99.2486 89.526 102.631 88.5162 104.841C87.2384 107.638 83.3346 109.255 80.4355 110.301C74.9963 112.26 69.3327 112.224 63.7765 111.002Z" stroke="#A8452C" stroke-width="2.1499" stroke-miterlimit="10" stroke-linecap="round" stroke-linejoin="round"/>
<path d="M51.3827 117.906C46.0775 116.424 40.7678 114.475 36.5279 110.968C33.7747 108.69 31.5581 105.818 29.7517 102.739C25.1476 94.891 23.162 85.5444 24.1777 76.5093C24.5212 73.4561 25.2046 70.419 26.4779 67.6204C28.046 64.1766 30.4594 61.1905 32.9536 58.341C36.4702 54.3244 40.203 50.4959 44.1289 46.8757C45.2846 45.8105 46.8141 44.6862 48.2866 45.2391C49.1262 45.5543 49.6762 46.3405 50.3625 46.9171C52.9774 49.114 57.0477 47.9277 59.8106 45.9197C62.5736 43.9118 64.91 41.1516 68.1527 40.0708C71.4864 38.9598 75.4339 39.9903 77.794 42.5881C79.385 44.3392 80.4859 46.8432 82.7727 47.4619C85.6541 48.2414 88.6051 45.4665 91.4961 46.2091C93.1863 46.6439 94.336 48.1587 95.348 49.5769C97.1848 52.1481 99.0208 54.72 100.857 57.2913C102.616 59.7547 104.378 62.2226 105.906 64.8351C109.67 71.2731 111.974 78.6465 111.908 86.0988C111.843 93.5511 109.31 101.062 104.369 106.653C103.752 107.352 103.081 108.049 102.78 108.931C102.579 109.523 102.557 110.166 102.318 110.743C101.846 111.88 100.652 112.52 99.5346 113.042C88.4629 118.22 75.2695 121.553 62.9807 120.241C59.0533 119.823 55.1828 118.967 51.3827 117.906Z" stroke="#A8452C" stroke-width="2.1499" stroke-miterlimit="10" stroke-linecap="round" stroke-linejoin="round"/>
<path d="M84.5488 114.019C86.393 113.091 88.2371 112.164 90.0806 111.236C94.0043 109.262 98.1072 107.133 100.527 103.474C104.134 98.017 102.979 90.6732 100.37 84.6781C97.7615 78.6823 93.8518 73.2328 92.0388 66.952C91.3732 64.6465 90.8772 62.0546 88.979 60.5797C87.8833 59.7285 86.4818 59.3963 85.2255 58.805C81.7985 57.192 79.6545 53.7881 77.5749 50.6292C76.3533 48.7741 74.638 46.7233 72.4252 46.9625C70.0672 47.2172 68.8886 49.8268 67.7536 51.9041C66.3522 54.4702 64.3629 56.7158 61.982 58.4196C60.3289 59.603 58.0849 60.5295 56.3207 59.5166C54.9067 58.7046 53.9879 56.7505 52.3614 56.8856C50.4343 57.0451 50.1101 59.8333 48.5768 61.0086C47.4782 61.23 46.9607 59.6694 46.0079 59.0826C45.2394 58.6094 44.1948 58.8456 43.4856 59.403C42.7763 59.9603 42.3277 60.7753 41.8976 61.5674C39.9683 65.1219 38.0397 68.6765 36.1104 72.2317C34.5261 75.1507 32.9285 78.1028 32.0608 81.3074C30.1789 88.2592 32.0201 95.9515 36.274 101.77C40.528 107.589 47.0051 111.593 53.9517 113.558C56.759 114.352 59.0562 115.166 61.9258 115.694C63.308 115.949 65.5911 116.499 66.9963 116.557C72.9338 116.802 79.1052 116.758 84.5488 114.019Z" stroke="#A8452C" stroke-width="2.1499" stroke-miterlimit="10" stroke-linecap="round" stroke-linejoin="round"/>
<path d="M59.5781 80.3013V93.866" stroke="#A8452C" stroke-width="2.1499" stroke-miterlimit="10" stroke-linecap="round" stroke-linejoin="round"/>
<path d="M77.8806 80.3013V93.866" stroke="#A8452C" stroke-width="2.1499" stroke-miterlimit="10" stroke-linecap="round" stroke-linejoin="round"/>
<path d="M55.9913 83.8159H62.9171" stroke="#A8452C" stroke-width="2.1499" stroke-miterlimit="10" stroke-linecap="round" stroke-linejoin="round"/>
<path d="M74.4181 83.8159H81.3439" stroke="#A8452C" stroke-width="2.1499" stroke-miterlimit="10" stroke-linecap="round" stroke-linejoin="round"/>
<path d="M14.9561 94.3843C14.9561 94.3843 24.3902 116.848 43.9616 124.43" stroke="#A8452C" stroke-miterlimit="10" stroke-linecap="round" stroke-linejoin="round"/>
<path d="M28.4531 75.5711C28.8862 72.303 29.8568 69.0821 31.5248 66.2355C34.7348 60.7587 40.2466 57.0499 44.254 52.123C44.9322 51.2895 45.8442 50.318 46.8829 50.6015C47.5026 50.7706 47.9068 51.3434 48.3954 51.7591C48.8841 52.1747 49.7014 52.4109 50.1182 51.9237" stroke="#A8452C" stroke-miterlimit="10" stroke-linecap="round" stroke-linejoin="round"/>
<path d="M84.4667 51.4243C85.0589 52.0496 86.0562 52.0363 86.9009 51.8613C87.7456 51.6864 88.6162 51.394 89.4491 51.6162C90.1465 51.8023 90.6995 52.3213 91.2081 52.8314C97.0286 58.667 101.422 65.9089 103.902 73.7592" stroke="#A8452C" stroke-miterlimit="10" stroke-linecap="round" stroke-linejoin="round"/>
<path d="M35.8091 88.9399C35.9061 91.6566 36.9196 94.2773 38.3181 96.6108C39.7165 98.9436 41.4956 101.024 43.2657 103.091" stroke="#A8452C" stroke-miterlimit="10" stroke-linecap="round" stroke-linejoin="round"/>
<path d="M68.5258 58.3982C69.4068 58.0837 69.8895 57.1381 70.1242 56.2345C70.3589 55.3309 70.4433 54.3668 70.9141 53.5607C71.385 52.7545 72.434 52.1662 73.2647 52.5958C73.5889 52.7641 73.8273 53.0579 74.0391 53.3547C75.2303 55.0223 75.8847 57.0052 76.8812 58.7954C77.8777 60.5856 79.3887 62.2842 81.4068 62.6614C82.5832 62.8814 83.8544 62.6356 84.9501 63.1162C86.6802 63.8751 87.1933 66.0063 87.8729 67.7648C88.2416 68.7178 88.7154 69.6265 89.1877 70.5331C90.2042 72.4827 91.2207 74.4324 92.2379 76.3813" stroke="#A8452C" stroke-miterlimit="10" stroke-linecap="round" stroke-linejoin="round"/>
<path d="M86.299 87.2822C85.4239 90.3628 87.7678 93.5113 87.5294 96.7041C87.428 98.0632 86.8631 99.3396 86.3064 100.584C85.9392 101.405 85.5557 102.249 84.902 102.868C84.4074 103.337 83.7863 103.648 83.1703 103.941C81.2225 104.867 79.2192 105.677 77.1751 106.367C75.3546 106.981 73.3506 107.496 71.5419 106.847" stroke="#A8452C" stroke-miterlimit="10" stroke-linecap="round" stroke-linejoin="round"/>
<path d="M36.2318 83.2186C37.5555 79.1998 40.7863 76.1133 42.7364 72.3564C43.6684 70.5604 44.3081 68.6107 45.4045 66.9099C45.6207 66.5747 45.8828 66.2285 46.267 66.1178C46.8252 65.9568 47.3745 66.3466 47.9335 66.5046C49.4097 66.9209 50.8682 65.6364 51.4641 64.2264C51.6351 63.8211 51.8002 63.3568 52.1985 63.1671C52.8796 62.8423 53.5659 63.5384 54.176 63.9821C55.2887 64.7919 56.9226 64.8015 58.0449 64.005" stroke="#A8452C" stroke-miterlimit="10" stroke-linecap="round" stroke-linejoin="round"/>
<path d="M106.897 83.0654C108.139 87.7539 106.948 92.7021 105.758 97.4046" stroke="#A8452C" stroke-miterlimit="10" stroke-linecap="round" stroke-linejoin="round"/>
<path d="M95.3325 83.5405C96.52 85.7537 97.7193 87.9964 98.3219 90.434C99.8552 96.6373 96.9212 103.673 91.4294 106.964" stroke="#A8452C" stroke-miterlimit="10" stroke-linecap="round" stroke-linejoin="round"/>
<path d="M33.6125 40.2594L34.9503 34.6431L36.921 40.1893L42.1307 41.6635L37.3438 43.278L35.6536 48.3326L33.6828 43.7697L29.0365 41.3121L33.6125 40.2594Z" stroke="#A8452C" stroke-width="2.1499" stroke-miterlimit="10" stroke-linecap="round" stroke-linejoin="round"/>
<path d="M118.493 87.0327L119.618 82.3096L121.276 86.9744L125.657 88.2139L121.631 89.5722L120.21 93.8228L118.552 89.9848L114.644 87.9186L118.493 87.0327Z" stroke="#A8452C" stroke-width="2.1499" stroke-miterlimit="10" stroke-linecap="round" stroke-linejoin="round"/>
<path d="M48.0446 13.7935V25.0255" stroke="#A8452C" stroke-miterlimit="10" stroke-linecap="round" stroke-linejoin="round"/>
<path d="M51.1421 14.917V26.149" stroke="#A8452C" stroke-miterlimit="10" stroke-linecap="round" stroke-linejoin="round"/>
<path d="M89.7223 14.0747V25.3067" stroke="#A8452C" stroke-miterlimit="10" stroke-linecap="round" stroke-linejoin="round"/>
<path d="M86.4366 15.3853V26.6173" stroke="#A8452C" stroke-miterlimit="10" stroke-linecap="round" stroke-linejoin="round"/>
<path d="M56.4925 15.7598V26.9918" stroke="#A8452C" stroke-miterlimit="10" stroke-linecap="round" stroke-linejoin="round"/>
<path d="M81.0862 16.415V27.6471" stroke="#A8452C" stroke-miterlimit="10" stroke-linecap="round" stroke-linejoin="round"/>
</svg>
