<svg width="169" height="163" viewBox="0 0 169 163" fill="none" xmlns="http://www.w3.org/2000/svg">
<path d="M156.089 6.25668H7.18341V10.3099H156.089V6.25668Z" stroke="black" stroke-width="2.1499" stroke-miterlimit="10" stroke-linecap="round" stroke-linejoin="round"/>
<path d="M61.9772 77.2831H2.92456V80.0382H61.9772V77.2831Z" stroke="black" stroke-width="2.1499" stroke-miterlimit="10" stroke-linecap="round" stroke-linejoin="round"/>
<path d="M5.47363 80.4619C5.47363 80.4619 10.1466 95.5094 33.5131 97.5228C33.5131 97.5228 57.1978 97.4166 59.7469 80.1439" stroke="black" stroke-width="2.1499" stroke-miterlimit="10" stroke-linecap="round" stroke-linejoin="round"/>
<path d="M37.6549 83.4824H58.26" stroke="black" stroke-miterlimit="10" stroke-linecap="round" stroke-linejoin="round"/>
<path d="M6.96051 83.4824H27.565" stroke="black" stroke-miterlimit="10" stroke-linecap="round" stroke-linejoin="round"/>
<path d="M8.87201 86.4758H57.092" stroke="black" stroke-miterlimit="10" stroke-linecap="round" stroke-linejoin="round"/>
<path d="M32.0263 10.946L2.92456 77.2831" stroke="black" stroke-miterlimit="10" stroke-linecap="round" stroke-linejoin="round"/>
<path d="M32.2386 10.7342L61.3403 77.0713" stroke="black" stroke-miterlimit="10" stroke-linecap="round" stroke-linejoin="round"/>
<path d="M4.98358 77.1584C6.55246 74.8757 8.27347 72.698 10.1321 70.643C10.5203 70.214 10.9403 69.7732 11.4933 69.6016C11.8974 69.4756 12.3405 69.5059 12.738 69.3614C13.2711 69.1681 13.6429 68.6956 13.9835 68.2435C16.2006 65.3003 18.3191 62.2825 20.3338 59.1967C21.5759 57.2941 22.7803 55.3632 24.1607 53.5583C25.3096 52.0564 25.9763 51.2447 27.2403 49.8384C28.7258 48.1853 30.2114 46.5315 31.6962 44.8784C32.0607 44.4726 33.0938 43.4372 33.6395 43.4418C34.0502 43.4451 34.41 43.7038 34.7262 43.9651C33.996 43.3619 41.0493 53.8718 40.552 52.682C41.9118 55.938 42.9628 59.3346 44.6415 62.4395C44.8842 62.8889 45.1614 63.3529 45.6092 63.599C46.0133 63.8214 46.4948 63.8326 46.9465 63.9257C48.9936 64.3474 50.2404 66.3515 51.3615 68.1115C53.4245 71.3511 55.8552 74.357 58.5928 77.0541" stroke="black" stroke-miterlimit="10" stroke-linecap="round" stroke-linejoin="round"/>
<path d="M20.0453 60.3106C21.7776 59.9061 23.5416 58.1435 25.2745 57.7389C26.8791 57.3641 27.9427 57.5601 29.2351 56.5398C30.8807 55.2411 31.7597 53.0647 33.6104 52.0795C35.0833 51.2948 36.8916 51.4268 38.4255 50.7689" stroke="black" stroke-miterlimit="10" stroke-linecap="round" stroke-linejoin="round"/>
<path d="M13.9835 68.2435C16.01 67.8693 19.1577 67.5341 21.2101 67.7268C22.7281 67.8694 23.6157 68.918 25.1396 68.9279C29.5975 68.9569 33.2916 65.2924 37.7052 64.6654C38.9209 64.4925 40.8939 63.9052 41.765 63.0414C42.3126 62.4989 43.2591 61.4536 44.0125 61.6179" stroke="black" stroke-miterlimit="10" stroke-linecap="round" stroke-linejoin="round"/>
<path d="M28.155 77.1287C28.6418 77.0264 29.0506 76.7116 29.4838 76.4674C30.7491 75.7534 32.2512 75.634 33.6951 75.4624C36.1106 75.1753 38.5829 74.6678 40.5771 73.278C41.3391 72.7468 42.0289 72.0895 42.8855 71.7299C45.1105 70.7954 47.8864 72.0823 49.9944 70.9089C50.7682 70.4787 51.5189 69.7145 52.3781 69.929" stroke="black" stroke-miterlimit="10" stroke-linecap="round" stroke-linejoin="round"/>
<path d="M5.85602 76.9399C7.32701 75.8062 9.05926 75.013 10.8801 74.6401C13.0483 74.196 15.4221 74.3075 17.2919 73.1263C17.8846 72.7521 17.823 72.8471 18.5023 72.6729C19.6426 72.3806 21.6659 72.432 22.5151 71.6183" stroke="black" stroke-miterlimit="10" stroke-linecap="round" stroke-linejoin="round"/>
<path d="M25.7792 64.1652C26.4234 63.3159 27.3322 62.6699 28.3461 62.3392C30.0136 61.7955 31.9317 62.0838 33.4582 61.22C34.1917 60.8049 34.7784 60.1496 35.5503 59.8117C36.6337 59.3379 37.9909 59.53 38.9162 58.7948C39.3481 58.4516 40.2199 57.3529 40.5962 56.9497C40.9726 56.5465 41.5321 56.6521 42.0481 56.8494" stroke="black" stroke-miterlimit="10" stroke-linecap="round" stroke-linejoin="round"/>
<path d="M25.2852 52.257C25.8864 51.9448 26.1113 52.6391 26.7105 52.323C27.1953 52.0669 27.7622 52.0339 28.3025 51.9402C29.7067 51.6954 31.0269 50.9932 32.0131 49.9664" stroke="black" stroke-miterlimit="10" stroke-linecap="round" stroke-linejoin="round"/>
<path d="M47.8599 76.3011C47.7859 75.9408 48.1662 75.6617 48.5022 75.5092C49.6299 74.9965 50.2695 75.3251 51.5083 75.3244C52.054 75.3244 53.222 74.7734 53.7194 74.5497C54.2168 74.326 55.7976 74.5471 55.537 74.0693" stroke="black" stroke-miterlimit="10" stroke-linecap="round" stroke-linejoin="round"/>
<path d="M34.254 71.3794C35.2005 70.4866 36.3182 69.7752 37.528 69.2941C38.8177 68.7814 40.8099 67.9301 42.0375 67.284C42.6176 66.9784 43.1573 66.5871 43.7757 66.3693C44.3221 66.1773 44.9068 66.1285 45.4809 66.0519C46.4419 65.9239 47.9744 65.3544 48.8991 65.062" stroke="black" stroke-miterlimit="10" stroke-linecap="round" stroke-linejoin="round"/>
<path d="M24.2963 74.2099C24.7785 73.5664 25.0285 73.9169 25.8275 73.8185C26.6265 73.7202 27.4559 73.7255 28.2007 73.4206C28.8092 73.1725 29.3462 72.7231 29.9977 72.6346" stroke="black" stroke-miterlimit="10" stroke-linecap="round" stroke-linejoin="round"/>
<path d="M18.7258 65.7187C19.2305 65.1934 19.8899 64.8186 20.6003 64.6516C21.009 64.5559 20.8338 65.1248 21.2366 65.0086C21.9721 64.7968 23.1897 63.7112 23.7877 63.2334" stroke="black" stroke-miterlimit="10" stroke-linecap="round" stroke-linejoin="round"/>
<path d="M46.6687 59.557C46.6687 59.557 47.676 58.9921 47.8645 57.4849C47.8645 57.4849 48.2422 59.1175 49.3124 59.2435C49.3124 59.2435 48.4929 60.0566 48.1794 62.0066C48.1794 62.0066 47.5497 59.557 46.6687 59.557Z" stroke="black" stroke-width="0.571" stroke-miterlimit="10" stroke-linecap="round" stroke-linejoin="round"/>
<path d="M13.6726 59.2746C13.6726 59.2746 14.6793 58.709 14.8684 57.2024C14.8684 57.2024 15.2461 58.8351 16.3163 58.9611C16.3163 58.9611 15.4968 59.7735 15.1833 61.7242C15.1833 61.7242 14.5536 59.2746 13.6726 59.2746Z" stroke="black" stroke-width="0.571" stroke-miterlimit="10" stroke-linecap="round" stroke-linejoin="round"/>
<path d="M38.8799 43.3085C38.8799 43.3085 39.8866 42.7436 40.0757 41.2363C40.0757 41.2363 40.4534 42.869 41.5236 42.9944C41.5236 42.9944 40.7041 43.8074 40.3906 45.7574C40.7993 47.3505 37.7555 43.3085 38.8799 43.3085Z" stroke="black" stroke-miterlimit="10" stroke-linecap="round" stroke-linejoin="round"/>
<path d="M163.302 77.4949H104.249V80.2501H163.302V77.4949Z" stroke="black" stroke-width="2.1499" stroke-miterlimit="10" stroke-linecap="round" stroke-linejoin="round"/>
<path d="M106.798 80.6738C106.798 80.6738 111.472 95.7213 134.838 97.7347C134.838 97.7347 158.522 97.6284 161.071 80.3557" stroke="black" stroke-width="2.1499" stroke-miterlimit="10" stroke-linecap="round" stroke-linejoin="round"/>
<path d="M139.795 82.8812H160.4" stroke="black" stroke-miterlimit="10" stroke-linecap="round" stroke-linejoin="round"/>
<path d="M109.1 82.8812H129.705" stroke="black" stroke-miterlimit="10" stroke-linecap="round" stroke-linejoin="round"/>
<path d="M111.012 85.8746H159.231" stroke="black" stroke-miterlimit="10" stroke-linecap="round" stroke-linejoin="round"/>
<path d="M133.351 11.1579L104.249 77.4949" stroke="black" stroke-miterlimit="10" stroke-linecap="round" stroke-linejoin="round"/>
<path d="M133.563 10.9461L162.665 77.2831" stroke="black" stroke-miterlimit="10" stroke-linecap="round" stroke-linejoin="round"/>
<path d="M108.149 76.7915C109.837 74.7009 111.144 72.3047 111.988 69.7561C112.258 68.9404 112.495 68.0839 113.046 67.4239C113.597 66.764 114.575 66.3628 115.339 66.7587C115.562 66.8742 115.766 67.0537 116.016 67.0722C116.471 67.1052 116.768 66.6155 116.936 66.1925C118.782 61.5256 118.576 56.0456 121.422 51.9086C121.811 51.3437 122.305 50.7795 122.978 50.6389C123.325 50.5663 123.695 50.6138 124.031 50.5016C124.561 50.3248 124.884 49.8001 125.135 49.3019C126.903 45.7779 127.28 41.6878 129.038 38.1579C129.466 37.2973 130.142 36.3748 131.104 36.3635C131.994 36.353 132.69 37.1561 133.019 37.9817C133.5 39.1867 133.481 40.5217 133.652 41.8079C133.824 43.0934 134.27 44.4601 135.355 45.1734C135.912 45.5397 136.589 45.6974 137.133 46.0835C139.05 47.4449 138.317 50.6594 139.88 52.4134C140.527 53.1387 141.48 53.5062 142.247 54.1035C144.246 55.6602 144.674 58.4352 145.326 60.8802C145.518 61.5962 145.762 62.3393 146.309 62.8401C146.734 63.2288 147.293 63.4262 147.809 63.6842C149.388 64.4761 150.622 65.9286 151.145 67.6133C151.352 68.2799 151.461 68.9992 151.866 69.5687C152.452 70.3936 153.512 70.7136 154.315 71.3307C154.951 71.819 155.419 72.4895 155.875 73.1487C156.74 74.396 157.605 75.6439 158.469 76.8911" stroke="black" stroke-miterlimit="10" stroke-linecap="round" stroke-linejoin="round"/>
<path d="M115.899 76.6087C116.818 75.8914 116.903 74.5643 116.959 73.4015C117.014 72.2387 117.231 70.8892 118.252 70.3269C118.748 70.0537 119.348 70.0286 119.859 69.7845C120.687 69.3885 121.15 68.4877 121.397 67.6054C121.644 66.7231 121.74 65.7913 122.123 64.9578C122.594 63.931 123.458 63.1404 124.057 62.1815C125.496 59.8751 125.399 56.6283 127.495 54.8927C128.091 54.3998 128.833 54.0665 129.3 53.4508C130.044 52.4721 129.959 50.953 130.926 50.1921C132.074 49.29 133.857 50.2073 134.521 51.5054C135.184 52.8041 135.158 54.3331 135.502 55.7493C136.241 58.7856 138.639 61.1686 139.639 64.1296C140.048 65.3419 140.223 66.6512 140.88 67.7493C141.906 69.4611 143.941 70.387 144.943 72.112C145.34 72.795 145.568 73.5935 146.128 74.1511C146.577 74.5979 147.192 74.8388 147.69 75.2301C148.174 75.6102 148.544 76.1342 148.737 76.7169" stroke="black" stroke-miterlimit="10" stroke-linecap="round" stroke-linejoin="round"/>
<path d="M126.133 76.5433C127.261 74.9437 127.875 72.989 127.864 71.0337C127.858 69.8854 127.648 68.6949 128.04 67.6153C128.565 66.1727 130.057 65.2389 130.552 63.7864C130.798 63.0665 130.774 62.2792 130.997 61.552C131.22 60.8247 131.834 60.1074 132.593 60.1741C133.251 60.2321 133.713 60.8432 133.99 61.4404C135.092 63.8201 134.626 66.6881 135.683 69.0882C136.087 70.0055 136.697 70.8146 137.301 71.6144C138.129 72.7086 138.956 73.8027 139.784 74.8968C140.301 75.5805 140.818 76.2649 141.335 76.9485" stroke="black" stroke-miterlimit="10" stroke-linecap="round" stroke-linejoin="round"/>
<path d="M122.291 59.922C122.291 60.3318 121.958 60.6637 121.547 60.6637C121.136 60.6637 120.804 60.3318 120.804 59.922C120.804 59.5121 121.136 59.1802 121.547 59.1802C121.957 59.1802 122.291 59.5128 122.291 59.922Z" fill="black"/>
<path d="M151.498 73.0623C151.498 73.4721 151.165 73.804 150.755 73.804C150.344 73.804 150.011 73.4721 150.011 73.0623C150.011 72.6525 150.344 72.3205 150.755 72.3205C151.165 72.3205 151.498 72.6531 151.498 73.0623Z" fill="black"/>
<path d="M121.972 74.7583C121.972 75.1681 121.639 75.5 121.228 75.5C120.818 75.5 120.485 75.1681 120.485 74.7583C120.485 74.3485 120.818 74.0165 121.228 74.0165C121.639 74.0165 121.972 74.3485 121.972 74.7583Z" fill="black"/>
<path d="M141.302 55.7895C141.302 56.1994 140.969 56.5313 140.558 56.5313C140.148 56.5313 139.815 56.1994 139.815 55.7895C139.815 55.3797 140.148 55.0478 140.558 55.0478C140.969 55.0478 141.302 55.3797 141.302 55.7895Z" fill="black"/>
<path d="M131.743 67.022C131.743 67.4318 131.41 67.7638 130.999 67.7638C130.589 67.7638 130.256 67.4318 130.256 67.022C130.256 66.6122 130.589 66.2803 130.999 66.2803C131.41 66.2803 131.743 66.6122 131.743 67.022Z" stroke="black" stroke-miterlimit="10" stroke-linecap="round" stroke-linejoin="round"/>
<path d="M127.813 54.6769C127.76 54.3589 126.858 51.1266 126.858 51.1266L129.247 53.14" stroke="black" stroke-miterlimit="10" stroke-linecap="round" stroke-linejoin="round"/>
<path d="M134.292 43.8147C134.504 43.6028 138.221 40.9005 138.221 40.9005L136.522 45.7218" stroke="black" stroke-miterlimit="10" stroke-linecap="round" stroke-linejoin="round"/>
<path d="M135.248 67.6582L138.328 65.3795L136.257 69.7772" stroke="black" stroke-miterlimit="10" stroke-linecap="round" stroke-linejoin="round"/>
<path d="M117.405 64.3731L115.227 57.803L118.201 60.2929" stroke="black" stroke-miterlimit="10" stroke-linecap="round" stroke-linejoin="round"/>
<path d="M145.869 61.8826L150.118 58.6503L147.807 63.6828" stroke="black" stroke-miterlimit="10" stroke-linecap="round" stroke-linejoin="round"/>
<path d="M124.627 49.6958L121.653 44.5036L125.636 46.5698" stroke="black" stroke-miterlimit="10" stroke-linecap="round" stroke-linejoin="round"/>
<path d="M84.6512 151.586V10.2934H78.9869V151.586C64.5719 156.248 50.5228 151.975 50.5228 151.975V158.056H113.116V151.975C113.116 151.975 97.1183 156.673 84.6512 151.586Z" stroke="black" stroke-width="2.1499" stroke-miterlimit="10" stroke-linecap="round" stroke-linejoin="round"/>
<path d="M30.6426 95.2811L33.4476 88.1454L36.0238 94.994L29.321 90.401H37.5345L30.6426 95.2811Z" stroke="black" stroke-width="1.2815" stroke-miterlimit="10" stroke-linecap="round" stroke-linejoin="round"/>
<path d="M135.84 92.6493C134.449 92.4078 133.519 91.0873 133.761 89.6995C133.821 89.3544 133.948 89.0383 134.127 88.7604C133.127 89.134 132.346 90.0077 132.15 91.1322C131.855 92.8203 132.988 94.4265 134.68 94.7202C136.371 95.0138 137.981 93.884 138.276 92.196C138.307 92.0191 138.318 91.8436 138.319 91.6694C137.76 92.4098 136.818 92.8196 135.84 92.6493Z" stroke="black" stroke-width="1.2846" stroke-miterlimit="10" stroke-linecap="round" stroke-linejoin="round"/>
<path d="M88.6932 141.66V104.994" stroke="black" stroke-miterlimit="10" stroke-linecap="round" stroke-linejoin="round"/>
<path d="M75.9827 54.0942V17.4285" stroke="black" stroke-miterlimit="10" stroke-linecap="round" stroke-linejoin="round"/>
<path d="M3.97223 85.4608C3.97223 85.4608 11.1942 96.6933 22.6652 99.661" stroke="black" stroke-miterlimit="10" stroke-linecap="round" stroke-linejoin="round"/>
<path d="M143.533 100.296C145.073 100.058 159.248 96.0347 162.438 86.3088" stroke="black" stroke-miterlimit="10" stroke-linecap="round" stroke-linejoin="round"/>
<path d="M130.575 3.65265H156.49" stroke="black" stroke-miterlimit="10" stroke-linecap="round" stroke-linejoin="round"/>
</svg>
