<svg width="222" height="182" viewBox="0 0 222 182" fill="none" xmlns="http://www.w3.org/2000/svg">
<path d="M201.464 149.686L205.335 147.357L207.417 149.239L195.082 157.169L188.888 169.31L186.685 167.108L192.89 154.736L201.464 149.686Z" stroke="#A8452C" stroke-width="1.9835" stroke-miterlimit="10" stroke-linecap="round" stroke-linejoin="round"/>
<path d="M200.414 154.553L207.934 162.073L201.763 168.244L200.842 169.165L193.609 161.932" stroke="#A8452C" stroke-width="1.9571" stroke-miterlimit="10" stroke-linecap="round" stroke-linejoin="round"/>
<path d="M190.916 167.162L200.951 177.196L200.739 169.479L219.523 180.007L207.963 162.255L215.017 160.866L205.405 151.253" stroke="#A8452C" stroke-width="1.9571" stroke-miterlimit="10" stroke-linecap="round" stroke-linejoin="round"/>
<path d="M200.951 177.196L219.523 180.007L215.017 160.866" stroke="#A8452C" stroke-width="1.9571" stroke-miterlimit="10" stroke-linecap="round" stroke-linejoin="round"/>
<path d="M136.491 134.25L169.687 101.053L166.246 97.6121L133.05 130.808L136.491 134.25Z" stroke="#A8452C" stroke-width="1.9505" stroke-miterlimit="10" stroke-linecap="round" stroke-linejoin="round"/>
<path d="M203.027 148.049L169.619 114.612" stroke="#A8452C" stroke-width="2.2405" stroke-miterlimit="10" stroke-linecap="round" stroke-linejoin="round"/>
<path d="M187.127 164.683L153.13 130.734" stroke="#A8452C" stroke-width="2.2405" stroke-miterlimit="10" stroke-linecap="round" stroke-linejoin="round"/>
<path d="M168.331 115.79C168.331 115.79 171.414 111.826 181.794 109.522C192.174 107.218 191.214 97.0187 191.214 97.0187C191.214 97.0187 195.745 92.7808 190.724 91.0482C190.724 91.0482 186.226 89.5262 183.941 96.9499C181.656 104.374 168.712 106.619 165.716 105.503" stroke="#A8452C" stroke-width="2.2405" stroke-miterlimit="10" stroke-linecap="round" stroke-linejoin="round"/>
<path d="M153.611 128.825C153.399 130.909 152.138 132.786 150.881 134.527C148.602 137.684 146.151 140.8 143.032 143.132C139.912 145.465 136.013 146.955 132.309 146.437C129.475 146.04 126.996 144.528 124.267 143.747C123.902 143.643 123.521 143.551 123.136 143.611C122.629 143.69 122.185 144.019 121.701 144.207C120.146 144.81 118.357 143.689 118.049 142.107C117.74 140.525 118.738 138.779 120.19 137.936C121.642 137.094 123.43 137.071 124.939 137.602C125.876 137.932 126.723 138.457 127.653 138.804C130.236 139.767 133.355 139.227 135.767 137.613C138.179 135.999 140.207 133.471 140.531 130.467" stroke="#A8452C" stroke-width="2.2405" stroke-miterlimit="10" stroke-linecap="round" stroke-linejoin="round"/>
<path d="M31.6765 3.56563C34.0355 3.26282 38.9395 6.28769 41.7783 9.90916C44.6176 13.5311 48.3079 14.2457 51.9733 15.7191C55.6392 17.192 55.9869 20.5153 55.9869 20.5153C55.9869 20.5153 56.9908 26.9998 62.2765 27.5876C67.5622 28.1754 68.8397 30.8623 70.0388 33.6277C71.2379 36.3931 73.5626 39.5005 79.049 40.9157C84.5355 42.3309 86.6745 46.505 86.8312 48.6979C86.988 50.8898 88.7451 52.8038 88.7451 52.8038C88.7451 52.8038 87.7084 51.5868 100.18 64.0581" stroke="#A8452C" stroke-width="1.9505" stroke-miterlimit="10" stroke-linecap="round" stroke-linejoin="round"/>
<path d="M160.95 102.615L131.18 72.5581" stroke="#A8452C" stroke-width="1.9505" stroke-miterlimit="10" stroke-linecap="round" stroke-linejoin="round"/>
<path d="M89.4906 72.3691C89.4906 72.3691 80.2966 63.4609 79.1089 62.587" stroke="#A8452C" stroke-width="1.9505" stroke-miterlimit="10" stroke-linecap="round" stroke-linejoin="round"/>
<path d="M99.3887 42.3067C98.8377 38.0819 95.9399 34.3855 92.0078 32.8907C89.4224 31.9082 86.2399 31.6751 84.6388 29.4492C83.6109 28.0201 83.5054 26.0693 82.6017 24.5548C80.9058 21.7135 77.0365 21.207 73.6397 21.1476C70.2425 21.0887 66.4396 21.0479 64.1841 18.6421C62.6966 17.0559 62.2236 14.7555 61.1115 12.8776C58.9877 9.29174 54.7903 7.59269 50.783 6.31674C45.9925 4.79136 41.0898 3.56424 36.1117 2.64416C34.3367 2.31618 33.2586 2.54685 31.6771 3.56619" stroke="#A8452C" stroke-width="1.9505" stroke-miterlimit="10" stroke-linecap="round" stroke-linejoin="round"/>
<path d="M79.1097 62.5857C74.6828 60.7717 73.5988 55.081 70.5901 51.4136C68.7862 49.2151 67.4978 45.8907 65.0694 44.3961C59.6373 41.0527 53.2745 39.728 51.7058 33.4595C51.3025 31.8488 50.6865 29.2343 50.0456 27.7168C48.7046 24.5418 45.3975 22.8423 42.6501 20.8033C37.1828 16.7454 41.2872 11.0613 31.6776 3.56572" stroke="#A8452C" stroke-width="1.9505" stroke-miterlimit="10" stroke-linecap="round" stroke-linejoin="round"/>
<path d="M190.468 136.081C190.468 136.081 186.09 138.202 183.064 142.444" stroke="#A8452C" stroke-width="0.9227" stroke-miterlimit="10" stroke-linecap="round" stroke-linejoin="round"/>
<path d="M188.379 133.514C188.379 133.514 184.933 134.687 182.861 137.948" stroke="#A8452C" stroke-width="0.9227" stroke-miterlimit="10" stroke-linecap="round" stroke-linejoin="round"/>
<path d="M197.162 151.785L185.71 140.332" stroke="#A8452C" stroke-width="0.9227" stroke-miterlimit="10" stroke-linecap="round" stroke-linejoin="round"/>
<path d="M182.506 136.928L166.428 120.85" stroke="#A8452C" stroke-width="0.9227" stroke-miterlimit="10" stroke-linecap="round" stroke-linejoin="round"/>
<path d="M190.462 158.485L158.967 126.99" stroke="#A8452C" stroke-width="0.9227" stroke-miterlimit="10" stroke-linecap="round" stroke-linejoin="round"/>
<path d="M141.789 83.4536L143.075 100.008" stroke="#A8452C" stroke-miterlimit="10" stroke-linecap="round" stroke-linejoin="round"/>
<path d="M138.235 80.8398L139.521 97.3939" stroke="#A8452C" stroke-miterlimit="10" stroke-linecap="round" stroke-linejoin="round"/>
<path d="M131.606 78.4388L131.666 87.1893" stroke="#A8452C" stroke-miterlimit="10" stroke-linecap="round" stroke-linejoin="round"/>
<path d="M158.733 100.868L155.092 104.509" stroke="#A8452C" stroke-miterlimit="10" stroke-linecap="round" stroke-linejoin="round"/>
<path d="M144.28 115.541L137.703 122.118" stroke="#A8452C" stroke-miterlimit="10" stroke-linecap="round" stroke-linejoin="round"/>
<path d="M141.328 115.409L136.278 120.459" stroke="#A8452C" stroke-miterlimit="10" stroke-linecap="round" stroke-linejoin="round"/>
<path d="M97.1969 44.7076C95.8121 41.6522 94.2431 38.3995 91.2507 36.8954C89.9648 36.2493 88.5062 35.9812 87.1501 35.4792C85.1853 34.7518 83.4366 33.5218 82.1052 31.9319C80.7868 30.3571 79.8521 28.4189 78.2096 27.1832C74.7301 24.5663 69.1665 25.8607 65.7946 23.1098" stroke="#A8452C" stroke-miterlimit="10" stroke-linecap="round" stroke-linejoin="round"/>
<path d="M126.139 107.032L112.68 93.5581" stroke="#A8452C" stroke-miterlimit="10" stroke-linecap="round" stroke-linejoin="round"/>
<path d="M97.6797 65.5581L89.2031 57.4111C86.9832 56.3309 85.4349 54.5552 84.4185 52.3023C83.8035 50.9394 83.4573 49.4197 82.5663 48.2308C81.0017 46.1419 78.1747 45.5436 75.6896 44.6651C73.1936 43.7834 70.7712 42.4114 69.409 40.166C68.5929 38.821 68.205 37.2417 67.5044 35.8279C66.8042 34.4137 65.647 33.0901 64.0559 32.8831" stroke="#A8452C" stroke-miterlimit="10" stroke-linecap="round" stroke-linejoin="round"/>
<path d="M54.9645 26.2129C53.3254 24.1651 53.672 20.853 51.7761 19.0426C50.5375 17.8594 48.6654 17.6401 47.0474 17.0265C45.4322 16.4137 44.0088 15.3615 42.9635 14.0061" stroke="#A8452C" stroke-miterlimit="10" stroke-linecap="round" stroke-linejoin="round"/>
<path d="M189.569 94.433C189.439 94.5623 189.282 94.5351 189.214 94.4675C189.146 94.4 189.118 94.2412 189.248 94.1119C189.377 93.9824 189.535 94.0103 189.603 94.0781C189.67 94.1457 189.698 94.3039 189.569 94.433Z" fill="black" stroke="#A8452C"/>
<path d="M121.845 140.867C121.715 140.997 121.556 140.969 121.489 140.902C121.422 140.835 121.394 140.676 121.523 140.546C121.652 140.417 121.811 140.445 121.879 140.513C121.946 140.58 121.973 140.738 121.845 140.867Z" fill="black" stroke="#A8452C"/>
<path d="M143.011 132.321C142.828 133.127 142.646 133.933 142.463 134.739C142.406 134.991 142.348 135.244 142.272 135.492C141.984 136.422 141.414 137.278 140.661 137.916" stroke="#A8452C" stroke-miterlimit="10" stroke-linecap="round" stroke-linejoin="round"/>
<path d="M138.276 139.762C137.481 140.327 136.564 140.711 135.622 140.872" stroke="#A8452C" stroke-miterlimit="10" stroke-linecap="round" stroke-linejoin="round"/>
<path d="M186.344 97.446C186.195 98.1714 185.948 98.8823 185.609 99.5525" stroke="#A8452C" stroke-miterlimit="10" stroke-linecap="round" stroke-linejoin="round"/>
<path d="M184.99 101.264C183.418 103.89 180.588 105.773 177.616 106.17" stroke="#A8452C" stroke-miterlimit="10" stroke-linecap="round" stroke-linejoin="round"/>
<path d="M138.18 126.059L109.68 97.5586" stroke="#A8452C" stroke-width="1.95"/>
<path d="M149.18 114.558L119.68 85.5581" stroke="#A8452C" stroke-width="1.95"/>
<path d="M20.7353 148.686L16.8643 146.357L14.782 148.239L27.1173 156.169L33.3115 168.31L35.514 166.108L29.3092 153.736L20.7353 148.686Z" stroke="#A8452C" stroke-width="1.9835" stroke-miterlimit="10" stroke-linecap="round" stroke-linejoin="round"/>
<path d="M21.7849 153.553L14.2648 161.073L20.4359 167.244L21.3572 168.165L28.5901 160.932" stroke="#A8452C" stroke-width="1.9571" stroke-miterlimit="10" stroke-linecap="round" stroke-linejoin="round"/>
<path d="M31.2828 166.162L21.2479 176.196L21.4601 168.479L2.67597 179.007L14.2361 161.255L7.18223 159.866L16.7947 150.253" stroke="#A8452C" stroke-width="1.9571" stroke-miterlimit="10" stroke-linecap="round" stroke-linejoin="round"/>
<path d="M21.2479 176.196L2.67597 179.007L7.18223 159.866" stroke="#A8452C" stroke-width="1.9571" stroke-miterlimit="10" stroke-linecap="round" stroke-linejoin="round"/>
<path d="M85.7083 133.25L52.512 100.053L55.9531 96.6121L89.1494 129.808L85.7083 133.25Z" stroke="#A8452C" stroke-width="1.9505" stroke-miterlimit="10" stroke-linecap="round" stroke-linejoin="round"/>
<path d="M19.1722 147.049L52.58 113.612" stroke="#A8452C" stroke-width="2.2405" stroke-miterlimit="10" stroke-linecap="round" stroke-linejoin="round"/>
<path d="M35.0718 163.683L69.0687 129.734" stroke="#A8452C" stroke-width="2.2405" stroke-miterlimit="10" stroke-linecap="round" stroke-linejoin="round"/>
<path d="M53.8683 114.79C53.8683 114.79 50.7854 110.826 40.4052 108.522C30.0251 106.218 30.9853 96.0187 30.9853 96.0187C30.9853 96.0187 26.4541 91.7808 31.4752 90.0482C31.4752 90.0482 35.9729 88.5262 38.2578 95.9499C40.5428 103.374 53.4877 105.619 56.483 104.503" stroke="#A8452C" stroke-width="2.2405" stroke-miterlimit="10" stroke-linecap="round" stroke-linejoin="round"/>
<path d="M68.5885 127.825C68.8001 129.909 70.0613 131.786 71.3182 133.527C73.5976 136.684 76.0481 139.8 79.1672 142.132C82.2867 144.465 86.1867 145.955 89.8906 145.437C92.7245 145.04 95.2033 143.528 97.9326 142.747C98.2971 142.643 98.6783 142.551 99.0631 142.611C99.5698 142.69 100.014 143.019 100.499 143.207C102.053 143.81 103.842 142.689 104.151 141.107C104.459 139.525 103.461 137.779 102.009 136.936C100.557 136.094 98.7689 136.071 97.2606 136.602C96.3237 136.932 95.4767 137.457 94.5467 137.804C91.9629 138.767 88.8442 138.227 86.4321 136.613C84.0199 134.999 81.9921 132.471 81.6681 129.467" stroke="#A8452C" stroke-width="2.2405" stroke-miterlimit="10" stroke-linecap="round" stroke-linejoin="round"/>
<path d="M72.4827 112.775L133.454 51.8036C133.454 51.8036 135.211 49.8896 135.368 47.6977C135.525 45.5048 137.664 41.3307 143.15 39.9155C148.637 38.5003 150.962 35.3928 152.161 32.6275C153.36 29.8621 154.637 27.1752 159.923 26.5874C165.209 25.9996 166.213 19.5151 166.213 19.5151C166.213 19.5151 166.56 16.1918 170.226 14.7189C173.892 13.2455 177.582 12.5308 180.421 8.90894C183.26 5.28747 188.164 2.26261 190.523 2.56541" stroke="#A8452C" stroke-width="1.9505" stroke-miterlimit="10" stroke-linecap="round" stroke-linejoin="round"/>
<path d="M61.2492 101.615L97.1493 65.7147L100.683 64.8432L97.815 58.1582L104.137 61.5443L103.306 56.8954L108.807 58.2846L106.664 52.911L111.083 53.6593C111.083 53.6593 121.865 42.5641 122.81 41.306" stroke="#A8452C" stroke-width="1.9505" stroke-miterlimit="10" stroke-linecap="round" stroke-linejoin="round"/>
<path d="M82.7814 123.147L118.682 87.2471L119.553 83.7137L126.238 86.5814L122.852 80.2589L127.501 81.0906L126.112 75.5898L131.485 77.7328L130.737 73.3135C130.737 73.3135 141.832 62.5312 143.09 61.5868" stroke="#A8452C" stroke-width="1.9505" stroke-miterlimit="10" stroke-linecap="round" stroke-linejoin="round"/>
<path d="M122.811 41.3067C123.362 37.0819 126.259 33.3855 130.191 31.8907C132.777 30.9082 135.959 30.6751 137.56 28.4492C138.588 27.0201 138.694 25.0693 139.598 23.5548C141.293 20.7135 145.163 20.207 148.559 20.1476C151.957 20.0887 155.76 20.0479 158.015 17.6421C159.503 16.0559 159.976 13.7555 161.088 11.8776C163.212 8.29174 167.409 6.59269 171.416 5.31674C176.207 3.79136 181.109 2.56424 186.088 1.64416C187.862 1.31618 188.941 1.54685 190.522 2.56619" stroke="#A8452C" stroke-width="1.9505" stroke-miterlimit="10" stroke-linecap="round" stroke-linejoin="round"/>
<path d="M143.089 61.5857C147.516 59.7717 148.6 54.081 151.609 50.4136C153.413 48.2151 154.701 44.8907 157.13 43.3961C162.562 40.0527 168.925 38.728 170.493 32.4595C170.897 30.8488 171.513 28.2343 172.154 26.7168C173.495 23.5418 176.802 21.8423 179.549 19.8033C185.016 15.7454 180.912 10.0613 190.522 2.56572" stroke="#A8452C" stroke-width="1.9505" stroke-miterlimit="10" stroke-linecap="round" stroke-linejoin="round"/>
<path d="M31.7314 135.081C31.7314 135.081 36.1095 137.202 39.1355 141.444" stroke="#A8452C" stroke-width="0.9227" stroke-miterlimit="10" stroke-linecap="round" stroke-linejoin="round"/>
<path d="M33.8203 132.514C33.8203 132.514 37.2667 133.687 39.3381 136.948" stroke="#A8452C" stroke-width="0.9227" stroke-miterlimit="10" stroke-linecap="round" stroke-linejoin="round"/>
<path d="M25.0367 150.785L36.4896 139.332" stroke="#A8452C" stroke-width="0.9227" stroke-miterlimit="10" stroke-linecap="round" stroke-linejoin="round"/>
<path d="M39.6932 135.928L55.7712 119.85" stroke="#A8452C" stroke-width="0.9227" stroke-miterlimit="10" stroke-linecap="round" stroke-linejoin="round"/>
<path d="M31.7369 157.485L63.2322 125.99" stroke="#A8452C" stroke-width="0.9227" stroke-miterlimit="10" stroke-linecap="round" stroke-linejoin="round"/>
<path d="M80.4106 82.4536L79.1247 99.0076" stroke="#A8452C" stroke-miterlimit="10" stroke-linecap="round" stroke-linejoin="round"/>
<path d="M83.9638 79.8398L82.6779 96.3939" stroke="#A8452C" stroke-miterlimit="10" stroke-linecap="round" stroke-linejoin="round"/>
<path d="M90.5929 77.4388L90.5335 86.1893" stroke="#A8452C" stroke-miterlimit="10" stroke-linecap="round" stroke-linejoin="round"/>
<path d="M63.4662 99.8677L67.1071 103.509" stroke="#A8452C" stroke-miterlimit="10" stroke-linecap="round" stroke-linejoin="round"/>
<path d="M77.9196 114.541L84.4966 121.118" stroke="#A8452C" stroke-miterlimit="10" stroke-linecap="round" stroke-linejoin="round"/>
<path d="M80.8707 114.409L85.921 119.459" stroke="#A8452C" stroke-miterlimit="10" stroke-linecap="round" stroke-linejoin="round"/>
<path d="M125.002 43.7076C126.387 40.6522 127.956 37.3995 130.949 35.8954C132.234 35.2493 133.693 34.9812 135.049 34.4792C137.014 33.7518 138.763 32.5218 140.094 30.9319C141.412 29.3571 142.347 27.4189 143.99 26.1832C147.469 23.5663 153.033 24.8607 156.405 22.1098" stroke="#A8452C" stroke-miterlimit="10" stroke-linecap="round" stroke-linejoin="round"/>
<path d="M96.0598 106.032L115.114 86.9773" stroke="#A8452C" stroke-miterlimit="10" stroke-linecap="round" stroke-linejoin="round"/>
<path d="M96.0554 67.0436C96.3049 67.7337 95.8419 74.5388 95.8419 74.5388" stroke="#A8452C" stroke-miterlimit="10" stroke-linecap="round" stroke-linejoin="round"/>
<path d="M108.989 80.4177L132.996 56.4108C135.216 55.3306 136.764 53.555 137.781 51.302C138.396 49.9392 138.742 48.4195 139.633 47.2305C141.198 45.1417 144.025 44.5434 146.51 43.6649C149.006 42.7831 151.428 41.4112 152.79 39.1657C153.606 37.8207 153.994 36.2414 154.695 34.8277C155.395 33.4134 156.552 32.0899 158.143 31.8828" stroke="#A8452C" stroke-miterlimit="10" stroke-linecap="round" stroke-linejoin="round"/>
<path d="M167.235 25.2129C168.874 23.1651 168.527 19.853 170.423 18.0426C171.662 16.8594 173.534 16.6401 175.152 16.0265C176.767 15.4137 178.19 14.3615 179.236 13.0061" stroke="#A8452C" stroke-miterlimit="10" stroke-linecap="round" stroke-linejoin="round"/>
<path d="M32.6306 93.433C32.7599 93.5623 32.9176 93.5351 32.9855 93.4675C33.053 93.4 33.081 93.2412 32.9517 93.1119C32.8222 92.9824 32.6638 93.0103 32.5961 93.0781C32.5288 93.1457 32.5014 93.3039 32.6306 93.433Z" fill="black" stroke="#A8452C"/>
<path d="M100.354 139.867C100.485 139.997 100.643 139.969 100.71 139.902C100.778 139.835 100.805 139.676 100.676 139.546C100.547 139.417 100.388 139.445 100.321 139.513C100.253 139.58 100.226 139.738 100.354 139.867Z" fill="black" stroke="#A8452C"/>
<path d="M79.188 131.321C79.3708 132.127 79.5532 132.933 79.736 133.739C79.7932 133.991 79.8509 134.244 79.9275 134.492C80.2157 135.422 80.7848 136.278 81.5378 136.916" stroke="#A8452C" stroke-miterlimit="10" stroke-linecap="round" stroke-linejoin="round"/>
<path d="M83.9237 138.762C84.718 139.327 85.6352 139.711 86.577 139.872" stroke="#A8452C" stroke-miterlimit="10" stroke-linecap="round" stroke-linejoin="round"/>
<path d="M35.8554 96.446C36.0038 97.1714 36.2513 97.8823 36.5902 98.5525" stroke="#A8452C" stroke-miterlimit="10" stroke-linecap="round" stroke-linejoin="round"/>
<path d="M37.2094 100.264C38.7812 102.89 41.6112 104.773 44.583 105.17" stroke="#A8452C" stroke-miterlimit="10" stroke-linecap="round" stroke-linejoin="round"/>
<path d="M99.6796 42.5581L110.68 53.0581" stroke="#A8452C" stroke-width="1.95"/>
</svg>
